%TF.GenerationSoftware,KiCad,Pcbnew,5.1.10-8.fc35*%
%TF.CreationDate,2021-11-18T10:19:23+00:00*%
%TF.ProjectId,cryosub_power_converter_top_v02,6372796f-7375-4625-9f70-6f7765725f63,rev?*%
%TF.SameCoordinates,Original*%
%TF.FileFunction,Copper,L2,Inr*%
%TF.FilePolarity,Positive*%
%FSLAX45Y45*%
G04 Gerber Fmt 4.5, Leading zero omitted, Abs format (unit mm)*
G04 Created by KiCad (PCBNEW 5.1.10-8.fc35) date 2021-11-18 10:19:23*
%MOMM*%
%LPD*%
G01*
G04 APERTURE LIST*
%TA.AperFunction,ComponentPad*%
%ADD10O,1.740000X2.190000*%
%TD*%
%TA.AperFunction,ComponentPad*%
%ADD11O,2.190000X1.740000*%
%TD*%
%TA.AperFunction,ViaPad*%
%ADD12C,0.800000*%
%TD*%
%TA.AperFunction,ViaPad*%
%ADD13C,0.900000*%
%TD*%
%TA.AperFunction,Conductor*%
%ADD14C,0.254000*%
%TD*%
%TA.AperFunction,Conductor*%
%ADD15C,0.100000*%
%TD*%
G04 APERTURE END LIST*
D10*
%TO.N,GND*%
%TO.C,J1*%
X13129000Y-13550000D03*
%TO.N,VDC*%
%TA.AperFunction,ComponentPad*%
G36*
G01*
X12788000Y-13634500D02*
X12788000Y-13465500D01*
G75*
G02*
X12813000Y-13440500I25000J0D01*
G01*
X12937000Y-13440500D01*
G75*
G02*
X12962000Y-13465500I0J-25000D01*
G01*
X12962000Y-13634500D01*
G75*
G02*
X12937000Y-13659500I-25000J0D01*
G01*
X12813000Y-13659500D01*
G75*
G02*
X12788000Y-13634500I0J25000D01*
G01*
G37*
%TD.AperFunction*%
%TD*%
D11*
%TO.N,GND*%
%TO.C,J3*%
X12600000Y-10346000D03*
%TO.N,/p5v_out*%
%TA.AperFunction,ComponentPad*%
G36*
G01*
X12684500Y-10687000D02*
X12515500Y-10687000D01*
G75*
G02*
X12490500Y-10662000I0J25000D01*
G01*
X12490500Y-10538000D01*
G75*
G02*
X12515500Y-10513000I25000J0D01*
G01*
X12684500Y-10513000D01*
G75*
G02*
X12709500Y-10538000I0J-25000D01*
G01*
X12709500Y-10662000D01*
G75*
G02*
X12684500Y-10687000I-25000J0D01*
G01*
G37*
%TD.AperFunction*%
%TD*%
D12*
%TO.N,GND*%
X12595000Y-12285000D03*
X12675000Y-12405000D03*
X12595000Y-12485000D03*
X13095259Y-12437500D03*
X13195000Y-12405000D03*
X13195000Y-12505000D03*
X10700000Y-11300000D03*
X10950000Y-11300000D03*
X11200000Y-11300000D03*
X12350000Y-13275000D03*
X12100000Y-13875000D03*
X12925000Y-11625000D03*
X13125000Y-11625000D03*
X12675000Y-11625000D03*
X13030000Y-12640000D03*
X13070000Y-12950000D03*
D13*
X10200000Y-13800000D03*
X10200000Y-12925000D03*
X10950000Y-12675000D03*
X12025000Y-13000000D03*
X12225000Y-12300000D03*
X10696000Y-11919000D03*
X10950000Y-11910000D03*
X11204000Y-11934000D03*
X11130000Y-12130000D03*
D12*
X11600000Y-13645000D03*
%TO.N,/On When Warm/VD1*%
X12400000Y-13475000D03*
%TO.N,/On When Warm/vs*%
X11800000Y-13725000D03*
X11800000Y-14175000D03*
%TO.N,/On When Warm/vg1*%
X12100000Y-13425000D03*
%TO.N,/thermistor*%
X12250000Y-13975000D03*
%TO.N,/On When Warm/vd2*%
X12305132Y-13870617D03*
%TO.N,VDC*%
X12595000Y-12665000D03*
X12595000Y-12825000D03*
X12595000Y-13005000D03*
X12000000Y-10900000D03*
X11278000Y-14278000D03*
X12550000Y-13475000D03*
X12550000Y-14225000D03*
X11625000Y-14100000D03*
X11674818Y-13368949D03*
%TO.N,/dc_dc/vout*%
X10946000Y-10304000D03*
X10700000Y-10300000D03*
D13*
%TO.N,Net-(PS1-Pad10)*%
X10195000Y-11640000D03*
%TO.N,Net-(PS1-Pad6)*%
X11460000Y-11960000D03*
%TO.N,Net-(C7-Pad1)*%
X10696000Y-12504000D03*
%TO.N,Net-(C8-Pad1)*%
X11225000Y-12500000D03*
X11455000Y-12630000D03*
%TD*%
D14*
%TO.N,GND*%
X13334000Y-14434000D02*
X10066000Y-14434000D01*
X10066000Y-14080449D01*
X10201500Y-14080449D01*
X10201500Y-14119550D01*
X10209128Y-14157900D01*
X10224092Y-14194025D01*
X10245815Y-14226536D01*
X10273464Y-14254185D01*
X10305975Y-14275908D01*
X10342100Y-14290872D01*
X10380450Y-14298500D01*
X10419551Y-14298500D01*
X10457900Y-14290872D01*
X10494025Y-14275908D01*
X10506151Y-14267806D01*
X11174500Y-14267806D01*
X11174500Y-14288194D01*
X11178477Y-14308190D01*
X11186279Y-14327026D01*
X11197606Y-14343977D01*
X11212023Y-14358394D01*
X11228974Y-14369720D01*
X11247810Y-14377523D01*
X11267806Y-14381500D01*
X11288194Y-14381500D01*
X11308190Y-14377523D01*
X11327026Y-14369720D01*
X11343977Y-14358394D01*
X11358394Y-14343977D01*
X11369720Y-14327026D01*
X11377523Y-14308190D01*
X11381500Y-14288194D01*
X11381500Y-14267806D01*
X11377523Y-14247810D01*
X11369720Y-14228974D01*
X11358394Y-14212023D01*
X11343977Y-14197606D01*
X11327026Y-14186279D01*
X11308190Y-14178477D01*
X11288194Y-14174500D01*
X11267806Y-14174500D01*
X11247810Y-14178477D01*
X11228974Y-14186279D01*
X11212023Y-14197606D01*
X11197606Y-14212023D01*
X11186279Y-14228974D01*
X11178477Y-14247810D01*
X11174500Y-14267806D01*
X10506151Y-14267806D01*
X10526536Y-14254185D01*
X10554185Y-14226536D01*
X10575909Y-14194025D01*
X10590872Y-14157900D01*
X10598500Y-14119550D01*
X10598500Y-14089806D01*
X11521500Y-14089806D01*
X11521500Y-14110194D01*
X11525477Y-14130190D01*
X11533279Y-14149026D01*
X11544606Y-14165977D01*
X11559023Y-14180394D01*
X11575974Y-14191720D01*
X11594810Y-14199523D01*
X11614806Y-14203500D01*
X11635194Y-14203500D01*
X11655190Y-14199523D01*
X11674026Y-14191720D01*
X11690977Y-14180394D01*
X11696500Y-14174871D01*
X11696500Y-14185194D01*
X11700477Y-14205190D01*
X11708279Y-14224026D01*
X11719606Y-14240977D01*
X11734023Y-14255394D01*
X11750974Y-14266720D01*
X11769810Y-14274523D01*
X11789806Y-14278500D01*
X11810194Y-14278500D01*
X11830190Y-14274523D01*
X11849026Y-14266720D01*
X11865977Y-14255394D01*
X11880394Y-14240977D01*
X11891720Y-14224026D01*
X11895539Y-14214806D01*
X12446500Y-14214806D01*
X12446500Y-14235194D01*
X12450477Y-14255190D01*
X12458279Y-14274026D01*
X12469606Y-14290977D01*
X12484023Y-14305394D01*
X12500974Y-14316720D01*
X12519810Y-14324523D01*
X12539806Y-14328500D01*
X12560194Y-14328500D01*
X12580190Y-14324523D01*
X12599026Y-14316720D01*
X12615977Y-14305394D01*
X12630394Y-14290977D01*
X12641720Y-14274026D01*
X12649523Y-14255190D01*
X12653500Y-14235194D01*
X12653500Y-14214806D01*
X12649523Y-14194810D01*
X12641720Y-14175974D01*
X12630394Y-14159023D01*
X12615977Y-14144606D01*
X12599026Y-14133279D01*
X12580190Y-14125477D01*
X12560194Y-14121500D01*
X12539806Y-14121500D01*
X12519810Y-14125477D01*
X12500974Y-14133279D01*
X12484023Y-14144606D01*
X12469606Y-14159023D01*
X12458279Y-14175974D01*
X12450477Y-14194810D01*
X12446500Y-14214806D01*
X11895539Y-14214806D01*
X11899523Y-14205190D01*
X11903500Y-14185194D01*
X11903500Y-14164806D01*
X11899523Y-14144810D01*
X11891720Y-14125974D01*
X11880394Y-14109023D01*
X11865977Y-14094606D01*
X11849026Y-14083279D01*
X11842193Y-14080449D01*
X12801500Y-14080449D01*
X12801500Y-14119550D01*
X12809128Y-14157900D01*
X12824091Y-14194025D01*
X12845815Y-14226536D01*
X12873464Y-14254185D01*
X12905975Y-14275908D01*
X12942100Y-14290872D01*
X12980449Y-14298500D01*
X13019550Y-14298500D01*
X13057900Y-14290872D01*
X13094025Y-14275908D01*
X13126536Y-14254185D01*
X13154185Y-14226536D01*
X13175908Y-14194025D01*
X13190872Y-14157900D01*
X13198500Y-14119550D01*
X13198500Y-14080449D01*
X13190872Y-14042100D01*
X13175908Y-14005975D01*
X13154185Y-13973464D01*
X13126536Y-13945815D01*
X13094025Y-13924091D01*
X13057900Y-13909128D01*
X13019550Y-13901500D01*
X12980449Y-13901500D01*
X12942100Y-13909128D01*
X12905975Y-13924091D01*
X12873464Y-13945815D01*
X12845815Y-13973464D01*
X12824091Y-14005975D01*
X12809128Y-14042100D01*
X12801500Y-14080449D01*
X11842193Y-14080449D01*
X11830190Y-14075477D01*
X11810194Y-14071500D01*
X11789806Y-14071500D01*
X11769810Y-14075477D01*
X11750974Y-14083279D01*
X11734023Y-14094606D01*
X11728500Y-14100129D01*
X11728500Y-14089806D01*
X11724523Y-14069810D01*
X11716720Y-14050974D01*
X11705394Y-14034023D01*
X11690977Y-14019606D01*
X11674026Y-14008279D01*
X11655190Y-14000477D01*
X11635194Y-13996500D01*
X11614806Y-13996500D01*
X11594810Y-14000477D01*
X11575974Y-14008279D01*
X11559023Y-14019606D01*
X11544606Y-14034023D01*
X11533279Y-14050974D01*
X11525477Y-14069810D01*
X11521500Y-14089806D01*
X10598500Y-14089806D01*
X10598500Y-14080449D01*
X10590872Y-14042100D01*
X10575909Y-14005975D01*
X10554185Y-13973464D01*
X10545528Y-13964806D01*
X12146500Y-13964806D01*
X12146500Y-13985194D01*
X12150477Y-14005190D01*
X12158279Y-14024026D01*
X12169606Y-14040977D01*
X12184023Y-14055394D01*
X12200974Y-14066720D01*
X12219810Y-14074523D01*
X12239806Y-14078500D01*
X12260194Y-14078500D01*
X12280190Y-14074523D01*
X12299026Y-14066720D01*
X12315977Y-14055394D01*
X12330394Y-14040977D01*
X12341720Y-14024026D01*
X12349523Y-14005190D01*
X12353500Y-13985194D01*
X12353500Y-13964806D01*
X12353096Y-13962777D01*
X12354157Y-13962338D01*
X12371109Y-13951011D01*
X12385525Y-13936595D01*
X12396852Y-13919643D01*
X12404654Y-13900807D01*
X12408632Y-13880811D01*
X12408632Y-13860424D01*
X12404654Y-13840428D01*
X12396852Y-13821592D01*
X12385525Y-13804640D01*
X12371109Y-13790224D01*
X12354157Y-13778897D01*
X12335322Y-13771095D01*
X12315326Y-13767117D01*
X12294938Y-13767117D01*
X12274942Y-13771095D01*
X12256106Y-13778897D01*
X12239154Y-13790224D01*
X12224738Y-13804640D01*
X12213411Y-13821592D01*
X12205609Y-13840428D01*
X12201632Y-13860424D01*
X12201632Y-13880811D01*
X12202035Y-13882840D01*
X12200974Y-13883279D01*
X12184023Y-13894606D01*
X12169606Y-13909023D01*
X12158279Y-13925974D01*
X12150477Y-13944810D01*
X12146500Y-13964806D01*
X10545528Y-13964806D01*
X10526536Y-13945815D01*
X10494025Y-13924091D01*
X10457900Y-13909128D01*
X10419551Y-13901500D01*
X10380450Y-13901500D01*
X10342100Y-13909128D01*
X10305975Y-13924091D01*
X10273464Y-13945815D01*
X10245815Y-13973464D01*
X10224092Y-14005975D01*
X10209128Y-14042100D01*
X10201500Y-14080449D01*
X10066000Y-14080449D01*
X10066000Y-13714806D01*
X11696500Y-13714806D01*
X11696500Y-13735194D01*
X11700477Y-13755190D01*
X11708279Y-13774026D01*
X11719606Y-13790977D01*
X11734023Y-13805394D01*
X11750974Y-13816720D01*
X11769810Y-13824523D01*
X11789806Y-13828500D01*
X11810194Y-13828500D01*
X11830190Y-13824523D01*
X11849026Y-13816720D01*
X11865977Y-13805394D01*
X11880394Y-13790977D01*
X11891720Y-13774026D01*
X11899523Y-13755190D01*
X11903500Y-13735194D01*
X11903500Y-13714806D01*
X11899523Y-13694810D01*
X11891720Y-13675974D01*
X11880394Y-13659023D01*
X11865977Y-13644606D01*
X11849026Y-13633279D01*
X11830190Y-13625477D01*
X11810194Y-13621500D01*
X11789806Y-13621500D01*
X11769810Y-13625477D01*
X11750974Y-13633279D01*
X11734023Y-13644606D01*
X11719606Y-13659023D01*
X11708279Y-13675974D01*
X11700477Y-13694810D01*
X11696500Y-13714806D01*
X10066000Y-13714806D01*
X10066000Y-13358755D01*
X11571318Y-13358755D01*
X11571318Y-13379143D01*
X11575295Y-13399138D01*
X11583097Y-13417974D01*
X11594424Y-13434926D01*
X11608840Y-13449342D01*
X11625792Y-13460669D01*
X11644628Y-13468471D01*
X11664624Y-13472449D01*
X11685012Y-13472449D01*
X11705008Y-13468471D01*
X11723843Y-13460669D01*
X11740795Y-13449342D01*
X11755212Y-13434926D01*
X11766538Y-13417974D01*
X11767851Y-13414806D01*
X11996500Y-13414806D01*
X11996500Y-13435194D01*
X12000477Y-13455190D01*
X12008279Y-13474026D01*
X12019606Y-13490977D01*
X12034023Y-13505394D01*
X12050974Y-13516720D01*
X12069810Y-13524523D01*
X12089806Y-13528500D01*
X12110194Y-13528500D01*
X12130190Y-13524523D01*
X12149026Y-13516720D01*
X12165977Y-13505394D01*
X12180394Y-13490977D01*
X12191720Y-13474026D01*
X12195539Y-13464806D01*
X12296500Y-13464806D01*
X12296500Y-13485194D01*
X12300477Y-13505190D01*
X12308279Y-13524026D01*
X12319606Y-13540977D01*
X12334023Y-13555394D01*
X12350974Y-13566720D01*
X12369810Y-13574523D01*
X12389806Y-13578500D01*
X12410194Y-13578500D01*
X12430190Y-13574523D01*
X12449026Y-13566720D01*
X12465977Y-13555394D01*
X12475000Y-13546371D01*
X12484023Y-13555394D01*
X12500974Y-13566720D01*
X12519810Y-13574523D01*
X12539806Y-13578500D01*
X12560194Y-13578500D01*
X12580190Y-13574523D01*
X12599026Y-13566720D01*
X12615977Y-13555394D01*
X12630394Y-13540977D01*
X12641720Y-13524026D01*
X12649523Y-13505190D01*
X12653500Y-13485194D01*
X12653500Y-13465500D01*
X12724193Y-13465500D01*
X12724193Y-13634500D01*
X12725899Y-13651825D01*
X12730953Y-13668485D01*
X12739159Y-13683839D01*
X12750204Y-13697296D01*
X12763661Y-13708340D01*
X12779015Y-13716547D01*
X12795674Y-13721601D01*
X12813000Y-13723307D01*
X12937000Y-13723307D01*
X12954325Y-13721601D01*
X12970985Y-13716547D01*
X12986339Y-13708340D01*
X12999796Y-13697296D01*
X13010840Y-13683839D01*
X13016665Y-13672941D01*
X13032367Y-13688831D01*
X13056919Y-13705447D01*
X13084241Y-13716955D01*
X13092997Y-13718630D01*
X13116300Y-13706525D01*
X13116300Y-13562700D01*
X13141700Y-13562700D01*
X13141700Y-13706525D01*
X13165003Y-13718630D01*
X13173759Y-13716955D01*
X13201081Y-13705447D01*
X13225633Y-13688831D01*
X13246471Y-13667743D01*
X13262795Y-13642996D01*
X13273977Y-13615539D01*
X13279588Y-13586429D01*
X13264038Y-13562700D01*
X13141700Y-13562700D01*
X13116300Y-13562700D01*
X13114300Y-13562700D01*
X13114300Y-13537300D01*
X13116300Y-13537300D01*
X13116300Y-13393475D01*
X13141700Y-13393475D01*
X13141700Y-13537300D01*
X13264038Y-13537300D01*
X13279588Y-13513571D01*
X13273977Y-13484461D01*
X13262795Y-13457004D01*
X13246471Y-13432257D01*
X13225633Y-13411169D01*
X13201081Y-13394553D01*
X13173759Y-13383045D01*
X13165003Y-13381370D01*
X13141700Y-13393475D01*
X13116300Y-13393475D01*
X13092997Y-13381370D01*
X13084241Y-13383045D01*
X13056919Y-13394553D01*
X13032367Y-13411169D01*
X13016665Y-13427059D01*
X13010840Y-13416161D01*
X12999796Y-13402704D01*
X12986339Y-13391659D01*
X12970985Y-13383453D01*
X12954325Y-13378399D01*
X12937000Y-13376693D01*
X12813000Y-13376693D01*
X12795674Y-13378399D01*
X12779015Y-13383453D01*
X12763661Y-13391659D01*
X12750204Y-13402704D01*
X12739159Y-13416161D01*
X12730953Y-13431515D01*
X12725899Y-13448174D01*
X12724193Y-13465500D01*
X12653500Y-13465500D01*
X12653500Y-13464806D01*
X12649523Y-13444810D01*
X12641720Y-13425974D01*
X12630394Y-13409023D01*
X12615977Y-13394606D01*
X12599026Y-13383279D01*
X12580190Y-13375477D01*
X12560194Y-13371500D01*
X12539806Y-13371500D01*
X12519810Y-13375477D01*
X12500974Y-13383279D01*
X12484023Y-13394606D01*
X12475000Y-13403629D01*
X12465977Y-13394606D01*
X12449026Y-13383279D01*
X12430190Y-13375477D01*
X12410194Y-13371500D01*
X12389806Y-13371500D01*
X12369810Y-13375477D01*
X12350974Y-13383279D01*
X12334023Y-13394606D01*
X12319606Y-13409023D01*
X12308279Y-13425974D01*
X12300477Y-13444810D01*
X12296500Y-13464806D01*
X12195539Y-13464806D01*
X12199523Y-13455190D01*
X12203500Y-13435194D01*
X12203500Y-13414806D01*
X12199523Y-13394810D01*
X12191720Y-13375974D01*
X12180394Y-13359023D01*
X12165977Y-13344606D01*
X12149026Y-13333279D01*
X12130190Y-13325477D01*
X12110194Y-13321500D01*
X12089806Y-13321500D01*
X12069810Y-13325477D01*
X12050974Y-13333279D01*
X12034023Y-13344606D01*
X12019606Y-13359023D01*
X12008279Y-13375974D01*
X12000477Y-13394810D01*
X11996500Y-13414806D01*
X11767851Y-13414806D01*
X11774340Y-13399138D01*
X11778318Y-13379143D01*
X11778318Y-13358755D01*
X11774340Y-13338759D01*
X11766538Y-13319923D01*
X11755212Y-13302971D01*
X11740795Y-13288555D01*
X11723843Y-13277228D01*
X11705008Y-13269426D01*
X11685012Y-13265449D01*
X11664624Y-13265449D01*
X11644628Y-13269426D01*
X11625792Y-13277228D01*
X11608840Y-13288555D01*
X11594424Y-13302971D01*
X11583097Y-13319923D01*
X11575295Y-13338759D01*
X11571318Y-13358755D01*
X10066000Y-13358755D01*
X10066000Y-12619314D01*
X11346500Y-12619314D01*
X11346500Y-12640686D01*
X11350670Y-12661648D01*
X11358848Y-12681394D01*
X11370722Y-12699165D01*
X11385835Y-12714277D01*
X11403606Y-12726151D01*
X11423352Y-12734330D01*
X11444314Y-12738500D01*
X11465686Y-12738500D01*
X11486648Y-12734330D01*
X11506394Y-12726151D01*
X11524165Y-12714277D01*
X11539277Y-12699165D01*
X11551151Y-12681394D01*
X11559330Y-12661648D01*
X11560691Y-12654806D01*
X12491500Y-12654806D01*
X12491500Y-12675194D01*
X12495477Y-12695190D01*
X12503279Y-12714026D01*
X12514606Y-12730977D01*
X12528629Y-12745000D01*
X12514606Y-12759023D01*
X12503279Y-12775974D01*
X12495477Y-12794810D01*
X12491500Y-12814806D01*
X12491500Y-12835194D01*
X12495477Y-12855190D01*
X12503279Y-12874026D01*
X12514606Y-12890977D01*
X12529023Y-12905394D01*
X12543399Y-12915000D01*
X12529023Y-12924606D01*
X12514606Y-12939023D01*
X12503279Y-12955974D01*
X12495477Y-12974810D01*
X12491500Y-12994806D01*
X12491500Y-13015194D01*
X12495477Y-13035190D01*
X12503279Y-13054026D01*
X12514606Y-13070977D01*
X12529023Y-13085394D01*
X12545974Y-13096720D01*
X12564810Y-13104523D01*
X12584806Y-13108500D01*
X12605194Y-13108500D01*
X12625190Y-13104523D01*
X12644026Y-13096720D01*
X12660977Y-13085394D01*
X12675394Y-13070977D01*
X12686720Y-13054026D01*
X12694523Y-13035190D01*
X12698500Y-13015194D01*
X12698500Y-12994806D01*
X12694523Y-12974810D01*
X12686720Y-12955974D01*
X12675394Y-12939023D01*
X12660977Y-12924606D01*
X12646600Y-12915000D01*
X12660977Y-12905394D01*
X12675394Y-12890977D01*
X12686720Y-12874026D01*
X12694523Y-12855190D01*
X12698500Y-12835194D01*
X12698500Y-12814806D01*
X12694523Y-12794810D01*
X12686720Y-12775974D01*
X12675394Y-12759023D01*
X12661371Y-12745000D01*
X12675394Y-12730977D01*
X12686720Y-12714026D01*
X12694523Y-12695190D01*
X12698500Y-12675194D01*
X12698500Y-12654806D01*
X12694523Y-12634810D01*
X12686720Y-12615974D01*
X12675394Y-12599023D01*
X12660977Y-12584606D01*
X12644026Y-12573279D01*
X12625190Y-12565477D01*
X12605194Y-12561500D01*
X12584806Y-12561500D01*
X12564810Y-12565477D01*
X12545974Y-12573279D01*
X12529023Y-12584606D01*
X12514606Y-12599023D01*
X12503279Y-12615974D01*
X12495477Y-12634810D01*
X12491500Y-12654806D01*
X11560691Y-12654806D01*
X11563500Y-12640686D01*
X11563500Y-12619314D01*
X11559330Y-12598352D01*
X11551151Y-12578606D01*
X11539277Y-12560835D01*
X11524165Y-12545722D01*
X11506394Y-12533848D01*
X11486648Y-12525670D01*
X11465686Y-12521500D01*
X11444314Y-12521500D01*
X11423352Y-12525670D01*
X11403606Y-12533848D01*
X11385835Y-12545722D01*
X11370722Y-12560835D01*
X11358848Y-12578606D01*
X11350670Y-12598352D01*
X11346500Y-12619314D01*
X10066000Y-12619314D01*
X10066000Y-12493314D01*
X10587500Y-12493314D01*
X10587500Y-12514686D01*
X10591670Y-12535648D01*
X10599849Y-12555394D01*
X10611723Y-12573165D01*
X10626835Y-12588277D01*
X10644606Y-12600151D01*
X10664352Y-12608330D01*
X10685314Y-12612500D01*
X10706686Y-12612500D01*
X10727648Y-12608330D01*
X10747394Y-12600151D01*
X10765165Y-12588277D01*
X10780278Y-12573165D01*
X10792152Y-12555394D01*
X10800330Y-12535648D01*
X10804500Y-12514686D01*
X10804500Y-12493314D01*
X10803704Y-12489314D01*
X11116500Y-12489314D01*
X11116500Y-12510686D01*
X11120670Y-12531648D01*
X11128849Y-12551394D01*
X11140723Y-12569165D01*
X11155835Y-12584277D01*
X11173606Y-12596151D01*
X11193352Y-12604330D01*
X11214314Y-12608500D01*
X11235686Y-12608500D01*
X11256648Y-12604330D01*
X11276394Y-12596151D01*
X11294165Y-12584277D01*
X11309277Y-12569165D01*
X11321151Y-12551394D01*
X11329330Y-12531648D01*
X11333500Y-12510686D01*
X11333500Y-12489314D01*
X11329330Y-12468352D01*
X11321151Y-12448606D01*
X11309277Y-12430835D01*
X11294165Y-12415722D01*
X11276394Y-12403848D01*
X11256648Y-12395670D01*
X11235686Y-12391500D01*
X11214314Y-12391500D01*
X11193352Y-12395670D01*
X11173606Y-12403848D01*
X11155835Y-12415722D01*
X11140723Y-12430835D01*
X11128849Y-12448606D01*
X11120670Y-12468352D01*
X11116500Y-12489314D01*
X10803704Y-12489314D01*
X10800330Y-12472352D01*
X10792152Y-12452606D01*
X10780278Y-12434835D01*
X10765165Y-12419722D01*
X10747394Y-12407848D01*
X10727648Y-12399670D01*
X10706686Y-12395500D01*
X10685314Y-12395500D01*
X10664352Y-12399670D01*
X10644606Y-12407848D01*
X10626835Y-12419722D01*
X10611723Y-12434835D01*
X10599849Y-12452606D01*
X10591670Y-12472352D01*
X10587500Y-12493314D01*
X10066000Y-12493314D01*
X10066000Y-11949314D01*
X11351500Y-11949314D01*
X11351500Y-11970686D01*
X11355670Y-11991648D01*
X11363848Y-12011394D01*
X11375722Y-12029165D01*
X11390835Y-12044277D01*
X11408606Y-12056151D01*
X11428352Y-12064330D01*
X11449314Y-12068500D01*
X11470686Y-12068500D01*
X11491648Y-12064330D01*
X11511394Y-12056151D01*
X11529165Y-12044277D01*
X11544277Y-12029165D01*
X11556151Y-12011394D01*
X11564330Y-11991648D01*
X11568500Y-11970686D01*
X11568500Y-11949314D01*
X11564330Y-11928352D01*
X11556151Y-11908606D01*
X11544277Y-11890835D01*
X11529165Y-11875722D01*
X11511394Y-11863848D01*
X11491648Y-11855670D01*
X11470686Y-11851500D01*
X11449314Y-11851500D01*
X11428352Y-11855670D01*
X11408606Y-11863848D01*
X11390835Y-11875722D01*
X11375722Y-11890835D01*
X11363848Y-11908606D01*
X11355670Y-11928352D01*
X11351500Y-11949314D01*
X10066000Y-11949314D01*
X10066000Y-11629314D01*
X10086500Y-11629314D01*
X10086500Y-11650686D01*
X10090670Y-11671648D01*
X10098849Y-11691394D01*
X10110723Y-11709165D01*
X10125835Y-11724277D01*
X10143606Y-11736151D01*
X10163352Y-11744330D01*
X10184314Y-11748500D01*
X10205686Y-11748500D01*
X10226648Y-11744330D01*
X10246394Y-11736151D01*
X10264165Y-11724277D01*
X10279278Y-11709165D01*
X10291152Y-11691394D01*
X10299330Y-11671648D01*
X10303500Y-11650686D01*
X10303500Y-11629314D01*
X10299330Y-11608352D01*
X10291152Y-11588606D01*
X10279278Y-11570835D01*
X10264165Y-11555722D01*
X10246394Y-11543848D01*
X10226648Y-11535670D01*
X10205686Y-11531500D01*
X10184314Y-11531500D01*
X10163352Y-11535670D01*
X10143606Y-11543848D01*
X10125835Y-11555722D01*
X10110723Y-11570835D01*
X10098849Y-11588606D01*
X10090670Y-11608352D01*
X10086500Y-11629314D01*
X10066000Y-11629314D01*
X10066000Y-11280449D01*
X12401500Y-11280449D01*
X12401500Y-11319550D01*
X12409128Y-11357900D01*
X12424091Y-11394025D01*
X12445815Y-11426536D01*
X12473464Y-11454185D01*
X12505975Y-11475908D01*
X12542100Y-11490872D01*
X12580449Y-11498500D01*
X12619550Y-11498500D01*
X12657900Y-11490872D01*
X12694025Y-11475908D01*
X12726536Y-11454185D01*
X12754185Y-11426536D01*
X12775908Y-11394025D01*
X12790872Y-11357900D01*
X12798500Y-11319550D01*
X12798500Y-11280449D01*
X12790872Y-11242100D01*
X12775908Y-11205975D01*
X12754185Y-11173464D01*
X12726536Y-11145815D01*
X12694025Y-11124092D01*
X12657900Y-11109128D01*
X12619550Y-11101500D01*
X12580449Y-11101500D01*
X12542100Y-11109128D01*
X12505975Y-11124092D01*
X12473464Y-11145815D01*
X12445815Y-11173464D01*
X12424091Y-11205975D01*
X12409128Y-11242100D01*
X12401500Y-11280449D01*
X10066000Y-11280449D01*
X10066000Y-10889806D01*
X11896500Y-10889806D01*
X11896500Y-10910194D01*
X11900477Y-10930190D01*
X11908279Y-10949026D01*
X11919606Y-10965977D01*
X11934023Y-10980394D01*
X11950974Y-10991721D01*
X11969810Y-10999523D01*
X11989806Y-11003500D01*
X12010194Y-11003500D01*
X12030190Y-10999523D01*
X12049026Y-10991721D01*
X12065977Y-10980394D01*
X12080394Y-10965977D01*
X12091720Y-10949026D01*
X12099523Y-10930190D01*
X12103500Y-10910194D01*
X12103500Y-10889806D01*
X12099523Y-10869810D01*
X12091720Y-10850974D01*
X12080394Y-10834023D01*
X12065977Y-10819606D01*
X12049026Y-10808280D01*
X12030190Y-10800477D01*
X12010194Y-10796500D01*
X11989806Y-10796500D01*
X11969810Y-10800477D01*
X11950974Y-10808280D01*
X11934023Y-10819606D01*
X11919606Y-10834023D01*
X11908279Y-10850974D01*
X11900477Y-10869810D01*
X11896500Y-10889806D01*
X10066000Y-10889806D01*
X10066000Y-10538000D01*
X12426693Y-10538000D01*
X12426693Y-10662000D01*
X12428399Y-10679326D01*
X12433453Y-10695985D01*
X12441659Y-10711339D01*
X12452704Y-10724796D01*
X12466161Y-10735841D01*
X12481515Y-10744047D01*
X12498174Y-10749101D01*
X12515500Y-10750807D01*
X12684500Y-10750807D01*
X12701825Y-10749101D01*
X12718485Y-10744047D01*
X12733839Y-10735841D01*
X12747296Y-10724796D01*
X12758340Y-10711339D01*
X12766547Y-10695985D01*
X12771601Y-10679326D01*
X12773307Y-10662000D01*
X12773307Y-10538000D01*
X12771601Y-10520675D01*
X12766547Y-10504015D01*
X12758340Y-10488661D01*
X12747296Y-10475204D01*
X12733839Y-10464160D01*
X12722941Y-10458335D01*
X12738831Y-10442633D01*
X12755447Y-10418081D01*
X12766955Y-10390759D01*
X12768630Y-10382003D01*
X12756525Y-10358700D01*
X12612700Y-10358700D01*
X12612700Y-10360700D01*
X12587300Y-10360700D01*
X12587300Y-10358700D01*
X12443475Y-10358700D01*
X12431370Y-10382003D01*
X12433045Y-10390759D01*
X12444553Y-10418081D01*
X12461169Y-10442633D01*
X12477059Y-10458335D01*
X12466161Y-10464160D01*
X12452704Y-10475204D01*
X12441659Y-10488661D01*
X12433453Y-10504015D01*
X12428399Y-10520675D01*
X12426693Y-10538000D01*
X10066000Y-10538000D01*
X10066000Y-10289806D01*
X10596500Y-10289806D01*
X10596500Y-10310194D01*
X10600477Y-10330190D01*
X10608280Y-10349026D01*
X10619606Y-10365977D01*
X10634023Y-10380394D01*
X10650974Y-10391721D01*
X10669810Y-10399523D01*
X10689806Y-10403500D01*
X10710194Y-10403500D01*
X10730190Y-10399523D01*
X10749026Y-10391721D01*
X10765977Y-10380394D01*
X10780394Y-10365977D01*
X10791721Y-10349026D01*
X10799523Y-10330190D01*
X10803500Y-10310194D01*
X10803500Y-10293806D01*
X10842500Y-10293806D01*
X10842500Y-10314194D01*
X10846477Y-10334190D01*
X10854280Y-10353026D01*
X10865606Y-10369977D01*
X10880023Y-10384394D01*
X10896974Y-10395721D01*
X10915810Y-10403523D01*
X10935806Y-10407500D01*
X10956194Y-10407500D01*
X10976190Y-10403523D01*
X10995026Y-10395721D01*
X11011977Y-10384394D01*
X11026394Y-10369977D01*
X11037721Y-10353026D01*
X11045523Y-10334190D01*
X11049500Y-10314194D01*
X11049500Y-10309997D01*
X12431370Y-10309997D01*
X12443475Y-10333300D01*
X12587300Y-10333300D01*
X12587300Y-10210962D01*
X12612700Y-10210962D01*
X12612700Y-10333300D01*
X12756525Y-10333300D01*
X12768630Y-10309997D01*
X12766955Y-10301241D01*
X12755447Y-10273919D01*
X12738831Y-10249367D01*
X12717743Y-10228529D01*
X12692996Y-10212205D01*
X12665539Y-10201023D01*
X12636429Y-10195412D01*
X12612700Y-10210962D01*
X12587300Y-10210962D01*
X12563571Y-10195412D01*
X12534461Y-10201023D01*
X12507004Y-10212205D01*
X12482257Y-10228529D01*
X12461169Y-10249367D01*
X12444553Y-10273919D01*
X12433045Y-10301241D01*
X12431370Y-10309997D01*
X11049500Y-10309997D01*
X11049500Y-10293806D01*
X11045523Y-10273810D01*
X11037721Y-10254974D01*
X11026394Y-10238023D01*
X11011977Y-10223606D01*
X10995026Y-10212280D01*
X10976190Y-10204477D01*
X10956194Y-10200500D01*
X10935806Y-10200500D01*
X10915810Y-10204477D01*
X10896974Y-10212280D01*
X10880023Y-10223606D01*
X10865606Y-10238023D01*
X10854280Y-10254974D01*
X10846477Y-10273810D01*
X10842500Y-10293806D01*
X10803500Y-10293806D01*
X10803500Y-10289806D01*
X10799523Y-10269810D01*
X10791721Y-10250974D01*
X10780394Y-10234023D01*
X10765977Y-10219606D01*
X10749026Y-10208280D01*
X10730190Y-10200477D01*
X10710194Y-10196500D01*
X10689806Y-10196500D01*
X10669810Y-10200477D01*
X10650974Y-10208280D01*
X10634023Y-10219606D01*
X10619606Y-10234023D01*
X10608280Y-10250974D01*
X10600477Y-10269810D01*
X10596500Y-10289806D01*
X10066000Y-10289806D01*
X10066000Y-10066000D01*
X13334000Y-10066000D01*
X13334000Y-14434000D01*
%TA.AperFunction,Conductor*%
D15*
G36*
X13334000Y-14434000D02*
G01*
X10066000Y-14434000D01*
X10066000Y-14080449D01*
X10201500Y-14080449D01*
X10201500Y-14119550D01*
X10209128Y-14157900D01*
X10224092Y-14194025D01*
X10245815Y-14226536D01*
X10273464Y-14254185D01*
X10305975Y-14275908D01*
X10342100Y-14290872D01*
X10380450Y-14298500D01*
X10419551Y-14298500D01*
X10457900Y-14290872D01*
X10494025Y-14275908D01*
X10506151Y-14267806D01*
X11174500Y-14267806D01*
X11174500Y-14288194D01*
X11178477Y-14308190D01*
X11186279Y-14327026D01*
X11197606Y-14343977D01*
X11212023Y-14358394D01*
X11228974Y-14369720D01*
X11247810Y-14377523D01*
X11267806Y-14381500D01*
X11288194Y-14381500D01*
X11308190Y-14377523D01*
X11327026Y-14369720D01*
X11343977Y-14358394D01*
X11358394Y-14343977D01*
X11369720Y-14327026D01*
X11377523Y-14308190D01*
X11381500Y-14288194D01*
X11381500Y-14267806D01*
X11377523Y-14247810D01*
X11369720Y-14228974D01*
X11358394Y-14212023D01*
X11343977Y-14197606D01*
X11327026Y-14186279D01*
X11308190Y-14178477D01*
X11288194Y-14174500D01*
X11267806Y-14174500D01*
X11247810Y-14178477D01*
X11228974Y-14186279D01*
X11212023Y-14197606D01*
X11197606Y-14212023D01*
X11186279Y-14228974D01*
X11178477Y-14247810D01*
X11174500Y-14267806D01*
X10506151Y-14267806D01*
X10526536Y-14254185D01*
X10554185Y-14226536D01*
X10575909Y-14194025D01*
X10590872Y-14157900D01*
X10598500Y-14119550D01*
X10598500Y-14089806D01*
X11521500Y-14089806D01*
X11521500Y-14110194D01*
X11525477Y-14130190D01*
X11533279Y-14149026D01*
X11544606Y-14165977D01*
X11559023Y-14180394D01*
X11575974Y-14191720D01*
X11594810Y-14199523D01*
X11614806Y-14203500D01*
X11635194Y-14203500D01*
X11655190Y-14199523D01*
X11674026Y-14191720D01*
X11690977Y-14180394D01*
X11696500Y-14174871D01*
X11696500Y-14185194D01*
X11700477Y-14205190D01*
X11708279Y-14224026D01*
X11719606Y-14240977D01*
X11734023Y-14255394D01*
X11750974Y-14266720D01*
X11769810Y-14274523D01*
X11789806Y-14278500D01*
X11810194Y-14278500D01*
X11830190Y-14274523D01*
X11849026Y-14266720D01*
X11865977Y-14255394D01*
X11880394Y-14240977D01*
X11891720Y-14224026D01*
X11895539Y-14214806D01*
X12446500Y-14214806D01*
X12446500Y-14235194D01*
X12450477Y-14255190D01*
X12458279Y-14274026D01*
X12469606Y-14290977D01*
X12484023Y-14305394D01*
X12500974Y-14316720D01*
X12519810Y-14324523D01*
X12539806Y-14328500D01*
X12560194Y-14328500D01*
X12580190Y-14324523D01*
X12599026Y-14316720D01*
X12615977Y-14305394D01*
X12630394Y-14290977D01*
X12641720Y-14274026D01*
X12649523Y-14255190D01*
X12653500Y-14235194D01*
X12653500Y-14214806D01*
X12649523Y-14194810D01*
X12641720Y-14175974D01*
X12630394Y-14159023D01*
X12615977Y-14144606D01*
X12599026Y-14133279D01*
X12580190Y-14125477D01*
X12560194Y-14121500D01*
X12539806Y-14121500D01*
X12519810Y-14125477D01*
X12500974Y-14133279D01*
X12484023Y-14144606D01*
X12469606Y-14159023D01*
X12458279Y-14175974D01*
X12450477Y-14194810D01*
X12446500Y-14214806D01*
X11895539Y-14214806D01*
X11899523Y-14205190D01*
X11903500Y-14185194D01*
X11903500Y-14164806D01*
X11899523Y-14144810D01*
X11891720Y-14125974D01*
X11880394Y-14109023D01*
X11865977Y-14094606D01*
X11849026Y-14083279D01*
X11842193Y-14080449D01*
X12801500Y-14080449D01*
X12801500Y-14119550D01*
X12809128Y-14157900D01*
X12824091Y-14194025D01*
X12845815Y-14226536D01*
X12873464Y-14254185D01*
X12905975Y-14275908D01*
X12942100Y-14290872D01*
X12980449Y-14298500D01*
X13019550Y-14298500D01*
X13057900Y-14290872D01*
X13094025Y-14275908D01*
X13126536Y-14254185D01*
X13154185Y-14226536D01*
X13175908Y-14194025D01*
X13190872Y-14157900D01*
X13198500Y-14119550D01*
X13198500Y-14080449D01*
X13190872Y-14042100D01*
X13175908Y-14005975D01*
X13154185Y-13973464D01*
X13126536Y-13945815D01*
X13094025Y-13924091D01*
X13057900Y-13909128D01*
X13019550Y-13901500D01*
X12980449Y-13901500D01*
X12942100Y-13909128D01*
X12905975Y-13924091D01*
X12873464Y-13945815D01*
X12845815Y-13973464D01*
X12824091Y-14005975D01*
X12809128Y-14042100D01*
X12801500Y-14080449D01*
X11842193Y-14080449D01*
X11830190Y-14075477D01*
X11810194Y-14071500D01*
X11789806Y-14071500D01*
X11769810Y-14075477D01*
X11750974Y-14083279D01*
X11734023Y-14094606D01*
X11728500Y-14100129D01*
X11728500Y-14089806D01*
X11724523Y-14069810D01*
X11716720Y-14050974D01*
X11705394Y-14034023D01*
X11690977Y-14019606D01*
X11674026Y-14008279D01*
X11655190Y-14000477D01*
X11635194Y-13996500D01*
X11614806Y-13996500D01*
X11594810Y-14000477D01*
X11575974Y-14008279D01*
X11559023Y-14019606D01*
X11544606Y-14034023D01*
X11533279Y-14050974D01*
X11525477Y-14069810D01*
X11521500Y-14089806D01*
X10598500Y-14089806D01*
X10598500Y-14080449D01*
X10590872Y-14042100D01*
X10575909Y-14005975D01*
X10554185Y-13973464D01*
X10545528Y-13964806D01*
X12146500Y-13964806D01*
X12146500Y-13985194D01*
X12150477Y-14005190D01*
X12158279Y-14024026D01*
X12169606Y-14040977D01*
X12184023Y-14055394D01*
X12200974Y-14066720D01*
X12219810Y-14074523D01*
X12239806Y-14078500D01*
X12260194Y-14078500D01*
X12280190Y-14074523D01*
X12299026Y-14066720D01*
X12315977Y-14055394D01*
X12330394Y-14040977D01*
X12341720Y-14024026D01*
X12349523Y-14005190D01*
X12353500Y-13985194D01*
X12353500Y-13964806D01*
X12353096Y-13962777D01*
X12354157Y-13962338D01*
X12371109Y-13951011D01*
X12385525Y-13936595D01*
X12396852Y-13919643D01*
X12404654Y-13900807D01*
X12408632Y-13880811D01*
X12408632Y-13860424D01*
X12404654Y-13840428D01*
X12396852Y-13821592D01*
X12385525Y-13804640D01*
X12371109Y-13790224D01*
X12354157Y-13778897D01*
X12335322Y-13771095D01*
X12315326Y-13767117D01*
X12294938Y-13767117D01*
X12274942Y-13771095D01*
X12256106Y-13778897D01*
X12239154Y-13790224D01*
X12224738Y-13804640D01*
X12213411Y-13821592D01*
X12205609Y-13840428D01*
X12201632Y-13860424D01*
X12201632Y-13880811D01*
X12202035Y-13882840D01*
X12200974Y-13883279D01*
X12184023Y-13894606D01*
X12169606Y-13909023D01*
X12158279Y-13925974D01*
X12150477Y-13944810D01*
X12146500Y-13964806D01*
X10545528Y-13964806D01*
X10526536Y-13945815D01*
X10494025Y-13924091D01*
X10457900Y-13909128D01*
X10419551Y-13901500D01*
X10380450Y-13901500D01*
X10342100Y-13909128D01*
X10305975Y-13924091D01*
X10273464Y-13945815D01*
X10245815Y-13973464D01*
X10224092Y-14005975D01*
X10209128Y-14042100D01*
X10201500Y-14080449D01*
X10066000Y-14080449D01*
X10066000Y-13714806D01*
X11696500Y-13714806D01*
X11696500Y-13735194D01*
X11700477Y-13755190D01*
X11708279Y-13774026D01*
X11719606Y-13790977D01*
X11734023Y-13805394D01*
X11750974Y-13816720D01*
X11769810Y-13824523D01*
X11789806Y-13828500D01*
X11810194Y-13828500D01*
X11830190Y-13824523D01*
X11849026Y-13816720D01*
X11865977Y-13805394D01*
X11880394Y-13790977D01*
X11891720Y-13774026D01*
X11899523Y-13755190D01*
X11903500Y-13735194D01*
X11903500Y-13714806D01*
X11899523Y-13694810D01*
X11891720Y-13675974D01*
X11880394Y-13659023D01*
X11865977Y-13644606D01*
X11849026Y-13633279D01*
X11830190Y-13625477D01*
X11810194Y-13621500D01*
X11789806Y-13621500D01*
X11769810Y-13625477D01*
X11750974Y-13633279D01*
X11734023Y-13644606D01*
X11719606Y-13659023D01*
X11708279Y-13675974D01*
X11700477Y-13694810D01*
X11696500Y-13714806D01*
X10066000Y-13714806D01*
X10066000Y-13358755D01*
X11571318Y-13358755D01*
X11571318Y-13379143D01*
X11575295Y-13399138D01*
X11583097Y-13417974D01*
X11594424Y-13434926D01*
X11608840Y-13449342D01*
X11625792Y-13460669D01*
X11644628Y-13468471D01*
X11664624Y-13472449D01*
X11685012Y-13472449D01*
X11705008Y-13468471D01*
X11723843Y-13460669D01*
X11740795Y-13449342D01*
X11755212Y-13434926D01*
X11766538Y-13417974D01*
X11767851Y-13414806D01*
X11996500Y-13414806D01*
X11996500Y-13435194D01*
X12000477Y-13455190D01*
X12008279Y-13474026D01*
X12019606Y-13490977D01*
X12034023Y-13505394D01*
X12050974Y-13516720D01*
X12069810Y-13524523D01*
X12089806Y-13528500D01*
X12110194Y-13528500D01*
X12130190Y-13524523D01*
X12149026Y-13516720D01*
X12165977Y-13505394D01*
X12180394Y-13490977D01*
X12191720Y-13474026D01*
X12195539Y-13464806D01*
X12296500Y-13464806D01*
X12296500Y-13485194D01*
X12300477Y-13505190D01*
X12308279Y-13524026D01*
X12319606Y-13540977D01*
X12334023Y-13555394D01*
X12350974Y-13566720D01*
X12369810Y-13574523D01*
X12389806Y-13578500D01*
X12410194Y-13578500D01*
X12430190Y-13574523D01*
X12449026Y-13566720D01*
X12465977Y-13555394D01*
X12475000Y-13546371D01*
X12484023Y-13555394D01*
X12500974Y-13566720D01*
X12519810Y-13574523D01*
X12539806Y-13578500D01*
X12560194Y-13578500D01*
X12580190Y-13574523D01*
X12599026Y-13566720D01*
X12615977Y-13555394D01*
X12630394Y-13540977D01*
X12641720Y-13524026D01*
X12649523Y-13505190D01*
X12653500Y-13485194D01*
X12653500Y-13465500D01*
X12724193Y-13465500D01*
X12724193Y-13634500D01*
X12725899Y-13651825D01*
X12730953Y-13668485D01*
X12739159Y-13683839D01*
X12750204Y-13697296D01*
X12763661Y-13708340D01*
X12779015Y-13716547D01*
X12795674Y-13721601D01*
X12813000Y-13723307D01*
X12937000Y-13723307D01*
X12954325Y-13721601D01*
X12970985Y-13716547D01*
X12986339Y-13708340D01*
X12999796Y-13697296D01*
X13010840Y-13683839D01*
X13016665Y-13672941D01*
X13032367Y-13688831D01*
X13056919Y-13705447D01*
X13084241Y-13716955D01*
X13092997Y-13718630D01*
X13116300Y-13706525D01*
X13116300Y-13562700D01*
X13141700Y-13562700D01*
X13141700Y-13706525D01*
X13165003Y-13718630D01*
X13173759Y-13716955D01*
X13201081Y-13705447D01*
X13225633Y-13688831D01*
X13246471Y-13667743D01*
X13262795Y-13642996D01*
X13273977Y-13615539D01*
X13279588Y-13586429D01*
X13264038Y-13562700D01*
X13141700Y-13562700D01*
X13116300Y-13562700D01*
X13114300Y-13562700D01*
X13114300Y-13537300D01*
X13116300Y-13537300D01*
X13116300Y-13393475D01*
X13141700Y-13393475D01*
X13141700Y-13537300D01*
X13264038Y-13537300D01*
X13279588Y-13513571D01*
X13273977Y-13484461D01*
X13262795Y-13457004D01*
X13246471Y-13432257D01*
X13225633Y-13411169D01*
X13201081Y-13394553D01*
X13173759Y-13383045D01*
X13165003Y-13381370D01*
X13141700Y-13393475D01*
X13116300Y-13393475D01*
X13092997Y-13381370D01*
X13084241Y-13383045D01*
X13056919Y-13394553D01*
X13032367Y-13411169D01*
X13016665Y-13427059D01*
X13010840Y-13416161D01*
X12999796Y-13402704D01*
X12986339Y-13391659D01*
X12970985Y-13383453D01*
X12954325Y-13378399D01*
X12937000Y-13376693D01*
X12813000Y-13376693D01*
X12795674Y-13378399D01*
X12779015Y-13383453D01*
X12763661Y-13391659D01*
X12750204Y-13402704D01*
X12739159Y-13416161D01*
X12730953Y-13431515D01*
X12725899Y-13448174D01*
X12724193Y-13465500D01*
X12653500Y-13465500D01*
X12653500Y-13464806D01*
X12649523Y-13444810D01*
X12641720Y-13425974D01*
X12630394Y-13409023D01*
X12615977Y-13394606D01*
X12599026Y-13383279D01*
X12580190Y-13375477D01*
X12560194Y-13371500D01*
X12539806Y-13371500D01*
X12519810Y-13375477D01*
X12500974Y-13383279D01*
X12484023Y-13394606D01*
X12475000Y-13403629D01*
X12465977Y-13394606D01*
X12449026Y-13383279D01*
X12430190Y-13375477D01*
X12410194Y-13371500D01*
X12389806Y-13371500D01*
X12369810Y-13375477D01*
X12350974Y-13383279D01*
X12334023Y-13394606D01*
X12319606Y-13409023D01*
X12308279Y-13425974D01*
X12300477Y-13444810D01*
X12296500Y-13464806D01*
X12195539Y-13464806D01*
X12199523Y-13455190D01*
X12203500Y-13435194D01*
X12203500Y-13414806D01*
X12199523Y-13394810D01*
X12191720Y-13375974D01*
X12180394Y-13359023D01*
X12165977Y-13344606D01*
X12149026Y-13333279D01*
X12130190Y-13325477D01*
X12110194Y-13321500D01*
X12089806Y-13321500D01*
X12069810Y-13325477D01*
X12050974Y-13333279D01*
X12034023Y-13344606D01*
X12019606Y-13359023D01*
X12008279Y-13375974D01*
X12000477Y-13394810D01*
X11996500Y-13414806D01*
X11767851Y-13414806D01*
X11774340Y-13399138D01*
X11778318Y-13379143D01*
X11778318Y-13358755D01*
X11774340Y-13338759D01*
X11766538Y-13319923D01*
X11755212Y-13302971D01*
X11740795Y-13288555D01*
X11723843Y-13277228D01*
X11705008Y-13269426D01*
X11685012Y-13265449D01*
X11664624Y-13265449D01*
X11644628Y-13269426D01*
X11625792Y-13277228D01*
X11608840Y-13288555D01*
X11594424Y-13302971D01*
X11583097Y-13319923D01*
X11575295Y-13338759D01*
X11571318Y-13358755D01*
X10066000Y-13358755D01*
X10066000Y-12619314D01*
X11346500Y-12619314D01*
X11346500Y-12640686D01*
X11350670Y-12661648D01*
X11358848Y-12681394D01*
X11370722Y-12699165D01*
X11385835Y-12714277D01*
X11403606Y-12726151D01*
X11423352Y-12734330D01*
X11444314Y-12738500D01*
X11465686Y-12738500D01*
X11486648Y-12734330D01*
X11506394Y-12726151D01*
X11524165Y-12714277D01*
X11539277Y-12699165D01*
X11551151Y-12681394D01*
X11559330Y-12661648D01*
X11560691Y-12654806D01*
X12491500Y-12654806D01*
X12491500Y-12675194D01*
X12495477Y-12695190D01*
X12503279Y-12714026D01*
X12514606Y-12730977D01*
X12528629Y-12745000D01*
X12514606Y-12759023D01*
X12503279Y-12775974D01*
X12495477Y-12794810D01*
X12491500Y-12814806D01*
X12491500Y-12835194D01*
X12495477Y-12855190D01*
X12503279Y-12874026D01*
X12514606Y-12890977D01*
X12529023Y-12905394D01*
X12543399Y-12915000D01*
X12529023Y-12924606D01*
X12514606Y-12939023D01*
X12503279Y-12955974D01*
X12495477Y-12974810D01*
X12491500Y-12994806D01*
X12491500Y-13015194D01*
X12495477Y-13035190D01*
X12503279Y-13054026D01*
X12514606Y-13070977D01*
X12529023Y-13085394D01*
X12545974Y-13096720D01*
X12564810Y-13104523D01*
X12584806Y-13108500D01*
X12605194Y-13108500D01*
X12625190Y-13104523D01*
X12644026Y-13096720D01*
X12660977Y-13085394D01*
X12675394Y-13070977D01*
X12686720Y-13054026D01*
X12694523Y-13035190D01*
X12698500Y-13015194D01*
X12698500Y-12994806D01*
X12694523Y-12974810D01*
X12686720Y-12955974D01*
X12675394Y-12939023D01*
X12660977Y-12924606D01*
X12646600Y-12915000D01*
X12660977Y-12905394D01*
X12675394Y-12890977D01*
X12686720Y-12874026D01*
X12694523Y-12855190D01*
X12698500Y-12835194D01*
X12698500Y-12814806D01*
X12694523Y-12794810D01*
X12686720Y-12775974D01*
X12675394Y-12759023D01*
X12661371Y-12745000D01*
X12675394Y-12730977D01*
X12686720Y-12714026D01*
X12694523Y-12695190D01*
X12698500Y-12675194D01*
X12698500Y-12654806D01*
X12694523Y-12634810D01*
X12686720Y-12615974D01*
X12675394Y-12599023D01*
X12660977Y-12584606D01*
X12644026Y-12573279D01*
X12625190Y-12565477D01*
X12605194Y-12561500D01*
X12584806Y-12561500D01*
X12564810Y-12565477D01*
X12545974Y-12573279D01*
X12529023Y-12584606D01*
X12514606Y-12599023D01*
X12503279Y-12615974D01*
X12495477Y-12634810D01*
X12491500Y-12654806D01*
X11560691Y-12654806D01*
X11563500Y-12640686D01*
X11563500Y-12619314D01*
X11559330Y-12598352D01*
X11551151Y-12578606D01*
X11539277Y-12560835D01*
X11524165Y-12545722D01*
X11506394Y-12533848D01*
X11486648Y-12525670D01*
X11465686Y-12521500D01*
X11444314Y-12521500D01*
X11423352Y-12525670D01*
X11403606Y-12533848D01*
X11385835Y-12545722D01*
X11370722Y-12560835D01*
X11358848Y-12578606D01*
X11350670Y-12598352D01*
X11346500Y-12619314D01*
X10066000Y-12619314D01*
X10066000Y-12493314D01*
X10587500Y-12493314D01*
X10587500Y-12514686D01*
X10591670Y-12535648D01*
X10599849Y-12555394D01*
X10611723Y-12573165D01*
X10626835Y-12588277D01*
X10644606Y-12600151D01*
X10664352Y-12608330D01*
X10685314Y-12612500D01*
X10706686Y-12612500D01*
X10727648Y-12608330D01*
X10747394Y-12600151D01*
X10765165Y-12588277D01*
X10780278Y-12573165D01*
X10792152Y-12555394D01*
X10800330Y-12535648D01*
X10804500Y-12514686D01*
X10804500Y-12493314D01*
X10803704Y-12489314D01*
X11116500Y-12489314D01*
X11116500Y-12510686D01*
X11120670Y-12531648D01*
X11128849Y-12551394D01*
X11140723Y-12569165D01*
X11155835Y-12584277D01*
X11173606Y-12596151D01*
X11193352Y-12604330D01*
X11214314Y-12608500D01*
X11235686Y-12608500D01*
X11256648Y-12604330D01*
X11276394Y-12596151D01*
X11294165Y-12584277D01*
X11309277Y-12569165D01*
X11321151Y-12551394D01*
X11329330Y-12531648D01*
X11333500Y-12510686D01*
X11333500Y-12489314D01*
X11329330Y-12468352D01*
X11321151Y-12448606D01*
X11309277Y-12430835D01*
X11294165Y-12415722D01*
X11276394Y-12403848D01*
X11256648Y-12395670D01*
X11235686Y-12391500D01*
X11214314Y-12391500D01*
X11193352Y-12395670D01*
X11173606Y-12403848D01*
X11155835Y-12415722D01*
X11140723Y-12430835D01*
X11128849Y-12448606D01*
X11120670Y-12468352D01*
X11116500Y-12489314D01*
X10803704Y-12489314D01*
X10800330Y-12472352D01*
X10792152Y-12452606D01*
X10780278Y-12434835D01*
X10765165Y-12419722D01*
X10747394Y-12407848D01*
X10727648Y-12399670D01*
X10706686Y-12395500D01*
X10685314Y-12395500D01*
X10664352Y-12399670D01*
X10644606Y-12407848D01*
X10626835Y-12419722D01*
X10611723Y-12434835D01*
X10599849Y-12452606D01*
X10591670Y-12472352D01*
X10587500Y-12493314D01*
X10066000Y-12493314D01*
X10066000Y-11949314D01*
X11351500Y-11949314D01*
X11351500Y-11970686D01*
X11355670Y-11991648D01*
X11363848Y-12011394D01*
X11375722Y-12029165D01*
X11390835Y-12044277D01*
X11408606Y-12056151D01*
X11428352Y-12064330D01*
X11449314Y-12068500D01*
X11470686Y-12068500D01*
X11491648Y-12064330D01*
X11511394Y-12056151D01*
X11529165Y-12044277D01*
X11544277Y-12029165D01*
X11556151Y-12011394D01*
X11564330Y-11991648D01*
X11568500Y-11970686D01*
X11568500Y-11949314D01*
X11564330Y-11928352D01*
X11556151Y-11908606D01*
X11544277Y-11890835D01*
X11529165Y-11875722D01*
X11511394Y-11863848D01*
X11491648Y-11855670D01*
X11470686Y-11851500D01*
X11449314Y-11851500D01*
X11428352Y-11855670D01*
X11408606Y-11863848D01*
X11390835Y-11875722D01*
X11375722Y-11890835D01*
X11363848Y-11908606D01*
X11355670Y-11928352D01*
X11351500Y-11949314D01*
X10066000Y-11949314D01*
X10066000Y-11629314D01*
X10086500Y-11629314D01*
X10086500Y-11650686D01*
X10090670Y-11671648D01*
X10098849Y-11691394D01*
X10110723Y-11709165D01*
X10125835Y-11724277D01*
X10143606Y-11736151D01*
X10163352Y-11744330D01*
X10184314Y-11748500D01*
X10205686Y-11748500D01*
X10226648Y-11744330D01*
X10246394Y-11736151D01*
X10264165Y-11724277D01*
X10279278Y-11709165D01*
X10291152Y-11691394D01*
X10299330Y-11671648D01*
X10303500Y-11650686D01*
X10303500Y-11629314D01*
X10299330Y-11608352D01*
X10291152Y-11588606D01*
X10279278Y-11570835D01*
X10264165Y-11555722D01*
X10246394Y-11543848D01*
X10226648Y-11535670D01*
X10205686Y-11531500D01*
X10184314Y-11531500D01*
X10163352Y-11535670D01*
X10143606Y-11543848D01*
X10125835Y-11555722D01*
X10110723Y-11570835D01*
X10098849Y-11588606D01*
X10090670Y-11608352D01*
X10086500Y-11629314D01*
X10066000Y-11629314D01*
X10066000Y-11280449D01*
X12401500Y-11280449D01*
X12401500Y-11319550D01*
X12409128Y-11357900D01*
X12424091Y-11394025D01*
X12445815Y-11426536D01*
X12473464Y-11454185D01*
X12505975Y-11475908D01*
X12542100Y-11490872D01*
X12580449Y-11498500D01*
X12619550Y-11498500D01*
X12657900Y-11490872D01*
X12694025Y-11475908D01*
X12726536Y-11454185D01*
X12754185Y-11426536D01*
X12775908Y-11394025D01*
X12790872Y-11357900D01*
X12798500Y-11319550D01*
X12798500Y-11280449D01*
X12790872Y-11242100D01*
X12775908Y-11205975D01*
X12754185Y-11173464D01*
X12726536Y-11145815D01*
X12694025Y-11124092D01*
X12657900Y-11109128D01*
X12619550Y-11101500D01*
X12580449Y-11101500D01*
X12542100Y-11109128D01*
X12505975Y-11124092D01*
X12473464Y-11145815D01*
X12445815Y-11173464D01*
X12424091Y-11205975D01*
X12409128Y-11242100D01*
X12401500Y-11280449D01*
X10066000Y-11280449D01*
X10066000Y-10889806D01*
X11896500Y-10889806D01*
X11896500Y-10910194D01*
X11900477Y-10930190D01*
X11908279Y-10949026D01*
X11919606Y-10965977D01*
X11934023Y-10980394D01*
X11950974Y-10991721D01*
X11969810Y-10999523D01*
X11989806Y-11003500D01*
X12010194Y-11003500D01*
X12030190Y-10999523D01*
X12049026Y-10991721D01*
X12065977Y-10980394D01*
X12080394Y-10965977D01*
X12091720Y-10949026D01*
X12099523Y-10930190D01*
X12103500Y-10910194D01*
X12103500Y-10889806D01*
X12099523Y-10869810D01*
X12091720Y-10850974D01*
X12080394Y-10834023D01*
X12065977Y-10819606D01*
X12049026Y-10808280D01*
X12030190Y-10800477D01*
X12010194Y-10796500D01*
X11989806Y-10796500D01*
X11969810Y-10800477D01*
X11950974Y-10808280D01*
X11934023Y-10819606D01*
X11919606Y-10834023D01*
X11908279Y-10850974D01*
X11900477Y-10869810D01*
X11896500Y-10889806D01*
X10066000Y-10889806D01*
X10066000Y-10538000D01*
X12426693Y-10538000D01*
X12426693Y-10662000D01*
X12428399Y-10679326D01*
X12433453Y-10695985D01*
X12441659Y-10711339D01*
X12452704Y-10724796D01*
X12466161Y-10735841D01*
X12481515Y-10744047D01*
X12498174Y-10749101D01*
X12515500Y-10750807D01*
X12684500Y-10750807D01*
X12701825Y-10749101D01*
X12718485Y-10744047D01*
X12733839Y-10735841D01*
X12747296Y-10724796D01*
X12758340Y-10711339D01*
X12766547Y-10695985D01*
X12771601Y-10679326D01*
X12773307Y-10662000D01*
X12773307Y-10538000D01*
X12771601Y-10520675D01*
X12766547Y-10504015D01*
X12758340Y-10488661D01*
X12747296Y-10475204D01*
X12733839Y-10464160D01*
X12722941Y-10458335D01*
X12738831Y-10442633D01*
X12755447Y-10418081D01*
X12766955Y-10390759D01*
X12768630Y-10382003D01*
X12756525Y-10358700D01*
X12612700Y-10358700D01*
X12612700Y-10360700D01*
X12587300Y-10360700D01*
X12587300Y-10358700D01*
X12443475Y-10358700D01*
X12431370Y-10382003D01*
X12433045Y-10390759D01*
X12444553Y-10418081D01*
X12461169Y-10442633D01*
X12477059Y-10458335D01*
X12466161Y-10464160D01*
X12452704Y-10475204D01*
X12441659Y-10488661D01*
X12433453Y-10504015D01*
X12428399Y-10520675D01*
X12426693Y-10538000D01*
X10066000Y-10538000D01*
X10066000Y-10289806D01*
X10596500Y-10289806D01*
X10596500Y-10310194D01*
X10600477Y-10330190D01*
X10608280Y-10349026D01*
X10619606Y-10365977D01*
X10634023Y-10380394D01*
X10650974Y-10391721D01*
X10669810Y-10399523D01*
X10689806Y-10403500D01*
X10710194Y-10403500D01*
X10730190Y-10399523D01*
X10749026Y-10391721D01*
X10765977Y-10380394D01*
X10780394Y-10365977D01*
X10791721Y-10349026D01*
X10799523Y-10330190D01*
X10803500Y-10310194D01*
X10803500Y-10293806D01*
X10842500Y-10293806D01*
X10842500Y-10314194D01*
X10846477Y-10334190D01*
X10854280Y-10353026D01*
X10865606Y-10369977D01*
X10880023Y-10384394D01*
X10896974Y-10395721D01*
X10915810Y-10403523D01*
X10935806Y-10407500D01*
X10956194Y-10407500D01*
X10976190Y-10403523D01*
X10995026Y-10395721D01*
X11011977Y-10384394D01*
X11026394Y-10369977D01*
X11037721Y-10353026D01*
X11045523Y-10334190D01*
X11049500Y-10314194D01*
X11049500Y-10309997D01*
X12431370Y-10309997D01*
X12443475Y-10333300D01*
X12587300Y-10333300D01*
X12587300Y-10210962D01*
X12612700Y-10210962D01*
X12612700Y-10333300D01*
X12756525Y-10333300D01*
X12768630Y-10309997D01*
X12766955Y-10301241D01*
X12755447Y-10273919D01*
X12738831Y-10249367D01*
X12717743Y-10228529D01*
X12692996Y-10212205D01*
X12665539Y-10201023D01*
X12636429Y-10195412D01*
X12612700Y-10210962D01*
X12587300Y-10210962D01*
X12563571Y-10195412D01*
X12534461Y-10201023D01*
X12507004Y-10212205D01*
X12482257Y-10228529D01*
X12461169Y-10249367D01*
X12444553Y-10273919D01*
X12433045Y-10301241D01*
X12431370Y-10309997D01*
X11049500Y-10309997D01*
X11049500Y-10293806D01*
X11045523Y-10273810D01*
X11037721Y-10254974D01*
X11026394Y-10238023D01*
X11011977Y-10223606D01*
X10995026Y-10212280D01*
X10976190Y-10204477D01*
X10956194Y-10200500D01*
X10935806Y-10200500D01*
X10915810Y-10204477D01*
X10896974Y-10212280D01*
X10880023Y-10223606D01*
X10865606Y-10238023D01*
X10854280Y-10254974D01*
X10846477Y-10273810D01*
X10842500Y-10293806D01*
X10803500Y-10293806D01*
X10803500Y-10289806D01*
X10799523Y-10269810D01*
X10791721Y-10250974D01*
X10780394Y-10234023D01*
X10765977Y-10219606D01*
X10749026Y-10208280D01*
X10730190Y-10200477D01*
X10710194Y-10196500D01*
X10689806Y-10196500D01*
X10669810Y-10200477D01*
X10650974Y-10208280D01*
X10634023Y-10219606D01*
X10619606Y-10234023D01*
X10608280Y-10250974D01*
X10600477Y-10269810D01*
X10596500Y-10289806D01*
X10066000Y-10289806D01*
X10066000Y-10066000D01*
X13334000Y-10066000D01*
X13334000Y-14434000D01*
G37*
%TD.AperFunction*%
%TD*%
M02*
