%TF.GenerationSoftware,KiCad,Pcbnew,5.1.10-1.fc34*%
%TF.CreationDate,2021-09-08T08:00:36+01:00*%
%TF.ProjectId,cryosub_power_converter_top_v01,6372796f-7375-4625-9f70-6f7765725f63,rev?*%
%TF.SameCoordinates,Original*%
%TF.FileFunction,Legend,Bot*%
%TF.FilePolarity,Positive*%
%FSLAX46Y46*%
G04 Gerber Fmt 4.6, Leading zero omitted, Abs format (unit mm)*
G04 Created by KiCad (PCBNEW 5.1.10-1.fc34) date 2021-09-08 08:00:36*
%MOMM*%
%LPD*%
G01*
G04 APERTURE LIST*
%ADD10C,0.120000*%
%ADD11C,0.150000*%
G04 APERTURE END LIST*
D10*
%TO.C,J2*%
X105590000Y-105400000D02*
X105590000Y-110600000D01*
X118410000Y-105400000D02*
X118410000Y-110600000D01*
X106160000Y-103960000D02*
X106160000Y-105400000D01*
X105590000Y-105400000D02*
X106160000Y-105400000D01*
X105590000Y-110600000D02*
X106160000Y-110600000D01*
X117840000Y-105400000D02*
X118410000Y-105400000D01*
X117840000Y-110600000D02*
X118410000Y-110600000D01*
X107680000Y-105400000D02*
X108700000Y-105400000D01*
X107680000Y-110600000D02*
X108700000Y-110600000D01*
X110220000Y-105400000D02*
X111240000Y-105400000D01*
X110220000Y-110600000D02*
X111240000Y-110600000D01*
X112760000Y-105400000D02*
X113780000Y-105400000D01*
X112760000Y-110600000D02*
X113780000Y-110600000D01*
X115300000Y-105400000D02*
X116320000Y-105400000D01*
X115300000Y-110600000D02*
X116320000Y-110600000D01*
%TO.C,D1*%
X114600000Y-136650000D02*
X120000000Y-136650000D01*
X114600000Y-133350000D02*
X120000000Y-133350000D01*
X114600000Y-136650000D02*
X114600000Y-133350000D01*
%TO.C,D2*%
X101350000Y-104600000D02*
X104650000Y-104600000D01*
X104650000Y-104600000D02*
X104650000Y-110000000D01*
X101350000Y-104600000D02*
X101350000Y-110000000D01*
%TO.C,R4*%
X119477500Y-125332776D02*
X119477500Y-125842224D01*
X120522500Y-125332776D02*
X120522500Y-125842224D01*
%TO.C,R5*%
X114157776Y-126522500D02*
X114667224Y-126522500D01*
X114157776Y-125477500D02*
X114667224Y-125477500D01*
%TO.C,R6*%
X117477500Y-123157776D02*
X117477500Y-123667224D01*
X118522500Y-123157776D02*
X118522500Y-123667224D01*
%TO.C,R8*%
X119477500Y-106667224D02*
X119477500Y-106157776D01*
X120522500Y-106667224D02*
X120522500Y-106157776D01*
%TO.C,J2*%
D11*
X105052380Y-102066666D02*
X105766666Y-102066666D01*
X105909523Y-102019047D01*
X106004761Y-101923809D01*
X106052380Y-101780952D01*
X106052380Y-101685714D01*
X105147619Y-102495238D02*
X105100000Y-102542857D01*
X105052380Y-102638095D01*
X105052380Y-102876190D01*
X105100000Y-102971428D01*
X105147619Y-103019047D01*
X105242857Y-103066666D01*
X105338095Y-103066666D01*
X105480952Y-103019047D01*
X106052380Y-102447619D01*
X106052380Y-103066666D01*
%TO.C,D1*%
X118738095Y-137952380D02*
X118738095Y-136952380D01*
X118500000Y-136952380D01*
X118357142Y-137000000D01*
X118261904Y-137095238D01*
X118214285Y-137190476D01*
X118166666Y-137380952D01*
X118166666Y-137523809D01*
X118214285Y-137714285D01*
X118261904Y-137809523D01*
X118357142Y-137904761D01*
X118500000Y-137952380D01*
X118738095Y-137952380D01*
X117214285Y-137952380D02*
X117785714Y-137952380D01*
X117500000Y-137952380D02*
X117500000Y-136952380D01*
X117595238Y-137095238D01*
X117690476Y-137190476D01*
X117785714Y-137238095D01*
%TO.C,D2*%
X103252380Y-101861904D02*
X102252380Y-101861904D01*
X102252380Y-102100000D01*
X102300000Y-102242857D01*
X102395238Y-102338095D01*
X102490476Y-102385714D01*
X102680952Y-102433333D01*
X102823809Y-102433333D01*
X103014285Y-102385714D01*
X103109523Y-102338095D01*
X103204761Y-102242857D01*
X103252380Y-102100000D01*
X103252380Y-101861904D01*
X102347619Y-102814285D02*
X102300000Y-102861904D01*
X102252380Y-102957142D01*
X102252380Y-103195238D01*
X102300000Y-103290476D01*
X102347619Y-103338095D01*
X102442857Y-103385714D01*
X102538095Y-103385714D01*
X102680952Y-103338095D01*
X103252380Y-102766666D01*
X103252380Y-103385714D01*
%TO.C,R4*%
X120452380Y-128033333D02*
X119976190Y-127700000D01*
X120452380Y-127461904D02*
X119452380Y-127461904D01*
X119452380Y-127842857D01*
X119500000Y-127938095D01*
X119547619Y-127985714D01*
X119642857Y-128033333D01*
X119785714Y-128033333D01*
X119880952Y-127985714D01*
X119928571Y-127938095D01*
X119976190Y-127842857D01*
X119976190Y-127461904D01*
X119785714Y-128890476D02*
X120452380Y-128890476D01*
X119404761Y-128652380D02*
X120119047Y-128414285D01*
X120119047Y-129033333D01*
%TO.C,R5*%
X114579166Y-127882380D02*
X114912500Y-127406190D01*
X115150595Y-127882380D02*
X115150595Y-126882380D01*
X114769642Y-126882380D01*
X114674404Y-126930000D01*
X114626785Y-126977619D01*
X114579166Y-127072857D01*
X114579166Y-127215714D01*
X114626785Y-127310952D01*
X114674404Y-127358571D01*
X114769642Y-127406190D01*
X115150595Y-127406190D01*
X113674404Y-126882380D02*
X114150595Y-126882380D01*
X114198214Y-127358571D01*
X114150595Y-127310952D01*
X114055357Y-127263333D01*
X113817261Y-127263333D01*
X113722023Y-127310952D01*
X113674404Y-127358571D01*
X113626785Y-127453809D01*
X113626785Y-127691904D01*
X113674404Y-127787142D01*
X113722023Y-127834761D01*
X113817261Y-127882380D01*
X114055357Y-127882380D01*
X114150595Y-127834761D01*
X114198214Y-127787142D01*
%TO.C,R6*%
X117022380Y-123245833D02*
X116546190Y-122912500D01*
X117022380Y-122674404D02*
X116022380Y-122674404D01*
X116022380Y-123055357D01*
X116070000Y-123150595D01*
X116117619Y-123198214D01*
X116212857Y-123245833D01*
X116355714Y-123245833D01*
X116450952Y-123198214D01*
X116498571Y-123150595D01*
X116546190Y-123055357D01*
X116546190Y-122674404D01*
X116022380Y-124102976D02*
X116022380Y-123912500D01*
X116070000Y-123817261D01*
X116117619Y-123769642D01*
X116260476Y-123674404D01*
X116450952Y-123626785D01*
X116831904Y-123626785D01*
X116927142Y-123674404D01*
X116974761Y-123722023D01*
X117022380Y-123817261D01*
X117022380Y-124007738D01*
X116974761Y-124102976D01*
X116927142Y-124150595D01*
X116831904Y-124198214D01*
X116593809Y-124198214D01*
X116498571Y-124150595D01*
X116450952Y-124102976D01*
X116403333Y-124007738D01*
X116403333Y-123817261D01*
X116450952Y-123722023D01*
X116498571Y-123674404D01*
X116593809Y-123626785D01*
%TO.C,R8*%
X121882380Y-106245833D02*
X121406190Y-105912500D01*
X121882380Y-105674404D02*
X120882380Y-105674404D01*
X120882380Y-106055357D01*
X120930000Y-106150595D01*
X120977619Y-106198214D01*
X121072857Y-106245833D01*
X121215714Y-106245833D01*
X121310952Y-106198214D01*
X121358571Y-106150595D01*
X121406190Y-106055357D01*
X121406190Y-105674404D01*
X121310952Y-106817261D02*
X121263333Y-106722023D01*
X121215714Y-106674404D01*
X121120476Y-106626785D01*
X121072857Y-106626785D01*
X120977619Y-106674404D01*
X120930000Y-106722023D01*
X120882380Y-106817261D01*
X120882380Y-107007738D01*
X120930000Y-107102976D01*
X120977619Y-107150595D01*
X121072857Y-107198214D01*
X121120476Y-107198214D01*
X121215714Y-107150595D01*
X121263333Y-107102976D01*
X121310952Y-107007738D01*
X121310952Y-106817261D01*
X121358571Y-106722023D01*
X121406190Y-106674404D01*
X121501428Y-106626785D01*
X121691904Y-106626785D01*
X121787142Y-106674404D01*
X121834761Y-106722023D01*
X121882380Y-106817261D01*
X121882380Y-107007738D01*
X121834761Y-107102976D01*
X121787142Y-107150595D01*
X121691904Y-107198214D01*
X121501428Y-107198214D01*
X121406190Y-107150595D01*
X121358571Y-107102976D01*
X121310952Y-107007738D01*
%TD*%
M02*
