%TF.GenerationSoftware,KiCad,Pcbnew,5.1.10-8.fc35*%
%TF.CreationDate,2021-11-18T10:19:23+00:00*%
%TF.ProjectId,cryosub_power_converter_top_v02,6372796f-7375-4625-9f70-6f7765725f63,rev?*%
%TF.SameCoordinates,Original*%
%TF.FileFunction,Paste,Top*%
%TF.FilePolarity,Positive*%
%FSLAX45Y45*%
G04 Gerber Fmt 4.5, Leading zero omitted, Abs format (unit mm)*
G04 Created by KiCad (PCBNEW 5.1.10-8.fc35) date 2021-11-18 10:19:23*
%MOMM*%
%LPD*%
G01*
G04 APERTURE LIST*
%ADD10R,1.200000X1.800000*%
%ADD11R,0.900000X0.800000*%
%ADD12R,1.200000X2.200000*%
%ADD13R,2.750000X3.050000*%
G04 APERTURE END LIST*
%TO.C,L2*%
G36*
G01*
X11876250Y-12672500D02*
X11923750Y-12672500D01*
G75*
G02*
X11947500Y-12696250I0J-23750D01*
G01*
X11947500Y-12753750D01*
G75*
G02*
X11923750Y-12777500I-23750J0D01*
G01*
X11876250Y-12777500D01*
G75*
G02*
X11852500Y-12753750I0J23750D01*
G01*
X11852500Y-12696250D01*
G75*
G02*
X11876250Y-12672500I23750J0D01*
G01*
G37*
G36*
G01*
X11876250Y-12497500D02*
X11923750Y-12497500D01*
G75*
G02*
X11947500Y-12521250I0J-23750D01*
G01*
X11947500Y-12578750D01*
G75*
G02*
X11923750Y-12602500I-23750J0D01*
G01*
X11876250Y-12602500D01*
G75*
G02*
X11852500Y-12578750I0J23750D01*
G01*
X11852500Y-12521250D01*
G75*
G02*
X11876250Y-12497500I23750J0D01*
G01*
G37*
%TD*%
%TO.C,L1*%
G36*
G01*
X10426250Y-13372500D02*
X10473750Y-13372500D01*
G75*
G02*
X10497500Y-13396250I0J-23750D01*
G01*
X10497500Y-13453750D01*
G75*
G02*
X10473750Y-13477500I-23750J0D01*
G01*
X10426250Y-13477500D01*
G75*
G02*
X10402500Y-13453750I0J23750D01*
G01*
X10402500Y-13396250D01*
G75*
G02*
X10426250Y-13372500I23750J0D01*
G01*
G37*
G36*
G01*
X10426250Y-13197500D02*
X10473750Y-13197500D01*
G75*
G02*
X10497500Y-13221250I0J-23750D01*
G01*
X10497500Y-13278750D01*
G75*
G02*
X10473750Y-13302500I-23750J0D01*
G01*
X10426250Y-13302500D01*
G75*
G02*
X10402500Y-13278750I0J23750D01*
G01*
X10402500Y-13221250D01*
G75*
G02*
X10426250Y-13197500I23750J0D01*
G01*
G37*
%TD*%
%TO.C,C9*%
G36*
G01*
X12048750Y-12347500D02*
X12048750Y-12252500D01*
G75*
G02*
X12073750Y-12227500I25000J0D01*
G01*
X12141250Y-12227500D01*
G75*
G02*
X12166250Y-12252500I0J-25000D01*
G01*
X12166250Y-12347500D01*
G75*
G02*
X12141250Y-12372500I-25000J0D01*
G01*
X12073750Y-12372500D01*
G75*
G02*
X12048750Y-12347500I0J25000D01*
G01*
G37*
G36*
G01*
X11841250Y-12347500D02*
X11841250Y-12252500D01*
G75*
G02*
X11866250Y-12227500I25000J0D01*
G01*
X11933750Y-12227500D01*
G75*
G02*
X11958750Y-12252500I0J-25000D01*
G01*
X11958750Y-12347500D01*
G75*
G02*
X11933750Y-12372500I-25000J0D01*
G01*
X11866250Y-12372500D01*
G75*
G02*
X11841250Y-12347500I0J25000D01*
G01*
G37*
%TD*%
%TO.C,C8*%
G36*
G01*
X11848750Y-13022500D02*
X11848750Y-12927500D01*
G75*
G02*
X11873750Y-12902500I25000J0D01*
G01*
X11941250Y-12902500D01*
G75*
G02*
X11966250Y-12927500I0J-25000D01*
G01*
X11966250Y-13022500D01*
G75*
G02*
X11941250Y-13047500I-25000J0D01*
G01*
X11873750Y-13047500D01*
G75*
G02*
X11848750Y-13022500I0J25000D01*
G01*
G37*
G36*
G01*
X11641250Y-13022500D02*
X11641250Y-12927500D01*
G75*
G02*
X11666250Y-12902500I25000J0D01*
G01*
X11733750Y-12902500D01*
G75*
G02*
X11758750Y-12927500I0J-25000D01*
G01*
X11758750Y-13022500D01*
G75*
G02*
X11733750Y-13047500I-25000J0D01*
G01*
X11666250Y-13047500D01*
G75*
G02*
X11641250Y-13022500I0J25000D01*
G01*
G37*
%TD*%
%TO.C,C7*%
G36*
G01*
X10247500Y-13101250D02*
X10152500Y-13101250D01*
G75*
G02*
X10127500Y-13076250I0J25000D01*
G01*
X10127500Y-13008750D01*
G75*
G02*
X10152500Y-12983750I25000J0D01*
G01*
X10247500Y-12983750D01*
G75*
G02*
X10272500Y-13008750I0J-25000D01*
G01*
X10272500Y-13076250D01*
G75*
G02*
X10247500Y-13101250I-25000J0D01*
G01*
G37*
G36*
G01*
X10247500Y-13308750D02*
X10152500Y-13308750D01*
G75*
G02*
X10127500Y-13283750I0J25000D01*
G01*
X10127500Y-13216250D01*
G75*
G02*
X10152500Y-13191250I25000J0D01*
G01*
X10247500Y-13191250D01*
G75*
G02*
X10272500Y-13216250I0J-25000D01*
G01*
X10272500Y-13283750D01*
G75*
G02*
X10247500Y-13308750I-25000J0D01*
G01*
G37*
%TD*%
D10*
%TO.C,PS1*%
X10442000Y-11725000D03*
X10696000Y-11725000D03*
X10950000Y-11725000D03*
X11204000Y-11725000D03*
X11458000Y-11725000D03*
X11458000Y-12845000D03*
X11204000Y-12845000D03*
X10696000Y-12845000D03*
X10442000Y-12845000D03*
X10950000Y-12845000D03*
%TD*%
%TO.C,C6*%
G36*
G01*
X12923750Y-12997500D02*
X12923750Y-12902500D01*
G75*
G02*
X12948750Y-12877500I25000J0D01*
G01*
X13016250Y-12877500D01*
G75*
G02*
X13041250Y-12902500I0J-25000D01*
G01*
X13041250Y-12997500D01*
G75*
G02*
X13016250Y-13022500I-25000J0D01*
G01*
X12948750Y-13022500D01*
G75*
G02*
X12923750Y-12997500I0J25000D01*
G01*
G37*
G36*
G01*
X12716250Y-12997500D02*
X12716250Y-12902500D01*
G75*
G02*
X12741250Y-12877500I25000J0D01*
G01*
X12808750Y-12877500D01*
G75*
G02*
X12833750Y-12902500I0J-25000D01*
G01*
X12833750Y-12997500D01*
G75*
G02*
X12808750Y-13022500I-25000J0D01*
G01*
X12741250Y-13022500D01*
G75*
G02*
X12716250Y-12997500I0J25000D01*
G01*
G37*
%TD*%
%TO.C,R10*%
G36*
G01*
X12948750Y-11791250D02*
X12901250Y-11791250D01*
G75*
G02*
X12877500Y-11767500I0J23750D01*
G01*
X12877500Y-11717500D01*
G75*
G02*
X12901250Y-11693750I23750J0D01*
G01*
X12948750Y-11693750D01*
G75*
G02*
X12972500Y-11717500I0J-23750D01*
G01*
X12972500Y-11767500D01*
G75*
G02*
X12948750Y-11791250I-23750J0D01*
G01*
G37*
G36*
G01*
X12948750Y-11973750D02*
X12901250Y-11973750D01*
G75*
G02*
X12877500Y-11950000I0J23750D01*
G01*
X12877500Y-11900000D01*
G75*
G02*
X12901250Y-11876250I23750J0D01*
G01*
X12948750Y-11876250D01*
G75*
G02*
X12972500Y-11900000I0J-23750D01*
G01*
X12972500Y-11950000D01*
G75*
G02*
X12948750Y-11973750I-23750J0D01*
G01*
G37*
%TD*%
%TO.C,C5*%
G36*
G01*
X12747500Y-11776250D02*
X12652500Y-11776250D01*
G75*
G02*
X12627500Y-11751250I0J25000D01*
G01*
X12627500Y-11683750D01*
G75*
G02*
X12652500Y-11658750I25000J0D01*
G01*
X12747500Y-11658750D01*
G75*
G02*
X12772500Y-11683750I0J-25000D01*
G01*
X12772500Y-11751250D01*
G75*
G02*
X12747500Y-11776250I-25000J0D01*
G01*
G37*
G36*
G01*
X12747500Y-11983750D02*
X12652500Y-11983750D01*
G75*
G02*
X12627500Y-11958750I0J25000D01*
G01*
X12627500Y-11891250D01*
G75*
G02*
X12652500Y-11866250I25000J0D01*
G01*
X12747500Y-11866250D01*
G75*
G02*
X12772500Y-11891250I0J-25000D01*
G01*
X12772500Y-11958750D01*
G75*
G02*
X12747500Y-11983750I-25000J0D01*
G01*
G37*
%TD*%
%TO.C,C4*%
G36*
G01*
X13123750Y-11803750D02*
X13076250Y-11803750D01*
G75*
G02*
X13052500Y-11780000I0J23750D01*
G01*
X13052500Y-11720000D01*
G75*
G02*
X13076250Y-11696250I23750J0D01*
G01*
X13123750Y-11696250D01*
G75*
G02*
X13147500Y-11720000I0J-23750D01*
G01*
X13147500Y-11780000D01*
G75*
G02*
X13123750Y-11803750I-23750J0D01*
G01*
G37*
G36*
G01*
X13123750Y-11976250D02*
X13076250Y-11976250D01*
G75*
G02*
X13052500Y-11952500I0J23750D01*
G01*
X13052500Y-11892500D01*
G75*
G02*
X13076250Y-11868750I23750J0D01*
G01*
X13123750Y-11868750D01*
G75*
G02*
X13147500Y-11892500I0J-23750D01*
G01*
X13147500Y-11952500D01*
G75*
G02*
X13123750Y-11976250I-23750J0D01*
G01*
G37*
%TD*%
%TO.C,C1*%
G36*
G01*
X11562500Y-13838750D02*
X11467500Y-13838750D01*
G75*
G02*
X11442500Y-13813750I0J25000D01*
G01*
X11442500Y-13746250D01*
G75*
G02*
X11467500Y-13721250I25000J0D01*
G01*
X11562500Y-13721250D01*
G75*
G02*
X11587500Y-13746250I0J-25000D01*
G01*
X11587500Y-13813750D01*
G75*
G02*
X11562500Y-13838750I-25000J0D01*
G01*
G37*
G36*
G01*
X11562500Y-14046250D02*
X11467500Y-14046250D01*
G75*
G02*
X11442500Y-14021250I0J25000D01*
G01*
X11442500Y-13953750D01*
G75*
G02*
X11467500Y-13928750I25000J0D01*
G01*
X11562500Y-13928750D01*
G75*
G02*
X11587500Y-13953750I0J-25000D01*
G01*
X11587500Y-14021250D01*
G75*
G02*
X11562500Y-14046250I-25000J0D01*
G01*
G37*
%TD*%
%TO.C,C2*%
G36*
G01*
X11076250Y-14301250D02*
X11076250Y-14348750D01*
G75*
G02*
X11052500Y-14372500I-23750J0D01*
G01*
X10992500Y-14372500D01*
G75*
G02*
X10968750Y-14348750I0J23750D01*
G01*
X10968750Y-14301250D01*
G75*
G02*
X10992500Y-14277500I23750J0D01*
G01*
X11052500Y-14277500D01*
G75*
G02*
X11076250Y-14301250I0J-23750D01*
G01*
G37*
G36*
G01*
X10903750Y-14301250D02*
X10903750Y-14348750D01*
G75*
G02*
X10880000Y-14372500I-23750J0D01*
G01*
X10820000Y-14372500D01*
G75*
G02*
X10796250Y-14348750I0J23750D01*
G01*
X10796250Y-14301250D01*
G75*
G02*
X10820000Y-14277500I23750J0D01*
G01*
X10880000Y-14277500D01*
G75*
G02*
X10903750Y-14301250I0J-23750D01*
G01*
G37*
%TD*%
%TO.C,C3*%
G36*
G01*
X10152500Y-13383750D02*
X10247500Y-13383750D01*
G75*
G02*
X10272500Y-13408750I0J-25000D01*
G01*
X10272500Y-13476250D01*
G75*
G02*
X10247500Y-13501250I-25000J0D01*
G01*
X10152500Y-13501250D01*
G75*
G02*
X10127500Y-13476250I0J25000D01*
G01*
X10127500Y-13408750D01*
G75*
G02*
X10152500Y-13383750I25000J0D01*
G01*
G37*
G36*
G01*
X10152500Y-13591250D02*
X10247500Y-13591250D01*
G75*
G02*
X10272500Y-13616250I0J-25000D01*
G01*
X10272500Y-13683750D01*
G75*
G02*
X10247500Y-13708750I-25000J0D01*
G01*
X10152500Y-13708750D01*
G75*
G02*
X10127500Y-13683750I0J25000D01*
G01*
X10127500Y-13616250D01*
G75*
G02*
X10152500Y-13591250I25000J0D01*
G01*
G37*
%TD*%
D11*
%TO.C,Q1*%
X12100000Y-13620000D03*
X11900000Y-13715000D03*
X11900000Y-13525000D03*
%TD*%
%TO.C,Q2*%
X11900000Y-13985000D03*
X11900000Y-14175000D03*
X12100000Y-14080000D03*
%TD*%
D12*
%TO.C,Q3*%
X10822000Y-14070000D03*
X11050000Y-14070000D03*
X11278000Y-14070000D03*
D13*
X11202500Y-13272500D03*
X10897500Y-13607500D03*
X10897500Y-13272500D03*
X11202500Y-13607500D03*
%TD*%
%TO.C,R1*%
G36*
G01*
X11668750Y-13298750D02*
X11668750Y-13251250D01*
G75*
G02*
X11692500Y-13227500I23750J0D01*
G01*
X11742500Y-13227500D01*
G75*
G02*
X11766250Y-13251250I0J-23750D01*
G01*
X11766250Y-13298750D01*
G75*
G02*
X11742500Y-13322500I-23750J0D01*
G01*
X11692500Y-13322500D01*
G75*
G02*
X11668750Y-13298750I0J23750D01*
G01*
G37*
G36*
G01*
X11851250Y-13298750D02*
X11851250Y-13251250D01*
G75*
G02*
X11875000Y-13227500I23750J0D01*
G01*
X11925000Y-13227500D01*
G75*
G02*
X11948750Y-13251250I0J-23750D01*
G01*
X11948750Y-13298750D01*
G75*
G02*
X11925000Y-13322500I-23750J0D01*
G01*
X11875000Y-13322500D01*
G75*
G02*
X11851250Y-13298750I0J23750D01*
G01*
G37*
%TD*%
%TO.C,R2*%
G36*
G01*
X12192500Y-13298750D02*
X12192500Y-13251250D01*
G75*
G02*
X12216250Y-13227500I23750J0D01*
G01*
X12266250Y-13227500D01*
G75*
G02*
X12290000Y-13251250I0J-23750D01*
G01*
X12290000Y-13298750D01*
G75*
G02*
X12266250Y-13322500I-23750J0D01*
G01*
X12216250Y-13322500D01*
G75*
G02*
X12192500Y-13298750I0J23750D01*
G01*
G37*
G36*
G01*
X12010000Y-13298750D02*
X12010000Y-13251250D01*
G75*
G02*
X12033750Y-13227500I23750J0D01*
G01*
X12083750Y-13227500D01*
G75*
G02*
X12107500Y-13251250I0J-23750D01*
G01*
X12107500Y-13298750D01*
G75*
G02*
X12083750Y-13322500I-23750J0D01*
G01*
X12033750Y-13322500D01*
G75*
G02*
X12010000Y-13298750I0J23750D01*
G01*
G37*
%TD*%
%TO.C,R3*%
G36*
G01*
X12598750Y-13601250D02*
X12598750Y-13648750D01*
G75*
G02*
X12575000Y-13672500I-23750J0D01*
G01*
X12525000Y-13672500D01*
G75*
G02*
X12501250Y-13648750I0J23750D01*
G01*
X12501250Y-13601250D01*
G75*
G02*
X12525000Y-13577500I23750J0D01*
G01*
X12575000Y-13577500D01*
G75*
G02*
X12598750Y-13601250I0J-23750D01*
G01*
G37*
G36*
G01*
X12416250Y-13601250D02*
X12416250Y-13648750D01*
G75*
G02*
X12392500Y-13672500I-23750J0D01*
G01*
X12342500Y-13672500D01*
G75*
G02*
X12318750Y-13648750I0J23750D01*
G01*
X12318750Y-13601250D01*
G75*
G02*
X12342500Y-13577500I23750J0D01*
G01*
X12392500Y-13577500D01*
G75*
G02*
X12416250Y-13601250I0J-23750D01*
G01*
G37*
%TD*%
%TO.C,R7*%
G36*
G01*
X12598750Y-14051250D02*
X12598750Y-14098750D01*
G75*
G02*
X12575000Y-14122500I-23750J0D01*
G01*
X12525000Y-14122500D01*
G75*
G02*
X12501250Y-14098750I0J23750D01*
G01*
X12501250Y-14051250D01*
G75*
G02*
X12525000Y-14027500I23750J0D01*
G01*
X12575000Y-14027500D01*
G75*
G02*
X12598750Y-14051250I0J-23750D01*
G01*
G37*
G36*
G01*
X12416250Y-14051250D02*
X12416250Y-14098750D01*
G75*
G02*
X12392500Y-14122500I-23750J0D01*
G01*
X12342500Y-14122500D01*
G75*
G02*
X12318750Y-14098750I0J23750D01*
G01*
X12318750Y-14051250D01*
G75*
G02*
X12342500Y-14027500I23750J0D01*
G01*
X12392500Y-14027500D01*
G75*
G02*
X12416250Y-14051250I0J-23750D01*
G01*
G37*
%TD*%
%TO.C,R9*%
G36*
G01*
X11426250Y-14348750D02*
X11426250Y-14301250D01*
G75*
G02*
X11450000Y-14277500I23750J0D01*
G01*
X11500000Y-14277500D01*
G75*
G02*
X11523750Y-14301250I0J-23750D01*
G01*
X11523750Y-14348750D01*
G75*
G02*
X11500000Y-14372500I-23750J0D01*
G01*
X11450000Y-14372500D01*
G75*
G02*
X11426250Y-14348750I0J23750D01*
G01*
G37*
G36*
G01*
X11608750Y-14348750D02*
X11608750Y-14301250D01*
G75*
G02*
X11632500Y-14277500I23750J0D01*
G01*
X11682500Y-14277500D01*
G75*
G02*
X11706250Y-14301250I0J-23750D01*
G01*
X11706250Y-14348750D01*
G75*
G02*
X11682500Y-14372500I-23750J0D01*
G01*
X11632500Y-14372500D01*
G75*
G02*
X11608750Y-14348750I0J23750D01*
G01*
G37*
%TD*%
%TO.C,U1*%
G36*
G01*
X12782500Y-12712500D02*
X12767500Y-12712500D01*
G75*
G02*
X12760000Y-12705000I0J7500D01*
G01*
X12760000Y-12575000D01*
G75*
G02*
X12767500Y-12567500I7500J0D01*
G01*
X12782500Y-12567500D01*
G75*
G02*
X12790000Y-12575000I0J-7500D01*
G01*
X12790000Y-12705000D01*
G75*
G02*
X12782500Y-12712500I-7500J0D01*
G01*
G37*
G36*
G01*
X12832500Y-12712500D02*
X12817500Y-12712500D01*
G75*
G02*
X12810000Y-12705000I0J7500D01*
G01*
X12810000Y-12575000D01*
G75*
G02*
X12817500Y-12567500I7500J0D01*
G01*
X12832500Y-12567500D01*
G75*
G02*
X12840000Y-12575000I0J-7500D01*
G01*
X12840000Y-12705000D01*
G75*
G02*
X12832500Y-12712500I-7500J0D01*
G01*
G37*
G36*
G01*
X12882500Y-12712500D02*
X12867500Y-12712500D01*
G75*
G02*
X12860000Y-12705000I0J7500D01*
G01*
X12860000Y-12575000D01*
G75*
G02*
X12867500Y-12567500I7500J0D01*
G01*
X12882500Y-12567500D01*
G75*
G02*
X12890000Y-12575000I0J-7500D01*
G01*
X12890000Y-12705000D01*
G75*
G02*
X12882500Y-12712500I-7500J0D01*
G01*
G37*
G36*
G01*
X12932500Y-12712500D02*
X12917500Y-12712500D01*
G75*
G02*
X12910000Y-12705000I0J7500D01*
G01*
X12910000Y-12575000D01*
G75*
G02*
X12917500Y-12567500I7500J0D01*
G01*
X12932500Y-12567500D01*
G75*
G02*
X12940000Y-12575000I0J-7500D01*
G01*
X12940000Y-12705000D01*
G75*
G02*
X12932500Y-12712500I-7500J0D01*
G01*
G37*
G36*
G01*
X12982500Y-12712500D02*
X12967500Y-12712500D01*
G75*
G02*
X12960000Y-12705000I0J7500D01*
G01*
X12960000Y-12575000D01*
G75*
G02*
X12967500Y-12567500I7500J0D01*
G01*
X12982500Y-12567500D01*
G75*
G02*
X12990000Y-12575000I0J-7500D01*
G01*
X12990000Y-12705000D01*
G75*
G02*
X12982500Y-12712500I-7500J0D01*
G01*
G37*
G36*
G01*
X12982500Y-12282500D02*
X12967500Y-12282500D01*
G75*
G02*
X12960000Y-12275000I0J7500D01*
G01*
X12960000Y-12145000D01*
G75*
G02*
X12967500Y-12137500I7500J0D01*
G01*
X12982500Y-12137500D01*
G75*
G02*
X12990000Y-12145000I0J-7500D01*
G01*
X12990000Y-12275000D01*
G75*
G02*
X12982500Y-12282500I-7500J0D01*
G01*
G37*
G36*
G01*
X12932500Y-12282500D02*
X12917500Y-12282500D01*
G75*
G02*
X12910000Y-12275000I0J7500D01*
G01*
X12910000Y-12145000D01*
G75*
G02*
X12917500Y-12137500I7500J0D01*
G01*
X12932500Y-12137500D01*
G75*
G02*
X12940000Y-12145000I0J-7500D01*
G01*
X12940000Y-12275000D01*
G75*
G02*
X12932500Y-12282500I-7500J0D01*
G01*
G37*
G36*
G01*
X12882500Y-12282500D02*
X12867500Y-12282500D01*
G75*
G02*
X12860000Y-12275000I0J7500D01*
G01*
X12860000Y-12145000D01*
G75*
G02*
X12867500Y-12137500I7500J0D01*
G01*
X12882500Y-12137500D01*
G75*
G02*
X12890000Y-12145000I0J-7500D01*
G01*
X12890000Y-12275000D01*
G75*
G02*
X12882500Y-12282500I-7500J0D01*
G01*
G37*
G36*
G01*
X12832500Y-12282500D02*
X12817500Y-12282500D01*
G75*
G02*
X12810000Y-12275000I0J7500D01*
G01*
X12810000Y-12145000D01*
G75*
G02*
X12817500Y-12137500I7500J0D01*
G01*
X12832500Y-12137500D01*
G75*
G02*
X12840000Y-12145000I0J-7500D01*
G01*
X12840000Y-12275000D01*
G75*
G02*
X12832500Y-12282500I-7500J0D01*
G01*
G37*
G36*
G01*
X12782500Y-12282500D02*
X12767500Y-12282500D01*
G75*
G02*
X12760000Y-12275000I0J7500D01*
G01*
X12760000Y-12145000D01*
G75*
G02*
X12767500Y-12137500I7500J0D01*
G01*
X12782500Y-12137500D01*
G75*
G02*
X12790000Y-12145000I0J-7500D01*
G01*
X12790000Y-12275000D01*
G75*
G02*
X12782500Y-12282500I-7500J0D01*
G01*
G37*
G36*
G01*
X12849000Y-12501000D02*
X12807000Y-12501000D01*
G75*
G02*
X12790000Y-12484000I0J17000D01*
G01*
X12790000Y-12450000D01*
G75*
G02*
X12807000Y-12433000I17000J0D01*
G01*
X12849000Y-12433000D01*
G75*
G02*
X12866000Y-12450000I0J-17000D01*
G01*
X12866000Y-12484000D01*
G75*
G02*
X12849000Y-12501000I-17000J0D01*
G01*
G37*
G36*
G01*
X12943000Y-12501000D02*
X12901000Y-12501000D01*
G75*
G02*
X12884000Y-12484000I0J17000D01*
G01*
X12884000Y-12450000D01*
G75*
G02*
X12901000Y-12433000I17000J0D01*
G01*
X12943000Y-12433000D01*
G75*
G02*
X12960000Y-12450000I0J-17000D01*
G01*
X12960000Y-12484000D01*
G75*
G02*
X12943000Y-12501000I-17000J0D01*
G01*
G37*
G36*
G01*
X12849000Y-12417000D02*
X12807000Y-12417000D01*
G75*
G02*
X12790000Y-12400000I0J17000D01*
G01*
X12790000Y-12366000D01*
G75*
G02*
X12807000Y-12349000I17000J0D01*
G01*
X12849000Y-12349000D01*
G75*
G02*
X12866000Y-12366000I0J-17000D01*
G01*
X12866000Y-12400000D01*
G75*
G02*
X12849000Y-12417000I-17000J0D01*
G01*
G37*
G36*
G01*
X12943000Y-12417000D02*
X12901000Y-12417000D01*
G75*
G02*
X12884000Y-12400000I0J17000D01*
G01*
X12884000Y-12366000D01*
G75*
G02*
X12901000Y-12349000I17000J0D01*
G01*
X12943000Y-12349000D01*
G75*
G02*
X12960000Y-12366000I0J-17000D01*
G01*
X12960000Y-12400000D01*
G75*
G02*
X12943000Y-12417000I-17000J0D01*
G01*
G37*
%TD*%
M02*
