%TF.GenerationSoftware,KiCad,Pcbnew,5.1.10-8.fc35*%
%TF.CreationDate,2021-11-18T10:19:23+00:00*%
%TF.ProjectId,cryosub_power_converter_top_v02,6372796f-7375-4625-9f70-6f7765725f63,rev?*%
%TF.SameCoordinates,Original*%
%TF.FileFunction,Copper,L3,Inr*%
%TF.FilePolarity,Positive*%
%FSLAX45Y45*%
G04 Gerber Fmt 4.5, Leading zero omitted, Abs format (unit mm)*
G04 Created by KiCad (PCBNEW 5.1.10-8.fc35) date 2021-11-18 10:19:23*
%MOMM*%
%LPD*%
G01*
G04 APERTURE LIST*
%TA.AperFunction,ComponentPad*%
%ADD10O,1.740000X2.190000*%
%TD*%
%TA.AperFunction,ComponentPad*%
%ADD11O,2.190000X1.740000*%
%TD*%
%TA.AperFunction,ViaPad*%
%ADD12C,0.800000*%
%TD*%
%TA.AperFunction,ViaPad*%
%ADD13C,0.900000*%
%TD*%
%TA.AperFunction,Conductor*%
%ADD14C,0.254000*%
%TD*%
%TA.AperFunction,Conductor*%
%ADD15C,0.100000*%
%TD*%
G04 APERTURE END LIST*
D10*
%TO.N,GND*%
%TO.C,J1*%
X13129000Y-13550000D03*
%TO.N,VDC*%
%TA.AperFunction,ComponentPad*%
G36*
G01*
X12788000Y-13634500D02*
X12788000Y-13465500D01*
G75*
G02*
X12813000Y-13440500I25000J0D01*
G01*
X12937000Y-13440500D01*
G75*
G02*
X12962000Y-13465500I0J-25000D01*
G01*
X12962000Y-13634500D01*
G75*
G02*
X12937000Y-13659500I-25000J0D01*
G01*
X12813000Y-13659500D01*
G75*
G02*
X12788000Y-13634500I0J25000D01*
G01*
G37*
%TD.AperFunction*%
%TD*%
D11*
%TO.N,GND*%
%TO.C,J3*%
X12600000Y-10346000D03*
%TO.N,/p5v_out*%
%TA.AperFunction,ComponentPad*%
G36*
G01*
X12684500Y-10687000D02*
X12515500Y-10687000D01*
G75*
G02*
X12490500Y-10662000I0J25000D01*
G01*
X12490500Y-10538000D01*
G75*
G02*
X12515500Y-10513000I25000J0D01*
G01*
X12684500Y-10513000D01*
G75*
G02*
X12709500Y-10538000I0J-25000D01*
G01*
X12709500Y-10662000D01*
G75*
G02*
X12684500Y-10687000I-25000J0D01*
G01*
G37*
%TD.AperFunction*%
%TD*%
D12*
%TO.N,GND*%
X12595000Y-12285000D03*
X12675000Y-12405000D03*
X12595000Y-12485000D03*
X13095259Y-12437500D03*
X13195000Y-12405000D03*
X13195000Y-12505000D03*
X10700000Y-11300000D03*
X10950000Y-11300000D03*
X11200000Y-11300000D03*
X12350000Y-13275000D03*
X12100000Y-13875000D03*
X12925000Y-11625000D03*
X13125000Y-11625000D03*
X12675000Y-11625000D03*
X13030000Y-12640000D03*
X13070000Y-12950000D03*
D13*
X10200000Y-13800000D03*
X10200000Y-12925000D03*
X10950000Y-12675000D03*
X12025000Y-13000000D03*
X12225000Y-12300000D03*
X10696000Y-11919000D03*
X10950000Y-11910000D03*
X11204000Y-11934000D03*
X11130000Y-12130000D03*
D12*
X11600000Y-13645000D03*
%TO.N,/On When Warm/VD1*%
X12400000Y-13475000D03*
%TO.N,/On When Warm/vs*%
X11800000Y-13725000D03*
X11800000Y-14175000D03*
%TO.N,/On When Warm/vg1*%
X12100000Y-13425000D03*
%TO.N,/thermistor*%
X12250000Y-13975000D03*
%TO.N,/On When Warm/vd2*%
X12305132Y-13870617D03*
%TO.N,VDC*%
X12595000Y-12665000D03*
X12595000Y-12825000D03*
X12595000Y-13005000D03*
X12000000Y-10900000D03*
X11278000Y-14278000D03*
X12550000Y-13475000D03*
X12550000Y-14225000D03*
X11625000Y-14100000D03*
X11674818Y-13368949D03*
%TO.N,/dc_dc/vout*%
X10946000Y-10304000D03*
X10700000Y-10300000D03*
D13*
%TO.N,Net-(PS1-Pad10)*%
X10195000Y-11640000D03*
%TO.N,Net-(PS1-Pad6)*%
X11460000Y-11960000D03*
%TO.N,Net-(C7-Pad1)*%
X10696000Y-12504000D03*
%TO.N,Net-(C8-Pad1)*%
X11225000Y-12500000D03*
X11455000Y-12630000D03*
%TD*%
D14*
%TO.N,VDC*%
X13334000Y-14434000D02*
X10066000Y-14434000D01*
X10066000Y-14080449D01*
X10201500Y-14080449D01*
X10201500Y-14119550D01*
X10209128Y-14157900D01*
X10224092Y-14194025D01*
X10245815Y-14226536D01*
X10273464Y-14254185D01*
X10305975Y-14275908D01*
X10342100Y-14290872D01*
X10380450Y-14298500D01*
X10419551Y-14298500D01*
X10457900Y-14290872D01*
X10494025Y-14275908D01*
X10526536Y-14254185D01*
X10554185Y-14226536D01*
X10575909Y-14194025D01*
X10588011Y-14164806D01*
X11696500Y-14164806D01*
X11696500Y-14185194D01*
X11700477Y-14205190D01*
X11708279Y-14224026D01*
X11719606Y-14240977D01*
X11734023Y-14255394D01*
X11750974Y-14266720D01*
X11769810Y-14274523D01*
X11789806Y-14278500D01*
X11810194Y-14278500D01*
X11830190Y-14274523D01*
X11849026Y-14266720D01*
X11865977Y-14255394D01*
X11880394Y-14240977D01*
X11891720Y-14224026D01*
X11899523Y-14205190D01*
X11903500Y-14185194D01*
X11903500Y-14164806D01*
X11899523Y-14144810D01*
X11891720Y-14125974D01*
X11880394Y-14109023D01*
X11865977Y-14094606D01*
X11849026Y-14083279D01*
X11842193Y-14080449D01*
X12801500Y-14080449D01*
X12801500Y-14119550D01*
X12809128Y-14157900D01*
X12824091Y-14194025D01*
X12845815Y-14226536D01*
X12873464Y-14254185D01*
X12905975Y-14275908D01*
X12942100Y-14290872D01*
X12980449Y-14298500D01*
X13019550Y-14298500D01*
X13057900Y-14290872D01*
X13094025Y-14275908D01*
X13126536Y-14254185D01*
X13154185Y-14226536D01*
X13175908Y-14194025D01*
X13190872Y-14157900D01*
X13198500Y-14119550D01*
X13198500Y-14080449D01*
X13190872Y-14042100D01*
X13175908Y-14005975D01*
X13154185Y-13973464D01*
X13126536Y-13945815D01*
X13094025Y-13924091D01*
X13057900Y-13909128D01*
X13019550Y-13901500D01*
X12980449Y-13901500D01*
X12942100Y-13909128D01*
X12905975Y-13924091D01*
X12873464Y-13945815D01*
X12845815Y-13973464D01*
X12824091Y-14005975D01*
X12809128Y-14042100D01*
X12801500Y-14080449D01*
X11842193Y-14080449D01*
X11830190Y-14075477D01*
X11810194Y-14071500D01*
X11789806Y-14071500D01*
X11769810Y-14075477D01*
X11750974Y-14083279D01*
X11734023Y-14094606D01*
X11719606Y-14109023D01*
X11708279Y-14125974D01*
X11700477Y-14144810D01*
X11696500Y-14164806D01*
X10588011Y-14164806D01*
X10590872Y-14157900D01*
X10598500Y-14119550D01*
X10598500Y-14080449D01*
X10590872Y-14042100D01*
X10575909Y-14005975D01*
X10554185Y-13973464D01*
X10526536Y-13945815D01*
X10494025Y-13924091D01*
X10457900Y-13909128D01*
X10419551Y-13901500D01*
X10380450Y-13901500D01*
X10342100Y-13909128D01*
X10305975Y-13924091D01*
X10273464Y-13945815D01*
X10245815Y-13973464D01*
X10224092Y-14005975D01*
X10209128Y-14042100D01*
X10201500Y-14080449D01*
X10066000Y-14080449D01*
X10066000Y-13789314D01*
X10091500Y-13789314D01*
X10091500Y-13810686D01*
X10095670Y-13831648D01*
X10103849Y-13851394D01*
X10115723Y-13869165D01*
X10130835Y-13884277D01*
X10148606Y-13896151D01*
X10168352Y-13904330D01*
X10189314Y-13908500D01*
X10210686Y-13908500D01*
X10231648Y-13904330D01*
X10251394Y-13896151D01*
X10269165Y-13884277D01*
X10284278Y-13869165D01*
X10287190Y-13864806D01*
X11996500Y-13864806D01*
X11996500Y-13885194D01*
X12000477Y-13905190D01*
X12008279Y-13924026D01*
X12019606Y-13940977D01*
X12034023Y-13955394D01*
X12050974Y-13966720D01*
X12069810Y-13974523D01*
X12089806Y-13978500D01*
X12110194Y-13978500D01*
X12130190Y-13974523D01*
X12146500Y-13967767D01*
X12146500Y-13985194D01*
X12150477Y-14005190D01*
X12158279Y-14024026D01*
X12169606Y-14040977D01*
X12184023Y-14055394D01*
X12200974Y-14066720D01*
X12219810Y-14074523D01*
X12239806Y-14078500D01*
X12260194Y-14078500D01*
X12280190Y-14074523D01*
X12299026Y-14066720D01*
X12315977Y-14055394D01*
X12330394Y-14040977D01*
X12341720Y-14024026D01*
X12349523Y-14005190D01*
X12353500Y-13985194D01*
X12353500Y-13964806D01*
X12353096Y-13962777D01*
X12354157Y-13962338D01*
X12371109Y-13951011D01*
X12385525Y-13936595D01*
X12396852Y-13919643D01*
X12404654Y-13900807D01*
X12408632Y-13880811D01*
X12408632Y-13860424D01*
X12404654Y-13840428D01*
X12396852Y-13821592D01*
X12385525Y-13804640D01*
X12371109Y-13790224D01*
X12354157Y-13778897D01*
X12335322Y-13771095D01*
X12315326Y-13767117D01*
X12294938Y-13767117D01*
X12274942Y-13771095D01*
X12256106Y-13778897D01*
X12239154Y-13790224D01*
X12224738Y-13804640D01*
X12213411Y-13821592D01*
X12205609Y-13840428D01*
X12202130Y-13857919D01*
X12199523Y-13844810D01*
X12191720Y-13825974D01*
X12180394Y-13809023D01*
X12165977Y-13794606D01*
X12149026Y-13783279D01*
X12130190Y-13775477D01*
X12110194Y-13771500D01*
X12089806Y-13771500D01*
X12069810Y-13775477D01*
X12050974Y-13783279D01*
X12034023Y-13794606D01*
X12019606Y-13809023D01*
X12008279Y-13825974D01*
X12000477Y-13844810D01*
X11996500Y-13864806D01*
X10287190Y-13864806D01*
X10296152Y-13851394D01*
X10304330Y-13831648D01*
X10308500Y-13810686D01*
X10308500Y-13789314D01*
X10304330Y-13768352D01*
X10296152Y-13748606D01*
X10284278Y-13730835D01*
X10269165Y-13715722D01*
X10251394Y-13703848D01*
X10231648Y-13695670D01*
X10210686Y-13691500D01*
X10189314Y-13691500D01*
X10168352Y-13695670D01*
X10148606Y-13703848D01*
X10130835Y-13715722D01*
X10115723Y-13730835D01*
X10103849Y-13748606D01*
X10095670Y-13768352D01*
X10091500Y-13789314D01*
X10066000Y-13789314D01*
X10066000Y-13634806D01*
X11496500Y-13634806D01*
X11496500Y-13655194D01*
X11500477Y-13675190D01*
X11508279Y-13694026D01*
X11519606Y-13710978D01*
X11534023Y-13725394D01*
X11550974Y-13736721D01*
X11569810Y-13744523D01*
X11589806Y-13748500D01*
X11610194Y-13748500D01*
X11630190Y-13744523D01*
X11649026Y-13736721D01*
X11665977Y-13725394D01*
X11676565Y-13714806D01*
X11696500Y-13714806D01*
X11696500Y-13735194D01*
X11700477Y-13755190D01*
X11708279Y-13774026D01*
X11719606Y-13790977D01*
X11734023Y-13805394D01*
X11750974Y-13816720D01*
X11769810Y-13824523D01*
X11789806Y-13828500D01*
X11810194Y-13828500D01*
X11830190Y-13824523D01*
X11849026Y-13816720D01*
X11865977Y-13805394D01*
X11880394Y-13790977D01*
X11891720Y-13774026D01*
X11899523Y-13755190D01*
X11903500Y-13735194D01*
X11903500Y-13714806D01*
X11899523Y-13694810D01*
X11891720Y-13675974D01*
X11880713Y-13659500D01*
X12724193Y-13659500D01*
X12725419Y-13671948D01*
X12729050Y-13683918D01*
X12734946Y-13694949D01*
X12742881Y-13704618D01*
X12752551Y-13712554D01*
X12763582Y-13718450D01*
X12775552Y-13722081D01*
X12788000Y-13723307D01*
X12846425Y-13723000D01*
X12862300Y-13707125D01*
X12862300Y-13562700D01*
X12740375Y-13562700D01*
X12724500Y-13578575D01*
X12724193Y-13659500D01*
X11880713Y-13659500D01*
X11880394Y-13659023D01*
X11865977Y-13644606D01*
X11849026Y-13633279D01*
X11830190Y-13625477D01*
X11810194Y-13621500D01*
X11789806Y-13621500D01*
X11769810Y-13625477D01*
X11750974Y-13633279D01*
X11734023Y-13644606D01*
X11719606Y-13659023D01*
X11708279Y-13675974D01*
X11700477Y-13694810D01*
X11696500Y-13714806D01*
X11676565Y-13714806D01*
X11680394Y-13710978D01*
X11691720Y-13694026D01*
X11699523Y-13675190D01*
X11703500Y-13655194D01*
X11703500Y-13634806D01*
X11699523Y-13614810D01*
X11691720Y-13595975D01*
X11680394Y-13579023D01*
X11665977Y-13564606D01*
X11649026Y-13553280D01*
X11630190Y-13545478D01*
X11610194Y-13541500D01*
X11589806Y-13541500D01*
X11569810Y-13545478D01*
X11550974Y-13553280D01*
X11534023Y-13564606D01*
X11519606Y-13579023D01*
X11508279Y-13595975D01*
X11500477Y-13614810D01*
X11496500Y-13634806D01*
X10066000Y-13634806D01*
X10066000Y-13414806D01*
X11996500Y-13414806D01*
X11996500Y-13435194D01*
X12000477Y-13455190D01*
X12008279Y-13474026D01*
X12019606Y-13490977D01*
X12034023Y-13505394D01*
X12050974Y-13516720D01*
X12069810Y-13524523D01*
X12089806Y-13528500D01*
X12110194Y-13528500D01*
X12130190Y-13524523D01*
X12149026Y-13516720D01*
X12165977Y-13505394D01*
X12180394Y-13490977D01*
X12191720Y-13474026D01*
X12199523Y-13455190D01*
X12203500Y-13435194D01*
X12203500Y-13414806D01*
X12199523Y-13394810D01*
X12191720Y-13375974D01*
X12180394Y-13359023D01*
X12165977Y-13344606D01*
X12149026Y-13333279D01*
X12130190Y-13325477D01*
X12110194Y-13321500D01*
X12089806Y-13321500D01*
X12069810Y-13325477D01*
X12050974Y-13333279D01*
X12034023Y-13344606D01*
X12019606Y-13359023D01*
X12008279Y-13375974D01*
X12000477Y-13394810D01*
X11996500Y-13414806D01*
X10066000Y-13414806D01*
X10066000Y-13264806D01*
X12246500Y-13264806D01*
X12246500Y-13285194D01*
X12250477Y-13305190D01*
X12258279Y-13324026D01*
X12269606Y-13340977D01*
X12284023Y-13355394D01*
X12300974Y-13366720D01*
X12319810Y-13374523D01*
X12339806Y-13378500D01*
X12360194Y-13378500D01*
X12364656Y-13377612D01*
X12350974Y-13383279D01*
X12334023Y-13394606D01*
X12319606Y-13409023D01*
X12308279Y-13425974D01*
X12300477Y-13444810D01*
X12296500Y-13464806D01*
X12296500Y-13485194D01*
X12300477Y-13505190D01*
X12308279Y-13524026D01*
X12319606Y-13540977D01*
X12334023Y-13555394D01*
X12350974Y-13566720D01*
X12369810Y-13574523D01*
X12389806Y-13578500D01*
X12410194Y-13578500D01*
X12430190Y-13574523D01*
X12449026Y-13566720D01*
X12465977Y-13555394D01*
X12480394Y-13540977D01*
X12491720Y-13524026D01*
X12499523Y-13505190D01*
X12503500Y-13485194D01*
X12503500Y-13464806D01*
X12499523Y-13444810D01*
X12497737Y-13440500D01*
X12724193Y-13440500D01*
X12724500Y-13521425D01*
X12740375Y-13537300D01*
X12862300Y-13537300D01*
X12862300Y-13392875D01*
X12887700Y-13392875D01*
X12887700Y-13537300D01*
X12889700Y-13537300D01*
X12889700Y-13562700D01*
X12887700Y-13562700D01*
X12887700Y-13707125D01*
X12903575Y-13723000D01*
X12962000Y-13723307D01*
X12974448Y-13722081D01*
X12986418Y-13718450D01*
X12997449Y-13712554D01*
X13007118Y-13704618D01*
X13015054Y-13694949D01*
X13020950Y-13683918D01*
X13022261Y-13679595D01*
X13044982Y-13698242D01*
X13071128Y-13712217D01*
X13099497Y-13720822D01*
X13129000Y-13723728D01*
X13158503Y-13720822D01*
X13186872Y-13712217D01*
X13213018Y-13698242D01*
X13235934Y-13679434D01*
X13254742Y-13656518D01*
X13268717Y-13630372D01*
X13277322Y-13602003D01*
X13279500Y-13579893D01*
X13279500Y-13520106D01*
X13277322Y-13497997D01*
X13268717Y-13469627D01*
X13254742Y-13443482D01*
X13235934Y-13420565D01*
X13213018Y-13401758D01*
X13186872Y-13387783D01*
X13158503Y-13379178D01*
X13129000Y-13376272D01*
X13099497Y-13379178D01*
X13071127Y-13387783D01*
X13044982Y-13401758D01*
X13022261Y-13420405D01*
X13020950Y-13416082D01*
X13015054Y-13405051D01*
X13007118Y-13395381D01*
X12997449Y-13387446D01*
X12986418Y-13381550D01*
X12974448Y-13377919D01*
X12962000Y-13376693D01*
X12903575Y-13377000D01*
X12887700Y-13392875D01*
X12862300Y-13392875D01*
X12846425Y-13377000D01*
X12788000Y-13376693D01*
X12775552Y-13377919D01*
X12763582Y-13381550D01*
X12752551Y-13387446D01*
X12742881Y-13395381D01*
X12734946Y-13405051D01*
X12729050Y-13416082D01*
X12725419Y-13428052D01*
X12724193Y-13440500D01*
X12497737Y-13440500D01*
X12491720Y-13425974D01*
X12480394Y-13409023D01*
X12465977Y-13394606D01*
X12449026Y-13383279D01*
X12430190Y-13375477D01*
X12410194Y-13371500D01*
X12389806Y-13371500D01*
X12385344Y-13372387D01*
X12399026Y-13366720D01*
X12415977Y-13355394D01*
X12430394Y-13340977D01*
X12441720Y-13324026D01*
X12449523Y-13305190D01*
X12453500Y-13285194D01*
X12453500Y-13264806D01*
X12449523Y-13244810D01*
X12441720Y-13225974D01*
X12430394Y-13209023D01*
X12415977Y-13194606D01*
X12399026Y-13183279D01*
X12380190Y-13175477D01*
X12360194Y-13171500D01*
X12339806Y-13171500D01*
X12319810Y-13175477D01*
X12300974Y-13183279D01*
X12284023Y-13194606D01*
X12269606Y-13209023D01*
X12258279Y-13225974D01*
X12250477Y-13244810D01*
X12246500Y-13264806D01*
X10066000Y-13264806D01*
X10066000Y-12914314D01*
X10091500Y-12914314D01*
X10091500Y-12935686D01*
X10095670Y-12956648D01*
X10103849Y-12976394D01*
X10115723Y-12994165D01*
X10130835Y-13009277D01*
X10148606Y-13021151D01*
X10168352Y-13029330D01*
X10189314Y-13033500D01*
X10210686Y-13033500D01*
X10231648Y-13029330D01*
X10251394Y-13021151D01*
X10269165Y-13009277D01*
X10284278Y-12994165D01*
X10287519Y-12989314D01*
X11916500Y-12989314D01*
X11916500Y-13010686D01*
X11920670Y-13031648D01*
X11928848Y-13051394D01*
X11940722Y-13069165D01*
X11955835Y-13084277D01*
X11973606Y-13096151D01*
X11993352Y-13104330D01*
X12014314Y-13108500D01*
X12035686Y-13108500D01*
X12056648Y-13104330D01*
X12076394Y-13096151D01*
X12094165Y-13084277D01*
X12109277Y-13069165D01*
X12121151Y-13051394D01*
X12129330Y-13031648D01*
X12133500Y-13010686D01*
X12133500Y-12989314D01*
X12129330Y-12968352D01*
X12121151Y-12948606D01*
X12115272Y-12939806D01*
X12966500Y-12939806D01*
X12966500Y-12960194D01*
X12970477Y-12980190D01*
X12978279Y-12999026D01*
X12989606Y-13015977D01*
X13004023Y-13030394D01*
X13020974Y-13041720D01*
X13039810Y-13049523D01*
X13059806Y-13053500D01*
X13080194Y-13053500D01*
X13100190Y-13049523D01*
X13119026Y-13041720D01*
X13135977Y-13030394D01*
X13150394Y-13015977D01*
X13161720Y-12999026D01*
X13169523Y-12980190D01*
X13173500Y-12960194D01*
X13173500Y-12939806D01*
X13169523Y-12919810D01*
X13161720Y-12900974D01*
X13150394Y-12884023D01*
X13135977Y-12869606D01*
X13119026Y-12858279D01*
X13100190Y-12850477D01*
X13080194Y-12846500D01*
X13059806Y-12846500D01*
X13039810Y-12850477D01*
X13020974Y-12858279D01*
X13004023Y-12869606D01*
X12989606Y-12884023D01*
X12978279Y-12900974D01*
X12970477Y-12919810D01*
X12966500Y-12939806D01*
X12115272Y-12939806D01*
X12109277Y-12930835D01*
X12094165Y-12915722D01*
X12076394Y-12903848D01*
X12056648Y-12895670D01*
X12035686Y-12891500D01*
X12014314Y-12891500D01*
X11993352Y-12895670D01*
X11973606Y-12903848D01*
X11955835Y-12915722D01*
X11940722Y-12930835D01*
X11928848Y-12948606D01*
X11920670Y-12968352D01*
X11916500Y-12989314D01*
X10287519Y-12989314D01*
X10296152Y-12976394D01*
X10304330Y-12956648D01*
X10308500Y-12935686D01*
X10308500Y-12914314D01*
X10304330Y-12893352D01*
X10296152Y-12873606D01*
X10284278Y-12855835D01*
X10269165Y-12840722D01*
X10251394Y-12828848D01*
X10231648Y-12820670D01*
X10210686Y-12816500D01*
X10189314Y-12816500D01*
X10168352Y-12820670D01*
X10148606Y-12828848D01*
X10130835Y-12840722D01*
X10115723Y-12855835D01*
X10103849Y-12873606D01*
X10095670Y-12893352D01*
X10091500Y-12914314D01*
X10066000Y-12914314D01*
X10066000Y-12664314D01*
X10841500Y-12664314D01*
X10841500Y-12685686D01*
X10845670Y-12706648D01*
X10853849Y-12726394D01*
X10865723Y-12744165D01*
X10880835Y-12759277D01*
X10898606Y-12771151D01*
X10918352Y-12779330D01*
X10939314Y-12783500D01*
X10960686Y-12783500D01*
X10981648Y-12779330D01*
X11001394Y-12771151D01*
X11019165Y-12759277D01*
X11034278Y-12744165D01*
X11046152Y-12726394D01*
X11054330Y-12706648D01*
X11058500Y-12685686D01*
X11058500Y-12664314D01*
X11054330Y-12643352D01*
X11046152Y-12623606D01*
X11043284Y-12619314D01*
X11346500Y-12619314D01*
X11346500Y-12640686D01*
X11350670Y-12661648D01*
X11358848Y-12681394D01*
X11370722Y-12699165D01*
X11385835Y-12714277D01*
X11403606Y-12726151D01*
X11423352Y-12734330D01*
X11444314Y-12738500D01*
X11465686Y-12738500D01*
X11486648Y-12734330D01*
X11506394Y-12726151D01*
X11524165Y-12714277D01*
X11539277Y-12699165D01*
X11551151Y-12681394D01*
X11559330Y-12661648D01*
X11563500Y-12640686D01*
X11563500Y-12629806D01*
X12926500Y-12629806D01*
X12926500Y-12650194D01*
X12930477Y-12670190D01*
X12938279Y-12689026D01*
X12949606Y-12705977D01*
X12964023Y-12720394D01*
X12980974Y-12731720D01*
X12999810Y-12739523D01*
X13019806Y-12743500D01*
X13040194Y-12743500D01*
X13060190Y-12739523D01*
X13079026Y-12731720D01*
X13095977Y-12720394D01*
X13110394Y-12705977D01*
X13121720Y-12689026D01*
X13129523Y-12670190D01*
X13133500Y-12650194D01*
X13133500Y-12629806D01*
X13129523Y-12609810D01*
X13121720Y-12590974D01*
X13110394Y-12574023D01*
X13095977Y-12559606D01*
X13079026Y-12548279D01*
X13060190Y-12540477D01*
X13040194Y-12536500D01*
X13019806Y-12536500D01*
X12999810Y-12540477D01*
X12980974Y-12548279D01*
X12964023Y-12559606D01*
X12949606Y-12574023D01*
X12938279Y-12590974D01*
X12930477Y-12609810D01*
X12926500Y-12629806D01*
X11563500Y-12629806D01*
X11563500Y-12619314D01*
X11559330Y-12598352D01*
X11551151Y-12578606D01*
X11539277Y-12560835D01*
X11524165Y-12545722D01*
X11506394Y-12533848D01*
X11486648Y-12525670D01*
X11465686Y-12521500D01*
X11444314Y-12521500D01*
X11423352Y-12525670D01*
X11403606Y-12533848D01*
X11385835Y-12545722D01*
X11370722Y-12560835D01*
X11358848Y-12578606D01*
X11350670Y-12598352D01*
X11346500Y-12619314D01*
X11043284Y-12619314D01*
X11034278Y-12605835D01*
X11019165Y-12590722D01*
X11001394Y-12578848D01*
X10981648Y-12570670D01*
X10960686Y-12566500D01*
X10939314Y-12566500D01*
X10918352Y-12570670D01*
X10898606Y-12578848D01*
X10880835Y-12590722D01*
X10865723Y-12605835D01*
X10853849Y-12623606D01*
X10845670Y-12643352D01*
X10841500Y-12664314D01*
X10066000Y-12664314D01*
X10066000Y-12493314D01*
X10587500Y-12493314D01*
X10587500Y-12514686D01*
X10591670Y-12535648D01*
X10599849Y-12555394D01*
X10611723Y-12573165D01*
X10626835Y-12588277D01*
X10644606Y-12600151D01*
X10664352Y-12608330D01*
X10685314Y-12612500D01*
X10706686Y-12612500D01*
X10727648Y-12608330D01*
X10747394Y-12600151D01*
X10765165Y-12588277D01*
X10780278Y-12573165D01*
X10792152Y-12555394D01*
X10800330Y-12535648D01*
X10804500Y-12514686D01*
X10804500Y-12493314D01*
X10803704Y-12489314D01*
X11116500Y-12489314D01*
X11116500Y-12510686D01*
X11120670Y-12531648D01*
X11128849Y-12551394D01*
X11140723Y-12569165D01*
X11155835Y-12584277D01*
X11173606Y-12596151D01*
X11193352Y-12604330D01*
X11214314Y-12608500D01*
X11235686Y-12608500D01*
X11256648Y-12604330D01*
X11276394Y-12596151D01*
X11294165Y-12584277D01*
X11309277Y-12569165D01*
X11321151Y-12551394D01*
X11329330Y-12531648D01*
X11333500Y-12510686D01*
X11333500Y-12489314D01*
X11329330Y-12468352D01*
X11321151Y-12448606D01*
X11309277Y-12430835D01*
X11294165Y-12415722D01*
X11276394Y-12403848D01*
X11256648Y-12395670D01*
X11235686Y-12391500D01*
X11214314Y-12391500D01*
X11193352Y-12395670D01*
X11173606Y-12403848D01*
X11155835Y-12415722D01*
X11140723Y-12430835D01*
X11128849Y-12448606D01*
X11120670Y-12468352D01*
X11116500Y-12489314D01*
X10803704Y-12489314D01*
X10800330Y-12472352D01*
X10792152Y-12452606D01*
X10780278Y-12434835D01*
X10765165Y-12419722D01*
X10747394Y-12407848D01*
X10727648Y-12399670D01*
X10706686Y-12395500D01*
X10685314Y-12395500D01*
X10664352Y-12399670D01*
X10644606Y-12407848D01*
X10626835Y-12419722D01*
X10611723Y-12434835D01*
X10599849Y-12452606D01*
X10591670Y-12472352D01*
X10587500Y-12493314D01*
X10066000Y-12493314D01*
X10066000Y-12289314D01*
X12116500Y-12289314D01*
X12116500Y-12310686D01*
X12120670Y-12331648D01*
X12128848Y-12351394D01*
X12140722Y-12369165D01*
X12155835Y-12384277D01*
X12173606Y-12396151D01*
X12193352Y-12404330D01*
X12214314Y-12408500D01*
X12235686Y-12408500D01*
X12256648Y-12404330D01*
X12276394Y-12396151D01*
X12294165Y-12384277D01*
X12309277Y-12369165D01*
X12321151Y-12351394D01*
X12329330Y-12331648D01*
X12333500Y-12310686D01*
X12333500Y-12289314D01*
X12330614Y-12274806D01*
X12491500Y-12274806D01*
X12491500Y-12295194D01*
X12495477Y-12315190D01*
X12503279Y-12334026D01*
X12514606Y-12350977D01*
X12529023Y-12365394D01*
X12545974Y-12376720D01*
X12564810Y-12384523D01*
X12567210Y-12385000D01*
X12564810Y-12385477D01*
X12545974Y-12393279D01*
X12529023Y-12404606D01*
X12514606Y-12419023D01*
X12503279Y-12435974D01*
X12495477Y-12454810D01*
X12491500Y-12474806D01*
X12491500Y-12495194D01*
X12495477Y-12515190D01*
X12503279Y-12534026D01*
X12514606Y-12550977D01*
X12529023Y-12565394D01*
X12545974Y-12576720D01*
X12564810Y-12584523D01*
X12584806Y-12588500D01*
X12605194Y-12588500D01*
X12625190Y-12584523D01*
X12644026Y-12576720D01*
X12660977Y-12565394D01*
X12675394Y-12550977D01*
X12686720Y-12534026D01*
X12694523Y-12515190D01*
X12696292Y-12506292D01*
X12705190Y-12504523D01*
X12724026Y-12496720D01*
X12740977Y-12485394D01*
X12755394Y-12470977D01*
X12766720Y-12454026D01*
X12774523Y-12435190D01*
X12776091Y-12427306D01*
X12991759Y-12427306D01*
X12991759Y-12447693D01*
X12995737Y-12467689D01*
X13003539Y-12486525D01*
X13014866Y-12503477D01*
X13029282Y-12517893D01*
X13046234Y-12529220D01*
X13065069Y-12537022D01*
X13085065Y-12541000D01*
X13097884Y-12541000D01*
X13103279Y-12554026D01*
X13114606Y-12570977D01*
X13129023Y-12585394D01*
X13145974Y-12596720D01*
X13164810Y-12604523D01*
X13184806Y-12608500D01*
X13205194Y-12608500D01*
X13225190Y-12604523D01*
X13244026Y-12596720D01*
X13260977Y-12585394D01*
X13275394Y-12570977D01*
X13286720Y-12554026D01*
X13294523Y-12535190D01*
X13298500Y-12515194D01*
X13298500Y-12494806D01*
X13294523Y-12474810D01*
X13286720Y-12455974D01*
X13286069Y-12455000D01*
X13286720Y-12454026D01*
X13294523Y-12435190D01*
X13298500Y-12415194D01*
X13298500Y-12394806D01*
X13294523Y-12374810D01*
X13286720Y-12355974D01*
X13275394Y-12339023D01*
X13260977Y-12324606D01*
X13244026Y-12313279D01*
X13225190Y-12305477D01*
X13205194Y-12301500D01*
X13184806Y-12301500D01*
X13164810Y-12305477D01*
X13145974Y-12313279D01*
X13129023Y-12324606D01*
X13117277Y-12336352D01*
X13105453Y-12334000D01*
X13085065Y-12334000D01*
X13065069Y-12337977D01*
X13046234Y-12345779D01*
X13029282Y-12357106D01*
X13014866Y-12371522D01*
X13003539Y-12388474D01*
X12995737Y-12407310D01*
X12991759Y-12427306D01*
X12776091Y-12427306D01*
X12778500Y-12415194D01*
X12778500Y-12394806D01*
X12774523Y-12374810D01*
X12766720Y-12355974D01*
X12755394Y-12339023D01*
X12740977Y-12324606D01*
X12724026Y-12313279D01*
X12705190Y-12305477D01*
X12696787Y-12303806D01*
X12698500Y-12295194D01*
X12698500Y-12274806D01*
X12694523Y-12254810D01*
X12686720Y-12235974D01*
X12675394Y-12219023D01*
X12660977Y-12204606D01*
X12644026Y-12193279D01*
X12625190Y-12185477D01*
X12605194Y-12181500D01*
X12584806Y-12181500D01*
X12564810Y-12185477D01*
X12545974Y-12193279D01*
X12529023Y-12204606D01*
X12514606Y-12219023D01*
X12503279Y-12235974D01*
X12495477Y-12254810D01*
X12491500Y-12274806D01*
X12330614Y-12274806D01*
X12329330Y-12268352D01*
X12321151Y-12248606D01*
X12309277Y-12230835D01*
X12294165Y-12215722D01*
X12276394Y-12203848D01*
X12256648Y-12195670D01*
X12235686Y-12191500D01*
X12214314Y-12191500D01*
X12193352Y-12195670D01*
X12173606Y-12203848D01*
X12155835Y-12215722D01*
X12140722Y-12230835D01*
X12128848Y-12248606D01*
X12120670Y-12268352D01*
X12116500Y-12289314D01*
X10066000Y-12289314D01*
X10066000Y-12119314D01*
X11021500Y-12119314D01*
X11021500Y-12140686D01*
X11025670Y-12161648D01*
X11033849Y-12181394D01*
X11045723Y-12199165D01*
X11060835Y-12214277D01*
X11078606Y-12226151D01*
X11098352Y-12234330D01*
X11119314Y-12238500D01*
X11140686Y-12238500D01*
X11161648Y-12234330D01*
X11181394Y-12226151D01*
X11199165Y-12214277D01*
X11214277Y-12199165D01*
X11226151Y-12181394D01*
X11234330Y-12161648D01*
X11238500Y-12140686D01*
X11238500Y-12119314D01*
X11234330Y-12098352D01*
X11226151Y-12078606D01*
X11214277Y-12060835D01*
X11199165Y-12045722D01*
X11194342Y-12042500D01*
X11214686Y-12042500D01*
X11235648Y-12038330D01*
X11255394Y-12030151D01*
X11273165Y-12018277D01*
X11288277Y-12003165D01*
X11300151Y-11985394D01*
X11308330Y-11965648D01*
X11311579Y-11949314D01*
X11351500Y-11949314D01*
X11351500Y-11970686D01*
X11355670Y-11991648D01*
X11363848Y-12011394D01*
X11375722Y-12029165D01*
X11390835Y-12044277D01*
X11408606Y-12056151D01*
X11428352Y-12064330D01*
X11449314Y-12068500D01*
X11470686Y-12068500D01*
X11491648Y-12064330D01*
X11511394Y-12056151D01*
X11529165Y-12044277D01*
X11544277Y-12029165D01*
X11556151Y-12011394D01*
X11564330Y-11991648D01*
X11568500Y-11970686D01*
X11568500Y-11949314D01*
X11564330Y-11928352D01*
X11556151Y-11908606D01*
X11544277Y-11890835D01*
X11529165Y-11875722D01*
X11511394Y-11863848D01*
X11491648Y-11855670D01*
X11470686Y-11851500D01*
X11449314Y-11851500D01*
X11428352Y-11855670D01*
X11408606Y-11863848D01*
X11390835Y-11875722D01*
X11375722Y-11890835D01*
X11363848Y-11908606D01*
X11355670Y-11928352D01*
X11351500Y-11949314D01*
X11311579Y-11949314D01*
X11312500Y-11944686D01*
X11312500Y-11923314D01*
X11308330Y-11902352D01*
X11300151Y-11882606D01*
X11288277Y-11864835D01*
X11273165Y-11849722D01*
X11255394Y-11837848D01*
X11235648Y-11829670D01*
X11214686Y-11825500D01*
X11193314Y-11825500D01*
X11172352Y-11829670D01*
X11152606Y-11837848D01*
X11134835Y-11849722D01*
X11119723Y-11864835D01*
X11107849Y-11882606D01*
X11099670Y-11902352D01*
X11095500Y-11923314D01*
X11095500Y-11944686D01*
X11099670Y-11965648D01*
X11107849Y-11985394D01*
X11119723Y-12003165D01*
X11134835Y-12018277D01*
X11139658Y-12021500D01*
X11119314Y-12021500D01*
X11098352Y-12025670D01*
X11078606Y-12033848D01*
X11060835Y-12045722D01*
X11045723Y-12060835D01*
X11033849Y-12078606D01*
X11025670Y-12098352D01*
X11021500Y-12119314D01*
X10066000Y-12119314D01*
X10066000Y-11908314D01*
X10587500Y-11908314D01*
X10587500Y-11929686D01*
X10591670Y-11950648D01*
X10599849Y-11970394D01*
X10611723Y-11988165D01*
X10626835Y-12003277D01*
X10644606Y-12015151D01*
X10664352Y-12023330D01*
X10685314Y-12027500D01*
X10706686Y-12027500D01*
X10727648Y-12023330D01*
X10747394Y-12015151D01*
X10765165Y-12003277D01*
X10780278Y-11988165D01*
X10792152Y-11970394D01*
X10800330Y-11950648D01*
X10804500Y-11929686D01*
X10804500Y-11908314D01*
X10802710Y-11899314D01*
X10841500Y-11899314D01*
X10841500Y-11920686D01*
X10845670Y-11941648D01*
X10853849Y-11961394D01*
X10865723Y-11979165D01*
X10880835Y-11994277D01*
X10898606Y-12006151D01*
X10918352Y-12014330D01*
X10939314Y-12018500D01*
X10960686Y-12018500D01*
X10981648Y-12014330D01*
X11001394Y-12006151D01*
X11019165Y-11994277D01*
X11034278Y-11979165D01*
X11046152Y-11961394D01*
X11054330Y-11941648D01*
X11058500Y-11920686D01*
X11058500Y-11899314D01*
X11054330Y-11878352D01*
X11046152Y-11858606D01*
X11034278Y-11840835D01*
X11019165Y-11825722D01*
X11001394Y-11813848D01*
X10981648Y-11805670D01*
X10960686Y-11801500D01*
X10939314Y-11801500D01*
X10918352Y-11805670D01*
X10898606Y-11813848D01*
X10880835Y-11825722D01*
X10865723Y-11840835D01*
X10853849Y-11858606D01*
X10845670Y-11878352D01*
X10841500Y-11899314D01*
X10802710Y-11899314D01*
X10800330Y-11887352D01*
X10792152Y-11867606D01*
X10780278Y-11849835D01*
X10765165Y-11834722D01*
X10747394Y-11822848D01*
X10727648Y-11814670D01*
X10706686Y-11810500D01*
X10685314Y-11810500D01*
X10664352Y-11814670D01*
X10644606Y-11822848D01*
X10626835Y-11834722D01*
X10611723Y-11849835D01*
X10599849Y-11867606D01*
X10591670Y-11887352D01*
X10587500Y-11908314D01*
X10066000Y-11908314D01*
X10066000Y-11629314D01*
X10086500Y-11629314D01*
X10086500Y-11650686D01*
X10090670Y-11671648D01*
X10098849Y-11691394D01*
X10110723Y-11709165D01*
X10125835Y-11724277D01*
X10143606Y-11736151D01*
X10163352Y-11744330D01*
X10184314Y-11748500D01*
X10205686Y-11748500D01*
X10226648Y-11744330D01*
X10246394Y-11736151D01*
X10264165Y-11724277D01*
X10279278Y-11709165D01*
X10291152Y-11691394D01*
X10299330Y-11671648D01*
X10303500Y-11650686D01*
X10303500Y-11629314D01*
X10300614Y-11614806D01*
X12571500Y-11614806D01*
X12571500Y-11635194D01*
X12575477Y-11655190D01*
X12583279Y-11674026D01*
X12594606Y-11690977D01*
X12609023Y-11705394D01*
X12625974Y-11716720D01*
X12644810Y-11724523D01*
X12664806Y-11728500D01*
X12685194Y-11728500D01*
X12705190Y-11724523D01*
X12724026Y-11716720D01*
X12740977Y-11705394D01*
X12755394Y-11690977D01*
X12766720Y-11674026D01*
X12774523Y-11655190D01*
X12778500Y-11635194D01*
X12778500Y-11614806D01*
X12821500Y-11614806D01*
X12821500Y-11635194D01*
X12825477Y-11655190D01*
X12833279Y-11674026D01*
X12844606Y-11690977D01*
X12859023Y-11705394D01*
X12875974Y-11716720D01*
X12894810Y-11724523D01*
X12914806Y-11728500D01*
X12935194Y-11728500D01*
X12955190Y-11724523D01*
X12974026Y-11716720D01*
X12990977Y-11705394D01*
X13005394Y-11690977D01*
X13016720Y-11674026D01*
X13024523Y-11655190D01*
X13025000Y-11652790D01*
X13025477Y-11655190D01*
X13033279Y-11674026D01*
X13044606Y-11690977D01*
X13059023Y-11705394D01*
X13075974Y-11716720D01*
X13094810Y-11724523D01*
X13114806Y-11728500D01*
X13135194Y-11728500D01*
X13155190Y-11724523D01*
X13174026Y-11716720D01*
X13190977Y-11705394D01*
X13205394Y-11690977D01*
X13216720Y-11674026D01*
X13224523Y-11655190D01*
X13228500Y-11635194D01*
X13228500Y-11614806D01*
X13224523Y-11594810D01*
X13216720Y-11575974D01*
X13205394Y-11559023D01*
X13190977Y-11544606D01*
X13174026Y-11533279D01*
X13155190Y-11525477D01*
X13135194Y-11521500D01*
X13114806Y-11521500D01*
X13094810Y-11525477D01*
X13075974Y-11533279D01*
X13059023Y-11544606D01*
X13044606Y-11559023D01*
X13033279Y-11575974D01*
X13025477Y-11594810D01*
X13025000Y-11597210D01*
X13024523Y-11594810D01*
X13016720Y-11575974D01*
X13005394Y-11559023D01*
X12990977Y-11544606D01*
X12974026Y-11533279D01*
X12955190Y-11525477D01*
X12935194Y-11521500D01*
X12914806Y-11521500D01*
X12894810Y-11525477D01*
X12875974Y-11533279D01*
X12859023Y-11544606D01*
X12844606Y-11559023D01*
X12833279Y-11575974D01*
X12825477Y-11594810D01*
X12821500Y-11614806D01*
X12778500Y-11614806D01*
X12774523Y-11594810D01*
X12766720Y-11575974D01*
X12755394Y-11559023D01*
X12740977Y-11544606D01*
X12724026Y-11533279D01*
X12705190Y-11525477D01*
X12685194Y-11521500D01*
X12664806Y-11521500D01*
X12644810Y-11525477D01*
X12625974Y-11533279D01*
X12609023Y-11544606D01*
X12594606Y-11559023D01*
X12583279Y-11575974D01*
X12575477Y-11594810D01*
X12571500Y-11614806D01*
X10300614Y-11614806D01*
X10299330Y-11608352D01*
X10291152Y-11588606D01*
X10279278Y-11570835D01*
X10264165Y-11555722D01*
X10246394Y-11543848D01*
X10226648Y-11535670D01*
X10205686Y-11531500D01*
X10184314Y-11531500D01*
X10163352Y-11535670D01*
X10143606Y-11543848D01*
X10125835Y-11555722D01*
X10110723Y-11570835D01*
X10098849Y-11588606D01*
X10090670Y-11608352D01*
X10086500Y-11629314D01*
X10066000Y-11629314D01*
X10066000Y-11289806D01*
X10596500Y-11289806D01*
X10596500Y-11310194D01*
X10600477Y-11330190D01*
X10608280Y-11349026D01*
X10619606Y-11365977D01*
X10634023Y-11380394D01*
X10650974Y-11391720D01*
X10669810Y-11399523D01*
X10689806Y-11403500D01*
X10710194Y-11403500D01*
X10730190Y-11399523D01*
X10749026Y-11391720D01*
X10765977Y-11380394D01*
X10780394Y-11365977D01*
X10791721Y-11349026D01*
X10799523Y-11330190D01*
X10803500Y-11310194D01*
X10803500Y-11289806D01*
X10846500Y-11289806D01*
X10846500Y-11310194D01*
X10850477Y-11330190D01*
X10858280Y-11349026D01*
X10869606Y-11365977D01*
X10884023Y-11380394D01*
X10900974Y-11391720D01*
X10919810Y-11399523D01*
X10939806Y-11403500D01*
X10960194Y-11403500D01*
X10980190Y-11399523D01*
X10999026Y-11391720D01*
X11015977Y-11380394D01*
X11030394Y-11365977D01*
X11041721Y-11349026D01*
X11049523Y-11330190D01*
X11053500Y-11310194D01*
X11053500Y-11289806D01*
X11096500Y-11289806D01*
X11096500Y-11310194D01*
X11100477Y-11330190D01*
X11108280Y-11349026D01*
X11119606Y-11365977D01*
X11134023Y-11380394D01*
X11150974Y-11391720D01*
X11169810Y-11399523D01*
X11189806Y-11403500D01*
X11210194Y-11403500D01*
X11230190Y-11399523D01*
X11249026Y-11391720D01*
X11265977Y-11380394D01*
X11280394Y-11365977D01*
X11291720Y-11349026D01*
X11299523Y-11330190D01*
X11303500Y-11310194D01*
X11303500Y-11289806D01*
X11301639Y-11280449D01*
X12401500Y-11280449D01*
X12401500Y-11319550D01*
X12409128Y-11357900D01*
X12424091Y-11394025D01*
X12445815Y-11426536D01*
X12473464Y-11454185D01*
X12505975Y-11475908D01*
X12542100Y-11490872D01*
X12580449Y-11498500D01*
X12619550Y-11498500D01*
X12657900Y-11490872D01*
X12694025Y-11475908D01*
X12726536Y-11454185D01*
X12754185Y-11426536D01*
X12775908Y-11394025D01*
X12790872Y-11357900D01*
X12798500Y-11319550D01*
X12798500Y-11280449D01*
X12790872Y-11242100D01*
X12775908Y-11205975D01*
X12754185Y-11173464D01*
X12726536Y-11145815D01*
X12694025Y-11124092D01*
X12657900Y-11109128D01*
X12619550Y-11101500D01*
X12580449Y-11101500D01*
X12542100Y-11109128D01*
X12505975Y-11124092D01*
X12473464Y-11145815D01*
X12445815Y-11173464D01*
X12424091Y-11205975D01*
X12409128Y-11242100D01*
X12401500Y-11280449D01*
X11301639Y-11280449D01*
X11299523Y-11269810D01*
X11291720Y-11250974D01*
X11280394Y-11234023D01*
X11265977Y-11219606D01*
X11249026Y-11208279D01*
X11230190Y-11200477D01*
X11210194Y-11196500D01*
X11189806Y-11196500D01*
X11169810Y-11200477D01*
X11150974Y-11208279D01*
X11134023Y-11219606D01*
X11119606Y-11234023D01*
X11108280Y-11250974D01*
X11100477Y-11269810D01*
X11096500Y-11289806D01*
X11053500Y-11289806D01*
X11049523Y-11269810D01*
X11041721Y-11250974D01*
X11030394Y-11234023D01*
X11015977Y-11219606D01*
X10999026Y-11208279D01*
X10980190Y-11200477D01*
X10960194Y-11196500D01*
X10939806Y-11196500D01*
X10919810Y-11200477D01*
X10900974Y-11208279D01*
X10884023Y-11219606D01*
X10869606Y-11234023D01*
X10858280Y-11250974D01*
X10850477Y-11269810D01*
X10846500Y-11289806D01*
X10803500Y-11289806D01*
X10799523Y-11269810D01*
X10791721Y-11250974D01*
X10780394Y-11234023D01*
X10765977Y-11219606D01*
X10749026Y-11208279D01*
X10730190Y-11200477D01*
X10710194Y-11196500D01*
X10689806Y-11196500D01*
X10669810Y-11200477D01*
X10650974Y-11208279D01*
X10634023Y-11219606D01*
X10619606Y-11234023D01*
X10608280Y-11250974D01*
X10600477Y-11269810D01*
X10596500Y-11289806D01*
X10066000Y-11289806D01*
X10066000Y-10289806D01*
X10596500Y-10289806D01*
X10596500Y-10310194D01*
X10600477Y-10330190D01*
X10608280Y-10349026D01*
X10619606Y-10365977D01*
X10634023Y-10380394D01*
X10650974Y-10391721D01*
X10669810Y-10399523D01*
X10689806Y-10403500D01*
X10710194Y-10403500D01*
X10730190Y-10399523D01*
X10749026Y-10391721D01*
X10765977Y-10380394D01*
X10780394Y-10365977D01*
X10791721Y-10349026D01*
X10799523Y-10330190D01*
X10803500Y-10310194D01*
X10803500Y-10293806D01*
X10842500Y-10293806D01*
X10842500Y-10314194D01*
X10846477Y-10334190D01*
X10854280Y-10353026D01*
X10865606Y-10369977D01*
X10880023Y-10384394D01*
X10896974Y-10395721D01*
X10915810Y-10403523D01*
X10935806Y-10407500D01*
X10956194Y-10407500D01*
X10976190Y-10403523D01*
X10995026Y-10395721D01*
X11011977Y-10384394D01*
X11026394Y-10369977D01*
X11037721Y-10353026D01*
X11040631Y-10346000D01*
X12426272Y-10346000D01*
X12429178Y-10375503D01*
X12437783Y-10403873D01*
X12451758Y-10430018D01*
X12470565Y-10452935D01*
X12477111Y-10458307D01*
X12466161Y-10464160D01*
X12452704Y-10475204D01*
X12441659Y-10488661D01*
X12433453Y-10504015D01*
X12428399Y-10520675D01*
X12426693Y-10538000D01*
X12426693Y-10662000D01*
X12428399Y-10679326D01*
X12433453Y-10695985D01*
X12441659Y-10711339D01*
X12452704Y-10724796D01*
X12466161Y-10735841D01*
X12481515Y-10744047D01*
X12498174Y-10749101D01*
X12515500Y-10750807D01*
X12684500Y-10750807D01*
X12701825Y-10749101D01*
X12718485Y-10744047D01*
X12733839Y-10735841D01*
X12747296Y-10724796D01*
X12758340Y-10711339D01*
X12766547Y-10695985D01*
X12771601Y-10679326D01*
X12773307Y-10662000D01*
X12773307Y-10538000D01*
X12771601Y-10520675D01*
X12766547Y-10504015D01*
X12758340Y-10488661D01*
X12747296Y-10475204D01*
X12733839Y-10464160D01*
X12722889Y-10458307D01*
X12729434Y-10452935D01*
X12748242Y-10430018D01*
X12762217Y-10403873D01*
X12770822Y-10375503D01*
X12773728Y-10346000D01*
X12770822Y-10316497D01*
X12762217Y-10288128D01*
X12748242Y-10261982D01*
X12729434Y-10239066D01*
X12706518Y-10220258D01*
X12680372Y-10206283D01*
X12652003Y-10197678D01*
X12629894Y-10195500D01*
X12570106Y-10195500D01*
X12547997Y-10197678D01*
X12519627Y-10206283D01*
X12493482Y-10220258D01*
X12470565Y-10239066D01*
X12451758Y-10261982D01*
X12437783Y-10288128D01*
X12429178Y-10316497D01*
X12426272Y-10346000D01*
X11040631Y-10346000D01*
X11045523Y-10334190D01*
X11049500Y-10314194D01*
X11049500Y-10293806D01*
X11045523Y-10273810D01*
X11037721Y-10254974D01*
X11026394Y-10238023D01*
X11011977Y-10223606D01*
X10995026Y-10212280D01*
X10976190Y-10204477D01*
X10956194Y-10200500D01*
X10935806Y-10200500D01*
X10915810Y-10204477D01*
X10896974Y-10212280D01*
X10880023Y-10223606D01*
X10865606Y-10238023D01*
X10854280Y-10254974D01*
X10846477Y-10273810D01*
X10842500Y-10293806D01*
X10803500Y-10293806D01*
X10803500Y-10289806D01*
X10799523Y-10269810D01*
X10791721Y-10250974D01*
X10780394Y-10234023D01*
X10765977Y-10219606D01*
X10749026Y-10208280D01*
X10730190Y-10200477D01*
X10710194Y-10196500D01*
X10689806Y-10196500D01*
X10669810Y-10200477D01*
X10650974Y-10208280D01*
X10634023Y-10219606D01*
X10619606Y-10234023D01*
X10608280Y-10250974D01*
X10600477Y-10269810D01*
X10596500Y-10289806D01*
X10066000Y-10289806D01*
X10066000Y-10066000D01*
X13334000Y-10066000D01*
X13334000Y-14434000D01*
%TA.AperFunction,Conductor*%
D15*
G36*
X13334000Y-14434000D02*
G01*
X10066000Y-14434000D01*
X10066000Y-14080449D01*
X10201500Y-14080449D01*
X10201500Y-14119550D01*
X10209128Y-14157900D01*
X10224092Y-14194025D01*
X10245815Y-14226536D01*
X10273464Y-14254185D01*
X10305975Y-14275908D01*
X10342100Y-14290872D01*
X10380450Y-14298500D01*
X10419551Y-14298500D01*
X10457900Y-14290872D01*
X10494025Y-14275908D01*
X10526536Y-14254185D01*
X10554185Y-14226536D01*
X10575909Y-14194025D01*
X10588011Y-14164806D01*
X11696500Y-14164806D01*
X11696500Y-14185194D01*
X11700477Y-14205190D01*
X11708279Y-14224026D01*
X11719606Y-14240977D01*
X11734023Y-14255394D01*
X11750974Y-14266720D01*
X11769810Y-14274523D01*
X11789806Y-14278500D01*
X11810194Y-14278500D01*
X11830190Y-14274523D01*
X11849026Y-14266720D01*
X11865977Y-14255394D01*
X11880394Y-14240977D01*
X11891720Y-14224026D01*
X11899523Y-14205190D01*
X11903500Y-14185194D01*
X11903500Y-14164806D01*
X11899523Y-14144810D01*
X11891720Y-14125974D01*
X11880394Y-14109023D01*
X11865977Y-14094606D01*
X11849026Y-14083279D01*
X11842193Y-14080449D01*
X12801500Y-14080449D01*
X12801500Y-14119550D01*
X12809128Y-14157900D01*
X12824091Y-14194025D01*
X12845815Y-14226536D01*
X12873464Y-14254185D01*
X12905975Y-14275908D01*
X12942100Y-14290872D01*
X12980449Y-14298500D01*
X13019550Y-14298500D01*
X13057900Y-14290872D01*
X13094025Y-14275908D01*
X13126536Y-14254185D01*
X13154185Y-14226536D01*
X13175908Y-14194025D01*
X13190872Y-14157900D01*
X13198500Y-14119550D01*
X13198500Y-14080449D01*
X13190872Y-14042100D01*
X13175908Y-14005975D01*
X13154185Y-13973464D01*
X13126536Y-13945815D01*
X13094025Y-13924091D01*
X13057900Y-13909128D01*
X13019550Y-13901500D01*
X12980449Y-13901500D01*
X12942100Y-13909128D01*
X12905975Y-13924091D01*
X12873464Y-13945815D01*
X12845815Y-13973464D01*
X12824091Y-14005975D01*
X12809128Y-14042100D01*
X12801500Y-14080449D01*
X11842193Y-14080449D01*
X11830190Y-14075477D01*
X11810194Y-14071500D01*
X11789806Y-14071500D01*
X11769810Y-14075477D01*
X11750974Y-14083279D01*
X11734023Y-14094606D01*
X11719606Y-14109023D01*
X11708279Y-14125974D01*
X11700477Y-14144810D01*
X11696500Y-14164806D01*
X10588011Y-14164806D01*
X10590872Y-14157900D01*
X10598500Y-14119550D01*
X10598500Y-14080449D01*
X10590872Y-14042100D01*
X10575909Y-14005975D01*
X10554185Y-13973464D01*
X10526536Y-13945815D01*
X10494025Y-13924091D01*
X10457900Y-13909128D01*
X10419551Y-13901500D01*
X10380450Y-13901500D01*
X10342100Y-13909128D01*
X10305975Y-13924091D01*
X10273464Y-13945815D01*
X10245815Y-13973464D01*
X10224092Y-14005975D01*
X10209128Y-14042100D01*
X10201500Y-14080449D01*
X10066000Y-14080449D01*
X10066000Y-13789314D01*
X10091500Y-13789314D01*
X10091500Y-13810686D01*
X10095670Y-13831648D01*
X10103849Y-13851394D01*
X10115723Y-13869165D01*
X10130835Y-13884277D01*
X10148606Y-13896151D01*
X10168352Y-13904330D01*
X10189314Y-13908500D01*
X10210686Y-13908500D01*
X10231648Y-13904330D01*
X10251394Y-13896151D01*
X10269165Y-13884277D01*
X10284278Y-13869165D01*
X10287190Y-13864806D01*
X11996500Y-13864806D01*
X11996500Y-13885194D01*
X12000477Y-13905190D01*
X12008279Y-13924026D01*
X12019606Y-13940977D01*
X12034023Y-13955394D01*
X12050974Y-13966720D01*
X12069810Y-13974523D01*
X12089806Y-13978500D01*
X12110194Y-13978500D01*
X12130190Y-13974523D01*
X12146500Y-13967767D01*
X12146500Y-13985194D01*
X12150477Y-14005190D01*
X12158279Y-14024026D01*
X12169606Y-14040977D01*
X12184023Y-14055394D01*
X12200974Y-14066720D01*
X12219810Y-14074523D01*
X12239806Y-14078500D01*
X12260194Y-14078500D01*
X12280190Y-14074523D01*
X12299026Y-14066720D01*
X12315977Y-14055394D01*
X12330394Y-14040977D01*
X12341720Y-14024026D01*
X12349523Y-14005190D01*
X12353500Y-13985194D01*
X12353500Y-13964806D01*
X12353096Y-13962777D01*
X12354157Y-13962338D01*
X12371109Y-13951011D01*
X12385525Y-13936595D01*
X12396852Y-13919643D01*
X12404654Y-13900807D01*
X12408632Y-13880811D01*
X12408632Y-13860424D01*
X12404654Y-13840428D01*
X12396852Y-13821592D01*
X12385525Y-13804640D01*
X12371109Y-13790224D01*
X12354157Y-13778897D01*
X12335322Y-13771095D01*
X12315326Y-13767117D01*
X12294938Y-13767117D01*
X12274942Y-13771095D01*
X12256106Y-13778897D01*
X12239154Y-13790224D01*
X12224738Y-13804640D01*
X12213411Y-13821592D01*
X12205609Y-13840428D01*
X12202130Y-13857919D01*
X12199523Y-13844810D01*
X12191720Y-13825974D01*
X12180394Y-13809023D01*
X12165977Y-13794606D01*
X12149026Y-13783279D01*
X12130190Y-13775477D01*
X12110194Y-13771500D01*
X12089806Y-13771500D01*
X12069810Y-13775477D01*
X12050974Y-13783279D01*
X12034023Y-13794606D01*
X12019606Y-13809023D01*
X12008279Y-13825974D01*
X12000477Y-13844810D01*
X11996500Y-13864806D01*
X10287190Y-13864806D01*
X10296152Y-13851394D01*
X10304330Y-13831648D01*
X10308500Y-13810686D01*
X10308500Y-13789314D01*
X10304330Y-13768352D01*
X10296152Y-13748606D01*
X10284278Y-13730835D01*
X10269165Y-13715722D01*
X10251394Y-13703848D01*
X10231648Y-13695670D01*
X10210686Y-13691500D01*
X10189314Y-13691500D01*
X10168352Y-13695670D01*
X10148606Y-13703848D01*
X10130835Y-13715722D01*
X10115723Y-13730835D01*
X10103849Y-13748606D01*
X10095670Y-13768352D01*
X10091500Y-13789314D01*
X10066000Y-13789314D01*
X10066000Y-13634806D01*
X11496500Y-13634806D01*
X11496500Y-13655194D01*
X11500477Y-13675190D01*
X11508279Y-13694026D01*
X11519606Y-13710978D01*
X11534023Y-13725394D01*
X11550974Y-13736721D01*
X11569810Y-13744523D01*
X11589806Y-13748500D01*
X11610194Y-13748500D01*
X11630190Y-13744523D01*
X11649026Y-13736721D01*
X11665977Y-13725394D01*
X11676565Y-13714806D01*
X11696500Y-13714806D01*
X11696500Y-13735194D01*
X11700477Y-13755190D01*
X11708279Y-13774026D01*
X11719606Y-13790977D01*
X11734023Y-13805394D01*
X11750974Y-13816720D01*
X11769810Y-13824523D01*
X11789806Y-13828500D01*
X11810194Y-13828500D01*
X11830190Y-13824523D01*
X11849026Y-13816720D01*
X11865977Y-13805394D01*
X11880394Y-13790977D01*
X11891720Y-13774026D01*
X11899523Y-13755190D01*
X11903500Y-13735194D01*
X11903500Y-13714806D01*
X11899523Y-13694810D01*
X11891720Y-13675974D01*
X11880713Y-13659500D01*
X12724193Y-13659500D01*
X12725419Y-13671948D01*
X12729050Y-13683918D01*
X12734946Y-13694949D01*
X12742881Y-13704618D01*
X12752551Y-13712554D01*
X12763582Y-13718450D01*
X12775552Y-13722081D01*
X12788000Y-13723307D01*
X12846425Y-13723000D01*
X12862300Y-13707125D01*
X12862300Y-13562700D01*
X12740375Y-13562700D01*
X12724500Y-13578575D01*
X12724193Y-13659500D01*
X11880713Y-13659500D01*
X11880394Y-13659023D01*
X11865977Y-13644606D01*
X11849026Y-13633279D01*
X11830190Y-13625477D01*
X11810194Y-13621500D01*
X11789806Y-13621500D01*
X11769810Y-13625477D01*
X11750974Y-13633279D01*
X11734023Y-13644606D01*
X11719606Y-13659023D01*
X11708279Y-13675974D01*
X11700477Y-13694810D01*
X11696500Y-13714806D01*
X11676565Y-13714806D01*
X11680394Y-13710978D01*
X11691720Y-13694026D01*
X11699523Y-13675190D01*
X11703500Y-13655194D01*
X11703500Y-13634806D01*
X11699523Y-13614810D01*
X11691720Y-13595975D01*
X11680394Y-13579023D01*
X11665977Y-13564606D01*
X11649026Y-13553280D01*
X11630190Y-13545478D01*
X11610194Y-13541500D01*
X11589806Y-13541500D01*
X11569810Y-13545478D01*
X11550974Y-13553280D01*
X11534023Y-13564606D01*
X11519606Y-13579023D01*
X11508279Y-13595975D01*
X11500477Y-13614810D01*
X11496500Y-13634806D01*
X10066000Y-13634806D01*
X10066000Y-13414806D01*
X11996500Y-13414806D01*
X11996500Y-13435194D01*
X12000477Y-13455190D01*
X12008279Y-13474026D01*
X12019606Y-13490977D01*
X12034023Y-13505394D01*
X12050974Y-13516720D01*
X12069810Y-13524523D01*
X12089806Y-13528500D01*
X12110194Y-13528500D01*
X12130190Y-13524523D01*
X12149026Y-13516720D01*
X12165977Y-13505394D01*
X12180394Y-13490977D01*
X12191720Y-13474026D01*
X12199523Y-13455190D01*
X12203500Y-13435194D01*
X12203500Y-13414806D01*
X12199523Y-13394810D01*
X12191720Y-13375974D01*
X12180394Y-13359023D01*
X12165977Y-13344606D01*
X12149026Y-13333279D01*
X12130190Y-13325477D01*
X12110194Y-13321500D01*
X12089806Y-13321500D01*
X12069810Y-13325477D01*
X12050974Y-13333279D01*
X12034023Y-13344606D01*
X12019606Y-13359023D01*
X12008279Y-13375974D01*
X12000477Y-13394810D01*
X11996500Y-13414806D01*
X10066000Y-13414806D01*
X10066000Y-13264806D01*
X12246500Y-13264806D01*
X12246500Y-13285194D01*
X12250477Y-13305190D01*
X12258279Y-13324026D01*
X12269606Y-13340977D01*
X12284023Y-13355394D01*
X12300974Y-13366720D01*
X12319810Y-13374523D01*
X12339806Y-13378500D01*
X12360194Y-13378500D01*
X12364656Y-13377612D01*
X12350974Y-13383279D01*
X12334023Y-13394606D01*
X12319606Y-13409023D01*
X12308279Y-13425974D01*
X12300477Y-13444810D01*
X12296500Y-13464806D01*
X12296500Y-13485194D01*
X12300477Y-13505190D01*
X12308279Y-13524026D01*
X12319606Y-13540977D01*
X12334023Y-13555394D01*
X12350974Y-13566720D01*
X12369810Y-13574523D01*
X12389806Y-13578500D01*
X12410194Y-13578500D01*
X12430190Y-13574523D01*
X12449026Y-13566720D01*
X12465977Y-13555394D01*
X12480394Y-13540977D01*
X12491720Y-13524026D01*
X12499523Y-13505190D01*
X12503500Y-13485194D01*
X12503500Y-13464806D01*
X12499523Y-13444810D01*
X12497737Y-13440500D01*
X12724193Y-13440500D01*
X12724500Y-13521425D01*
X12740375Y-13537300D01*
X12862300Y-13537300D01*
X12862300Y-13392875D01*
X12887700Y-13392875D01*
X12887700Y-13537300D01*
X12889700Y-13537300D01*
X12889700Y-13562700D01*
X12887700Y-13562700D01*
X12887700Y-13707125D01*
X12903575Y-13723000D01*
X12962000Y-13723307D01*
X12974448Y-13722081D01*
X12986418Y-13718450D01*
X12997449Y-13712554D01*
X13007118Y-13704618D01*
X13015054Y-13694949D01*
X13020950Y-13683918D01*
X13022261Y-13679595D01*
X13044982Y-13698242D01*
X13071128Y-13712217D01*
X13099497Y-13720822D01*
X13129000Y-13723728D01*
X13158503Y-13720822D01*
X13186872Y-13712217D01*
X13213018Y-13698242D01*
X13235934Y-13679434D01*
X13254742Y-13656518D01*
X13268717Y-13630372D01*
X13277322Y-13602003D01*
X13279500Y-13579893D01*
X13279500Y-13520106D01*
X13277322Y-13497997D01*
X13268717Y-13469627D01*
X13254742Y-13443482D01*
X13235934Y-13420565D01*
X13213018Y-13401758D01*
X13186872Y-13387783D01*
X13158503Y-13379178D01*
X13129000Y-13376272D01*
X13099497Y-13379178D01*
X13071127Y-13387783D01*
X13044982Y-13401758D01*
X13022261Y-13420405D01*
X13020950Y-13416082D01*
X13015054Y-13405051D01*
X13007118Y-13395381D01*
X12997449Y-13387446D01*
X12986418Y-13381550D01*
X12974448Y-13377919D01*
X12962000Y-13376693D01*
X12903575Y-13377000D01*
X12887700Y-13392875D01*
X12862300Y-13392875D01*
X12846425Y-13377000D01*
X12788000Y-13376693D01*
X12775552Y-13377919D01*
X12763582Y-13381550D01*
X12752551Y-13387446D01*
X12742881Y-13395381D01*
X12734946Y-13405051D01*
X12729050Y-13416082D01*
X12725419Y-13428052D01*
X12724193Y-13440500D01*
X12497737Y-13440500D01*
X12491720Y-13425974D01*
X12480394Y-13409023D01*
X12465977Y-13394606D01*
X12449026Y-13383279D01*
X12430190Y-13375477D01*
X12410194Y-13371500D01*
X12389806Y-13371500D01*
X12385344Y-13372387D01*
X12399026Y-13366720D01*
X12415977Y-13355394D01*
X12430394Y-13340977D01*
X12441720Y-13324026D01*
X12449523Y-13305190D01*
X12453500Y-13285194D01*
X12453500Y-13264806D01*
X12449523Y-13244810D01*
X12441720Y-13225974D01*
X12430394Y-13209023D01*
X12415977Y-13194606D01*
X12399026Y-13183279D01*
X12380190Y-13175477D01*
X12360194Y-13171500D01*
X12339806Y-13171500D01*
X12319810Y-13175477D01*
X12300974Y-13183279D01*
X12284023Y-13194606D01*
X12269606Y-13209023D01*
X12258279Y-13225974D01*
X12250477Y-13244810D01*
X12246500Y-13264806D01*
X10066000Y-13264806D01*
X10066000Y-12914314D01*
X10091500Y-12914314D01*
X10091500Y-12935686D01*
X10095670Y-12956648D01*
X10103849Y-12976394D01*
X10115723Y-12994165D01*
X10130835Y-13009277D01*
X10148606Y-13021151D01*
X10168352Y-13029330D01*
X10189314Y-13033500D01*
X10210686Y-13033500D01*
X10231648Y-13029330D01*
X10251394Y-13021151D01*
X10269165Y-13009277D01*
X10284278Y-12994165D01*
X10287519Y-12989314D01*
X11916500Y-12989314D01*
X11916500Y-13010686D01*
X11920670Y-13031648D01*
X11928848Y-13051394D01*
X11940722Y-13069165D01*
X11955835Y-13084277D01*
X11973606Y-13096151D01*
X11993352Y-13104330D01*
X12014314Y-13108500D01*
X12035686Y-13108500D01*
X12056648Y-13104330D01*
X12076394Y-13096151D01*
X12094165Y-13084277D01*
X12109277Y-13069165D01*
X12121151Y-13051394D01*
X12129330Y-13031648D01*
X12133500Y-13010686D01*
X12133500Y-12989314D01*
X12129330Y-12968352D01*
X12121151Y-12948606D01*
X12115272Y-12939806D01*
X12966500Y-12939806D01*
X12966500Y-12960194D01*
X12970477Y-12980190D01*
X12978279Y-12999026D01*
X12989606Y-13015977D01*
X13004023Y-13030394D01*
X13020974Y-13041720D01*
X13039810Y-13049523D01*
X13059806Y-13053500D01*
X13080194Y-13053500D01*
X13100190Y-13049523D01*
X13119026Y-13041720D01*
X13135977Y-13030394D01*
X13150394Y-13015977D01*
X13161720Y-12999026D01*
X13169523Y-12980190D01*
X13173500Y-12960194D01*
X13173500Y-12939806D01*
X13169523Y-12919810D01*
X13161720Y-12900974D01*
X13150394Y-12884023D01*
X13135977Y-12869606D01*
X13119026Y-12858279D01*
X13100190Y-12850477D01*
X13080194Y-12846500D01*
X13059806Y-12846500D01*
X13039810Y-12850477D01*
X13020974Y-12858279D01*
X13004023Y-12869606D01*
X12989606Y-12884023D01*
X12978279Y-12900974D01*
X12970477Y-12919810D01*
X12966500Y-12939806D01*
X12115272Y-12939806D01*
X12109277Y-12930835D01*
X12094165Y-12915722D01*
X12076394Y-12903848D01*
X12056648Y-12895670D01*
X12035686Y-12891500D01*
X12014314Y-12891500D01*
X11993352Y-12895670D01*
X11973606Y-12903848D01*
X11955835Y-12915722D01*
X11940722Y-12930835D01*
X11928848Y-12948606D01*
X11920670Y-12968352D01*
X11916500Y-12989314D01*
X10287519Y-12989314D01*
X10296152Y-12976394D01*
X10304330Y-12956648D01*
X10308500Y-12935686D01*
X10308500Y-12914314D01*
X10304330Y-12893352D01*
X10296152Y-12873606D01*
X10284278Y-12855835D01*
X10269165Y-12840722D01*
X10251394Y-12828848D01*
X10231648Y-12820670D01*
X10210686Y-12816500D01*
X10189314Y-12816500D01*
X10168352Y-12820670D01*
X10148606Y-12828848D01*
X10130835Y-12840722D01*
X10115723Y-12855835D01*
X10103849Y-12873606D01*
X10095670Y-12893352D01*
X10091500Y-12914314D01*
X10066000Y-12914314D01*
X10066000Y-12664314D01*
X10841500Y-12664314D01*
X10841500Y-12685686D01*
X10845670Y-12706648D01*
X10853849Y-12726394D01*
X10865723Y-12744165D01*
X10880835Y-12759277D01*
X10898606Y-12771151D01*
X10918352Y-12779330D01*
X10939314Y-12783500D01*
X10960686Y-12783500D01*
X10981648Y-12779330D01*
X11001394Y-12771151D01*
X11019165Y-12759277D01*
X11034278Y-12744165D01*
X11046152Y-12726394D01*
X11054330Y-12706648D01*
X11058500Y-12685686D01*
X11058500Y-12664314D01*
X11054330Y-12643352D01*
X11046152Y-12623606D01*
X11043284Y-12619314D01*
X11346500Y-12619314D01*
X11346500Y-12640686D01*
X11350670Y-12661648D01*
X11358848Y-12681394D01*
X11370722Y-12699165D01*
X11385835Y-12714277D01*
X11403606Y-12726151D01*
X11423352Y-12734330D01*
X11444314Y-12738500D01*
X11465686Y-12738500D01*
X11486648Y-12734330D01*
X11506394Y-12726151D01*
X11524165Y-12714277D01*
X11539277Y-12699165D01*
X11551151Y-12681394D01*
X11559330Y-12661648D01*
X11563500Y-12640686D01*
X11563500Y-12629806D01*
X12926500Y-12629806D01*
X12926500Y-12650194D01*
X12930477Y-12670190D01*
X12938279Y-12689026D01*
X12949606Y-12705977D01*
X12964023Y-12720394D01*
X12980974Y-12731720D01*
X12999810Y-12739523D01*
X13019806Y-12743500D01*
X13040194Y-12743500D01*
X13060190Y-12739523D01*
X13079026Y-12731720D01*
X13095977Y-12720394D01*
X13110394Y-12705977D01*
X13121720Y-12689026D01*
X13129523Y-12670190D01*
X13133500Y-12650194D01*
X13133500Y-12629806D01*
X13129523Y-12609810D01*
X13121720Y-12590974D01*
X13110394Y-12574023D01*
X13095977Y-12559606D01*
X13079026Y-12548279D01*
X13060190Y-12540477D01*
X13040194Y-12536500D01*
X13019806Y-12536500D01*
X12999810Y-12540477D01*
X12980974Y-12548279D01*
X12964023Y-12559606D01*
X12949606Y-12574023D01*
X12938279Y-12590974D01*
X12930477Y-12609810D01*
X12926500Y-12629806D01*
X11563500Y-12629806D01*
X11563500Y-12619314D01*
X11559330Y-12598352D01*
X11551151Y-12578606D01*
X11539277Y-12560835D01*
X11524165Y-12545722D01*
X11506394Y-12533848D01*
X11486648Y-12525670D01*
X11465686Y-12521500D01*
X11444314Y-12521500D01*
X11423352Y-12525670D01*
X11403606Y-12533848D01*
X11385835Y-12545722D01*
X11370722Y-12560835D01*
X11358848Y-12578606D01*
X11350670Y-12598352D01*
X11346500Y-12619314D01*
X11043284Y-12619314D01*
X11034278Y-12605835D01*
X11019165Y-12590722D01*
X11001394Y-12578848D01*
X10981648Y-12570670D01*
X10960686Y-12566500D01*
X10939314Y-12566500D01*
X10918352Y-12570670D01*
X10898606Y-12578848D01*
X10880835Y-12590722D01*
X10865723Y-12605835D01*
X10853849Y-12623606D01*
X10845670Y-12643352D01*
X10841500Y-12664314D01*
X10066000Y-12664314D01*
X10066000Y-12493314D01*
X10587500Y-12493314D01*
X10587500Y-12514686D01*
X10591670Y-12535648D01*
X10599849Y-12555394D01*
X10611723Y-12573165D01*
X10626835Y-12588277D01*
X10644606Y-12600151D01*
X10664352Y-12608330D01*
X10685314Y-12612500D01*
X10706686Y-12612500D01*
X10727648Y-12608330D01*
X10747394Y-12600151D01*
X10765165Y-12588277D01*
X10780278Y-12573165D01*
X10792152Y-12555394D01*
X10800330Y-12535648D01*
X10804500Y-12514686D01*
X10804500Y-12493314D01*
X10803704Y-12489314D01*
X11116500Y-12489314D01*
X11116500Y-12510686D01*
X11120670Y-12531648D01*
X11128849Y-12551394D01*
X11140723Y-12569165D01*
X11155835Y-12584277D01*
X11173606Y-12596151D01*
X11193352Y-12604330D01*
X11214314Y-12608500D01*
X11235686Y-12608500D01*
X11256648Y-12604330D01*
X11276394Y-12596151D01*
X11294165Y-12584277D01*
X11309277Y-12569165D01*
X11321151Y-12551394D01*
X11329330Y-12531648D01*
X11333500Y-12510686D01*
X11333500Y-12489314D01*
X11329330Y-12468352D01*
X11321151Y-12448606D01*
X11309277Y-12430835D01*
X11294165Y-12415722D01*
X11276394Y-12403848D01*
X11256648Y-12395670D01*
X11235686Y-12391500D01*
X11214314Y-12391500D01*
X11193352Y-12395670D01*
X11173606Y-12403848D01*
X11155835Y-12415722D01*
X11140723Y-12430835D01*
X11128849Y-12448606D01*
X11120670Y-12468352D01*
X11116500Y-12489314D01*
X10803704Y-12489314D01*
X10800330Y-12472352D01*
X10792152Y-12452606D01*
X10780278Y-12434835D01*
X10765165Y-12419722D01*
X10747394Y-12407848D01*
X10727648Y-12399670D01*
X10706686Y-12395500D01*
X10685314Y-12395500D01*
X10664352Y-12399670D01*
X10644606Y-12407848D01*
X10626835Y-12419722D01*
X10611723Y-12434835D01*
X10599849Y-12452606D01*
X10591670Y-12472352D01*
X10587500Y-12493314D01*
X10066000Y-12493314D01*
X10066000Y-12289314D01*
X12116500Y-12289314D01*
X12116500Y-12310686D01*
X12120670Y-12331648D01*
X12128848Y-12351394D01*
X12140722Y-12369165D01*
X12155835Y-12384277D01*
X12173606Y-12396151D01*
X12193352Y-12404330D01*
X12214314Y-12408500D01*
X12235686Y-12408500D01*
X12256648Y-12404330D01*
X12276394Y-12396151D01*
X12294165Y-12384277D01*
X12309277Y-12369165D01*
X12321151Y-12351394D01*
X12329330Y-12331648D01*
X12333500Y-12310686D01*
X12333500Y-12289314D01*
X12330614Y-12274806D01*
X12491500Y-12274806D01*
X12491500Y-12295194D01*
X12495477Y-12315190D01*
X12503279Y-12334026D01*
X12514606Y-12350977D01*
X12529023Y-12365394D01*
X12545974Y-12376720D01*
X12564810Y-12384523D01*
X12567210Y-12385000D01*
X12564810Y-12385477D01*
X12545974Y-12393279D01*
X12529023Y-12404606D01*
X12514606Y-12419023D01*
X12503279Y-12435974D01*
X12495477Y-12454810D01*
X12491500Y-12474806D01*
X12491500Y-12495194D01*
X12495477Y-12515190D01*
X12503279Y-12534026D01*
X12514606Y-12550977D01*
X12529023Y-12565394D01*
X12545974Y-12576720D01*
X12564810Y-12584523D01*
X12584806Y-12588500D01*
X12605194Y-12588500D01*
X12625190Y-12584523D01*
X12644026Y-12576720D01*
X12660977Y-12565394D01*
X12675394Y-12550977D01*
X12686720Y-12534026D01*
X12694523Y-12515190D01*
X12696292Y-12506292D01*
X12705190Y-12504523D01*
X12724026Y-12496720D01*
X12740977Y-12485394D01*
X12755394Y-12470977D01*
X12766720Y-12454026D01*
X12774523Y-12435190D01*
X12776091Y-12427306D01*
X12991759Y-12427306D01*
X12991759Y-12447693D01*
X12995737Y-12467689D01*
X13003539Y-12486525D01*
X13014866Y-12503477D01*
X13029282Y-12517893D01*
X13046234Y-12529220D01*
X13065069Y-12537022D01*
X13085065Y-12541000D01*
X13097884Y-12541000D01*
X13103279Y-12554026D01*
X13114606Y-12570977D01*
X13129023Y-12585394D01*
X13145974Y-12596720D01*
X13164810Y-12604523D01*
X13184806Y-12608500D01*
X13205194Y-12608500D01*
X13225190Y-12604523D01*
X13244026Y-12596720D01*
X13260977Y-12585394D01*
X13275394Y-12570977D01*
X13286720Y-12554026D01*
X13294523Y-12535190D01*
X13298500Y-12515194D01*
X13298500Y-12494806D01*
X13294523Y-12474810D01*
X13286720Y-12455974D01*
X13286069Y-12455000D01*
X13286720Y-12454026D01*
X13294523Y-12435190D01*
X13298500Y-12415194D01*
X13298500Y-12394806D01*
X13294523Y-12374810D01*
X13286720Y-12355974D01*
X13275394Y-12339023D01*
X13260977Y-12324606D01*
X13244026Y-12313279D01*
X13225190Y-12305477D01*
X13205194Y-12301500D01*
X13184806Y-12301500D01*
X13164810Y-12305477D01*
X13145974Y-12313279D01*
X13129023Y-12324606D01*
X13117277Y-12336352D01*
X13105453Y-12334000D01*
X13085065Y-12334000D01*
X13065069Y-12337977D01*
X13046234Y-12345779D01*
X13029282Y-12357106D01*
X13014866Y-12371522D01*
X13003539Y-12388474D01*
X12995737Y-12407310D01*
X12991759Y-12427306D01*
X12776091Y-12427306D01*
X12778500Y-12415194D01*
X12778500Y-12394806D01*
X12774523Y-12374810D01*
X12766720Y-12355974D01*
X12755394Y-12339023D01*
X12740977Y-12324606D01*
X12724026Y-12313279D01*
X12705190Y-12305477D01*
X12696787Y-12303806D01*
X12698500Y-12295194D01*
X12698500Y-12274806D01*
X12694523Y-12254810D01*
X12686720Y-12235974D01*
X12675394Y-12219023D01*
X12660977Y-12204606D01*
X12644026Y-12193279D01*
X12625190Y-12185477D01*
X12605194Y-12181500D01*
X12584806Y-12181500D01*
X12564810Y-12185477D01*
X12545974Y-12193279D01*
X12529023Y-12204606D01*
X12514606Y-12219023D01*
X12503279Y-12235974D01*
X12495477Y-12254810D01*
X12491500Y-12274806D01*
X12330614Y-12274806D01*
X12329330Y-12268352D01*
X12321151Y-12248606D01*
X12309277Y-12230835D01*
X12294165Y-12215722D01*
X12276394Y-12203848D01*
X12256648Y-12195670D01*
X12235686Y-12191500D01*
X12214314Y-12191500D01*
X12193352Y-12195670D01*
X12173606Y-12203848D01*
X12155835Y-12215722D01*
X12140722Y-12230835D01*
X12128848Y-12248606D01*
X12120670Y-12268352D01*
X12116500Y-12289314D01*
X10066000Y-12289314D01*
X10066000Y-12119314D01*
X11021500Y-12119314D01*
X11021500Y-12140686D01*
X11025670Y-12161648D01*
X11033849Y-12181394D01*
X11045723Y-12199165D01*
X11060835Y-12214277D01*
X11078606Y-12226151D01*
X11098352Y-12234330D01*
X11119314Y-12238500D01*
X11140686Y-12238500D01*
X11161648Y-12234330D01*
X11181394Y-12226151D01*
X11199165Y-12214277D01*
X11214277Y-12199165D01*
X11226151Y-12181394D01*
X11234330Y-12161648D01*
X11238500Y-12140686D01*
X11238500Y-12119314D01*
X11234330Y-12098352D01*
X11226151Y-12078606D01*
X11214277Y-12060835D01*
X11199165Y-12045722D01*
X11194342Y-12042500D01*
X11214686Y-12042500D01*
X11235648Y-12038330D01*
X11255394Y-12030151D01*
X11273165Y-12018277D01*
X11288277Y-12003165D01*
X11300151Y-11985394D01*
X11308330Y-11965648D01*
X11311579Y-11949314D01*
X11351500Y-11949314D01*
X11351500Y-11970686D01*
X11355670Y-11991648D01*
X11363848Y-12011394D01*
X11375722Y-12029165D01*
X11390835Y-12044277D01*
X11408606Y-12056151D01*
X11428352Y-12064330D01*
X11449314Y-12068500D01*
X11470686Y-12068500D01*
X11491648Y-12064330D01*
X11511394Y-12056151D01*
X11529165Y-12044277D01*
X11544277Y-12029165D01*
X11556151Y-12011394D01*
X11564330Y-11991648D01*
X11568500Y-11970686D01*
X11568500Y-11949314D01*
X11564330Y-11928352D01*
X11556151Y-11908606D01*
X11544277Y-11890835D01*
X11529165Y-11875722D01*
X11511394Y-11863848D01*
X11491648Y-11855670D01*
X11470686Y-11851500D01*
X11449314Y-11851500D01*
X11428352Y-11855670D01*
X11408606Y-11863848D01*
X11390835Y-11875722D01*
X11375722Y-11890835D01*
X11363848Y-11908606D01*
X11355670Y-11928352D01*
X11351500Y-11949314D01*
X11311579Y-11949314D01*
X11312500Y-11944686D01*
X11312500Y-11923314D01*
X11308330Y-11902352D01*
X11300151Y-11882606D01*
X11288277Y-11864835D01*
X11273165Y-11849722D01*
X11255394Y-11837848D01*
X11235648Y-11829670D01*
X11214686Y-11825500D01*
X11193314Y-11825500D01*
X11172352Y-11829670D01*
X11152606Y-11837848D01*
X11134835Y-11849722D01*
X11119723Y-11864835D01*
X11107849Y-11882606D01*
X11099670Y-11902352D01*
X11095500Y-11923314D01*
X11095500Y-11944686D01*
X11099670Y-11965648D01*
X11107849Y-11985394D01*
X11119723Y-12003165D01*
X11134835Y-12018277D01*
X11139658Y-12021500D01*
X11119314Y-12021500D01*
X11098352Y-12025670D01*
X11078606Y-12033848D01*
X11060835Y-12045722D01*
X11045723Y-12060835D01*
X11033849Y-12078606D01*
X11025670Y-12098352D01*
X11021500Y-12119314D01*
X10066000Y-12119314D01*
X10066000Y-11908314D01*
X10587500Y-11908314D01*
X10587500Y-11929686D01*
X10591670Y-11950648D01*
X10599849Y-11970394D01*
X10611723Y-11988165D01*
X10626835Y-12003277D01*
X10644606Y-12015151D01*
X10664352Y-12023330D01*
X10685314Y-12027500D01*
X10706686Y-12027500D01*
X10727648Y-12023330D01*
X10747394Y-12015151D01*
X10765165Y-12003277D01*
X10780278Y-11988165D01*
X10792152Y-11970394D01*
X10800330Y-11950648D01*
X10804500Y-11929686D01*
X10804500Y-11908314D01*
X10802710Y-11899314D01*
X10841500Y-11899314D01*
X10841500Y-11920686D01*
X10845670Y-11941648D01*
X10853849Y-11961394D01*
X10865723Y-11979165D01*
X10880835Y-11994277D01*
X10898606Y-12006151D01*
X10918352Y-12014330D01*
X10939314Y-12018500D01*
X10960686Y-12018500D01*
X10981648Y-12014330D01*
X11001394Y-12006151D01*
X11019165Y-11994277D01*
X11034278Y-11979165D01*
X11046152Y-11961394D01*
X11054330Y-11941648D01*
X11058500Y-11920686D01*
X11058500Y-11899314D01*
X11054330Y-11878352D01*
X11046152Y-11858606D01*
X11034278Y-11840835D01*
X11019165Y-11825722D01*
X11001394Y-11813848D01*
X10981648Y-11805670D01*
X10960686Y-11801500D01*
X10939314Y-11801500D01*
X10918352Y-11805670D01*
X10898606Y-11813848D01*
X10880835Y-11825722D01*
X10865723Y-11840835D01*
X10853849Y-11858606D01*
X10845670Y-11878352D01*
X10841500Y-11899314D01*
X10802710Y-11899314D01*
X10800330Y-11887352D01*
X10792152Y-11867606D01*
X10780278Y-11849835D01*
X10765165Y-11834722D01*
X10747394Y-11822848D01*
X10727648Y-11814670D01*
X10706686Y-11810500D01*
X10685314Y-11810500D01*
X10664352Y-11814670D01*
X10644606Y-11822848D01*
X10626835Y-11834722D01*
X10611723Y-11849835D01*
X10599849Y-11867606D01*
X10591670Y-11887352D01*
X10587500Y-11908314D01*
X10066000Y-11908314D01*
X10066000Y-11629314D01*
X10086500Y-11629314D01*
X10086500Y-11650686D01*
X10090670Y-11671648D01*
X10098849Y-11691394D01*
X10110723Y-11709165D01*
X10125835Y-11724277D01*
X10143606Y-11736151D01*
X10163352Y-11744330D01*
X10184314Y-11748500D01*
X10205686Y-11748500D01*
X10226648Y-11744330D01*
X10246394Y-11736151D01*
X10264165Y-11724277D01*
X10279278Y-11709165D01*
X10291152Y-11691394D01*
X10299330Y-11671648D01*
X10303500Y-11650686D01*
X10303500Y-11629314D01*
X10300614Y-11614806D01*
X12571500Y-11614806D01*
X12571500Y-11635194D01*
X12575477Y-11655190D01*
X12583279Y-11674026D01*
X12594606Y-11690977D01*
X12609023Y-11705394D01*
X12625974Y-11716720D01*
X12644810Y-11724523D01*
X12664806Y-11728500D01*
X12685194Y-11728500D01*
X12705190Y-11724523D01*
X12724026Y-11716720D01*
X12740977Y-11705394D01*
X12755394Y-11690977D01*
X12766720Y-11674026D01*
X12774523Y-11655190D01*
X12778500Y-11635194D01*
X12778500Y-11614806D01*
X12821500Y-11614806D01*
X12821500Y-11635194D01*
X12825477Y-11655190D01*
X12833279Y-11674026D01*
X12844606Y-11690977D01*
X12859023Y-11705394D01*
X12875974Y-11716720D01*
X12894810Y-11724523D01*
X12914806Y-11728500D01*
X12935194Y-11728500D01*
X12955190Y-11724523D01*
X12974026Y-11716720D01*
X12990977Y-11705394D01*
X13005394Y-11690977D01*
X13016720Y-11674026D01*
X13024523Y-11655190D01*
X13025000Y-11652790D01*
X13025477Y-11655190D01*
X13033279Y-11674026D01*
X13044606Y-11690977D01*
X13059023Y-11705394D01*
X13075974Y-11716720D01*
X13094810Y-11724523D01*
X13114806Y-11728500D01*
X13135194Y-11728500D01*
X13155190Y-11724523D01*
X13174026Y-11716720D01*
X13190977Y-11705394D01*
X13205394Y-11690977D01*
X13216720Y-11674026D01*
X13224523Y-11655190D01*
X13228500Y-11635194D01*
X13228500Y-11614806D01*
X13224523Y-11594810D01*
X13216720Y-11575974D01*
X13205394Y-11559023D01*
X13190977Y-11544606D01*
X13174026Y-11533279D01*
X13155190Y-11525477D01*
X13135194Y-11521500D01*
X13114806Y-11521500D01*
X13094810Y-11525477D01*
X13075974Y-11533279D01*
X13059023Y-11544606D01*
X13044606Y-11559023D01*
X13033279Y-11575974D01*
X13025477Y-11594810D01*
X13025000Y-11597210D01*
X13024523Y-11594810D01*
X13016720Y-11575974D01*
X13005394Y-11559023D01*
X12990977Y-11544606D01*
X12974026Y-11533279D01*
X12955190Y-11525477D01*
X12935194Y-11521500D01*
X12914806Y-11521500D01*
X12894810Y-11525477D01*
X12875974Y-11533279D01*
X12859023Y-11544606D01*
X12844606Y-11559023D01*
X12833279Y-11575974D01*
X12825477Y-11594810D01*
X12821500Y-11614806D01*
X12778500Y-11614806D01*
X12774523Y-11594810D01*
X12766720Y-11575974D01*
X12755394Y-11559023D01*
X12740977Y-11544606D01*
X12724026Y-11533279D01*
X12705190Y-11525477D01*
X12685194Y-11521500D01*
X12664806Y-11521500D01*
X12644810Y-11525477D01*
X12625974Y-11533279D01*
X12609023Y-11544606D01*
X12594606Y-11559023D01*
X12583279Y-11575974D01*
X12575477Y-11594810D01*
X12571500Y-11614806D01*
X10300614Y-11614806D01*
X10299330Y-11608352D01*
X10291152Y-11588606D01*
X10279278Y-11570835D01*
X10264165Y-11555722D01*
X10246394Y-11543848D01*
X10226648Y-11535670D01*
X10205686Y-11531500D01*
X10184314Y-11531500D01*
X10163352Y-11535670D01*
X10143606Y-11543848D01*
X10125835Y-11555722D01*
X10110723Y-11570835D01*
X10098849Y-11588606D01*
X10090670Y-11608352D01*
X10086500Y-11629314D01*
X10066000Y-11629314D01*
X10066000Y-11289806D01*
X10596500Y-11289806D01*
X10596500Y-11310194D01*
X10600477Y-11330190D01*
X10608280Y-11349026D01*
X10619606Y-11365977D01*
X10634023Y-11380394D01*
X10650974Y-11391720D01*
X10669810Y-11399523D01*
X10689806Y-11403500D01*
X10710194Y-11403500D01*
X10730190Y-11399523D01*
X10749026Y-11391720D01*
X10765977Y-11380394D01*
X10780394Y-11365977D01*
X10791721Y-11349026D01*
X10799523Y-11330190D01*
X10803500Y-11310194D01*
X10803500Y-11289806D01*
X10846500Y-11289806D01*
X10846500Y-11310194D01*
X10850477Y-11330190D01*
X10858280Y-11349026D01*
X10869606Y-11365977D01*
X10884023Y-11380394D01*
X10900974Y-11391720D01*
X10919810Y-11399523D01*
X10939806Y-11403500D01*
X10960194Y-11403500D01*
X10980190Y-11399523D01*
X10999026Y-11391720D01*
X11015977Y-11380394D01*
X11030394Y-11365977D01*
X11041721Y-11349026D01*
X11049523Y-11330190D01*
X11053500Y-11310194D01*
X11053500Y-11289806D01*
X11096500Y-11289806D01*
X11096500Y-11310194D01*
X11100477Y-11330190D01*
X11108280Y-11349026D01*
X11119606Y-11365977D01*
X11134023Y-11380394D01*
X11150974Y-11391720D01*
X11169810Y-11399523D01*
X11189806Y-11403500D01*
X11210194Y-11403500D01*
X11230190Y-11399523D01*
X11249026Y-11391720D01*
X11265977Y-11380394D01*
X11280394Y-11365977D01*
X11291720Y-11349026D01*
X11299523Y-11330190D01*
X11303500Y-11310194D01*
X11303500Y-11289806D01*
X11301639Y-11280449D01*
X12401500Y-11280449D01*
X12401500Y-11319550D01*
X12409128Y-11357900D01*
X12424091Y-11394025D01*
X12445815Y-11426536D01*
X12473464Y-11454185D01*
X12505975Y-11475908D01*
X12542100Y-11490872D01*
X12580449Y-11498500D01*
X12619550Y-11498500D01*
X12657900Y-11490872D01*
X12694025Y-11475908D01*
X12726536Y-11454185D01*
X12754185Y-11426536D01*
X12775908Y-11394025D01*
X12790872Y-11357900D01*
X12798500Y-11319550D01*
X12798500Y-11280449D01*
X12790872Y-11242100D01*
X12775908Y-11205975D01*
X12754185Y-11173464D01*
X12726536Y-11145815D01*
X12694025Y-11124092D01*
X12657900Y-11109128D01*
X12619550Y-11101500D01*
X12580449Y-11101500D01*
X12542100Y-11109128D01*
X12505975Y-11124092D01*
X12473464Y-11145815D01*
X12445815Y-11173464D01*
X12424091Y-11205975D01*
X12409128Y-11242100D01*
X12401500Y-11280449D01*
X11301639Y-11280449D01*
X11299523Y-11269810D01*
X11291720Y-11250974D01*
X11280394Y-11234023D01*
X11265977Y-11219606D01*
X11249026Y-11208279D01*
X11230190Y-11200477D01*
X11210194Y-11196500D01*
X11189806Y-11196500D01*
X11169810Y-11200477D01*
X11150974Y-11208279D01*
X11134023Y-11219606D01*
X11119606Y-11234023D01*
X11108280Y-11250974D01*
X11100477Y-11269810D01*
X11096500Y-11289806D01*
X11053500Y-11289806D01*
X11049523Y-11269810D01*
X11041721Y-11250974D01*
X11030394Y-11234023D01*
X11015977Y-11219606D01*
X10999026Y-11208279D01*
X10980190Y-11200477D01*
X10960194Y-11196500D01*
X10939806Y-11196500D01*
X10919810Y-11200477D01*
X10900974Y-11208279D01*
X10884023Y-11219606D01*
X10869606Y-11234023D01*
X10858280Y-11250974D01*
X10850477Y-11269810D01*
X10846500Y-11289806D01*
X10803500Y-11289806D01*
X10799523Y-11269810D01*
X10791721Y-11250974D01*
X10780394Y-11234023D01*
X10765977Y-11219606D01*
X10749026Y-11208279D01*
X10730190Y-11200477D01*
X10710194Y-11196500D01*
X10689806Y-11196500D01*
X10669810Y-11200477D01*
X10650974Y-11208279D01*
X10634023Y-11219606D01*
X10619606Y-11234023D01*
X10608280Y-11250974D01*
X10600477Y-11269810D01*
X10596500Y-11289806D01*
X10066000Y-11289806D01*
X10066000Y-10289806D01*
X10596500Y-10289806D01*
X10596500Y-10310194D01*
X10600477Y-10330190D01*
X10608280Y-10349026D01*
X10619606Y-10365977D01*
X10634023Y-10380394D01*
X10650974Y-10391721D01*
X10669810Y-10399523D01*
X10689806Y-10403500D01*
X10710194Y-10403500D01*
X10730190Y-10399523D01*
X10749026Y-10391721D01*
X10765977Y-10380394D01*
X10780394Y-10365977D01*
X10791721Y-10349026D01*
X10799523Y-10330190D01*
X10803500Y-10310194D01*
X10803500Y-10293806D01*
X10842500Y-10293806D01*
X10842500Y-10314194D01*
X10846477Y-10334190D01*
X10854280Y-10353026D01*
X10865606Y-10369977D01*
X10880023Y-10384394D01*
X10896974Y-10395721D01*
X10915810Y-10403523D01*
X10935806Y-10407500D01*
X10956194Y-10407500D01*
X10976190Y-10403523D01*
X10995026Y-10395721D01*
X11011977Y-10384394D01*
X11026394Y-10369977D01*
X11037721Y-10353026D01*
X11040631Y-10346000D01*
X12426272Y-10346000D01*
X12429178Y-10375503D01*
X12437783Y-10403873D01*
X12451758Y-10430018D01*
X12470565Y-10452935D01*
X12477111Y-10458307D01*
X12466161Y-10464160D01*
X12452704Y-10475204D01*
X12441659Y-10488661D01*
X12433453Y-10504015D01*
X12428399Y-10520675D01*
X12426693Y-10538000D01*
X12426693Y-10662000D01*
X12428399Y-10679326D01*
X12433453Y-10695985D01*
X12441659Y-10711339D01*
X12452704Y-10724796D01*
X12466161Y-10735841D01*
X12481515Y-10744047D01*
X12498174Y-10749101D01*
X12515500Y-10750807D01*
X12684500Y-10750807D01*
X12701825Y-10749101D01*
X12718485Y-10744047D01*
X12733839Y-10735841D01*
X12747296Y-10724796D01*
X12758340Y-10711339D01*
X12766547Y-10695985D01*
X12771601Y-10679326D01*
X12773307Y-10662000D01*
X12773307Y-10538000D01*
X12771601Y-10520675D01*
X12766547Y-10504015D01*
X12758340Y-10488661D01*
X12747296Y-10475204D01*
X12733839Y-10464160D01*
X12722889Y-10458307D01*
X12729434Y-10452935D01*
X12748242Y-10430018D01*
X12762217Y-10403873D01*
X12770822Y-10375503D01*
X12773728Y-10346000D01*
X12770822Y-10316497D01*
X12762217Y-10288128D01*
X12748242Y-10261982D01*
X12729434Y-10239066D01*
X12706518Y-10220258D01*
X12680372Y-10206283D01*
X12652003Y-10197678D01*
X12629894Y-10195500D01*
X12570106Y-10195500D01*
X12547997Y-10197678D01*
X12519627Y-10206283D01*
X12493482Y-10220258D01*
X12470565Y-10239066D01*
X12451758Y-10261982D01*
X12437783Y-10288128D01*
X12429178Y-10316497D01*
X12426272Y-10346000D01*
X11040631Y-10346000D01*
X11045523Y-10334190D01*
X11049500Y-10314194D01*
X11049500Y-10293806D01*
X11045523Y-10273810D01*
X11037721Y-10254974D01*
X11026394Y-10238023D01*
X11011977Y-10223606D01*
X10995026Y-10212280D01*
X10976190Y-10204477D01*
X10956194Y-10200500D01*
X10935806Y-10200500D01*
X10915810Y-10204477D01*
X10896974Y-10212280D01*
X10880023Y-10223606D01*
X10865606Y-10238023D01*
X10854280Y-10254974D01*
X10846477Y-10273810D01*
X10842500Y-10293806D01*
X10803500Y-10293806D01*
X10803500Y-10289806D01*
X10799523Y-10269810D01*
X10791721Y-10250974D01*
X10780394Y-10234023D01*
X10765977Y-10219606D01*
X10749026Y-10208280D01*
X10730190Y-10200477D01*
X10710194Y-10196500D01*
X10689806Y-10196500D01*
X10669810Y-10200477D01*
X10650974Y-10208280D01*
X10634023Y-10219606D01*
X10619606Y-10234023D01*
X10608280Y-10250974D01*
X10600477Y-10269810D01*
X10596500Y-10289806D01*
X10066000Y-10289806D01*
X10066000Y-10066000D01*
X13334000Y-10066000D01*
X13334000Y-14434000D01*
G37*
%TD.AperFunction*%
%TD*%
M02*
