%TF.GenerationSoftware,KiCad,Pcbnew,5.1.10-1.fc34*%
%TF.CreationDate,2021-09-08T08:00:36+01:00*%
%TF.ProjectId,cryosub_power_converter_top_v01,6372796f-7375-4625-9f70-6f7765725f63,rev?*%
%TF.SameCoordinates,Original*%
%TF.FileFunction,Copper,L1,Top*%
%TF.FilePolarity,Positive*%
%FSLAX46Y46*%
G04 Gerber Fmt 4.6, Leading zero omitted, Abs format (unit mm)*
G04 Created by KiCad (PCBNEW 5.1.10-1.fc34) date 2021-09-08 08:00:36*
%MOMM*%
%LPD*%
G01*
G04 APERTURE LIST*
%TA.AperFunction,SMDPad,CuDef*%
%ADD10R,2.500000X1.800000*%
%TD*%
%TA.AperFunction,ComponentPad*%
%ADD11O,2.190000X1.740000*%
%TD*%
%TA.AperFunction,ComponentPad*%
%ADD12O,1.800000X3.600000*%
%TD*%
%TA.AperFunction,SMDPad,CuDef*%
%ADD13R,0.900000X0.800000*%
%TD*%
%TA.AperFunction,SMDPad,CuDef*%
%ADD14R,1.200000X2.200000*%
%TD*%
%TA.AperFunction,SMDPad,CuDef*%
%ADD15R,5.800000X6.400000*%
%TD*%
%TA.AperFunction,SMDPad,CuDef*%
%ADD16R,1.880000X1.680000*%
%TD*%
%TA.AperFunction,ViaPad*%
%ADD17C,0.800000*%
%TD*%
%TA.AperFunction,Conductor*%
%ADD18C,0.250000*%
%TD*%
%TA.AperFunction,Conductor*%
%ADD19C,0.500000*%
%TD*%
%TA.AperFunction,Conductor*%
%ADD20C,0.254000*%
%TD*%
%TA.AperFunction,Conductor*%
%ADD21C,0.100000*%
%TD*%
G04 APERTURE END LIST*
D10*
%TO.P,D3,2*%
%TO.N,GND*%
X120000000Y-133600000D03*
%TO.P,D3,1*%
%TO.N,VDC*%
X116000000Y-133600000D03*
%TD*%
%TO.P,C6,2*%
%TO.N,GND*%
%TA.AperFunction,SMDPad,CuDef*%
G36*
G01*
X126487500Y-132725000D02*
X126487500Y-131775000D01*
G75*
G02*
X126737500Y-131525000I250000J0D01*
G01*
X127412500Y-131525000D01*
G75*
G02*
X127662500Y-131775000I0J-250000D01*
G01*
X127662500Y-132725000D01*
G75*
G02*
X127412500Y-132975000I-250000J0D01*
G01*
X126737500Y-132975000D01*
G75*
G02*
X126487500Y-132725000I0J250000D01*
G01*
G37*
%TD.AperFunction*%
%TO.P,C6,1*%
%TO.N,VDC*%
%TA.AperFunction,SMDPad,CuDef*%
G36*
G01*
X124412500Y-132725000D02*
X124412500Y-131775000D01*
G75*
G02*
X124662500Y-131525000I250000J0D01*
G01*
X125337500Y-131525000D01*
G75*
G02*
X125587500Y-131775000I0J-250000D01*
G01*
X125587500Y-132725000D01*
G75*
G02*
X125337500Y-132975000I-250000J0D01*
G01*
X124662500Y-132975000D01*
G75*
G02*
X124412500Y-132725000I0J250000D01*
G01*
G37*
%TD.AperFunction*%
%TD*%
%TO.P,R10,2*%
%TO.N,GND*%
%TA.AperFunction,SMDPad,CuDef*%
G36*
G01*
X126737500Y-120662500D02*
X126262500Y-120662500D01*
G75*
G02*
X126025000Y-120425000I0J237500D01*
G01*
X126025000Y-119925000D01*
G75*
G02*
X126262500Y-119687500I237500J0D01*
G01*
X126737500Y-119687500D01*
G75*
G02*
X126975000Y-119925000I0J-237500D01*
G01*
X126975000Y-120425000D01*
G75*
G02*
X126737500Y-120662500I-237500J0D01*
G01*
G37*
%TD.AperFunction*%
%TO.P,R10,1*%
%TO.N,Net-(C4-Pad1)*%
%TA.AperFunction,SMDPad,CuDef*%
G36*
G01*
X126737500Y-122487500D02*
X126262500Y-122487500D01*
G75*
G02*
X126025000Y-122250000I0J237500D01*
G01*
X126025000Y-121750000D01*
G75*
G02*
X126262500Y-121512500I237500J0D01*
G01*
X126737500Y-121512500D01*
G75*
G02*
X126975000Y-121750000I0J-237500D01*
G01*
X126975000Y-122250000D01*
G75*
G02*
X126737500Y-122487500I-237500J0D01*
G01*
G37*
%TD.AperFunction*%
%TD*%
%TO.P,C5,2*%
%TO.N,GND*%
%TA.AperFunction,SMDPad,CuDef*%
G36*
G01*
X124725000Y-120512500D02*
X123775000Y-120512500D01*
G75*
G02*
X123525000Y-120262500I0J250000D01*
G01*
X123525000Y-119587500D01*
G75*
G02*
X123775000Y-119337500I250000J0D01*
G01*
X124725000Y-119337500D01*
G75*
G02*
X124975000Y-119587500I0J-250000D01*
G01*
X124975000Y-120262500D01*
G75*
G02*
X124725000Y-120512500I-250000J0D01*
G01*
G37*
%TD.AperFunction*%
%TO.P,C5,1*%
%TO.N,/p5v_out*%
%TA.AperFunction,SMDPad,CuDef*%
G36*
G01*
X124725000Y-122587500D02*
X123775000Y-122587500D01*
G75*
G02*
X123525000Y-122337500I0J250000D01*
G01*
X123525000Y-121662500D01*
G75*
G02*
X123775000Y-121412500I250000J0D01*
G01*
X124725000Y-121412500D01*
G75*
G02*
X124975000Y-121662500I0J-250000D01*
G01*
X124975000Y-122337500D01*
G75*
G02*
X124725000Y-122587500I-250000J0D01*
G01*
G37*
%TD.AperFunction*%
%TD*%
%TO.P,C4,2*%
%TO.N,GND*%
%TA.AperFunction,SMDPad,CuDef*%
G36*
G01*
X128487500Y-120787500D02*
X128012500Y-120787500D01*
G75*
G02*
X127775000Y-120550000I0J237500D01*
G01*
X127775000Y-119950000D01*
G75*
G02*
X128012500Y-119712500I237500J0D01*
G01*
X128487500Y-119712500D01*
G75*
G02*
X128725000Y-119950000I0J-237500D01*
G01*
X128725000Y-120550000D01*
G75*
G02*
X128487500Y-120787500I-237500J0D01*
G01*
G37*
%TD.AperFunction*%
%TO.P,C4,1*%
%TO.N,Net-(C4-Pad1)*%
%TA.AperFunction,SMDPad,CuDef*%
G36*
G01*
X128487500Y-122512500D02*
X128012500Y-122512500D01*
G75*
G02*
X127775000Y-122275000I0J237500D01*
G01*
X127775000Y-121675000D01*
G75*
G02*
X128012500Y-121437500I237500J0D01*
G01*
X128487500Y-121437500D01*
G75*
G02*
X128725000Y-121675000I0J-237500D01*
G01*
X128725000Y-122275000D01*
G75*
G02*
X128487500Y-122512500I-237500J0D01*
G01*
G37*
%TD.AperFunction*%
%TD*%
D11*
%TO.P,J3,2*%
%TO.N,GND*%
X126000000Y-103460000D03*
%TO.P,J3,1*%
%TO.N,/p5v_out*%
%TA.AperFunction,ComponentPad*%
G36*
G01*
X126845001Y-106870000D02*
X125154999Y-106870000D01*
G75*
G02*
X124905000Y-106620001I0J249999D01*
G01*
X124905000Y-105379999D01*
G75*
G02*
X125154999Y-105130000I249999J0D01*
G01*
X126845001Y-105130000D01*
G75*
G02*
X127095000Y-105379999I0J-249999D01*
G01*
X127095000Y-106620001D01*
G75*
G02*
X126845001Y-106870000I-249999J0D01*
G01*
G37*
%TD.AperFunction*%
%TD*%
%TO.P,C1,2*%
%TO.N,GND*%
%TA.AperFunction,SMDPad,CuDef*%
G36*
G01*
X110975000Y-124087500D02*
X110025000Y-124087500D01*
G75*
G02*
X109775000Y-123837500I0J250000D01*
G01*
X109775000Y-123162500D01*
G75*
G02*
X110025000Y-122912500I250000J0D01*
G01*
X110975000Y-122912500D01*
G75*
G02*
X111225000Y-123162500I0J-250000D01*
G01*
X111225000Y-123837500D01*
G75*
G02*
X110975000Y-124087500I-250000J0D01*
G01*
G37*
%TD.AperFunction*%
%TO.P,C1,1*%
%TO.N,VDC*%
%TA.AperFunction,SMDPad,CuDef*%
G36*
G01*
X110975000Y-126162500D02*
X110025000Y-126162500D01*
G75*
G02*
X109775000Y-125912500I0J250000D01*
G01*
X109775000Y-125237500D01*
G75*
G02*
X110025000Y-124987500I250000J0D01*
G01*
X110975000Y-124987500D01*
G75*
G02*
X111225000Y-125237500I0J-250000D01*
G01*
X111225000Y-125912500D01*
G75*
G02*
X110975000Y-126162500I-250000J0D01*
G01*
G37*
%TD.AperFunction*%
%TD*%
%TO.P,C2,1*%
%TO.N,/vload*%
%TA.AperFunction,SMDPad,CuDef*%
G36*
G01*
X105262500Y-128262500D02*
X105262500Y-128737500D01*
G75*
G02*
X105025000Y-128975000I-237500J0D01*
G01*
X104425000Y-128975000D01*
G75*
G02*
X104187500Y-128737500I0J237500D01*
G01*
X104187500Y-128262500D01*
G75*
G02*
X104425000Y-128025000I237500J0D01*
G01*
X105025000Y-128025000D01*
G75*
G02*
X105262500Y-128262500I0J-237500D01*
G01*
G37*
%TD.AperFunction*%
%TO.P,C2,2*%
%TO.N,Net-(C2-Pad2)*%
%TA.AperFunction,SMDPad,CuDef*%
G36*
G01*
X103537500Y-128262500D02*
X103537500Y-128737500D01*
G75*
G02*
X103300000Y-128975000I-237500J0D01*
G01*
X102700000Y-128975000D01*
G75*
G02*
X102462500Y-128737500I0J237500D01*
G01*
X102462500Y-128262500D01*
G75*
G02*
X102700000Y-128025000I237500J0D01*
G01*
X103300000Y-128025000D01*
G75*
G02*
X103537500Y-128262500I0J-237500D01*
G01*
G37*
%TD.AperFunction*%
%TD*%
%TO.P,C3,1*%
%TO.N,/vload*%
%TA.AperFunction,SMDPad,CuDef*%
G36*
G01*
X109025000Y-106337500D02*
X109975000Y-106337500D01*
G75*
G02*
X110225000Y-106587500I0J-250000D01*
G01*
X110225000Y-107262500D01*
G75*
G02*
X109975000Y-107512500I-250000J0D01*
G01*
X109025000Y-107512500D01*
G75*
G02*
X108775000Y-107262500I0J250000D01*
G01*
X108775000Y-106587500D01*
G75*
G02*
X109025000Y-106337500I250000J0D01*
G01*
G37*
%TD.AperFunction*%
%TO.P,C3,2*%
%TO.N,GND*%
%TA.AperFunction,SMDPad,CuDef*%
G36*
G01*
X109025000Y-108412500D02*
X109975000Y-108412500D01*
G75*
G02*
X110225000Y-108662500I0J-250000D01*
G01*
X110225000Y-109337500D01*
G75*
G02*
X109975000Y-109587500I-250000J0D01*
G01*
X109025000Y-109587500D01*
G75*
G02*
X108775000Y-109337500I0J250000D01*
G01*
X108775000Y-108662500D01*
G75*
G02*
X109025000Y-108412500I250000J0D01*
G01*
G37*
%TD.AperFunction*%
%TD*%
%TO.P,J1,1*%
%TO.N,VDC*%
%TA.AperFunction,ComponentPad*%
G36*
G01*
X115100000Y-141550000D02*
X115100000Y-138450000D01*
G75*
G02*
X115350000Y-138200000I250000J0D01*
G01*
X116650000Y-138200000D01*
G75*
G02*
X116900000Y-138450000I0J-250000D01*
G01*
X116900000Y-141550000D01*
G75*
G02*
X116650000Y-141800000I-250000J0D01*
G01*
X115350000Y-141800000D01*
G75*
G02*
X115100000Y-141550000I0J250000D01*
G01*
G37*
%TD.AperFunction*%
D12*
%TO.P,J1,2*%
%TO.N,GND*%
X119810000Y-140000000D03*
%TD*%
D13*
%TO.P,Q1,3*%
%TO.N,/On When Warm/VD1*%
X116500000Y-123450000D03*
%TO.P,Q1,2*%
%TO.N,/On When Warm/vs*%
X114500000Y-124400000D03*
%TO.P,Q1,1*%
%TO.N,/On When Warm/vg1*%
X114500000Y-122500000D03*
%TD*%
%TO.P,Q2,1*%
%TO.N,/thermistor*%
X114500000Y-127100000D03*
%TO.P,Q2,2*%
%TO.N,/On When Warm/vs*%
X114500000Y-129000000D03*
%TO.P,Q2,3*%
%TO.N,/On When Warm/vd2*%
X116500000Y-128050000D03*
%TD*%
D14*
%TO.P,Q3,1*%
%TO.N,Net-(C2-Pad2)*%
X102720000Y-125200000D03*
%TO.P,Q3,2*%
%TO.N,/vload*%
X105000000Y-125200000D03*
%TO.P,Q3,3*%
%TO.N,VDC*%
X107280000Y-125200000D03*
D15*
%TO.P,Q3,2*%
%TO.N,/vload*%
X105000000Y-118900000D03*
%TD*%
%TO.P,R1,1*%
%TO.N,VDC*%
%TA.AperFunction,SMDPad,CuDef*%
G36*
G01*
X112187500Y-120237500D02*
X112187500Y-119762500D01*
G75*
G02*
X112425000Y-119525000I237500J0D01*
G01*
X112925000Y-119525000D01*
G75*
G02*
X113162500Y-119762500I0J-237500D01*
G01*
X113162500Y-120237500D01*
G75*
G02*
X112925000Y-120475000I-237500J0D01*
G01*
X112425000Y-120475000D01*
G75*
G02*
X112187500Y-120237500I0J237500D01*
G01*
G37*
%TD.AperFunction*%
%TO.P,R1,2*%
%TO.N,/On When Warm/vg1*%
%TA.AperFunction,SMDPad,CuDef*%
G36*
G01*
X114012500Y-120237500D02*
X114012500Y-119762500D01*
G75*
G02*
X114250000Y-119525000I237500J0D01*
G01*
X114750000Y-119525000D01*
G75*
G02*
X114987500Y-119762500I0J-237500D01*
G01*
X114987500Y-120237500D01*
G75*
G02*
X114750000Y-120475000I-237500J0D01*
G01*
X114250000Y-120475000D01*
G75*
G02*
X114012500Y-120237500I0J237500D01*
G01*
G37*
%TD.AperFunction*%
%TD*%
%TO.P,R2,2*%
%TO.N,GND*%
%TA.AperFunction,SMDPad,CuDef*%
G36*
G01*
X117425000Y-120237500D02*
X117425000Y-119762500D01*
G75*
G02*
X117662500Y-119525000I237500J0D01*
G01*
X118162500Y-119525000D01*
G75*
G02*
X118400000Y-119762500I0J-237500D01*
G01*
X118400000Y-120237500D01*
G75*
G02*
X118162500Y-120475000I-237500J0D01*
G01*
X117662500Y-120475000D01*
G75*
G02*
X117425000Y-120237500I0J237500D01*
G01*
G37*
%TD.AperFunction*%
%TO.P,R2,1*%
%TO.N,/On When Warm/vg1*%
%TA.AperFunction,SMDPad,CuDef*%
G36*
G01*
X115600000Y-120237500D02*
X115600000Y-119762500D01*
G75*
G02*
X115837500Y-119525000I237500J0D01*
G01*
X116337500Y-119525000D01*
G75*
G02*
X116575000Y-119762500I0J-237500D01*
G01*
X116575000Y-120237500D01*
G75*
G02*
X116337500Y-120475000I-237500J0D01*
G01*
X115837500Y-120475000D01*
G75*
G02*
X115600000Y-120237500I0J237500D01*
G01*
G37*
%TD.AperFunction*%
%TD*%
%TO.P,R3,1*%
%TO.N,VDC*%
%TA.AperFunction,SMDPad,CuDef*%
G36*
G01*
X121487500Y-123262500D02*
X121487500Y-123737500D01*
G75*
G02*
X121250000Y-123975000I-237500J0D01*
G01*
X120750000Y-123975000D01*
G75*
G02*
X120512500Y-123737500I0J237500D01*
G01*
X120512500Y-123262500D01*
G75*
G02*
X120750000Y-123025000I237500J0D01*
G01*
X121250000Y-123025000D01*
G75*
G02*
X121487500Y-123262500I0J-237500D01*
G01*
G37*
%TD.AperFunction*%
%TO.P,R3,2*%
%TO.N,/On When Warm/VD1*%
%TA.AperFunction,SMDPad,CuDef*%
G36*
G01*
X119662500Y-123262500D02*
X119662500Y-123737500D01*
G75*
G02*
X119425000Y-123975000I-237500J0D01*
G01*
X118925000Y-123975000D01*
G75*
G02*
X118687500Y-123737500I0J237500D01*
G01*
X118687500Y-123262500D01*
G75*
G02*
X118925000Y-123025000I237500J0D01*
G01*
X119425000Y-123025000D01*
G75*
G02*
X119662500Y-123262500I0J-237500D01*
G01*
G37*
%TD.AperFunction*%
%TD*%
%TO.P,R7,1*%
%TO.N,VDC*%
%TA.AperFunction,SMDPad,CuDef*%
G36*
G01*
X121487500Y-127762500D02*
X121487500Y-128237500D01*
G75*
G02*
X121250000Y-128475000I-237500J0D01*
G01*
X120750000Y-128475000D01*
G75*
G02*
X120512500Y-128237500I0J237500D01*
G01*
X120512500Y-127762500D01*
G75*
G02*
X120750000Y-127525000I237500J0D01*
G01*
X121250000Y-127525000D01*
G75*
G02*
X121487500Y-127762500I0J-237500D01*
G01*
G37*
%TD.AperFunction*%
%TO.P,R7,2*%
%TO.N,/On When Warm/vd2*%
%TA.AperFunction,SMDPad,CuDef*%
G36*
G01*
X119662500Y-127762500D02*
X119662500Y-128237500D01*
G75*
G02*
X119425000Y-128475000I-237500J0D01*
G01*
X118925000Y-128475000D01*
G75*
G02*
X118687500Y-128237500I0J237500D01*
G01*
X118687500Y-127762500D01*
G75*
G02*
X118925000Y-127525000I237500J0D01*
G01*
X119425000Y-127525000D01*
G75*
G02*
X119662500Y-127762500I0J-237500D01*
G01*
G37*
%TD.AperFunction*%
%TD*%
%TO.P,R9,1*%
%TO.N,Net-(C2-Pad2)*%
%TA.AperFunction,SMDPad,CuDef*%
G36*
G01*
X102512500Y-130737500D02*
X102512500Y-130262500D01*
G75*
G02*
X102750000Y-130025000I237500J0D01*
G01*
X103250000Y-130025000D01*
G75*
G02*
X103487500Y-130262500I0J-237500D01*
G01*
X103487500Y-130737500D01*
G75*
G02*
X103250000Y-130975000I-237500J0D01*
G01*
X102750000Y-130975000D01*
G75*
G02*
X102512500Y-130737500I0J237500D01*
G01*
G37*
%TD.AperFunction*%
%TO.P,R9,2*%
%TO.N,/On When Warm/VD1*%
%TA.AperFunction,SMDPad,CuDef*%
G36*
G01*
X104337500Y-130737500D02*
X104337500Y-130262500D01*
G75*
G02*
X104575000Y-130025000I237500J0D01*
G01*
X105075000Y-130025000D01*
G75*
G02*
X105312500Y-130262500I0J-237500D01*
G01*
X105312500Y-130737500D01*
G75*
G02*
X105075000Y-130975000I-237500J0D01*
G01*
X104575000Y-130975000D01*
G75*
G02*
X104337500Y-130737500I0J237500D01*
G01*
G37*
%TD.AperFunction*%
%TD*%
%TO.P,U1,1*%
%TO.N,VDC*%
%TA.AperFunction,SMDPad,CuDef*%
G36*
G01*
X125075000Y-129875000D02*
X124925000Y-129875000D01*
G75*
G02*
X124850000Y-129800000I0J75000D01*
G01*
X124850000Y-128500000D01*
G75*
G02*
X124925000Y-128425000I75000J0D01*
G01*
X125075000Y-128425000D01*
G75*
G02*
X125150000Y-128500000I0J-75000D01*
G01*
X125150000Y-129800000D01*
G75*
G02*
X125075000Y-129875000I-75000J0D01*
G01*
G37*
%TD.AperFunction*%
%TO.P,U1,2*%
%TA.AperFunction,SMDPad,CuDef*%
G36*
G01*
X125575000Y-129875000D02*
X125425000Y-129875000D01*
G75*
G02*
X125350000Y-129800000I0J75000D01*
G01*
X125350000Y-128500000D01*
G75*
G02*
X125425000Y-128425000I75000J0D01*
G01*
X125575000Y-128425000D01*
G75*
G02*
X125650000Y-128500000I0J-75000D01*
G01*
X125650000Y-129800000D01*
G75*
G02*
X125575000Y-129875000I-75000J0D01*
G01*
G37*
%TD.AperFunction*%
%TO.P,U1,3*%
%TA.AperFunction,SMDPad,CuDef*%
G36*
G01*
X126075000Y-129875000D02*
X125925000Y-129875000D01*
G75*
G02*
X125850000Y-129800000I0J75000D01*
G01*
X125850000Y-128500000D01*
G75*
G02*
X125925000Y-128425000I75000J0D01*
G01*
X126075000Y-128425000D01*
G75*
G02*
X126150000Y-128500000I0J-75000D01*
G01*
X126150000Y-129800000D01*
G75*
G02*
X126075000Y-129875000I-75000J0D01*
G01*
G37*
%TD.AperFunction*%
%TO.P,U1,4*%
%TO.N,Net-(U1-Pad4)*%
%TA.AperFunction,SMDPad,CuDef*%
G36*
G01*
X126575000Y-129875000D02*
X126425000Y-129875000D01*
G75*
G02*
X126350000Y-129800000I0J75000D01*
G01*
X126350000Y-128500000D01*
G75*
G02*
X126425000Y-128425000I75000J0D01*
G01*
X126575000Y-128425000D01*
G75*
G02*
X126650000Y-128500000I0J-75000D01*
G01*
X126650000Y-129800000D01*
G75*
G02*
X126575000Y-129875000I-75000J0D01*
G01*
G37*
%TD.AperFunction*%
%TO.P,U1,5*%
%TO.N,GND*%
%TA.AperFunction,SMDPad,CuDef*%
G36*
G01*
X127075000Y-129875000D02*
X126925000Y-129875000D01*
G75*
G02*
X126850000Y-129800000I0J75000D01*
G01*
X126850000Y-128500000D01*
G75*
G02*
X126925000Y-128425000I75000J0D01*
G01*
X127075000Y-128425000D01*
G75*
G02*
X127150000Y-128500000I0J-75000D01*
G01*
X127150000Y-129800000D01*
G75*
G02*
X127075000Y-129875000I-75000J0D01*
G01*
G37*
%TD.AperFunction*%
%TO.P,U1,6*%
%TO.N,VDC*%
%TA.AperFunction,SMDPad,CuDef*%
G36*
G01*
X127075000Y-125575000D02*
X126925000Y-125575000D01*
G75*
G02*
X126850000Y-125500000I0J75000D01*
G01*
X126850000Y-124200000D01*
G75*
G02*
X126925000Y-124125000I75000J0D01*
G01*
X127075000Y-124125000D01*
G75*
G02*
X127150000Y-124200000I0J-75000D01*
G01*
X127150000Y-125500000D01*
G75*
G02*
X127075000Y-125575000I-75000J0D01*
G01*
G37*
%TD.AperFunction*%
%TO.P,U1,7*%
%TO.N,Net-(C4-Pad1)*%
%TA.AperFunction,SMDPad,CuDef*%
G36*
G01*
X126575000Y-125575000D02*
X126425000Y-125575000D01*
G75*
G02*
X126350000Y-125500000I0J75000D01*
G01*
X126350000Y-124200000D01*
G75*
G02*
X126425000Y-124125000I75000J0D01*
G01*
X126575000Y-124125000D01*
G75*
G02*
X126650000Y-124200000I0J-75000D01*
G01*
X126650000Y-125500000D01*
G75*
G02*
X126575000Y-125575000I-75000J0D01*
G01*
G37*
%TD.AperFunction*%
%TO.P,U1,8*%
%TO.N,GND*%
%TA.AperFunction,SMDPad,CuDef*%
G36*
G01*
X126075000Y-125575000D02*
X125925000Y-125575000D01*
G75*
G02*
X125850000Y-125500000I0J75000D01*
G01*
X125850000Y-124200000D01*
G75*
G02*
X125925000Y-124125000I75000J0D01*
G01*
X126075000Y-124125000D01*
G75*
G02*
X126150000Y-124200000I0J-75000D01*
G01*
X126150000Y-125500000D01*
G75*
G02*
X126075000Y-125575000I-75000J0D01*
G01*
G37*
%TD.AperFunction*%
%TO.P,U1,9*%
%TO.N,/p5v_out*%
%TA.AperFunction,SMDPad,CuDef*%
G36*
G01*
X125575000Y-125575000D02*
X125425000Y-125575000D01*
G75*
G02*
X125350000Y-125500000I0J75000D01*
G01*
X125350000Y-124200000D01*
G75*
G02*
X125425000Y-124125000I75000J0D01*
G01*
X125575000Y-124125000D01*
G75*
G02*
X125650000Y-124200000I0J-75000D01*
G01*
X125650000Y-125500000D01*
G75*
G02*
X125575000Y-125575000I-75000J0D01*
G01*
G37*
%TD.AperFunction*%
%TO.P,U1,10*%
%TA.AperFunction,SMDPad,CuDef*%
G36*
G01*
X125075000Y-125575000D02*
X124925000Y-125575000D01*
G75*
G02*
X124850000Y-125500000I0J75000D01*
G01*
X124850000Y-124200000D01*
G75*
G02*
X124925000Y-124125000I75000J0D01*
G01*
X125075000Y-124125000D01*
G75*
G02*
X125150000Y-124200000I0J-75000D01*
G01*
X125150000Y-125500000D01*
G75*
G02*
X125075000Y-125575000I-75000J0D01*
G01*
G37*
%TD.AperFunction*%
D16*
%TO.P,U1,11*%
%TO.N,GND*%
X126000000Y-127000000D03*
%TD*%
D17*
%TO.N,VDC*%
X123200000Y-129400000D03*
X123200000Y-131000000D03*
X123200000Y-132800000D03*
%TO.N,GND*%
X123200000Y-125600000D03*
X124000000Y-126800000D03*
X123200000Y-127600000D03*
X128202593Y-127124996D03*
X129200000Y-126800000D03*
X129200000Y-127800000D03*
%TO.N,/vload*%
X109460000Y-103040000D03*
X107000000Y-103000000D03*
X103000000Y-104000000D03*
%TO.N,GND*%
X107000000Y-113000000D03*
X109500000Y-113000000D03*
X112000000Y-113000000D03*
X103000000Y-112500000D03*
X110500000Y-122000000D03*
X119000000Y-120000000D03*
X116500000Y-126000000D03*
X126500000Y-119000000D03*
X128500000Y-119000000D03*
X124000000Y-119000000D03*
X127550000Y-129150000D03*
X127950000Y-132250000D03*
%TO.N,/On When Warm/VD1*%
X119500000Y-122000000D03*
%TO.N,/On When Warm/vs*%
X113500000Y-124500000D03*
X113500000Y-129000000D03*
%TO.N,/On When Warm/vg1*%
X116500000Y-121500000D03*
%TO.N,/thermistor*%
X118000000Y-127000000D03*
%TO.N,/On When Warm/vd2*%
X118551318Y-125956175D03*
%TO.N,VDC*%
X120000000Y-109000000D03*
X107280000Y-127280000D03*
X110500000Y-127500000D03*
X121000000Y-122000000D03*
X121000000Y-129500000D03*
X111500000Y-120000000D03*
%TD*%
D18*
%TO.N,/vload*%
X107000000Y-104425000D02*
X109500000Y-106925000D01*
X107000000Y-103000000D02*
X107000000Y-104425000D01*
X109500000Y-103080000D02*
X109460000Y-103040000D01*
X109500000Y-106925000D02*
X109500000Y-103080000D01*
X105000000Y-125200000D02*
X105000000Y-118900000D01*
D19*
X109500000Y-106925000D02*
X108075000Y-106925000D01*
X105000000Y-110000000D02*
X105000000Y-118900000D01*
X108075000Y-106925000D02*
X105000000Y-110000000D01*
D18*
X105000000Y-128225000D02*
X104725000Y-128500000D01*
X105000000Y-125200000D02*
X105000000Y-128225000D01*
%TO.N,Net-(C2-Pad2)*%
X102720000Y-128220000D02*
X103000000Y-128500000D01*
X102720000Y-125200000D02*
X102720000Y-128220000D01*
X103000000Y-128500000D02*
X103000000Y-130500000D01*
%TO.N,GND*%
X110500000Y-123500000D02*
X110500000Y-122000000D01*
X109500000Y-109000000D02*
X109500000Y-113000000D01*
X117912500Y-120000000D02*
X119000000Y-120000000D01*
X126500000Y-120175000D02*
X126500000Y-119000000D01*
X128250000Y-120250000D02*
X128250000Y-119250000D01*
X128250000Y-119250000D02*
X128500000Y-119000000D01*
X128175000Y-120175000D02*
X128250000Y-120250000D01*
X126500000Y-120175000D02*
X128175000Y-120175000D01*
X124250000Y-119250000D02*
X124000000Y-119000000D01*
X124250000Y-119925000D02*
X124250000Y-119250000D01*
X126000000Y-124850000D02*
X126000000Y-127000000D01*
X126975010Y-128775010D02*
X126975010Y-127975010D01*
X127000000Y-128800000D02*
X126975010Y-128775010D01*
X127000000Y-129150000D02*
X127000000Y-128800000D01*
X126000000Y-127000000D02*
X125600000Y-126600000D01*
X126000000Y-127000000D02*
X126400000Y-126600000D01*
X126000000Y-127000000D02*
X126400000Y-127400000D01*
X126975010Y-127975010D02*
X126400000Y-127400000D01*
X126000000Y-127000000D02*
X125600000Y-127400000D01*
X127000000Y-129150000D02*
X127550000Y-129150000D01*
X127075000Y-132250000D02*
X127950000Y-132250000D01*
X125600000Y-127000000D02*
X124200000Y-125600000D01*
X125600000Y-127000000D02*
X124400000Y-128200000D01*
X125600000Y-127000000D02*
X126000000Y-127000000D01*
X126975010Y-127975010D02*
X127975010Y-127975010D01*
X127975010Y-127975010D02*
X127000000Y-127000000D01*
X126000000Y-127000000D02*
X126200000Y-127000000D01*
X126200000Y-127000000D02*
X126800000Y-126400000D01*
X126800000Y-126400000D02*
X127800000Y-126400000D01*
X127800000Y-126400000D02*
X128200000Y-126400000D01*
X120000000Y-139810000D02*
X119810000Y-140000000D01*
X120000000Y-133600000D02*
X120000000Y-139810000D01*
%TO.N,/On When Warm/VD1*%
X116550000Y-123500000D02*
X116500000Y-123450000D01*
X119175000Y-123500000D02*
X116550000Y-123500000D01*
X119500000Y-123175000D02*
X119175000Y-123500000D01*
X119500000Y-122000000D02*
X119500000Y-123175000D01*
X116500000Y-124100000D02*
X114600000Y-126000000D01*
X116500000Y-123450000D02*
X116500000Y-124100000D01*
X114600000Y-126000000D02*
X113000000Y-126000000D01*
X113000000Y-126000000D02*
X113000000Y-127000000D01*
X109500000Y-130500000D02*
X104825000Y-130500000D01*
X113000000Y-127000000D02*
X109500000Y-130500000D01*
%TO.N,/On When Warm/vs*%
X114400000Y-124500000D02*
X114500000Y-124400000D01*
X113500000Y-124500000D02*
X114400000Y-124500000D01*
X113500000Y-129000000D02*
X114500000Y-129000000D01*
%TO.N,/On When Warm/vg1*%
X114500000Y-120000000D02*
X116087500Y-120000000D01*
X114500000Y-120000000D02*
X114500000Y-122500000D01*
X116500000Y-121500000D02*
X116000000Y-121000000D01*
X116087500Y-120912500D02*
X116087500Y-120000000D01*
X116000000Y-121000000D02*
X116087500Y-120912500D01*
%TO.N,/thermistor*%
X114500000Y-126926998D02*
X116426998Y-125000000D01*
X114500000Y-127100000D02*
X114500000Y-126926998D01*
X116573002Y-125000000D02*
X118000000Y-126426998D01*
X116426998Y-125000000D02*
X116573002Y-125000000D01*
X118000000Y-126426998D02*
X118000000Y-127000000D01*
%TO.N,/On When Warm/vd2*%
X116550000Y-128000000D02*
X116500000Y-128050000D01*
X119175000Y-128000000D02*
X116550000Y-128000000D01*
X119175000Y-128000000D02*
X119175000Y-126675000D01*
X118551318Y-126051318D02*
X118551318Y-125956175D01*
X119175000Y-126675000D02*
X118551318Y-126051318D01*
%TO.N,VDC*%
X107280000Y-125200000D02*
X107280000Y-127280000D01*
X110125000Y-125200000D02*
X110500000Y-125575000D01*
X107280000Y-125200000D02*
X110125000Y-125200000D01*
X110500000Y-125575000D02*
X110500000Y-127500000D01*
X121000000Y-123500000D02*
X121000000Y-122000000D01*
X121000000Y-128000000D02*
X121000000Y-129500000D01*
X112675000Y-120000000D02*
X111500000Y-120000000D01*
X126000000Y-129150000D02*
X126000000Y-130600000D01*
X126000000Y-130600000D02*
X125800000Y-130600000D01*
X125500000Y-129150000D02*
X125500000Y-130500000D01*
X125000000Y-129150000D02*
X125000000Y-130600000D01*
X125000000Y-130600000D02*
X125000000Y-130800000D01*
X127000000Y-124850000D02*
X127950000Y-125800000D01*
X127950000Y-125800000D02*
X130200000Y-125800000D01*
X130200000Y-125800000D02*
X130400000Y-126000000D01*
X130400000Y-126000000D02*
X130400000Y-129400000D01*
X129200000Y-130600000D02*
X126000000Y-130600000D01*
X130400000Y-129400000D02*
X129200000Y-130600000D01*
X121000000Y-128000000D02*
X121000000Y-128475000D01*
X123548001Y-128674999D02*
X123400000Y-128674999D01*
X116000000Y-133600000D02*
X116000000Y-140000000D01*
%TO.N,Net-(C4-Pad1)*%
X126500000Y-124850000D02*
X126500000Y-122000000D01*
X128225000Y-122000000D02*
X128250000Y-121975000D01*
X126500000Y-122000000D02*
X128225000Y-122000000D01*
%TO.N,/p5v_out*%
X125500000Y-124850000D02*
X125500000Y-123700000D01*
X125500000Y-123700000D02*
X125400000Y-123600000D01*
X125500000Y-124850000D02*
X124850000Y-124850000D01*
X124850000Y-124850000D02*
X125000000Y-124850000D01*
X125000000Y-124850000D02*
X125000000Y-124000000D01*
X125000000Y-124000000D02*
X124600000Y-123600000D01*
X124600000Y-123600000D02*
X124400000Y-123600000D01*
X125000000Y-124850000D02*
X124050000Y-124850000D01*
X124050000Y-124850000D02*
X123800000Y-124600000D01*
X126000000Y-106000000D02*
X125400000Y-106000000D01*
X125400000Y-106000000D02*
X122800000Y-108600000D01*
X122800000Y-108600000D02*
X122800000Y-118400000D01*
X122800000Y-118400000D02*
X123000000Y-118200000D01*
%TD*%
D20*
%TO.N,/p5v_out*%
X130073000Y-125040000D02*
X128927000Y-125040000D01*
X128927000Y-123028103D01*
X128973942Y-123003012D01*
X129106623Y-122894123D01*
X129215512Y-122761442D01*
X129296423Y-122610067D01*
X129346248Y-122445816D01*
X129363072Y-122275000D01*
X129363072Y-121675000D01*
X129346248Y-121504184D01*
X129296423Y-121339933D01*
X129215512Y-121188558D01*
X129153093Y-121112500D01*
X129215512Y-121036442D01*
X129296423Y-120885067D01*
X129346248Y-120720816D01*
X129363072Y-120550000D01*
X129363072Y-119950000D01*
X129346248Y-119779184D01*
X129308124Y-119653507D01*
X129417205Y-119490256D01*
X129495226Y-119301898D01*
X129535000Y-119101939D01*
X129535000Y-118898061D01*
X129495226Y-118698102D01*
X129417205Y-118509744D01*
X129303937Y-118340226D01*
X129159774Y-118196063D01*
X128990256Y-118082795D01*
X128801898Y-118004774D01*
X128601939Y-117965000D01*
X128398061Y-117965000D01*
X128198102Y-118004774D01*
X128009744Y-118082795D01*
X127840226Y-118196063D01*
X127696063Y-118340226D01*
X127582795Y-118509744D01*
X127504774Y-118698102D01*
X127500000Y-118722103D01*
X127495226Y-118698102D01*
X127417205Y-118509744D01*
X127303937Y-118340226D01*
X127159774Y-118196063D01*
X126990256Y-118082795D01*
X126801898Y-118004774D01*
X126601939Y-117965000D01*
X126398061Y-117965000D01*
X126198102Y-118004774D01*
X126009744Y-118082795D01*
X125840226Y-118196063D01*
X125696063Y-118340226D01*
X125582795Y-118509744D01*
X125504774Y-118698102D01*
X125465000Y-118898061D01*
X125465000Y-119097098D01*
X125463405Y-119094114D01*
X125352962Y-118959538D01*
X125218386Y-118849095D01*
X125064850Y-118767028D01*
X125005346Y-118748978D01*
X124995226Y-118698102D01*
X124917205Y-118509744D01*
X124803937Y-118340226D01*
X124659774Y-118196063D01*
X124490256Y-118082795D01*
X124301898Y-118004774D01*
X124101939Y-117965000D01*
X123898061Y-117965000D01*
X123698102Y-118004774D01*
X123509744Y-118082795D01*
X123340226Y-118196063D01*
X123196063Y-118340226D01*
X123082795Y-118509744D01*
X123004774Y-118698102D01*
X122965000Y-118898061D01*
X122965000Y-119101939D01*
X122983283Y-119193854D01*
X122954528Y-119247650D01*
X122903992Y-119414246D01*
X122886928Y-119587500D01*
X122886928Y-120262500D01*
X122903992Y-120435754D01*
X122954528Y-120602350D01*
X123036595Y-120755886D01*
X123147038Y-120890462D01*
X123153594Y-120895842D01*
X123073815Y-120961315D01*
X122994463Y-121058006D01*
X122935498Y-121168320D01*
X122899188Y-121288018D01*
X122886928Y-121412500D01*
X122890000Y-121714250D01*
X123048750Y-121873000D01*
X124123000Y-121873000D01*
X124123000Y-121853000D01*
X124377000Y-121853000D01*
X124377000Y-121873000D01*
X124397000Y-121873000D01*
X124397000Y-122127000D01*
X124377000Y-122127000D01*
X124377000Y-123063750D01*
X124535750Y-123222500D01*
X124975000Y-123225572D01*
X125099482Y-123213312D01*
X125219180Y-123177002D01*
X125329494Y-123118037D01*
X125426185Y-123038685D01*
X125473000Y-122981641D01*
X125473000Y-123490000D01*
X125372998Y-123490000D01*
X125372998Y-123529642D01*
X125350781Y-123522531D01*
X125318250Y-123490000D01*
X125250000Y-123497447D01*
X125181750Y-123490000D01*
X125149219Y-123522531D01*
X125096873Y-123539285D01*
X124987469Y-123599922D01*
X124955355Y-123627105D01*
X124818250Y-123490000D01*
X124716004Y-123501156D01*
X124596873Y-123539285D01*
X124487469Y-123599922D01*
X124391997Y-123680737D01*
X124314126Y-123778625D01*
X124256849Y-123889825D01*
X124222366Y-124010061D01*
X124212002Y-124134715D01*
X124215000Y-124564250D01*
X124373748Y-124722998D01*
X124215000Y-124722998D01*
X124215000Y-124837801D01*
X124200000Y-124836324D01*
X124051015Y-124850998D01*
X124035354Y-124855748D01*
X122727000Y-123547394D01*
X122727000Y-122587500D01*
X122886928Y-122587500D01*
X122899188Y-122711982D01*
X122935498Y-122831680D01*
X122994463Y-122941994D01*
X123073815Y-123038685D01*
X123170506Y-123118037D01*
X123280820Y-123177002D01*
X123400518Y-123213312D01*
X123525000Y-123225572D01*
X123964250Y-123222500D01*
X124123000Y-123063750D01*
X124123000Y-122127000D01*
X123048750Y-122127000D01*
X122890000Y-122285750D01*
X122886928Y-122587500D01*
X122727000Y-122587500D01*
X122727000Y-117927000D01*
X130073000Y-117927000D01*
X130073000Y-125040000D01*
%TA.AperFunction,Conductor*%
D21*
G36*
X130073000Y-125040000D02*
G01*
X128927000Y-125040000D01*
X128927000Y-123028103D01*
X128973942Y-123003012D01*
X129106623Y-122894123D01*
X129215512Y-122761442D01*
X129296423Y-122610067D01*
X129346248Y-122445816D01*
X129363072Y-122275000D01*
X129363072Y-121675000D01*
X129346248Y-121504184D01*
X129296423Y-121339933D01*
X129215512Y-121188558D01*
X129153093Y-121112500D01*
X129215512Y-121036442D01*
X129296423Y-120885067D01*
X129346248Y-120720816D01*
X129363072Y-120550000D01*
X129363072Y-119950000D01*
X129346248Y-119779184D01*
X129308124Y-119653507D01*
X129417205Y-119490256D01*
X129495226Y-119301898D01*
X129535000Y-119101939D01*
X129535000Y-118898061D01*
X129495226Y-118698102D01*
X129417205Y-118509744D01*
X129303937Y-118340226D01*
X129159774Y-118196063D01*
X128990256Y-118082795D01*
X128801898Y-118004774D01*
X128601939Y-117965000D01*
X128398061Y-117965000D01*
X128198102Y-118004774D01*
X128009744Y-118082795D01*
X127840226Y-118196063D01*
X127696063Y-118340226D01*
X127582795Y-118509744D01*
X127504774Y-118698102D01*
X127500000Y-118722103D01*
X127495226Y-118698102D01*
X127417205Y-118509744D01*
X127303937Y-118340226D01*
X127159774Y-118196063D01*
X126990256Y-118082795D01*
X126801898Y-118004774D01*
X126601939Y-117965000D01*
X126398061Y-117965000D01*
X126198102Y-118004774D01*
X126009744Y-118082795D01*
X125840226Y-118196063D01*
X125696063Y-118340226D01*
X125582795Y-118509744D01*
X125504774Y-118698102D01*
X125465000Y-118898061D01*
X125465000Y-119097098D01*
X125463405Y-119094114D01*
X125352962Y-118959538D01*
X125218386Y-118849095D01*
X125064850Y-118767028D01*
X125005346Y-118748978D01*
X124995226Y-118698102D01*
X124917205Y-118509744D01*
X124803937Y-118340226D01*
X124659774Y-118196063D01*
X124490256Y-118082795D01*
X124301898Y-118004774D01*
X124101939Y-117965000D01*
X123898061Y-117965000D01*
X123698102Y-118004774D01*
X123509744Y-118082795D01*
X123340226Y-118196063D01*
X123196063Y-118340226D01*
X123082795Y-118509744D01*
X123004774Y-118698102D01*
X122965000Y-118898061D01*
X122965000Y-119101939D01*
X122983283Y-119193854D01*
X122954528Y-119247650D01*
X122903992Y-119414246D01*
X122886928Y-119587500D01*
X122886928Y-120262500D01*
X122903992Y-120435754D01*
X122954528Y-120602350D01*
X123036595Y-120755886D01*
X123147038Y-120890462D01*
X123153594Y-120895842D01*
X123073815Y-120961315D01*
X122994463Y-121058006D01*
X122935498Y-121168320D01*
X122899188Y-121288018D01*
X122886928Y-121412500D01*
X122890000Y-121714250D01*
X123048750Y-121873000D01*
X124123000Y-121873000D01*
X124123000Y-121853000D01*
X124377000Y-121853000D01*
X124377000Y-121873000D01*
X124397000Y-121873000D01*
X124397000Y-122127000D01*
X124377000Y-122127000D01*
X124377000Y-123063750D01*
X124535750Y-123222500D01*
X124975000Y-123225572D01*
X125099482Y-123213312D01*
X125219180Y-123177002D01*
X125329494Y-123118037D01*
X125426185Y-123038685D01*
X125473000Y-122981641D01*
X125473000Y-123490000D01*
X125372998Y-123490000D01*
X125372998Y-123529642D01*
X125350781Y-123522531D01*
X125318250Y-123490000D01*
X125250000Y-123497447D01*
X125181750Y-123490000D01*
X125149219Y-123522531D01*
X125096873Y-123539285D01*
X124987469Y-123599922D01*
X124955355Y-123627105D01*
X124818250Y-123490000D01*
X124716004Y-123501156D01*
X124596873Y-123539285D01*
X124487469Y-123599922D01*
X124391997Y-123680737D01*
X124314126Y-123778625D01*
X124256849Y-123889825D01*
X124222366Y-124010061D01*
X124212002Y-124134715D01*
X124215000Y-124564250D01*
X124373748Y-124722998D01*
X124215000Y-124722998D01*
X124215000Y-124837801D01*
X124200000Y-124836324D01*
X124051015Y-124850998D01*
X124035354Y-124855748D01*
X122727000Y-123547394D01*
X122727000Y-122587500D01*
X122886928Y-122587500D01*
X122899188Y-122711982D01*
X122935498Y-122831680D01*
X122994463Y-122941994D01*
X123073815Y-123038685D01*
X123170506Y-123118037D01*
X123280820Y-123177002D01*
X123400518Y-123213312D01*
X123525000Y-123225572D01*
X123964250Y-123222500D01*
X124123000Y-123063750D01*
X124123000Y-122127000D01*
X123048750Y-122127000D01*
X122890000Y-122285750D01*
X122886928Y-122587500D01*
X122727000Y-122587500D01*
X122727000Y-117927000D01*
X130073000Y-117927000D01*
X130073000Y-125040000D01*
G37*
%TD.AperFunction*%
D20*
X125147000Y-124977000D02*
X124853000Y-124977000D01*
X124853000Y-124723000D01*
X125147000Y-124723000D01*
X125147000Y-124977000D01*
%TA.AperFunction,Conductor*%
D21*
G36*
X125147000Y-124977000D02*
G01*
X124853000Y-124977000D01*
X124853000Y-124723000D01*
X125147000Y-124723000D01*
X125147000Y-124977000D01*
G37*
%TD.AperFunction*%
%TD*%
D20*
%TO.N,GND*%
X123055748Y-124435354D02*
X123050998Y-124451015D01*
X123036324Y-124600000D01*
X123050998Y-124748985D01*
X123094454Y-124892246D01*
X123165026Y-125024276D01*
X123236201Y-125111002D01*
X123486200Y-125361002D01*
X123509999Y-125390001D01*
X123625724Y-125484974D01*
X123757753Y-125555546D01*
X123901014Y-125599003D01*
X124012667Y-125610000D01*
X124012676Y-125610000D01*
X124049999Y-125613676D01*
X124087322Y-125610000D01*
X124222762Y-125610000D01*
X124225629Y-125639113D01*
X124266207Y-125772881D01*
X124332102Y-125896162D01*
X124420782Y-126004218D01*
X124439118Y-126019266D01*
X124434188Y-126035518D01*
X124421928Y-126160000D01*
X124425000Y-126714250D01*
X124583750Y-126873000D01*
X125873000Y-126873000D01*
X125873000Y-126853000D01*
X126127000Y-126853000D01*
X126127000Y-126873000D01*
X127416250Y-126873000D01*
X127575000Y-126714250D01*
X127576398Y-126462060D01*
X127657753Y-126505546D01*
X127801014Y-126549003D01*
X127912667Y-126560000D01*
X127912677Y-126560000D01*
X127950000Y-126563676D01*
X127987323Y-126560000D01*
X129640000Y-126560000D01*
X129640001Y-128073000D01*
X127681399Y-128073000D01*
X127608003Y-127980737D01*
X127567581Y-127946521D01*
X127578072Y-127840000D01*
X127575000Y-127285750D01*
X127416250Y-127127000D01*
X126127000Y-127127000D01*
X126127000Y-127147000D01*
X125873000Y-127147000D01*
X125873000Y-127127000D01*
X124583750Y-127127000D01*
X124425000Y-127285750D01*
X124421928Y-127840000D01*
X124434188Y-127964482D01*
X124439118Y-127980734D01*
X124420782Y-127995782D01*
X124357410Y-128073000D01*
X124012457Y-128073000D01*
X123972277Y-128040025D01*
X123840248Y-127969453D01*
X123696987Y-127925996D01*
X123585334Y-127914999D01*
X123362667Y-127914999D01*
X123251014Y-127925996D01*
X123107753Y-127969453D01*
X122975724Y-128040025D01*
X122935544Y-128073000D01*
X122727000Y-128073000D01*
X122727000Y-124106606D01*
X123055748Y-124435354D01*
%TA.AperFunction,Conductor*%
D21*
G36*
X123055748Y-124435354D02*
G01*
X123050998Y-124451015D01*
X123036324Y-124600000D01*
X123050998Y-124748985D01*
X123094454Y-124892246D01*
X123165026Y-125024276D01*
X123236201Y-125111002D01*
X123486200Y-125361002D01*
X123509999Y-125390001D01*
X123625724Y-125484974D01*
X123757753Y-125555546D01*
X123901014Y-125599003D01*
X124012667Y-125610000D01*
X124012676Y-125610000D01*
X124049999Y-125613676D01*
X124087322Y-125610000D01*
X124222762Y-125610000D01*
X124225629Y-125639113D01*
X124266207Y-125772881D01*
X124332102Y-125896162D01*
X124420782Y-126004218D01*
X124439118Y-126019266D01*
X124434188Y-126035518D01*
X124421928Y-126160000D01*
X124425000Y-126714250D01*
X124583750Y-126873000D01*
X125873000Y-126873000D01*
X125873000Y-126853000D01*
X126127000Y-126853000D01*
X126127000Y-126873000D01*
X127416250Y-126873000D01*
X127575000Y-126714250D01*
X127576398Y-126462060D01*
X127657753Y-126505546D01*
X127801014Y-126549003D01*
X127912667Y-126560000D01*
X127912677Y-126560000D01*
X127950000Y-126563676D01*
X127987323Y-126560000D01*
X129640000Y-126560000D01*
X129640001Y-128073000D01*
X127681399Y-128073000D01*
X127608003Y-127980737D01*
X127567581Y-127946521D01*
X127578072Y-127840000D01*
X127575000Y-127285750D01*
X127416250Y-127127000D01*
X126127000Y-127127000D01*
X126127000Y-127147000D01*
X125873000Y-127147000D01*
X125873000Y-127127000D01*
X124583750Y-127127000D01*
X124425000Y-127285750D01*
X124421928Y-127840000D01*
X124434188Y-127964482D01*
X124439118Y-127980734D01*
X124420782Y-127995782D01*
X124357410Y-128073000D01*
X124012457Y-128073000D01*
X123972277Y-128040025D01*
X123840248Y-127969453D01*
X123696987Y-127925996D01*
X123585334Y-127914999D01*
X123362667Y-127914999D01*
X123251014Y-127925996D01*
X123107753Y-127969453D01*
X122975724Y-128040025D01*
X122935544Y-128073000D01*
X122727000Y-128073000D01*
X122727000Y-124106606D01*
X123055748Y-124435354D01*
G37*
%TD.AperFunction*%
%TD*%
D20*
%TO.N,VDC*%
X122898102Y-128595226D02*
X123098061Y-128635000D01*
X123301939Y-128635000D01*
X123501898Y-128595226D01*
X123666609Y-128527000D01*
X123713030Y-128527000D01*
X123765026Y-128624276D01*
X123859999Y-128740001D01*
X123975724Y-128834974D01*
X124107754Y-128905546D01*
X124251015Y-128949002D01*
X124305077Y-128954327D01*
X124373750Y-129023000D01*
X125147000Y-129023000D01*
X125147000Y-129277000D01*
X124373750Y-129277000D01*
X124215000Y-129435750D01*
X124212002Y-129865285D01*
X124222366Y-129989939D01*
X124256849Y-130110175D01*
X124314126Y-130221375D01*
X124391997Y-130319263D01*
X124487469Y-130400078D01*
X124596873Y-130460715D01*
X124716004Y-130498844D01*
X124818250Y-130510000D01*
X124955355Y-130372895D01*
X124987469Y-130400078D01*
X125096873Y-130460715D01*
X125149219Y-130477469D01*
X125181750Y-130510000D01*
X125250000Y-130502553D01*
X125318250Y-130510000D01*
X125350781Y-130477469D01*
X125403127Y-130460715D01*
X125500000Y-130407023D01*
X125596873Y-130460715D01*
X125649219Y-130477469D01*
X125681750Y-130510000D01*
X125750000Y-130502553D01*
X125818250Y-130510000D01*
X125850781Y-130477469D01*
X125903127Y-130460715D01*
X126012531Y-130400078D01*
X126024865Y-130389637D01*
X126028838Y-130392898D01*
X126073000Y-130416503D01*
X126073000Y-131115628D01*
X126038685Y-131073815D01*
X125941994Y-130994463D01*
X125831680Y-130935498D01*
X125711982Y-130899188D01*
X125587500Y-130886928D01*
X125285750Y-130890000D01*
X125127000Y-131048750D01*
X125127000Y-132123000D01*
X125147000Y-132123000D01*
X125147000Y-132377000D01*
X125127000Y-132377000D01*
X125127000Y-133451250D01*
X125285750Y-133610000D01*
X125587500Y-133613072D01*
X125711982Y-133600812D01*
X125831680Y-133564502D01*
X125941994Y-133505537D01*
X126038685Y-133426185D01*
X126073000Y-133384372D01*
X126073000Y-133673000D01*
X122727000Y-133673000D01*
X122727000Y-132975000D01*
X123774428Y-132975000D01*
X123786688Y-133099482D01*
X123822998Y-133219180D01*
X123881963Y-133329494D01*
X123961315Y-133426185D01*
X124058006Y-133505537D01*
X124168320Y-133564502D01*
X124288018Y-133600812D01*
X124412500Y-133613072D01*
X124714250Y-133610000D01*
X124873000Y-133451250D01*
X124873000Y-132377000D01*
X123936250Y-132377000D01*
X123777500Y-132535750D01*
X123774428Y-132975000D01*
X122727000Y-132975000D01*
X122727000Y-131525000D01*
X123774428Y-131525000D01*
X123777500Y-131964250D01*
X123936250Y-132123000D01*
X124873000Y-132123000D01*
X124873000Y-131048750D01*
X124714250Y-130890000D01*
X124412500Y-130886928D01*
X124288018Y-130899188D01*
X124168320Y-130935498D01*
X124058006Y-130994463D01*
X123961315Y-131073815D01*
X123881963Y-131170506D01*
X123822998Y-131280820D01*
X123786688Y-131400518D01*
X123774428Y-131525000D01*
X122727000Y-131525000D01*
X122727000Y-128527000D01*
X122733391Y-128527000D01*
X122898102Y-128595226D01*
%TA.AperFunction,Conductor*%
D21*
G36*
X122898102Y-128595226D02*
G01*
X123098061Y-128635000D01*
X123301939Y-128635000D01*
X123501898Y-128595226D01*
X123666609Y-128527000D01*
X123713030Y-128527000D01*
X123765026Y-128624276D01*
X123859999Y-128740001D01*
X123975724Y-128834974D01*
X124107754Y-128905546D01*
X124251015Y-128949002D01*
X124305077Y-128954327D01*
X124373750Y-129023000D01*
X125147000Y-129023000D01*
X125147000Y-129277000D01*
X124373750Y-129277000D01*
X124215000Y-129435750D01*
X124212002Y-129865285D01*
X124222366Y-129989939D01*
X124256849Y-130110175D01*
X124314126Y-130221375D01*
X124391997Y-130319263D01*
X124487469Y-130400078D01*
X124596873Y-130460715D01*
X124716004Y-130498844D01*
X124818250Y-130510000D01*
X124955355Y-130372895D01*
X124987469Y-130400078D01*
X125096873Y-130460715D01*
X125149219Y-130477469D01*
X125181750Y-130510000D01*
X125250000Y-130502553D01*
X125318250Y-130510000D01*
X125350781Y-130477469D01*
X125403127Y-130460715D01*
X125500000Y-130407023D01*
X125596873Y-130460715D01*
X125649219Y-130477469D01*
X125681750Y-130510000D01*
X125750000Y-130502553D01*
X125818250Y-130510000D01*
X125850781Y-130477469D01*
X125903127Y-130460715D01*
X126012531Y-130400078D01*
X126024865Y-130389637D01*
X126028838Y-130392898D01*
X126073000Y-130416503D01*
X126073000Y-131115628D01*
X126038685Y-131073815D01*
X125941994Y-130994463D01*
X125831680Y-130935498D01*
X125711982Y-130899188D01*
X125587500Y-130886928D01*
X125285750Y-130890000D01*
X125127000Y-131048750D01*
X125127000Y-132123000D01*
X125147000Y-132123000D01*
X125147000Y-132377000D01*
X125127000Y-132377000D01*
X125127000Y-133451250D01*
X125285750Y-133610000D01*
X125587500Y-133613072D01*
X125711982Y-133600812D01*
X125831680Y-133564502D01*
X125941994Y-133505537D01*
X126038685Y-133426185D01*
X126073000Y-133384372D01*
X126073000Y-133673000D01*
X122727000Y-133673000D01*
X122727000Y-132975000D01*
X123774428Y-132975000D01*
X123786688Y-133099482D01*
X123822998Y-133219180D01*
X123881963Y-133329494D01*
X123961315Y-133426185D01*
X124058006Y-133505537D01*
X124168320Y-133564502D01*
X124288018Y-133600812D01*
X124412500Y-133613072D01*
X124714250Y-133610000D01*
X124873000Y-133451250D01*
X124873000Y-132377000D01*
X123936250Y-132377000D01*
X123777500Y-132535750D01*
X123774428Y-132975000D01*
X122727000Y-132975000D01*
X122727000Y-131525000D01*
X123774428Y-131525000D01*
X123777500Y-131964250D01*
X123936250Y-132123000D01*
X124873000Y-132123000D01*
X124873000Y-131048750D01*
X124714250Y-130890000D01*
X124412500Y-130886928D01*
X124288018Y-130899188D01*
X124168320Y-130935498D01*
X124058006Y-130994463D01*
X123961315Y-131073815D01*
X123881963Y-131170506D01*
X123822998Y-131280820D01*
X123786688Y-131400518D01*
X123774428Y-131525000D01*
X122727000Y-131525000D01*
X122727000Y-128527000D01*
X122733391Y-128527000D01*
X122898102Y-128595226D01*
G37*
%TD.AperFunction*%
%TD*%
M02*
