%TF.GenerationSoftware,KiCad,Pcbnew,5.1.10-8.fc35*%
%TF.CreationDate,2021-11-18T10:19:23+00:00*%
%TF.ProjectId,cryosub_power_converter_top_v02,6372796f-7375-4625-9f70-6f7765725f63,rev?*%
%TF.SameCoordinates,Original*%
%TF.FileFunction,Paste,Bot*%
%TF.FilePolarity,Positive*%
%FSLAX45Y45*%
G04 Gerber Fmt 4.5, Leading zero omitted, Abs format (unit mm)*
G04 Created by KiCad (PCBNEW 5.1.10-8.fc35) date 2021-11-18 10:19:23*
%MOMM*%
%LPD*%
G01*
G04 APERTURE LIST*
%ADD10R,1.000000X3.150000*%
G04 APERTURE END LIST*
%TO.C,D1*%
G36*
G01*
X13047500Y-13323750D02*
X13047500Y-13276250D01*
G75*
G02*
X13071250Y-13252500I23750J0D01*
G01*
X13128750Y-13252500D01*
G75*
G02*
X13152500Y-13276250I0J-23750D01*
G01*
X13152500Y-13323750D01*
G75*
G02*
X13128750Y-13347500I-23750J0D01*
G01*
X13071250Y-13347500D01*
G75*
G02*
X13047500Y-13323750I0J23750D01*
G01*
G37*
G36*
G01*
X12872500Y-13323750D02*
X12872500Y-13276250D01*
G75*
G02*
X12896250Y-13252500I23750J0D01*
G01*
X12953750Y-13252500D01*
G75*
G02*
X12977500Y-13276250I0J-23750D01*
G01*
X12977500Y-13323750D01*
G75*
G02*
X12953750Y-13347500I-23750J0D01*
G01*
X12896250Y-13347500D01*
G75*
G02*
X12872500Y-13323750I0J23750D01*
G01*
G37*
%TD*%
%TO.C,R12*%
G36*
G01*
X11318750Y-12106250D02*
X11318750Y-12153750D01*
G75*
G02*
X11295000Y-12177500I-23750J0D01*
G01*
X11245000Y-12177500D01*
G75*
G02*
X11221250Y-12153750I0J23750D01*
G01*
X11221250Y-12106250D01*
G75*
G02*
X11245000Y-12082500I23750J0D01*
G01*
X11295000Y-12082500D01*
G75*
G02*
X11318750Y-12106250I0J-23750D01*
G01*
G37*
G36*
G01*
X11501250Y-12106250D02*
X11501250Y-12153750D01*
G75*
G02*
X11477500Y-12177500I-23750J0D01*
G01*
X11427500Y-12177500D01*
G75*
G02*
X11403750Y-12153750I0J23750D01*
G01*
X11403750Y-12106250D01*
G75*
G02*
X11427500Y-12082500I23750J0D01*
G01*
X11477500Y-12082500D01*
G75*
G02*
X11501250Y-12106250I0J-23750D01*
G01*
G37*
%TD*%
%TO.C,R11*%
G36*
G01*
X11478750Y-12361250D02*
X11431250Y-12361250D01*
G75*
G02*
X11407500Y-12337500I0J23750D01*
G01*
X11407500Y-12287500D01*
G75*
G02*
X11431250Y-12263750I23750J0D01*
G01*
X11478750Y-12263750D01*
G75*
G02*
X11502500Y-12287500I0J-23750D01*
G01*
X11502500Y-12337500D01*
G75*
G02*
X11478750Y-12361250I-23750J0D01*
G01*
G37*
G36*
G01*
X11478750Y-12543750D02*
X11431250Y-12543750D01*
G75*
G02*
X11407500Y-12520000I0J23750D01*
G01*
X11407500Y-12470000D01*
G75*
G02*
X11431250Y-12446250I23750J0D01*
G01*
X11478750Y-12446250D01*
G75*
G02*
X11502500Y-12470000I0J-23750D01*
G01*
X11502500Y-12520000D01*
G75*
G02*
X11478750Y-12543750I-23750J0D01*
G01*
G37*
%TD*%
%TO.C,D2*%
G36*
G01*
X10985000Y-12523750D02*
X10985000Y-12476250D01*
G75*
G02*
X11008750Y-12452500I23750J0D01*
G01*
X11066250Y-12452500D01*
G75*
G02*
X11090000Y-12476250I0J-23750D01*
G01*
X11090000Y-12523750D01*
G75*
G02*
X11066250Y-12547500I-23750J0D01*
G01*
X11008750Y-12547500D01*
G75*
G02*
X10985000Y-12523750I0J23750D01*
G01*
G37*
G36*
G01*
X10810000Y-12523750D02*
X10810000Y-12476250D01*
G75*
G02*
X10833750Y-12452500I23750J0D01*
G01*
X10891250Y-12452500D01*
G75*
G02*
X10915000Y-12476250I0J-23750D01*
G01*
X10915000Y-12523750D01*
G75*
G02*
X10891250Y-12547500I-23750J0D01*
G01*
X10833750Y-12547500D01*
G75*
G02*
X10810000Y-12523750I0J23750D01*
G01*
G37*
%TD*%
D10*
%TO.C,J2*%
X11708000Y-11052500D03*
X11708000Y-10547500D03*
X11454000Y-11052500D03*
X11454000Y-10547500D03*
X11200000Y-11052500D03*
X11200000Y-10547500D03*
X10946000Y-11052500D03*
X10946000Y-10547500D03*
X10692000Y-11052500D03*
X10692000Y-10547500D03*
%TD*%
%TO.C,R4*%
G36*
G01*
X12426250Y-13876250D02*
X12473750Y-13876250D01*
G75*
G02*
X12497500Y-13900000I0J-23750D01*
G01*
X12497500Y-13950000D01*
G75*
G02*
X12473750Y-13973750I-23750J0D01*
G01*
X12426250Y-13973750D01*
G75*
G02*
X12402500Y-13950000I0J23750D01*
G01*
X12402500Y-13900000D01*
G75*
G02*
X12426250Y-13876250I23750J0D01*
G01*
G37*
G36*
G01*
X12426250Y-13693750D02*
X12473750Y-13693750D01*
G75*
G02*
X12497500Y-13717500I0J-23750D01*
G01*
X12497500Y-13767500D01*
G75*
G02*
X12473750Y-13791250I-23750J0D01*
G01*
X12426250Y-13791250D01*
G75*
G02*
X12402500Y-13767500I0J23750D01*
G01*
X12402500Y-13717500D01*
G75*
G02*
X12426250Y-13693750I23750J0D01*
G01*
G37*
%TD*%
%TO.C,R5*%
G36*
G01*
X11933750Y-13898750D02*
X11933750Y-13851250D01*
G75*
G02*
X11957500Y-13827500I23750J0D01*
G01*
X12007500Y-13827500D01*
G75*
G02*
X12031250Y-13851250I0J-23750D01*
G01*
X12031250Y-13898750D01*
G75*
G02*
X12007500Y-13922500I-23750J0D01*
G01*
X11957500Y-13922500D01*
G75*
G02*
X11933750Y-13898750I0J23750D01*
G01*
G37*
G36*
G01*
X11751250Y-13898750D02*
X11751250Y-13851250D01*
G75*
G02*
X11775000Y-13827500I23750J0D01*
G01*
X11825000Y-13827500D01*
G75*
G02*
X11848750Y-13851250I0J-23750D01*
G01*
X11848750Y-13898750D01*
G75*
G02*
X11825000Y-13922500I-23750J0D01*
G01*
X11775000Y-13922500D01*
G75*
G02*
X11751250Y-13898750I0J23750D01*
G01*
G37*
%TD*%
%TO.C,R6*%
G36*
G01*
X12226250Y-13658750D02*
X12273750Y-13658750D01*
G75*
G02*
X12297500Y-13682500I0J-23750D01*
G01*
X12297500Y-13732500D01*
G75*
G02*
X12273750Y-13756250I-23750J0D01*
G01*
X12226250Y-13756250D01*
G75*
G02*
X12202500Y-13732500I0J23750D01*
G01*
X12202500Y-13682500D01*
G75*
G02*
X12226250Y-13658750I23750J0D01*
G01*
G37*
G36*
G01*
X12226250Y-13476250D02*
X12273750Y-13476250D01*
G75*
G02*
X12297500Y-13500000I0J-23750D01*
G01*
X12297500Y-13550000D01*
G75*
G02*
X12273750Y-13573750I-23750J0D01*
G01*
X12226250Y-13573750D01*
G75*
G02*
X12202500Y-13550000I0J23750D01*
G01*
X12202500Y-13500000D01*
G75*
G02*
X12226250Y-13476250I23750J0D01*
G01*
G37*
%TD*%
%TO.C,R8*%
G36*
G01*
X12023750Y-10781250D02*
X11976250Y-10781250D01*
G75*
G02*
X11952500Y-10757500I0J23750D01*
G01*
X11952500Y-10707500D01*
G75*
G02*
X11976250Y-10683750I23750J0D01*
G01*
X12023750Y-10683750D01*
G75*
G02*
X12047500Y-10707500I0J-23750D01*
G01*
X12047500Y-10757500D01*
G75*
G02*
X12023750Y-10781250I-23750J0D01*
G01*
G37*
G36*
G01*
X12023750Y-10598750D02*
X11976250Y-10598750D01*
G75*
G02*
X11952500Y-10575000I0J23750D01*
G01*
X11952500Y-10525000D01*
G75*
G02*
X11976250Y-10501250I23750J0D01*
G01*
X12023750Y-10501250D01*
G75*
G02*
X12047500Y-10525000I0J-23750D01*
G01*
X12047500Y-10575000D01*
G75*
G02*
X12023750Y-10598750I-23750J0D01*
G01*
G37*
%TD*%
M02*
