M48
; DRILL file {KiCad 5.1.10-8.fc35} date Thu Nov 18 10:19:03 2021
; FORMAT={-:-/ absolute / metric / decimal}
; #@! TF.CreationDate,2021-11-18T10:19:03+00:00
; #@! TF.GenerationSoftware,Kicad,Pcbnew,5.1.10-8.fc35
; #@! TF.FileFunction,Plated,1,4,PTH
FMAT,2
METRIC
T1C0.400
T2C0.500
T3C1.190
%
G90
G05
T1
X107.0Y-103.0
X107.0Y-113.0
X109.46Y-103.04
X109.5Y-113.0
X112.0Y-113.0
X112.78Y-142.78
X116.0Y-136.45
X116.25Y-141.0
X116.748Y-133.689
X118.0Y-137.25
X118.0Y-141.75
X120.0Y-109.0
X121.0Y-134.25
X121.0Y-138.75
X122.5Y-139.75
X123.051Y-138.706
X123.5Y-132.75
X124.0Y-134.75
X125.5Y-134.75
X125.5Y-142.25
X125.95Y-122.85
X125.95Y-124.85
X125.95Y-126.65
X125.95Y-128.25
X125.95Y-130.05
X126.75Y-116.25
X126.75Y-124.05
X129.25Y-116.25
X130.3Y-126.4
X130.7Y-129.5
X130.953Y-124.375
X131.25Y-116.25
X131.95Y-124.05
X131.95Y-125.05
T2
X101.95Y-116.4
X102.0Y-129.25
X102.0Y-138.0
X106.96Y-119.19
X106.96Y-125.04
X109.5Y-119.1
X109.5Y-126.75
X111.3Y-121.3
X112.04Y-119.34
X112.25Y-125.0
X114.55Y-126.3
X114.6Y-119.6
X120.25Y-130.0
X122.25Y-123.0
T3
X126.0Y-103.46
X126.0Y-106.0
X128.75Y-135.5
X131.29Y-135.5
T0
M30
