%TF.GenerationSoftware,KiCad,Pcbnew,5.1.10-8.fc35*%
%TF.CreationDate,2021-11-18T10:19:23+00:00*%
%TF.ProjectId,cryosub_power_converter_top_v02,6372796f-7375-4625-9f70-6f7765725f63,rev?*%
%TF.SameCoordinates,Original*%
%TF.FileFunction,Legend,Bot*%
%TF.FilePolarity,Positive*%
%FSLAX45Y45*%
G04 Gerber Fmt 4.5, Leading zero omitted, Abs format (unit mm)*
G04 Created by KiCad (PCBNEW 5.1.10-8.fc35) date 2021-11-18 10:19:23*
%MOMM*%
%LPD*%
G01*
G04 APERTURE LIST*
%ADD10C,0.120000*%
%ADD11C,0.150000*%
G04 APERTURE END LIST*
D10*
%TO.C,D1*%
X13092500Y-13373500D02*
X12846500Y-13373500D01*
X12846500Y-13373500D02*
X12846500Y-13226500D01*
X12846500Y-13226500D02*
X13092500Y-13226500D01*
%TO.C,R12*%
X11386722Y-12077750D02*
X11335778Y-12077750D01*
X11386722Y-12182250D02*
X11335778Y-12182250D01*
%TO.C,R11*%
X11507250Y-12429222D02*
X11507250Y-12378278D01*
X11402750Y-12429222D02*
X11402750Y-12378278D01*
%TO.C,D2*%
X11030000Y-12573500D02*
X10784000Y-12573500D01*
X10784000Y-12573500D02*
X10784000Y-12426500D01*
X10784000Y-12426500D02*
X11030000Y-12426500D01*
%TO.C,J2*%
X10559000Y-10540000D02*
X10559000Y-11060000D01*
X11841000Y-10540000D02*
X11841000Y-11060000D01*
X10616000Y-10396000D02*
X10616000Y-10540000D01*
X10559000Y-10540000D02*
X10616000Y-10540000D01*
X10559000Y-11060000D02*
X10616000Y-11060000D01*
X11784000Y-10540000D02*
X11841000Y-10540000D01*
X11784000Y-11060000D02*
X11841000Y-11060000D01*
X10768000Y-10540000D02*
X10870000Y-10540000D01*
X10768000Y-11060000D02*
X10870000Y-11060000D01*
X11022000Y-10540000D02*
X11124000Y-10540000D01*
X11022000Y-11060000D02*
X11124000Y-11060000D01*
X11276000Y-10540000D02*
X11378000Y-10540000D01*
X11276000Y-11060000D02*
X11378000Y-11060000D01*
X11530000Y-10540000D02*
X11632000Y-10540000D01*
X11530000Y-11060000D02*
X11632000Y-11060000D01*
%TO.C,R4*%
X12397750Y-13808278D02*
X12397750Y-13859222D01*
X12502250Y-13808278D02*
X12502250Y-13859222D01*
%TO.C,R5*%
X11865778Y-13927250D02*
X11916722Y-13927250D01*
X11865778Y-13822750D02*
X11916722Y-13822750D01*
%TO.C,R6*%
X12197750Y-13590778D02*
X12197750Y-13641722D01*
X12302250Y-13590778D02*
X12302250Y-13641722D01*
%TO.C,R8*%
X11947750Y-10666722D02*
X11947750Y-10615778D01*
X12052250Y-10666722D02*
X12052250Y-10615778D01*
%TO.C,D1*%
D11*
X13073809Y-13190238D02*
X13073809Y-13090238D01*
X13050000Y-13090238D01*
X13035714Y-13095000D01*
X13026190Y-13104524D01*
X13021428Y-13114048D01*
X13016667Y-13133095D01*
X13016667Y-13147381D01*
X13021428Y-13166428D01*
X13026190Y-13175952D01*
X13035714Y-13185476D01*
X13050000Y-13190238D01*
X13073809Y-13190238D01*
X12921428Y-13190238D02*
X12978571Y-13190238D01*
X12950000Y-13190238D02*
X12950000Y-13090238D01*
X12959524Y-13104524D01*
X12969048Y-13114048D01*
X12978571Y-13118809D01*
%TO.C,R12*%
X11425536Y-12032238D02*
X11458869Y-11984619D01*
X11482678Y-12032238D02*
X11482678Y-11932238D01*
X11444583Y-11932238D01*
X11435059Y-11937000D01*
X11430298Y-11941762D01*
X11425536Y-11951286D01*
X11425536Y-11965571D01*
X11430298Y-11975095D01*
X11435059Y-11979857D01*
X11444583Y-11984619D01*
X11482678Y-11984619D01*
X11330298Y-12032238D02*
X11387440Y-12032238D01*
X11358869Y-12032238D02*
X11358869Y-11932238D01*
X11368393Y-11946524D01*
X11377917Y-11956048D01*
X11387440Y-11960809D01*
X11292202Y-11941762D02*
X11287440Y-11937000D01*
X11277917Y-11932238D01*
X11254107Y-11932238D01*
X11244583Y-11937000D01*
X11239821Y-11941762D01*
X11235059Y-11951286D01*
X11235059Y-11960809D01*
X11239821Y-11975095D01*
X11296964Y-12032238D01*
X11235059Y-12032238D01*
%TO.C,R11*%
X11643238Y-12339464D02*
X11595619Y-12306131D01*
X11643238Y-12282321D02*
X11543238Y-12282321D01*
X11543238Y-12320417D01*
X11548000Y-12329940D01*
X11552762Y-12334702D01*
X11562286Y-12339464D01*
X11576571Y-12339464D01*
X11586095Y-12334702D01*
X11590857Y-12329940D01*
X11595619Y-12320417D01*
X11595619Y-12282321D01*
X11643238Y-12434702D02*
X11643238Y-12377559D01*
X11643238Y-12406131D02*
X11543238Y-12406131D01*
X11557524Y-12396607D01*
X11567048Y-12387083D01*
X11571809Y-12377559D01*
X11643238Y-12529940D02*
X11643238Y-12472798D01*
X11643238Y-12501369D02*
X11543238Y-12501369D01*
X11557524Y-12491845D01*
X11567048Y-12482321D01*
X11571809Y-12472798D01*
%TO.C,D2*%
X11023810Y-12688238D02*
X11023810Y-12588238D01*
X11000000Y-12588238D01*
X10985714Y-12593000D01*
X10976190Y-12602524D01*
X10971429Y-12612048D01*
X10966667Y-12631095D01*
X10966667Y-12645381D01*
X10971429Y-12664428D01*
X10976190Y-12673952D01*
X10985714Y-12683476D01*
X11000000Y-12688238D01*
X11023810Y-12688238D01*
X10928571Y-12597762D02*
X10923810Y-12593000D01*
X10914286Y-12588238D01*
X10890476Y-12588238D01*
X10880952Y-12593000D01*
X10876190Y-12597762D01*
X10871429Y-12607286D01*
X10871429Y-12616809D01*
X10876190Y-12631095D01*
X10933333Y-12688238D01*
X10871429Y-12688238D01*
%TO.C,J2*%
X10505238Y-10206667D02*
X10576667Y-10206667D01*
X10590952Y-10201905D01*
X10600476Y-10192381D01*
X10605238Y-10178095D01*
X10605238Y-10168571D01*
X10514762Y-10249524D02*
X10510000Y-10254286D01*
X10505238Y-10263810D01*
X10505238Y-10287619D01*
X10510000Y-10297143D01*
X10514762Y-10301905D01*
X10524286Y-10306667D01*
X10533810Y-10306667D01*
X10548095Y-10301905D01*
X10605238Y-10244762D01*
X10605238Y-10306667D01*
%TO.C,R4*%
X12495238Y-14078333D02*
X12447619Y-14045000D01*
X12495238Y-14021190D02*
X12395238Y-14021190D01*
X12395238Y-14059286D01*
X12400000Y-14068809D01*
X12404762Y-14073571D01*
X12414286Y-14078333D01*
X12428571Y-14078333D01*
X12438095Y-14073571D01*
X12442857Y-14068809D01*
X12447619Y-14059286D01*
X12447619Y-14021190D01*
X12428571Y-14164048D02*
X12495238Y-14164048D01*
X12390476Y-14140238D02*
X12461905Y-14116428D01*
X12461905Y-14178333D01*
%TO.C,R5*%
X11907917Y-14063238D02*
X11941250Y-14015619D01*
X11965059Y-14063238D02*
X11965059Y-13963238D01*
X11926964Y-13963238D01*
X11917440Y-13968000D01*
X11912678Y-13972762D01*
X11907917Y-13982286D01*
X11907917Y-13996571D01*
X11912678Y-14006095D01*
X11917440Y-14010857D01*
X11926964Y-14015619D01*
X11965059Y-14015619D01*
X11817440Y-13963238D02*
X11865059Y-13963238D01*
X11869821Y-14010857D01*
X11865059Y-14006095D01*
X11855536Y-14001333D01*
X11831726Y-14001333D01*
X11822202Y-14006095D01*
X11817440Y-14010857D01*
X11812678Y-14020381D01*
X11812678Y-14044190D01*
X11817440Y-14053714D01*
X11822202Y-14058476D01*
X11831726Y-14063238D01*
X11855536Y-14063238D01*
X11865059Y-14058476D01*
X11869821Y-14053714D01*
%TO.C,R6*%
X12152238Y-13599583D02*
X12104619Y-13566250D01*
X12152238Y-13542440D02*
X12052238Y-13542440D01*
X12052238Y-13580536D01*
X12057000Y-13590059D01*
X12061762Y-13594821D01*
X12071286Y-13599583D01*
X12085571Y-13599583D01*
X12095095Y-13594821D01*
X12099857Y-13590059D01*
X12104619Y-13580536D01*
X12104619Y-13542440D01*
X12052238Y-13685298D02*
X12052238Y-13666250D01*
X12057000Y-13656726D01*
X12061762Y-13651964D01*
X12076048Y-13642440D01*
X12095095Y-13637678D01*
X12133190Y-13637678D01*
X12142714Y-13642440D01*
X12147476Y-13647202D01*
X12152238Y-13656726D01*
X12152238Y-13675774D01*
X12147476Y-13685298D01*
X12142714Y-13690059D01*
X12133190Y-13694821D01*
X12109381Y-13694821D01*
X12099857Y-13690059D01*
X12095095Y-13685298D01*
X12090333Y-13675774D01*
X12090333Y-13656726D01*
X12095095Y-13647202D01*
X12099857Y-13642440D01*
X12109381Y-13637678D01*
%TO.C,R8*%
X12188238Y-10624583D02*
X12140619Y-10591250D01*
X12188238Y-10567440D02*
X12088238Y-10567440D01*
X12088238Y-10605536D01*
X12093000Y-10615060D01*
X12097762Y-10619821D01*
X12107286Y-10624583D01*
X12121571Y-10624583D01*
X12131095Y-10619821D01*
X12135857Y-10615060D01*
X12140619Y-10605536D01*
X12140619Y-10567440D01*
X12131095Y-10681726D02*
X12126333Y-10672202D01*
X12121571Y-10667440D01*
X12112048Y-10662679D01*
X12107286Y-10662679D01*
X12097762Y-10667440D01*
X12093000Y-10672202D01*
X12088238Y-10681726D01*
X12088238Y-10700774D01*
X12093000Y-10710298D01*
X12097762Y-10715060D01*
X12107286Y-10719821D01*
X12112048Y-10719821D01*
X12121571Y-10715060D01*
X12126333Y-10710298D01*
X12131095Y-10700774D01*
X12131095Y-10681726D01*
X12135857Y-10672202D01*
X12140619Y-10667440D01*
X12150143Y-10662679D01*
X12169190Y-10662679D01*
X12178714Y-10667440D01*
X12183476Y-10672202D01*
X12188238Y-10681726D01*
X12188238Y-10700774D01*
X12183476Y-10710298D01*
X12178714Y-10715060D01*
X12169190Y-10719821D01*
X12150143Y-10719821D01*
X12140619Y-10715060D01*
X12135857Y-10710298D01*
X12131095Y-10700774D01*
%TD*%
M02*
