%TF.GenerationSoftware,KiCad,Pcbnew,5.1.10-1.fc34*%
%TF.CreationDate,2021-09-08T08:00:36+01:00*%
%TF.ProjectId,cryosub_power_converter_top_v01,6372796f-7375-4625-9f70-6f7765725f63,rev?*%
%TF.SameCoordinates,Original*%
%TF.FileFunction,Soldermask,Bot*%
%TF.FilePolarity,Negative*%
%FSLAX46Y46*%
G04 Gerber Fmt 4.6, Leading zero omitted, Abs format (unit mm)*
G04 Created by KiCad (PCBNEW 5.1.10-1.fc34) date 2021-09-08 08:00:36*
%MOMM*%
%LPD*%
G01*
G04 APERTURE LIST*
%ADD10R,1.000000X3.150000*%
%ADD11O,2.190000X1.740000*%
%ADD12R,2.500000X1.800000*%
%ADD13R,1.800000X2.500000*%
%ADD14C,2.700000*%
%ADD15O,1.800000X3.600000*%
G04 APERTURE END LIST*
D10*
%TO.C,J2*%
X117080000Y-110525000D03*
X117080000Y-105475000D03*
X114540000Y-110525000D03*
X114540000Y-105475000D03*
X112000000Y-110525000D03*
X112000000Y-105475000D03*
X109460000Y-110525000D03*
X109460000Y-105475000D03*
X106920000Y-110525000D03*
X106920000Y-105475000D03*
%TD*%
D11*
%TO.C,J3*%
X126000000Y-103460000D03*
G36*
G01*
X126845001Y-106870000D02*
X125154999Y-106870000D01*
G75*
G02*
X124905000Y-106620001I0J249999D01*
G01*
X124905000Y-105379999D01*
G75*
G02*
X125154999Y-105130000I249999J0D01*
G01*
X126845001Y-105130000D01*
G75*
G02*
X127095000Y-105379999I0J-249999D01*
G01*
X127095000Y-106620001D01*
G75*
G02*
X126845001Y-106870000I-249999J0D01*
G01*
G37*
%TD*%
D12*
%TO.C,D1*%
X116000000Y-135000000D03*
X120000000Y-135000000D03*
%TD*%
D13*
%TO.C,D2*%
X103000000Y-110000000D03*
X103000000Y-106000000D03*
%TD*%
D14*
%TO.C,H1*%
X104000000Y-141000000D03*
%TD*%
%TO.C,H2*%
X126000000Y-113000000D03*
%TD*%
%TO.C,H3*%
X130000000Y-141000000D03*
%TD*%
%TO.C,J1*%
G36*
G01*
X115100000Y-141550000D02*
X115100000Y-138450000D01*
G75*
G02*
X115350000Y-138200000I250000J0D01*
G01*
X116650000Y-138200000D01*
G75*
G02*
X116900000Y-138450000I0J-250000D01*
G01*
X116900000Y-141550000D01*
G75*
G02*
X116650000Y-141800000I-250000J0D01*
G01*
X115350000Y-141800000D01*
G75*
G02*
X115100000Y-141550000I0J250000D01*
G01*
G37*
D15*
X119810000Y-140000000D03*
%TD*%
%TO.C,R4*%
G36*
G01*
X119762500Y-126012500D02*
X120237500Y-126012500D01*
G75*
G02*
X120475000Y-126250000I0J-237500D01*
G01*
X120475000Y-126750000D01*
G75*
G02*
X120237500Y-126987500I-237500J0D01*
G01*
X119762500Y-126987500D01*
G75*
G02*
X119525000Y-126750000I0J237500D01*
G01*
X119525000Y-126250000D01*
G75*
G02*
X119762500Y-126012500I237500J0D01*
G01*
G37*
G36*
G01*
X119762500Y-124187500D02*
X120237500Y-124187500D01*
G75*
G02*
X120475000Y-124425000I0J-237500D01*
G01*
X120475000Y-124925000D01*
G75*
G02*
X120237500Y-125162500I-237500J0D01*
G01*
X119762500Y-125162500D01*
G75*
G02*
X119525000Y-124925000I0J237500D01*
G01*
X119525000Y-124425000D01*
G75*
G02*
X119762500Y-124187500I237500J0D01*
G01*
G37*
%TD*%
%TO.C,R5*%
G36*
G01*
X114837500Y-126237500D02*
X114837500Y-125762500D01*
G75*
G02*
X115075000Y-125525000I237500J0D01*
G01*
X115575000Y-125525000D01*
G75*
G02*
X115812500Y-125762500I0J-237500D01*
G01*
X115812500Y-126237500D01*
G75*
G02*
X115575000Y-126475000I-237500J0D01*
G01*
X115075000Y-126475000D01*
G75*
G02*
X114837500Y-126237500I0J237500D01*
G01*
G37*
G36*
G01*
X113012500Y-126237500D02*
X113012500Y-125762500D01*
G75*
G02*
X113250000Y-125525000I237500J0D01*
G01*
X113750000Y-125525000D01*
G75*
G02*
X113987500Y-125762500I0J-237500D01*
G01*
X113987500Y-126237500D01*
G75*
G02*
X113750000Y-126475000I-237500J0D01*
G01*
X113250000Y-126475000D01*
G75*
G02*
X113012500Y-126237500I0J237500D01*
G01*
G37*
%TD*%
%TO.C,R6*%
G36*
G01*
X117762500Y-123837500D02*
X118237500Y-123837500D01*
G75*
G02*
X118475000Y-124075000I0J-237500D01*
G01*
X118475000Y-124575000D01*
G75*
G02*
X118237500Y-124812500I-237500J0D01*
G01*
X117762500Y-124812500D01*
G75*
G02*
X117525000Y-124575000I0J237500D01*
G01*
X117525000Y-124075000D01*
G75*
G02*
X117762500Y-123837500I237500J0D01*
G01*
G37*
G36*
G01*
X117762500Y-122012500D02*
X118237500Y-122012500D01*
G75*
G02*
X118475000Y-122250000I0J-237500D01*
G01*
X118475000Y-122750000D01*
G75*
G02*
X118237500Y-122987500I-237500J0D01*
G01*
X117762500Y-122987500D01*
G75*
G02*
X117525000Y-122750000I0J237500D01*
G01*
X117525000Y-122250000D01*
G75*
G02*
X117762500Y-122012500I237500J0D01*
G01*
G37*
%TD*%
%TO.C,R8*%
G36*
G01*
X120237500Y-107812500D02*
X119762500Y-107812500D01*
G75*
G02*
X119525000Y-107575000I0J237500D01*
G01*
X119525000Y-107075000D01*
G75*
G02*
X119762500Y-106837500I237500J0D01*
G01*
X120237500Y-106837500D01*
G75*
G02*
X120475000Y-107075000I0J-237500D01*
G01*
X120475000Y-107575000D01*
G75*
G02*
X120237500Y-107812500I-237500J0D01*
G01*
G37*
G36*
G01*
X120237500Y-105987500D02*
X119762500Y-105987500D01*
G75*
G02*
X119525000Y-105750000I0J237500D01*
G01*
X119525000Y-105250000D01*
G75*
G02*
X119762500Y-105012500I237500J0D01*
G01*
X120237500Y-105012500D01*
G75*
G02*
X120475000Y-105250000I0J-237500D01*
G01*
X120475000Y-105750000D01*
G75*
G02*
X120237500Y-105987500I-237500J0D01*
G01*
G37*
%TD*%
M02*
