M48
; DRILL file {KiCad 5.1.10-1.fc34} date Wed Sep  8 08:00:26 2021
; FORMAT={-:-/ absolute / metric / decimal}
; #@! TF.CreationDate,2021-09-08T08:00:26+01:00
; #@! TF.GenerationSoftware,Kicad,Pcbnew,5.1.10-1.fc34
; #@! TF.FileFunction,Plated,1,4,PTH
FMAT,2
METRIC
T1C0.400
T2C1.190
T3C1.200
%
G90
G05
T1
X103.0Y-104.0
X103.0Y-112.5
X107.0Y-103.0
X107.0Y-113.0
X107.28Y-127.28
X109.46Y-103.04
X109.5Y-113.0
X110.5Y-122.0
X110.5Y-127.5
X111.5Y-120.0
X112.0Y-113.0
X113.5Y-124.5
X113.5Y-129.0
X116.5Y-121.5
X116.5Y-126.0
X118.0Y-127.0
X118.551Y-125.956
X119.0Y-120.0
X119.5Y-122.0
X120.0Y-109.0
X121.0Y-122.0
X121.0Y-129.5
X123.2Y-125.6
X123.2Y-127.6
X123.2Y-129.4
X123.2Y-131.0
X123.2Y-132.8
X124.0Y-119.0
X124.0Y-126.8
X126.5Y-119.0
X127.55Y-129.15
X127.95Y-132.25
X128.203Y-127.125
X128.5Y-119.0
X129.2Y-126.8
X129.2Y-127.8
T2
X126.0Y-103.46
X126.0Y-106.0
T3
X116.0Y-140.0
X119.81Y-140.0
T0
M30
