%TF.GenerationSoftware,KiCad,Pcbnew,5.1.12-1.fc35*%
%TF.CreationDate,2022-01-08T17:43:18+00:00*%
%TF.ProjectId,cryosub_power_converter_top_v03,6372796f-7375-4625-9f70-6f7765725f63,rev?*%
%TF.SameCoordinates,Original*%
%TF.FileFunction,Copper,L1,Top*%
%TF.FilePolarity,Positive*%
%FSLAX45Y45*%
G04 Gerber Fmt 4.5, Leading zero omitted, Abs format (unit mm)*
G04 Created by KiCad (PCBNEW 5.1.12-1.fc35) date 2022-01-08 17:43:18*
%MOMM*%
%LPD*%
G01*
G04 APERTURE LIST*
%TA.AperFunction,ComponentPad*%
%ADD10C,1.700000*%
%TD*%
%TA.AperFunction,SMDPad,CuDef*%
%ADD11R,1.244600X1.244600*%
%TD*%
%TA.AperFunction,SMDPad,CuDef*%
%ADD12R,0.254800X0.807999*%
%TD*%
%TA.AperFunction,SMDPad,CuDef*%
%ADD13R,0.807999X0.254800*%
%TD*%
%TA.AperFunction,SMDPad,CuDef*%
%ADD14R,1.752600X2.946400*%
%TD*%
%TA.AperFunction,SMDPad,CuDef*%
%ADD15R,1.327899X0.279400*%
%TD*%
%TA.AperFunction,SMDPad,CuDef*%
%ADD16R,3.200001X1.000001*%
%TD*%
%TA.AperFunction,SMDPad,CuDef*%
%ADD17R,1.000001X3.200001*%
%TD*%
%TA.AperFunction,ComponentPad*%
%ADD18C,4.700000*%
%TD*%
%TA.AperFunction,ComponentPad*%
%ADD19C,1.400000*%
%TD*%
%TA.AperFunction,SMDPad,CuDef*%
%ADD20R,1.300000X1.700000*%
%TD*%
%TA.AperFunction,ComponentPad*%
%ADD21C,1.000000*%
%TD*%
%TA.AperFunction,SMDPad,CuDef*%
%ADD22R,0.900000X0.800000*%
%TD*%
%TA.AperFunction,SMDPad,CuDef*%
%ADD23R,1.200000X2.200000*%
%TD*%
%TA.AperFunction,SMDPad,CuDef*%
%ADD24R,5.800000X6.400000*%
%TD*%
%TA.AperFunction,SMDPad,CuDef*%
%ADD25R,1.880000X1.680000*%
%TD*%
%TA.AperFunction,ViaPad*%
%ADD26C,0.500000*%
%TD*%
%TA.AperFunction,ViaPad*%
%ADD27C,0.800000*%
%TD*%
%TA.AperFunction,ViaPad*%
%ADD28C,0.900000*%
%TD*%
%TA.AperFunction,Conductor*%
%ADD29C,0.250000*%
%TD*%
%TA.AperFunction,Conductor*%
%ADD30C,0.500000*%
%TD*%
%TA.AperFunction,Conductor*%
%ADD31C,0.150000*%
%TD*%
%TA.AperFunction,Conductor*%
%ADD32C,0.254000*%
%TD*%
%TA.AperFunction,Conductor*%
%ADD33C,0.100000*%
%TD*%
G04 APERTURE END LIST*
D10*
%TO.P,J1,8*%
%TO.N,GND*%
X13162000Y-10346000D03*
%TO.P,J1,6*%
X12908000Y-10346000D03*
%TO.P,J1,4*%
X12654000Y-10346000D03*
%TO.P,J1,2*%
X12400000Y-10346000D03*
%TO.P,J1,7*%
%TO.N,VDC*%
X13162000Y-10600000D03*
%TO.P,J1,5*%
%TO.N,/p5v_out*%
X12908000Y-10600000D03*
%TO.P,J1,3*%
%TO.N,/sipm_bias*%
X12654000Y-10600000D03*
%TO.P,J1,1*%
%TO.N,/vcont*%
%TA.AperFunction,ComponentPad*%
G36*
G01*
X12460000Y-10685000D02*
X12340000Y-10685000D01*
G75*
G02*
X12315000Y-10660000I0J25000D01*
G01*
X12315000Y-10540000D01*
G75*
G02*
X12340000Y-10515000I25000J0D01*
G01*
X12460000Y-10515000D01*
G75*
G02*
X12485000Y-10540000I0J-25000D01*
G01*
X12485000Y-10660000D01*
G75*
G02*
X12460000Y-10685000I-25000J0D01*
G01*
G37*
%TD.AperFunction*%
%TD*%
%TO.P,C9,2*%
%TO.N,GND*%
%TA.AperFunction,SMDPad,CuDef*%
G36*
G01*
X11917500Y-12907500D02*
X11917500Y-12957500D01*
G75*
G02*
X11895000Y-12980000I-22500J0D01*
G01*
X11850000Y-12980000D01*
G75*
G02*
X11827500Y-12957500I0J22500D01*
G01*
X11827500Y-12907500D01*
G75*
G02*
X11850000Y-12885000I22500J0D01*
G01*
X11895000Y-12885000D01*
G75*
G02*
X11917500Y-12907500I0J-22500D01*
G01*
G37*
%TD.AperFunction*%
%TO.P,C9,1*%
%TO.N,/dc_dc/vcc*%
%TA.AperFunction,SMDPad,CuDef*%
G36*
G01*
X12072500Y-12907500D02*
X12072500Y-12957500D01*
G75*
G02*
X12050000Y-12980000I-22500J0D01*
G01*
X12005000Y-12980000D01*
G75*
G02*
X11982500Y-12957500I0J22500D01*
G01*
X11982500Y-12907500D01*
G75*
G02*
X12005000Y-12885000I22500J0D01*
G01*
X12050000Y-12885000D01*
G75*
G02*
X12072500Y-12907500I0J-22500D01*
G01*
G37*
%TD.AperFunction*%
%TD*%
D11*
%TO.P,U2,17*%
%TO.N,GND*%
X10650000Y-12057500D03*
D12*
%TO.P,U2,16*%
X10575000Y-11912960D03*
%TO.P,U2,15*%
%TO.N,Net-(D3-Pad2)*%
X10625000Y-11912960D03*
%TO.P,U2,14*%
X10675000Y-11912960D03*
%TO.P,U2,13*%
%TO.N,Net-(C13-Pad1)*%
X10725000Y-11912960D03*
D13*
%TO.P,U2,12*%
%TO.N,Net-(L5-Pad2)*%
X10794540Y-11982500D03*
%TO.P,U2,11*%
%TO.N,Net-(U2-Pad11)*%
X10794540Y-12032500D03*
%TO.P,U2,10*%
%TO.N,/sipm_dcdc/imon*%
X10794540Y-12082500D03*
%TO.P,U2,9*%
%TO.N,Net-(R13-Pad1)*%
X10794540Y-12132500D03*
D12*
%TO.P,U2,8*%
%TO.N,GND*%
X10725000Y-12202040D03*
%TO.P,U2,7*%
%TO.N,/sipm_dcdc/ilim\u002A*%
X10675000Y-12202040D03*
%TO.P,U2,6*%
%TO.N,Net-(C11-Pad1)*%
X10625000Y-12202040D03*
%TO.P,U2,5*%
%TO.N,Net-(R15-Pad2)*%
X10575000Y-12202040D03*
D13*
%TO.P,U2,4*%
%TO.N,GND*%
X10505460Y-12132500D03*
%TO.P,U2,3*%
%TO.N,+5V*%
X10505460Y-12082500D03*
%TO.P,U2,2*%
%TO.N,Net-(C11-Pad1)*%
X10505460Y-12032500D03*
%TO.P,U2,1*%
%TO.N,GND*%
X10505460Y-11982500D03*
%TD*%
D14*
%TO.P,U3,EPAD*%
%TO.N,GND*%
X11780000Y-12620000D03*
D15*
%TO.P,U3,16*%
%TO.N,Net-(C17-Pad1)*%
X11558665Y-12795133D03*
%TO.P,U3,15*%
%TO.N,Net-(C14-Pad2)*%
X11558665Y-12745095D03*
%TO.P,U3,14*%
%TO.N,Net-(C14-Pad1)*%
X11558665Y-12695057D03*
%TO.P,U3,13*%
%TO.N,GND*%
X11558665Y-12645019D03*
%TO.P,U3,12*%
%TO.N,Net-(C15-Pad1)*%
X11558665Y-12594981D03*
%TO.P,U3,11*%
%TO.N,Net-(C15-Pad2)*%
X11558665Y-12544943D03*
%TO.P,U3,10*%
%TO.N,+5V*%
X11558665Y-12494905D03*
%TO.P,U3,9*%
%TO.N,/dc_dc/pgood*%
X11558665Y-12444867D03*
%TO.P,U3,8*%
%TO.N,/dc_dc/vcc*%
X12001335Y-12444867D03*
%TO.P,U3,7*%
%TO.N,Net-(U3-Pad7)*%
X12001335Y-12494905D03*
%TO.P,U3,6*%
%TO.N,Net-(U3-Pad6)*%
X12001335Y-12544943D03*
%TO.P,U3,5*%
%TO.N,Net-(C16-Pad2)*%
X12001335Y-12594981D03*
%TO.P,U3,4*%
%TO.N,GND*%
X12001335Y-12645019D03*
%TO.P,U3,3*%
%TO.N,Net-(R11-Pad2)*%
X12001335Y-12695057D03*
%TO.P,U3,2*%
%TO.N,Net-(C17-Pad1)*%
X12001335Y-12745095D03*
%TO.P,U3,1*%
%TO.N,/dc_dc/vcc*%
X12001335Y-12795133D03*
%TD*%
D16*
%TO.P,L2,2*%
%TO.N,Net-(C15-Pad1)*%
X11252500Y-12597500D03*
%TO.P,L2,1*%
%TO.N,Net-(C14-Pad1)*%
X11252500Y-12817500D03*
%TD*%
D17*
%TO.P,L3,2*%
%TO.N,Net-(C11-Pad1)*%
X10430000Y-11660000D03*
%TO.P,L3,1*%
%TO.N,Net-(D3-Pad2)*%
X10650000Y-11660000D03*
%TD*%
D18*
%TO.P,H3,1*%
%TO.N,GND*%
X13000000Y-14100000D03*
%TD*%
%TO.P,H2,1*%
%TO.N,GND*%
X12600000Y-11300000D03*
%TD*%
%TO.P,H1,1*%
%TO.N,GND*%
X10400000Y-14100000D03*
%TD*%
D19*
%TO.P,TP2,2*%
%TO.N,GND*%
X10900000Y-12900000D03*
%TO.P,TP2,1*%
%TO.N,/vcont*%
X10646000Y-12900000D03*
%TD*%
%TO.P,R21,2*%
%TO.N,Net-(C19-Pad1)*%
%TA.AperFunction,SMDPad,CuDef*%
G36*
G01*
X10440000Y-12672500D02*
X10440000Y-12727500D01*
G75*
G02*
X10420000Y-12747500I-20000J0D01*
G01*
X10380000Y-12747500D01*
G75*
G02*
X10360000Y-12727500I0J20000D01*
G01*
X10360000Y-12672500D01*
G75*
G02*
X10380000Y-12652500I20000J0D01*
G01*
X10420000Y-12652500D01*
G75*
G02*
X10440000Y-12672500I0J-20000D01*
G01*
G37*
%TD.AperFunction*%
%TO.P,R21,1*%
%TO.N,/vcont*%
%TA.AperFunction,SMDPad,CuDef*%
G36*
G01*
X10605000Y-12672500D02*
X10605000Y-12727500D01*
G75*
G02*
X10585000Y-12747500I-20000J0D01*
G01*
X10545000Y-12747500D01*
G75*
G02*
X10525000Y-12727500I0J20000D01*
G01*
X10525000Y-12672500D01*
G75*
G02*
X10545000Y-12652500I20000J0D01*
G01*
X10585000Y-12652500D01*
G75*
G02*
X10605000Y-12672500I0J-20000D01*
G01*
G37*
%TD.AperFunction*%
%TD*%
%TO.P,R20,2*%
%TO.N,Net-(R15-Pad2)*%
%TA.AperFunction,SMDPad,CuDef*%
G36*
G01*
X10525000Y-12527500D02*
X10525000Y-12472500D01*
G75*
G02*
X10545000Y-12452500I20000J0D01*
G01*
X10585000Y-12452500D01*
G75*
G02*
X10605000Y-12472500I0J-20000D01*
G01*
X10605000Y-12527500D01*
G75*
G02*
X10585000Y-12547500I-20000J0D01*
G01*
X10545000Y-12547500D01*
G75*
G02*
X10525000Y-12527500I0J20000D01*
G01*
G37*
%TD.AperFunction*%
%TO.P,R20,1*%
%TO.N,Net-(C19-Pad1)*%
%TA.AperFunction,SMDPad,CuDef*%
G36*
G01*
X10360000Y-12527500D02*
X10360000Y-12472500D01*
G75*
G02*
X10380000Y-12452500I20000J0D01*
G01*
X10420000Y-12452500D01*
G75*
G02*
X10440000Y-12472500I0J-20000D01*
G01*
X10440000Y-12527500D01*
G75*
G02*
X10420000Y-12547500I-20000J0D01*
G01*
X10380000Y-12547500D01*
G75*
G02*
X10360000Y-12527500I0J20000D01*
G01*
G37*
%TD.AperFunction*%
%TD*%
%TO.P,C19,2*%
%TO.N,GND*%
%TA.AperFunction,SMDPad,CuDef*%
G36*
G01*
X10225000Y-12805000D02*
X10275000Y-12805000D01*
G75*
G02*
X10297500Y-12827500I0J-22500D01*
G01*
X10297500Y-12872500D01*
G75*
G02*
X10275000Y-12895000I-22500J0D01*
G01*
X10225000Y-12895000D01*
G75*
G02*
X10202500Y-12872500I0J22500D01*
G01*
X10202500Y-12827500D01*
G75*
G02*
X10225000Y-12805000I22500J0D01*
G01*
G37*
%TD.AperFunction*%
%TO.P,C19,1*%
%TO.N,Net-(C19-Pad1)*%
%TA.AperFunction,SMDPad,CuDef*%
G36*
G01*
X10225000Y-12650000D02*
X10275000Y-12650000D01*
G75*
G02*
X10297500Y-12672500I0J-22500D01*
G01*
X10297500Y-12717500D01*
G75*
G02*
X10275000Y-12740000I-22500J0D01*
G01*
X10225000Y-12740000D01*
G75*
G02*
X10202500Y-12717500I0J22500D01*
G01*
X10202500Y-12672500D01*
G75*
G02*
X10225000Y-12650000I22500J0D01*
G01*
G37*
%TD.AperFunction*%
%TD*%
%TO.P,L5,2*%
%TO.N,Net-(L5-Pad2)*%
%TA.AperFunction,SMDPad,CuDef*%
G36*
G01*
X11566875Y-11857500D02*
X11618125Y-11857500D01*
G75*
G02*
X11640000Y-11879375I0J-21875D01*
G01*
X11640000Y-11923125D01*
G75*
G02*
X11618125Y-11945000I-21875J0D01*
G01*
X11566875Y-11945000D01*
G75*
G02*
X11545000Y-11923125I0J21875D01*
G01*
X11545000Y-11879375D01*
G75*
G02*
X11566875Y-11857500I21875J0D01*
G01*
G37*
%TD.AperFunction*%
%TO.P,L5,1*%
%TO.N,/sipm_bias*%
%TA.AperFunction,SMDPad,CuDef*%
G36*
G01*
X11566875Y-11700000D02*
X11618125Y-11700000D01*
G75*
G02*
X11640000Y-11721875I0J-21875D01*
G01*
X11640000Y-11765625D01*
G75*
G02*
X11618125Y-11787500I-21875J0D01*
G01*
X11566875Y-11787500D01*
G75*
G02*
X11545000Y-11765625I0J21875D01*
G01*
X11545000Y-11721875D01*
G75*
G02*
X11566875Y-11700000I21875J0D01*
G01*
G37*
%TD.AperFunction*%
%TD*%
%TO.P,C18,2*%
%TO.N,GND*%
%TA.AperFunction,SMDPad,CuDef*%
G36*
G01*
X11420000Y-11852500D02*
X11470000Y-11852500D01*
G75*
G02*
X11492500Y-11875000I0J-22500D01*
G01*
X11492500Y-11920000D01*
G75*
G02*
X11470000Y-11942500I-22500J0D01*
G01*
X11420000Y-11942500D01*
G75*
G02*
X11397500Y-11920000I0J22500D01*
G01*
X11397500Y-11875000D01*
G75*
G02*
X11420000Y-11852500I22500J0D01*
G01*
G37*
%TD.AperFunction*%
%TO.P,C18,1*%
%TO.N,/sipm_bias*%
%TA.AperFunction,SMDPad,CuDef*%
G36*
G01*
X11420000Y-11697500D02*
X11470000Y-11697500D01*
G75*
G02*
X11492500Y-11720000I0J-22500D01*
G01*
X11492500Y-11765000D01*
G75*
G02*
X11470000Y-11787500I-22500J0D01*
G01*
X11420000Y-11787500D01*
G75*
G02*
X11397500Y-11765000I0J22500D01*
G01*
X11397500Y-11720000D01*
G75*
G02*
X11420000Y-11697500I22500J0D01*
G01*
G37*
%TD.AperFunction*%
%TD*%
%TO.P,C17,2*%
%TO.N,GND*%
%TA.AperFunction,SMDPad,CuDef*%
G36*
G01*
X11705000Y-12922000D02*
X11705000Y-12888000D01*
G75*
G02*
X11719000Y-12874000I14000J0D01*
G01*
X11747000Y-12874000D01*
G75*
G02*
X11761000Y-12888000I0J-14000D01*
G01*
X11761000Y-12922000D01*
G75*
G02*
X11747000Y-12936000I-14000J0D01*
G01*
X11719000Y-12936000D01*
G75*
G02*
X11705000Y-12922000I0J14000D01*
G01*
G37*
%TD.AperFunction*%
%TO.P,C17,1*%
%TO.N,Net-(C17-Pad1)*%
%TA.AperFunction,SMDPad,CuDef*%
G36*
G01*
X11609000Y-12922000D02*
X11609000Y-12888000D01*
G75*
G02*
X11623000Y-12874000I14000J0D01*
G01*
X11651000Y-12874000D01*
G75*
G02*
X11665000Y-12888000I0J-14000D01*
G01*
X11665000Y-12922000D01*
G75*
G02*
X11651000Y-12936000I-14000J0D01*
G01*
X11623000Y-12936000D01*
G75*
G02*
X11609000Y-12922000I0J14000D01*
G01*
G37*
%TD.AperFunction*%
%TD*%
D20*
%TO.P,D3,2*%
%TO.N,Net-(D3-Pad2)*%
X10862500Y-11675000D03*
%TO.P,D3,1*%
%TO.N,Net-(C12-Pad1)*%
X11212500Y-11675000D03*
%TD*%
D21*
%TO.P,TP1,1*%
%TO.N,/sipm_dcdc/imon*%
X11302500Y-12165000D03*
%TD*%
%TO.P,C8,2*%
%TO.N,GND*%
%TA.AperFunction,SMDPad,CuDef*%
G36*
G01*
X11721250Y-12332500D02*
X11721250Y-12237500D01*
G75*
G02*
X11746250Y-12212500I25000J0D01*
G01*
X11813750Y-12212500D01*
G75*
G02*
X11838750Y-12237500I0J-25000D01*
G01*
X11838750Y-12332500D01*
G75*
G02*
X11813750Y-12357500I-25000J0D01*
G01*
X11746250Y-12357500D01*
G75*
G02*
X11721250Y-12332500I0J25000D01*
G01*
G37*
%TD.AperFunction*%
%TO.P,C8,1*%
%TO.N,+5V*%
%TA.AperFunction,SMDPad,CuDef*%
G36*
G01*
X11513750Y-12332500D02*
X11513750Y-12237500D01*
G75*
G02*
X11538750Y-12212500I25000J0D01*
G01*
X11606250Y-12212500D01*
G75*
G02*
X11631250Y-12237500I0J-25000D01*
G01*
X11631250Y-12332500D01*
G75*
G02*
X11606250Y-12357500I-25000J0D01*
G01*
X11538750Y-12357500D01*
G75*
G02*
X11513750Y-12332500I0J25000D01*
G01*
G37*
%TD.AperFunction*%
%TD*%
%TO.P,C16,2*%
%TO.N,Net-(C16-Pad2)*%
%TA.AperFunction,SMDPad,CuDef*%
G36*
G01*
X12230000Y-12458000D02*
X12230000Y-12492000D01*
G75*
G02*
X12216000Y-12506000I-14000J0D01*
G01*
X12188000Y-12506000D01*
G75*
G02*
X12174000Y-12492000I0J14000D01*
G01*
X12174000Y-12458000D01*
G75*
G02*
X12188000Y-12444000I14000J0D01*
G01*
X12216000Y-12444000D01*
G75*
G02*
X12230000Y-12458000I0J-14000D01*
G01*
G37*
%TD.AperFunction*%
%TO.P,C16,1*%
%TO.N,+5V*%
%TA.AperFunction,SMDPad,CuDef*%
G36*
G01*
X12326000Y-12458000D02*
X12326000Y-12492000D01*
G75*
G02*
X12312000Y-12506000I-14000J0D01*
G01*
X12284000Y-12506000D01*
G75*
G02*
X12270000Y-12492000I0J14000D01*
G01*
X12270000Y-12458000D01*
G75*
G02*
X12284000Y-12444000I14000J0D01*
G01*
X12312000Y-12444000D01*
G75*
G02*
X12326000Y-12458000I0J-14000D01*
G01*
G37*
%TD.AperFunction*%
%TD*%
%TO.P,R16,2*%
%TO.N,GND*%
%TA.AperFunction,SMDPad,CuDef*%
G36*
G01*
X10895000Y-12274000D02*
X10895000Y-12311000D01*
G75*
G02*
X10881500Y-12324500I-13500J0D01*
G01*
X10854500Y-12324500D01*
G75*
G02*
X10841000Y-12311000I0J13500D01*
G01*
X10841000Y-12274000D01*
G75*
G02*
X10854500Y-12260500I13500J0D01*
G01*
X10881500Y-12260500D01*
G75*
G02*
X10895000Y-12274000I0J-13500D01*
G01*
G37*
%TD.AperFunction*%
%TO.P,R16,1*%
%TO.N,Net-(R15-Pad2)*%
%TA.AperFunction,SMDPad,CuDef*%
G36*
G01*
X10997000Y-12274000D02*
X10997000Y-12311000D01*
G75*
G02*
X10983500Y-12324500I-13500J0D01*
G01*
X10956500Y-12324500D01*
G75*
G02*
X10943000Y-12311000I0J13500D01*
G01*
X10943000Y-12274000D01*
G75*
G02*
X10956500Y-12260500I13500J0D01*
G01*
X10983500Y-12260500D01*
G75*
G02*
X10997000Y-12274000I0J-13500D01*
G01*
G37*
%TD.AperFunction*%
%TD*%
%TO.P,R14,2*%
%TO.N,GND*%
%TA.AperFunction,SMDPad,CuDef*%
G36*
G01*
X10909000Y-12137500D02*
X10946000Y-12137500D01*
G75*
G02*
X10959500Y-12151000I0J-13500D01*
G01*
X10959500Y-12178000D01*
G75*
G02*
X10946000Y-12191500I-13500J0D01*
G01*
X10909000Y-12191500D01*
G75*
G02*
X10895500Y-12178000I0J13500D01*
G01*
X10895500Y-12151000D01*
G75*
G02*
X10909000Y-12137500I13500J0D01*
G01*
G37*
%TD.AperFunction*%
%TO.P,R14,1*%
%TO.N,/sipm_dcdc/imon*%
%TA.AperFunction,SMDPad,CuDef*%
G36*
G01*
X10909000Y-12035500D02*
X10946000Y-12035500D01*
G75*
G02*
X10959500Y-12049000I0J-13500D01*
G01*
X10959500Y-12076000D01*
G75*
G02*
X10946000Y-12089500I-13500J0D01*
G01*
X10909000Y-12089500D01*
G75*
G02*
X10895500Y-12076000I0J13500D01*
G01*
X10895500Y-12049000D01*
G75*
G02*
X10909000Y-12035500I13500J0D01*
G01*
G37*
%TD.AperFunction*%
%TD*%
%TO.P,L4,2*%
%TO.N,+5V*%
%TA.AperFunction,SMDPad,CuDef*%
G36*
G01*
X10221250Y-12021875D02*
X10221250Y-12073125D01*
G75*
G02*
X10199375Y-12095000I-21875J0D01*
G01*
X10155625Y-12095000D01*
G75*
G02*
X10133750Y-12073125I0J21875D01*
G01*
X10133750Y-12021875D01*
G75*
G02*
X10155625Y-12000000I21875J0D01*
G01*
X10199375Y-12000000D01*
G75*
G02*
X10221250Y-12021875I0J-21875D01*
G01*
G37*
%TD.AperFunction*%
%TO.P,L4,1*%
%TO.N,Net-(C11-Pad1)*%
%TA.AperFunction,SMDPad,CuDef*%
G36*
G01*
X10378750Y-12021875D02*
X10378750Y-12073125D01*
G75*
G02*
X10356875Y-12095000I-21875J0D01*
G01*
X10313125Y-12095000D01*
G75*
G02*
X10291250Y-12073125I0J21875D01*
G01*
X10291250Y-12021875D01*
G75*
G02*
X10313125Y-12000000I21875J0D01*
G01*
X10356875Y-12000000D01*
G75*
G02*
X10378750Y-12021875I0J-21875D01*
G01*
G37*
%TD.AperFunction*%
%TD*%
%TO.P,C15,2*%
%TO.N,Net-(C15-Pad2)*%
%TA.AperFunction,SMDPad,CuDef*%
G36*
G01*
X11340000Y-12375000D02*
X11340000Y-12325000D01*
G75*
G02*
X11362500Y-12302500I22500J0D01*
G01*
X11407500Y-12302500D01*
G75*
G02*
X11430000Y-12325000I0J-22500D01*
G01*
X11430000Y-12375000D01*
G75*
G02*
X11407500Y-12397500I-22500J0D01*
G01*
X11362500Y-12397500D01*
G75*
G02*
X11340000Y-12375000I0J22500D01*
G01*
G37*
%TD.AperFunction*%
%TO.P,C15,1*%
%TO.N,Net-(C15-Pad1)*%
%TA.AperFunction,SMDPad,CuDef*%
G36*
G01*
X11185000Y-12375000D02*
X11185000Y-12325000D01*
G75*
G02*
X11207500Y-12302500I22500J0D01*
G01*
X11252500Y-12302500D01*
G75*
G02*
X11275000Y-12325000I0J-22500D01*
G01*
X11275000Y-12375000D01*
G75*
G02*
X11252500Y-12397500I-22500J0D01*
G01*
X11207500Y-12397500D01*
G75*
G02*
X11185000Y-12375000I0J22500D01*
G01*
G37*
%TD.AperFunction*%
%TD*%
%TO.P,C14,2*%
%TO.N,Net-(C14-Pad2)*%
%TA.AperFunction,SMDPad,CuDef*%
G36*
G01*
X11300000Y-13035000D02*
X11300000Y-12985000D01*
G75*
G02*
X11322500Y-12962500I22500J0D01*
G01*
X11367500Y-12962500D01*
G75*
G02*
X11390000Y-12985000I0J-22500D01*
G01*
X11390000Y-13035000D01*
G75*
G02*
X11367500Y-13057500I-22500J0D01*
G01*
X11322500Y-13057500D01*
G75*
G02*
X11300000Y-13035000I0J22500D01*
G01*
G37*
%TD.AperFunction*%
%TO.P,C14,1*%
%TO.N,Net-(C14-Pad1)*%
%TA.AperFunction,SMDPad,CuDef*%
G36*
G01*
X11145000Y-13035000D02*
X11145000Y-12985000D01*
G75*
G02*
X11167500Y-12962500I22500J0D01*
G01*
X11212500Y-12962500D01*
G75*
G02*
X11235000Y-12985000I0J-22500D01*
G01*
X11235000Y-13035000D01*
G75*
G02*
X11212500Y-13057500I-22500J0D01*
G01*
X11167500Y-13057500D01*
G75*
G02*
X11145000Y-13035000I0J22500D01*
G01*
G37*
%TD.AperFunction*%
%TD*%
%TO.P,C12,2*%
%TO.N,GND*%
%TA.AperFunction,SMDPad,CuDef*%
G36*
G01*
X10977500Y-11845000D02*
X10977500Y-11895000D01*
G75*
G02*
X10955000Y-11917500I-22500J0D01*
G01*
X10910000Y-11917500D01*
G75*
G02*
X10887500Y-11895000I0J22500D01*
G01*
X10887500Y-11845000D01*
G75*
G02*
X10910000Y-11822500I22500J0D01*
G01*
X10955000Y-11822500D01*
G75*
G02*
X10977500Y-11845000I0J-22500D01*
G01*
G37*
%TD.AperFunction*%
%TO.P,C12,1*%
%TO.N,Net-(C12-Pad1)*%
%TA.AperFunction,SMDPad,CuDef*%
G36*
G01*
X11132500Y-11845000D02*
X11132500Y-11895000D01*
G75*
G02*
X11110000Y-11917500I-22500J0D01*
G01*
X11065000Y-11917500D01*
G75*
G02*
X11042500Y-11895000I0J22500D01*
G01*
X11042500Y-11845000D01*
G75*
G02*
X11065000Y-11822500I22500J0D01*
G01*
X11110000Y-11822500D01*
G75*
G02*
X11132500Y-11845000I0J-22500D01*
G01*
G37*
%TD.AperFunction*%
%TD*%
%TO.P,C10,2*%
%TO.N,GND*%
%TA.AperFunction,SMDPad,CuDef*%
G36*
G01*
X10150000Y-12360000D02*
X10200000Y-12360000D01*
G75*
G02*
X10222500Y-12382500I0J-22500D01*
G01*
X10222500Y-12427500D01*
G75*
G02*
X10200000Y-12450000I-22500J0D01*
G01*
X10150000Y-12450000D01*
G75*
G02*
X10127500Y-12427500I0J22500D01*
G01*
X10127500Y-12382500D01*
G75*
G02*
X10150000Y-12360000I22500J0D01*
G01*
G37*
%TD.AperFunction*%
%TO.P,C10,1*%
%TO.N,+5V*%
%TA.AperFunction,SMDPad,CuDef*%
G36*
G01*
X10150000Y-12205000D02*
X10200000Y-12205000D01*
G75*
G02*
X10222500Y-12227500I0J-22500D01*
G01*
X10222500Y-12272500D01*
G75*
G02*
X10200000Y-12295000I-22500J0D01*
G01*
X10150000Y-12295000D01*
G75*
G02*
X10127500Y-12272500I0J22500D01*
G01*
X10127500Y-12227500D01*
G75*
G02*
X10150000Y-12205000I22500J0D01*
G01*
G37*
%TD.AperFunction*%
%TD*%
%TO.P,D1,2*%
%TO.N,GND*%
%TA.AperFunction,SMDPad,CuDef*%
G36*
G01*
X12910000Y-13248750D02*
X12910000Y-13201250D01*
G75*
G02*
X12933750Y-13177500I23750J0D01*
G01*
X12991250Y-13177500D01*
G75*
G02*
X13015000Y-13201250I0J-23750D01*
G01*
X13015000Y-13248750D01*
G75*
G02*
X12991250Y-13272500I-23750J0D01*
G01*
X12933750Y-13272500D01*
G75*
G02*
X12910000Y-13248750I0J23750D01*
G01*
G37*
%TD.AperFunction*%
%TO.P,D1,1*%
%TO.N,VDC*%
%TA.AperFunction,SMDPad,CuDef*%
G36*
G01*
X12735000Y-13248750D02*
X12735000Y-13201250D01*
G75*
G02*
X12758750Y-13177500I23750J0D01*
G01*
X12816250Y-13177500D01*
G75*
G02*
X12840000Y-13201250I0J-23750D01*
G01*
X12840000Y-13248750D01*
G75*
G02*
X12816250Y-13272500I-23750J0D01*
G01*
X12758750Y-13272500D01*
G75*
G02*
X12735000Y-13248750I0J23750D01*
G01*
G37*
%TD.AperFunction*%
%TD*%
%TO.P,L1,2*%
%TO.N,/vload*%
%TA.AperFunction,SMDPad,CuDef*%
G36*
G01*
X10426250Y-13372500D02*
X10473750Y-13372500D01*
G75*
G02*
X10497500Y-13396250I0J-23750D01*
G01*
X10497500Y-13453750D01*
G75*
G02*
X10473750Y-13477500I-23750J0D01*
G01*
X10426250Y-13477500D01*
G75*
G02*
X10402500Y-13453750I0J23750D01*
G01*
X10402500Y-13396250D01*
G75*
G02*
X10426250Y-13372500I23750J0D01*
G01*
G37*
%TD.AperFunction*%
%TO.P,L1,1*%
%TO.N,Net-(C17-Pad1)*%
%TA.AperFunction,SMDPad,CuDef*%
G36*
G01*
X10426250Y-13197500D02*
X10473750Y-13197500D01*
G75*
G02*
X10497500Y-13221250I0J-23750D01*
G01*
X10497500Y-13278750D01*
G75*
G02*
X10473750Y-13302500I-23750J0D01*
G01*
X10426250Y-13302500D01*
G75*
G02*
X10402500Y-13278750I0J23750D01*
G01*
X10402500Y-13221250D01*
G75*
G02*
X10426250Y-13197500I23750J0D01*
G01*
G37*
%TD.AperFunction*%
%TD*%
%TO.P,C6,2*%
%TO.N,GND*%
%TA.AperFunction,SMDPad,CuDef*%
G36*
G01*
X12923750Y-12997500D02*
X12923750Y-12902500D01*
G75*
G02*
X12948750Y-12877500I25000J0D01*
G01*
X13016250Y-12877500D01*
G75*
G02*
X13041250Y-12902500I0J-25000D01*
G01*
X13041250Y-12997500D01*
G75*
G02*
X13016250Y-13022500I-25000J0D01*
G01*
X12948750Y-13022500D01*
G75*
G02*
X12923750Y-12997500I0J25000D01*
G01*
G37*
%TD.AperFunction*%
%TO.P,C6,1*%
%TO.N,VDC*%
%TA.AperFunction,SMDPad,CuDef*%
G36*
G01*
X12716250Y-12997500D02*
X12716250Y-12902500D01*
G75*
G02*
X12741250Y-12877500I25000J0D01*
G01*
X12808750Y-12877500D01*
G75*
G02*
X12833750Y-12902500I0J-25000D01*
G01*
X12833750Y-12997500D01*
G75*
G02*
X12808750Y-13022500I-25000J0D01*
G01*
X12741250Y-13022500D01*
G75*
G02*
X12716250Y-12997500I0J25000D01*
G01*
G37*
%TD.AperFunction*%
%TD*%
%TO.P,R10,2*%
%TO.N,GND*%
%TA.AperFunction,SMDPad,CuDef*%
G36*
G01*
X12948750Y-11791250D02*
X12901250Y-11791250D01*
G75*
G02*
X12877500Y-11767500I0J23750D01*
G01*
X12877500Y-11717500D01*
G75*
G02*
X12901250Y-11693750I23750J0D01*
G01*
X12948750Y-11693750D01*
G75*
G02*
X12972500Y-11717500I0J-23750D01*
G01*
X12972500Y-11767500D01*
G75*
G02*
X12948750Y-11791250I-23750J0D01*
G01*
G37*
%TD.AperFunction*%
%TO.P,R10,1*%
%TO.N,Net-(C4-Pad1)*%
%TA.AperFunction,SMDPad,CuDef*%
G36*
G01*
X12948750Y-11973750D02*
X12901250Y-11973750D01*
G75*
G02*
X12877500Y-11950000I0J23750D01*
G01*
X12877500Y-11900000D01*
G75*
G02*
X12901250Y-11876250I23750J0D01*
G01*
X12948750Y-11876250D01*
G75*
G02*
X12972500Y-11900000I0J-23750D01*
G01*
X12972500Y-11950000D01*
G75*
G02*
X12948750Y-11973750I-23750J0D01*
G01*
G37*
%TD.AperFunction*%
%TD*%
%TO.P,C5,2*%
%TO.N,GND*%
%TA.AperFunction,SMDPad,CuDef*%
G36*
G01*
X12747500Y-11776250D02*
X12652500Y-11776250D01*
G75*
G02*
X12627500Y-11751250I0J25000D01*
G01*
X12627500Y-11683750D01*
G75*
G02*
X12652500Y-11658750I25000J0D01*
G01*
X12747500Y-11658750D01*
G75*
G02*
X12772500Y-11683750I0J-25000D01*
G01*
X12772500Y-11751250D01*
G75*
G02*
X12747500Y-11776250I-25000J0D01*
G01*
G37*
%TD.AperFunction*%
%TO.P,C5,1*%
%TO.N,/p5v_out*%
%TA.AperFunction,SMDPad,CuDef*%
G36*
G01*
X12747500Y-11983750D02*
X12652500Y-11983750D01*
G75*
G02*
X12627500Y-11958750I0J25000D01*
G01*
X12627500Y-11891250D01*
G75*
G02*
X12652500Y-11866250I25000J0D01*
G01*
X12747500Y-11866250D01*
G75*
G02*
X12772500Y-11891250I0J-25000D01*
G01*
X12772500Y-11958750D01*
G75*
G02*
X12747500Y-11983750I-25000J0D01*
G01*
G37*
%TD.AperFunction*%
%TD*%
%TO.P,C4,2*%
%TO.N,GND*%
%TA.AperFunction,SMDPad,CuDef*%
G36*
G01*
X13123750Y-11803750D02*
X13076250Y-11803750D01*
G75*
G02*
X13052500Y-11780000I0J23750D01*
G01*
X13052500Y-11720000D01*
G75*
G02*
X13076250Y-11696250I23750J0D01*
G01*
X13123750Y-11696250D01*
G75*
G02*
X13147500Y-11720000I0J-23750D01*
G01*
X13147500Y-11780000D01*
G75*
G02*
X13123750Y-11803750I-23750J0D01*
G01*
G37*
%TD.AperFunction*%
%TO.P,C4,1*%
%TO.N,Net-(C4-Pad1)*%
%TA.AperFunction,SMDPad,CuDef*%
G36*
G01*
X13123750Y-11976250D02*
X13076250Y-11976250D01*
G75*
G02*
X13052500Y-11952500I0J23750D01*
G01*
X13052500Y-11892500D01*
G75*
G02*
X13076250Y-11868750I23750J0D01*
G01*
X13123750Y-11868750D01*
G75*
G02*
X13147500Y-11892500I0J-23750D01*
G01*
X13147500Y-11952500D01*
G75*
G02*
X13123750Y-11976250I-23750J0D01*
G01*
G37*
%TD.AperFunction*%
%TD*%
%TO.P,C1,2*%
%TO.N,GND*%
%TA.AperFunction,SMDPad,CuDef*%
G36*
G01*
X11562500Y-13838750D02*
X11467500Y-13838750D01*
G75*
G02*
X11442500Y-13813750I0J25000D01*
G01*
X11442500Y-13746250D01*
G75*
G02*
X11467500Y-13721250I25000J0D01*
G01*
X11562500Y-13721250D01*
G75*
G02*
X11587500Y-13746250I0J-25000D01*
G01*
X11587500Y-13813750D01*
G75*
G02*
X11562500Y-13838750I-25000J0D01*
G01*
G37*
%TD.AperFunction*%
%TO.P,C1,1*%
%TO.N,VDC*%
%TA.AperFunction,SMDPad,CuDef*%
G36*
G01*
X11562500Y-14046250D02*
X11467500Y-14046250D01*
G75*
G02*
X11442500Y-14021250I0J25000D01*
G01*
X11442500Y-13953750D01*
G75*
G02*
X11467500Y-13928750I25000J0D01*
G01*
X11562500Y-13928750D01*
G75*
G02*
X11587500Y-13953750I0J-25000D01*
G01*
X11587500Y-14021250D01*
G75*
G02*
X11562500Y-14046250I-25000J0D01*
G01*
G37*
%TD.AperFunction*%
%TD*%
%TO.P,C2,1*%
%TO.N,/vload*%
%TA.AperFunction,SMDPad,CuDef*%
G36*
G01*
X11076250Y-14301250D02*
X11076250Y-14348750D01*
G75*
G02*
X11052500Y-14372500I-23750J0D01*
G01*
X10992500Y-14372500D01*
G75*
G02*
X10968750Y-14348750I0J23750D01*
G01*
X10968750Y-14301250D01*
G75*
G02*
X10992500Y-14277500I23750J0D01*
G01*
X11052500Y-14277500D01*
G75*
G02*
X11076250Y-14301250I0J-23750D01*
G01*
G37*
%TD.AperFunction*%
%TO.P,C2,2*%
%TO.N,Net-(C2-Pad2)*%
%TA.AperFunction,SMDPad,CuDef*%
G36*
G01*
X10903750Y-14301250D02*
X10903750Y-14348750D01*
G75*
G02*
X10880000Y-14372500I-23750J0D01*
G01*
X10820000Y-14372500D01*
G75*
G02*
X10796250Y-14348750I0J23750D01*
G01*
X10796250Y-14301250D01*
G75*
G02*
X10820000Y-14277500I23750J0D01*
G01*
X10880000Y-14277500D01*
G75*
G02*
X10903750Y-14301250I0J-23750D01*
G01*
G37*
%TD.AperFunction*%
%TD*%
%TO.P,C3,1*%
%TO.N,/vload*%
%TA.AperFunction,SMDPad,CuDef*%
G36*
G01*
X10152500Y-13383750D02*
X10247500Y-13383750D01*
G75*
G02*
X10272500Y-13408750I0J-25000D01*
G01*
X10272500Y-13476250D01*
G75*
G02*
X10247500Y-13501250I-25000J0D01*
G01*
X10152500Y-13501250D01*
G75*
G02*
X10127500Y-13476250I0J25000D01*
G01*
X10127500Y-13408750D01*
G75*
G02*
X10152500Y-13383750I25000J0D01*
G01*
G37*
%TD.AperFunction*%
%TO.P,C3,2*%
%TO.N,GND*%
%TA.AperFunction,SMDPad,CuDef*%
G36*
G01*
X10152500Y-13591250D02*
X10247500Y-13591250D01*
G75*
G02*
X10272500Y-13616250I0J-25000D01*
G01*
X10272500Y-13683750D01*
G75*
G02*
X10247500Y-13708750I-25000J0D01*
G01*
X10152500Y-13708750D01*
G75*
G02*
X10127500Y-13683750I0J25000D01*
G01*
X10127500Y-13616250D01*
G75*
G02*
X10152500Y-13591250I25000J0D01*
G01*
G37*
%TD.AperFunction*%
%TD*%
D22*
%TO.P,Q1,3*%
%TO.N,/On When Warm/VD1*%
X12100000Y-13620000D03*
%TO.P,Q1,2*%
%TO.N,/On When Warm/vs*%
X11900000Y-13715000D03*
%TO.P,Q1,1*%
%TO.N,/On When Warm/vg1*%
X11900000Y-13525000D03*
%TD*%
%TO.P,Q2,1*%
%TO.N,/thermistor*%
X11900000Y-13985000D03*
%TO.P,Q2,2*%
%TO.N,/On When Warm/vs*%
X11900000Y-14175000D03*
%TO.P,Q2,3*%
%TO.N,/On When Warm/vd2*%
X12100000Y-14080000D03*
%TD*%
D23*
%TO.P,Q3,1*%
%TO.N,Net-(C2-Pad2)*%
X10822000Y-14070000D03*
%TO.P,Q3,2*%
%TO.N,/vload*%
X11050000Y-14070000D03*
%TO.P,Q3,3*%
%TO.N,VDC*%
X11278000Y-14070000D03*
D24*
%TO.P,Q3,2*%
%TO.N,/vload*%
X11050000Y-13440000D03*
%TD*%
%TO.P,R1,1*%
%TO.N,VDC*%
%TA.AperFunction,SMDPad,CuDef*%
G36*
G01*
X11668750Y-13298750D02*
X11668750Y-13251250D01*
G75*
G02*
X11692500Y-13227500I23750J0D01*
G01*
X11742500Y-13227500D01*
G75*
G02*
X11766250Y-13251250I0J-23750D01*
G01*
X11766250Y-13298750D01*
G75*
G02*
X11742500Y-13322500I-23750J0D01*
G01*
X11692500Y-13322500D01*
G75*
G02*
X11668750Y-13298750I0J23750D01*
G01*
G37*
%TD.AperFunction*%
%TO.P,R1,2*%
%TO.N,/On When Warm/vg1*%
%TA.AperFunction,SMDPad,CuDef*%
G36*
G01*
X11851250Y-13298750D02*
X11851250Y-13251250D01*
G75*
G02*
X11875000Y-13227500I23750J0D01*
G01*
X11925000Y-13227500D01*
G75*
G02*
X11948750Y-13251250I0J-23750D01*
G01*
X11948750Y-13298750D01*
G75*
G02*
X11925000Y-13322500I-23750J0D01*
G01*
X11875000Y-13322500D01*
G75*
G02*
X11851250Y-13298750I0J23750D01*
G01*
G37*
%TD.AperFunction*%
%TD*%
%TO.P,R2,2*%
%TO.N,GND*%
%TA.AperFunction,SMDPad,CuDef*%
G36*
G01*
X12192500Y-13298750D02*
X12192500Y-13251250D01*
G75*
G02*
X12216250Y-13227500I23750J0D01*
G01*
X12266250Y-13227500D01*
G75*
G02*
X12290000Y-13251250I0J-23750D01*
G01*
X12290000Y-13298750D01*
G75*
G02*
X12266250Y-13322500I-23750J0D01*
G01*
X12216250Y-13322500D01*
G75*
G02*
X12192500Y-13298750I0J23750D01*
G01*
G37*
%TD.AperFunction*%
%TO.P,R2,1*%
%TO.N,/On When Warm/vg1*%
%TA.AperFunction,SMDPad,CuDef*%
G36*
G01*
X12010000Y-13298750D02*
X12010000Y-13251250D01*
G75*
G02*
X12033750Y-13227500I23750J0D01*
G01*
X12083750Y-13227500D01*
G75*
G02*
X12107500Y-13251250I0J-23750D01*
G01*
X12107500Y-13298750D01*
G75*
G02*
X12083750Y-13322500I-23750J0D01*
G01*
X12033750Y-13322500D01*
G75*
G02*
X12010000Y-13298750I0J23750D01*
G01*
G37*
%TD.AperFunction*%
%TD*%
%TO.P,R3,1*%
%TO.N,VDC*%
%TA.AperFunction,SMDPad,CuDef*%
G36*
G01*
X12598750Y-13601250D02*
X12598750Y-13648750D01*
G75*
G02*
X12575000Y-13672500I-23750J0D01*
G01*
X12525000Y-13672500D01*
G75*
G02*
X12501250Y-13648750I0J23750D01*
G01*
X12501250Y-13601250D01*
G75*
G02*
X12525000Y-13577500I23750J0D01*
G01*
X12575000Y-13577500D01*
G75*
G02*
X12598750Y-13601250I0J-23750D01*
G01*
G37*
%TD.AperFunction*%
%TO.P,R3,2*%
%TO.N,/On When Warm/VD1*%
%TA.AperFunction,SMDPad,CuDef*%
G36*
G01*
X12416250Y-13601250D02*
X12416250Y-13648750D01*
G75*
G02*
X12392500Y-13672500I-23750J0D01*
G01*
X12342500Y-13672500D01*
G75*
G02*
X12318750Y-13648750I0J23750D01*
G01*
X12318750Y-13601250D01*
G75*
G02*
X12342500Y-13577500I23750J0D01*
G01*
X12392500Y-13577500D01*
G75*
G02*
X12416250Y-13601250I0J-23750D01*
G01*
G37*
%TD.AperFunction*%
%TD*%
%TO.P,R7,1*%
%TO.N,VDC*%
%TA.AperFunction,SMDPad,CuDef*%
G36*
G01*
X12598750Y-14051250D02*
X12598750Y-14098750D01*
G75*
G02*
X12575000Y-14122500I-23750J0D01*
G01*
X12525000Y-14122500D01*
G75*
G02*
X12501250Y-14098750I0J23750D01*
G01*
X12501250Y-14051250D01*
G75*
G02*
X12525000Y-14027500I23750J0D01*
G01*
X12575000Y-14027500D01*
G75*
G02*
X12598750Y-14051250I0J-23750D01*
G01*
G37*
%TD.AperFunction*%
%TO.P,R7,2*%
%TO.N,/On When Warm/vd2*%
%TA.AperFunction,SMDPad,CuDef*%
G36*
G01*
X12416250Y-14051250D02*
X12416250Y-14098750D01*
G75*
G02*
X12392500Y-14122500I-23750J0D01*
G01*
X12342500Y-14122500D01*
G75*
G02*
X12318750Y-14098750I0J23750D01*
G01*
X12318750Y-14051250D01*
G75*
G02*
X12342500Y-14027500I23750J0D01*
G01*
X12392500Y-14027500D01*
G75*
G02*
X12416250Y-14051250I0J-23750D01*
G01*
G37*
%TD.AperFunction*%
%TD*%
%TO.P,R9,1*%
%TO.N,Net-(C2-Pad2)*%
%TA.AperFunction,SMDPad,CuDef*%
G36*
G01*
X11426250Y-14348750D02*
X11426250Y-14301250D01*
G75*
G02*
X11450000Y-14277500I23750J0D01*
G01*
X11500000Y-14277500D01*
G75*
G02*
X11523750Y-14301250I0J-23750D01*
G01*
X11523750Y-14348750D01*
G75*
G02*
X11500000Y-14372500I-23750J0D01*
G01*
X11450000Y-14372500D01*
G75*
G02*
X11426250Y-14348750I0J23750D01*
G01*
G37*
%TD.AperFunction*%
%TO.P,R9,2*%
%TO.N,/On When Warm/VD1*%
%TA.AperFunction,SMDPad,CuDef*%
G36*
G01*
X11608750Y-14348750D02*
X11608750Y-14301250D01*
G75*
G02*
X11632500Y-14277500I23750J0D01*
G01*
X11682500Y-14277500D01*
G75*
G02*
X11706250Y-14301250I0J-23750D01*
G01*
X11706250Y-14348750D01*
G75*
G02*
X11682500Y-14372500I-23750J0D01*
G01*
X11632500Y-14372500D01*
G75*
G02*
X11608750Y-14348750I0J23750D01*
G01*
G37*
%TD.AperFunction*%
%TD*%
%TO.P,U1,1*%
%TO.N,VDC*%
%TA.AperFunction,SMDPad,CuDef*%
G36*
G01*
X12782500Y-12712500D02*
X12767500Y-12712500D01*
G75*
G02*
X12760000Y-12705000I0J7500D01*
G01*
X12760000Y-12575000D01*
G75*
G02*
X12767500Y-12567500I7500J0D01*
G01*
X12782500Y-12567500D01*
G75*
G02*
X12790000Y-12575000I0J-7500D01*
G01*
X12790000Y-12705000D01*
G75*
G02*
X12782500Y-12712500I-7500J0D01*
G01*
G37*
%TD.AperFunction*%
%TO.P,U1,2*%
%TA.AperFunction,SMDPad,CuDef*%
G36*
G01*
X12832500Y-12712500D02*
X12817500Y-12712500D01*
G75*
G02*
X12810000Y-12705000I0J7500D01*
G01*
X12810000Y-12575000D01*
G75*
G02*
X12817500Y-12567500I7500J0D01*
G01*
X12832500Y-12567500D01*
G75*
G02*
X12840000Y-12575000I0J-7500D01*
G01*
X12840000Y-12705000D01*
G75*
G02*
X12832500Y-12712500I-7500J0D01*
G01*
G37*
%TD.AperFunction*%
%TO.P,U1,3*%
%TA.AperFunction,SMDPad,CuDef*%
G36*
G01*
X12882500Y-12712500D02*
X12867500Y-12712500D01*
G75*
G02*
X12860000Y-12705000I0J7500D01*
G01*
X12860000Y-12575000D01*
G75*
G02*
X12867500Y-12567500I7500J0D01*
G01*
X12882500Y-12567500D01*
G75*
G02*
X12890000Y-12575000I0J-7500D01*
G01*
X12890000Y-12705000D01*
G75*
G02*
X12882500Y-12712500I-7500J0D01*
G01*
G37*
%TD.AperFunction*%
%TO.P,U1,4*%
%TO.N,Net-(U1-Pad4)*%
%TA.AperFunction,SMDPad,CuDef*%
G36*
G01*
X12932500Y-12712500D02*
X12917500Y-12712500D01*
G75*
G02*
X12910000Y-12705000I0J7500D01*
G01*
X12910000Y-12575000D01*
G75*
G02*
X12917500Y-12567500I7500J0D01*
G01*
X12932500Y-12567500D01*
G75*
G02*
X12940000Y-12575000I0J-7500D01*
G01*
X12940000Y-12705000D01*
G75*
G02*
X12932500Y-12712500I-7500J0D01*
G01*
G37*
%TD.AperFunction*%
%TO.P,U1,5*%
%TO.N,GND*%
%TA.AperFunction,SMDPad,CuDef*%
G36*
G01*
X12982500Y-12712500D02*
X12967500Y-12712500D01*
G75*
G02*
X12960000Y-12705000I0J7500D01*
G01*
X12960000Y-12575000D01*
G75*
G02*
X12967500Y-12567500I7500J0D01*
G01*
X12982500Y-12567500D01*
G75*
G02*
X12990000Y-12575000I0J-7500D01*
G01*
X12990000Y-12705000D01*
G75*
G02*
X12982500Y-12712500I-7500J0D01*
G01*
G37*
%TD.AperFunction*%
%TO.P,U1,6*%
%TO.N,VDC*%
%TA.AperFunction,SMDPad,CuDef*%
G36*
G01*
X12982500Y-12282500D02*
X12967500Y-12282500D01*
G75*
G02*
X12960000Y-12275000I0J7500D01*
G01*
X12960000Y-12145000D01*
G75*
G02*
X12967500Y-12137500I7500J0D01*
G01*
X12982500Y-12137500D01*
G75*
G02*
X12990000Y-12145000I0J-7500D01*
G01*
X12990000Y-12275000D01*
G75*
G02*
X12982500Y-12282500I-7500J0D01*
G01*
G37*
%TD.AperFunction*%
%TO.P,U1,7*%
%TO.N,Net-(C4-Pad1)*%
%TA.AperFunction,SMDPad,CuDef*%
G36*
G01*
X12932500Y-12282500D02*
X12917500Y-12282500D01*
G75*
G02*
X12910000Y-12275000I0J7500D01*
G01*
X12910000Y-12145000D01*
G75*
G02*
X12917500Y-12137500I7500J0D01*
G01*
X12932500Y-12137500D01*
G75*
G02*
X12940000Y-12145000I0J-7500D01*
G01*
X12940000Y-12275000D01*
G75*
G02*
X12932500Y-12282500I-7500J0D01*
G01*
G37*
%TD.AperFunction*%
%TO.P,U1,8*%
%TO.N,GND*%
%TA.AperFunction,SMDPad,CuDef*%
G36*
G01*
X12882500Y-12282500D02*
X12867500Y-12282500D01*
G75*
G02*
X12860000Y-12275000I0J7500D01*
G01*
X12860000Y-12145000D01*
G75*
G02*
X12867500Y-12137500I7500J0D01*
G01*
X12882500Y-12137500D01*
G75*
G02*
X12890000Y-12145000I0J-7500D01*
G01*
X12890000Y-12275000D01*
G75*
G02*
X12882500Y-12282500I-7500J0D01*
G01*
G37*
%TD.AperFunction*%
%TO.P,U1,9*%
%TO.N,/p5v_out*%
%TA.AperFunction,SMDPad,CuDef*%
G36*
G01*
X12832500Y-12282500D02*
X12817500Y-12282500D01*
G75*
G02*
X12810000Y-12275000I0J7500D01*
G01*
X12810000Y-12145000D01*
G75*
G02*
X12817500Y-12137500I7500J0D01*
G01*
X12832500Y-12137500D01*
G75*
G02*
X12840000Y-12145000I0J-7500D01*
G01*
X12840000Y-12275000D01*
G75*
G02*
X12832500Y-12282500I-7500J0D01*
G01*
G37*
%TD.AperFunction*%
%TO.P,U1,10*%
%TA.AperFunction,SMDPad,CuDef*%
G36*
G01*
X12782500Y-12282500D02*
X12767500Y-12282500D01*
G75*
G02*
X12760000Y-12275000I0J7500D01*
G01*
X12760000Y-12145000D01*
G75*
G02*
X12767500Y-12137500I7500J0D01*
G01*
X12782500Y-12137500D01*
G75*
G02*
X12790000Y-12145000I0J-7500D01*
G01*
X12790000Y-12275000D01*
G75*
G02*
X12782500Y-12282500I-7500J0D01*
G01*
G37*
%TD.AperFunction*%
D25*
%TO.P,U1,11*%
%TO.N,GND*%
X12875000Y-12425000D03*
%TD*%
D26*
%TO.N,GND*%
X11790000Y-12745000D03*
X11737500Y-12745000D03*
X11840000Y-12745000D03*
X11715000Y-12700000D03*
X11842500Y-12652500D03*
X11717500Y-12602500D03*
X11840000Y-12552500D03*
X11817500Y-12500000D03*
X11765000Y-12500000D03*
X10650000Y-12057500D03*
X10687500Y-12095000D03*
X10610000Y-12095000D03*
X10612500Y-12020000D03*
D27*
X12595000Y-12285000D03*
X12675000Y-12405000D03*
X12595000Y-12485000D03*
X13195000Y-12405000D03*
X13195000Y-12505000D03*
X10700000Y-11300000D03*
X10950000Y-11300000D03*
X11200000Y-11300000D03*
X12350000Y-13275000D03*
X12100000Y-13875000D03*
X13030000Y-12640000D03*
X13070000Y-12950000D03*
D28*
X10200000Y-13800000D03*
D27*
X11600000Y-13645000D03*
X12925000Y-11625000D03*
X12675000Y-11625000D03*
X13095259Y-12437500D03*
X13125000Y-11625000D03*
X10502260Y-12210000D03*
D26*
X10687500Y-12020000D03*
D27*
X10175000Y-12500000D03*
D26*
X10405000Y-11975000D03*
X10540000Y-11802500D03*
D27*
X10727500Y-12307500D03*
X11014500Y-12164500D03*
D26*
X10827500Y-12432500D03*
X11715000Y-12500000D03*
X11732500Y-12812500D03*
X11852500Y-12807500D03*
D27*
X11766629Y-12957499D03*
X11902500Y-12315000D03*
X10250000Y-12950000D03*
X12375000Y-12275000D03*
D26*
X11737500Y-12552500D03*
X11790000Y-12552500D03*
X11820000Y-12602500D03*
X11770000Y-12602500D03*
X11740000Y-12652500D03*
X11792500Y-12652500D03*
X11817500Y-12700000D03*
X11767500Y-12700000D03*
D27*
X11332500Y-11842500D03*
D28*
X11037500Y-11742500D03*
D27*
X10929388Y-12384387D03*
X12425000Y-13052500D03*
X13085000Y-13230000D03*
%TO.N,/On When Warm/VD1*%
X12400000Y-13475000D03*
%TO.N,/On When Warm/vs*%
X11800000Y-13725000D03*
X11800000Y-14175000D03*
%TO.N,/On When Warm/vg1*%
X12100000Y-13425000D03*
%TO.N,/thermistor*%
X12250000Y-13975000D03*
X12125000Y-10552500D03*
X13337499Y-10550000D03*
%TO.N,/On When Warm/vd2*%
X12305132Y-13870617D03*
%TO.N,VDC*%
X12595000Y-12825000D03*
X12595000Y-13005000D03*
X11278000Y-14278000D03*
X12550000Y-13475000D03*
X12550000Y-14225000D03*
X11625000Y-14100000D03*
X11674818Y-13368949D03*
X12611825Y-12674614D03*
X12660000Y-14147500D03*
%TO.N,/dc_dc/vcc*%
X11995000Y-13035000D03*
%TO.N,Net-(C11-Pad1)*%
X10335000Y-11902500D03*
D26*
X10625000Y-12310000D03*
X10331891Y-12161791D03*
D28*
%TO.N,Net-(C12-Pad1)*%
X11210359Y-11906185D03*
D27*
%TO.N,Net-(R11-Pad2)*%
X12150000Y-12700000D03*
D26*
%TO.N,Net-(R13-Pad1)*%
X10807500Y-12197500D03*
%TO.N,Net-(C13-Pad1)*%
X10772413Y-11906289D03*
D27*
%TO.N,Net-(C16-Pad2)*%
X12150000Y-12475000D03*
X12144350Y-12600158D03*
D26*
%TO.N,+5V*%
X10330000Y-12245000D03*
D27*
X10946000Y-10304000D03*
X10700000Y-10300000D03*
X10077500Y-12047500D03*
X10075000Y-12250000D03*
X12387500Y-12487500D03*
D26*
X11447266Y-12438091D03*
D27*
X12122500Y-13005000D03*
%TO.N,Net-(C17-Pad1)*%
X11450000Y-13075000D03*
D26*
X11558665Y-12866335D03*
D27*
X10447500Y-13122500D03*
X12332500Y-12845000D03*
D26*
%TO.N,Net-(R15-Pad2)*%
X11050111Y-12366194D03*
D27*
%TO.N,/dc_dc/vcc*%
X12025000Y-12367500D03*
%TD*%
D29*
%TO.N,/vload*%
X11050000Y-14070000D02*
X11050000Y-13440000D01*
D30*
X11050000Y-14297500D02*
X11022500Y-14325000D01*
X11050000Y-14070000D02*
X11050000Y-14297500D01*
X10432500Y-13442500D02*
X10450000Y-13425000D01*
X10200000Y-13442500D02*
X10432500Y-13442500D01*
X11035000Y-13425000D02*
X11050000Y-13440000D01*
X10450000Y-13425000D02*
X11035000Y-13425000D01*
%TO.N,Net-(C2-Pad2)*%
X10822000Y-14297000D02*
X10850000Y-14325000D01*
X10822000Y-14070000D02*
X10822000Y-14297000D01*
D29*
X10850000Y-14325000D02*
X10850000Y-14350000D01*
X10850000Y-14350000D02*
X10935000Y-14435000D01*
X11365000Y-14435000D02*
X11475000Y-14325000D01*
X10935000Y-14435000D02*
X11365000Y-14435000D01*
%TO.N,GND*%
X12241250Y-13275000D02*
X12350000Y-13275000D01*
X13092500Y-11742500D02*
X13100000Y-11750000D01*
X12925000Y-11742500D02*
X13092500Y-11742500D01*
X12875000Y-12210000D02*
X12875000Y-12425000D01*
X12972501Y-12602501D02*
X12972501Y-12522501D01*
X12975000Y-12605000D02*
X12972501Y-12602501D01*
X12975000Y-12640000D02*
X12975000Y-12605000D01*
X12875000Y-12425000D02*
X12835000Y-12385000D01*
X12875000Y-12425000D02*
X12915000Y-12385000D01*
X12875000Y-12425000D02*
X12915000Y-12465000D01*
X12972501Y-12522501D02*
X12915000Y-12465000D01*
X12875000Y-12425000D02*
X12835000Y-12465000D01*
X12975000Y-12640000D02*
X13030000Y-12640000D01*
X12982500Y-12950000D02*
X13070000Y-12950000D01*
X12835000Y-12425000D02*
X12875000Y-12425000D01*
X12972501Y-12522501D02*
X13072501Y-12522501D01*
X13072501Y-12522501D02*
X12975000Y-12425000D01*
X12875000Y-12425000D02*
X12895000Y-12425000D01*
X12895000Y-12425000D02*
X12955000Y-12365000D01*
D30*
X10200000Y-13650000D02*
X10200000Y-13800000D01*
X11515000Y-13730000D02*
X11600000Y-13645000D01*
X11515000Y-13780000D02*
X11515000Y-13730000D01*
D29*
X12700000Y-11650000D02*
X12675000Y-11625000D01*
X12700000Y-11717500D02*
X12700000Y-11650000D01*
X13100000Y-11650000D02*
X13125000Y-11625000D01*
X12925000Y-11742500D02*
X12925000Y-11625000D01*
X13100000Y-11750000D02*
X13100000Y-11650000D01*
X10505460Y-12132500D02*
X10505460Y-12189540D01*
X10502260Y-12192740D02*
X10502260Y-12210000D01*
X10505460Y-12189540D02*
X10502260Y-12192740D01*
X10617501Y-12025000D02*
X10605477Y-12012976D01*
X10685000Y-12025000D02*
X10617501Y-12025000D01*
X10652500Y-12057500D02*
X10685000Y-12025000D01*
X10650000Y-12057500D02*
X10652500Y-12057500D01*
D30*
X10175000Y-12405000D02*
X10175000Y-12500000D01*
D29*
X10505460Y-11982500D02*
X10425000Y-11982500D01*
X10425000Y-11982500D02*
X10422500Y-11985000D01*
X10575000Y-11912960D02*
X10540000Y-11877960D01*
X10540000Y-11877960D02*
X10540000Y-11802500D01*
X10725000Y-12202040D02*
X10725000Y-12267440D01*
X10725000Y-12305000D02*
X10727500Y-12307500D01*
X10725000Y-12267440D02*
X10725000Y-12305000D01*
X10927500Y-12164500D02*
X11014500Y-12164500D01*
X10927500Y-12164500D02*
X10927500Y-12167500D01*
X10855500Y-12280000D02*
X10855500Y-12312000D01*
X11558665Y-12645019D02*
X11754981Y-12645019D01*
X12001335Y-12645019D02*
X11805019Y-12645019D01*
X11732500Y-12885000D02*
X11732500Y-12812500D01*
X11732500Y-12812500D02*
X11732500Y-12750000D01*
X11875000Y-12830000D02*
X11852500Y-12807500D01*
X11875000Y-12882500D02*
X11875000Y-12830000D01*
X11852500Y-12807500D02*
X11852500Y-12692500D01*
X11732500Y-12885000D02*
X11732500Y-12923370D01*
X11732500Y-12923370D02*
X11766629Y-12957499D01*
X11788750Y-12476250D02*
X11765000Y-12500000D01*
X11788750Y-12315000D02*
X11788750Y-12476250D01*
X11788750Y-12315000D02*
X11902500Y-12315000D01*
D30*
X10250000Y-12850000D02*
X10250000Y-12950000D01*
X11387500Y-11897500D02*
X11332500Y-11842500D01*
X11445000Y-11897500D02*
X11387500Y-11897500D01*
X11810000Y-12315000D02*
X11780000Y-12285000D01*
X11902500Y-12315000D02*
X11810000Y-12315000D01*
D29*
X11882000Y-12837000D02*
X11852500Y-12807500D01*
X11882000Y-12905000D02*
X11882000Y-12837000D01*
X10932500Y-11870000D02*
X10932500Y-11847500D01*
X10932500Y-11847500D02*
X11037500Y-11742500D01*
X10868000Y-12292500D02*
X10868000Y-12308000D01*
X10868000Y-12292500D02*
X10868000Y-12318000D01*
X10868000Y-12318000D02*
X10927500Y-12377500D01*
D30*
X13080000Y-13225000D02*
X13085000Y-13230000D01*
X12962500Y-13225000D02*
X13080000Y-13225000D01*
D29*
%TO.N,/On When Warm/VD1*%
X12105000Y-13625000D02*
X12100000Y-13620000D01*
X12367500Y-13625000D02*
X12105000Y-13625000D01*
X12400000Y-13592500D02*
X12367500Y-13625000D01*
X12400000Y-13475000D02*
X12400000Y-13592500D01*
X11700000Y-14282500D02*
X11657500Y-14325000D01*
X11910000Y-13875000D02*
X11837300Y-13875000D01*
X11700000Y-14012300D02*
X11700000Y-14282500D01*
X11837300Y-13875000D02*
X11700000Y-14012300D01*
X12100000Y-13620000D02*
X12100000Y-13685000D01*
X12100000Y-13685000D02*
X11910000Y-13875000D01*
%TO.N,/On When Warm/vs*%
X11890000Y-13725000D02*
X11900000Y-13715000D01*
X11800000Y-13725000D02*
X11890000Y-13725000D01*
X11800000Y-14175000D02*
X11900000Y-14175000D01*
%TO.N,/On When Warm/vg1*%
X11900000Y-13275000D02*
X12058750Y-13275000D01*
X11900000Y-13275000D02*
X11900000Y-13525000D01*
X12100000Y-13425000D02*
X12050000Y-13375000D01*
X12058750Y-13366250D02*
X12058750Y-13275000D01*
X12050000Y-13375000D02*
X12058750Y-13366250D01*
%TO.N,/thermistor*%
X11900000Y-13967700D02*
X12092700Y-13775000D01*
X11900000Y-13985000D02*
X11900000Y-13967700D01*
X12107300Y-13775000D02*
X12250000Y-13917700D01*
X12092700Y-13775000D02*
X12107300Y-13775000D01*
X12250000Y-13917700D02*
X12250000Y-13975000D01*
X13337499Y-10162499D02*
X13337499Y-10550000D01*
X13275000Y-10100000D02*
X13337499Y-10162499D01*
X12175000Y-10100000D02*
X13275000Y-10100000D01*
X12125000Y-10150000D02*
X12175000Y-10100000D01*
X12125000Y-10552500D02*
X12125000Y-10150000D01*
%TO.N,/On When Warm/vd2*%
X12105000Y-14075000D02*
X12100000Y-14080000D01*
X12367500Y-14075000D02*
X12105000Y-14075000D01*
X12367500Y-14075000D02*
X12367500Y-13942500D01*
X12305132Y-13880132D02*
X12305132Y-13870617D01*
X12367500Y-13942500D02*
X12305132Y-13880132D01*
%TO.N,VDC*%
X11278000Y-14070000D02*
X11278000Y-14278000D01*
X12550000Y-13625000D02*
X12550000Y-13475000D01*
X12550000Y-14075000D02*
X12550000Y-14225000D01*
X12875000Y-12640000D02*
X12875000Y-12785000D01*
X12875000Y-12785000D02*
X12855000Y-12785000D01*
X12825000Y-12640000D02*
X12825000Y-12775000D01*
X12775000Y-12640000D02*
X12775000Y-12805000D01*
X12975000Y-12210000D02*
X13070000Y-12305000D01*
X13070000Y-12305000D02*
X13295000Y-12305000D01*
X13295000Y-12305000D02*
X13315000Y-12325000D01*
X13315000Y-12325000D02*
X13315000Y-12665000D01*
X13195000Y-12785000D02*
X12875000Y-12785000D01*
X13315000Y-12665000D02*
X13195000Y-12785000D01*
X12550000Y-14075000D02*
X12550000Y-14122500D01*
X11717500Y-13275000D02*
X11717500Y-13326267D01*
X11717500Y-13326267D02*
X11674818Y-13368949D01*
D30*
X11617500Y-14107500D02*
X11625000Y-14100000D01*
X11515000Y-13987500D02*
X11515000Y-14075000D01*
X11540000Y-14100000D02*
X11625000Y-14100000D01*
X11515000Y-14075000D02*
X11540000Y-14100000D01*
X12787500Y-12962500D02*
X12775000Y-12950000D01*
X12787500Y-13225000D02*
X12787500Y-12962500D01*
D29*
%TO.N,Net-(C4-Pad1)*%
X12925000Y-12210000D02*
X12925000Y-11925000D01*
X13097500Y-11925000D02*
X13100000Y-11922500D01*
X12925000Y-11925000D02*
X13097500Y-11925000D01*
%TO.N,/p5v_out*%
X12825000Y-12210000D02*
X12760000Y-12210000D01*
X12760000Y-12210000D02*
X12775000Y-12210000D01*
X12775000Y-12210000D02*
X12775000Y-12125000D01*
X12775000Y-12125000D02*
X12735000Y-12085000D01*
X12775000Y-12210000D02*
X12680000Y-12210000D01*
D30*
X12908000Y-10792000D02*
X12908000Y-10600000D01*
X12712500Y-10987500D02*
X12908000Y-10792000D01*
X12412500Y-10987500D02*
X12712500Y-10987500D01*
X12280000Y-11120000D02*
X12412500Y-10987500D01*
X12270000Y-11120000D02*
X12280000Y-11120000D01*
X12270000Y-11740000D02*
X12270000Y-11120000D01*
X12455000Y-11925000D02*
X12270000Y-11740000D01*
X12700000Y-11925000D02*
X12455000Y-11925000D01*
D29*
%TO.N,/dc_dc/vcc*%
X12001335Y-12906335D02*
X12027500Y-12932500D01*
X12001335Y-12795133D02*
X12001335Y-12906335D01*
X12027500Y-12932500D02*
X12027500Y-13002500D01*
X12027500Y-13002500D02*
X11995000Y-13035000D01*
D31*
%TO.N,Net-(C11-Pad1)*%
X10350000Y-12032500D02*
X10335000Y-12047500D01*
X10505460Y-12032500D02*
X10350000Y-12032500D01*
D29*
X10625000Y-12202040D02*
X10625000Y-12310000D01*
X10335000Y-12158683D02*
X10331891Y-12161791D01*
X10335000Y-12047500D02*
X10335000Y-12158683D01*
D30*
X10335000Y-12047500D02*
X10335000Y-11985000D01*
X10335000Y-11985000D02*
X10335000Y-11902500D01*
X10335000Y-11985000D02*
X10335000Y-11985000D01*
D29*
%TO.N,Net-(C12-Pad1)*%
X11175000Y-11682500D02*
X11175000Y-11740000D01*
X11090000Y-11867500D02*
X11087500Y-11870000D01*
X11190000Y-11867500D02*
X11090000Y-11867500D01*
X11190000Y-11660000D02*
X11190000Y-11867500D01*
X11210359Y-11887859D02*
X11210359Y-11906185D01*
X11190000Y-11867500D02*
X11210359Y-11887859D01*
%TO.N,Net-(C14-Pad2)*%
X11457500Y-12754865D02*
X11457500Y-12912500D01*
X11467270Y-12745095D02*
X11457500Y-12754865D01*
X11558665Y-12745095D02*
X11467270Y-12745095D01*
X11457500Y-12912500D02*
X11415000Y-12955000D01*
X11400000Y-12955000D02*
X11345000Y-13010000D01*
X11415000Y-12955000D02*
X11400000Y-12955000D01*
%TO.N,Net-(C14-Pad1)*%
X11331224Y-12817500D02*
X11252500Y-12817500D01*
X11453667Y-12695057D02*
X11331224Y-12817500D01*
X11558665Y-12695057D02*
X11453667Y-12695057D01*
X11260000Y-12825000D02*
X11252500Y-12817500D01*
D30*
X11190000Y-12880000D02*
X11252500Y-12817500D01*
X11190000Y-13010000D02*
X11190000Y-12880000D01*
D29*
%TO.N,Net-(C15-Pad2)*%
X11457443Y-12544943D02*
X11558665Y-12544943D01*
X11424410Y-12511910D02*
X11457443Y-12544943D01*
X11419669Y-12511910D02*
X11424410Y-12511910D01*
X11387500Y-12479741D02*
X11419669Y-12511910D01*
X11385000Y-12440000D02*
X11385000Y-12350000D01*
X11387500Y-12442500D02*
X11385000Y-12440000D01*
X11387500Y-12479741D02*
X11387500Y-12442500D01*
%TO.N,Net-(C15-Pad1)*%
X11255019Y-12594981D02*
X11252500Y-12597500D01*
X11558665Y-12594981D02*
X11255019Y-12594981D01*
X11232500Y-12577500D02*
X11252500Y-12597500D01*
X11252500Y-12372500D02*
X11230000Y-12350000D01*
X11252500Y-12597500D02*
X11252500Y-12372500D01*
%TO.N,Net-(D3-Pad2)*%
X10675000Y-11685000D02*
X10650000Y-11660000D01*
X10675000Y-11912960D02*
X10675000Y-11685000D01*
D30*
X10802500Y-11660000D02*
X10825000Y-11682500D01*
X10650000Y-11660000D02*
X10802500Y-11660000D01*
D29*
X10650000Y-11887960D02*
X10650000Y-11660000D01*
X10625000Y-11912960D02*
X10650000Y-11887960D01*
D30*
%TO.N,/sipm_bias*%
X11591250Y-11742500D02*
X11592500Y-11743750D01*
X11455000Y-11742500D02*
X11591250Y-11742500D01*
X11446250Y-11743750D02*
X11445000Y-11742500D01*
X11592500Y-11743750D02*
X11446250Y-11743750D01*
X12275000Y-10822500D02*
X12532500Y-10822500D01*
X12025000Y-11072500D02*
X12275000Y-10822500D01*
X12025000Y-11460000D02*
X12025000Y-11072500D01*
X11853500Y-11631500D02*
X12025000Y-11460000D01*
X12532500Y-10822500D02*
X12654000Y-10701000D01*
X11853500Y-11632500D02*
X11853500Y-11631500D01*
X12654000Y-10701000D02*
X12654000Y-10600000D01*
X11742250Y-11743750D02*
X11853500Y-11632500D01*
X11592500Y-11743750D02*
X11742250Y-11743750D01*
D29*
%TO.N,Net-(R11-Pad2)*%
X12145057Y-12695057D02*
X12150000Y-12700000D01*
X12001335Y-12695057D02*
X12145057Y-12695057D01*
%TO.N,Net-(R13-Pad1)*%
X10794540Y-12184540D02*
X10807500Y-12197500D01*
X10794540Y-12132500D02*
X10794540Y-12184540D01*
%TO.N,/sipm_dcdc/imon*%
X10907500Y-12082500D02*
X10927500Y-12062500D01*
X10794540Y-12082500D02*
X10907500Y-12082500D01*
X11122300Y-12165000D02*
X11302500Y-12165000D01*
X11019800Y-12062500D02*
X11122300Y-12165000D01*
X10927500Y-12062500D02*
X11019800Y-12062500D01*
%TO.N,Net-(C13-Pad1)*%
X10765742Y-11912960D02*
X10772413Y-11906289D01*
X10725000Y-11912960D02*
X10765742Y-11912960D01*
%TO.N,Net-(C16-Pad2)*%
X12202000Y-12475000D02*
X12150000Y-12475000D01*
X12139172Y-12594981D02*
X12144350Y-12600158D01*
X12001335Y-12594981D02*
X12139172Y-12594981D01*
%TO.N,+5V*%
X10440060Y-12082500D02*
X10425000Y-12097560D01*
X10505460Y-12082500D02*
X10440060Y-12082500D01*
X10425000Y-12097560D02*
X10425000Y-12150000D01*
X10425000Y-12150000D02*
X10330000Y-12245000D01*
X10950000Y-10308000D02*
X10946000Y-10304000D01*
D30*
X10942000Y-10300000D02*
X10946000Y-10304000D01*
X10177500Y-12247500D02*
X10175000Y-12250000D01*
X10177500Y-12047500D02*
X10177500Y-12247500D01*
X10177500Y-12047500D02*
X10077500Y-12047500D01*
X10175000Y-12250000D02*
X10075000Y-12250000D01*
X12355000Y-12455000D02*
X12387500Y-12487500D01*
X12317500Y-12455000D02*
X12355000Y-12455000D01*
D29*
X11475868Y-12494905D02*
X11447266Y-12466302D01*
X11447266Y-12419055D02*
X11447266Y-12438091D01*
X11558665Y-12494905D02*
X11475868Y-12494905D01*
X11447266Y-12466302D02*
X11447266Y-12438091D01*
X11581250Y-12315000D02*
X11551321Y-12315000D01*
X11551321Y-12315000D02*
X11447266Y-12419055D01*
X11447266Y-12417401D02*
X11572500Y-12292167D01*
X11572500Y-12292167D02*
X11572500Y-12285000D01*
X11447266Y-12438091D02*
X11447266Y-12417401D01*
D30*
%TO.N,Net-(C17-Pad1)*%
X11432500Y-13057500D02*
X11450000Y-13075000D01*
X10450000Y-13250000D02*
X10450000Y-13125000D01*
D29*
X11558665Y-12795133D02*
X11558665Y-12866335D01*
X11577330Y-12885000D02*
X11558665Y-12866335D01*
X11636500Y-12885000D02*
X11577330Y-12885000D01*
X12090162Y-12745095D02*
X12125000Y-12779933D01*
X12001335Y-12745095D02*
X12090162Y-12745095D01*
X10450000Y-13125000D02*
X10447500Y-13122500D01*
%TO.N,Net-(L5-Pad2)*%
X10794540Y-11982500D02*
X11195000Y-11982500D01*
X11468750Y-12025000D02*
X11592500Y-11901250D01*
X11225000Y-12025000D02*
X11468750Y-12025000D01*
X11182500Y-11982500D02*
X11225000Y-12025000D01*
D30*
%TO.N,Net-(C19-Pad1)*%
X10395000Y-12695000D02*
X10400000Y-12700000D01*
X10250000Y-12695000D02*
X10395000Y-12695000D01*
X10400000Y-12700000D02*
X10400000Y-12500000D01*
D29*
%TO.N,Net-(R15-Pad2)*%
X10575000Y-12372500D02*
X10575000Y-12372500D01*
X10957500Y-12280000D02*
X11043695Y-12366194D01*
X11043695Y-12366194D02*
X11050111Y-12366194D01*
X10906306Y-12510000D02*
X11050111Y-12366194D01*
X10575000Y-12510000D02*
X10906306Y-12510000D01*
X10567500Y-12282400D02*
X10567500Y-12502500D01*
X10567500Y-12502500D02*
X10575000Y-12510000D01*
X10575000Y-12274900D02*
X10567500Y-12282400D01*
X10575000Y-12202040D02*
X10575000Y-12274900D01*
D30*
%TO.N,/vcont*%
X10565000Y-12819000D02*
X10646000Y-12900000D01*
X10565000Y-12700000D02*
X10565000Y-12819000D01*
D29*
%TO.N,/dc_dc/vcc*%
X12001335Y-12444867D02*
X12001335Y-12396165D01*
X12025000Y-12372500D02*
X12025000Y-12367500D01*
X12001335Y-12396165D02*
X12025000Y-12372500D01*
%TD*%
D32*
%TO.N,/p5v_out*%
X12789700Y-12222700D02*
X12760300Y-12222700D01*
X12760300Y-12197300D01*
X12789700Y-12197300D01*
X12789700Y-12222700D01*
%TA.AperFunction,Conductor*%
D33*
G36*
X12789700Y-12222700D02*
G01*
X12760300Y-12222700D01*
X12760300Y-12197300D01*
X12789700Y-12197300D01*
X12789700Y-12222700D01*
G37*
%TD.AperFunction*%
D32*
X12571500Y-11635194D02*
X12573328Y-11644385D01*
X12570453Y-11649765D01*
X12565399Y-11666425D01*
X12563693Y-11683750D01*
X12563693Y-11751250D01*
X12565399Y-11768575D01*
X12570453Y-11785235D01*
X12578659Y-11800589D01*
X12589704Y-11814046D01*
X12590359Y-11814584D01*
X12582381Y-11821131D01*
X12574446Y-11830801D01*
X12568550Y-11841832D01*
X12564919Y-11853802D01*
X12563693Y-11866250D01*
X12564000Y-11896425D01*
X12579875Y-11912300D01*
X12687300Y-11912300D01*
X12687300Y-11910300D01*
X12712700Y-11910300D01*
X12712700Y-11912300D01*
X12714700Y-11912300D01*
X12714700Y-11937700D01*
X12712700Y-11937700D01*
X12712700Y-12031375D01*
X12728575Y-12047250D01*
X12772500Y-12047557D01*
X12784948Y-12046331D01*
X12796918Y-12042700D01*
X12807949Y-12036804D01*
X12817618Y-12028868D01*
X12825554Y-12019199D01*
X12831450Y-12008168D01*
X12832749Y-12003885D01*
X12839338Y-12011912D01*
X12849000Y-12019842D01*
X12849000Y-12044800D01*
X12835000Y-12044800D01*
X12832522Y-12045044D01*
X12830140Y-12045767D01*
X12827944Y-12046940D01*
X12826020Y-12048520D01*
X12824440Y-12050444D01*
X12823267Y-12052640D01*
X12822544Y-12055022D01*
X12822300Y-12057500D01*
X12822300Y-12074000D01*
X12812300Y-12074000D01*
X12812300Y-12077964D01*
X12810078Y-12077253D01*
X12806825Y-12074000D01*
X12800000Y-12074745D01*
X12793175Y-12074000D01*
X12789922Y-12077253D01*
X12784687Y-12078928D01*
X12773747Y-12084992D01*
X12770535Y-12087710D01*
X12756825Y-12074000D01*
X12746600Y-12075116D01*
X12734687Y-12078928D01*
X12723747Y-12084992D01*
X12714200Y-12093074D01*
X12706413Y-12102862D01*
X12700685Y-12113982D01*
X12697237Y-12126006D01*
X12696200Y-12138471D01*
X12696500Y-12181425D01*
X12712375Y-12197300D01*
X12696500Y-12197300D01*
X12696500Y-12209535D01*
X12580439Y-12090643D01*
X12570279Y-12082202D01*
X12559300Y-12076334D01*
X12547700Y-12072815D01*
X12547700Y-11983750D01*
X12563693Y-11983750D01*
X12564919Y-11996198D01*
X12568550Y-12008168D01*
X12574446Y-12019199D01*
X12582381Y-12028868D01*
X12592051Y-12036804D01*
X12603082Y-12042700D01*
X12615052Y-12046331D01*
X12627500Y-12047557D01*
X12671425Y-12047250D01*
X12687300Y-12031375D01*
X12687300Y-11937700D01*
X12579875Y-11937700D01*
X12564000Y-11953575D01*
X12563693Y-11983750D01*
X12547700Y-11983750D01*
X12547700Y-11625200D01*
X12571500Y-11625200D01*
X12571500Y-11635194D01*
%TA.AperFunction,Conductor*%
D33*
G36*
X12571500Y-11635194D02*
G01*
X12573328Y-11644385D01*
X12570453Y-11649765D01*
X12565399Y-11666425D01*
X12563693Y-11683750D01*
X12563693Y-11751250D01*
X12565399Y-11768575D01*
X12570453Y-11785235D01*
X12578659Y-11800589D01*
X12589704Y-11814046D01*
X12590359Y-11814584D01*
X12582381Y-11821131D01*
X12574446Y-11830801D01*
X12568550Y-11841832D01*
X12564919Y-11853802D01*
X12563693Y-11866250D01*
X12564000Y-11896425D01*
X12579875Y-11912300D01*
X12687300Y-11912300D01*
X12687300Y-11910300D01*
X12712700Y-11910300D01*
X12712700Y-11912300D01*
X12714700Y-11912300D01*
X12714700Y-11937700D01*
X12712700Y-11937700D01*
X12712700Y-12031375D01*
X12728575Y-12047250D01*
X12772500Y-12047557D01*
X12784948Y-12046331D01*
X12796918Y-12042700D01*
X12807949Y-12036804D01*
X12817618Y-12028868D01*
X12825554Y-12019199D01*
X12831450Y-12008168D01*
X12832749Y-12003885D01*
X12839338Y-12011912D01*
X12849000Y-12019842D01*
X12849000Y-12044800D01*
X12835000Y-12044800D01*
X12832522Y-12045044D01*
X12830140Y-12045767D01*
X12827944Y-12046940D01*
X12826020Y-12048520D01*
X12824440Y-12050444D01*
X12823267Y-12052640D01*
X12822544Y-12055022D01*
X12822300Y-12057500D01*
X12822300Y-12074000D01*
X12812300Y-12074000D01*
X12812300Y-12077964D01*
X12810078Y-12077253D01*
X12806825Y-12074000D01*
X12800000Y-12074745D01*
X12793175Y-12074000D01*
X12789922Y-12077253D01*
X12784687Y-12078928D01*
X12773747Y-12084992D01*
X12770535Y-12087710D01*
X12756825Y-12074000D01*
X12746600Y-12075116D01*
X12734687Y-12078928D01*
X12723747Y-12084992D01*
X12714200Y-12093074D01*
X12706413Y-12102862D01*
X12700685Y-12113982D01*
X12697237Y-12126006D01*
X12696200Y-12138471D01*
X12696500Y-12181425D01*
X12712375Y-12197300D01*
X12696500Y-12197300D01*
X12696500Y-12209535D01*
X12580439Y-12090643D01*
X12570279Y-12082202D01*
X12559300Y-12076334D01*
X12547700Y-12072815D01*
X12547700Y-11983750D01*
X12563693Y-11983750D01*
X12564919Y-11996198D01*
X12568550Y-12008168D01*
X12574446Y-12019199D01*
X12582381Y-12028868D01*
X12592051Y-12036804D01*
X12603082Y-12042700D01*
X12615052Y-12046331D01*
X12627500Y-12047557D01*
X12671425Y-12047250D01*
X12687300Y-12031375D01*
X12687300Y-11937700D01*
X12579875Y-11937700D01*
X12564000Y-11953575D01*
X12563693Y-11983750D01*
X12547700Y-11983750D01*
X12547700Y-11625200D01*
X12571500Y-11625200D01*
X12571500Y-11635194D01*
G37*
%TD.AperFunction*%
%TD*%
D32*
%TO.N,GND*%
X12605140Y-12225032D02*
X12609445Y-12239225D01*
X12616503Y-12252428D01*
X12626000Y-12264000D01*
X12637572Y-12273497D01*
X12650775Y-12280555D01*
X12662945Y-12284246D01*
X12717299Y-12339926D01*
X12717193Y-12341000D01*
X12717500Y-12396425D01*
X12733375Y-12412300D01*
X12862300Y-12412300D01*
X12862300Y-12410300D01*
X12887700Y-12410300D01*
X12887700Y-12412300D01*
X13016625Y-12412300D01*
X13032500Y-12396425D01*
X13032640Y-12371206D01*
X13040775Y-12375555D01*
X13055101Y-12379900D01*
X13066267Y-12381000D01*
X13066268Y-12381000D01*
X13070000Y-12381368D01*
X13073732Y-12381000D01*
X13239000Y-12381000D01*
X13239000Y-12532300D01*
X13043140Y-12532300D01*
X13035800Y-12523074D01*
X13031758Y-12519652D01*
X13032807Y-12509000D01*
X13032500Y-12453575D01*
X13016625Y-12437700D01*
X12887700Y-12437700D01*
X12887700Y-12439700D01*
X12862300Y-12439700D01*
X12862300Y-12437700D01*
X12733375Y-12437700D01*
X12717500Y-12453575D01*
X12717234Y-12501500D01*
X12547700Y-12501500D01*
X12547700Y-12166191D01*
X12605140Y-12225032D01*
%TA.AperFunction,Conductor*%
D33*
G36*
X12605140Y-12225032D02*
G01*
X12609445Y-12239225D01*
X12616503Y-12252428D01*
X12626000Y-12264000D01*
X12637572Y-12273497D01*
X12650775Y-12280555D01*
X12662945Y-12284246D01*
X12717299Y-12339926D01*
X12717193Y-12341000D01*
X12717500Y-12396425D01*
X12733375Y-12412300D01*
X12862300Y-12412300D01*
X12862300Y-12410300D01*
X12887700Y-12410300D01*
X12887700Y-12412300D01*
X13016625Y-12412300D01*
X13032500Y-12396425D01*
X13032640Y-12371206D01*
X13040775Y-12375555D01*
X13055101Y-12379900D01*
X13066267Y-12381000D01*
X13066268Y-12381000D01*
X13070000Y-12381368D01*
X13073732Y-12381000D01*
X13239000Y-12381000D01*
X13239000Y-12532300D01*
X13043140Y-12532300D01*
X13035800Y-12523074D01*
X13031758Y-12519652D01*
X13032807Y-12509000D01*
X13032500Y-12453575D01*
X13016625Y-12437700D01*
X12887700Y-12437700D01*
X12887700Y-12439700D01*
X12862300Y-12439700D01*
X12862300Y-12437700D01*
X12733375Y-12437700D01*
X12717500Y-12453575D01*
X12717234Y-12501500D01*
X12547700Y-12501500D01*
X12547700Y-12166191D01*
X12605140Y-12225032D01*
G37*
%TD.AperFunction*%
%TD*%
D32*
%TO.N,VDC*%
X12564810Y-12584523D02*
X12584806Y-12588500D01*
X12605194Y-12588500D01*
X12625190Y-12584523D01*
X12641661Y-12577700D01*
X12696265Y-12577700D01*
X12696500Y-12611425D01*
X12712375Y-12627300D01*
X12789700Y-12627300D01*
X12789700Y-12652700D01*
X12712375Y-12652700D01*
X12696500Y-12668575D01*
X12696200Y-12711528D01*
X12697237Y-12723994D01*
X12700685Y-12736017D01*
X12706413Y-12747137D01*
X12714200Y-12756926D01*
X12723747Y-12765008D01*
X12734687Y-12771071D01*
X12746600Y-12774884D01*
X12756825Y-12776000D01*
X12770535Y-12762289D01*
X12773747Y-12765008D01*
X12784687Y-12771071D01*
X12789922Y-12772747D01*
X12793175Y-12776000D01*
X12800000Y-12775255D01*
X12806825Y-12776000D01*
X12810078Y-12772747D01*
X12815313Y-12771071D01*
X12825000Y-12765702D01*
X12834687Y-12771071D01*
X12839922Y-12772747D01*
X12843175Y-12776000D01*
X12850000Y-12775255D01*
X12856825Y-12776000D01*
X12860078Y-12772747D01*
X12865313Y-12771071D01*
X12876253Y-12765008D01*
X12877486Y-12763964D01*
X12877884Y-12764290D01*
X12882300Y-12766650D01*
X12882300Y-12836563D01*
X12878868Y-12832381D01*
X12869199Y-12824446D01*
X12858168Y-12818550D01*
X12846198Y-12814919D01*
X12833750Y-12813693D01*
X12803575Y-12814000D01*
X12787700Y-12829875D01*
X12787700Y-12937300D01*
X12789700Y-12937300D01*
X12789700Y-12962700D01*
X12787700Y-12962700D01*
X12787700Y-13070125D01*
X12803575Y-13086000D01*
X12833750Y-13086307D01*
X12846198Y-13085081D01*
X12858168Y-13081450D01*
X12869199Y-13075554D01*
X12878868Y-13067618D01*
X12882300Y-13063437D01*
X12882300Y-13130068D01*
X12875449Y-13124446D01*
X12864418Y-13118550D01*
X12852448Y-13114919D01*
X12840000Y-13113693D01*
X12816075Y-13114000D01*
X12800200Y-13129875D01*
X12800200Y-13212300D01*
X12802200Y-13212300D01*
X12802200Y-13237700D01*
X12800200Y-13237700D01*
X12800200Y-13239700D01*
X12774800Y-13239700D01*
X12774800Y-13237700D01*
X12687375Y-13237700D01*
X12671500Y-13253575D01*
X12671277Y-13267300D01*
X12547700Y-13267300D01*
X12547700Y-13177500D01*
X12671193Y-13177500D01*
X12671500Y-13196425D01*
X12687375Y-13212300D01*
X12774800Y-13212300D01*
X12774800Y-13129875D01*
X12758925Y-13114000D01*
X12735000Y-13113693D01*
X12722552Y-13114919D01*
X12710582Y-13118550D01*
X12699551Y-13124446D01*
X12689881Y-13132381D01*
X12681946Y-13142051D01*
X12676050Y-13153082D01*
X12672419Y-13165052D01*
X12671193Y-13177500D01*
X12547700Y-13177500D01*
X12547700Y-13022500D01*
X12652443Y-13022500D01*
X12653669Y-13034948D01*
X12657300Y-13046918D01*
X12663196Y-13057949D01*
X12671131Y-13067618D01*
X12680801Y-13075554D01*
X12691832Y-13081450D01*
X12703802Y-13085081D01*
X12716250Y-13086307D01*
X12746425Y-13086000D01*
X12762300Y-13070125D01*
X12762300Y-12962700D01*
X12668625Y-12962700D01*
X12652750Y-12978575D01*
X12652443Y-13022500D01*
X12547700Y-13022500D01*
X12547700Y-12877500D01*
X12652443Y-12877500D01*
X12652750Y-12921425D01*
X12668625Y-12937300D01*
X12762300Y-12937300D01*
X12762300Y-12829875D01*
X12746425Y-12814000D01*
X12716250Y-12813693D01*
X12703802Y-12814919D01*
X12691832Y-12818550D01*
X12680801Y-12824446D01*
X12671131Y-12832381D01*
X12663196Y-12842051D01*
X12657300Y-12853082D01*
X12653669Y-12865052D01*
X12652443Y-12877500D01*
X12547700Y-12877500D01*
X12547700Y-12577700D01*
X12548339Y-12577700D01*
X12564810Y-12584523D01*
%TA.AperFunction,Conductor*%
D33*
G36*
X12564810Y-12584523D02*
G01*
X12584806Y-12588500D01*
X12605194Y-12588500D01*
X12625190Y-12584523D01*
X12641661Y-12577700D01*
X12696265Y-12577700D01*
X12696500Y-12611425D01*
X12712375Y-12627300D01*
X12789700Y-12627300D01*
X12789700Y-12652700D01*
X12712375Y-12652700D01*
X12696500Y-12668575D01*
X12696200Y-12711528D01*
X12697237Y-12723994D01*
X12700685Y-12736017D01*
X12706413Y-12747137D01*
X12714200Y-12756926D01*
X12723747Y-12765008D01*
X12734687Y-12771071D01*
X12746600Y-12774884D01*
X12756825Y-12776000D01*
X12770535Y-12762289D01*
X12773747Y-12765008D01*
X12784687Y-12771071D01*
X12789922Y-12772747D01*
X12793175Y-12776000D01*
X12800000Y-12775255D01*
X12806825Y-12776000D01*
X12810078Y-12772747D01*
X12815313Y-12771071D01*
X12825000Y-12765702D01*
X12834687Y-12771071D01*
X12839922Y-12772747D01*
X12843175Y-12776000D01*
X12850000Y-12775255D01*
X12856825Y-12776000D01*
X12860078Y-12772747D01*
X12865313Y-12771071D01*
X12876253Y-12765008D01*
X12877486Y-12763964D01*
X12877884Y-12764290D01*
X12882300Y-12766650D01*
X12882300Y-12836563D01*
X12878868Y-12832381D01*
X12869199Y-12824446D01*
X12858168Y-12818550D01*
X12846198Y-12814919D01*
X12833750Y-12813693D01*
X12803575Y-12814000D01*
X12787700Y-12829875D01*
X12787700Y-12937300D01*
X12789700Y-12937300D01*
X12789700Y-12962700D01*
X12787700Y-12962700D01*
X12787700Y-13070125D01*
X12803575Y-13086000D01*
X12833750Y-13086307D01*
X12846198Y-13085081D01*
X12858168Y-13081450D01*
X12869199Y-13075554D01*
X12878868Y-13067618D01*
X12882300Y-13063437D01*
X12882300Y-13130068D01*
X12875449Y-13124446D01*
X12864418Y-13118550D01*
X12852448Y-13114919D01*
X12840000Y-13113693D01*
X12816075Y-13114000D01*
X12800200Y-13129875D01*
X12800200Y-13212300D01*
X12802200Y-13212300D01*
X12802200Y-13237700D01*
X12800200Y-13237700D01*
X12800200Y-13239700D01*
X12774800Y-13239700D01*
X12774800Y-13237700D01*
X12687375Y-13237700D01*
X12671500Y-13253575D01*
X12671277Y-13267300D01*
X12547700Y-13267300D01*
X12547700Y-13177500D01*
X12671193Y-13177500D01*
X12671500Y-13196425D01*
X12687375Y-13212300D01*
X12774800Y-13212300D01*
X12774800Y-13129875D01*
X12758925Y-13114000D01*
X12735000Y-13113693D01*
X12722552Y-13114919D01*
X12710582Y-13118550D01*
X12699551Y-13124446D01*
X12689881Y-13132381D01*
X12681946Y-13142051D01*
X12676050Y-13153082D01*
X12672419Y-13165052D01*
X12671193Y-13177500D01*
X12547700Y-13177500D01*
X12547700Y-13022500D01*
X12652443Y-13022500D01*
X12653669Y-13034948D01*
X12657300Y-13046918D01*
X12663196Y-13057949D01*
X12671131Y-13067618D01*
X12680801Y-13075554D01*
X12691832Y-13081450D01*
X12703802Y-13085081D01*
X12716250Y-13086307D01*
X12746425Y-13086000D01*
X12762300Y-13070125D01*
X12762300Y-12962700D01*
X12668625Y-12962700D01*
X12652750Y-12978575D01*
X12652443Y-13022500D01*
X12547700Y-13022500D01*
X12547700Y-12877500D01*
X12652443Y-12877500D01*
X12652750Y-12921425D01*
X12668625Y-12937300D01*
X12762300Y-12937300D01*
X12762300Y-12829875D01*
X12746425Y-12814000D01*
X12716250Y-12813693D01*
X12703802Y-12814919D01*
X12691832Y-12818550D01*
X12680801Y-12824446D01*
X12671131Y-12832381D01*
X12663196Y-12842051D01*
X12657300Y-12853082D01*
X12653669Y-12865052D01*
X12652443Y-12877500D01*
X12547700Y-12877500D01*
X12547700Y-12577700D01*
X12548339Y-12577700D01*
X12564810Y-12584523D01*
G37*
%TD.AperFunction*%
%TD*%
D32*
%TO.N,Net-(C11-Pad1)*%
X10348585Y-12043742D02*
X10349700Y-12044488D01*
X10349700Y-12060200D01*
X10347700Y-12060200D01*
X10347700Y-12062200D01*
X10322300Y-12062200D01*
X10322300Y-12060200D01*
X10320300Y-12060200D01*
X10320300Y-12034800D01*
X10322300Y-12034800D01*
X10322300Y-12032800D01*
X10337642Y-12032800D01*
X10348585Y-12043742D01*
%TA.AperFunction,Conductor*%
D33*
G36*
X10348585Y-12043742D02*
G01*
X10349700Y-12044488D01*
X10349700Y-12060200D01*
X10347700Y-12060200D01*
X10347700Y-12062200D01*
X10322300Y-12062200D01*
X10322300Y-12060200D01*
X10320300Y-12060200D01*
X10320300Y-12034800D01*
X10322300Y-12034800D01*
X10322300Y-12032800D01*
X10337642Y-12032800D01*
X10348585Y-12043742D01*
G37*
%TD.AperFunction*%
D32*
X10326946Y-11464551D02*
X10321050Y-11475582D01*
X10317419Y-11487552D01*
X10316193Y-11500000D01*
X10316500Y-11631425D01*
X10332375Y-11647300D01*
X10417300Y-11647300D01*
X10417300Y-11645300D01*
X10442700Y-11645300D01*
X10442700Y-11647300D01*
X10444700Y-11647300D01*
X10444700Y-11672700D01*
X10442700Y-11672700D01*
X10442700Y-11867625D01*
X10458575Y-11883500D01*
X10464186Y-11883580D01*
X10465100Y-11892859D01*
X10469072Y-11905953D01*
X10465060Y-11905953D01*
X10461465Y-11906307D01*
X10461416Y-11906258D01*
X10446921Y-11896572D01*
X10430815Y-11889901D01*
X10413717Y-11886500D01*
X10396284Y-11886500D01*
X10379186Y-11889901D01*
X10363080Y-11896572D01*
X10348585Y-11906258D01*
X10336258Y-11918584D01*
X10326572Y-11933079D01*
X10325156Y-11936500D01*
X10322300Y-11936500D01*
X10322300Y-11943394D01*
X10319901Y-11949185D01*
X10319770Y-11949845D01*
X10306425Y-11936500D01*
X10291250Y-11936193D01*
X10278802Y-11937419D01*
X10266832Y-11941050D01*
X10255801Y-11946946D01*
X10249143Y-11952410D01*
X10246978Y-11950633D01*
X10232164Y-11942715D01*
X10216091Y-11937839D01*
X10199375Y-11936193D01*
X10155625Y-11936193D01*
X10138909Y-11937839D01*
X10122836Y-11942715D01*
X10112700Y-11948133D01*
X10112700Y-11820000D01*
X10316193Y-11820000D01*
X10317419Y-11832448D01*
X10321050Y-11844418D01*
X10326946Y-11855449D01*
X10334882Y-11865118D01*
X10344551Y-11873054D01*
X10355582Y-11878950D01*
X10367552Y-11882581D01*
X10380000Y-11883807D01*
X10401425Y-11883500D01*
X10417300Y-11867625D01*
X10417300Y-11672700D01*
X10332375Y-11672700D01*
X10316500Y-11688575D01*
X10316193Y-11820000D01*
X10112700Y-11820000D01*
X10112700Y-11462700D01*
X10328465Y-11462700D01*
X10326946Y-11464551D01*
%TA.AperFunction,Conductor*%
D33*
G36*
X10326946Y-11464551D02*
G01*
X10321050Y-11475582D01*
X10317419Y-11487552D01*
X10316193Y-11500000D01*
X10316500Y-11631425D01*
X10332375Y-11647300D01*
X10417300Y-11647300D01*
X10417300Y-11645300D01*
X10442700Y-11645300D01*
X10442700Y-11647300D01*
X10444700Y-11647300D01*
X10444700Y-11672700D01*
X10442700Y-11672700D01*
X10442700Y-11867625D01*
X10458575Y-11883500D01*
X10464186Y-11883580D01*
X10465100Y-11892859D01*
X10469072Y-11905953D01*
X10465060Y-11905953D01*
X10461465Y-11906307D01*
X10461416Y-11906258D01*
X10446921Y-11896572D01*
X10430815Y-11889901D01*
X10413717Y-11886500D01*
X10396284Y-11886500D01*
X10379186Y-11889901D01*
X10363080Y-11896572D01*
X10348585Y-11906258D01*
X10336258Y-11918584D01*
X10326572Y-11933079D01*
X10325156Y-11936500D01*
X10322300Y-11936500D01*
X10322300Y-11943394D01*
X10319901Y-11949185D01*
X10319770Y-11949845D01*
X10306425Y-11936500D01*
X10291250Y-11936193D01*
X10278802Y-11937419D01*
X10266832Y-11941050D01*
X10255801Y-11946946D01*
X10249143Y-11952410D01*
X10246978Y-11950633D01*
X10232164Y-11942715D01*
X10216091Y-11937839D01*
X10199375Y-11936193D01*
X10155625Y-11936193D01*
X10138909Y-11937839D01*
X10122836Y-11942715D01*
X10112700Y-11948133D01*
X10112700Y-11820000D01*
X10316193Y-11820000D01*
X10317419Y-11832448D01*
X10321050Y-11844418D01*
X10326946Y-11855449D01*
X10334882Y-11865118D01*
X10344551Y-11873054D01*
X10355582Y-11878950D01*
X10367552Y-11882581D01*
X10380000Y-11883807D01*
X10401425Y-11883500D01*
X10417300Y-11867625D01*
X10417300Y-11672700D01*
X10332375Y-11672700D01*
X10316500Y-11688575D01*
X10316193Y-11820000D01*
X10112700Y-11820000D01*
X10112700Y-11462700D01*
X10328465Y-11462700D01*
X10326946Y-11464551D01*
G37*
%TD.AperFunction*%
%TD*%
D32*
%TO.N,Net-(C17-Pad1)*%
X12471500Y-12545000D02*
X12472485Y-12555000D01*
X12471500Y-12565000D01*
X12471500Y-12990121D01*
X12461805Y-12983643D01*
X12447664Y-12977786D01*
X12432653Y-12974800D01*
X12417347Y-12974800D01*
X12402336Y-12977786D01*
X12388195Y-12983643D01*
X12375469Y-12992146D01*
X12364646Y-13002969D01*
X12356143Y-13015695D01*
X12350286Y-13029836D01*
X12347300Y-13044847D01*
X12347300Y-13060153D01*
X12350286Y-13075164D01*
X12356143Y-13089305D01*
X12364646Y-13102031D01*
X12375469Y-13112854D01*
X12388195Y-13121357D01*
X12402336Y-13127214D01*
X12417347Y-13130200D01*
X12432653Y-13130200D01*
X12447664Y-13127214D01*
X12461805Y-13121357D01*
X12471500Y-13114879D01*
X12471500Y-13179800D01*
X11420109Y-13179800D01*
X11419287Y-13065588D01*
X11423286Y-13058107D01*
X11426722Y-13046780D01*
X11427882Y-13035000D01*
X11427882Y-13003551D01*
X11434304Y-13001603D01*
X11443024Y-12996942D01*
X11450668Y-12990668D01*
X11452240Y-12988753D01*
X11491254Y-12949739D01*
X11493168Y-12948168D01*
X11494739Y-12946254D01*
X11494740Y-12946254D01*
X11499442Y-12940525D01*
X11502016Y-12935708D01*
X11545193Y-12935708D01*
X11546362Y-12948161D01*
X11549939Y-12960148D01*
X11555784Y-12971206D01*
X11563675Y-12980911D01*
X11573308Y-12988891D01*
X11584312Y-12994838D01*
X11596265Y-12998523D01*
X11608425Y-12999500D01*
X11624300Y-12983625D01*
X11624300Y-12917700D01*
X11561375Y-12917700D01*
X11545500Y-12933575D01*
X11545193Y-12935708D01*
X11502016Y-12935708D01*
X11502483Y-12934835D01*
X11504103Y-12931804D01*
X11506974Y-12922341D01*
X11507700Y-12914965D01*
X11507700Y-12914964D01*
X11507943Y-12912500D01*
X11507700Y-12910036D01*
X11507700Y-12872785D01*
X11530090Y-12872603D01*
X11545965Y-12856728D01*
X11545965Y-12866073D01*
X11545193Y-12874292D01*
X11545500Y-12876425D01*
X11561375Y-12892300D01*
X11624300Y-12892300D01*
X11624300Y-12890300D01*
X11649700Y-12890300D01*
X11649700Y-12892300D01*
X11651700Y-12892300D01*
X11651700Y-12917700D01*
X11649700Y-12917700D01*
X11649700Y-12983625D01*
X11665575Y-12999500D01*
X11677735Y-12998523D01*
X11689688Y-12994838D01*
X11696474Y-12991170D01*
X11697772Y-12994304D01*
X11706276Y-13007030D01*
X11717098Y-13017853D01*
X11729825Y-13026356D01*
X11743965Y-13032213D01*
X11758977Y-13035199D01*
X11774282Y-13035199D01*
X11789294Y-13032213D01*
X11803434Y-13026356D01*
X11816160Y-13017853D01*
X11822875Y-13011138D01*
X11826893Y-13013286D01*
X11838220Y-13016722D01*
X11850000Y-13017882D01*
X11895000Y-13017882D01*
X11906780Y-13016722D01*
X11918107Y-13013286D01*
X11920400Y-13012061D01*
X11920286Y-13012336D01*
X11917300Y-13027347D01*
X11917300Y-13042653D01*
X11920286Y-13057664D01*
X11926143Y-13071805D01*
X11934646Y-13084531D01*
X11945469Y-13095354D01*
X11958195Y-13103857D01*
X11972336Y-13109714D01*
X11987347Y-13112700D01*
X12002653Y-13112700D01*
X12017664Y-13109714D01*
X12031805Y-13103857D01*
X12044531Y-13095354D01*
X12055354Y-13084531D01*
X12063857Y-13071805D01*
X12068415Y-13060800D01*
X12072969Y-13065354D01*
X12085695Y-13073857D01*
X12099836Y-13079714D01*
X12114847Y-13082700D01*
X12130153Y-13082700D01*
X12145164Y-13079714D01*
X12159305Y-13073857D01*
X12172031Y-13065354D01*
X12182854Y-13054531D01*
X12191357Y-13041805D01*
X12197214Y-13027664D01*
X12200200Y-13012653D01*
X12200200Y-12997347D01*
X12197214Y-12982336D01*
X12191357Y-12968195D01*
X12182854Y-12955469D01*
X12172031Y-12944646D01*
X12159305Y-12936143D01*
X12145164Y-12930286D01*
X12130153Y-12927300D01*
X12114847Y-12927300D01*
X12110382Y-12928188D01*
X12110382Y-12907500D01*
X12109222Y-12895720D01*
X12105786Y-12884393D01*
X12100206Y-12873953D01*
X12092697Y-12864803D01*
X12083547Y-12857294D01*
X12073107Y-12851714D01*
X12061780Y-12848278D01*
X12051535Y-12847269D01*
X12051535Y-12846985D01*
X12067730Y-12846985D01*
X12075120Y-12846257D01*
X12082227Y-12844102D01*
X12088776Y-12840601D01*
X12094517Y-12835890D01*
X12099228Y-12830149D01*
X12102728Y-12823600D01*
X12104884Y-12816493D01*
X12105509Y-12810150D01*
X12112113Y-12804907D01*
X12120203Y-12795368D01*
X12126277Y-12784433D01*
X12129274Y-12775100D01*
X12142347Y-12777700D01*
X12157653Y-12777700D01*
X12172664Y-12774714D01*
X12186805Y-12768857D01*
X12199531Y-12760354D01*
X12210354Y-12749531D01*
X12218857Y-12736805D01*
X12224714Y-12722664D01*
X12227700Y-12707653D01*
X12227700Y-12692347D01*
X12224714Y-12677336D01*
X12218857Y-12663195D01*
X12210354Y-12650469D01*
X12206654Y-12646770D01*
X12213207Y-12636963D01*
X12219064Y-12622823D01*
X12222050Y-12607811D01*
X12222050Y-12592506D01*
X12219064Y-12577494D01*
X12213207Y-12563354D01*
X12204703Y-12550628D01*
X12197958Y-12543882D01*
X12216000Y-12543882D01*
X12226122Y-12542885D01*
X12235854Y-12539933D01*
X12244824Y-12535139D01*
X12250000Y-12530891D01*
X12255176Y-12535139D01*
X12264145Y-12539933D01*
X12273878Y-12542885D01*
X12284000Y-12543882D01*
X12312000Y-12543882D01*
X12322122Y-12542885D01*
X12330469Y-12540353D01*
X12337969Y-12547854D01*
X12350695Y-12556357D01*
X12364836Y-12562214D01*
X12379847Y-12565200D01*
X12395153Y-12565200D01*
X12410164Y-12562214D01*
X12424305Y-12556357D01*
X12437031Y-12547854D01*
X12447854Y-12537031D01*
X12456357Y-12524305D01*
X12462214Y-12510164D01*
X12465200Y-12495153D01*
X12465200Y-12479847D01*
X12462214Y-12464836D01*
X12456357Y-12450695D01*
X12447854Y-12437969D01*
X12437031Y-12427146D01*
X12424305Y-12418643D01*
X12410164Y-12412786D01*
X12399770Y-12410718D01*
X12399550Y-12410450D01*
X12390003Y-12402615D01*
X12379110Y-12396792D01*
X12367291Y-12393207D01*
X12358079Y-12392300D01*
X12355000Y-12391997D01*
X12351921Y-12392300D01*
X12314421Y-12392300D01*
X12305209Y-12393207D01*
X12293390Y-12396792D01*
X12282497Y-12402615D01*
X12277442Y-12406763D01*
X12273878Y-12407114D01*
X12264145Y-12410067D01*
X12255176Y-12414861D01*
X12250000Y-12419109D01*
X12244824Y-12414861D01*
X12235854Y-12410067D01*
X12226122Y-12407114D01*
X12216000Y-12406118D01*
X12188000Y-12406118D01*
X12186925Y-12406223D01*
X12186805Y-12406143D01*
X12172664Y-12400286D01*
X12157653Y-12397300D01*
X12142347Y-12397300D01*
X12127336Y-12400286D01*
X12113195Y-12406143D01*
X12101443Y-12413995D01*
X12099228Y-12409851D01*
X12094517Y-12404110D01*
X12094084Y-12403755D01*
X12099714Y-12390164D01*
X12102700Y-12375153D01*
X12102700Y-12359847D01*
X12099714Y-12344836D01*
X12093857Y-12330695D01*
X12085354Y-12317969D01*
X12074531Y-12307146D01*
X12061805Y-12298643D01*
X12047664Y-12292786D01*
X12032653Y-12289800D01*
X12017347Y-12289800D01*
X12002336Y-12292786D01*
X11988195Y-12298643D01*
X11979610Y-12304380D01*
X11977214Y-12292336D01*
X11971357Y-12278195D01*
X11964109Y-12267347D01*
X12297300Y-12267347D01*
X12297300Y-12282653D01*
X12300286Y-12297664D01*
X12306143Y-12311805D01*
X12314646Y-12324531D01*
X12325469Y-12335354D01*
X12338195Y-12343857D01*
X12352336Y-12349714D01*
X12367347Y-12352700D01*
X12382653Y-12352700D01*
X12397664Y-12349714D01*
X12411805Y-12343857D01*
X12424531Y-12335354D01*
X12435354Y-12324531D01*
X12443857Y-12311805D01*
X12449714Y-12297664D01*
X12452700Y-12282653D01*
X12452700Y-12267347D01*
X12449714Y-12252336D01*
X12443857Y-12238195D01*
X12435354Y-12225469D01*
X12424531Y-12214646D01*
X12411805Y-12206143D01*
X12397664Y-12200286D01*
X12382653Y-12197300D01*
X12367347Y-12197300D01*
X12352336Y-12200286D01*
X12338195Y-12206143D01*
X12325469Y-12214646D01*
X12314646Y-12225469D01*
X12306143Y-12238195D01*
X12300286Y-12252336D01*
X12297300Y-12267347D01*
X11964109Y-12267347D01*
X11962854Y-12265469D01*
X11952031Y-12254646D01*
X11939305Y-12246143D01*
X11925164Y-12240286D01*
X11910153Y-12237300D01*
X11894847Y-12237300D01*
X11879836Y-12240286D01*
X11876632Y-12241613D01*
X11876632Y-12237500D01*
X11875424Y-12225232D01*
X11871846Y-12213436D01*
X11866035Y-12202564D01*
X11858215Y-12193035D01*
X11848686Y-12185215D01*
X11837814Y-12179404D01*
X11826018Y-12175826D01*
X11813750Y-12174618D01*
X11746250Y-12174618D01*
X11733982Y-12175826D01*
X11722186Y-12179404D01*
X11711314Y-12185215D01*
X11701785Y-12193035D01*
X11693965Y-12202564D01*
X11688154Y-12213436D01*
X11684576Y-12225232D01*
X11683368Y-12237500D01*
X11683368Y-12332500D01*
X11684576Y-12344768D01*
X11688154Y-12356564D01*
X11693965Y-12367436D01*
X11701785Y-12376965D01*
X11711314Y-12384785D01*
X11722186Y-12390596D01*
X11733982Y-12394174D01*
X11738550Y-12394624D01*
X11738550Y-12434798D01*
X11692370Y-12434798D01*
X11684979Y-12435525D01*
X11677873Y-12437681D01*
X11671324Y-12441182D01*
X11665583Y-12445893D01*
X11662942Y-12449111D01*
X11662942Y-12430897D01*
X11662215Y-12423506D01*
X11660059Y-12416400D01*
X11656558Y-12409851D01*
X11651847Y-12404110D01*
X11646106Y-12399399D01*
X11639557Y-12395898D01*
X11632451Y-12393742D01*
X11625060Y-12393015D01*
X11622340Y-12393015D01*
X11630314Y-12390596D01*
X11641186Y-12384785D01*
X11650715Y-12376965D01*
X11658535Y-12367436D01*
X11664346Y-12356564D01*
X11667924Y-12344768D01*
X11669132Y-12332500D01*
X11669132Y-12237500D01*
X11667924Y-12225232D01*
X11664346Y-12213436D01*
X11658535Y-12202564D01*
X11650715Y-12193035D01*
X11641186Y-12185215D01*
X11630314Y-12179404D01*
X11618518Y-12175826D01*
X11606250Y-12174618D01*
X11538750Y-12174618D01*
X11526482Y-12175826D01*
X11514686Y-12179404D01*
X11503814Y-12185215D01*
X11494285Y-12193035D01*
X11486465Y-12202564D01*
X11480654Y-12213436D01*
X11477076Y-12225232D01*
X11475868Y-12237500D01*
X11475868Y-12317806D01*
X11467882Y-12325791D01*
X11467882Y-12325000D01*
X11466722Y-12313220D01*
X11463286Y-12301893D01*
X11457706Y-12291453D01*
X11450197Y-12282303D01*
X11441047Y-12274794D01*
X11430607Y-12269214D01*
X11419280Y-12265778D01*
X11413529Y-12265211D01*
X11412792Y-12162700D01*
X12471500Y-12162700D01*
X12471500Y-12545000D01*
%TA.AperFunction,Conductor*%
D33*
G36*
X12471500Y-12545000D02*
G01*
X12472485Y-12555000D01*
X12471500Y-12565000D01*
X12471500Y-12990121D01*
X12461805Y-12983643D01*
X12447664Y-12977786D01*
X12432653Y-12974800D01*
X12417347Y-12974800D01*
X12402336Y-12977786D01*
X12388195Y-12983643D01*
X12375469Y-12992146D01*
X12364646Y-13002969D01*
X12356143Y-13015695D01*
X12350286Y-13029836D01*
X12347300Y-13044847D01*
X12347300Y-13060153D01*
X12350286Y-13075164D01*
X12356143Y-13089305D01*
X12364646Y-13102031D01*
X12375469Y-13112854D01*
X12388195Y-13121357D01*
X12402336Y-13127214D01*
X12417347Y-13130200D01*
X12432653Y-13130200D01*
X12447664Y-13127214D01*
X12461805Y-13121357D01*
X12471500Y-13114879D01*
X12471500Y-13179800D01*
X11420109Y-13179800D01*
X11419287Y-13065588D01*
X11423286Y-13058107D01*
X11426722Y-13046780D01*
X11427882Y-13035000D01*
X11427882Y-13003551D01*
X11434304Y-13001603D01*
X11443024Y-12996942D01*
X11450668Y-12990668D01*
X11452240Y-12988753D01*
X11491254Y-12949739D01*
X11493168Y-12948168D01*
X11494739Y-12946254D01*
X11494740Y-12946254D01*
X11499442Y-12940525D01*
X11502016Y-12935708D01*
X11545193Y-12935708D01*
X11546362Y-12948161D01*
X11549939Y-12960148D01*
X11555784Y-12971206D01*
X11563675Y-12980911D01*
X11573308Y-12988891D01*
X11584312Y-12994838D01*
X11596265Y-12998523D01*
X11608425Y-12999500D01*
X11624300Y-12983625D01*
X11624300Y-12917700D01*
X11561375Y-12917700D01*
X11545500Y-12933575D01*
X11545193Y-12935708D01*
X11502016Y-12935708D01*
X11502483Y-12934835D01*
X11504103Y-12931804D01*
X11506974Y-12922341D01*
X11507700Y-12914965D01*
X11507700Y-12914964D01*
X11507943Y-12912500D01*
X11507700Y-12910036D01*
X11507700Y-12872785D01*
X11530090Y-12872603D01*
X11545965Y-12856728D01*
X11545965Y-12866073D01*
X11545193Y-12874292D01*
X11545500Y-12876425D01*
X11561375Y-12892300D01*
X11624300Y-12892300D01*
X11624300Y-12890300D01*
X11649700Y-12890300D01*
X11649700Y-12892300D01*
X11651700Y-12892300D01*
X11651700Y-12917700D01*
X11649700Y-12917700D01*
X11649700Y-12983625D01*
X11665575Y-12999500D01*
X11677735Y-12998523D01*
X11689688Y-12994838D01*
X11696474Y-12991170D01*
X11697772Y-12994304D01*
X11706276Y-13007030D01*
X11717098Y-13017853D01*
X11729825Y-13026356D01*
X11743965Y-13032213D01*
X11758977Y-13035199D01*
X11774282Y-13035199D01*
X11789294Y-13032213D01*
X11803434Y-13026356D01*
X11816160Y-13017853D01*
X11822875Y-13011138D01*
X11826893Y-13013286D01*
X11838220Y-13016722D01*
X11850000Y-13017882D01*
X11895000Y-13017882D01*
X11906780Y-13016722D01*
X11918107Y-13013286D01*
X11920400Y-13012061D01*
X11920286Y-13012336D01*
X11917300Y-13027347D01*
X11917300Y-13042653D01*
X11920286Y-13057664D01*
X11926143Y-13071805D01*
X11934646Y-13084531D01*
X11945469Y-13095354D01*
X11958195Y-13103857D01*
X11972336Y-13109714D01*
X11987347Y-13112700D01*
X12002653Y-13112700D01*
X12017664Y-13109714D01*
X12031805Y-13103857D01*
X12044531Y-13095354D01*
X12055354Y-13084531D01*
X12063857Y-13071805D01*
X12068415Y-13060800D01*
X12072969Y-13065354D01*
X12085695Y-13073857D01*
X12099836Y-13079714D01*
X12114847Y-13082700D01*
X12130153Y-13082700D01*
X12145164Y-13079714D01*
X12159305Y-13073857D01*
X12172031Y-13065354D01*
X12182854Y-13054531D01*
X12191357Y-13041805D01*
X12197214Y-13027664D01*
X12200200Y-13012653D01*
X12200200Y-12997347D01*
X12197214Y-12982336D01*
X12191357Y-12968195D01*
X12182854Y-12955469D01*
X12172031Y-12944646D01*
X12159305Y-12936143D01*
X12145164Y-12930286D01*
X12130153Y-12927300D01*
X12114847Y-12927300D01*
X12110382Y-12928188D01*
X12110382Y-12907500D01*
X12109222Y-12895720D01*
X12105786Y-12884393D01*
X12100206Y-12873953D01*
X12092697Y-12864803D01*
X12083547Y-12857294D01*
X12073107Y-12851714D01*
X12061780Y-12848278D01*
X12051535Y-12847269D01*
X12051535Y-12846985D01*
X12067730Y-12846985D01*
X12075120Y-12846257D01*
X12082227Y-12844102D01*
X12088776Y-12840601D01*
X12094517Y-12835890D01*
X12099228Y-12830149D01*
X12102728Y-12823600D01*
X12104884Y-12816493D01*
X12105509Y-12810150D01*
X12112113Y-12804907D01*
X12120203Y-12795368D01*
X12126277Y-12784433D01*
X12129274Y-12775100D01*
X12142347Y-12777700D01*
X12157653Y-12777700D01*
X12172664Y-12774714D01*
X12186805Y-12768857D01*
X12199531Y-12760354D01*
X12210354Y-12749531D01*
X12218857Y-12736805D01*
X12224714Y-12722664D01*
X12227700Y-12707653D01*
X12227700Y-12692347D01*
X12224714Y-12677336D01*
X12218857Y-12663195D01*
X12210354Y-12650469D01*
X12206654Y-12646770D01*
X12213207Y-12636963D01*
X12219064Y-12622823D01*
X12222050Y-12607811D01*
X12222050Y-12592506D01*
X12219064Y-12577494D01*
X12213207Y-12563354D01*
X12204703Y-12550628D01*
X12197958Y-12543882D01*
X12216000Y-12543882D01*
X12226122Y-12542885D01*
X12235854Y-12539933D01*
X12244824Y-12535139D01*
X12250000Y-12530891D01*
X12255176Y-12535139D01*
X12264145Y-12539933D01*
X12273878Y-12542885D01*
X12284000Y-12543882D01*
X12312000Y-12543882D01*
X12322122Y-12542885D01*
X12330469Y-12540353D01*
X12337969Y-12547854D01*
X12350695Y-12556357D01*
X12364836Y-12562214D01*
X12379847Y-12565200D01*
X12395153Y-12565200D01*
X12410164Y-12562214D01*
X12424305Y-12556357D01*
X12437031Y-12547854D01*
X12447854Y-12537031D01*
X12456357Y-12524305D01*
X12462214Y-12510164D01*
X12465200Y-12495153D01*
X12465200Y-12479847D01*
X12462214Y-12464836D01*
X12456357Y-12450695D01*
X12447854Y-12437969D01*
X12437031Y-12427146D01*
X12424305Y-12418643D01*
X12410164Y-12412786D01*
X12399770Y-12410718D01*
X12399550Y-12410450D01*
X12390003Y-12402615D01*
X12379110Y-12396792D01*
X12367291Y-12393207D01*
X12358079Y-12392300D01*
X12355000Y-12391997D01*
X12351921Y-12392300D01*
X12314421Y-12392300D01*
X12305209Y-12393207D01*
X12293390Y-12396792D01*
X12282497Y-12402615D01*
X12277442Y-12406763D01*
X12273878Y-12407114D01*
X12264145Y-12410067D01*
X12255176Y-12414861D01*
X12250000Y-12419109D01*
X12244824Y-12414861D01*
X12235854Y-12410067D01*
X12226122Y-12407114D01*
X12216000Y-12406118D01*
X12188000Y-12406118D01*
X12186925Y-12406223D01*
X12186805Y-12406143D01*
X12172664Y-12400286D01*
X12157653Y-12397300D01*
X12142347Y-12397300D01*
X12127336Y-12400286D01*
X12113195Y-12406143D01*
X12101443Y-12413995D01*
X12099228Y-12409851D01*
X12094517Y-12404110D01*
X12094084Y-12403755D01*
X12099714Y-12390164D01*
X12102700Y-12375153D01*
X12102700Y-12359847D01*
X12099714Y-12344836D01*
X12093857Y-12330695D01*
X12085354Y-12317969D01*
X12074531Y-12307146D01*
X12061805Y-12298643D01*
X12047664Y-12292786D01*
X12032653Y-12289800D01*
X12017347Y-12289800D01*
X12002336Y-12292786D01*
X11988195Y-12298643D01*
X11979610Y-12304380D01*
X11977214Y-12292336D01*
X11971357Y-12278195D01*
X11964109Y-12267347D01*
X12297300Y-12267347D01*
X12297300Y-12282653D01*
X12300286Y-12297664D01*
X12306143Y-12311805D01*
X12314646Y-12324531D01*
X12325469Y-12335354D01*
X12338195Y-12343857D01*
X12352336Y-12349714D01*
X12367347Y-12352700D01*
X12382653Y-12352700D01*
X12397664Y-12349714D01*
X12411805Y-12343857D01*
X12424531Y-12335354D01*
X12435354Y-12324531D01*
X12443857Y-12311805D01*
X12449714Y-12297664D01*
X12452700Y-12282653D01*
X12452700Y-12267347D01*
X12449714Y-12252336D01*
X12443857Y-12238195D01*
X12435354Y-12225469D01*
X12424531Y-12214646D01*
X12411805Y-12206143D01*
X12397664Y-12200286D01*
X12382653Y-12197300D01*
X12367347Y-12197300D01*
X12352336Y-12200286D01*
X12338195Y-12206143D01*
X12325469Y-12214646D01*
X12314646Y-12225469D01*
X12306143Y-12238195D01*
X12300286Y-12252336D01*
X12297300Y-12267347D01*
X11964109Y-12267347D01*
X11962854Y-12265469D01*
X11952031Y-12254646D01*
X11939305Y-12246143D01*
X11925164Y-12240286D01*
X11910153Y-12237300D01*
X11894847Y-12237300D01*
X11879836Y-12240286D01*
X11876632Y-12241613D01*
X11876632Y-12237500D01*
X11875424Y-12225232D01*
X11871846Y-12213436D01*
X11866035Y-12202564D01*
X11858215Y-12193035D01*
X11848686Y-12185215D01*
X11837814Y-12179404D01*
X11826018Y-12175826D01*
X11813750Y-12174618D01*
X11746250Y-12174618D01*
X11733982Y-12175826D01*
X11722186Y-12179404D01*
X11711314Y-12185215D01*
X11701785Y-12193035D01*
X11693965Y-12202564D01*
X11688154Y-12213436D01*
X11684576Y-12225232D01*
X11683368Y-12237500D01*
X11683368Y-12332500D01*
X11684576Y-12344768D01*
X11688154Y-12356564D01*
X11693965Y-12367436D01*
X11701785Y-12376965D01*
X11711314Y-12384785D01*
X11722186Y-12390596D01*
X11733982Y-12394174D01*
X11738550Y-12394624D01*
X11738550Y-12434798D01*
X11692370Y-12434798D01*
X11684979Y-12435525D01*
X11677873Y-12437681D01*
X11671324Y-12441182D01*
X11665583Y-12445893D01*
X11662942Y-12449111D01*
X11662942Y-12430897D01*
X11662215Y-12423506D01*
X11660059Y-12416400D01*
X11656558Y-12409851D01*
X11651847Y-12404110D01*
X11646106Y-12399399D01*
X11639557Y-12395898D01*
X11632451Y-12393742D01*
X11625060Y-12393015D01*
X11622340Y-12393015D01*
X11630314Y-12390596D01*
X11641186Y-12384785D01*
X11650715Y-12376965D01*
X11658535Y-12367436D01*
X11664346Y-12356564D01*
X11667924Y-12344768D01*
X11669132Y-12332500D01*
X11669132Y-12237500D01*
X11667924Y-12225232D01*
X11664346Y-12213436D01*
X11658535Y-12202564D01*
X11650715Y-12193035D01*
X11641186Y-12185215D01*
X11630314Y-12179404D01*
X11618518Y-12175826D01*
X11606250Y-12174618D01*
X11538750Y-12174618D01*
X11526482Y-12175826D01*
X11514686Y-12179404D01*
X11503814Y-12185215D01*
X11494285Y-12193035D01*
X11486465Y-12202564D01*
X11480654Y-12213436D01*
X11477076Y-12225232D01*
X11475868Y-12237500D01*
X11475868Y-12317806D01*
X11467882Y-12325791D01*
X11467882Y-12325000D01*
X11466722Y-12313220D01*
X11463286Y-12301893D01*
X11457706Y-12291453D01*
X11450197Y-12282303D01*
X11441047Y-12274794D01*
X11430607Y-12269214D01*
X11419280Y-12265778D01*
X11413529Y-12265211D01*
X11412792Y-12162700D01*
X12471500Y-12162700D01*
X12471500Y-12545000D01*
G37*
%TD.AperFunction*%
%TD*%
M02*
