%TF.GenerationSoftware,KiCad,Pcbnew,5.1.12-1.fc35*%
%TF.CreationDate,2022-01-07T18:54:40+00:00*%
%TF.ProjectId,cryosub_power_converter_top_v03,6372796f-7375-4625-9f70-6f7765725f63,rev?*%
%TF.SameCoordinates,Original*%
%TF.FileFunction,Legend,Bot*%
%TF.FilePolarity,Positive*%
%FSLAX45Y45*%
G04 Gerber Fmt 4.5, Leading zero omitted, Abs format (unit mm)*
G04 Created by KiCad (PCBNEW 5.1.12-1.fc35) date 2022-01-07 18:54:40*
%MOMM*%
%LPD*%
G01*
G04 APERTURE LIST*
%ADD10C,0.120000*%
%ADD11C,0.150000*%
%ADD12C,1.700000*%
%ADD13C,4.700000*%
%ADD14C,1.400000*%
%ADD15C,1.000000*%
%ADD16R,0.900000X1.200000*%
%ADD17R,1.000000X3.150000*%
G04 APERTURE END LIST*
D10*
%TO.C,R13*%
X10865500Y-12311136D02*
X10865500Y-12341864D01*
X10789500Y-12311136D02*
X10789500Y-12341864D01*
%TO.C,R12*%
X12307028Y-12892750D02*
X12357972Y-12892750D01*
X12307028Y-12997250D02*
X12357972Y-12997250D01*
%TO.C,R11*%
X12365472Y-12787250D02*
X12314528Y-12787250D01*
X12365472Y-12682750D02*
X12314528Y-12682750D01*
%TO.C,R19*%
X12274528Y-12322750D02*
X12325472Y-12322750D01*
X12274528Y-12427250D02*
X12325472Y-12427250D01*
%TO.C,R18*%
X12325472Y-12634750D02*
X12274528Y-12634750D01*
X12325472Y-12530250D02*
X12274528Y-12530250D01*
%TO.C,R17*%
X10993774Y-11950250D02*
X11041226Y-11950250D01*
X10993774Y-12054750D02*
X11041226Y-12054750D01*
%TO.C,R15*%
X11189750Y-12211274D02*
X11189750Y-12258726D01*
X11085250Y-12211274D02*
X11085250Y-12258726D01*
%TO.C,D2*%
X11850000Y-13242500D02*
X12240000Y-13242500D01*
X11850000Y-13042500D02*
X12240000Y-13042500D01*
X11850000Y-13242500D02*
X11850000Y-13042500D01*
%TO.C,C13*%
X10945942Y-11799000D02*
X10974058Y-11799000D01*
X10945942Y-11901000D02*
X10974058Y-11901000D01*
%TO.C,C11*%
X10503442Y-11831500D02*
X10531558Y-11831500D01*
X10503442Y-11933500D02*
X10531558Y-11933500D01*
%TO.C,C7*%
X11528875Y-12864000D02*
X11581125Y-12864000D01*
X11528875Y-13011000D02*
X11581125Y-13011000D01*
%TO.C,J2*%
X11530000Y-11060000D02*
X11632000Y-11060000D01*
X11530000Y-10540000D02*
X11632000Y-10540000D01*
X11276000Y-11060000D02*
X11378000Y-11060000D01*
X11276000Y-10540000D02*
X11378000Y-10540000D01*
X11022000Y-11060000D02*
X11124000Y-11060000D01*
X11022000Y-10540000D02*
X11124000Y-10540000D01*
X10768000Y-11060000D02*
X10870000Y-11060000D01*
X10768000Y-10540000D02*
X10870000Y-10540000D01*
X11784000Y-11060000D02*
X11841000Y-11060000D01*
X11784000Y-10540000D02*
X11841000Y-10540000D01*
X10559000Y-11060000D02*
X10616000Y-11060000D01*
X10559000Y-10540000D02*
X10616000Y-10540000D01*
X10616000Y-10396000D02*
X10616000Y-10540000D01*
X11841000Y-10540000D02*
X11841000Y-11060000D01*
X10559000Y-10540000D02*
X10559000Y-11060000D01*
%TO.C,R4*%
X12502250Y-13808278D02*
X12502250Y-13859222D01*
X12397750Y-13808278D02*
X12397750Y-13859222D01*
%TO.C,R5*%
X11865778Y-13822750D02*
X11916722Y-13822750D01*
X11865778Y-13927250D02*
X11916722Y-13927250D01*
%TO.C,R6*%
X12302250Y-13590778D02*
X12302250Y-13641722D01*
X12197750Y-13590778D02*
X12197750Y-13641722D01*
%TO.C,R8*%
X12677250Y-13959222D02*
X12677250Y-13908278D01*
X12572750Y-13959222D02*
X12572750Y-13908278D01*
%TO.C,R13*%
D11*
X10901786Y-12587738D02*
X10935119Y-12540119D01*
X10958929Y-12587738D02*
X10958929Y-12487738D01*
X10920833Y-12487738D01*
X10911310Y-12492500D01*
X10906548Y-12497262D01*
X10901786Y-12506786D01*
X10901786Y-12521071D01*
X10906548Y-12530595D01*
X10911310Y-12535357D01*
X10920833Y-12540119D01*
X10958929Y-12540119D01*
X10806548Y-12587738D02*
X10863690Y-12587738D01*
X10835119Y-12587738D02*
X10835119Y-12487738D01*
X10844643Y-12502024D01*
X10854167Y-12511548D01*
X10863690Y-12516309D01*
X10773214Y-12487738D02*
X10711310Y-12487738D01*
X10744643Y-12525833D01*
X10730357Y-12525833D01*
X10720833Y-12530595D01*
X10716071Y-12535357D01*
X10711310Y-12544881D01*
X10711310Y-12568690D01*
X10716071Y-12578214D01*
X10720833Y-12582976D01*
X10730357Y-12587738D01*
X10758929Y-12587738D01*
X10768452Y-12582976D01*
X10773214Y-12578214D01*
%TO.C,R12*%
X12396786Y-13133238D02*
X12430119Y-13085619D01*
X12453928Y-13133238D02*
X12453928Y-13033238D01*
X12415833Y-13033238D01*
X12406309Y-13038000D01*
X12401548Y-13042762D01*
X12396786Y-13052286D01*
X12396786Y-13066571D01*
X12401548Y-13076095D01*
X12406309Y-13080857D01*
X12415833Y-13085619D01*
X12453928Y-13085619D01*
X12301548Y-13133238D02*
X12358690Y-13133238D01*
X12330119Y-13133238D02*
X12330119Y-13033238D01*
X12339643Y-13047524D01*
X12349167Y-13057048D01*
X12358690Y-13061809D01*
X12263452Y-13042762D02*
X12258690Y-13038000D01*
X12249167Y-13033238D01*
X12225357Y-13033238D01*
X12215833Y-13038000D01*
X12211071Y-13042762D01*
X12206309Y-13052286D01*
X12206309Y-13061809D01*
X12211071Y-13076095D01*
X12268214Y-13133238D01*
X12206309Y-13133238D01*
%TO.C,R11*%
X12701786Y-12792738D02*
X12735119Y-12745119D01*
X12758928Y-12792738D02*
X12758928Y-12692738D01*
X12720833Y-12692738D01*
X12711309Y-12697500D01*
X12706548Y-12702262D01*
X12701786Y-12711786D01*
X12701786Y-12726071D01*
X12706548Y-12735595D01*
X12711309Y-12740357D01*
X12720833Y-12745119D01*
X12758928Y-12745119D01*
X12606548Y-12792738D02*
X12663690Y-12792738D01*
X12635119Y-12792738D02*
X12635119Y-12692738D01*
X12644643Y-12707024D01*
X12654167Y-12716548D01*
X12663690Y-12721309D01*
X12511309Y-12792738D02*
X12568452Y-12792738D01*
X12539881Y-12792738D02*
X12539881Y-12692738D01*
X12549405Y-12707024D01*
X12558928Y-12716548D01*
X12568452Y-12721309D01*
%TO.C,R19*%
X12276786Y-12270238D02*
X12310119Y-12222619D01*
X12333928Y-12270238D02*
X12333928Y-12170238D01*
X12295833Y-12170238D01*
X12286309Y-12175000D01*
X12281548Y-12179762D01*
X12276786Y-12189286D01*
X12276786Y-12203571D01*
X12281548Y-12213095D01*
X12286309Y-12217857D01*
X12295833Y-12222619D01*
X12333928Y-12222619D01*
X12181548Y-12270238D02*
X12238690Y-12270238D01*
X12210119Y-12270238D02*
X12210119Y-12170238D01*
X12219643Y-12184524D01*
X12229167Y-12194048D01*
X12238690Y-12198809D01*
X12133928Y-12270238D02*
X12114881Y-12270238D01*
X12105357Y-12265476D01*
X12100595Y-12260714D01*
X12091071Y-12246428D01*
X12086309Y-12227381D01*
X12086309Y-12189286D01*
X12091071Y-12179762D01*
X12095833Y-12175000D01*
X12105357Y-12170238D01*
X12124405Y-12170238D01*
X12133928Y-12175000D01*
X12138690Y-12179762D01*
X12143452Y-12189286D01*
X12143452Y-12213095D01*
X12138690Y-12222619D01*
X12133928Y-12227381D01*
X12124405Y-12232143D01*
X12105357Y-12232143D01*
X12095833Y-12227381D01*
X12091071Y-12222619D01*
X12086309Y-12213095D01*
%TO.C,R18*%
X12706786Y-12615238D02*
X12740119Y-12567619D01*
X12763928Y-12615238D02*
X12763928Y-12515238D01*
X12725833Y-12515238D01*
X12716309Y-12520000D01*
X12711548Y-12524762D01*
X12706786Y-12534286D01*
X12706786Y-12548571D01*
X12711548Y-12558095D01*
X12716309Y-12562857D01*
X12725833Y-12567619D01*
X12763928Y-12567619D01*
X12611548Y-12615238D02*
X12668690Y-12615238D01*
X12640119Y-12615238D02*
X12640119Y-12515238D01*
X12649643Y-12529524D01*
X12659167Y-12539048D01*
X12668690Y-12543809D01*
X12554405Y-12558095D02*
X12563928Y-12553333D01*
X12568690Y-12548571D01*
X12573452Y-12539048D01*
X12573452Y-12534286D01*
X12568690Y-12524762D01*
X12563928Y-12520000D01*
X12554405Y-12515238D01*
X12535357Y-12515238D01*
X12525833Y-12520000D01*
X12521071Y-12524762D01*
X12516309Y-12534286D01*
X12516309Y-12539048D01*
X12521071Y-12548571D01*
X12525833Y-12553333D01*
X12535357Y-12558095D01*
X12554405Y-12558095D01*
X12563928Y-12562857D01*
X12568690Y-12567619D01*
X12573452Y-12577143D01*
X12573452Y-12596190D01*
X12568690Y-12605714D01*
X12563928Y-12610476D01*
X12554405Y-12615238D01*
X12535357Y-12615238D01*
X12525833Y-12610476D01*
X12521071Y-12605714D01*
X12516309Y-12596190D01*
X12516309Y-12577143D01*
X12521071Y-12567619D01*
X12525833Y-12562857D01*
X12535357Y-12558095D01*
%TO.C,R17*%
X11386786Y-12062738D02*
X11420119Y-12015119D01*
X11443928Y-12062738D02*
X11443928Y-11962738D01*
X11405833Y-11962738D01*
X11396309Y-11967500D01*
X11391548Y-11972262D01*
X11386786Y-11981786D01*
X11386786Y-11996071D01*
X11391548Y-12005595D01*
X11396309Y-12010357D01*
X11405833Y-12015119D01*
X11443928Y-12015119D01*
X11291548Y-12062738D02*
X11348690Y-12062738D01*
X11320119Y-12062738D02*
X11320119Y-11962738D01*
X11329643Y-11977024D01*
X11339167Y-11986548D01*
X11348690Y-11991309D01*
X11258214Y-11962738D02*
X11191548Y-11962738D01*
X11234405Y-12062738D01*
%TO.C,R15*%
X11254286Y-12522738D02*
X11287619Y-12475119D01*
X11311428Y-12522738D02*
X11311428Y-12422738D01*
X11273333Y-12422738D01*
X11263809Y-12427500D01*
X11259048Y-12432262D01*
X11254286Y-12441786D01*
X11254286Y-12456071D01*
X11259048Y-12465595D01*
X11263809Y-12470357D01*
X11273333Y-12475119D01*
X11311428Y-12475119D01*
X11159048Y-12522738D02*
X11216190Y-12522738D01*
X11187619Y-12522738D02*
X11187619Y-12422738D01*
X11197143Y-12437024D01*
X11206667Y-12446548D01*
X11216190Y-12451309D01*
X11068571Y-12422738D02*
X11116190Y-12422738D01*
X11120952Y-12470357D01*
X11116190Y-12465595D01*
X11106667Y-12460833D01*
X11082857Y-12460833D01*
X11073333Y-12465595D01*
X11068571Y-12470357D01*
X11063810Y-12479881D01*
X11063810Y-12503690D01*
X11068571Y-12513214D01*
X11073333Y-12517976D01*
X11082857Y-12522738D01*
X11106667Y-12522738D01*
X11116190Y-12517976D01*
X11120952Y-12513214D01*
%TO.C,D2*%
X11823809Y-13175238D02*
X11823809Y-13075238D01*
X11800000Y-13075238D01*
X11785714Y-13080000D01*
X11776190Y-13089524D01*
X11771428Y-13099048D01*
X11766667Y-13118095D01*
X11766667Y-13132381D01*
X11771428Y-13151428D01*
X11776190Y-13160952D01*
X11785714Y-13170476D01*
X11800000Y-13175238D01*
X11823809Y-13175238D01*
X11728571Y-13084762D02*
X11723809Y-13080000D01*
X11714286Y-13075238D01*
X11690476Y-13075238D01*
X11680952Y-13080000D01*
X11676190Y-13084762D01*
X11671428Y-13094286D01*
X11671428Y-13103809D01*
X11676190Y-13118095D01*
X11733333Y-13175238D01*
X11671428Y-13175238D01*
%TO.C,C13*%
X10936786Y-11728214D02*
X10941548Y-11732976D01*
X10955833Y-11737738D01*
X10965357Y-11737738D01*
X10979643Y-11732976D01*
X10989167Y-11723452D01*
X10993929Y-11713928D01*
X10998690Y-11694881D01*
X10998690Y-11680595D01*
X10993929Y-11661548D01*
X10989167Y-11652024D01*
X10979643Y-11642500D01*
X10965357Y-11637738D01*
X10955833Y-11637738D01*
X10941548Y-11642500D01*
X10936786Y-11647262D01*
X10841548Y-11737738D02*
X10898690Y-11737738D01*
X10870119Y-11737738D02*
X10870119Y-11637738D01*
X10879643Y-11652024D01*
X10889167Y-11661548D01*
X10898690Y-11666309D01*
X10808214Y-11637738D02*
X10746310Y-11637738D01*
X10779643Y-11675833D01*
X10765357Y-11675833D01*
X10755833Y-11680595D01*
X10751071Y-11685357D01*
X10746310Y-11694881D01*
X10746310Y-11718690D01*
X10751071Y-11728214D01*
X10755833Y-11732976D01*
X10765357Y-11737738D01*
X10793929Y-11737738D01*
X10803452Y-11732976D01*
X10808214Y-11728214D01*
%TO.C,C11*%
X10581786Y-12061214D02*
X10586548Y-12065976D01*
X10600833Y-12070738D01*
X10610357Y-12070738D01*
X10624643Y-12065976D01*
X10634167Y-12056452D01*
X10638929Y-12046928D01*
X10643690Y-12027881D01*
X10643690Y-12013595D01*
X10638929Y-11994548D01*
X10634167Y-11985024D01*
X10624643Y-11975500D01*
X10610357Y-11970738D01*
X10600833Y-11970738D01*
X10586548Y-11975500D01*
X10581786Y-11980262D01*
X10486548Y-12070738D02*
X10543690Y-12070738D01*
X10515119Y-12070738D02*
X10515119Y-11970738D01*
X10524643Y-11985024D01*
X10534167Y-11994548D01*
X10543690Y-11999309D01*
X10391310Y-12070738D02*
X10448452Y-12070738D01*
X10419881Y-12070738D02*
X10419881Y-11970738D01*
X10429405Y-11985024D01*
X10438929Y-11994548D01*
X10448452Y-11999309D01*
%TO.C,C7*%
X11631667Y-13155714D02*
X11636428Y-13160476D01*
X11650714Y-13165238D01*
X11660238Y-13165238D01*
X11674524Y-13160476D01*
X11684048Y-13150952D01*
X11688809Y-13141428D01*
X11693571Y-13122381D01*
X11693571Y-13108095D01*
X11688809Y-13089048D01*
X11684048Y-13079524D01*
X11674524Y-13070000D01*
X11660238Y-13065238D01*
X11650714Y-13065238D01*
X11636428Y-13070000D01*
X11631667Y-13074762D01*
X11598333Y-13065238D02*
X11531667Y-13065238D01*
X11574524Y-13165238D01*
%TO.C,J2*%
X10395238Y-10789167D02*
X10466667Y-10789167D01*
X10480952Y-10784405D01*
X10490476Y-10774881D01*
X10495238Y-10760595D01*
X10495238Y-10751071D01*
X10404762Y-10832024D02*
X10400000Y-10836786D01*
X10395238Y-10846310D01*
X10395238Y-10870119D01*
X10400000Y-10879643D01*
X10404762Y-10884405D01*
X10414286Y-10889167D01*
X10423810Y-10889167D01*
X10438095Y-10884405D01*
X10495238Y-10827262D01*
X10495238Y-10889167D01*
%TO.C,R4*%
X12495238Y-14078333D02*
X12447619Y-14045000D01*
X12495238Y-14021190D02*
X12395238Y-14021190D01*
X12395238Y-14059286D01*
X12400000Y-14068809D01*
X12404762Y-14073571D01*
X12414286Y-14078333D01*
X12428571Y-14078333D01*
X12438095Y-14073571D01*
X12442857Y-14068809D01*
X12447619Y-14059286D01*
X12447619Y-14021190D01*
X12428571Y-14164048D02*
X12495238Y-14164048D01*
X12390476Y-14140238D02*
X12461905Y-14116428D01*
X12461905Y-14178333D01*
%TO.C,R5*%
X11907917Y-14063238D02*
X11941250Y-14015619D01*
X11965059Y-14063238D02*
X11965059Y-13963238D01*
X11926964Y-13963238D01*
X11917440Y-13968000D01*
X11912678Y-13972762D01*
X11907917Y-13982286D01*
X11907917Y-13996571D01*
X11912678Y-14006095D01*
X11917440Y-14010857D01*
X11926964Y-14015619D01*
X11965059Y-14015619D01*
X11817440Y-13963238D02*
X11865059Y-13963238D01*
X11869821Y-14010857D01*
X11865059Y-14006095D01*
X11855536Y-14001333D01*
X11831726Y-14001333D01*
X11822202Y-14006095D01*
X11817440Y-14010857D01*
X11812678Y-14020381D01*
X11812678Y-14044190D01*
X11817440Y-14053714D01*
X11822202Y-14058476D01*
X11831726Y-14063238D01*
X11855536Y-14063238D01*
X11865059Y-14058476D01*
X11869821Y-14053714D01*
%TO.C,R6*%
X12152238Y-13599583D02*
X12104619Y-13566250D01*
X12152238Y-13542440D02*
X12052238Y-13542440D01*
X12052238Y-13580536D01*
X12057000Y-13590059D01*
X12061762Y-13594821D01*
X12071286Y-13599583D01*
X12085571Y-13599583D01*
X12095095Y-13594821D01*
X12099857Y-13590059D01*
X12104619Y-13580536D01*
X12104619Y-13542440D01*
X12052238Y-13685298D02*
X12052238Y-13666250D01*
X12057000Y-13656726D01*
X12061762Y-13651964D01*
X12076048Y-13642440D01*
X12095095Y-13637678D01*
X12133190Y-13637678D01*
X12142714Y-13642440D01*
X12147476Y-13647202D01*
X12152238Y-13656726D01*
X12152238Y-13675774D01*
X12147476Y-13685298D01*
X12142714Y-13690059D01*
X12133190Y-13694821D01*
X12109381Y-13694821D01*
X12099857Y-13690059D01*
X12095095Y-13685298D01*
X12090333Y-13675774D01*
X12090333Y-13656726D01*
X12095095Y-13647202D01*
X12099857Y-13642440D01*
X12109381Y-13637678D01*
%TO.C,R8*%
X12813238Y-13917083D02*
X12765619Y-13883750D01*
X12813238Y-13859940D02*
X12713238Y-13859940D01*
X12713238Y-13898036D01*
X12718000Y-13907559D01*
X12722762Y-13912321D01*
X12732286Y-13917083D01*
X12746571Y-13917083D01*
X12756095Y-13912321D01*
X12760857Y-13907559D01*
X12765619Y-13898036D01*
X12765619Y-13859940D01*
X12756095Y-13974226D02*
X12751333Y-13964702D01*
X12746571Y-13959940D01*
X12737048Y-13955178D01*
X12732286Y-13955178D01*
X12722762Y-13959940D01*
X12718000Y-13964702D01*
X12713238Y-13974226D01*
X12713238Y-13993274D01*
X12718000Y-14002798D01*
X12722762Y-14007559D01*
X12732286Y-14012321D01*
X12737048Y-14012321D01*
X12746571Y-14007559D01*
X12751333Y-14002798D01*
X12756095Y-13993274D01*
X12756095Y-13974226D01*
X12760857Y-13964702D01*
X12765619Y-13959940D01*
X12775143Y-13955178D01*
X12794190Y-13955178D01*
X12803714Y-13959940D01*
X12808476Y-13964702D01*
X12813238Y-13974226D01*
X12813238Y-13993274D01*
X12808476Y-14002798D01*
X12803714Y-14007559D01*
X12794190Y-14012321D01*
X12775143Y-14012321D01*
X12765619Y-14007559D01*
X12760857Y-14002798D01*
X12756095Y-13993274D01*
%TD*%
%LPC*%
D12*
%TO.C,J1*%
X13162000Y-10346000D03*
X12908000Y-10346000D03*
X12654000Y-10346000D03*
X12400000Y-10346000D03*
X13162000Y-10600000D03*
X12908000Y-10600000D03*
X12654000Y-10600000D03*
G36*
G01*
X12460000Y-10685000D02*
X12340000Y-10685000D01*
G75*
G02*
X12315000Y-10660000I0J25000D01*
G01*
X12315000Y-10540000D01*
G75*
G02*
X12340000Y-10515000I25000J0D01*
G01*
X12460000Y-10515000D01*
G75*
G02*
X12485000Y-10540000I0J-25000D01*
G01*
X12485000Y-10660000D01*
G75*
G02*
X12460000Y-10685000I-25000J0D01*
G01*
G37*
%TD*%
D13*
%TO.C,H3*%
X13000000Y-14100000D03*
%TD*%
%TO.C,H2*%
X12600000Y-11300000D03*
%TD*%
%TO.C,H1*%
X10400000Y-14100000D03*
%TD*%
D14*
%TO.C,TP2*%
X10900000Y-12900000D03*
X10646000Y-12900000D03*
%TD*%
%TO.C,R13*%
G36*
G01*
X10809000Y-12350500D02*
X10846000Y-12350500D01*
G75*
G02*
X10859500Y-12364000I0J-13500D01*
G01*
X10859500Y-12391000D01*
G75*
G02*
X10846000Y-12404500I-13500J0D01*
G01*
X10809000Y-12404500D01*
G75*
G02*
X10795500Y-12391000I0J13500D01*
G01*
X10795500Y-12364000D01*
G75*
G02*
X10809000Y-12350500I13500J0D01*
G01*
G37*
G36*
G01*
X10809000Y-12248500D02*
X10846000Y-12248500D01*
G75*
G02*
X10859500Y-12262000I0J-13500D01*
G01*
X10859500Y-12289000D01*
G75*
G02*
X10846000Y-12302500I-13500J0D01*
G01*
X10809000Y-12302500D01*
G75*
G02*
X10795500Y-12289000I0J13500D01*
G01*
X10795500Y-12262000D01*
G75*
G02*
X10809000Y-12248500I13500J0D01*
G01*
G37*
%TD*%
D15*
%TO.C,TP1*%
X11302500Y-12165000D03*
%TD*%
%TO.C,R12*%
G36*
G01*
X12375000Y-12968750D02*
X12375000Y-12921250D01*
G75*
G02*
X12398750Y-12897500I23750J0D01*
G01*
X12448750Y-12897500D01*
G75*
G02*
X12472500Y-12921250I0J-23750D01*
G01*
X12472500Y-12968750D01*
G75*
G02*
X12448750Y-12992500I-23750J0D01*
G01*
X12398750Y-12992500D01*
G75*
G02*
X12375000Y-12968750I0J23750D01*
G01*
G37*
G36*
G01*
X12192500Y-12968750D02*
X12192500Y-12921250D01*
G75*
G02*
X12216250Y-12897500I23750J0D01*
G01*
X12266250Y-12897500D01*
G75*
G02*
X12290000Y-12921250I0J-23750D01*
G01*
X12290000Y-12968750D01*
G75*
G02*
X12266250Y-12992500I-23750J0D01*
G01*
X12216250Y-12992500D01*
G75*
G02*
X12192500Y-12968750I0J23750D01*
G01*
G37*
%TD*%
%TO.C,R11*%
G36*
G01*
X12297500Y-12711250D02*
X12297500Y-12758750D01*
G75*
G02*
X12273750Y-12782500I-23750J0D01*
G01*
X12223750Y-12782500D01*
G75*
G02*
X12200000Y-12758750I0J23750D01*
G01*
X12200000Y-12711250D01*
G75*
G02*
X12223750Y-12687500I23750J0D01*
G01*
X12273750Y-12687500D01*
G75*
G02*
X12297500Y-12711250I0J-23750D01*
G01*
G37*
G36*
G01*
X12480000Y-12711250D02*
X12480000Y-12758750D01*
G75*
G02*
X12456250Y-12782500I-23750J0D01*
G01*
X12406250Y-12782500D01*
G75*
G02*
X12382500Y-12758750I0J23750D01*
G01*
X12382500Y-12711250D01*
G75*
G02*
X12406250Y-12687500I23750J0D01*
G01*
X12456250Y-12687500D01*
G75*
G02*
X12480000Y-12711250I0J-23750D01*
G01*
G37*
%TD*%
%TO.C,R19*%
G36*
G01*
X12342500Y-12398750D02*
X12342500Y-12351250D01*
G75*
G02*
X12366250Y-12327500I23750J0D01*
G01*
X12416250Y-12327500D01*
G75*
G02*
X12440000Y-12351250I0J-23750D01*
G01*
X12440000Y-12398750D01*
G75*
G02*
X12416250Y-12422500I-23750J0D01*
G01*
X12366250Y-12422500D01*
G75*
G02*
X12342500Y-12398750I0J23750D01*
G01*
G37*
G36*
G01*
X12160000Y-12398750D02*
X12160000Y-12351250D01*
G75*
G02*
X12183750Y-12327500I23750J0D01*
G01*
X12233750Y-12327500D01*
G75*
G02*
X12257500Y-12351250I0J-23750D01*
G01*
X12257500Y-12398750D01*
G75*
G02*
X12233750Y-12422500I-23750J0D01*
G01*
X12183750Y-12422500D01*
G75*
G02*
X12160000Y-12398750I0J23750D01*
G01*
G37*
%TD*%
%TO.C,R18*%
G36*
G01*
X12257500Y-12558750D02*
X12257500Y-12606250D01*
G75*
G02*
X12233750Y-12630000I-23750J0D01*
G01*
X12183750Y-12630000D01*
G75*
G02*
X12160000Y-12606250I0J23750D01*
G01*
X12160000Y-12558750D01*
G75*
G02*
X12183750Y-12535000I23750J0D01*
G01*
X12233750Y-12535000D01*
G75*
G02*
X12257500Y-12558750I0J-23750D01*
G01*
G37*
G36*
G01*
X12440000Y-12558750D02*
X12440000Y-12606250D01*
G75*
G02*
X12416250Y-12630000I-23750J0D01*
G01*
X12366250Y-12630000D01*
G75*
G02*
X12342500Y-12606250I0J23750D01*
G01*
X12342500Y-12558750D01*
G75*
G02*
X12366250Y-12535000I23750J0D01*
G01*
X12416250Y-12535000D01*
G75*
G02*
X12440000Y-12558750I0J-23750D01*
G01*
G37*
%TD*%
%TO.C,R17*%
G36*
G01*
X11060000Y-12030000D02*
X11060000Y-11975000D01*
G75*
G02*
X11080000Y-11955000I20000J0D01*
G01*
X11120000Y-11955000D01*
G75*
G02*
X11140000Y-11975000I0J-20000D01*
G01*
X11140000Y-12030000D01*
G75*
G02*
X11120000Y-12050000I-20000J0D01*
G01*
X11080000Y-12050000D01*
G75*
G02*
X11060000Y-12030000I0J20000D01*
G01*
G37*
G36*
G01*
X10895000Y-12030000D02*
X10895000Y-11975000D01*
G75*
G02*
X10915000Y-11955000I20000J0D01*
G01*
X10955000Y-11955000D01*
G75*
G02*
X10975000Y-11975000I0J-20000D01*
G01*
X10975000Y-12030000D01*
G75*
G02*
X10955000Y-12050000I-20000J0D01*
G01*
X10915000Y-12050000D01*
G75*
G02*
X10895000Y-12030000I0J20000D01*
G01*
G37*
%TD*%
%TO.C,R15*%
G36*
G01*
X11110000Y-12277500D02*
X11165000Y-12277500D01*
G75*
G02*
X11185000Y-12297500I0J-20000D01*
G01*
X11185000Y-12337500D01*
G75*
G02*
X11165000Y-12357500I-20000J0D01*
G01*
X11110000Y-12357500D01*
G75*
G02*
X11090000Y-12337500I0J20000D01*
G01*
X11090000Y-12297500D01*
G75*
G02*
X11110000Y-12277500I20000J0D01*
G01*
G37*
G36*
G01*
X11110000Y-12112500D02*
X11165000Y-12112500D01*
G75*
G02*
X11185000Y-12132500I0J-20000D01*
G01*
X11185000Y-12172500D01*
G75*
G02*
X11165000Y-12192500I-20000J0D01*
G01*
X11110000Y-12192500D01*
G75*
G02*
X11090000Y-12172500I0J20000D01*
G01*
X11090000Y-12132500D01*
G75*
G02*
X11110000Y-12112500I20000J0D01*
G01*
G37*
%TD*%
D16*
%TO.C,D2*%
X12240000Y-13142500D03*
X11910000Y-13142500D03*
%TD*%
%TO.C,C13*%
G36*
G01*
X10992500Y-11875000D02*
X10992500Y-11825000D01*
G75*
G02*
X11015000Y-11802500I22500J0D01*
G01*
X11060000Y-11802500D01*
G75*
G02*
X11082500Y-11825000I0J-22500D01*
G01*
X11082500Y-11875000D01*
G75*
G02*
X11060000Y-11897500I-22500J0D01*
G01*
X11015000Y-11897500D01*
G75*
G02*
X10992500Y-11875000I0J22500D01*
G01*
G37*
G36*
G01*
X10837500Y-11875000D02*
X10837500Y-11825000D01*
G75*
G02*
X10860000Y-11802500I22500J0D01*
G01*
X10905000Y-11802500D01*
G75*
G02*
X10927500Y-11825000I0J-22500D01*
G01*
X10927500Y-11875000D01*
G75*
G02*
X10905000Y-11897500I-22500J0D01*
G01*
X10860000Y-11897500D01*
G75*
G02*
X10837500Y-11875000I0J22500D01*
G01*
G37*
%TD*%
%TO.C,C11*%
G36*
G01*
X10550000Y-11907500D02*
X10550000Y-11857500D01*
G75*
G02*
X10572500Y-11835000I22500J0D01*
G01*
X10617500Y-11835000D01*
G75*
G02*
X10640000Y-11857500I0J-22500D01*
G01*
X10640000Y-11907500D01*
G75*
G02*
X10617500Y-11930000I-22500J0D01*
G01*
X10572500Y-11930000D01*
G75*
G02*
X10550000Y-11907500I0J22500D01*
G01*
G37*
G36*
G01*
X10395000Y-11907500D02*
X10395000Y-11857500D01*
G75*
G02*
X10417500Y-11835000I22500J0D01*
G01*
X10462500Y-11835000D01*
G75*
G02*
X10485000Y-11857500I0J-22500D01*
G01*
X10485000Y-11907500D01*
G75*
G02*
X10462500Y-11930000I-22500J0D01*
G01*
X10417500Y-11930000D01*
G75*
G02*
X10395000Y-11907500I0J22500D01*
G01*
G37*
%TD*%
%TO.C,C7*%
G36*
G01*
X11600000Y-12985000D02*
X11600000Y-12890000D01*
G75*
G02*
X11625000Y-12865000I25000J0D01*
G01*
X11692500Y-12865000D01*
G75*
G02*
X11717500Y-12890000I0J-25000D01*
G01*
X11717500Y-12985000D01*
G75*
G02*
X11692500Y-13010000I-25000J0D01*
G01*
X11625000Y-13010000D01*
G75*
G02*
X11600000Y-12985000I0J25000D01*
G01*
G37*
G36*
G01*
X11392500Y-12985000D02*
X11392500Y-12890000D01*
G75*
G02*
X11417500Y-12865000I25000J0D01*
G01*
X11485000Y-12865000D01*
G75*
G02*
X11510000Y-12890000I0J-25000D01*
G01*
X11510000Y-12985000D01*
G75*
G02*
X11485000Y-13010000I-25000J0D01*
G01*
X11417500Y-13010000D01*
G75*
G02*
X11392500Y-12985000I0J25000D01*
G01*
G37*
%TD*%
D17*
%TO.C,J2*%
X11708000Y-11052500D03*
X11708000Y-10547500D03*
X11454000Y-11052500D03*
X11454000Y-10547500D03*
X11200000Y-11052500D03*
X11200000Y-10547500D03*
X10946000Y-11052500D03*
X10946000Y-10547500D03*
X10692000Y-11052500D03*
X10692000Y-10547500D03*
%TD*%
%TO.C,R4*%
G36*
G01*
X12426250Y-13876250D02*
X12473750Y-13876250D01*
G75*
G02*
X12497500Y-13900000I0J-23750D01*
G01*
X12497500Y-13950000D01*
G75*
G02*
X12473750Y-13973750I-23750J0D01*
G01*
X12426250Y-13973750D01*
G75*
G02*
X12402500Y-13950000I0J23750D01*
G01*
X12402500Y-13900000D01*
G75*
G02*
X12426250Y-13876250I23750J0D01*
G01*
G37*
G36*
G01*
X12426250Y-13693750D02*
X12473750Y-13693750D01*
G75*
G02*
X12497500Y-13717500I0J-23750D01*
G01*
X12497500Y-13767500D01*
G75*
G02*
X12473750Y-13791250I-23750J0D01*
G01*
X12426250Y-13791250D01*
G75*
G02*
X12402500Y-13767500I0J23750D01*
G01*
X12402500Y-13717500D01*
G75*
G02*
X12426250Y-13693750I23750J0D01*
G01*
G37*
%TD*%
%TO.C,R5*%
G36*
G01*
X11933750Y-13898750D02*
X11933750Y-13851250D01*
G75*
G02*
X11957500Y-13827500I23750J0D01*
G01*
X12007500Y-13827500D01*
G75*
G02*
X12031250Y-13851250I0J-23750D01*
G01*
X12031250Y-13898750D01*
G75*
G02*
X12007500Y-13922500I-23750J0D01*
G01*
X11957500Y-13922500D01*
G75*
G02*
X11933750Y-13898750I0J23750D01*
G01*
G37*
G36*
G01*
X11751250Y-13898750D02*
X11751250Y-13851250D01*
G75*
G02*
X11775000Y-13827500I23750J0D01*
G01*
X11825000Y-13827500D01*
G75*
G02*
X11848750Y-13851250I0J-23750D01*
G01*
X11848750Y-13898750D01*
G75*
G02*
X11825000Y-13922500I-23750J0D01*
G01*
X11775000Y-13922500D01*
G75*
G02*
X11751250Y-13898750I0J23750D01*
G01*
G37*
%TD*%
%TO.C,R6*%
G36*
G01*
X12226250Y-13658750D02*
X12273750Y-13658750D01*
G75*
G02*
X12297500Y-13682500I0J-23750D01*
G01*
X12297500Y-13732500D01*
G75*
G02*
X12273750Y-13756250I-23750J0D01*
G01*
X12226250Y-13756250D01*
G75*
G02*
X12202500Y-13732500I0J23750D01*
G01*
X12202500Y-13682500D01*
G75*
G02*
X12226250Y-13658750I23750J0D01*
G01*
G37*
G36*
G01*
X12226250Y-13476250D02*
X12273750Y-13476250D01*
G75*
G02*
X12297500Y-13500000I0J-23750D01*
G01*
X12297500Y-13550000D01*
G75*
G02*
X12273750Y-13573750I-23750J0D01*
G01*
X12226250Y-13573750D01*
G75*
G02*
X12202500Y-13550000I0J23750D01*
G01*
X12202500Y-13500000D01*
G75*
G02*
X12226250Y-13476250I23750J0D01*
G01*
G37*
%TD*%
%TO.C,R8*%
G36*
G01*
X12648750Y-14073750D02*
X12601250Y-14073750D01*
G75*
G02*
X12577500Y-14050000I0J23750D01*
G01*
X12577500Y-14000000D01*
G75*
G02*
X12601250Y-13976250I23750J0D01*
G01*
X12648750Y-13976250D01*
G75*
G02*
X12672500Y-14000000I0J-23750D01*
G01*
X12672500Y-14050000D01*
G75*
G02*
X12648750Y-14073750I-23750J0D01*
G01*
G37*
G36*
G01*
X12648750Y-13891250D02*
X12601250Y-13891250D01*
G75*
G02*
X12577500Y-13867500I0J23750D01*
G01*
X12577500Y-13817500D01*
G75*
G02*
X12601250Y-13793750I23750J0D01*
G01*
X12648750Y-13793750D01*
G75*
G02*
X12672500Y-13817500I0J-23750D01*
G01*
X12672500Y-13867500D01*
G75*
G02*
X12648750Y-13891250I-23750J0D01*
G01*
G37*
%TD*%
M02*
