%TF.GenerationSoftware,KiCad,Pcbnew,5.1.12-1.fc35*%
%TF.CreationDate,2022-01-08T17:43:18+00:00*%
%TF.ProjectId,cryosub_power_converter_top_v03,6372796f-7375-4625-9f70-6f7765725f63,rev?*%
%TF.SameCoordinates,Original*%
%TF.FileFunction,Paste,Top*%
%TF.FilePolarity,Positive*%
%FSLAX45Y45*%
G04 Gerber Fmt 4.5, Leading zero omitted, Abs format (unit mm)*
G04 Created by KiCad (PCBNEW 5.1.12-1.fc35) date 2022-01-08 17:43:18*
%MOMM*%
%LPD*%
G01*
G04 APERTURE LIST*
%ADD10C,0.100000*%
%ADD11R,1.244600X1.244600*%
%ADD12R,0.254800X0.807999*%
%ADD13R,0.807999X0.254800*%
%ADD14R,1.327899X0.279400*%
%ADD15R,3.200001X1.000001*%
%ADD16R,1.000001X3.200001*%
%ADD17R,1.300000X1.700000*%
%ADD18R,0.900000X0.800000*%
%ADD19R,1.200000X2.200000*%
%ADD20R,2.750000X3.050000*%
G04 APERTURE END LIST*
D10*
%TO.C,U3*%
G36*
X11857630Y-12757320D02*
G01*
X11857630Y-12630000D01*
X11702370Y-12630000D01*
X11702370Y-12757320D01*
X11857630Y-12757320D01*
G37*
X11857630Y-12757320D02*
X11857630Y-12630000D01*
X11702370Y-12630000D01*
X11702370Y-12757320D01*
X11857630Y-12757320D01*
G36*
X11857630Y-12610000D02*
G01*
X11857630Y-12482680D01*
X11702370Y-12482680D01*
X11702370Y-12610000D01*
X11857630Y-12610000D01*
G37*
X11857630Y-12610000D02*
X11857630Y-12482680D01*
X11702370Y-12482680D01*
X11702370Y-12610000D01*
X11857630Y-12610000D01*
%TD*%
%TO.C,C9*%
G36*
G01*
X11917500Y-12907500D02*
X11917500Y-12957500D01*
G75*
G02*
X11895000Y-12980000I-22500J0D01*
G01*
X11850000Y-12980000D01*
G75*
G02*
X11827500Y-12957500I0J22500D01*
G01*
X11827500Y-12907500D01*
G75*
G02*
X11850000Y-12885000I22500J0D01*
G01*
X11895000Y-12885000D01*
G75*
G02*
X11917500Y-12907500I0J-22500D01*
G01*
G37*
G36*
G01*
X12072500Y-12907500D02*
X12072500Y-12957500D01*
G75*
G02*
X12050000Y-12980000I-22500J0D01*
G01*
X12005000Y-12980000D01*
G75*
G02*
X11982500Y-12957500I0J22500D01*
G01*
X11982500Y-12907500D01*
G75*
G02*
X12005000Y-12885000I22500J0D01*
G01*
X12050000Y-12885000D01*
G75*
G02*
X12072500Y-12907500I0J-22500D01*
G01*
G37*
%TD*%
D11*
%TO.C,U2*%
X10650000Y-12057500D03*
D12*
X10575000Y-11912960D03*
X10625000Y-11912960D03*
X10675000Y-11912960D03*
X10725000Y-11912960D03*
D13*
X10794540Y-11982500D03*
X10794540Y-12032500D03*
X10794540Y-12082500D03*
X10794540Y-12132500D03*
D12*
X10725000Y-12202040D03*
X10675000Y-12202040D03*
X10625000Y-12202040D03*
X10575000Y-12202040D03*
D13*
X10505460Y-12132500D03*
X10505460Y-12082500D03*
X10505460Y-12032500D03*
X10505460Y-11982500D03*
%TD*%
D14*
%TO.C,U3*%
X11558665Y-12795133D03*
X11558665Y-12745095D03*
X11558665Y-12695057D03*
X11558665Y-12645019D03*
X11558665Y-12594981D03*
X11558665Y-12544943D03*
X11558665Y-12494905D03*
X11558665Y-12444867D03*
X12001335Y-12444867D03*
X12001335Y-12494905D03*
X12001335Y-12544943D03*
X12001335Y-12594981D03*
X12001335Y-12645019D03*
X12001335Y-12695057D03*
X12001335Y-12745095D03*
X12001335Y-12795133D03*
%TD*%
D15*
%TO.C,L2*%
X11252500Y-12597500D03*
X11252500Y-12817500D03*
%TD*%
D16*
%TO.C,L3*%
X10430000Y-11660000D03*
X10650000Y-11660000D03*
%TD*%
%TO.C,R21*%
G36*
G01*
X10440000Y-12672500D02*
X10440000Y-12727500D01*
G75*
G02*
X10420000Y-12747500I-20000J0D01*
G01*
X10380000Y-12747500D01*
G75*
G02*
X10360000Y-12727500I0J20000D01*
G01*
X10360000Y-12672500D01*
G75*
G02*
X10380000Y-12652500I20000J0D01*
G01*
X10420000Y-12652500D01*
G75*
G02*
X10440000Y-12672500I0J-20000D01*
G01*
G37*
G36*
G01*
X10605000Y-12672500D02*
X10605000Y-12727500D01*
G75*
G02*
X10585000Y-12747500I-20000J0D01*
G01*
X10545000Y-12747500D01*
G75*
G02*
X10525000Y-12727500I0J20000D01*
G01*
X10525000Y-12672500D01*
G75*
G02*
X10545000Y-12652500I20000J0D01*
G01*
X10585000Y-12652500D01*
G75*
G02*
X10605000Y-12672500I0J-20000D01*
G01*
G37*
%TD*%
%TO.C,R20*%
G36*
G01*
X10525000Y-12527500D02*
X10525000Y-12472500D01*
G75*
G02*
X10545000Y-12452500I20000J0D01*
G01*
X10585000Y-12452500D01*
G75*
G02*
X10605000Y-12472500I0J-20000D01*
G01*
X10605000Y-12527500D01*
G75*
G02*
X10585000Y-12547500I-20000J0D01*
G01*
X10545000Y-12547500D01*
G75*
G02*
X10525000Y-12527500I0J20000D01*
G01*
G37*
G36*
G01*
X10360000Y-12527500D02*
X10360000Y-12472500D01*
G75*
G02*
X10380000Y-12452500I20000J0D01*
G01*
X10420000Y-12452500D01*
G75*
G02*
X10440000Y-12472500I0J-20000D01*
G01*
X10440000Y-12527500D01*
G75*
G02*
X10420000Y-12547500I-20000J0D01*
G01*
X10380000Y-12547500D01*
G75*
G02*
X10360000Y-12527500I0J20000D01*
G01*
G37*
%TD*%
%TO.C,C19*%
G36*
G01*
X10225000Y-12805000D02*
X10275000Y-12805000D01*
G75*
G02*
X10297500Y-12827500I0J-22500D01*
G01*
X10297500Y-12872500D01*
G75*
G02*
X10275000Y-12895000I-22500J0D01*
G01*
X10225000Y-12895000D01*
G75*
G02*
X10202500Y-12872500I0J22500D01*
G01*
X10202500Y-12827500D01*
G75*
G02*
X10225000Y-12805000I22500J0D01*
G01*
G37*
G36*
G01*
X10225000Y-12650000D02*
X10275000Y-12650000D01*
G75*
G02*
X10297500Y-12672500I0J-22500D01*
G01*
X10297500Y-12717500D01*
G75*
G02*
X10275000Y-12740000I-22500J0D01*
G01*
X10225000Y-12740000D01*
G75*
G02*
X10202500Y-12717500I0J22500D01*
G01*
X10202500Y-12672500D01*
G75*
G02*
X10225000Y-12650000I22500J0D01*
G01*
G37*
%TD*%
%TO.C,L5*%
G36*
G01*
X11566875Y-11857500D02*
X11618125Y-11857500D01*
G75*
G02*
X11640000Y-11879375I0J-21875D01*
G01*
X11640000Y-11923125D01*
G75*
G02*
X11618125Y-11945000I-21875J0D01*
G01*
X11566875Y-11945000D01*
G75*
G02*
X11545000Y-11923125I0J21875D01*
G01*
X11545000Y-11879375D01*
G75*
G02*
X11566875Y-11857500I21875J0D01*
G01*
G37*
G36*
G01*
X11566875Y-11700000D02*
X11618125Y-11700000D01*
G75*
G02*
X11640000Y-11721875I0J-21875D01*
G01*
X11640000Y-11765625D01*
G75*
G02*
X11618125Y-11787500I-21875J0D01*
G01*
X11566875Y-11787500D01*
G75*
G02*
X11545000Y-11765625I0J21875D01*
G01*
X11545000Y-11721875D01*
G75*
G02*
X11566875Y-11700000I21875J0D01*
G01*
G37*
%TD*%
%TO.C,C18*%
G36*
G01*
X11420000Y-11852500D02*
X11470000Y-11852500D01*
G75*
G02*
X11492500Y-11875000I0J-22500D01*
G01*
X11492500Y-11920000D01*
G75*
G02*
X11470000Y-11942500I-22500J0D01*
G01*
X11420000Y-11942500D01*
G75*
G02*
X11397500Y-11920000I0J22500D01*
G01*
X11397500Y-11875000D01*
G75*
G02*
X11420000Y-11852500I22500J0D01*
G01*
G37*
G36*
G01*
X11420000Y-11697500D02*
X11470000Y-11697500D01*
G75*
G02*
X11492500Y-11720000I0J-22500D01*
G01*
X11492500Y-11765000D01*
G75*
G02*
X11470000Y-11787500I-22500J0D01*
G01*
X11420000Y-11787500D01*
G75*
G02*
X11397500Y-11765000I0J22500D01*
G01*
X11397500Y-11720000D01*
G75*
G02*
X11420000Y-11697500I22500J0D01*
G01*
G37*
%TD*%
%TO.C,C17*%
G36*
G01*
X11705000Y-12922000D02*
X11705000Y-12888000D01*
G75*
G02*
X11719000Y-12874000I14000J0D01*
G01*
X11747000Y-12874000D01*
G75*
G02*
X11761000Y-12888000I0J-14000D01*
G01*
X11761000Y-12922000D01*
G75*
G02*
X11747000Y-12936000I-14000J0D01*
G01*
X11719000Y-12936000D01*
G75*
G02*
X11705000Y-12922000I0J14000D01*
G01*
G37*
G36*
G01*
X11609000Y-12922000D02*
X11609000Y-12888000D01*
G75*
G02*
X11623000Y-12874000I14000J0D01*
G01*
X11651000Y-12874000D01*
G75*
G02*
X11665000Y-12888000I0J-14000D01*
G01*
X11665000Y-12922000D01*
G75*
G02*
X11651000Y-12936000I-14000J0D01*
G01*
X11623000Y-12936000D01*
G75*
G02*
X11609000Y-12922000I0J14000D01*
G01*
G37*
%TD*%
D17*
%TO.C,D3*%
X10862500Y-11675000D03*
X11212500Y-11675000D03*
%TD*%
%TO.C,C8*%
G36*
G01*
X11721250Y-12332500D02*
X11721250Y-12237500D01*
G75*
G02*
X11746250Y-12212500I25000J0D01*
G01*
X11813750Y-12212500D01*
G75*
G02*
X11838750Y-12237500I0J-25000D01*
G01*
X11838750Y-12332500D01*
G75*
G02*
X11813750Y-12357500I-25000J0D01*
G01*
X11746250Y-12357500D01*
G75*
G02*
X11721250Y-12332500I0J25000D01*
G01*
G37*
G36*
G01*
X11513750Y-12332500D02*
X11513750Y-12237500D01*
G75*
G02*
X11538750Y-12212500I25000J0D01*
G01*
X11606250Y-12212500D01*
G75*
G02*
X11631250Y-12237500I0J-25000D01*
G01*
X11631250Y-12332500D01*
G75*
G02*
X11606250Y-12357500I-25000J0D01*
G01*
X11538750Y-12357500D01*
G75*
G02*
X11513750Y-12332500I0J25000D01*
G01*
G37*
%TD*%
%TO.C,C16*%
G36*
G01*
X12230000Y-12458000D02*
X12230000Y-12492000D01*
G75*
G02*
X12216000Y-12506000I-14000J0D01*
G01*
X12188000Y-12506000D01*
G75*
G02*
X12174000Y-12492000I0J14000D01*
G01*
X12174000Y-12458000D01*
G75*
G02*
X12188000Y-12444000I14000J0D01*
G01*
X12216000Y-12444000D01*
G75*
G02*
X12230000Y-12458000I0J-14000D01*
G01*
G37*
G36*
G01*
X12326000Y-12458000D02*
X12326000Y-12492000D01*
G75*
G02*
X12312000Y-12506000I-14000J0D01*
G01*
X12284000Y-12506000D01*
G75*
G02*
X12270000Y-12492000I0J14000D01*
G01*
X12270000Y-12458000D01*
G75*
G02*
X12284000Y-12444000I14000J0D01*
G01*
X12312000Y-12444000D01*
G75*
G02*
X12326000Y-12458000I0J-14000D01*
G01*
G37*
%TD*%
%TO.C,R16*%
G36*
G01*
X10895000Y-12274000D02*
X10895000Y-12311000D01*
G75*
G02*
X10881500Y-12324500I-13500J0D01*
G01*
X10854500Y-12324500D01*
G75*
G02*
X10841000Y-12311000I0J13500D01*
G01*
X10841000Y-12274000D01*
G75*
G02*
X10854500Y-12260500I13500J0D01*
G01*
X10881500Y-12260500D01*
G75*
G02*
X10895000Y-12274000I0J-13500D01*
G01*
G37*
G36*
G01*
X10997000Y-12274000D02*
X10997000Y-12311000D01*
G75*
G02*
X10983500Y-12324500I-13500J0D01*
G01*
X10956500Y-12324500D01*
G75*
G02*
X10943000Y-12311000I0J13500D01*
G01*
X10943000Y-12274000D01*
G75*
G02*
X10956500Y-12260500I13500J0D01*
G01*
X10983500Y-12260500D01*
G75*
G02*
X10997000Y-12274000I0J-13500D01*
G01*
G37*
%TD*%
%TO.C,R14*%
G36*
G01*
X10909000Y-12137500D02*
X10946000Y-12137500D01*
G75*
G02*
X10959500Y-12151000I0J-13500D01*
G01*
X10959500Y-12178000D01*
G75*
G02*
X10946000Y-12191500I-13500J0D01*
G01*
X10909000Y-12191500D01*
G75*
G02*
X10895500Y-12178000I0J13500D01*
G01*
X10895500Y-12151000D01*
G75*
G02*
X10909000Y-12137500I13500J0D01*
G01*
G37*
G36*
G01*
X10909000Y-12035500D02*
X10946000Y-12035500D01*
G75*
G02*
X10959500Y-12049000I0J-13500D01*
G01*
X10959500Y-12076000D01*
G75*
G02*
X10946000Y-12089500I-13500J0D01*
G01*
X10909000Y-12089500D01*
G75*
G02*
X10895500Y-12076000I0J13500D01*
G01*
X10895500Y-12049000D01*
G75*
G02*
X10909000Y-12035500I13500J0D01*
G01*
G37*
%TD*%
%TO.C,L4*%
G36*
G01*
X10221250Y-12021875D02*
X10221250Y-12073125D01*
G75*
G02*
X10199375Y-12095000I-21875J0D01*
G01*
X10155625Y-12095000D01*
G75*
G02*
X10133750Y-12073125I0J21875D01*
G01*
X10133750Y-12021875D01*
G75*
G02*
X10155625Y-12000000I21875J0D01*
G01*
X10199375Y-12000000D01*
G75*
G02*
X10221250Y-12021875I0J-21875D01*
G01*
G37*
G36*
G01*
X10378750Y-12021875D02*
X10378750Y-12073125D01*
G75*
G02*
X10356875Y-12095000I-21875J0D01*
G01*
X10313125Y-12095000D01*
G75*
G02*
X10291250Y-12073125I0J21875D01*
G01*
X10291250Y-12021875D01*
G75*
G02*
X10313125Y-12000000I21875J0D01*
G01*
X10356875Y-12000000D01*
G75*
G02*
X10378750Y-12021875I0J-21875D01*
G01*
G37*
%TD*%
%TO.C,C15*%
G36*
G01*
X11340000Y-12375000D02*
X11340000Y-12325000D01*
G75*
G02*
X11362500Y-12302500I22500J0D01*
G01*
X11407500Y-12302500D01*
G75*
G02*
X11430000Y-12325000I0J-22500D01*
G01*
X11430000Y-12375000D01*
G75*
G02*
X11407500Y-12397500I-22500J0D01*
G01*
X11362500Y-12397500D01*
G75*
G02*
X11340000Y-12375000I0J22500D01*
G01*
G37*
G36*
G01*
X11185000Y-12375000D02*
X11185000Y-12325000D01*
G75*
G02*
X11207500Y-12302500I22500J0D01*
G01*
X11252500Y-12302500D01*
G75*
G02*
X11275000Y-12325000I0J-22500D01*
G01*
X11275000Y-12375000D01*
G75*
G02*
X11252500Y-12397500I-22500J0D01*
G01*
X11207500Y-12397500D01*
G75*
G02*
X11185000Y-12375000I0J22500D01*
G01*
G37*
%TD*%
%TO.C,C14*%
G36*
G01*
X11300000Y-13035000D02*
X11300000Y-12985000D01*
G75*
G02*
X11322500Y-12962500I22500J0D01*
G01*
X11367500Y-12962500D01*
G75*
G02*
X11390000Y-12985000I0J-22500D01*
G01*
X11390000Y-13035000D01*
G75*
G02*
X11367500Y-13057500I-22500J0D01*
G01*
X11322500Y-13057500D01*
G75*
G02*
X11300000Y-13035000I0J22500D01*
G01*
G37*
G36*
G01*
X11145000Y-13035000D02*
X11145000Y-12985000D01*
G75*
G02*
X11167500Y-12962500I22500J0D01*
G01*
X11212500Y-12962500D01*
G75*
G02*
X11235000Y-12985000I0J-22500D01*
G01*
X11235000Y-13035000D01*
G75*
G02*
X11212500Y-13057500I-22500J0D01*
G01*
X11167500Y-13057500D01*
G75*
G02*
X11145000Y-13035000I0J22500D01*
G01*
G37*
%TD*%
%TO.C,C12*%
G36*
G01*
X10977500Y-11845000D02*
X10977500Y-11895000D01*
G75*
G02*
X10955000Y-11917500I-22500J0D01*
G01*
X10910000Y-11917500D01*
G75*
G02*
X10887500Y-11895000I0J22500D01*
G01*
X10887500Y-11845000D01*
G75*
G02*
X10910000Y-11822500I22500J0D01*
G01*
X10955000Y-11822500D01*
G75*
G02*
X10977500Y-11845000I0J-22500D01*
G01*
G37*
G36*
G01*
X11132500Y-11845000D02*
X11132500Y-11895000D01*
G75*
G02*
X11110000Y-11917500I-22500J0D01*
G01*
X11065000Y-11917500D01*
G75*
G02*
X11042500Y-11895000I0J22500D01*
G01*
X11042500Y-11845000D01*
G75*
G02*
X11065000Y-11822500I22500J0D01*
G01*
X11110000Y-11822500D01*
G75*
G02*
X11132500Y-11845000I0J-22500D01*
G01*
G37*
%TD*%
%TO.C,C10*%
G36*
G01*
X10150000Y-12360000D02*
X10200000Y-12360000D01*
G75*
G02*
X10222500Y-12382500I0J-22500D01*
G01*
X10222500Y-12427500D01*
G75*
G02*
X10200000Y-12450000I-22500J0D01*
G01*
X10150000Y-12450000D01*
G75*
G02*
X10127500Y-12427500I0J22500D01*
G01*
X10127500Y-12382500D01*
G75*
G02*
X10150000Y-12360000I22500J0D01*
G01*
G37*
G36*
G01*
X10150000Y-12205000D02*
X10200000Y-12205000D01*
G75*
G02*
X10222500Y-12227500I0J-22500D01*
G01*
X10222500Y-12272500D01*
G75*
G02*
X10200000Y-12295000I-22500J0D01*
G01*
X10150000Y-12295000D01*
G75*
G02*
X10127500Y-12272500I0J22500D01*
G01*
X10127500Y-12227500D01*
G75*
G02*
X10150000Y-12205000I22500J0D01*
G01*
G37*
%TD*%
%TO.C,D1*%
G36*
G01*
X12910000Y-13248750D02*
X12910000Y-13201250D01*
G75*
G02*
X12933750Y-13177500I23750J0D01*
G01*
X12991250Y-13177500D01*
G75*
G02*
X13015000Y-13201250I0J-23750D01*
G01*
X13015000Y-13248750D01*
G75*
G02*
X12991250Y-13272500I-23750J0D01*
G01*
X12933750Y-13272500D01*
G75*
G02*
X12910000Y-13248750I0J23750D01*
G01*
G37*
G36*
G01*
X12735000Y-13248750D02*
X12735000Y-13201250D01*
G75*
G02*
X12758750Y-13177500I23750J0D01*
G01*
X12816250Y-13177500D01*
G75*
G02*
X12840000Y-13201250I0J-23750D01*
G01*
X12840000Y-13248750D01*
G75*
G02*
X12816250Y-13272500I-23750J0D01*
G01*
X12758750Y-13272500D01*
G75*
G02*
X12735000Y-13248750I0J23750D01*
G01*
G37*
%TD*%
%TO.C,L1*%
G36*
G01*
X10426250Y-13372500D02*
X10473750Y-13372500D01*
G75*
G02*
X10497500Y-13396250I0J-23750D01*
G01*
X10497500Y-13453750D01*
G75*
G02*
X10473750Y-13477500I-23750J0D01*
G01*
X10426250Y-13477500D01*
G75*
G02*
X10402500Y-13453750I0J23750D01*
G01*
X10402500Y-13396250D01*
G75*
G02*
X10426250Y-13372500I23750J0D01*
G01*
G37*
G36*
G01*
X10426250Y-13197500D02*
X10473750Y-13197500D01*
G75*
G02*
X10497500Y-13221250I0J-23750D01*
G01*
X10497500Y-13278750D01*
G75*
G02*
X10473750Y-13302500I-23750J0D01*
G01*
X10426250Y-13302500D01*
G75*
G02*
X10402500Y-13278750I0J23750D01*
G01*
X10402500Y-13221250D01*
G75*
G02*
X10426250Y-13197500I23750J0D01*
G01*
G37*
%TD*%
%TO.C,C6*%
G36*
G01*
X12923750Y-12997500D02*
X12923750Y-12902500D01*
G75*
G02*
X12948750Y-12877500I25000J0D01*
G01*
X13016250Y-12877500D01*
G75*
G02*
X13041250Y-12902500I0J-25000D01*
G01*
X13041250Y-12997500D01*
G75*
G02*
X13016250Y-13022500I-25000J0D01*
G01*
X12948750Y-13022500D01*
G75*
G02*
X12923750Y-12997500I0J25000D01*
G01*
G37*
G36*
G01*
X12716250Y-12997500D02*
X12716250Y-12902500D01*
G75*
G02*
X12741250Y-12877500I25000J0D01*
G01*
X12808750Y-12877500D01*
G75*
G02*
X12833750Y-12902500I0J-25000D01*
G01*
X12833750Y-12997500D01*
G75*
G02*
X12808750Y-13022500I-25000J0D01*
G01*
X12741250Y-13022500D01*
G75*
G02*
X12716250Y-12997500I0J25000D01*
G01*
G37*
%TD*%
%TO.C,R10*%
G36*
G01*
X12948750Y-11791250D02*
X12901250Y-11791250D01*
G75*
G02*
X12877500Y-11767500I0J23750D01*
G01*
X12877500Y-11717500D01*
G75*
G02*
X12901250Y-11693750I23750J0D01*
G01*
X12948750Y-11693750D01*
G75*
G02*
X12972500Y-11717500I0J-23750D01*
G01*
X12972500Y-11767500D01*
G75*
G02*
X12948750Y-11791250I-23750J0D01*
G01*
G37*
G36*
G01*
X12948750Y-11973750D02*
X12901250Y-11973750D01*
G75*
G02*
X12877500Y-11950000I0J23750D01*
G01*
X12877500Y-11900000D01*
G75*
G02*
X12901250Y-11876250I23750J0D01*
G01*
X12948750Y-11876250D01*
G75*
G02*
X12972500Y-11900000I0J-23750D01*
G01*
X12972500Y-11950000D01*
G75*
G02*
X12948750Y-11973750I-23750J0D01*
G01*
G37*
%TD*%
%TO.C,C5*%
G36*
G01*
X12747500Y-11776250D02*
X12652500Y-11776250D01*
G75*
G02*
X12627500Y-11751250I0J25000D01*
G01*
X12627500Y-11683750D01*
G75*
G02*
X12652500Y-11658750I25000J0D01*
G01*
X12747500Y-11658750D01*
G75*
G02*
X12772500Y-11683750I0J-25000D01*
G01*
X12772500Y-11751250D01*
G75*
G02*
X12747500Y-11776250I-25000J0D01*
G01*
G37*
G36*
G01*
X12747500Y-11983750D02*
X12652500Y-11983750D01*
G75*
G02*
X12627500Y-11958750I0J25000D01*
G01*
X12627500Y-11891250D01*
G75*
G02*
X12652500Y-11866250I25000J0D01*
G01*
X12747500Y-11866250D01*
G75*
G02*
X12772500Y-11891250I0J-25000D01*
G01*
X12772500Y-11958750D01*
G75*
G02*
X12747500Y-11983750I-25000J0D01*
G01*
G37*
%TD*%
%TO.C,C4*%
G36*
G01*
X13123750Y-11803750D02*
X13076250Y-11803750D01*
G75*
G02*
X13052500Y-11780000I0J23750D01*
G01*
X13052500Y-11720000D01*
G75*
G02*
X13076250Y-11696250I23750J0D01*
G01*
X13123750Y-11696250D01*
G75*
G02*
X13147500Y-11720000I0J-23750D01*
G01*
X13147500Y-11780000D01*
G75*
G02*
X13123750Y-11803750I-23750J0D01*
G01*
G37*
G36*
G01*
X13123750Y-11976250D02*
X13076250Y-11976250D01*
G75*
G02*
X13052500Y-11952500I0J23750D01*
G01*
X13052500Y-11892500D01*
G75*
G02*
X13076250Y-11868750I23750J0D01*
G01*
X13123750Y-11868750D01*
G75*
G02*
X13147500Y-11892500I0J-23750D01*
G01*
X13147500Y-11952500D01*
G75*
G02*
X13123750Y-11976250I-23750J0D01*
G01*
G37*
%TD*%
%TO.C,C1*%
G36*
G01*
X11562500Y-13838750D02*
X11467500Y-13838750D01*
G75*
G02*
X11442500Y-13813750I0J25000D01*
G01*
X11442500Y-13746250D01*
G75*
G02*
X11467500Y-13721250I25000J0D01*
G01*
X11562500Y-13721250D01*
G75*
G02*
X11587500Y-13746250I0J-25000D01*
G01*
X11587500Y-13813750D01*
G75*
G02*
X11562500Y-13838750I-25000J0D01*
G01*
G37*
G36*
G01*
X11562500Y-14046250D02*
X11467500Y-14046250D01*
G75*
G02*
X11442500Y-14021250I0J25000D01*
G01*
X11442500Y-13953750D01*
G75*
G02*
X11467500Y-13928750I25000J0D01*
G01*
X11562500Y-13928750D01*
G75*
G02*
X11587500Y-13953750I0J-25000D01*
G01*
X11587500Y-14021250D01*
G75*
G02*
X11562500Y-14046250I-25000J0D01*
G01*
G37*
%TD*%
%TO.C,C2*%
G36*
G01*
X11076250Y-14301250D02*
X11076250Y-14348750D01*
G75*
G02*
X11052500Y-14372500I-23750J0D01*
G01*
X10992500Y-14372500D01*
G75*
G02*
X10968750Y-14348750I0J23750D01*
G01*
X10968750Y-14301250D01*
G75*
G02*
X10992500Y-14277500I23750J0D01*
G01*
X11052500Y-14277500D01*
G75*
G02*
X11076250Y-14301250I0J-23750D01*
G01*
G37*
G36*
G01*
X10903750Y-14301250D02*
X10903750Y-14348750D01*
G75*
G02*
X10880000Y-14372500I-23750J0D01*
G01*
X10820000Y-14372500D01*
G75*
G02*
X10796250Y-14348750I0J23750D01*
G01*
X10796250Y-14301250D01*
G75*
G02*
X10820000Y-14277500I23750J0D01*
G01*
X10880000Y-14277500D01*
G75*
G02*
X10903750Y-14301250I0J-23750D01*
G01*
G37*
%TD*%
%TO.C,C3*%
G36*
G01*
X10152500Y-13383750D02*
X10247500Y-13383750D01*
G75*
G02*
X10272500Y-13408750I0J-25000D01*
G01*
X10272500Y-13476250D01*
G75*
G02*
X10247500Y-13501250I-25000J0D01*
G01*
X10152500Y-13501250D01*
G75*
G02*
X10127500Y-13476250I0J25000D01*
G01*
X10127500Y-13408750D01*
G75*
G02*
X10152500Y-13383750I25000J0D01*
G01*
G37*
G36*
G01*
X10152500Y-13591250D02*
X10247500Y-13591250D01*
G75*
G02*
X10272500Y-13616250I0J-25000D01*
G01*
X10272500Y-13683750D01*
G75*
G02*
X10247500Y-13708750I-25000J0D01*
G01*
X10152500Y-13708750D01*
G75*
G02*
X10127500Y-13683750I0J25000D01*
G01*
X10127500Y-13616250D01*
G75*
G02*
X10152500Y-13591250I25000J0D01*
G01*
G37*
%TD*%
D18*
%TO.C,Q1*%
X12100000Y-13620000D03*
X11900000Y-13715000D03*
X11900000Y-13525000D03*
%TD*%
%TO.C,Q2*%
X11900000Y-13985000D03*
X11900000Y-14175000D03*
X12100000Y-14080000D03*
%TD*%
D19*
%TO.C,Q3*%
X10822000Y-14070000D03*
X11050000Y-14070000D03*
X11278000Y-14070000D03*
D20*
X11202500Y-13272500D03*
X10897500Y-13607500D03*
X10897500Y-13272500D03*
X11202500Y-13607500D03*
%TD*%
%TO.C,R1*%
G36*
G01*
X11668750Y-13298750D02*
X11668750Y-13251250D01*
G75*
G02*
X11692500Y-13227500I23750J0D01*
G01*
X11742500Y-13227500D01*
G75*
G02*
X11766250Y-13251250I0J-23750D01*
G01*
X11766250Y-13298750D01*
G75*
G02*
X11742500Y-13322500I-23750J0D01*
G01*
X11692500Y-13322500D01*
G75*
G02*
X11668750Y-13298750I0J23750D01*
G01*
G37*
G36*
G01*
X11851250Y-13298750D02*
X11851250Y-13251250D01*
G75*
G02*
X11875000Y-13227500I23750J0D01*
G01*
X11925000Y-13227500D01*
G75*
G02*
X11948750Y-13251250I0J-23750D01*
G01*
X11948750Y-13298750D01*
G75*
G02*
X11925000Y-13322500I-23750J0D01*
G01*
X11875000Y-13322500D01*
G75*
G02*
X11851250Y-13298750I0J23750D01*
G01*
G37*
%TD*%
%TO.C,R2*%
G36*
G01*
X12192500Y-13298750D02*
X12192500Y-13251250D01*
G75*
G02*
X12216250Y-13227500I23750J0D01*
G01*
X12266250Y-13227500D01*
G75*
G02*
X12290000Y-13251250I0J-23750D01*
G01*
X12290000Y-13298750D01*
G75*
G02*
X12266250Y-13322500I-23750J0D01*
G01*
X12216250Y-13322500D01*
G75*
G02*
X12192500Y-13298750I0J23750D01*
G01*
G37*
G36*
G01*
X12010000Y-13298750D02*
X12010000Y-13251250D01*
G75*
G02*
X12033750Y-13227500I23750J0D01*
G01*
X12083750Y-13227500D01*
G75*
G02*
X12107500Y-13251250I0J-23750D01*
G01*
X12107500Y-13298750D01*
G75*
G02*
X12083750Y-13322500I-23750J0D01*
G01*
X12033750Y-13322500D01*
G75*
G02*
X12010000Y-13298750I0J23750D01*
G01*
G37*
%TD*%
%TO.C,R3*%
G36*
G01*
X12598750Y-13601250D02*
X12598750Y-13648750D01*
G75*
G02*
X12575000Y-13672500I-23750J0D01*
G01*
X12525000Y-13672500D01*
G75*
G02*
X12501250Y-13648750I0J23750D01*
G01*
X12501250Y-13601250D01*
G75*
G02*
X12525000Y-13577500I23750J0D01*
G01*
X12575000Y-13577500D01*
G75*
G02*
X12598750Y-13601250I0J-23750D01*
G01*
G37*
G36*
G01*
X12416250Y-13601250D02*
X12416250Y-13648750D01*
G75*
G02*
X12392500Y-13672500I-23750J0D01*
G01*
X12342500Y-13672500D01*
G75*
G02*
X12318750Y-13648750I0J23750D01*
G01*
X12318750Y-13601250D01*
G75*
G02*
X12342500Y-13577500I23750J0D01*
G01*
X12392500Y-13577500D01*
G75*
G02*
X12416250Y-13601250I0J-23750D01*
G01*
G37*
%TD*%
%TO.C,R7*%
G36*
G01*
X12598750Y-14051250D02*
X12598750Y-14098750D01*
G75*
G02*
X12575000Y-14122500I-23750J0D01*
G01*
X12525000Y-14122500D01*
G75*
G02*
X12501250Y-14098750I0J23750D01*
G01*
X12501250Y-14051250D01*
G75*
G02*
X12525000Y-14027500I23750J0D01*
G01*
X12575000Y-14027500D01*
G75*
G02*
X12598750Y-14051250I0J-23750D01*
G01*
G37*
G36*
G01*
X12416250Y-14051250D02*
X12416250Y-14098750D01*
G75*
G02*
X12392500Y-14122500I-23750J0D01*
G01*
X12342500Y-14122500D01*
G75*
G02*
X12318750Y-14098750I0J23750D01*
G01*
X12318750Y-14051250D01*
G75*
G02*
X12342500Y-14027500I23750J0D01*
G01*
X12392500Y-14027500D01*
G75*
G02*
X12416250Y-14051250I0J-23750D01*
G01*
G37*
%TD*%
%TO.C,R9*%
G36*
G01*
X11426250Y-14348750D02*
X11426250Y-14301250D01*
G75*
G02*
X11450000Y-14277500I23750J0D01*
G01*
X11500000Y-14277500D01*
G75*
G02*
X11523750Y-14301250I0J-23750D01*
G01*
X11523750Y-14348750D01*
G75*
G02*
X11500000Y-14372500I-23750J0D01*
G01*
X11450000Y-14372500D01*
G75*
G02*
X11426250Y-14348750I0J23750D01*
G01*
G37*
G36*
G01*
X11608750Y-14348750D02*
X11608750Y-14301250D01*
G75*
G02*
X11632500Y-14277500I23750J0D01*
G01*
X11682500Y-14277500D01*
G75*
G02*
X11706250Y-14301250I0J-23750D01*
G01*
X11706250Y-14348750D01*
G75*
G02*
X11682500Y-14372500I-23750J0D01*
G01*
X11632500Y-14372500D01*
G75*
G02*
X11608750Y-14348750I0J23750D01*
G01*
G37*
%TD*%
%TO.C,U1*%
G36*
G01*
X12782500Y-12712500D02*
X12767500Y-12712500D01*
G75*
G02*
X12760000Y-12705000I0J7500D01*
G01*
X12760000Y-12575000D01*
G75*
G02*
X12767500Y-12567500I7500J0D01*
G01*
X12782500Y-12567500D01*
G75*
G02*
X12790000Y-12575000I0J-7500D01*
G01*
X12790000Y-12705000D01*
G75*
G02*
X12782500Y-12712500I-7500J0D01*
G01*
G37*
G36*
G01*
X12832500Y-12712500D02*
X12817500Y-12712500D01*
G75*
G02*
X12810000Y-12705000I0J7500D01*
G01*
X12810000Y-12575000D01*
G75*
G02*
X12817500Y-12567500I7500J0D01*
G01*
X12832500Y-12567500D01*
G75*
G02*
X12840000Y-12575000I0J-7500D01*
G01*
X12840000Y-12705000D01*
G75*
G02*
X12832500Y-12712500I-7500J0D01*
G01*
G37*
G36*
G01*
X12882500Y-12712500D02*
X12867500Y-12712500D01*
G75*
G02*
X12860000Y-12705000I0J7500D01*
G01*
X12860000Y-12575000D01*
G75*
G02*
X12867500Y-12567500I7500J0D01*
G01*
X12882500Y-12567500D01*
G75*
G02*
X12890000Y-12575000I0J-7500D01*
G01*
X12890000Y-12705000D01*
G75*
G02*
X12882500Y-12712500I-7500J0D01*
G01*
G37*
G36*
G01*
X12932500Y-12712500D02*
X12917500Y-12712500D01*
G75*
G02*
X12910000Y-12705000I0J7500D01*
G01*
X12910000Y-12575000D01*
G75*
G02*
X12917500Y-12567500I7500J0D01*
G01*
X12932500Y-12567500D01*
G75*
G02*
X12940000Y-12575000I0J-7500D01*
G01*
X12940000Y-12705000D01*
G75*
G02*
X12932500Y-12712500I-7500J0D01*
G01*
G37*
G36*
G01*
X12982500Y-12712500D02*
X12967500Y-12712500D01*
G75*
G02*
X12960000Y-12705000I0J7500D01*
G01*
X12960000Y-12575000D01*
G75*
G02*
X12967500Y-12567500I7500J0D01*
G01*
X12982500Y-12567500D01*
G75*
G02*
X12990000Y-12575000I0J-7500D01*
G01*
X12990000Y-12705000D01*
G75*
G02*
X12982500Y-12712500I-7500J0D01*
G01*
G37*
G36*
G01*
X12982500Y-12282500D02*
X12967500Y-12282500D01*
G75*
G02*
X12960000Y-12275000I0J7500D01*
G01*
X12960000Y-12145000D01*
G75*
G02*
X12967500Y-12137500I7500J0D01*
G01*
X12982500Y-12137500D01*
G75*
G02*
X12990000Y-12145000I0J-7500D01*
G01*
X12990000Y-12275000D01*
G75*
G02*
X12982500Y-12282500I-7500J0D01*
G01*
G37*
G36*
G01*
X12932500Y-12282500D02*
X12917500Y-12282500D01*
G75*
G02*
X12910000Y-12275000I0J7500D01*
G01*
X12910000Y-12145000D01*
G75*
G02*
X12917500Y-12137500I7500J0D01*
G01*
X12932500Y-12137500D01*
G75*
G02*
X12940000Y-12145000I0J-7500D01*
G01*
X12940000Y-12275000D01*
G75*
G02*
X12932500Y-12282500I-7500J0D01*
G01*
G37*
G36*
G01*
X12882500Y-12282500D02*
X12867500Y-12282500D01*
G75*
G02*
X12860000Y-12275000I0J7500D01*
G01*
X12860000Y-12145000D01*
G75*
G02*
X12867500Y-12137500I7500J0D01*
G01*
X12882500Y-12137500D01*
G75*
G02*
X12890000Y-12145000I0J-7500D01*
G01*
X12890000Y-12275000D01*
G75*
G02*
X12882500Y-12282500I-7500J0D01*
G01*
G37*
G36*
G01*
X12832500Y-12282500D02*
X12817500Y-12282500D01*
G75*
G02*
X12810000Y-12275000I0J7500D01*
G01*
X12810000Y-12145000D01*
G75*
G02*
X12817500Y-12137500I7500J0D01*
G01*
X12832500Y-12137500D01*
G75*
G02*
X12840000Y-12145000I0J-7500D01*
G01*
X12840000Y-12275000D01*
G75*
G02*
X12832500Y-12282500I-7500J0D01*
G01*
G37*
G36*
G01*
X12782500Y-12282500D02*
X12767500Y-12282500D01*
G75*
G02*
X12760000Y-12275000I0J7500D01*
G01*
X12760000Y-12145000D01*
G75*
G02*
X12767500Y-12137500I7500J0D01*
G01*
X12782500Y-12137500D01*
G75*
G02*
X12790000Y-12145000I0J-7500D01*
G01*
X12790000Y-12275000D01*
G75*
G02*
X12782500Y-12282500I-7500J0D01*
G01*
G37*
G36*
G01*
X12849000Y-12501000D02*
X12807000Y-12501000D01*
G75*
G02*
X12790000Y-12484000I0J17000D01*
G01*
X12790000Y-12450000D01*
G75*
G02*
X12807000Y-12433000I17000J0D01*
G01*
X12849000Y-12433000D01*
G75*
G02*
X12866000Y-12450000I0J-17000D01*
G01*
X12866000Y-12484000D01*
G75*
G02*
X12849000Y-12501000I-17000J0D01*
G01*
G37*
G36*
G01*
X12943000Y-12501000D02*
X12901000Y-12501000D01*
G75*
G02*
X12884000Y-12484000I0J17000D01*
G01*
X12884000Y-12450000D01*
G75*
G02*
X12901000Y-12433000I17000J0D01*
G01*
X12943000Y-12433000D01*
G75*
G02*
X12960000Y-12450000I0J-17000D01*
G01*
X12960000Y-12484000D01*
G75*
G02*
X12943000Y-12501000I-17000J0D01*
G01*
G37*
G36*
G01*
X12849000Y-12417000D02*
X12807000Y-12417000D01*
G75*
G02*
X12790000Y-12400000I0J17000D01*
G01*
X12790000Y-12366000D01*
G75*
G02*
X12807000Y-12349000I17000J0D01*
G01*
X12849000Y-12349000D01*
G75*
G02*
X12866000Y-12366000I0J-17000D01*
G01*
X12866000Y-12400000D01*
G75*
G02*
X12849000Y-12417000I-17000J0D01*
G01*
G37*
G36*
G01*
X12943000Y-12417000D02*
X12901000Y-12417000D01*
G75*
G02*
X12884000Y-12400000I0J17000D01*
G01*
X12884000Y-12366000D01*
G75*
G02*
X12901000Y-12349000I17000J0D01*
G01*
X12943000Y-12349000D01*
G75*
G02*
X12960000Y-12366000I0J-17000D01*
G01*
X12960000Y-12400000D01*
G75*
G02*
X12943000Y-12417000I-17000J0D01*
G01*
G37*
%TD*%
M02*
