%TF.GenerationSoftware,KiCad,Pcbnew,(6.0.4-0)*%
%TF.CreationDate,2022-03-31T17:06:01+02:00*%
%TF.ProjectId,cryosub_power_converter_top_v03,6372796f-7375-4625-9f70-6f7765725f63,rev?*%
%TF.SameCoordinates,Original*%
%TF.FileFunction,Soldermask,Bot*%
%TF.FilePolarity,Negative*%
%FSLAX45Y45*%
G04 Gerber Fmt 4.5, Leading zero omitted, Abs format (unit mm)*
G04 Created by KiCad (PCBNEW (6.0.4-0)) date 2022-03-31 17:06:01*
%MOMM*%
%LPD*%
G01*
G04 APERTURE LIST*
G04 Aperture macros list*
%AMRoundRect*
0 Rectangle with rounded corners*
0 $1 Rounding radius*
0 $2 $3 $4 $5 $6 $7 $8 $9 X,Y pos of 4 corners*
0 Add a 4 corners polygon primitive as box body*
4,1,4,$2,$3,$4,$5,$6,$7,$8,$9,$2,$3,0*
0 Add four circle primitives for the rounded corners*
1,1,$1+$1,$2,$3*
1,1,$1+$1,$4,$5*
1,1,$1+$1,$6,$7*
1,1,$1+$1,$8,$9*
0 Add four rect primitives between the rounded corners*
20,1,$1+$1,$2,$3,$4,$5,0*
20,1,$1+$1,$4,$5,$6,$7,0*
20,1,$1+$1,$6,$7,$8,$9,0*
20,1,$1+$1,$8,$9,$2,$3,0*%
G04 Aperture macros list end*
%ADD10C,1.000000*%
%ADD11C,1.400000*%
%ADD12C,4.700000*%
%ADD13RoundRect,0.250000X0.600000X-0.600000X0.600000X0.600000X-0.600000X0.600000X-0.600000X-0.600000X0*%
%ADD14C,1.700000*%
%ADD15RoundRect,0.237500X-0.237500X0.250000X-0.237500X-0.250000X0.237500X-0.250000X0.237500X0.250000X0*%
%ADD16RoundRect,0.237500X0.237500X-0.250000X0.237500X0.250000X-0.237500X0.250000X-0.237500X-0.250000X0*%
%ADD17RoundRect,0.237500X-0.250000X-0.237500X0.250000X-0.237500X0.250000X0.237500X-0.250000X0.237500X0*%
%ADD18R,1.000000X3.000000*%
%ADD19RoundRect,0.250000X-0.337500X-0.475000X0.337500X-0.475000X0.337500X0.475000X-0.337500X0.475000X0*%
%ADD20RoundRect,0.225000X-0.225000X-0.250000X0.225000X-0.250000X0.225000X0.250000X-0.225000X0.250000X0*%
%ADD21RoundRect,0.200000X-0.275000X0.200000X-0.275000X-0.200000X0.275000X-0.200000X0.275000X0.200000X0*%
%ADD22RoundRect,0.200000X-0.200000X-0.275000X0.200000X-0.275000X0.200000X0.275000X-0.200000X0.275000X0*%
%ADD23RoundRect,0.237500X0.250000X0.237500X-0.250000X0.237500X-0.250000X-0.237500X0.250000X-0.237500X0*%
%ADD24RoundRect,0.200000X0.200000X0.275000X-0.200000X0.275000X-0.200000X-0.275000X0.200000X-0.275000X0*%
%ADD25R,0.900000X1.200000*%
G04 APERTURE END LIST*
D10*
%TO.C,TP1*%
X11302500Y-12165000D03*
%TD*%
D11*
%TO.C,TP2*%
X10646000Y-12900000D03*
X10900000Y-12900000D03*
%TD*%
D12*
%TO.C,H1*%
X10400000Y-14100000D03*
%TD*%
%TO.C,H2*%
X12600000Y-11300000D03*
%TD*%
%TO.C,H3*%
X13000000Y-14100000D03*
%TD*%
D13*
%TO.C,J1*%
X12400000Y-10600000D03*
D14*
X12400000Y-10346000D03*
X12654000Y-10600000D03*
X12654000Y-10346000D03*
X12908000Y-10600000D03*
X12908000Y-10346000D03*
X13162000Y-10600000D03*
X13162000Y-10346000D03*
%TD*%
D15*
%TO.C,R7*%
X12250000Y-13525000D03*
X12250000Y-13707500D03*
%TD*%
D16*
%TO.C,R9*%
X12625000Y-14025000D03*
X12625000Y-13842500D03*
%TD*%
D15*
%TO.C,R5*%
X12450000Y-13742500D03*
X12450000Y-13925000D03*
%TD*%
D17*
%TO.C,R6*%
X11800000Y-13875000D03*
X11982500Y-13875000D03*
%TD*%
D18*
%TO.C,J2*%
X10692000Y-11052000D03*
X10692000Y-10548000D03*
X10946000Y-11052000D03*
X10946000Y-10548000D03*
X11200000Y-11052000D03*
X11200000Y-10548000D03*
X11454000Y-11052000D03*
X11454000Y-10548000D03*
X11708000Y-11052000D03*
X11708000Y-10548000D03*
%TD*%
D19*
%TO.C,C8*%
X11451250Y-12937500D03*
X11658750Y-12937500D03*
%TD*%
D20*
%TO.C,C14*%
X10440000Y-11882500D03*
X10595000Y-11882500D03*
%TD*%
D21*
%TO.C,R14*%
X10827500Y-12244000D03*
X10827500Y-12409000D03*
%TD*%
%TO.C,R16*%
X11137500Y-12152500D03*
X11137500Y-12317500D03*
%TD*%
D22*
%TO.C,R20*%
X10935000Y-12002500D03*
X11100000Y-12002500D03*
%TD*%
D23*
%TO.C,R11*%
X12431250Y-12735000D03*
X12248750Y-12735000D03*
%TD*%
D17*
%TO.C,R12*%
X12241250Y-12945000D03*
X12423750Y-12945000D03*
%TD*%
D20*
%TO.C,C18*%
X10882500Y-11850000D03*
X11037500Y-11850000D03*
%TD*%
D24*
%TO.C,R13*%
X11922500Y-12400000D03*
X11757500Y-12400000D03*
%TD*%
D25*
%TO.C,D2*%
X11895000Y-13140000D03*
X12225000Y-13140000D03*
%TD*%
M02*
