%TF.GenerationSoftware,KiCad,Pcbnew,5.1.12-1.fc35*%
%TF.CreationDate,2022-01-06T14:18:27+00:00*%
%TF.ProjectId,cryosub_power_converter_top_v03,6372796f-7375-4625-9f70-6f7765725f63,rev?*%
%TF.SameCoordinates,Original*%
%TF.FileFunction,Copper,L3,Inr*%
%TF.FilePolarity,Positive*%
%FSLAX45Y45*%
G04 Gerber Fmt 4.5, Leading zero omitted, Abs format (unit mm)*
G04 Created by KiCad (PCBNEW 5.1.12-1.fc35) date 2022-01-06 14:18:27*
%MOMM*%
%LPD*%
G01*
G04 APERTURE LIST*
%TA.AperFunction,ComponentPad*%
%ADD10C,1.400000*%
%TD*%
%TA.AperFunction,ComponentPad*%
%ADD11C,1.000000*%
%TD*%
%TA.AperFunction,ComponentPad*%
%ADD12O,1.740000X2.190000*%
%TD*%
%TA.AperFunction,ComponentPad*%
%ADD13O,2.190000X1.740000*%
%TD*%
%TA.AperFunction,ViaPad*%
%ADD14C,0.500000*%
%TD*%
%TA.AperFunction,ViaPad*%
%ADD15C,0.800000*%
%TD*%
%TA.AperFunction,ViaPad*%
%ADD16C,0.900000*%
%TD*%
%TA.AperFunction,Conductor*%
%ADD17C,0.254000*%
%TD*%
%TA.AperFunction,Conductor*%
%ADD18C,0.100000*%
%TD*%
G04 APERTURE END LIST*
D10*
%TO.N,GND*%
%TO.C,TP2*%
X10900000Y-12900000D03*
%TO.N,/sipm_dcdc/vcont*%
X10646000Y-12900000D03*
%TD*%
D11*
%TO.N,/sipm_dcdc/imon*%
%TO.C,TP1*%
X11302500Y-12165000D03*
%TD*%
D12*
%TO.N,GND*%
%TO.C,J4*%
X12107500Y-11632500D03*
%TO.N,/sipm_bias*%
%TA.AperFunction,ComponentPad*%
G36*
G01*
X11766500Y-11717000D02*
X11766500Y-11548000D01*
G75*
G02*
X11791500Y-11523000I25000J0D01*
G01*
X11915500Y-11523000D01*
G75*
G02*
X11940500Y-11548000I0J-25000D01*
G01*
X11940500Y-11717000D01*
G75*
G02*
X11915500Y-11742000I-25000J0D01*
G01*
X11791500Y-11742000D01*
G75*
G02*
X11766500Y-11717000I0J25000D01*
G01*
G37*
%TD.AperFunction*%
%TD*%
%TO.N,GND*%
%TO.C,J1*%
X13129000Y-13492500D03*
%TO.N,VDC*%
%TA.AperFunction,ComponentPad*%
G36*
G01*
X12788000Y-13577000D02*
X12788000Y-13408000D01*
G75*
G02*
X12813000Y-13383000I25000J0D01*
G01*
X12937000Y-13383000D01*
G75*
G02*
X12962000Y-13408000I0J-25000D01*
G01*
X12962000Y-13577000D01*
G75*
G02*
X12937000Y-13602000I-25000J0D01*
G01*
X12813000Y-13602000D01*
G75*
G02*
X12788000Y-13577000I0J25000D01*
G01*
G37*
%TD.AperFunction*%
%TD*%
D13*
%TO.N,GND*%
%TO.C,J3*%
X12600000Y-10346000D03*
%TO.N,/p5v_out*%
%TA.AperFunction,ComponentPad*%
G36*
G01*
X12684500Y-10687000D02*
X12515500Y-10687000D01*
G75*
G02*
X12490500Y-10662000I0J25000D01*
G01*
X12490500Y-10538000D01*
G75*
G02*
X12515500Y-10513000I25000J0D01*
G01*
X12684500Y-10513000D01*
G75*
G02*
X12709500Y-10538000I0J-25000D01*
G01*
X12709500Y-10662000D01*
G75*
G02*
X12684500Y-10687000I-25000J0D01*
G01*
G37*
%TD.AperFunction*%
%TD*%
D14*
%TO.N,GND*%
X11790000Y-12745000D03*
X11737500Y-12745000D03*
X11840000Y-12745000D03*
X11715000Y-12700000D03*
X11842500Y-12652500D03*
X11717500Y-12602500D03*
X11840000Y-12552500D03*
X11817500Y-12500000D03*
X11765000Y-12500000D03*
X10650000Y-12057500D03*
X10687500Y-12095000D03*
X10610000Y-12095000D03*
X10612500Y-12020000D03*
D15*
X12595000Y-12285000D03*
X12675000Y-12405000D03*
X12595000Y-12485000D03*
X13195000Y-12405000D03*
X13195000Y-12505000D03*
X10700000Y-11300000D03*
X10950000Y-11300000D03*
X11200000Y-11300000D03*
X12350000Y-13275000D03*
X12100000Y-13875000D03*
X13030000Y-12640000D03*
X13070000Y-12950000D03*
D16*
X10200000Y-13800000D03*
D15*
X11600000Y-13645000D03*
X12925000Y-11625000D03*
X12675000Y-11625000D03*
X13095259Y-12437500D03*
X13125000Y-11625000D03*
X10502260Y-12210000D03*
D14*
X10687500Y-12020000D03*
D15*
X10175000Y-12500000D03*
D14*
X10405000Y-11975000D03*
X10540000Y-11802500D03*
D15*
X10727500Y-12307500D03*
X11014500Y-12164500D03*
D14*
X10827500Y-12432500D03*
X11715000Y-12500000D03*
X11732500Y-12812500D03*
X11852500Y-12807500D03*
D15*
X11766629Y-12957499D03*
X11902500Y-12315000D03*
%TO.N,/On When Warm/VD1*%
X12400000Y-13475000D03*
%TO.N,/On When Warm/vs*%
X11800000Y-13725000D03*
X11800000Y-14175000D03*
%TO.N,/On When Warm/vg1*%
X12100000Y-13425000D03*
%TO.N,/thermistor*%
X12250000Y-13975000D03*
%TO.N,/On When Warm/vd2*%
X12305132Y-13870617D03*
%TO.N,VDC*%
X12595000Y-12825000D03*
X12595000Y-13005000D03*
X11278000Y-14278000D03*
X12550000Y-13475000D03*
X12550000Y-14225000D03*
X11625000Y-14100000D03*
X11674818Y-13368949D03*
D14*
%TO.N,+5V*%
X10330000Y-12245000D03*
D15*
%TO.N,Net-(C11-Pad1)*%
X10335000Y-11902500D03*
D14*
X10625000Y-12310000D03*
X10331891Y-12161791D03*
%TO.N,Net-(R13-Pad1)*%
X10807500Y-12197500D03*
%TO.N,Net-(R15-Pad2)*%
X11050111Y-12366194D03*
%TO.N,Net-(C13-Pad1)*%
X10772413Y-11906289D03*
D15*
%TO.N,+5V*%
X10946000Y-10304000D03*
X10700000Y-10300000D03*
X10077500Y-12047500D03*
X10075000Y-12250000D03*
%TO.N,Net-(C17-Pad1)*%
X11450000Y-13075000D03*
D14*
X11558665Y-12866335D03*
D15*
%TO.N,GND*%
X10250000Y-12950000D03*
X12375000Y-12275000D03*
D14*
X11737500Y-12552500D03*
X11790000Y-12552500D03*
X11820000Y-12602500D03*
X11770000Y-12602500D03*
X11740000Y-12652500D03*
X11792500Y-12652500D03*
X11817500Y-12700000D03*
X11767500Y-12700000D03*
D15*
X11332500Y-11842500D03*
D16*
X11037500Y-11742500D03*
D15*
X10929388Y-12384387D03*
X12425000Y-13052500D03*
%TO.N,/thermistor*%
X12125000Y-10552500D03*
X13097500Y-10632500D03*
%TO.N,VDC*%
X12611825Y-12674614D03*
X12700000Y-14150000D03*
D16*
%TO.N,Net-(C12-Pad1)*%
X11210359Y-11906185D03*
D15*
%TO.N,Net-(R11-Pad2)*%
X12150000Y-12700000D03*
%TO.N,Net-(C16-Pad2)*%
X12150000Y-12475000D03*
X12144350Y-12600158D03*
%TO.N,+5V*%
X12387500Y-12487500D03*
D14*
X11875000Y-13042500D03*
X11447266Y-12438091D03*
D15*
%TO.N,Net-(C17-Pad1)*%
X10447500Y-13122500D03*
X12332500Y-12845000D03*
%TD*%
D17*
%TO.N,VDC*%
X13334000Y-14434000D02*
X10066000Y-14434000D01*
X10066000Y-14080449D01*
X10201500Y-14080449D01*
X10201500Y-14119550D01*
X10209128Y-14157900D01*
X10224092Y-14194025D01*
X10245815Y-14226536D01*
X10273464Y-14254185D01*
X10305975Y-14275908D01*
X10342100Y-14290872D01*
X10380450Y-14298500D01*
X10419551Y-14298500D01*
X10457900Y-14290872D01*
X10494025Y-14275908D01*
X10526536Y-14254185D01*
X10554185Y-14226536D01*
X10575909Y-14194025D01*
X10588011Y-14164806D01*
X11696500Y-14164806D01*
X11696500Y-14185194D01*
X11700477Y-14205190D01*
X11708279Y-14224026D01*
X11719606Y-14240977D01*
X11734023Y-14255394D01*
X11750974Y-14266720D01*
X11769810Y-14274523D01*
X11789806Y-14278500D01*
X11810194Y-14278500D01*
X11830190Y-14274523D01*
X11849026Y-14266720D01*
X11865977Y-14255394D01*
X11880394Y-14240977D01*
X11891720Y-14224026D01*
X11899523Y-14205190D01*
X11903500Y-14185194D01*
X11903500Y-14164806D01*
X11899523Y-14144810D01*
X11891720Y-14125974D01*
X11880394Y-14109023D01*
X11865977Y-14094606D01*
X11849026Y-14083279D01*
X11842193Y-14080449D01*
X12801500Y-14080449D01*
X12801500Y-14119550D01*
X12809128Y-14157900D01*
X12824091Y-14194025D01*
X12845815Y-14226536D01*
X12873464Y-14254185D01*
X12905975Y-14275908D01*
X12942100Y-14290872D01*
X12980449Y-14298500D01*
X13019550Y-14298500D01*
X13057900Y-14290872D01*
X13094025Y-14275908D01*
X13126536Y-14254185D01*
X13154185Y-14226536D01*
X13175908Y-14194025D01*
X13190872Y-14157900D01*
X13198500Y-14119550D01*
X13198500Y-14080449D01*
X13190872Y-14042100D01*
X13175908Y-14005975D01*
X13154185Y-13973464D01*
X13126536Y-13945815D01*
X13094025Y-13924091D01*
X13057900Y-13909128D01*
X13019550Y-13901500D01*
X12980449Y-13901500D01*
X12942100Y-13909128D01*
X12905975Y-13924091D01*
X12873464Y-13945815D01*
X12845815Y-13973464D01*
X12824091Y-14005975D01*
X12809128Y-14042100D01*
X12801500Y-14080449D01*
X11842193Y-14080449D01*
X11830190Y-14075477D01*
X11810194Y-14071500D01*
X11789806Y-14071500D01*
X11769810Y-14075477D01*
X11750974Y-14083279D01*
X11734023Y-14094606D01*
X11719606Y-14109023D01*
X11708279Y-14125974D01*
X11700477Y-14144810D01*
X11696500Y-14164806D01*
X10588011Y-14164806D01*
X10590872Y-14157900D01*
X10598500Y-14119550D01*
X10598500Y-14080449D01*
X10590872Y-14042100D01*
X10575909Y-14005975D01*
X10554185Y-13973464D01*
X10526536Y-13945815D01*
X10494025Y-13924091D01*
X10457900Y-13909128D01*
X10419551Y-13901500D01*
X10380450Y-13901500D01*
X10342100Y-13909128D01*
X10305975Y-13924091D01*
X10273464Y-13945815D01*
X10245815Y-13973464D01*
X10224092Y-14005975D01*
X10209128Y-14042100D01*
X10201500Y-14080449D01*
X10066000Y-14080449D01*
X10066000Y-13789314D01*
X10091500Y-13789314D01*
X10091500Y-13810686D01*
X10095670Y-13831648D01*
X10103849Y-13851394D01*
X10115723Y-13869165D01*
X10130835Y-13884277D01*
X10148606Y-13896151D01*
X10168352Y-13904330D01*
X10189314Y-13908500D01*
X10210686Y-13908500D01*
X10231648Y-13904330D01*
X10251394Y-13896151D01*
X10269165Y-13884277D01*
X10284278Y-13869165D01*
X10287190Y-13864806D01*
X11996500Y-13864806D01*
X11996500Y-13885194D01*
X12000477Y-13905190D01*
X12008279Y-13924026D01*
X12019606Y-13940977D01*
X12034023Y-13955394D01*
X12050974Y-13966720D01*
X12069810Y-13974523D01*
X12089806Y-13978500D01*
X12110194Y-13978500D01*
X12130190Y-13974523D01*
X12146500Y-13967767D01*
X12146500Y-13985194D01*
X12150477Y-14005190D01*
X12158279Y-14024026D01*
X12169606Y-14040977D01*
X12184023Y-14055394D01*
X12200974Y-14066720D01*
X12219810Y-14074523D01*
X12239806Y-14078500D01*
X12260194Y-14078500D01*
X12280190Y-14074523D01*
X12299026Y-14066720D01*
X12315977Y-14055394D01*
X12330394Y-14040977D01*
X12341720Y-14024026D01*
X12349523Y-14005190D01*
X12353500Y-13985194D01*
X12353500Y-13964806D01*
X12353096Y-13962777D01*
X12354157Y-13962338D01*
X12371109Y-13951011D01*
X12385525Y-13936595D01*
X12396852Y-13919643D01*
X12404654Y-13900807D01*
X12408632Y-13880811D01*
X12408632Y-13860424D01*
X12404654Y-13840428D01*
X12396852Y-13821592D01*
X12385525Y-13804640D01*
X12371109Y-13790224D01*
X12354157Y-13778897D01*
X12335322Y-13771095D01*
X12315326Y-13767117D01*
X12294938Y-13767117D01*
X12274942Y-13771095D01*
X12256106Y-13778897D01*
X12239154Y-13790224D01*
X12224738Y-13804640D01*
X12213411Y-13821592D01*
X12205609Y-13840428D01*
X12202130Y-13857919D01*
X12199523Y-13844810D01*
X12191720Y-13825974D01*
X12180394Y-13809023D01*
X12165977Y-13794606D01*
X12149026Y-13783279D01*
X12130190Y-13775477D01*
X12110194Y-13771500D01*
X12089806Y-13771500D01*
X12069810Y-13775477D01*
X12050974Y-13783279D01*
X12034023Y-13794606D01*
X12019606Y-13809023D01*
X12008279Y-13825974D01*
X12000477Y-13844810D01*
X11996500Y-13864806D01*
X10287190Y-13864806D01*
X10296152Y-13851394D01*
X10304330Y-13831648D01*
X10308500Y-13810686D01*
X10308500Y-13789314D01*
X10304330Y-13768352D01*
X10296152Y-13748606D01*
X10284278Y-13730835D01*
X10269165Y-13715722D01*
X10251394Y-13703848D01*
X10231648Y-13695670D01*
X10210686Y-13691500D01*
X10189314Y-13691500D01*
X10168352Y-13695670D01*
X10148606Y-13703848D01*
X10130835Y-13715722D01*
X10115723Y-13730835D01*
X10103849Y-13748606D01*
X10095670Y-13768352D01*
X10091500Y-13789314D01*
X10066000Y-13789314D01*
X10066000Y-13634806D01*
X11496500Y-13634806D01*
X11496500Y-13655194D01*
X11500477Y-13675190D01*
X11508279Y-13694026D01*
X11519606Y-13710978D01*
X11534023Y-13725394D01*
X11550974Y-13736721D01*
X11569810Y-13744523D01*
X11589806Y-13748500D01*
X11610194Y-13748500D01*
X11630190Y-13744523D01*
X11649026Y-13736721D01*
X11665977Y-13725394D01*
X11676565Y-13714806D01*
X11696500Y-13714806D01*
X11696500Y-13735194D01*
X11700477Y-13755190D01*
X11708279Y-13774026D01*
X11719606Y-13790977D01*
X11734023Y-13805394D01*
X11750974Y-13816720D01*
X11769810Y-13824523D01*
X11789806Y-13828500D01*
X11810194Y-13828500D01*
X11830190Y-13824523D01*
X11849026Y-13816720D01*
X11865977Y-13805394D01*
X11880394Y-13790977D01*
X11891720Y-13774026D01*
X11899523Y-13755190D01*
X11903500Y-13735194D01*
X11903500Y-13714806D01*
X11899523Y-13694810D01*
X11891720Y-13675974D01*
X11880394Y-13659023D01*
X11865977Y-13644606D01*
X11849026Y-13633279D01*
X11830190Y-13625477D01*
X11810194Y-13621500D01*
X11789806Y-13621500D01*
X11769810Y-13625477D01*
X11750974Y-13633279D01*
X11734023Y-13644606D01*
X11719606Y-13659023D01*
X11708279Y-13675974D01*
X11700477Y-13694810D01*
X11696500Y-13714806D01*
X11676565Y-13714806D01*
X11680394Y-13710978D01*
X11691720Y-13694026D01*
X11699523Y-13675190D01*
X11703500Y-13655194D01*
X11703500Y-13634806D01*
X11699523Y-13614810D01*
X11694216Y-13602000D01*
X12724193Y-13602000D01*
X12725419Y-13614448D01*
X12729050Y-13626418D01*
X12734946Y-13637449D01*
X12742881Y-13647118D01*
X12752551Y-13655054D01*
X12763582Y-13660950D01*
X12775552Y-13664581D01*
X12788000Y-13665807D01*
X12846425Y-13665500D01*
X12862300Y-13649625D01*
X12862300Y-13505200D01*
X12740375Y-13505200D01*
X12724500Y-13521075D01*
X12724193Y-13602000D01*
X11694216Y-13602000D01*
X11691720Y-13595975D01*
X11680394Y-13579023D01*
X11665977Y-13564606D01*
X11649026Y-13553280D01*
X11630190Y-13545478D01*
X11610194Y-13541500D01*
X11589806Y-13541500D01*
X11569810Y-13545478D01*
X11550974Y-13553280D01*
X11534023Y-13564606D01*
X11519606Y-13579023D01*
X11508279Y-13595975D01*
X11500477Y-13614810D01*
X11496500Y-13634806D01*
X10066000Y-13634806D01*
X10066000Y-13414806D01*
X11996500Y-13414806D01*
X11996500Y-13435194D01*
X12000477Y-13455190D01*
X12008279Y-13474026D01*
X12019606Y-13490977D01*
X12034023Y-13505394D01*
X12050974Y-13516720D01*
X12069810Y-13524523D01*
X12089806Y-13528500D01*
X12110194Y-13528500D01*
X12130190Y-13524523D01*
X12149026Y-13516720D01*
X12165977Y-13505394D01*
X12180394Y-13490977D01*
X12191720Y-13474026D01*
X12199523Y-13455190D01*
X12203500Y-13435194D01*
X12203500Y-13414806D01*
X12199523Y-13394810D01*
X12191720Y-13375974D01*
X12180394Y-13359023D01*
X12165977Y-13344606D01*
X12149026Y-13333279D01*
X12130190Y-13325477D01*
X12110194Y-13321500D01*
X12089806Y-13321500D01*
X12069810Y-13325477D01*
X12050974Y-13333279D01*
X12034023Y-13344606D01*
X12019606Y-13359023D01*
X12008279Y-13375974D01*
X12000477Y-13394810D01*
X11996500Y-13414806D01*
X10066000Y-13414806D01*
X10066000Y-13264806D01*
X12246500Y-13264806D01*
X12246500Y-13285194D01*
X12250477Y-13305190D01*
X12258279Y-13324026D01*
X12269606Y-13340977D01*
X12284023Y-13355394D01*
X12300974Y-13366720D01*
X12319810Y-13374523D01*
X12339806Y-13378500D01*
X12360194Y-13378500D01*
X12364656Y-13377612D01*
X12350974Y-13383279D01*
X12334023Y-13394606D01*
X12319606Y-13409023D01*
X12308279Y-13425974D01*
X12300477Y-13444810D01*
X12296500Y-13464806D01*
X12296500Y-13485194D01*
X12300477Y-13505190D01*
X12308279Y-13524026D01*
X12319606Y-13540977D01*
X12334023Y-13555394D01*
X12350974Y-13566720D01*
X12369810Y-13574523D01*
X12389806Y-13578500D01*
X12410194Y-13578500D01*
X12430190Y-13574523D01*
X12449026Y-13566720D01*
X12465977Y-13555394D01*
X12480394Y-13540977D01*
X12491720Y-13524026D01*
X12499523Y-13505190D01*
X12503500Y-13485194D01*
X12503500Y-13464806D01*
X12499523Y-13444810D01*
X12491720Y-13425974D01*
X12480394Y-13409023D01*
X12465977Y-13394606D01*
X12449026Y-13383279D01*
X12448351Y-13383000D01*
X12724193Y-13383000D01*
X12724500Y-13463925D01*
X12740375Y-13479800D01*
X12862300Y-13479800D01*
X12862300Y-13335375D01*
X12887700Y-13335375D01*
X12887700Y-13479800D01*
X12889700Y-13479800D01*
X12889700Y-13505200D01*
X12887700Y-13505200D01*
X12887700Y-13649625D01*
X12903575Y-13665500D01*
X12962000Y-13665807D01*
X12974448Y-13664581D01*
X12986418Y-13660950D01*
X12997449Y-13655054D01*
X13007118Y-13647118D01*
X13015054Y-13637449D01*
X13020950Y-13626418D01*
X13022261Y-13622095D01*
X13044982Y-13640742D01*
X13071128Y-13654717D01*
X13099497Y-13663322D01*
X13129000Y-13666228D01*
X13158503Y-13663322D01*
X13186872Y-13654717D01*
X13213018Y-13640742D01*
X13235934Y-13621934D01*
X13254742Y-13599018D01*
X13268717Y-13572872D01*
X13277322Y-13544503D01*
X13279500Y-13522393D01*
X13279500Y-13462606D01*
X13277322Y-13440497D01*
X13268717Y-13412127D01*
X13254742Y-13385982D01*
X13235934Y-13363065D01*
X13213018Y-13344258D01*
X13186872Y-13330283D01*
X13158503Y-13321678D01*
X13129000Y-13318772D01*
X13099497Y-13321678D01*
X13071127Y-13330283D01*
X13044982Y-13344258D01*
X13022261Y-13362905D01*
X13020950Y-13358582D01*
X13015054Y-13347551D01*
X13007118Y-13337881D01*
X12997449Y-13329946D01*
X12986418Y-13324050D01*
X12974448Y-13320419D01*
X12962000Y-13319193D01*
X12903575Y-13319500D01*
X12887700Y-13335375D01*
X12862300Y-13335375D01*
X12846425Y-13319500D01*
X12788000Y-13319193D01*
X12775552Y-13320419D01*
X12763582Y-13324050D01*
X12752551Y-13329946D01*
X12742881Y-13337881D01*
X12734946Y-13347551D01*
X12729050Y-13358582D01*
X12725419Y-13370552D01*
X12724193Y-13383000D01*
X12448351Y-13383000D01*
X12430190Y-13375477D01*
X12410194Y-13371500D01*
X12389806Y-13371500D01*
X12385344Y-13372387D01*
X12399026Y-13366720D01*
X12415977Y-13355394D01*
X12430394Y-13340977D01*
X12441720Y-13324026D01*
X12449523Y-13305190D01*
X12453500Y-13285194D01*
X12453500Y-13264806D01*
X12449523Y-13244810D01*
X12441720Y-13225974D01*
X12430394Y-13209023D01*
X12415977Y-13194606D01*
X12399026Y-13183279D01*
X12380190Y-13175477D01*
X12360194Y-13171500D01*
X12339806Y-13171500D01*
X12319810Y-13175477D01*
X12300974Y-13183279D01*
X12284023Y-13194606D01*
X12269606Y-13209023D01*
X12258279Y-13225974D01*
X12250477Y-13244810D01*
X12246500Y-13264806D01*
X10066000Y-13264806D01*
X10066000Y-13138500D01*
X10345155Y-13138500D01*
X10347977Y-13152690D01*
X10355780Y-13171526D01*
X10367106Y-13188477D01*
X10381523Y-13202894D01*
X10398474Y-13214220D01*
X10417310Y-13222023D01*
X10437306Y-13226000D01*
X10457694Y-13226000D01*
X10477690Y-13222023D01*
X10496526Y-13214220D01*
X10513477Y-13202894D01*
X10527894Y-13188477D01*
X10539221Y-13171526D01*
X10547023Y-13152690D01*
X10549845Y-13138500D01*
X11367951Y-13138500D01*
X11369606Y-13140977D01*
X11384023Y-13155394D01*
X11400974Y-13166720D01*
X11419810Y-13174523D01*
X11439806Y-13178500D01*
X11460194Y-13178500D01*
X11480190Y-13174523D01*
X11499026Y-13166720D01*
X11515977Y-13155394D01*
X11530394Y-13140977D01*
X11532049Y-13138500D01*
X12367413Y-13138500D01*
X12375974Y-13144220D01*
X12394810Y-13152023D01*
X12414806Y-13156000D01*
X12435194Y-13156000D01*
X12455190Y-13152023D01*
X12474026Y-13144220D01*
X12490977Y-13132894D01*
X12505394Y-13118477D01*
X12516720Y-13101526D01*
X12524523Y-13082690D01*
X12528500Y-13062694D01*
X12528500Y-13042306D01*
X12524523Y-13022310D01*
X12516720Y-13003474D01*
X12513500Y-12998655D01*
X12513500Y-12939806D01*
X12966500Y-12939806D01*
X12966500Y-12960194D01*
X12970477Y-12980190D01*
X12978279Y-12999026D01*
X12989606Y-13015977D01*
X13004023Y-13030394D01*
X13020974Y-13041720D01*
X13039810Y-13049523D01*
X13059806Y-13053500D01*
X13080194Y-13053500D01*
X13100190Y-13049523D01*
X13119026Y-13041720D01*
X13135977Y-13030394D01*
X13150394Y-13015977D01*
X13161720Y-12999026D01*
X13169523Y-12980190D01*
X13173500Y-12960194D01*
X13173500Y-12939806D01*
X13169523Y-12919810D01*
X13161720Y-12900974D01*
X13150394Y-12884023D01*
X13135977Y-12869606D01*
X13119026Y-12858279D01*
X13100190Y-12850477D01*
X13080194Y-12846500D01*
X13059806Y-12846500D01*
X13039810Y-12850477D01*
X13020974Y-12858279D01*
X13004023Y-12869606D01*
X12989606Y-12884023D01*
X12978279Y-12900974D01*
X12970477Y-12919810D01*
X12966500Y-12939806D01*
X12513500Y-12939806D01*
X12513500Y-12629806D01*
X12926500Y-12629806D01*
X12926500Y-12650194D01*
X12930477Y-12670190D01*
X12938279Y-12689026D01*
X12949606Y-12705977D01*
X12964023Y-12720394D01*
X12980974Y-12731720D01*
X12999810Y-12739523D01*
X13019806Y-12743500D01*
X13040194Y-12743500D01*
X13060190Y-12739523D01*
X13079026Y-12731720D01*
X13095977Y-12720394D01*
X13110394Y-12705977D01*
X13121720Y-12689026D01*
X13129523Y-12670190D01*
X13133500Y-12650194D01*
X13133500Y-12629806D01*
X13129523Y-12609810D01*
X13121720Y-12590974D01*
X13110394Y-12574023D01*
X13095977Y-12559606D01*
X13079026Y-12548279D01*
X13060190Y-12540477D01*
X13040194Y-12536500D01*
X13019806Y-12536500D01*
X12999810Y-12540477D01*
X12980974Y-12548279D01*
X12964023Y-12559606D01*
X12949606Y-12574023D01*
X12938279Y-12590974D01*
X12930477Y-12609810D01*
X12926500Y-12629806D01*
X12513500Y-12629806D01*
X12513500Y-12549322D01*
X12514606Y-12550977D01*
X12529023Y-12565394D01*
X12545974Y-12576720D01*
X12564810Y-12584523D01*
X12584806Y-12588500D01*
X12605194Y-12588500D01*
X12625190Y-12584523D01*
X12644026Y-12576720D01*
X12660977Y-12565394D01*
X12675394Y-12550977D01*
X12686720Y-12534026D01*
X12694523Y-12515190D01*
X12696292Y-12506292D01*
X12705190Y-12504523D01*
X12724026Y-12496720D01*
X12740977Y-12485394D01*
X12755394Y-12470977D01*
X12766720Y-12454026D01*
X12774523Y-12435190D01*
X12776091Y-12427306D01*
X12991759Y-12427306D01*
X12991759Y-12447693D01*
X12995737Y-12467689D01*
X13003539Y-12486525D01*
X13014866Y-12503477D01*
X13029282Y-12517893D01*
X13046234Y-12529220D01*
X13065069Y-12537022D01*
X13085065Y-12541000D01*
X13097884Y-12541000D01*
X13103279Y-12554026D01*
X13114606Y-12570977D01*
X13129023Y-12585394D01*
X13145974Y-12596720D01*
X13164810Y-12604523D01*
X13184806Y-12608500D01*
X13205194Y-12608500D01*
X13225190Y-12604523D01*
X13244026Y-12596720D01*
X13260977Y-12585394D01*
X13275394Y-12570977D01*
X13286720Y-12554026D01*
X13294523Y-12535190D01*
X13298500Y-12515194D01*
X13298500Y-12494806D01*
X13294523Y-12474810D01*
X13286720Y-12455974D01*
X13286069Y-12455000D01*
X13286720Y-12454026D01*
X13294523Y-12435190D01*
X13298500Y-12415194D01*
X13298500Y-12394806D01*
X13294523Y-12374810D01*
X13286720Y-12355974D01*
X13275394Y-12339023D01*
X13260977Y-12324606D01*
X13244026Y-12313279D01*
X13225190Y-12305477D01*
X13205194Y-12301500D01*
X13184806Y-12301500D01*
X13164810Y-12305477D01*
X13145974Y-12313279D01*
X13129023Y-12324606D01*
X13117277Y-12336352D01*
X13105453Y-12334000D01*
X13085065Y-12334000D01*
X13065069Y-12337977D01*
X13046234Y-12345779D01*
X13029282Y-12357106D01*
X13014866Y-12371522D01*
X13003539Y-12388474D01*
X12995737Y-12407310D01*
X12991759Y-12427306D01*
X12776091Y-12427306D01*
X12778500Y-12415194D01*
X12778500Y-12394806D01*
X12774523Y-12374810D01*
X12766720Y-12355974D01*
X12755394Y-12339023D01*
X12740977Y-12324606D01*
X12724026Y-12313279D01*
X12705190Y-12305477D01*
X12696787Y-12303806D01*
X12698500Y-12295194D01*
X12698500Y-12274806D01*
X12694523Y-12254810D01*
X12686720Y-12235974D01*
X12675394Y-12219023D01*
X12660977Y-12204606D01*
X12644026Y-12193279D01*
X12625190Y-12185477D01*
X12605194Y-12181500D01*
X12584806Y-12181500D01*
X12564810Y-12185477D01*
X12545974Y-12193279D01*
X12529023Y-12204606D01*
X12514606Y-12219023D01*
X12513500Y-12220678D01*
X12513500Y-11614806D01*
X12571500Y-11614806D01*
X12571500Y-11635194D01*
X12575477Y-11655190D01*
X12583279Y-11674026D01*
X12594606Y-11690977D01*
X12609023Y-11705394D01*
X12625974Y-11716720D01*
X12644810Y-11724523D01*
X12664806Y-11728500D01*
X12685194Y-11728500D01*
X12705190Y-11724523D01*
X12724026Y-11716720D01*
X12740977Y-11705394D01*
X12755394Y-11690977D01*
X12766720Y-11674026D01*
X12774523Y-11655190D01*
X12778500Y-11635194D01*
X12778500Y-11614806D01*
X12821500Y-11614806D01*
X12821500Y-11635194D01*
X12825477Y-11655190D01*
X12833279Y-11674026D01*
X12844606Y-11690977D01*
X12859023Y-11705394D01*
X12875974Y-11716720D01*
X12894810Y-11724523D01*
X12914806Y-11728500D01*
X12935194Y-11728500D01*
X12955190Y-11724523D01*
X12974026Y-11716720D01*
X12990977Y-11705394D01*
X13005394Y-11690977D01*
X13016720Y-11674026D01*
X13024523Y-11655190D01*
X13025000Y-11652790D01*
X13025477Y-11655190D01*
X13033279Y-11674026D01*
X13044606Y-11690977D01*
X13059023Y-11705394D01*
X13075974Y-11716720D01*
X13094810Y-11724523D01*
X13114806Y-11728500D01*
X13135194Y-11728500D01*
X13155190Y-11724523D01*
X13174026Y-11716720D01*
X13190977Y-11705394D01*
X13205394Y-11690977D01*
X13216720Y-11674026D01*
X13224523Y-11655190D01*
X13228500Y-11635194D01*
X13228500Y-11614806D01*
X13224523Y-11594810D01*
X13216720Y-11575974D01*
X13205394Y-11559023D01*
X13190977Y-11544606D01*
X13174026Y-11533279D01*
X13155190Y-11525477D01*
X13135194Y-11521500D01*
X13114806Y-11521500D01*
X13094810Y-11525477D01*
X13075974Y-11533279D01*
X13059023Y-11544606D01*
X13044606Y-11559023D01*
X13033279Y-11575974D01*
X13025477Y-11594810D01*
X13025000Y-11597210D01*
X13024523Y-11594810D01*
X13016720Y-11575974D01*
X13005394Y-11559023D01*
X12990977Y-11544606D01*
X12974026Y-11533279D01*
X12955190Y-11525477D01*
X12935194Y-11521500D01*
X12914806Y-11521500D01*
X12894810Y-11525477D01*
X12875974Y-11533279D01*
X12859023Y-11544606D01*
X12844606Y-11559023D01*
X12833279Y-11575974D01*
X12825477Y-11594810D01*
X12821500Y-11614806D01*
X12778500Y-11614806D01*
X12774523Y-11594810D01*
X12766720Y-11575974D01*
X12755394Y-11559023D01*
X12740977Y-11544606D01*
X12724026Y-11533279D01*
X12705190Y-11525477D01*
X12685194Y-11521500D01*
X12664806Y-11521500D01*
X12644810Y-11525477D01*
X12625974Y-11533279D01*
X12609023Y-11544606D01*
X12594606Y-11559023D01*
X12583279Y-11575974D01*
X12575477Y-11594810D01*
X12571500Y-11614806D01*
X12513500Y-11614806D01*
X12513500Y-11479025D01*
X12542100Y-11490872D01*
X12580449Y-11498500D01*
X12619550Y-11498500D01*
X12657900Y-11490872D01*
X12694025Y-11475908D01*
X12726536Y-11454185D01*
X12754185Y-11426536D01*
X12775908Y-11394025D01*
X12790872Y-11357900D01*
X12798500Y-11319550D01*
X12798500Y-11280449D01*
X12790872Y-11242100D01*
X12775908Y-11205975D01*
X12754185Y-11173464D01*
X12726536Y-11145815D01*
X12694025Y-11124092D01*
X12657900Y-11109128D01*
X12619550Y-11101500D01*
X12580449Y-11101500D01*
X12542100Y-11109128D01*
X12513500Y-11120975D01*
X12513500Y-10750610D01*
X12515500Y-10750807D01*
X12684500Y-10750807D01*
X12701825Y-10749101D01*
X12718485Y-10744047D01*
X12733839Y-10735841D01*
X12747296Y-10724796D01*
X12758340Y-10711339D01*
X12766547Y-10695985D01*
X12771601Y-10679326D01*
X12773307Y-10662000D01*
X12773307Y-10622306D01*
X12994000Y-10622306D01*
X12994000Y-10642694D01*
X12997977Y-10662690D01*
X13005779Y-10681526D01*
X13017106Y-10698477D01*
X13031523Y-10712894D01*
X13048474Y-10724221D01*
X13067310Y-10732023D01*
X13087306Y-10736000D01*
X13107694Y-10736000D01*
X13127690Y-10732023D01*
X13146526Y-10724221D01*
X13163477Y-10712894D01*
X13177894Y-10698477D01*
X13189220Y-10681526D01*
X13197023Y-10662690D01*
X13201000Y-10642694D01*
X13201000Y-10622306D01*
X13197023Y-10602310D01*
X13189220Y-10583474D01*
X13177894Y-10566523D01*
X13163477Y-10552106D01*
X13146526Y-10540780D01*
X13127690Y-10532977D01*
X13107694Y-10529000D01*
X13087306Y-10529000D01*
X13067310Y-10532977D01*
X13048474Y-10540780D01*
X13031523Y-10552106D01*
X13017106Y-10566523D01*
X13005779Y-10583474D01*
X12997977Y-10602310D01*
X12994000Y-10622306D01*
X12773307Y-10622306D01*
X12773307Y-10538000D01*
X12771601Y-10520675D01*
X12766547Y-10504015D01*
X12758340Y-10488661D01*
X12747296Y-10475204D01*
X12733839Y-10464160D01*
X12722889Y-10458307D01*
X12729434Y-10452935D01*
X12748242Y-10430018D01*
X12762217Y-10403873D01*
X12770822Y-10375503D01*
X12773728Y-10346000D01*
X12770822Y-10316497D01*
X12762217Y-10288128D01*
X12748242Y-10261982D01*
X12729434Y-10239066D01*
X12706518Y-10220258D01*
X12680372Y-10206283D01*
X12652003Y-10197678D01*
X12629894Y-10195500D01*
X12570106Y-10195500D01*
X12547997Y-10197678D01*
X12519627Y-10206283D01*
X12513500Y-10209559D01*
X12513500Y-10066000D01*
X13334000Y-10066000D01*
X13334000Y-14434000D01*
%TA.AperFunction,Conductor*%
D18*
G36*
X13334000Y-14434000D02*
G01*
X10066000Y-14434000D01*
X10066000Y-14080449D01*
X10201500Y-14080449D01*
X10201500Y-14119550D01*
X10209128Y-14157900D01*
X10224092Y-14194025D01*
X10245815Y-14226536D01*
X10273464Y-14254185D01*
X10305975Y-14275908D01*
X10342100Y-14290872D01*
X10380450Y-14298500D01*
X10419551Y-14298500D01*
X10457900Y-14290872D01*
X10494025Y-14275908D01*
X10526536Y-14254185D01*
X10554185Y-14226536D01*
X10575909Y-14194025D01*
X10588011Y-14164806D01*
X11696500Y-14164806D01*
X11696500Y-14185194D01*
X11700477Y-14205190D01*
X11708279Y-14224026D01*
X11719606Y-14240977D01*
X11734023Y-14255394D01*
X11750974Y-14266720D01*
X11769810Y-14274523D01*
X11789806Y-14278500D01*
X11810194Y-14278500D01*
X11830190Y-14274523D01*
X11849026Y-14266720D01*
X11865977Y-14255394D01*
X11880394Y-14240977D01*
X11891720Y-14224026D01*
X11899523Y-14205190D01*
X11903500Y-14185194D01*
X11903500Y-14164806D01*
X11899523Y-14144810D01*
X11891720Y-14125974D01*
X11880394Y-14109023D01*
X11865977Y-14094606D01*
X11849026Y-14083279D01*
X11842193Y-14080449D01*
X12801500Y-14080449D01*
X12801500Y-14119550D01*
X12809128Y-14157900D01*
X12824091Y-14194025D01*
X12845815Y-14226536D01*
X12873464Y-14254185D01*
X12905975Y-14275908D01*
X12942100Y-14290872D01*
X12980449Y-14298500D01*
X13019550Y-14298500D01*
X13057900Y-14290872D01*
X13094025Y-14275908D01*
X13126536Y-14254185D01*
X13154185Y-14226536D01*
X13175908Y-14194025D01*
X13190872Y-14157900D01*
X13198500Y-14119550D01*
X13198500Y-14080449D01*
X13190872Y-14042100D01*
X13175908Y-14005975D01*
X13154185Y-13973464D01*
X13126536Y-13945815D01*
X13094025Y-13924091D01*
X13057900Y-13909128D01*
X13019550Y-13901500D01*
X12980449Y-13901500D01*
X12942100Y-13909128D01*
X12905975Y-13924091D01*
X12873464Y-13945815D01*
X12845815Y-13973464D01*
X12824091Y-14005975D01*
X12809128Y-14042100D01*
X12801500Y-14080449D01*
X11842193Y-14080449D01*
X11830190Y-14075477D01*
X11810194Y-14071500D01*
X11789806Y-14071500D01*
X11769810Y-14075477D01*
X11750974Y-14083279D01*
X11734023Y-14094606D01*
X11719606Y-14109023D01*
X11708279Y-14125974D01*
X11700477Y-14144810D01*
X11696500Y-14164806D01*
X10588011Y-14164806D01*
X10590872Y-14157900D01*
X10598500Y-14119550D01*
X10598500Y-14080449D01*
X10590872Y-14042100D01*
X10575909Y-14005975D01*
X10554185Y-13973464D01*
X10526536Y-13945815D01*
X10494025Y-13924091D01*
X10457900Y-13909128D01*
X10419551Y-13901500D01*
X10380450Y-13901500D01*
X10342100Y-13909128D01*
X10305975Y-13924091D01*
X10273464Y-13945815D01*
X10245815Y-13973464D01*
X10224092Y-14005975D01*
X10209128Y-14042100D01*
X10201500Y-14080449D01*
X10066000Y-14080449D01*
X10066000Y-13789314D01*
X10091500Y-13789314D01*
X10091500Y-13810686D01*
X10095670Y-13831648D01*
X10103849Y-13851394D01*
X10115723Y-13869165D01*
X10130835Y-13884277D01*
X10148606Y-13896151D01*
X10168352Y-13904330D01*
X10189314Y-13908500D01*
X10210686Y-13908500D01*
X10231648Y-13904330D01*
X10251394Y-13896151D01*
X10269165Y-13884277D01*
X10284278Y-13869165D01*
X10287190Y-13864806D01*
X11996500Y-13864806D01*
X11996500Y-13885194D01*
X12000477Y-13905190D01*
X12008279Y-13924026D01*
X12019606Y-13940977D01*
X12034023Y-13955394D01*
X12050974Y-13966720D01*
X12069810Y-13974523D01*
X12089806Y-13978500D01*
X12110194Y-13978500D01*
X12130190Y-13974523D01*
X12146500Y-13967767D01*
X12146500Y-13985194D01*
X12150477Y-14005190D01*
X12158279Y-14024026D01*
X12169606Y-14040977D01*
X12184023Y-14055394D01*
X12200974Y-14066720D01*
X12219810Y-14074523D01*
X12239806Y-14078500D01*
X12260194Y-14078500D01*
X12280190Y-14074523D01*
X12299026Y-14066720D01*
X12315977Y-14055394D01*
X12330394Y-14040977D01*
X12341720Y-14024026D01*
X12349523Y-14005190D01*
X12353500Y-13985194D01*
X12353500Y-13964806D01*
X12353096Y-13962777D01*
X12354157Y-13962338D01*
X12371109Y-13951011D01*
X12385525Y-13936595D01*
X12396852Y-13919643D01*
X12404654Y-13900807D01*
X12408632Y-13880811D01*
X12408632Y-13860424D01*
X12404654Y-13840428D01*
X12396852Y-13821592D01*
X12385525Y-13804640D01*
X12371109Y-13790224D01*
X12354157Y-13778897D01*
X12335322Y-13771095D01*
X12315326Y-13767117D01*
X12294938Y-13767117D01*
X12274942Y-13771095D01*
X12256106Y-13778897D01*
X12239154Y-13790224D01*
X12224738Y-13804640D01*
X12213411Y-13821592D01*
X12205609Y-13840428D01*
X12202130Y-13857919D01*
X12199523Y-13844810D01*
X12191720Y-13825974D01*
X12180394Y-13809023D01*
X12165977Y-13794606D01*
X12149026Y-13783279D01*
X12130190Y-13775477D01*
X12110194Y-13771500D01*
X12089806Y-13771500D01*
X12069810Y-13775477D01*
X12050974Y-13783279D01*
X12034023Y-13794606D01*
X12019606Y-13809023D01*
X12008279Y-13825974D01*
X12000477Y-13844810D01*
X11996500Y-13864806D01*
X10287190Y-13864806D01*
X10296152Y-13851394D01*
X10304330Y-13831648D01*
X10308500Y-13810686D01*
X10308500Y-13789314D01*
X10304330Y-13768352D01*
X10296152Y-13748606D01*
X10284278Y-13730835D01*
X10269165Y-13715722D01*
X10251394Y-13703848D01*
X10231648Y-13695670D01*
X10210686Y-13691500D01*
X10189314Y-13691500D01*
X10168352Y-13695670D01*
X10148606Y-13703848D01*
X10130835Y-13715722D01*
X10115723Y-13730835D01*
X10103849Y-13748606D01*
X10095670Y-13768352D01*
X10091500Y-13789314D01*
X10066000Y-13789314D01*
X10066000Y-13634806D01*
X11496500Y-13634806D01*
X11496500Y-13655194D01*
X11500477Y-13675190D01*
X11508279Y-13694026D01*
X11519606Y-13710978D01*
X11534023Y-13725394D01*
X11550974Y-13736721D01*
X11569810Y-13744523D01*
X11589806Y-13748500D01*
X11610194Y-13748500D01*
X11630190Y-13744523D01*
X11649026Y-13736721D01*
X11665977Y-13725394D01*
X11676565Y-13714806D01*
X11696500Y-13714806D01*
X11696500Y-13735194D01*
X11700477Y-13755190D01*
X11708279Y-13774026D01*
X11719606Y-13790977D01*
X11734023Y-13805394D01*
X11750974Y-13816720D01*
X11769810Y-13824523D01*
X11789806Y-13828500D01*
X11810194Y-13828500D01*
X11830190Y-13824523D01*
X11849026Y-13816720D01*
X11865977Y-13805394D01*
X11880394Y-13790977D01*
X11891720Y-13774026D01*
X11899523Y-13755190D01*
X11903500Y-13735194D01*
X11903500Y-13714806D01*
X11899523Y-13694810D01*
X11891720Y-13675974D01*
X11880394Y-13659023D01*
X11865977Y-13644606D01*
X11849026Y-13633279D01*
X11830190Y-13625477D01*
X11810194Y-13621500D01*
X11789806Y-13621500D01*
X11769810Y-13625477D01*
X11750974Y-13633279D01*
X11734023Y-13644606D01*
X11719606Y-13659023D01*
X11708279Y-13675974D01*
X11700477Y-13694810D01*
X11696500Y-13714806D01*
X11676565Y-13714806D01*
X11680394Y-13710978D01*
X11691720Y-13694026D01*
X11699523Y-13675190D01*
X11703500Y-13655194D01*
X11703500Y-13634806D01*
X11699523Y-13614810D01*
X11694216Y-13602000D01*
X12724193Y-13602000D01*
X12725419Y-13614448D01*
X12729050Y-13626418D01*
X12734946Y-13637449D01*
X12742881Y-13647118D01*
X12752551Y-13655054D01*
X12763582Y-13660950D01*
X12775552Y-13664581D01*
X12788000Y-13665807D01*
X12846425Y-13665500D01*
X12862300Y-13649625D01*
X12862300Y-13505200D01*
X12740375Y-13505200D01*
X12724500Y-13521075D01*
X12724193Y-13602000D01*
X11694216Y-13602000D01*
X11691720Y-13595975D01*
X11680394Y-13579023D01*
X11665977Y-13564606D01*
X11649026Y-13553280D01*
X11630190Y-13545478D01*
X11610194Y-13541500D01*
X11589806Y-13541500D01*
X11569810Y-13545478D01*
X11550974Y-13553280D01*
X11534023Y-13564606D01*
X11519606Y-13579023D01*
X11508279Y-13595975D01*
X11500477Y-13614810D01*
X11496500Y-13634806D01*
X10066000Y-13634806D01*
X10066000Y-13414806D01*
X11996500Y-13414806D01*
X11996500Y-13435194D01*
X12000477Y-13455190D01*
X12008279Y-13474026D01*
X12019606Y-13490977D01*
X12034023Y-13505394D01*
X12050974Y-13516720D01*
X12069810Y-13524523D01*
X12089806Y-13528500D01*
X12110194Y-13528500D01*
X12130190Y-13524523D01*
X12149026Y-13516720D01*
X12165977Y-13505394D01*
X12180394Y-13490977D01*
X12191720Y-13474026D01*
X12199523Y-13455190D01*
X12203500Y-13435194D01*
X12203500Y-13414806D01*
X12199523Y-13394810D01*
X12191720Y-13375974D01*
X12180394Y-13359023D01*
X12165977Y-13344606D01*
X12149026Y-13333279D01*
X12130190Y-13325477D01*
X12110194Y-13321500D01*
X12089806Y-13321500D01*
X12069810Y-13325477D01*
X12050974Y-13333279D01*
X12034023Y-13344606D01*
X12019606Y-13359023D01*
X12008279Y-13375974D01*
X12000477Y-13394810D01*
X11996500Y-13414806D01*
X10066000Y-13414806D01*
X10066000Y-13264806D01*
X12246500Y-13264806D01*
X12246500Y-13285194D01*
X12250477Y-13305190D01*
X12258279Y-13324026D01*
X12269606Y-13340977D01*
X12284023Y-13355394D01*
X12300974Y-13366720D01*
X12319810Y-13374523D01*
X12339806Y-13378500D01*
X12360194Y-13378500D01*
X12364656Y-13377612D01*
X12350974Y-13383279D01*
X12334023Y-13394606D01*
X12319606Y-13409023D01*
X12308279Y-13425974D01*
X12300477Y-13444810D01*
X12296500Y-13464806D01*
X12296500Y-13485194D01*
X12300477Y-13505190D01*
X12308279Y-13524026D01*
X12319606Y-13540977D01*
X12334023Y-13555394D01*
X12350974Y-13566720D01*
X12369810Y-13574523D01*
X12389806Y-13578500D01*
X12410194Y-13578500D01*
X12430190Y-13574523D01*
X12449026Y-13566720D01*
X12465977Y-13555394D01*
X12480394Y-13540977D01*
X12491720Y-13524026D01*
X12499523Y-13505190D01*
X12503500Y-13485194D01*
X12503500Y-13464806D01*
X12499523Y-13444810D01*
X12491720Y-13425974D01*
X12480394Y-13409023D01*
X12465977Y-13394606D01*
X12449026Y-13383279D01*
X12448351Y-13383000D01*
X12724193Y-13383000D01*
X12724500Y-13463925D01*
X12740375Y-13479800D01*
X12862300Y-13479800D01*
X12862300Y-13335375D01*
X12887700Y-13335375D01*
X12887700Y-13479800D01*
X12889700Y-13479800D01*
X12889700Y-13505200D01*
X12887700Y-13505200D01*
X12887700Y-13649625D01*
X12903575Y-13665500D01*
X12962000Y-13665807D01*
X12974448Y-13664581D01*
X12986418Y-13660950D01*
X12997449Y-13655054D01*
X13007118Y-13647118D01*
X13015054Y-13637449D01*
X13020950Y-13626418D01*
X13022261Y-13622095D01*
X13044982Y-13640742D01*
X13071128Y-13654717D01*
X13099497Y-13663322D01*
X13129000Y-13666228D01*
X13158503Y-13663322D01*
X13186872Y-13654717D01*
X13213018Y-13640742D01*
X13235934Y-13621934D01*
X13254742Y-13599018D01*
X13268717Y-13572872D01*
X13277322Y-13544503D01*
X13279500Y-13522393D01*
X13279500Y-13462606D01*
X13277322Y-13440497D01*
X13268717Y-13412127D01*
X13254742Y-13385982D01*
X13235934Y-13363065D01*
X13213018Y-13344258D01*
X13186872Y-13330283D01*
X13158503Y-13321678D01*
X13129000Y-13318772D01*
X13099497Y-13321678D01*
X13071127Y-13330283D01*
X13044982Y-13344258D01*
X13022261Y-13362905D01*
X13020950Y-13358582D01*
X13015054Y-13347551D01*
X13007118Y-13337881D01*
X12997449Y-13329946D01*
X12986418Y-13324050D01*
X12974448Y-13320419D01*
X12962000Y-13319193D01*
X12903575Y-13319500D01*
X12887700Y-13335375D01*
X12862300Y-13335375D01*
X12846425Y-13319500D01*
X12788000Y-13319193D01*
X12775552Y-13320419D01*
X12763582Y-13324050D01*
X12752551Y-13329946D01*
X12742881Y-13337881D01*
X12734946Y-13347551D01*
X12729050Y-13358582D01*
X12725419Y-13370552D01*
X12724193Y-13383000D01*
X12448351Y-13383000D01*
X12430190Y-13375477D01*
X12410194Y-13371500D01*
X12389806Y-13371500D01*
X12385344Y-13372387D01*
X12399026Y-13366720D01*
X12415977Y-13355394D01*
X12430394Y-13340977D01*
X12441720Y-13324026D01*
X12449523Y-13305190D01*
X12453500Y-13285194D01*
X12453500Y-13264806D01*
X12449523Y-13244810D01*
X12441720Y-13225974D01*
X12430394Y-13209023D01*
X12415977Y-13194606D01*
X12399026Y-13183279D01*
X12380190Y-13175477D01*
X12360194Y-13171500D01*
X12339806Y-13171500D01*
X12319810Y-13175477D01*
X12300974Y-13183279D01*
X12284023Y-13194606D01*
X12269606Y-13209023D01*
X12258279Y-13225974D01*
X12250477Y-13244810D01*
X12246500Y-13264806D01*
X10066000Y-13264806D01*
X10066000Y-13138500D01*
X10345155Y-13138500D01*
X10347977Y-13152690D01*
X10355780Y-13171526D01*
X10367106Y-13188477D01*
X10381523Y-13202894D01*
X10398474Y-13214220D01*
X10417310Y-13222023D01*
X10437306Y-13226000D01*
X10457694Y-13226000D01*
X10477690Y-13222023D01*
X10496526Y-13214220D01*
X10513477Y-13202894D01*
X10527894Y-13188477D01*
X10539221Y-13171526D01*
X10547023Y-13152690D01*
X10549845Y-13138500D01*
X11367951Y-13138500D01*
X11369606Y-13140977D01*
X11384023Y-13155394D01*
X11400974Y-13166720D01*
X11419810Y-13174523D01*
X11439806Y-13178500D01*
X11460194Y-13178500D01*
X11480190Y-13174523D01*
X11499026Y-13166720D01*
X11515977Y-13155394D01*
X11530394Y-13140977D01*
X11532049Y-13138500D01*
X12367413Y-13138500D01*
X12375974Y-13144220D01*
X12394810Y-13152023D01*
X12414806Y-13156000D01*
X12435194Y-13156000D01*
X12455190Y-13152023D01*
X12474026Y-13144220D01*
X12490977Y-13132894D01*
X12505394Y-13118477D01*
X12516720Y-13101526D01*
X12524523Y-13082690D01*
X12528500Y-13062694D01*
X12528500Y-13042306D01*
X12524523Y-13022310D01*
X12516720Y-13003474D01*
X12513500Y-12998655D01*
X12513500Y-12939806D01*
X12966500Y-12939806D01*
X12966500Y-12960194D01*
X12970477Y-12980190D01*
X12978279Y-12999026D01*
X12989606Y-13015977D01*
X13004023Y-13030394D01*
X13020974Y-13041720D01*
X13039810Y-13049523D01*
X13059806Y-13053500D01*
X13080194Y-13053500D01*
X13100190Y-13049523D01*
X13119026Y-13041720D01*
X13135977Y-13030394D01*
X13150394Y-13015977D01*
X13161720Y-12999026D01*
X13169523Y-12980190D01*
X13173500Y-12960194D01*
X13173500Y-12939806D01*
X13169523Y-12919810D01*
X13161720Y-12900974D01*
X13150394Y-12884023D01*
X13135977Y-12869606D01*
X13119026Y-12858279D01*
X13100190Y-12850477D01*
X13080194Y-12846500D01*
X13059806Y-12846500D01*
X13039810Y-12850477D01*
X13020974Y-12858279D01*
X13004023Y-12869606D01*
X12989606Y-12884023D01*
X12978279Y-12900974D01*
X12970477Y-12919810D01*
X12966500Y-12939806D01*
X12513500Y-12939806D01*
X12513500Y-12629806D01*
X12926500Y-12629806D01*
X12926500Y-12650194D01*
X12930477Y-12670190D01*
X12938279Y-12689026D01*
X12949606Y-12705977D01*
X12964023Y-12720394D01*
X12980974Y-12731720D01*
X12999810Y-12739523D01*
X13019806Y-12743500D01*
X13040194Y-12743500D01*
X13060190Y-12739523D01*
X13079026Y-12731720D01*
X13095977Y-12720394D01*
X13110394Y-12705977D01*
X13121720Y-12689026D01*
X13129523Y-12670190D01*
X13133500Y-12650194D01*
X13133500Y-12629806D01*
X13129523Y-12609810D01*
X13121720Y-12590974D01*
X13110394Y-12574023D01*
X13095977Y-12559606D01*
X13079026Y-12548279D01*
X13060190Y-12540477D01*
X13040194Y-12536500D01*
X13019806Y-12536500D01*
X12999810Y-12540477D01*
X12980974Y-12548279D01*
X12964023Y-12559606D01*
X12949606Y-12574023D01*
X12938279Y-12590974D01*
X12930477Y-12609810D01*
X12926500Y-12629806D01*
X12513500Y-12629806D01*
X12513500Y-12549322D01*
X12514606Y-12550977D01*
X12529023Y-12565394D01*
X12545974Y-12576720D01*
X12564810Y-12584523D01*
X12584806Y-12588500D01*
X12605194Y-12588500D01*
X12625190Y-12584523D01*
X12644026Y-12576720D01*
X12660977Y-12565394D01*
X12675394Y-12550977D01*
X12686720Y-12534026D01*
X12694523Y-12515190D01*
X12696292Y-12506292D01*
X12705190Y-12504523D01*
X12724026Y-12496720D01*
X12740977Y-12485394D01*
X12755394Y-12470977D01*
X12766720Y-12454026D01*
X12774523Y-12435190D01*
X12776091Y-12427306D01*
X12991759Y-12427306D01*
X12991759Y-12447693D01*
X12995737Y-12467689D01*
X13003539Y-12486525D01*
X13014866Y-12503477D01*
X13029282Y-12517893D01*
X13046234Y-12529220D01*
X13065069Y-12537022D01*
X13085065Y-12541000D01*
X13097884Y-12541000D01*
X13103279Y-12554026D01*
X13114606Y-12570977D01*
X13129023Y-12585394D01*
X13145974Y-12596720D01*
X13164810Y-12604523D01*
X13184806Y-12608500D01*
X13205194Y-12608500D01*
X13225190Y-12604523D01*
X13244026Y-12596720D01*
X13260977Y-12585394D01*
X13275394Y-12570977D01*
X13286720Y-12554026D01*
X13294523Y-12535190D01*
X13298500Y-12515194D01*
X13298500Y-12494806D01*
X13294523Y-12474810D01*
X13286720Y-12455974D01*
X13286069Y-12455000D01*
X13286720Y-12454026D01*
X13294523Y-12435190D01*
X13298500Y-12415194D01*
X13298500Y-12394806D01*
X13294523Y-12374810D01*
X13286720Y-12355974D01*
X13275394Y-12339023D01*
X13260977Y-12324606D01*
X13244026Y-12313279D01*
X13225190Y-12305477D01*
X13205194Y-12301500D01*
X13184806Y-12301500D01*
X13164810Y-12305477D01*
X13145974Y-12313279D01*
X13129023Y-12324606D01*
X13117277Y-12336352D01*
X13105453Y-12334000D01*
X13085065Y-12334000D01*
X13065069Y-12337977D01*
X13046234Y-12345779D01*
X13029282Y-12357106D01*
X13014866Y-12371522D01*
X13003539Y-12388474D01*
X12995737Y-12407310D01*
X12991759Y-12427306D01*
X12776091Y-12427306D01*
X12778500Y-12415194D01*
X12778500Y-12394806D01*
X12774523Y-12374810D01*
X12766720Y-12355974D01*
X12755394Y-12339023D01*
X12740977Y-12324606D01*
X12724026Y-12313279D01*
X12705190Y-12305477D01*
X12696787Y-12303806D01*
X12698500Y-12295194D01*
X12698500Y-12274806D01*
X12694523Y-12254810D01*
X12686720Y-12235974D01*
X12675394Y-12219023D01*
X12660977Y-12204606D01*
X12644026Y-12193279D01*
X12625190Y-12185477D01*
X12605194Y-12181500D01*
X12584806Y-12181500D01*
X12564810Y-12185477D01*
X12545974Y-12193279D01*
X12529023Y-12204606D01*
X12514606Y-12219023D01*
X12513500Y-12220678D01*
X12513500Y-11614806D01*
X12571500Y-11614806D01*
X12571500Y-11635194D01*
X12575477Y-11655190D01*
X12583279Y-11674026D01*
X12594606Y-11690977D01*
X12609023Y-11705394D01*
X12625974Y-11716720D01*
X12644810Y-11724523D01*
X12664806Y-11728500D01*
X12685194Y-11728500D01*
X12705190Y-11724523D01*
X12724026Y-11716720D01*
X12740977Y-11705394D01*
X12755394Y-11690977D01*
X12766720Y-11674026D01*
X12774523Y-11655190D01*
X12778500Y-11635194D01*
X12778500Y-11614806D01*
X12821500Y-11614806D01*
X12821500Y-11635194D01*
X12825477Y-11655190D01*
X12833279Y-11674026D01*
X12844606Y-11690977D01*
X12859023Y-11705394D01*
X12875974Y-11716720D01*
X12894810Y-11724523D01*
X12914806Y-11728500D01*
X12935194Y-11728500D01*
X12955190Y-11724523D01*
X12974026Y-11716720D01*
X12990977Y-11705394D01*
X13005394Y-11690977D01*
X13016720Y-11674026D01*
X13024523Y-11655190D01*
X13025000Y-11652790D01*
X13025477Y-11655190D01*
X13033279Y-11674026D01*
X13044606Y-11690977D01*
X13059023Y-11705394D01*
X13075974Y-11716720D01*
X13094810Y-11724523D01*
X13114806Y-11728500D01*
X13135194Y-11728500D01*
X13155190Y-11724523D01*
X13174026Y-11716720D01*
X13190977Y-11705394D01*
X13205394Y-11690977D01*
X13216720Y-11674026D01*
X13224523Y-11655190D01*
X13228500Y-11635194D01*
X13228500Y-11614806D01*
X13224523Y-11594810D01*
X13216720Y-11575974D01*
X13205394Y-11559023D01*
X13190977Y-11544606D01*
X13174026Y-11533279D01*
X13155190Y-11525477D01*
X13135194Y-11521500D01*
X13114806Y-11521500D01*
X13094810Y-11525477D01*
X13075974Y-11533279D01*
X13059023Y-11544606D01*
X13044606Y-11559023D01*
X13033279Y-11575974D01*
X13025477Y-11594810D01*
X13025000Y-11597210D01*
X13024523Y-11594810D01*
X13016720Y-11575974D01*
X13005394Y-11559023D01*
X12990977Y-11544606D01*
X12974026Y-11533279D01*
X12955190Y-11525477D01*
X12935194Y-11521500D01*
X12914806Y-11521500D01*
X12894810Y-11525477D01*
X12875974Y-11533279D01*
X12859023Y-11544606D01*
X12844606Y-11559023D01*
X12833279Y-11575974D01*
X12825477Y-11594810D01*
X12821500Y-11614806D01*
X12778500Y-11614806D01*
X12774523Y-11594810D01*
X12766720Y-11575974D01*
X12755394Y-11559023D01*
X12740977Y-11544606D01*
X12724026Y-11533279D01*
X12705190Y-11525477D01*
X12685194Y-11521500D01*
X12664806Y-11521500D01*
X12644810Y-11525477D01*
X12625974Y-11533279D01*
X12609023Y-11544606D01*
X12594606Y-11559023D01*
X12583279Y-11575974D01*
X12575477Y-11594810D01*
X12571500Y-11614806D01*
X12513500Y-11614806D01*
X12513500Y-11479025D01*
X12542100Y-11490872D01*
X12580449Y-11498500D01*
X12619550Y-11498500D01*
X12657900Y-11490872D01*
X12694025Y-11475908D01*
X12726536Y-11454185D01*
X12754185Y-11426536D01*
X12775908Y-11394025D01*
X12790872Y-11357900D01*
X12798500Y-11319550D01*
X12798500Y-11280449D01*
X12790872Y-11242100D01*
X12775908Y-11205975D01*
X12754185Y-11173464D01*
X12726536Y-11145815D01*
X12694025Y-11124092D01*
X12657900Y-11109128D01*
X12619550Y-11101500D01*
X12580449Y-11101500D01*
X12542100Y-11109128D01*
X12513500Y-11120975D01*
X12513500Y-10750610D01*
X12515500Y-10750807D01*
X12684500Y-10750807D01*
X12701825Y-10749101D01*
X12718485Y-10744047D01*
X12733839Y-10735841D01*
X12747296Y-10724796D01*
X12758340Y-10711339D01*
X12766547Y-10695985D01*
X12771601Y-10679326D01*
X12773307Y-10662000D01*
X12773307Y-10622306D01*
X12994000Y-10622306D01*
X12994000Y-10642694D01*
X12997977Y-10662690D01*
X13005779Y-10681526D01*
X13017106Y-10698477D01*
X13031523Y-10712894D01*
X13048474Y-10724221D01*
X13067310Y-10732023D01*
X13087306Y-10736000D01*
X13107694Y-10736000D01*
X13127690Y-10732023D01*
X13146526Y-10724221D01*
X13163477Y-10712894D01*
X13177894Y-10698477D01*
X13189220Y-10681526D01*
X13197023Y-10662690D01*
X13201000Y-10642694D01*
X13201000Y-10622306D01*
X13197023Y-10602310D01*
X13189220Y-10583474D01*
X13177894Y-10566523D01*
X13163477Y-10552106D01*
X13146526Y-10540780D01*
X13127690Y-10532977D01*
X13107694Y-10529000D01*
X13087306Y-10529000D01*
X13067310Y-10532977D01*
X13048474Y-10540780D01*
X13031523Y-10552106D01*
X13017106Y-10566523D01*
X13005779Y-10583474D01*
X12997977Y-10602310D01*
X12994000Y-10622306D01*
X12773307Y-10622306D01*
X12773307Y-10538000D01*
X12771601Y-10520675D01*
X12766547Y-10504015D01*
X12758340Y-10488661D01*
X12747296Y-10475204D01*
X12733839Y-10464160D01*
X12722889Y-10458307D01*
X12729434Y-10452935D01*
X12748242Y-10430018D01*
X12762217Y-10403873D01*
X12770822Y-10375503D01*
X12773728Y-10346000D01*
X12770822Y-10316497D01*
X12762217Y-10288128D01*
X12748242Y-10261982D01*
X12729434Y-10239066D01*
X12706518Y-10220258D01*
X12680372Y-10206283D01*
X12652003Y-10197678D01*
X12629894Y-10195500D01*
X12570106Y-10195500D01*
X12547997Y-10197678D01*
X12519627Y-10206283D01*
X12513500Y-10209559D01*
X12513500Y-10066000D01*
X13334000Y-10066000D01*
X13334000Y-14434000D01*
G37*
%TD.AperFunction*%
%TD*%
D17*
%TO.N,+5V*%
X12437300Y-10289721D02*
X12429178Y-10316497D01*
X12426272Y-10346000D01*
X12429178Y-10375503D01*
X12437300Y-10402279D01*
X12437300Y-10496817D01*
X12433453Y-10504015D01*
X12428399Y-10520675D01*
X12426693Y-10538000D01*
X12426693Y-10662000D01*
X12428399Y-10679326D01*
X12433453Y-10695985D01*
X12437300Y-10703183D01*
X12437300Y-11186207D01*
X12424091Y-11205975D01*
X12409128Y-11242100D01*
X12401500Y-11280449D01*
X12401500Y-11319550D01*
X12409128Y-11357900D01*
X12424091Y-11394025D01*
X12437300Y-11413793D01*
X12437300Y-12192149D01*
X12424026Y-12183279D01*
X12405190Y-12175477D01*
X12385194Y-12171500D01*
X12364806Y-12171500D01*
X12344810Y-12175477D01*
X12325974Y-12183279D01*
X12309023Y-12194606D01*
X12294606Y-12209023D01*
X12283279Y-12225974D01*
X12275477Y-12244810D01*
X12271500Y-12264806D01*
X12271500Y-12285194D01*
X12275477Y-12305190D01*
X12283279Y-12324026D01*
X12294606Y-12340977D01*
X12309023Y-12355394D01*
X12325974Y-12366720D01*
X12344810Y-12374523D01*
X12364806Y-12378500D01*
X12385194Y-12378500D01*
X12405190Y-12374523D01*
X12424026Y-12366720D01*
X12437300Y-12357851D01*
X12437300Y-12949419D01*
X12435194Y-12949000D01*
X12414806Y-12949000D01*
X12394810Y-12952977D01*
X12375974Y-12960779D01*
X12359023Y-12972106D01*
X12344606Y-12986523D01*
X12333279Y-13003474D01*
X12325477Y-13022310D01*
X12321500Y-13042306D01*
X12321500Y-13062300D01*
X11553001Y-13062300D01*
X11549523Y-13044810D01*
X11541720Y-13025974D01*
X11530394Y-13009023D01*
X11515977Y-12994606D01*
X11499026Y-12983279D01*
X11480190Y-12975477D01*
X11460194Y-12971500D01*
X11439806Y-12971500D01*
X11419810Y-12975477D01*
X11400974Y-12983279D01*
X11384023Y-12994606D01*
X11369606Y-13009023D01*
X11358279Y-13025974D01*
X11350477Y-13044810D01*
X11346998Y-13062300D01*
X10531754Y-13062300D01*
X10527894Y-13056523D01*
X10513477Y-13042106D01*
X10496526Y-13030779D01*
X10477690Y-13022977D01*
X10457694Y-13019000D01*
X10437306Y-13019000D01*
X10417310Y-13022977D01*
X10398474Y-13030779D01*
X10381523Y-13042106D01*
X10367106Y-13056523D01*
X10363246Y-13062300D01*
X10066000Y-13062300D01*
X10066000Y-12939806D01*
X10146500Y-12939806D01*
X10146500Y-12960194D01*
X10150477Y-12980190D01*
X10158280Y-12999026D01*
X10169606Y-13015977D01*
X10184023Y-13030394D01*
X10200974Y-13041720D01*
X10219810Y-13049523D01*
X10239806Y-13053500D01*
X10260194Y-13053500D01*
X10280190Y-13049523D01*
X10299026Y-13041720D01*
X10315977Y-13030394D01*
X10330394Y-13015977D01*
X10341721Y-12999026D01*
X10349523Y-12980190D01*
X10353500Y-12960194D01*
X10353500Y-12939806D01*
X10349523Y-12919810D01*
X10341721Y-12900974D01*
X10332284Y-12886851D01*
X10512500Y-12886851D01*
X10512500Y-12913149D01*
X10517630Y-12938940D01*
X10527694Y-12963236D01*
X10542304Y-12985101D01*
X10560899Y-13003696D01*
X10582764Y-13018306D01*
X10607060Y-13028370D01*
X10632851Y-13033500D01*
X10659149Y-13033500D01*
X10684941Y-13028370D01*
X10709236Y-13018306D01*
X10731101Y-13003696D01*
X10749696Y-12985101D01*
X10764306Y-12963236D01*
X10773000Y-12942247D01*
X10781694Y-12963236D01*
X10796304Y-12985101D01*
X10814899Y-13003696D01*
X10836764Y-13018306D01*
X10861060Y-13028370D01*
X10886851Y-13033500D01*
X10913149Y-13033500D01*
X10938941Y-13028370D01*
X10963236Y-13018306D01*
X10985101Y-13003696D01*
X11003696Y-12985101D01*
X11018306Y-12963236D01*
X11028370Y-12938940D01*
X11033500Y-12913149D01*
X11033500Y-12886851D01*
X11028370Y-12861059D01*
X11026944Y-12857618D01*
X11470165Y-12857618D01*
X11470165Y-12875051D01*
X11473566Y-12892149D01*
X11480237Y-12908255D01*
X11489923Y-12922750D01*
X11502250Y-12935077D01*
X11516745Y-12944762D01*
X11532851Y-12951434D01*
X11549949Y-12954835D01*
X11567382Y-12954835D01*
X11584480Y-12951434D01*
X11600586Y-12944762D01*
X11615081Y-12935077D01*
X11627408Y-12922750D01*
X11637093Y-12908255D01*
X11643764Y-12892149D01*
X11647165Y-12875051D01*
X11647165Y-12857618D01*
X11643764Y-12840520D01*
X11637093Y-12824414D01*
X11627408Y-12809919D01*
X11615081Y-12797592D01*
X11600586Y-12787907D01*
X11584480Y-12781236D01*
X11567382Y-12777835D01*
X11549949Y-12777835D01*
X11532851Y-12781236D01*
X11516745Y-12787907D01*
X11502250Y-12797592D01*
X11489923Y-12809919D01*
X11480237Y-12824414D01*
X11473566Y-12840520D01*
X11470165Y-12857618D01*
X11026944Y-12857618D01*
X11018306Y-12836764D01*
X11003696Y-12814899D01*
X10985101Y-12796304D01*
X10963236Y-12781694D01*
X10938941Y-12771630D01*
X10913149Y-12766500D01*
X10886851Y-12766500D01*
X10861060Y-12771630D01*
X10836764Y-12781694D01*
X10814899Y-12796304D01*
X10796304Y-12814899D01*
X10781694Y-12836764D01*
X10773000Y-12857753D01*
X10764306Y-12836764D01*
X10749696Y-12814899D01*
X10731101Y-12796304D01*
X10709236Y-12781694D01*
X10684941Y-12771630D01*
X10659149Y-12766500D01*
X10632851Y-12766500D01*
X10607060Y-12771630D01*
X10582764Y-12781694D01*
X10560899Y-12796304D01*
X10542304Y-12814899D01*
X10527694Y-12836764D01*
X10517630Y-12861059D01*
X10512500Y-12886851D01*
X10332284Y-12886851D01*
X10330394Y-12884023D01*
X10315977Y-12869606D01*
X10299026Y-12858279D01*
X10280190Y-12850477D01*
X10260194Y-12846500D01*
X10239806Y-12846500D01*
X10219810Y-12850477D01*
X10200974Y-12858279D01*
X10184023Y-12869606D01*
X10169606Y-12884023D01*
X10158280Y-12900974D01*
X10150477Y-12919810D01*
X10146500Y-12939806D01*
X10066000Y-12939806D01*
X10066000Y-12489806D01*
X10071500Y-12489806D01*
X10071500Y-12510194D01*
X10075477Y-12530190D01*
X10083280Y-12549026D01*
X10094606Y-12565977D01*
X10109023Y-12580394D01*
X10125974Y-12591720D01*
X10144810Y-12599523D01*
X10164806Y-12603500D01*
X10185194Y-12603500D01*
X10205190Y-12599523D01*
X10224026Y-12591720D01*
X10240977Y-12580394D01*
X10255394Y-12565977D01*
X10266721Y-12549026D01*
X10274523Y-12530190D01*
X10278500Y-12510194D01*
X10278500Y-12489806D01*
X10274523Y-12469810D01*
X10266721Y-12450974D01*
X10255394Y-12434023D01*
X10240977Y-12419606D01*
X10224026Y-12408279D01*
X10205190Y-12400477D01*
X10185194Y-12396500D01*
X10164806Y-12396500D01*
X10144810Y-12400477D01*
X10125974Y-12408279D01*
X10109023Y-12419606D01*
X10094606Y-12434023D01*
X10083280Y-12450974D01*
X10075477Y-12469810D01*
X10071500Y-12489806D01*
X10066000Y-12489806D01*
X10066000Y-12153075D01*
X10243391Y-12153075D01*
X10243391Y-12170508D01*
X10246792Y-12187606D01*
X10253464Y-12203712D01*
X10263149Y-12218207D01*
X10275476Y-12230534D01*
X10289971Y-12240219D01*
X10306077Y-12246890D01*
X10323175Y-12250291D01*
X10340608Y-12250291D01*
X10357706Y-12246890D01*
X10373812Y-12240219D01*
X10388307Y-12230534D01*
X10398760Y-12220081D01*
X10398760Y-12220194D01*
X10402737Y-12240190D01*
X10410539Y-12259026D01*
X10421866Y-12275977D01*
X10436282Y-12290394D01*
X10453234Y-12301720D01*
X10472070Y-12309523D01*
X10492066Y-12313500D01*
X10512454Y-12313500D01*
X10532450Y-12309523D01*
X10536500Y-12307845D01*
X10536500Y-12318716D01*
X10539901Y-12335814D01*
X10546572Y-12351920D01*
X10556258Y-12366415D01*
X10568585Y-12378742D01*
X10583080Y-12388428D01*
X10599186Y-12395099D01*
X10616284Y-12398500D01*
X10633717Y-12398500D01*
X10650815Y-12395099D01*
X10664082Y-12389604D01*
X10678474Y-12399220D01*
X10697310Y-12407023D01*
X10717306Y-12411000D01*
X10737694Y-12411000D01*
X10741701Y-12410203D01*
X10739000Y-12423783D01*
X10739000Y-12441216D01*
X10742401Y-12458314D01*
X10749072Y-12474420D01*
X10758758Y-12488915D01*
X10771085Y-12501242D01*
X10785580Y-12510927D01*
X10801686Y-12517599D01*
X10818784Y-12521000D01*
X10836217Y-12521000D01*
X10853315Y-12517599D01*
X10869421Y-12510927D01*
X10883916Y-12501242D01*
X10893874Y-12491283D01*
X11626500Y-12491283D01*
X11626500Y-12508716D01*
X11629901Y-12525814D01*
X11636572Y-12541920D01*
X11644056Y-12553121D01*
X11639072Y-12560579D01*
X11632401Y-12576685D01*
X11629000Y-12593783D01*
X11629000Y-12611216D01*
X11632401Y-12628314D01*
X11639072Y-12644420D01*
X11642386Y-12649379D01*
X11636572Y-12658079D01*
X11629901Y-12674185D01*
X11626500Y-12691283D01*
X11626500Y-12708716D01*
X11629901Y-12725814D01*
X11636572Y-12741920D01*
X11646258Y-12756415D01*
X11650351Y-12760509D01*
X11652401Y-12770814D01*
X11653188Y-12772714D01*
X11647401Y-12786685D01*
X11644000Y-12803783D01*
X11644000Y-12821216D01*
X11647401Y-12838314D01*
X11654072Y-12854420D01*
X11663758Y-12868915D01*
X11676084Y-12881242D01*
X11688332Y-12889426D01*
X11686236Y-12891522D01*
X11674909Y-12908473D01*
X11667107Y-12927309D01*
X11663129Y-12947305D01*
X11663129Y-12967693D01*
X11667107Y-12987689D01*
X11674909Y-13006525D01*
X11686236Y-13023476D01*
X11700652Y-13037893D01*
X11717604Y-13049219D01*
X11736440Y-13057022D01*
X11756435Y-13060999D01*
X11776823Y-13060999D01*
X11796819Y-13057022D01*
X11815655Y-13049219D01*
X11832607Y-13037893D01*
X11847023Y-13023476D01*
X11858350Y-13006525D01*
X11866152Y-12987689D01*
X11870129Y-12967693D01*
X11870129Y-12947305D01*
X11866152Y-12927309D01*
X11858350Y-12908473D01*
X11850015Y-12896000D01*
X11861216Y-12896000D01*
X11878314Y-12892599D01*
X11894420Y-12885928D01*
X11908915Y-12876242D01*
X11921242Y-12863915D01*
X11930928Y-12849420D01*
X11936981Y-12834806D01*
X12229000Y-12834806D01*
X12229000Y-12855194D01*
X12232977Y-12875190D01*
X12240779Y-12894026D01*
X12252106Y-12910977D01*
X12266523Y-12925394D01*
X12283474Y-12936720D01*
X12302310Y-12944523D01*
X12322306Y-12948500D01*
X12342694Y-12948500D01*
X12362690Y-12944523D01*
X12381526Y-12936720D01*
X12398477Y-12925394D01*
X12412894Y-12910977D01*
X12424220Y-12894026D01*
X12432023Y-12875190D01*
X12436000Y-12855194D01*
X12436000Y-12834806D01*
X12432023Y-12814810D01*
X12424220Y-12795974D01*
X12412894Y-12779023D01*
X12398477Y-12764606D01*
X12381526Y-12753279D01*
X12362690Y-12745477D01*
X12342694Y-12741500D01*
X12322306Y-12741500D01*
X12302310Y-12745477D01*
X12283474Y-12753279D01*
X12266523Y-12764606D01*
X12252106Y-12779023D01*
X12240779Y-12795974D01*
X12232977Y-12814810D01*
X12229000Y-12834806D01*
X11936981Y-12834806D01*
X11937599Y-12833314D01*
X11941000Y-12816216D01*
X11941000Y-12798783D01*
X11937599Y-12781685D01*
X11930928Y-12765579D01*
X11927238Y-12760058D01*
X11928500Y-12753716D01*
X11928500Y-12736283D01*
X11925099Y-12719185D01*
X11918428Y-12703079D01*
X11916785Y-12700621D01*
X11920928Y-12694420D01*
X11927599Y-12678314D01*
X11931000Y-12661216D01*
X11931000Y-12643783D01*
X11927599Y-12626685D01*
X11920928Y-12610579D01*
X11914279Y-12600629D01*
X11918428Y-12594420D01*
X11920273Y-12589965D01*
X12040850Y-12589965D01*
X12040850Y-12610352D01*
X12044827Y-12630348D01*
X12052629Y-12649184D01*
X12056575Y-12655089D01*
X12050477Y-12669810D01*
X12046500Y-12689806D01*
X12046500Y-12710194D01*
X12050477Y-12730190D01*
X12058279Y-12749026D01*
X12069606Y-12765977D01*
X12084023Y-12780394D01*
X12100974Y-12791720D01*
X12119810Y-12799523D01*
X12139806Y-12803500D01*
X12160194Y-12803500D01*
X12180190Y-12799523D01*
X12199026Y-12791720D01*
X12215977Y-12780394D01*
X12230394Y-12765977D01*
X12241720Y-12749026D01*
X12249523Y-12730190D01*
X12253500Y-12710194D01*
X12253500Y-12689806D01*
X12249523Y-12669810D01*
X12241720Y-12650974D01*
X12237775Y-12645069D01*
X12243872Y-12630348D01*
X12247850Y-12610352D01*
X12247850Y-12589965D01*
X12243872Y-12569969D01*
X12236070Y-12551133D01*
X12229729Y-12541642D01*
X12230394Y-12540977D01*
X12241720Y-12524026D01*
X12249523Y-12505190D01*
X12253500Y-12485194D01*
X12253500Y-12464806D01*
X12249523Y-12444810D01*
X12241720Y-12425974D01*
X12230394Y-12409023D01*
X12215977Y-12394606D01*
X12199026Y-12383279D01*
X12180190Y-12375477D01*
X12160194Y-12371500D01*
X12139806Y-12371500D01*
X12119810Y-12375477D01*
X12100974Y-12383279D01*
X12084023Y-12394606D01*
X12069606Y-12409023D01*
X12058279Y-12425974D01*
X12050477Y-12444810D01*
X12046500Y-12464806D01*
X12046500Y-12485194D01*
X12050477Y-12505190D01*
X12058279Y-12524026D01*
X12064621Y-12533516D01*
X12063956Y-12534181D01*
X12052629Y-12551133D01*
X12044827Y-12569969D01*
X12040850Y-12589965D01*
X11920273Y-12589965D01*
X11925099Y-12578314D01*
X11928500Y-12561216D01*
X11928500Y-12543783D01*
X11925099Y-12526685D01*
X11918428Y-12510579D01*
X11908742Y-12496084D01*
X11906000Y-12493342D01*
X11906000Y-12491283D01*
X11902599Y-12474185D01*
X11895928Y-12458079D01*
X11886242Y-12443584D01*
X11873915Y-12431258D01*
X11859420Y-12421572D01*
X11843314Y-12414901D01*
X11826216Y-12411500D01*
X11808783Y-12411500D01*
X11791685Y-12414901D01*
X11791250Y-12415081D01*
X11790814Y-12414901D01*
X11773716Y-12411500D01*
X11756283Y-12411500D01*
X11740000Y-12414739D01*
X11723716Y-12411500D01*
X11706283Y-12411500D01*
X11689185Y-12414901D01*
X11673079Y-12421572D01*
X11658584Y-12431258D01*
X11646258Y-12443584D01*
X11636572Y-12458079D01*
X11629901Y-12474185D01*
X11626500Y-12491283D01*
X10893874Y-12491283D01*
X10896242Y-12488915D01*
X10899541Y-12483978D01*
X10919194Y-12487887D01*
X10939581Y-12487887D01*
X10959577Y-12483910D01*
X10978413Y-12476108D01*
X10995365Y-12464781D01*
X11009781Y-12450365D01*
X11012442Y-12446383D01*
X11024297Y-12451293D01*
X11041395Y-12454694D01*
X11058828Y-12454694D01*
X11075926Y-12451293D01*
X11092032Y-12444622D01*
X11106527Y-12434937D01*
X11118853Y-12422610D01*
X11128539Y-12408115D01*
X11135210Y-12392009D01*
X11138611Y-12374911D01*
X11138611Y-12357478D01*
X11135210Y-12340380D01*
X11128539Y-12324274D01*
X11118853Y-12309779D01*
X11113881Y-12304806D01*
X11799000Y-12304806D01*
X11799000Y-12325194D01*
X11802977Y-12345190D01*
X11810779Y-12364026D01*
X11822106Y-12380977D01*
X11836523Y-12395394D01*
X11853474Y-12406720D01*
X11872310Y-12414523D01*
X11892306Y-12418500D01*
X11912694Y-12418500D01*
X11932690Y-12414523D01*
X11951526Y-12406720D01*
X11968477Y-12395394D01*
X11982894Y-12380977D01*
X11994220Y-12364026D01*
X12002023Y-12345190D01*
X12006000Y-12325194D01*
X12006000Y-12304806D01*
X12002023Y-12284810D01*
X11994220Y-12265974D01*
X11982894Y-12249023D01*
X11968477Y-12234606D01*
X11951526Y-12223279D01*
X11932690Y-12215477D01*
X11912694Y-12211500D01*
X11892306Y-12211500D01*
X11872310Y-12215477D01*
X11853474Y-12223279D01*
X11836523Y-12234606D01*
X11822106Y-12249023D01*
X11810779Y-12265974D01*
X11802977Y-12284810D01*
X11799000Y-12304806D01*
X11113881Y-12304806D01*
X11106527Y-12297452D01*
X11092032Y-12287767D01*
X11075926Y-12281095D01*
X11058828Y-12277694D01*
X11041395Y-12277694D01*
X11024297Y-12281095D01*
X11008191Y-12287767D01*
X10993696Y-12297452D01*
X10990443Y-12300705D01*
X10978413Y-12292667D01*
X10959577Y-12284865D01*
X10939581Y-12280887D01*
X10919194Y-12280887D01*
X10899198Y-12284865D01*
X10880362Y-12292667D01*
X10863410Y-12303994D01*
X10848994Y-12318410D01*
X10837667Y-12335362D01*
X10834089Y-12344000D01*
X10824409Y-12344000D01*
X10827023Y-12337690D01*
X10831000Y-12317694D01*
X10831000Y-12297306D01*
X10828274Y-12283602D01*
X10833315Y-12282599D01*
X10849421Y-12275928D01*
X10863916Y-12266242D01*
X10876242Y-12253915D01*
X10885928Y-12239420D01*
X10892599Y-12223314D01*
X10896000Y-12206216D01*
X10896000Y-12188783D01*
X10892599Y-12171685D01*
X10885928Y-12155579D01*
X10885077Y-12154306D01*
X10911000Y-12154306D01*
X10911000Y-12174694D01*
X10914977Y-12194690D01*
X10922780Y-12213526D01*
X10934106Y-12230477D01*
X10948523Y-12244894D01*
X10965474Y-12256220D01*
X10984310Y-12264023D01*
X11004306Y-12268000D01*
X11024694Y-12268000D01*
X11044690Y-12264023D01*
X11063526Y-12256220D01*
X11080477Y-12244894D01*
X11094894Y-12230477D01*
X11106221Y-12213526D01*
X11114023Y-12194690D01*
X11118000Y-12174694D01*
X11118000Y-12154306D01*
X11117904Y-12153821D01*
X11189000Y-12153821D01*
X11189000Y-12176179D01*
X11193362Y-12198107D01*
X11201918Y-12218762D01*
X11214339Y-12237352D01*
X11230148Y-12253161D01*
X11248738Y-12265582D01*
X11269393Y-12274138D01*
X11291321Y-12278500D01*
X11313679Y-12278500D01*
X11335607Y-12274138D01*
X11356262Y-12265582D01*
X11374852Y-12253161D01*
X11390661Y-12237352D01*
X11403082Y-12218762D01*
X11411638Y-12198107D01*
X11416000Y-12176179D01*
X11416000Y-12153821D01*
X11411638Y-12131893D01*
X11403082Y-12111238D01*
X11390661Y-12092648D01*
X11374852Y-12076839D01*
X11356262Y-12064418D01*
X11335607Y-12055862D01*
X11313679Y-12051500D01*
X11291321Y-12051500D01*
X11269393Y-12055862D01*
X11248738Y-12064418D01*
X11230148Y-12076839D01*
X11214339Y-12092648D01*
X11201918Y-12111238D01*
X11193362Y-12131893D01*
X11189000Y-12153821D01*
X11117904Y-12153821D01*
X11114023Y-12134310D01*
X11106221Y-12115474D01*
X11094894Y-12098523D01*
X11080477Y-12084106D01*
X11063526Y-12072779D01*
X11044690Y-12064977D01*
X11024694Y-12061000D01*
X11004306Y-12061000D01*
X10984310Y-12064977D01*
X10965474Y-12072779D01*
X10948523Y-12084106D01*
X10934106Y-12098523D01*
X10922780Y-12115474D01*
X10914977Y-12134310D01*
X10911000Y-12154306D01*
X10885077Y-12154306D01*
X10876242Y-12141084D01*
X10863916Y-12128758D01*
X10849421Y-12119072D01*
X10833315Y-12112401D01*
X10816217Y-12109000D01*
X10798784Y-12109000D01*
X10781686Y-12112401D01*
X10773607Y-12115747D01*
X10776000Y-12103716D01*
X10776000Y-12086283D01*
X10772599Y-12069185D01*
X10767759Y-12057500D01*
X10772599Y-12045814D01*
X10776000Y-12028716D01*
X10776000Y-12011283D01*
X10772719Y-11994789D01*
X10781130Y-11994789D01*
X10798228Y-11991388D01*
X10814334Y-11984717D01*
X10828829Y-11975032D01*
X10841155Y-11962705D01*
X10850841Y-11948210D01*
X10857512Y-11932104D01*
X10860913Y-11915006D01*
X10860913Y-11897573D01*
X10860500Y-11895498D01*
X11101859Y-11895498D01*
X11101859Y-11916871D01*
X11106028Y-11937833D01*
X11114207Y-11957579D01*
X11126081Y-11975349D01*
X11141194Y-11990462D01*
X11158965Y-12002336D01*
X11178710Y-12010515D01*
X11199672Y-12014685D01*
X11221045Y-12014685D01*
X11242007Y-12010515D01*
X11261753Y-12002336D01*
X11279523Y-11990462D01*
X11294636Y-11975349D01*
X11306510Y-11957579D01*
X11312143Y-11943978D01*
X11322306Y-11946000D01*
X11342694Y-11946000D01*
X11362690Y-11942023D01*
X11381526Y-11934220D01*
X11398477Y-11922894D01*
X11412894Y-11908477D01*
X11424220Y-11891526D01*
X11432023Y-11872690D01*
X11436000Y-11852694D01*
X11436000Y-11832306D01*
X11432023Y-11812310D01*
X11424220Y-11793474D01*
X11412894Y-11776523D01*
X11398477Y-11762106D01*
X11381526Y-11750779D01*
X11362690Y-11742977D01*
X11342694Y-11739000D01*
X11322306Y-11739000D01*
X11302310Y-11742977D01*
X11283474Y-11750779D01*
X11266523Y-11762106D01*
X11252106Y-11776523D01*
X11240779Y-11793474D01*
X11237666Y-11800991D01*
X11221045Y-11797685D01*
X11199672Y-11797685D01*
X11178710Y-11801854D01*
X11158965Y-11810033D01*
X11141194Y-11821907D01*
X11126081Y-11837020D01*
X11114207Y-11854791D01*
X11106028Y-11874536D01*
X11101859Y-11895498D01*
X10860500Y-11895498D01*
X10857512Y-11880475D01*
X10850841Y-11864369D01*
X10841155Y-11849874D01*
X10828829Y-11837547D01*
X10814334Y-11827862D01*
X10798228Y-11821190D01*
X10781130Y-11817789D01*
X10763697Y-11817789D01*
X10746599Y-11821190D01*
X10730493Y-11827862D01*
X10715998Y-11837547D01*
X10703671Y-11849874D01*
X10693985Y-11864369D01*
X10687314Y-11880475D01*
X10683913Y-11897573D01*
X10683913Y-11915006D01*
X10687194Y-11931500D01*
X10678784Y-11931500D01*
X10661686Y-11934901D01*
X10650000Y-11939741D01*
X10638315Y-11934901D01*
X10621217Y-11931500D01*
X10603784Y-11931500D01*
X10586686Y-11934901D01*
X10570580Y-11941572D01*
X10556085Y-11951258D01*
X10543758Y-11963584D01*
X10534072Y-11978079D01*
X10527401Y-11994185D01*
X10524000Y-12011283D01*
X10524000Y-12028716D01*
X10527401Y-12045814D01*
X10530991Y-12054482D01*
X10524901Y-12069185D01*
X10521500Y-12086283D01*
X10521500Y-12103716D01*
X10522449Y-12108488D01*
X10512454Y-12106500D01*
X10492066Y-12106500D01*
X10472070Y-12110477D01*
X10453234Y-12118279D01*
X10436282Y-12129606D01*
X10421866Y-12144023D01*
X10419342Y-12147800D01*
X10416990Y-12135977D01*
X10410319Y-12119871D01*
X10400634Y-12105376D01*
X10388307Y-12093049D01*
X10373812Y-12083363D01*
X10357706Y-12076692D01*
X10340608Y-12073291D01*
X10323175Y-12073291D01*
X10306077Y-12076692D01*
X10289971Y-12083363D01*
X10275476Y-12093049D01*
X10263149Y-12105376D01*
X10253464Y-12119871D01*
X10246792Y-12135977D01*
X10243391Y-12153075D01*
X10066000Y-12153075D01*
X10066000Y-11892306D01*
X10231500Y-11892306D01*
X10231500Y-11912694D01*
X10235477Y-11932690D01*
X10243279Y-11951526D01*
X10254606Y-11968477D01*
X10269022Y-11982894D01*
X10285974Y-11994220D01*
X10304810Y-12002023D01*
X10321801Y-12005402D01*
X10326572Y-12016920D01*
X10336258Y-12031415D01*
X10348585Y-12043742D01*
X10363080Y-12053428D01*
X10379186Y-12060099D01*
X10396284Y-12063500D01*
X10413717Y-12063500D01*
X10430815Y-12060099D01*
X10446921Y-12053428D01*
X10461416Y-12043742D01*
X10473742Y-12031415D01*
X10483428Y-12016920D01*
X10490099Y-12000814D01*
X10493500Y-11983716D01*
X10493500Y-11966283D01*
X10490099Y-11949185D01*
X10483428Y-11933079D01*
X10473742Y-11918584D01*
X10461416Y-11906258D01*
X10446921Y-11896572D01*
X10438500Y-11893084D01*
X10438500Y-11892306D01*
X10434522Y-11872310D01*
X10426720Y-11853474D01*
X10415394Y-11836523D01*
X10400977Y-11822106D01*
X10384025Y-11810779D01*
X10365190Y-11802977D01*
X10345194Y-11799000D01*
X10324806Y-11799000D01*
X10304810Y-11802977D01*
X10285974Y-11810779D01*
X10269022Y-11822106D01*
X10254606Y-11836523D01*
X10243279Y-11853474D01*
X10235477Y-11872310D01*
X10231500Y-11892306D01*
X10066000Y-11892306D01*
X10066000Y-11793783D01*
X10451500Y-11793783D01*
X10451500Y-11811216D01*
X10454901Y-11828314D01*
X10461573Y-11844420D01*
X10471258Y-11858915D01*
X10483585Y-11871242D01*
X10498080Y-11880928D01*
X10514186Y-11887599D01*
X10531284Y-11891000D01*
X10548717Y-11891000D01*
X10565815Y-11887599D01*
X10581921Y-11880928D01*
X10596416Y-11871242D01*
X10608743Y-11858915D01*
X10618428Y-11844420D01*
X10625099Y-11828314D01*
X10628500Y-11811216D01*
X10628500Y-11793783D01*
X10625099Y-11776685D01*
X10618428Y-11760579D01*
X10608743Y-11746084D01*
X10596416Y-11733758D01*
X10593507Y-11731814D01*
X10929000Y-11731814D01*
X10929000Y-11753186D01*
X10933170Y-11774148D01*
X10941349Y-11793894D01*
X10953223Y-11811665D01*
X10968335Y-11826777D01*
X10986106Y-11838651D01*
X11005852Y-11846830D01*
X11026814Y-11851000D01*
X11048186Y-11851000D01*
X11069148Y-11846830D01*
X11088894Y-11838651D01*
X11106665Y-11826777D01*
X11121778Y-11811665D01*
X11133652Y-11793894D01*
X11141830Y-11774148D01*
X11146000Y-11753186D01*
X11146000Y-11731814D01*
X11141830Y-11710852D01*
X11133652Y-11691106D01*
X11121778Y-11673335D01*
X11106665Y-11658222D01*
X11088894Y-11646348D01*
X11069148Y-11638170D01*
X11048186Y-11634000D01*
X11026814Y-11634000D01*
X11005852Y-11638170D01*
X10986106Y-11646348D01*
X10968335Y-11658222D01*
X10953223Y-11673335D01*
X10941349Y-11691106D01*
X10933170Y-11710852D01*
X10929000Y-11731814D01*
X10593507Y-11731814D01*
X10581921Y-11724072D01*
X10565815Y-11717401D01*
X10548717Y-11714000D01*
X10531284Y-11714000D01*
X10514186Y-11717401D01*
X10498080Y-11724072D01*
X10483585Y-11733758D01*
X10471258Y-11746084D01*
X10461573Y-11760579D01*
X10454901Y-11776685D01*
X10451500Y-11793783D01*
X10066000Y-11793783D01*
X10066000Y-11548000D01*
X11702693Y-11548000D01*
X11702693Y-11717000D01*
X11704399Y-11734325D01*
X11709453Y-11750985D01*
X11717659Y-11766339D01*
X11728704Y-11779796D01*
X11742161Y-11790840D01*
X11757515Y-11799047D01*
X11774174Y-11804101D01*
X11791500Y-11805807D01*
X11915500Y-11805807D01*
X11932825Y-11804101D01*
X11949485Y-11799047D01*
X11964839Y-11790840D01*
X11978296Y-11779796D01*
X11989340Y-11766339D01*
X11995193Y-11755389D01*
X12000565Y-11761934D01*
X12023482Y-11780742D01*
X12049628Y-11794717D01*
X12077997Y-11803322D01*
X12107500Y-11806228D01*
X12137003Y-11803322D01*
X12165372Y-11794717D01*
X12191518Y-11780742D01*
X12214434Y-11761934D01*
X12233242Y-11739018D01*
X12247217Y-11712872D01*
X12255822Y-11684503D01*
X12258000Y-11662393D01*
X12258000Y-11602606D01*
X12255822Y-11580497D01*
X12247217Y-11552127D01*
X12233242Y-11525982D01*
X12214434Y-11503065D01*
X12191518Y-11484258D01*
X12165372Y-11470283D01*
X12137003Y-11461678D01*
X12107500Y-11458772D01*
X12077997Y-11461678D01*
X12049627Y-11470283D01*
X12023482Y-11484258D01*
X12000565Y-11503065D01*
X11995193Y-11509611D01*
X11989340Y-11498661D01*
X11978296Y-11485204D01*
X11964839Y-11474159D01*
X11949485Y-11465953D01*
X11932825Y-11460899D01*
X11915500Y-11459193D01*
X11791500Y-11459193D01*
X11774174Y-11460899D01*
X11757515Y-11465953D01*
X11742161Y-11474159D01*
X11728704Y-11485204D01*
X11717659Y-11498661D01*
X11709453Y-11514015D01*
X11704399Y-11530674D01*
X11702693Y-11548000D01*
X10066000Y-11548000D01*
X10066000Y-11289806D01*
X10596500Y-11289806D01*
X10596500Y-11310194D01*
X10600477Y-11330190D01*
X10608280Y-11349026D01*
X10619606Y-11365977D01*
X10634023Y-11380394D01*
X10650974Y-11391720D01*
X10669810Y-11399523D01*
X10689806Y-11403500D01*
X10710194Y-11403500D01*
X10730190Y-11399523D01*
X10749026Y-11391720D01*
X10765977Y-11380394D01*
X10780394Y-11365977D01*
X10791721Y-11349026D01*
X10799523Y-11330190D01*
X10803500Y-11310194D01*
X10803500Y-11289806D01*
X10846500Y-11289806D01*
X10846500Y-11310194D01*
X10850477Y-11330190D01*
X10858280Y-11349026D01*
X10869606Y-11365977D01*
X10884023Y-11380394D01*
X10900974Y-11391720D01*
X10919810Y-11399523D01*
X10939806Y-11403500D01*
X10960194Y-11403500D01*
X10980190Y-11399523D01*
X10999026Y-11391720D01*
X11015977Y-11380394D01*
X11030394Y-11365977D01*
X11041721Y-11349026D01*
X11049523Y-11330190D01*
X11053500Y-11310194D01*
X11053500Y-11289806D01*
X11096500Y-11289806D01*
X11096500Y-11310194D01*
X11100477Y-11330190D01*
X11108280Y-11349026D01*
X11119606Y-11365977D01*
X11134023Y-11380394D01*
X11150974Y-11391720D01*
X11169810Y-11399523D01*
X11189806Y-11403500D01*
X11210194Y-11403500D01*
X11230190Y-11399523D01*
X11249026Y-11391720D01*
X11265977Y-11380394D01*
X11280394Y-11365977D01*
X11291720Y-11349026D01*
X11299523Y-11330190D01*
X11303500Y-11310194D01*
X11303500Y-11289806D01*
X11299523Y-11269810D01*
X11291720Y-11250974D01*
X11280394Y-11234023D01*
X11265977Y-11219606D01*
X11249026Y-11208279D01*
X11230190Y-11200477D01*
X11210194Y-11196500D01*
X11189806Y-11196500D01*
X11169810Y-11200477D01*
X11150974Y-11208279D01*
X11134023Y-11219606D01*
X11119606Y-11234023D01*
X11108280Y-11250974D01*
X11100477Y-11269810D01*
X11096500Y-11289806D01*
X11053500Y-11289806D01*
X11049523Y-11269810D01*
X11041721Y-11250974D01*
X11030394Y-11234023D01*
X11015977Y-11219606D01*
X10999026Y-11208279D01*
X10980190Y-11200477D01*
X10960194Y-11196500D01*
X10939806Y-11196500D01*
X10919810Y-11200477D01*
X10900974Y-11208279D01*
X10884023Y-11219606D01*
X10869606Y-11234023D01*
X10858280Y-11250974D01*
X10850477Y-11269810D01*
X10846500Y-11289806D01*
X10803500Y-11289806D01*
X10799523Y-11269810D01*
X10791721Y-11250974D01*
X10780394Y-11234023D01*
X10765977Y-11219606D01*
X10749026Y-11208279D01*
X10730190Y-11200477D01*
X10710194Y-11196500D01*
X10689806Y-11196500D01*
X10669810Y-11200477D01*
X10650974Y-11208279D01*
X10634023Y-11219606D01*
X10619606Y-11234023D01*
X10608280Y-11250974D01*
X10600477Y-11269810D01*
X10596500Y-11289806D01*
X10066000Y-11289806D01*
X10066000Y-10542306D01*
X12021500Y-10542306D01*
X12021500Y-10562694D01*
X12025477Y-10582690D01*
X12033279Y-10601526D01*
X12044606Y-10618477D01*
X12059023Y-10632894D01*
X12075974Y-10644221D01*
X12094810Y-10652023D01*
X12114806Y-10656000D01*
X12135194Y-10656000D01*
X12155190Y-10652023D01*
X12174026Y-10644221D01*
X12190977Y-10632894D01*
X12205394Y-10618477D01*
X12216720Y-10601526D01*
X12224523Y-10582690D01*
X12228500Y-10562694D01*
X12228500Y-10542306D01*
X12224523Y-10522310D01*
X12216720Y-10503474D01*
X12205394Y-10486523D01*
X12190977Y-10472106D01*
X12174026Y-10460780D01*
X12155190Y-10452977D01*
X12135194Y-10449000D01*
X12114806Y-10449000D01*
X12094810Y-10452977D01*
X12075974Y-10460780D01*
X12059023Y-10472106D01*
X12044606Y-10486523D01*
X12033279Y-10503474D01*
X12025477Y-10522310D01*
X12021500Y-10542306D01*
X10066000Y-10542306D01*
X10066000Y-10066000D01*
X12437300Y-10066000D01*
X12437300Y-10289721D01*
%TA.AperFunction,Conductor*%
D18*
G36*
X12437300Y-10289721D02*
G01*
X12429178Y-10316497D01*
X12426272Y-10346000D01*
X12429178Y-10375503D01*
X12437300Y-10402279D01*
X12437300Y-10496817D01*
X12433453Y-10504015D01*
X12428399Y-10520675D01*
X12426693Y-10538000D01*
X12426693Y-10662000D01*
X12428399Y-10679326D01*
X12433453Y-10695985D01*
X12437300Y-10703183D01*
X12437300Y-11186207D01*
X12424091Y-11205975D01*
X12409128Y-11242100D01*
X12401500Y-11280449D01*
X12401500Y-11319550D01*
X12409128Y-11357900D01*
X12424091Y-11394025D01*
X12437300Y-11413793D01*
X12437300Y-12192149D01*
X12424026Y-12183279D01*
X12405190Y-12175477D01*
X12385194Y-12171500D01*
X12364806Y-12171500D01*
X12344810Y-12175477D01*
X12325974Y-12183279D01*
X12309023Y-12194606D01*
X12294606Y-12209023D01*
X12283279Y-12225974D01*
X12275477Y-12244810D01*
X12271500Y-12264806D01*
X12271500Y-12285194D01*
X12275477Y-12305190D01*
X12283279Y-12324026D01*
X12294606Y-12340977D01*
X12309023Y-12355394D01*
X12325974Y-12366720D01*
X12344810Y-12374523D01*
X12364806Y-12378500D01*
X12385194Y-12378500D01*
X12405190Y-12374523D01*
X12424026Y-12366720D01*
X12437300Y-12357851D01*
X12437300Y-12949419D01*
X12435194Y-12949000D01*
X12414806Y-12949000D01*
X12394810Y-12952977D01*
X12375974Y-12960779D01*
X12359023Y-12972106D01*
X12344606Y-12986523D01*
X12333279Y-13003474D01*
X12325477Y-13022310D01*
X12321500Y-13042306D01*
X12321500Y-13062300D01*
X11553001Y-13062300D01*
X11549523Y-13044810D01*
X11541720Y-13025974D01*
X11530394Y-13009023D01*
X11515977Y-12994606D01*
X11499026Y-12983279D01*
X11480190Y-12975477D01*
X11460194Y-12971500D01*
X11439806Y-12971500D01*
X11419810Y-12975477D01*
X11400974Y-12983279D01*
X11384023Y-12994606D01*
X11369606Y-13009023D01*
X11358279Y-13025974D01*
X11350477Y-13044810D01*
X11346998Y-13062300D01*
X10531754Y-13062300D01*
X10527894Y-13056523D01*
X10513477Y-13042106D01*
X10496526Y-13030779D01*
X10477690Y-13022977D01*
X10457694Y-13019000D01*
X10437306Y-13019000D01*
X10417310Y-13022977D01*
X10398474Y-13030779D01*
X10381523Y-13042106D01*
X10367106Y-13056523D01*
X10363246Y-13062300D01*
X10066000Y-13062300D01*
X10066000Y-12939806D01*
X10146500Y-12939806D01*
X10146500Y-12960194D01*
X10150477Y-12980190D01*
X10158280Y-12999026D01*
X10169606Y-13015977D01*
X10184023Y-13030394D01*
X10200974Y-13041720D01*
X10219810Y-13049523D01*
X10239806Y-13053500D01*
X10260194Y-13053500D01*
X10280190Y-13049523D01*
X10299026Y-13041720D01*
X10315977Y-13030394D01*
X10330394Y-13015977D01*
X10341721Y-12999026D01*
X10349523Y-12980190D01*
X10353500Y-12960194D01*
X10353500Y-12939806D01*
X10349523Y-12919810D01*
X10341721Y-12900974D01*
X10332284Y-12886851D01*
X10512500Y-12886851D01*
X10512500Y-12913149D01*
X10517630Y-12938940D01*
X10527694Y-12963236D01*
X10542304Y-12985101D01*
X10560899Y-13003696D01*
X10582764Y-13018306D01*
X10607060Y-13028370D01*
X10632851Y-13033500D01*
X10659149Y-13033500D01*
X10684941Y-13028370D01*
X10709236Y-13018306D01*
X10731101Y-13003696D01*
X10749696Y-12985101D01*
X10764306Y-12963236D01*
X10773000Y-12942247D01*
X10781694Y-12963236D01*
X10796304Y-12985101D01*
X10814899Y-13003696D01*
X10836764Y-13018306D01*
X10861060Y-13028370D01*
X10886851Y-13033500D01*
X10913149Y-13033500D01*
X10938941Y-13028370D01*
X10963236Y-13018306D01*
X10985101Y-13003696D01*
X11003696Y-12985101D01*
X11018306Y-12963236D01*
X11028370Y-12938940D01*
X11033500Y-12913149D01*
X11033500Y-12886851D01*
X11028370Y-12861059D01*
X11026944Y-12857618D01*
X11470165Y-12857618D01*
X11470165Y-12875051D01*
X11473566Y-12892149D01*
X11480237Y-12908255D01*
X11489923Y-12922750D01*
X11502250Y-12935077D01*
X11516745Y-12944762D01*
X11532851Y-12951434D01*
X11549949Y-12954835D01*
X11567382Y-12954835D01*
X11584480Y-12951434D01*
X11600586Y-12944762D01*
X11615081Y-12935077D01*
X11627408Y-12922750D01*
X11637093Y-12908255D01*
X11643764Y-12892149D01*
X11647165Y-12875051D01*
X11647165Y-12857618D01*
X11643764Y-12840520D01*
X11637093Y-12824414D01*
X11627408Y-12809919D01*
X11615081Y-12797592D01*
X11600586Y-12787907D01*
X11584480Y-12781236D01*
X11567382Y-12777835D01*
X11549949Y-12777835D01*
X11532851Y-12781236D01*
X11516745Y-12787907D01*
X11502250Y-12797592D01*
X11489923Y-12809919D01*
X11480237Y-12824414D01*
X11473566Y-12840520D01*
X11470165Y-12857618D01*
X11026944Y-12857618D01*
X11018306Y-12836764D01*
X11003696Y-12814899D01*
X10985101Y-12796304D01*
X10963236Y-12781694D01*
X10938941Y-12771630D01*
X10913149Y-12766500D01*
X10886851Y-12766500D01*
X10861060Y-12771630D01*
X10836764Y-12781694D01*
X10814899Y-12796304D01*
X10796304Y-12814899D01*
X10781694Y-12836764D01*
X10773000Y-12857753D01*
X10764306Y-12836764D01*
X10749696Y-12814899D01*
X10731101Y-12796304D01*
X10709236Y-12781694D01*
X10684941Y-12771630D01*
X10659149Y-12766500D01*
X10632851Y-12766500D01*
X10607060Y-12771630D01*
X10582764Y-12781694D01*
X10560899Y-12796304D01*
X10542304Y-12814899D01*
X10527694Y-12836764D01*
X10517630Y-12861059D01*
X10512500Y-12886851D01*
X10332284Y-12886851D01*
X10330394Y-12884023D01*
X10315977Y-12869606D01*
X10299026Y-12858279D01*
X10280190Y-12850477D01*
X10260194Y-12846500D01*
X10239806Y-12846500D01*
X10219810Y-12850477D01*
X10200974Y-12858279D01*
X10184023Y-12869606D01*
X10169606Y-12884023D01*
X10158280Y-12900974D01*
X10150477Y-12919810D01*
X10146500Y-12939806D01*
X10066000Y-12939806D01*
X10066000Y-12489806D01*
X10071500Y-12489806D01*
X10071500Y-12510194D01*
X10075477Y-12530190D01*
X10083280Y-12549026D01*
X10094606Y-12565977D01*
X10109023Y-12580394D01*
X10125974Y-12591720D01*
X10144810Y-12599523D01*
X10164806Y-12603500D01*
X10185194Y-12603500D01*
X10205190Y-12599523D01*
X10224026Y-12591720D01*
X10240977Y-12580394D01*
X10255394Y-12565977D01*
X10266721Y-12549026D01*
X10274523Y-12530190D01*
X10278500Y-12510194D01*
X10278500Y-12489806D01*
X10274523Y-12469810D01*
X10266721Y-12450974D01*
X10255394Y-12434023D01*
X10240977Y-12419606D01*
X10224026Y-12408279D01*
X10205190Y-12400477D01*
X10185194Y-12396500D01*
X10164806Y-12396500D01*
X10144810Y-12400477D01*
X10125974Y-12408279D01*
X10109023Y-12419606D01*
X10094606Y-12434023D01*
X10083280Y-12450974D01*
X10075477Y-12469810D01*
X10071500Y-12489806D01*
X10066000Y-12489806D01*
X10066000Y-12153075D01*
X10243391Y-12153075D01*
X10243391Y-12170508D01*
X10246792Y-12187606D01*
X10253464Y-12203712D01*
X10263149Y-12218207D01*
X10275476Y-12230534D01*
X10289971Y-12240219D01*
X10306077Y-12246890D01*
X10323175Y-12250291D01*
X10340608Y-12250291D01*
X10357706Y-12246890D01*
X10373812Y-12240219D01*
X10388307Y-12230534D01*
X10398760Y-12220081D01*
X10398760Y-12220194D01*
X10402737Y-12240190D01*
X10410539Y-12259026D01*
X10421866Y-12275977D01*
X10436282Y-12290394D01*
X10453234Y-12301720D01*
X10472070Y-12309523D01*
X10492066Y-12313500D01*
X10512454Y-12313500D01*
X10532450Y-12309523D01*
X10536500Y-12307845D01*
X10536500Y-12318716D01*
X10539901Y-12335814D01*
X10546572Y-12351920D01*
X10556258Y-12366415D01*
X10568585Y-12378742D01*
X10583080Y-12388428D01*
X10599186Y-12395099D01*
X10616284Y-12398500D01*
X10633717Y-12398500D01*
X10650815Y-12395099D01*
X10664082Y-12389604D01*
X10678474Y-12399220D01*
X10697310Y-12407023D01*
X10717306Y-12411000D01*
X10737694Y-12411000D01*
X10741701Y-12410203D01*
X10739000Y-12423783D01*
X10739000Y-12441216D01*
X10742401Y-12458314D01*
X10749072Y-12474420D01*
X10758758Y-12488915D01*
X10771085Y-12501242D01*
X10785580Y-12510927D01*
X10801686Y-12517599D01*
X10818784Y-12521000D01*
X10836217Y-12521000D01*
X10853315Y-12517599D01*
X10869421Y-12510927D01*
X10883916Y-12501242D01*
X10893874Y-12491283D01*
X11626500Y-12491283D01*
X11626500Y-12508716D01*
X11629901Y-12525814D01*
X11636572Y-12541920D01*
X11644056Y-12553121D01*
X11639072Y-12560579D01*
X11632401Y-12576685D01*
X11629000Y-12593783D01*
X11629000Y-12611216D01*
X11632401Y-12628314D01*
X11639072Y-12644420D01*
X11642386Y-12649379D01*
X11636572Y-12658079D01*
X11629901Y-12674185D01*
X11626500Y-12691283D01*
X11626500Y-12708716D01*
X11629901Y-12725814D01*
X11636572Y-12741920D01*
X11646258Y-12756415D01*
X11650351Y-12760509D01*
X11652401Y-12770814D01*
X11653188Y-12772714D01*
X11647401Y-12786685D01*
X11644000Y-12803783D01*
X11644000Y-12821216D01*
X11647401Y-12838314D01*
X11654072Y-12854420D01*
X11663758Y-12868915D01*
X11676084Y-12881242D01*
X11688332Y-12889426D01*
X11686236Y-12891522D01*
X11674909Y-12908473D01*
X11667107Y-12927309D01*
X11663129Y-12947305D01*
X11663129Y-12967693D01*
X11667107Y-12987689D01*
X11674909Y-13006525D01*
X11686236Y-13023476D01*
X11700652Y-13037893D01*
X11717604Y-13049219D01*
X11736440Y-13057022D01*
X11756435Y-13060999D01*
X11776823Y-13060999D01*
X11796819Y-13057022D01*
X11815655Y-13049219D01*
X11832607Y-13037893D01*
X11847023Y-13023476D01*
X11858350Y-13006525D01*
X11866152Y-12987689D01*
X11870129Y-12967693D01*
X11870129Y-12947305D01*
X11866152Y-12927309D01*
X11858350Y-12908473D01*
X11850015Y-12896000D01*
X11861216Y-12896000D01*
X11878314Y-12892599D01*
X11894420Y-12885928D01*
X11908915Y-12876242D01*
X11921242Y-12863915D01*
X11930928Y-12849420D01*
X11936981Y-12834806D01*
X12229000Y-12834806D01*
X12229000Y-12855194D01*
X12232977Y-12875190D01*
X12240779Y-12894026D01*
X12252106Y-12910977D01*
X12266523Y-12925394D01*
X12283474Y-12936720D01*
X12302310Y-12944523D01*
X12322306Y-12948500D01*
X12342694Y-12948500D01*
X12362690Y-12944523D01*
X12381526Y-12936720D01*
X12398477Y-12925394D01*
X12412894Y-12910977D01*
X12424220Y-12894026D01*
X12432023Y-12875190D01*
X12436000Y-12855194D01*
X12436000Y-12834806D01*
X12432023Y-12814810D01*
X12424220Y-12795974D01*
X12412894Y-12779023D01*
X12398477Y-12764606D01*
X12381526Y-12753279D01*
X12362690Y-12745477D01*
X12342694Y-12741500D01*
X12322306Y-12741500D01*
X12302310Y-12745477D01*
X12283474Y-12753279D01*
X12266523Y-12764606D01*
X12252106Y-12779023D01*
X12240779Y-12795974D01*
X12232977Y-12814810D01*
X12229000Y-12834806D01*
X11936981Y-12834806D01*
X11937599Y-12833314D01*
X11941000Y-12816216D01*
X11941000Y-12798783D01*
X11937599Y-12781685D01*
X11930928Y-12765579D01*
X11927238Y-12760058D01*
X11928500Y-12753716D01*
X11928500Y-12736283D01*
X11925099Y-12719185D01*
X11918428Y-12703079D01*
X11916785Y-12700621D01*
X11920928Y-12694420D01*
X11927599Y-12678314D01*
X11931000Y-12661216D01*
X11931000Y-12643783D01*
X11927599Y-12626685D01*
X11920928Y-12610579D01*
X11914279Y-12600629D01*
X11918428Y-12594420D01*
X11920273Y-12589965D01*
X12040850Y-12589965D01*
X12040850Y-12610352D01*
X12044827Y-12630348D01*
X12052629Y-12649184D01*
X12056575Y-12655089D01*
X12050477Y-12669810D01*
X12046500Y-12689806D01*
X12046500Y-12710194D01*
X12050477Y-12730190D01*
X12058279Y-12749026D01*
X12069606Y-12765977D01*
X12084023Y-12780394D01*
X12100974Y-12791720D01*
X12119810Y-12799523D01*
X12139806Y-12803500D01*
X12160194Y-12803500D01*
X12180190Y-12799523D01*
X12199026Y-12791720D01*
X12215977Y-12780394D01*
X12230394Y-12765977D01*
X12241720Y-12749026D01*
X12249523Y-12730190D01*
X12253500Y-12710194D01*
X12253500Y-12689806D01*
X12249523Y-12669810D01*
X12241720Y-12650974D01*
X12237775Y-12645069D01*
X12243872Y-12630348D01*
X12247850Y-12610352D01*
X12247850Y-12589965D01*
X12243872Y-12569969D01*
X12236070Y-12551133D01*
X12229729Y-12541642D01*
X12230394Y-12540977D01*
X12241720Y-12524026D01*
X12249523Y-12505190D01*
X12253500Y-12485194D01*
X12253500Y-12464806D01*
X12249523Y-12444810D01*
X12241720Y-12425974D01*
X12230394Y-12409023D01*
X12215977Y-12394606D01*
X12199026Y-12383279D01*
X12180190Y-12375477D01*
X12160194Y-12371500D01*
X12139806Y-12371500D01*
X12119810Y-12375477D01*
X12100974Y-12383279D01*
X12084023Y-12394606D01*
X12069606Y-12409023D01*
X12058279Y-12425974D01*
X12050477Y-12444810D01*
X12046500Y-12464806D01*
X12046500Y-12485194D01*
X12050477Y-12505190D01*
X12058279Y-12524026D01*
X12064621Y-12533516D01*
X12063956Y-12534181D01*
X12052629Y-12551133D01*
X12044827Y-12569969D01*
X12040850Y-12589965D01*
X11920273Y-12589965D01*
X11925099Y-12578314D01*
X11928500Y-12561216D01*
X11928500Y-12543783D01*
X11925099Y-12526685D01*
X11918428Y-12510579D01*
X11908742Y-12496084D01*
X11906000Y-12493342D01*
X11906000Y-12491283D01*
X11902599Y-12474185D01*
X11895928Y-12458079D01*
X11886242Y-12443584D01*
X11873915Y-12431258D01*
X11859420Y-12421572D01*
X11843314Y-12414901D01*
X11826216Y-12411500D01*
X11808783Y-12411500D01*
X11791685Y-12414901D01*
X11791250Y-12415081D01*
X11790814Y-12414901D01*
X11773716Y-12411500D01*
X11756283Y-12411500D01*
X11740000Y-12414739D01*
X11723716Y-12411500D01*
X11706283Y-12411500D01*
X11689185Y-12414901D01*
X11673079Y-12421572D01*
X11658584Y-12431258D01*
X11646258Y-12443584D01*
X11636572Y-12458079D01*
X11629901Y-12474185D01*
X11626500Y-12491283D01*
X10893874Y-12491283D01*
X10896242Y-12488915D01*
X10899541Y-12483978D01*
X10919194Y-12487887D01*
X10939581Y-12487887D01*
X10959577Y-12483910D01*
X10978413Y-12476108D01*
X10995365Y-12464781D01*
X11009781Y-12450365D01*
X11012442Y-12446383D01*
X11024297Y-12451293D01*
X11041395Y-12454694D01*
X11058828Y-12454694D01*
X11075926Y-12451293D01*
X11092032Y-12444622D01*
X11106527Y-12434937D01*
X11118853Y-12422610D01*
X11128539Y-12408115D01*
X11135210Y-12392009D01*
X11138611Y-12374911D01*
X11138611Y-12357478D01*
X11135210Y-12340380D01*
X11128539Y-12324274D01*
X11118853Y-12309779D01*
X11113881Y-12304806D01*
X11799000Y-12304806D01*
X11799000Y-12325194D01*
X11802977Y-12345190D01*
X11810779Y-12364026D01*
X11822106Y-12380977D01*
X11836523Y-12395394D01*
X11853474Y-12406720D01*
X11872310Y-12414523D01*
X11892306Y-12418500D01*
X11912694Y-12418500D01*
X11932690Y-12414523D01*
X11951526Y-12406720D01*
X11968477Y-12395394D01*
X11982894Y-12380977D01*
X11994220Y-12364026D01*
X12002023Y-12345190D01*
X12006000Y-12325194D01*
X12006000Y-12304806D01*
X12002023Y-12284810D01*
X11994220Y-12265974D01*
X11982894Y-12249023D01*
X11968477Y-12234606D01*
X11951526Y-12223279D01*
X11932690Y-12215477D01*
X11912694Y-12211500D01*
X11892306Y-12211500D01*
X11872310Y-12215477D01*
X11853474Y-12223279D01*
X11836523Y-12234606D01*
X11822106Y-12249023D01*
X11810779Y-12265974D01*
X11802977Y-12284810D01*
X11799000Y-12304806D01*
X11113881Y-12304806D01*
X11106527Y-12297452D01*
X11092032Y-12287767D01*
X11075926Y-12281095D01*
X11058828Y-12277694D01*
X11041395Y-12277694D01*
X11024297Y-12281095D01*
X11008191Y-12287767D01*
X10993696Y-12297452D01*
X10990443Y-12300705D01*
X10978413Y-12292667D01*
X10959577Y-12284865D01*
X10939581Y-12280887D01*
X10919194Y-12280887D01*
X10899198Y-12284865D01*
X10880362Y-12292667D01*
X10863410Y-12303994D01*
X10848994Y-12318410D01*
X10837667Y-12335362D01*
X10834089Y-12344000D01*
X10824409Y-12344000D01*
X10827023Y-12337690D01*
X10831000Y-12317694D01*
X10831000Y-12297306D01*
X10828274Y-12283602D01*
X10833315Y-12282599D01*
X10849421Y-12275928D01*
X10863916Y-12266242D01*
X10876242Y-12253915D01*
X10885928Y-12239420D01*
X10892599Y-12223314D01*
X10896000Y-12206216D01*
X10896000Y-12188783D01*
X10892599Y-12171685D01*
X10885928Y-12155579D01*
X10885077Y-12154306D01*
X10911000Y-12154306D01*
X10911000Y-12174694D01*
X10914977Y-12194690D01*
X10922780Y-12213526D01*
X10934106Y-12230477D01*
X10948523Y-12244894D01*
X10965474Y-12256220D01*
X10984310Y-12264023D01*
X11004306Y-12268000D01*
X11024694Y-12268000D01*
X11044690Y-12264023D01*
X11063526Y-12256220D01*
X11080477Y-12244894D01*
X11094894Y-12230477D01*
X11106221Y-12213526D01*
X11114023Y-12194690D01*
X11118000Y-12174694D01*
X11118000Y-12154306D01*
X11117904Y-12153821D01*
X11189000Y-12153821D01*
X11189000Y-12176179D01*
X11193362Y-12198107D01*
X11201918Y-12218762D01*
X11214339Y-12237352D01*
X11230148Y-12253161D01*
X11248738Y-12265582D01*
X11269393Y-12274138D01*
X11291321Y-12278500D01*
X11313679Y-12278500D01*
X11335607Y-12274138D01*
X11356262Y-12265582D01*
X11374852Y-12253161D01*
X11390661Y-12237352D01*
X11403082Y-12218762D01*
X11411638Y-12198107D01*
X11416000Y-12176179D01*
X11416000Y-12153821D01*
X11411638Y-12131893D01*
X11403082Y-12111238D01*
X11390661Y-12092648D01*
X11374852Y-12076839D01*
X11356262Y-12064418D01*
X11335607Y-12055862D01*
X11313679Y-12051500D01*
X11291321Y-12051500D01*
X11269393Y-12055862D01*
X11248738Y-12064418D01*
X11230148Y-12076839D01*
X11214339Y-12092648D01*
X11201918Y-12111238D01*
X11193362Y-12131893D01*
X11189000Y-12153821D01*
X11117904Y-12153821D01*
X11114023Y-12134310D01*
X11106221Y-12115474D01*
X11094894Y-12098523D01*
X11080477Y-12084106D01*
X11063526Y-12072779D01*
X11044690Y-12064977D01*
X11024694Y-12061000D01*
X11004306Y-12061000D01*
X10984310Y-12064977D01*
X10965474Y-12072779D01*
X10948523Y-12084106D01*
X10934106Y-12098523D01*
X10922780Y-12115474D01*
X10914977Y-12134310D01*
X10911000Y-12154306D01*
X10885077Y-12154306D01*
X10876242Y-12141084D01*
X10863916Y-12128758D01*
X10849421Y-12119072D01*
X10833315Y-12112401D01*
X10816217Y-12109000D01*
X10798784Y-12109000D01*
X10781686Y-12112401D01*
X10773607Y-12115747D01*
X10776000Y-12103716D01*
X10776000Y-12086283D01*
X10772599Y-12069185D01*
X10767759Y-12057500D01*
X10772599Y-12045814D01*
X10776000Y-12028716D01*
X10776000Y-12011283D01*
X10772719Y-11994789D01*
X10781130Y-11994789D01*
X10798228Y-11991388D01*
X10814334Y-11984717D01*
X10828829Y-11975032D01*
X10841155Y-11962705D01*
X10850841Y-11948210D01*
X10857512Y-11932104D01*
X10860913Y-11915006D01*
X10860913Y-11897573D01*
X10860500Y-11895498D01*
X11101859Y-11895498D01*
X11101859Y-11916871D01*
X11106028Y-11937833D01*
X11114207Y-11957579D01*
X11126081Y-11975349D01*
X11141194Y-11990462D01*
X11158965Y-12002336D01*
X11178710Y-12010515D01*
X11199672Y-12014685D01*
X11221045Y-12014685D01*
X11242007Y-12010515D01*
X11261753Y-12002336D01*
X11279523Y-11990462D01*
X11294636Y-11975349D01*
X11306510Y-11957579D01*
X11312143Y-11943978D01*
X11322306Y-11946000D01*
X11342694Y-11946000D01*
X11362690Y-11942023D01*
X11381526Y-11934220D01*
X11398477Y-11922894D01*
X11412894Y-11908477D01*
X11424220Y-11891526D01*
X11432023Y-11872690D01*
X11436000Y-11852694D01*
X11436000Y-11832306D01*
X11432023Y-11812310D01*
X11424220Y-11793474D01*
X11412894Y-11776523D01*
X11398477Y-11762106D01*
X11381526Y-11750779D01*
X11362690Y-11742977D01*
X11342694Y-11739000D01*
X11322306Y-11739000D01*
X11302310Y-11742977D01*
X11283474Y-11750779D01*
X11266523Y-11762106D01*
X11252106Y-11776523D01*
X11240779Y-11793474D01*
X11237666Y-11800991D01*
X11221045Y-11797685D01*
X11199672Y-11797685D01*
X11178710Y-11801854D01*
X11158965Y-11810033D01*
X11141194Y-11821907D01*
X11126081Y-11837020D01*
X11114207Y-11854791D01*
X11106028Y-11874536D01*
X11101859Y-11895498D01*
X10860500Y-11895498D01*
X10857512Y-11880475D01*
X10850841Y-11864369D01*
X10841155Y-11849874D01*
X10828829Y-11837547D01*
X10814334Y-11827862D01*
X10798228Y-11821190D01*
X10781130Y-11817789D01*
X10763697Y-11817789D01*
X10746599Y-11821190D01*
X10730493Y-11827862D01*
X10715998Y-11837547D01*
X10703671Y-11849874D01*
X10693985Y-11864369D01*
X10687314Y-11880475D01*
X10683913Y-11897573D01*
X10683913Y-11915006D01*
X10687194Y-11931500D01*
X10678784Y-11931500D01*
X10661686Y-11934901D01*
X10650000Y-11939741D01*
X10638315Y-11934901D01*
X10621217Y-11931500D01*
X10603784Y-11931500D01*
X10586686Y-11934901D01*
X10570580Y-11941572D01*
X10556085Y-11951258D01*
X10543758Y-11963584D01*
X10534072Y-11978079D01*
X10527401Y-11994185D01*
X10524000Y-12011283D01*
X10524000Y-12028716D01*
X10527401Y-12045814D01*
X10530991Y-12054482D01*
X10524901Y-12069185D01*
X10521500Y-12086283D01*
X10521500Y-12103716D01*
X10522449Y-12108488D01*
X10512454Y-12106500D01*
X10492066Y-12106500D01*
X10472070Y-12110477D01*
X10453234Y-12118279D01*
X10436282Y-12129606D01*
X10421866Y-12144023D01*
X10419342Y-12147800D01*
X10416990Y-12135977D01*
X10410319Y-12119871D01*
X10400634Y-12105376D01*
X10388307Y-12093049D01*
X10373812Y-12083363D01*
X10357706Y-12076692D01*
X10340608Y-12073291D01*
X10323175Y-12073291D01*
X10306077Y-12076692D01*
X10289971Y-12083363D01*
X10275476Y-12093049D01*
X10263149Y-12105376D01*
X10253464Y-12119871D01*
X10246792Y-12135977D01*
X10243391Y-12153075D01*
X10066000Y-12153075D01*
X10066000Y-11892306D01*
X10231500Y-11892306D01*
X10231500Y-11912694D01*
X10235477Y-11932690D01*
X10243279Y-11951526D01*
X10254606Y-11968477D01*
X10269022Y-11982894D01*
X10285974Y-11994220D01*
X10304810Y-12002023D01*
X10321801Y-12005402D01*
X10326572Y-12016920D01*
X10336258Y-12031415D01*
X10348585Y-12043742D01*
X10363080Y-12053428D01*
X10379186Y-12060099D01*
X10396284Y-12063500D01*
X10413717Y-12063500D01*
X10430815Y-12060099D01*
X10446921Y-12053428D01*
X10461416Y-12043742D01*
X10473742Y-12031415D01*
X10483428Y-12016920D01*
X10490099Y-12000814D01*
X10493500Y-11983716D01*
X10493500Y-11966283D01*
X10490099Y-11949185D01*
X10483428Y-11933079D01*
X10473742Y-11918584D01*
X10461416Y-11906258D01*
X10446921Y-11896572D01*
X10438500Y-11893084D01*
X10438500Y-11892306D01*
X10434522Y-11872310D01*
X10426720Y-11853474D01*
X10415394Y-11836523D01*
X10400977Y-11822106D01*
X10384025Y-11810779D01*
X10365190Y-11802977D01*
X10345194Y-11799000D01*
X10324806Y-11799000D01*
X10304810Y-11802977D01*
X10285974Y-11810779D01*
X10269022Y-11822106D01*
X10254606Y-11836523D01*
X10243279Y-11853474D01*
X10235477Y-11872310D01*
X10231500Y-11892306D01*
X10066000Y-11892306D01*
X10066000Y-11793783D01*
X10451500Y-11793783D01*
X10451500Y-11811216D01*
X10454901Y-11828314D01*
X10461573Y-11844420D01*
X10471258Y-11858915D01*
X10483585Y-11871242D01*
X10498080Y-11880928D01*
X10514186Y-11887599D01*
X10531284Y-11891000D01*
X10548717Y-11891000D01*
X10565815Y-11887599D01*
X10581921Y-11880928D01*
X10596416Y-11871242D01*
X10608743Y-11858915D01*
X10618428Y-11844420D01*
X10625099Y-11828314D01*
X10628500Y-11811216D01*
X10628500Y-11793783D01*
X10625099Y-11776685D01*
X10618428Y-11760579D01*
X10608743Y-11746084D01*
X10596416Y-11733758D01*
X10593507Y-11731814D01*
X10929000Y-11731814D01*
X10929000Y-11753186D01*
X10933170Y-11774148D01*
X10941349Y-11793894D01*
X10953223Y-11811665D01*
X10968335Y-11826777D01*
X10986106Y-11838651D01*
X11005852Y-11846830D01*
X11026814Y-11851000D01*
X11048186Y-11851000D01*
X11069148Y-11846830D01*
X11088894Y-11838651D01*
X11106665Y-11826777D01*
X11121778Y-11811665D01*
X11133652Y-11793894D01*
X11141830Y-11774148D01*
X11146000Y-11753186D01*
X11146000Y-11731814D01*
X11141830Y-11710852D01*
X11133652Y-11691106D01*
X11121778Y-11673335D01*
X11106665Y-11658222D01*
X11088894Y-11646348D01*
X11069148Y-11638170D01*
X11048186Y-11634000D01*
X11026814Y-11634000D01*
X11005852Y-11638170D01*
X10986106Y-11646348D01*
X10968335Y-11658222D01*
X10953223Y-11673335D01*
X10941349Y-11691106D01*
X10933170Y-11710852D01*
X10929000Y-11731814D01*
X10593507Y-11731814D01*
X10581921Y-11724072D01*
X10565815Y-11717401D01*
X10548717Y-11714000D01*
X10531284Y-11714000D01*
X10514186Y-11717401D01*
X10498080Y-11724072D01*
X10483585Y-11733758D01*
X10471258Y-11746084D01*
X10461573Y-11760579D01*
X10454901Y-11776685D01*
X10451500Y-11793783D01*
X10066000Y-11793783D01*
X10066000Y-11548000D01*
X11702693Y-11548000D01*
X11702693Y-11717000D01*
X11704399Y-11734325D01*
X11709453Y-11750985D01*
X11717659Y-11766339D01*
X11728704Y-11779796D01*
X11742161Y-11790840D01*
X11757515Y-11799047D01*
X11774174Y-11804101D01*
X11791500Y-11805807D01*
X11915500Y-11805807D01*
X11932825Y-11804101D01*
X11949485Y-11799047D01*
X11964839Y-11790840D01*
X11978296Y-11779796D01*
X11989340Y-11766339D01*
X11995193Y-11755389D01*
X12000565Y-11761934D01*
X12023482Y-11780742D01*
X12049628Y-11794717D01*
X12077997Y-11803322D01*
X12107500Y-11806228D01*
X12137003Y-11803322D01*
X12165372Y-11794717D01*
X12191518Y-11780742D01*
X12214434Y-11761934D01*
X12233242Y-11739018D01*
X12247217Y-11712872D01*
X12255822Y-11684503D01*
X12258000Y-11662393D01*
X12258000Y-11602606D01*
X12255822Y-11580497D01*
X12247217Y-11552127D01*
X12233242Y-11525982D01*
X12214434Y-11503065D01*
X12191518Y-11484258D01*
X12165372Y-11470283D01*
X12137003Y-11461678D01*
X12107500Y-11458772D01*
X12077997Y-11461678D01*
X12049627Y-11470283D01*
X12023482Y-11484258D01*
X12000565Y-11503065D01*
X11995193Y-11509611D01*
X11989340Y-11498661D01*
X11978296Y-11485204D01*
X11964839Y-11474159D01*
X11949485Y-11465953D01*
X11932825Y-11460899D01*
X11915500Y-11459193D01*
X11791500Y-11459193D01*
X11774174Y-11460899D01*
X11757515Y-11465953D01*
X11742161Y-11474159D01*
X11728704Y-11485204D01*
X11717659Y-11498661D01*
X11709453Y-11514015D01*
X11704399Y-11530674D01*
X11702693Y-11548000D01*
X10066000Y-11548000D01*
X10066000Y-11289806D01*
X10596500Y-11289806D01*
X10596500Y-11310194D01*
X10600477Y-11330190D01*
X10608280Y-11349026D01*
X10619606Y-11365977D01*
X10634023Y-11380394D01*
X10650974Y-11391720D01*
X10669810Y-11399523D01*
X10689806Y-11403500D01*
X10710194Y-11403500D01*
X10730190Y-11399523D01*
X10749026Y-11391720D01*
X10765977Y-11380394D01*
X10780394Y-11365977D01*
X10791721Y-11349026D01*
X10799523Y-11330190D01*
X10803500Y-11310194D01*
X10803500Y-11289806D01*
X10846500Y-11289806D01*
X10846500Y-11310194D01*
X10850477Y-11330190D01*
X10858280Y-11349026D01*
X10869606Y-11365977D01*
X10884023Y-11380394D01*
X10900974Y-11391720D01*
X10919810Y-11399523D01*
X10939806Y-11403500D01*
X10960194Y-11403500D01*
X10980190Y-11399523D01*
X10999026Y-11391720D01*
X11015977Y-11380394D01*
X11030394Y-11365977D01*
X11041721Y-11349026D01*
X11049523Y-11330190D01*
X11053500Y-11310194D01*
X11053500Y-11289806D01*
X11096500Y-11289806D01*
X11096500Y-11310194D01*
X11100477Y-11330190D01*
X11108280Y-11349026D01*
X11119606Y-11365977D01*
X11134023Y-11380394D01*
X11150974Y-11391720D01*
X11169810Y-11399523D01*
X11189806Y-11403500D01*
X11210194Y-11403500D01*
X11230190Y-11399523D01*
X11249026Y-11391720D01*
X11265977Y-11380394D01*
X11280394Y-11365977D01*
X11291720Y-11349026D01*
X11299523Y-11330190D01*
X11303500Y-11310194D01*
X11303500Y-11289806D01*
X11299523Y-11269810D01*
X11291720Y-11250974D01*
X11280394Y-11234023D01*
X11265977Y-11219606D01*
X11249026Y-11208279D01*
X11230190Y-11200477D01*
X11210194Y-11196500D01*
X11189806Y-11196500D01*
X11169810Y-11200477D01*
X11150974Y-11208279D01*
X11134023Y-11219606D01*
X11119606Y-11234023D01*
X11108280Y-11250974D01*
X11100477Y-11269810D01*
X11096500Y-11289806D01*
X11053500Y-11289806D01*
X11049523Y-11269810D01*
X11041721Y-11250974D01*
X11030394Y-11234023D01*
X11015977Y-11219606D01*
X10999026Y-11208279D01*
X10980190Y-11200477D01*
X10960194Y-11196500D01*
X10939806Y-11196500D01*
X10919810Y-11200477D01*
X10900974Y-11208279D01*
X10884023Y-11219606D01*
X10869606Y-11234023D01*
X10858280Y-11250974D01*
X10850477Y-11269810D01*
X10846500Y-11289806D01*
X10803500Y-11289806D01*
X10799523Y-11269810D01*
X10791721Y-11250974D01*
X10780394Y-11234023D01*
X10765977Y-11219606D01*
X10749026Y-11208279D01*
X10730190Y-11200477D01*
X10710194Y-11196500D01*
X10689806Y-11196500D01*
X10669810Y-11200477D01*
X10650974Y-11208279D01*
X10634023Y-11219606D01*
X10619606Y-11234023D01*
X10608280Y-11250974D01*
X10600477Y-11269810D01*
X10596500Y-11289806D01*
X10066000Y-11289806D01*
X10066000Y-10542306D01*
X12021500Y-10542306D01*
X12021500Y-10562694D01*
X12025477Y-10582690D01*
X12033279Y-10601526D01*
X12044606Y-10618477D01*
X12059023Y-10632894D01*
X12075974Y-10644221D01*
X12094810Y-10652023D01*
X12114806Y-10656000D01*
X12135194Y-10656000D01*
X12155190Y-10652023D01*
X12174026Y-10644221D01*
X12190977Y-10632894D01*
X12205394Y-10618477D01*
X12216720Y-10601526D01*
X12224523Y-10582690D01*
X12228500Y-10562694D01*
X12228500Y-10542306D01*
X12224523Y-10522310D01*
X12216720Y-10503474D01*
X12205394Y-10486523D01*
X12190977Y-10472106D01*
X12174026Y-10460780D01*
X12155190Y-10452977D01*
X12135194Y-10449000D01*
X12114806Y-10449000D01*
X12094810Y-10452977D01*
X12075974Y-10460780D01*
X12059023Y-10472106D01*
X12044606Y-10486523D01*
X12033279Y-10503474D01*
X12025477Y-10522310D01*
X12021500Y-10542306D01*
X10066000Y-10542306D01*
X10066000Y-10066000D01*
X12437300Y-10066000D01*
X12437300Y-10289721D01*
G37*
%TD.AperFunction*%
%TD*%
M02*
