%TF.GenerationSoftware,KiCad,Pcbnew,5.1.12-1.fc35*%
%TF.CreationDate,2022-01-08T17:43:18+00:00*%
%TF.ProjectId,cryosub_power_converter_top_v03,6372796f-7375-4625-9f70-6f7765725f63,rev?*%
%TF.SameCoordinates,Original*%
%TF.FileFunction,Copper,L2,Inr*%
%TF.FilePolarity,Positive*%
%FSLAX45Y45*%
G04 Gerber Fmt 4.5, Leading zero omitted, Abs format (unit mm)*
G04 Created by KiCad (PCBNEW 5.1.12-1.fc35) date 2022-01-08 17:43:18*
%MOMM*%
%LPD*%
G01*
G04 APERTURE LIST*
%TA.AperFunction,ComponentPad*%
%ADD10C,1.700000*%
%TD*%
%TA.AperFunction,ComponentPad*%
%ADD11C,4.700000*%
%TD*%
%TA.AperFunction,ComponentPad*%
%ADD12C,1.400000*%
%TD*%
%TA.AperFunction,ComponentPad*%
%ADD13C,1.000000*%
%TD*%
%TA.AperFunction,ViaPad*%
%ADD14C,0.500000*%
%TD*%
%TA.AperFunction,ViaPad*%
%ADD15C,0.800000*%
%TD*%
%TA.AperFunction,ViaPad*%
%ADD16C,0.900000*%
%TD*%
%TA.AperFunction,Conductor*%
%ADD17C,0.254000*%
%TD*%
%TA.AperFunction,Conductor*%
%ADD18C,0.100000*%
%TD*%
G04 APERTURE END LIST*
D10*
%TO.N,GND*%
%TO.C,J1*%
X13162000Y-10346000D03*
X12908000Y-10346000D03*
X12654000Y-10346000D03*
X12400000Y-10346000D03*
%TO.N,VDC*%
X13162000Y-10600000D03*
%TO.N,/p5v_out*%
X12908000Y-10600000D03*
%TO.N,/sipm_bias*%
X12654000Y-10600000D03*
%TO.N,/vcont*%
%TA.AperFunction,ComponentPad*%
G36*
G01*
X12460000Y-10685000D02*
X12340000Y-10685000D01*
G75*
G02*
X12315000Y-10660000I0J25000D01*
G01*
X12315000Y-10540000D01*
G75*
G02*
X12340000Y-10515000I25000J0D01*
G01*
X12460000Y-10515000D01*
G75*
G02*
X12485000Y-10540000I0J-25000D01*
G01*
X12485000Y-10660000D01*
G75*
G02*
X12460000Y-10685000I-25000J0D01*
G01*
G37*
%TD.AperFunction*%
%TD*%
D11*
%TO.N,GND*%
%TO.C,H3*%
X13000000Y-14100000D03*
%TD*%
%TO.N,GND*%
%TO.C,H2*%
X12600000Y-11300000D03*
%TD*%
%TO.N,GND*%
%TO.C,H1*%
X10400000Y-14100000D03*
%TD*%
D12*
%TO.N,GND*%
%TO.C,TP2*%
X10900000Y-12900000D03*
%TO.N,/vcont*%
X10646000Y-12900000D03*
%TD*%
D13*
%TO.N,/sipm_dcdc/imon*%
%TO.C,TP1*%
X11302500Y-12165000D03*
%TD*%
D14*
%TO.N,GND*%
X11790000Y-12745000D03*
X11737500Y-12745000D03*
X11840000Y-12745000D03*
X11715000Y-12700000D03*
X11842500Y-12652500D03*
X11717500Y-12602500D03*
X11840000Y-12552500D03*
X11817500Y-12500000D03*
X11765000Y-12500000D03*
X10650000Y-12057500D03*
X10687500Y-12095000D03*
X10610000Y-12095000D03*
X10612500Y-12020000D03*
D15*
X12595000Y-12285000D03*
X12675000Y-12405000D03*
X12595000Y-12485000D03*
X13195000Y-12405000D03*
X13195000Y-12505000D03*
X10700000Y-11300000D03*
X10950000Y-11300000D03*
X11200000Y-11300000D03*
X12350000Y-13275000D03*
X12100000Y-13875000D03*
X13030000Y-12640000D03*
X13070000Y-12950000D03*
D16*
X10200000Y-13800000D03*
D15*
X11600000Y-13645000D03*
X12925000Y-11625000D03*
X12675000Y-11625000D03*
X13095259Y-12437500D03*
X13125000Y-11625000D03*
X10502260Y-12210000D03*
D14*
X10687500Y-12020000D03*
D15*
X10175000Y-12500000D03*
D14*
X10405000Y-11975000D03*
X10540000Y-11802500D03*
D15*
X10727500Y-12307500D03*
X11014500Y-12164500D03*
D14*
X10827500Y-12432500D03*
X11715000Y-12500000D03*
X11732500Y-12812500D03*
X11852500Y-12807500D03*
D15*
X11766629Y-12957499D03*
X11902500Y-12315000D03*
X10250000Y-12950000D03*
X12375000Y-12275000D03*
D14*
X11737500Y-12552500D03*
X11790000Y-12552500D03*
X11820000Y-12602500D03*
X11770000Y-12602500D03*
X11740000Y-12652500D03*
X11792500Y-12652500D03*
X11817500Y-12700000D03*
X11767500Y-12700000D03*
D15*
X11332500Y-11842500D03*
D16*
X11037500Y-11742500D03*
D15*
X10929388Y-12384387D03*
X12425000Y-13052500D03*
X13085000Y-13230000D03*
%TO.N,/On When Warm/VD1*%
X12400000Y-13475000D03*
%TO.N,/On When Warm/vs*%
X11800000Y-13725000D03*
X11800000Y-14175000D03*
%TO.N,/On When Warm/vg1*%
X12100000Y-13425000D03*
%TO.N,/thermistor*%
X12250000Y-13975000D03*
X12125000Y-10552500D03*
X13337499Y-10550000D03*
%TO.N,/On When Warm/vd2*%
X12305132Y-13870617D03*
%TO.N,VDC*%
X12595000Y-12825000D03*
X12595000Y-13005000D03*
X11278000Y-14278000D03*
X12550000Y-13475000D03*
X12550000Y-14225000D03*
X11625000Y-14100000D03*
X11674818Y-13368949D03*
X12611825Y-12674614D03*
X12660000Y-14147500D03*
%TO.N,/dc_dc/vcc*%
X11995000Y-13035000D03*
%TO.N,Net-(C11-Pad1)*%
X10335000Y-11902500D03*
D14*
X10625000Y-12310000D03*
X10331891Y-12161791D03*
D16*
%TO.N,Net-(C12-Pad1)*%
X11210359Y-11906185D03*
D15*
%TO.N,Net-(R11-Pad2)*%
X12150000Y-12700000D03*
D14*
%TO.N,Net-(R13-Pad1)*%
X10807500Y-12197500D03*
%TO.N,Net-(C13-Pad1)*%
X10772413Y-11906289D03*
D15*
%TO.N,Net-(C16-Pad2)*%
X12150000Y-12475000D03*
X12144350Y-12600158D03*
D14*
%TO.N,+5V*%
X10330000Y-12245000D03*
D15*
X10946000Y-10304000D03*
X10700000Y-10300000D03*
X10077500Y-12047500D03*
X10075000Y-12250000D03*
X12387500Y-12487500D03*
D14*
X11447266Y-12438091D03*
D15*
X12122500Y-13005000D03*
%TO.N,Net-(C17-Pad1)*%
X11450000Y-13075000D03*
D14*
X11558665Y-12866335D03*
D15*
X10447500Y-13122500D03*
X12332500Y-12845000D03*
D14*
%TO.N,Net-(R15-Pad2)*%
X11050111Y-12366194D03*
D15*
%TO.N,/dc_dc/vcc*%
X12025000Y-12367500D03*
%TD*%
D17*
%TO.N,GND*%
X13334000Y-10446500D02*
X13327305Y-10446500D01*
X13307309Y-10450477D01*
X13288473Y-10458280D01*
X13271522Y-10469606D01*
X13257105Y-10484023D01*
X13256676Y-10484665D01*
X13256663Y-10484653D01*
X13239327Y-10473069D01*
X13246879Y-10448840D01*
X13162000Y-10363961D01*
X13077121Y-10448840D01*
X13084673Y-10473069D01*
X13067337Y-10484653D01*
X13046652Y-10505337D01*
X13035000Y-10522776D01*
X13023347Y-10505337D01*
X13002663Y-10484653D01*
X12985327Y-10473069D01*
X12992879Y-10448840D01*
X12908000Y-10363961D01*
X12823121Y-10448840D01*
X12830673Y-10473069D01*
X12813337Y-10484653D01*
X12792652Y-10505337D01*
X12781000Y-10522776D01*
X12769347Y-10505337D01*
X12748663Y-10484653D01*
X12731327Y-10473069D01*
X12738879Y-10448840D01*
X12654000Y-10363961D01*
X12569121Y-10448840D01*
X12576673Y-10473069D01*
X12559337Y-10484653D01*
X12540628Y-10503361D01*
X12533840Y-10490661D01*
X12522796Y-10477204D01*
X12509339Y-10466160D01*
X12493985Y-10457953D01*
X12483071Y-10454642D01*
X12484879Y-10448840D01*
X12400000Y-10363961D01*
X12315121Y-10448840D01*
X12316929Y-10454642D01*
X12306015Y-10457953D01*
X12290661Y-10466160D01*
X12277204Y-10477204D01*
X12266159Y-10490661D01*
X12257953Y-10506015D01*
X12252899Y-10522675D01*
X12251193Y-10540000D01*
X12251193Y-10660000D01*
X12252899Y-10677325D01*
X12257953Y-10693985D01*
X12266159Y-10709339D01*
X12277204Y-10722796D01*
X12290661Y-10733841D01*
X12306015Y-10742047D01*
X12322675Y-10747101D01*
X12340000Y-10748807D01*
X12460000Y-10748807D01*
X12477325Y-10747101D01*
X12493985Y-10742047D01*
X12509339Y-10733841D01*
X12522796Y-10722796D01*
X12533840Y-10709339D01*
X12540628Y-10696639D01*
X12559337Y-10715348D01*
X12583659Y-10731599D01*
X12610684Y-10742793D01*
X12639374Y-10748500D01*
X12668626Y-10748500D01*
X12697316Y-10742793D01*
X12724341Y-10731599D01*
X12748663Y-10715348D01*
X12769347Y-10694663D01*
X12781000Y-10677224D01*
X12792652Y-10694663D01*
X12813337Y-10715348D01*
X12837659Y-10731599D01*
X12864684Y-10742793D01*
X12893374Y-10748500D01*
X12922626Y-10748500D01*
X12951316Y-10742793D01*
X12978341Y-10731599D01*
X13002663Y-10715348D01*
X13023347Y-10694663D01*
X13035000Y-10677224D01*
X13046652Y-10694663D01*
X13067337Y-10715348D01*
X13091659Y-10731599D01*
X13118684Y-10742793D01*
X13147374Y-10748500D01*
X13176626Y-10748500D01*
X13205316Y-10742793D01*
X13232341Y-10731599D01*
X13256663Y-10715348D01*
X13277347Y-10694663D01*
X13293599Y-10670341D01*
X13302967Y-10647724D01*
X13307309Y-10649523D01*
X13327305Y-10653500D01*
X13334000Y-10653500D01*
X13334000Y-14434000D01*
X10066000Y-14434000D01*
X10066000Y-14309647D01*
X10208314Y-14309647D01*
X10234130Y-14349907D01*
X10286072Y-14377465D01*
X10342391Y-14394360D01*
X10400925Y-14399943D01*
X10459423Y-14393999D01*
X10515638Y-14376757D01*
X10565870Y-14349907D01*
X10591686Y-14309647D01*
X10400000Y-14117960D01*
X10208314Y-14309647D01*
X10066000Y-14309647D01*
X10066000Y-14100925D01*
X10100057Y-14100925D01*
X10106001Y-14159423D01*
X10123243Y-14215638D01*
X10150093Y-14265870D01*
X10190353Y-14291686D01*
X10382040Y-14100000D01*
X10417961Y-14100000D01*
X10609647Y-14291686D01*
X10646888Y-14267806D01*
X11174500Y-14267806D01*
X11174500Y-14288194D01*
X11178477Y-14308190D01*
X11186279Y-14327026D01*
X11197606Y-14343977D01*
X11212023Y-14358394D01*
X11228974Y-14369720D01*
X11247810Y-14377523D01*
X11267806Y-14381500D01*
X11288194Y-14381500D01*
X11308190Y-14377523D01*
X11327026Y-14369720D01*
X11343977Y-14358394D01*
X11358394Y-14343977D01*
X11369720Y-14327026D01*
X11377523Y-14308190D01*
X11381500Y-14288194D01*
X11381500Y-14267806D01*
X11377523Y-14247810D01*
X11369720Y-14228974D01*
X11358394Y-14212023D01*
X11343977Y-14197606D01*
X11327026Y-14186279D01*
X11308190Y-14178477D01*
X11288194Y-14174500D01*
X11267806Y-14174500D01*
X11247810Y-14178477D01*
X11228974Y-14186279D01*
X11212023Y-14197606D01*
X11197606Y-14212023D01*
X11186279Y-14228974D01*
X11178477Y-14247810D01*
X11174500Y-14267806D01*
X10646888Y-14267806D01*
X10649907Y-14265870D01*
X10677465Y-14213928D01*
X10694360Y-14157609D01*
X10699943Y-14099075D01*
X10699001Y-14089806D01*
X11521500Y-14089806D01*
X11521500Y-14110194D01*
X11525477Y-14130190D01*
X11533279Y-14149026D01*
X11544606Y-14165977D01*
X11559023Y-14180394D01*
X11575974Y-14191720D01*
X11594810Y-14199523D01*
X11614806Y-14203500D01*
X11635194Y-14203500D01*
X11655190Y-14199523D01*
X11674026Y-14191720D01*
X11690977Y-14180394D01*
X11696500Y-14174871D01*
X11696500Y-14185194D01*
X11700477Y-14205190D01*
X11708279Y-14224026D01*
X11719606Y-14240977D01*
X11734023Y-14255394D01*
X11750974Y-14266720D01*
X11769810Y-14274523D01*
X11789806Y-14278500D01*
X11810194Y-14278500D01*
X11830190Y-14274523D01*
X11849026Y-14266720D01*
X11865977Y-14255394D01*
X11880394Y-14240977D01*
X11891720Y-14224026D01*
X11895539Y-14214806D01*
X12446500Y-14214806D01*
X12446500Y-14235194D01*
X12450477Y-14255190D01*
X12458279Y-14274026D01*
X12469606Y-14290977D01*
X12484023Y-14305394D01*
X12500974Y-14316720D01*
X12519810Y-14324523D01*
X12539806Y-14328500D01*
X12560194Y-14328500D01*
X12580190Y-14324523D01*
X12599026Y-14316720D01*
X12609612Y-14309647D01*
X12808314Y-14309647D01*
X12834130Y-14349907D01*
X12886071Y-14377465D01*
X12942391Y-14394360D01*
X13000925Y-14399943D01*
X13059423Y-14393999D01*
X13115638Y-14376757D01*
X13165870Y-14349907D01*
X13191686Y-14309647D01*
X13000000Y-14117960D01*
X12808314Y-14309647D01*
X12609612Y-14309647D01*
X12615977Y-14305394D01*
X12630394Y-14290977D01*
X12641720Y-14274026D01*
X12649523Y-14255190D01*
X12650356Y-14251000D01*
X12670194Y-14251000D01*
X12690190Y-14247023D01*
X12709026Y-14239220D01*
X12725977Y-14227894D01*
X12728464Y-14225407D01*
X12750093Y-14265870D01*
X12790353Y-14291686D01*
X12982039Y-14100000D01*
X13017960Y-14100000D01*
X13209647Y-14291686D01*
X13249907Y-14265870D01*
X13277465Y-14213928D01*
X13294360Y-14157609D01*
X13299943Y-14099075D01*
X13293999Y-14040577D01*
X13276757Y-13984362D01*
X13249907Y-13934130D01*
X13209647Y-13908314D01*
X13017960Y-14100000D01*
X12982039Y-14100000D01*
X12790353Y-13908314D01*
X12750093Y-13934130D01*
X12722535Y-13986071D01*
X12705640Y-14042391D01*
X12704540Y-14053922D01*
X12690190Y-14047977D01*
X12670194Y-14044000D01*
X12649806Y-14044000D01*
X12629810Y-14047977D01*
X12610974Y-14055779D01*
X12594023Y-14067106D01*
X12579606Y-14081523D01*
X12568279Y-14098474D01*
X12560477Y-14117310D01*
X12559644Y-14121500D01*
X12539806Y-14121500D01*
X12519810Y-14125477D01*
X12500974Y-14133279D01*
X12484023Y-14144606D01*
X12469606Y-14159023D01*
X12458279Y-14175974D01*
X12450477Y-14194810D01*
X12446500Y-14214806D01*
X11895539Y-14214806D01*
X11899523Y-14205190D01*
X11903500Y-14185194D01*
X11903500Y-14164806D01*
X11899523Y-14144810D01*
X11891720Y-14125974D01*
X11880394Y-14109023D01*
X11865977Y-14094606D01*
X11849026Y-14083279D01*
X11830190Y-14075477D01*
X11810194Y-14071500D01*
X11789806Y-14071500D01*
X11769810Y-14075477D01*
X11750974Y-14083279D01*
X11734023Y-14094606D01*
X11728500Y-14100129D01*
X11728500Y-14089806D01*
X11724523Y-14069810D01*
X11716720Y-14050974D01*
X11705394Y-14034023D01*
X11690977Y-14019606D01*
X11674026Y-14008279D01*
X11655190Y-14000477D01*
X11635194Y-13996500D01*
X11614806Y-13996500D01*
X11594810Y-14000477D01*
X11575974Y-14008279D01*
X11559023Y-14019606D01*
X11544606Y-14034023D01*
X11533279Y-14050974D01*
X11525477Y-14069810D01*
X11521500Y-14089806D01*
X10699001Y-14089806D01*
X10693999Y-14040577D01*
X10676757Y-13984362D01*
X10666304Y-13964806D01*
X12146500Y-13964806D01*
X12146500Y-13985194D01*
X12150477Y-14005190D01*
X12158279Y-14024026D01*
X12169606Y-14040977D01*
X12184023Y-14055394D01*
X12200974Y-14066720D01*
X12219810Y-14074523D01*
X12239806Y-14078500D01*
X12260194Y-14078500D01*
X12280190Y-14074523D01*
X12299026Y-14066720D01*
X12315977Y-14055394D01*
X12330394Y-14040977D01*
X12341720Y-14024026D01*
X12349523Y-14005190D01*
X12353500Y-13985194D01*
X12353500Y-13964806D01*
X12353096Y-13962777D01*
X12354157Y-13962338D01*
X12371109Y-13951011D01*
X12385525Y-13936595D01*
X12396852Y-13919643D01*
X12404654Y-13900807D01*
X12406734Y-13890353D01*
X12808314Y-13890353D01*
X13000000Y-14082039D01*
X13191686Y-13890353D01*
X13165870Y-13850093D01*
X13113928Y-13822535D01*
X13057609Y-13805640D01*
X12999075Y-13800057D01*
X12940577Y-13806001D01*
X12884362Y-13823243D01*
X12834130Y-13850093D01*
X12808314Y-13890353D01*
X12406734Y-13890353D01*
X12408632Y-13880811D01*
X12408632Y-13860424D01*
X12404654Y-13840428D01*
X12396852Y-13821592D01*
X12385525Y-13804640D01*
X12371109Y-13790224D01*
X12354157Y-13778897D01*
X12335322Y-13771095D01*
X12315326Y-13767117D01*
X12294938Y-13767117D01*
X12274942Y-13771095D01*
X12256106Y-13778897D01*
X12239154Y-13790224D01*
X12224738Y-13804640D01*
X12213411Y-13821592D01*
X12205609Y-13840428D01*
X12201632Y-13860424D01*
X12201632Y-13880811D01*
X12202035Y-13882840D01*
X12200974Y-13883279D01*
X12184023Y-13894606D01*
X12169606Y-13909023D01*
X12158279Y-13925974D01*
X12150477Y-13944810D01*
X12146500Y-13964806D01*
X10666304Y-13964806D01*
X10649907Y-13934130D01*
X10609647Y-13908314D01*
X10417961Y-14100000D01*
X10382040Y-14100000D01*
X10190353Y-13908314D01*
X10150093Y-13934130D01*
X10122535Y-13986071D01*
X10105640Y-14042391D01*
X10100057Y-14100925D01*
X10066000Y-14100925D01*
X10066000Y-13890353D01*
X10208314Y-13890353D01*
X10400000Y-14082039D01*
X10591686Y-13890353D01*
X10565870Y-13850093D01*
X10513929Y-13822535D01*
X10457609Y-13805640D01*
X10399075Y-13800057D01*
X10340577Y-13806001D01*
X10284362Y-13823243D01*
X10234130Y-13850093D01*
X10208314Y-13890353D01*
X10066000Y-13890353D01*
X10066000Y-13714806D01*
X11696500Y-13714806D01*
X11696500Y-13735194D01*
X11700477Y-13755190D01*
X11708279Y-13774026D01*
X11719606Y-13790977D01*
X11734023Y-13805394D01*
X11750974Y-13816720D01*
X11769810Y-13824523D01*
X11789806Y-13828500D01*
X11810194Y-13828500D01*
X11830190Y-13824523D01*
X11849026Y-13816720D01*
X11865977Y-13805394D01*
X11880394Y-13790977D01*
X11891720Y-13774026D01*
X11899523Y-13755190D01*
X11903500Y-13735194D01*
X11903500Y-13714806D01*
X11899523Y-13694810D01*
X11891720Y-13675974D01*
X11880394Y-13659023D01*
X11865977Y-13644606D01*
X11849026Y-13633279D01*
X11830190Y-13625477D01*
X11810194Y-13621500D01*
X11789806Y-13621500D01*
X11769810Y-13625477D01*
X11750974Y-13633279D01*
X11734023Y-13644606D01*
X11719606Y-13659023D01*
X11708279Y-13675974D01*
X11700477Y-13694810D01*
X11696500Y-13714806D01*
X10066000Y-13714806D01*
X10066000Y-13358755D01*
X11571318Y-13358755D01*
X11571318Y-13379143D01*
X11575295Y-13399138D01*
X11583097Y-13417974D01*
X11594424Y-13434926D01*
X11608840Y-13449342D01*
X11625792Y-13460669D01*
X11644628Y-13468471D01*
X11664624Y-13472449D01*
X11685012Y-13472449D01*
X11705008Y-13468471D01*
X11723843Y-13460669D01*
X11740795Y-13449342D01*
X11755212Y-13434926D01*
X11766538Y-13417974D01*
X11767851Y-13414806D01*
X11996500Y-13414806D01*
X11996500Y-13435194D01*
X12000477Y-13455190D01*
X12008279Y-13474026D01*
X12019606Y-13490977D01*
X12034023Y-13505394D01*
X12050974Y-13516720D01*
X12069810Y-13524523D01*
X12089806Y-13528500D01*
X12110194Y-13528500D01*
X12130190Y-13524523D01*
X12149026Y-13516720D01*
X12165977Y-13505394D01*
X12180394Y-13490977D01*
X12191720Y-13474026D01*
X12195539Y-13464806D01*
X12296500Y-13464806D01*
X12296500Y-13485194D01*
X12300477Y-13505190D01*
X12308279Y-13524026D01*
X12319606Y-13540977D01*
X12334023Y-13555394D01*
X12350974Y-13566720D01*
X12369810Y-13574523D01*
X12389806Y-13578500D01*
X12410194Y-13578500D01*
X12430190Y-13574523D01*
X12449026Y-13566720D01*
X12465977Y-13555394D01*
X12475000Y-13546371D01*
X12484023Y-13555394D01*
X12500974Y-13566720D01*
X12519810Y-13574523D01*
X12539806Y-13578500D01*
X12560194Y-13578500D01*
X12580190Y-13574523D01*
X12599026Y-13566720D01*
X12615977Y-13555394D01*
X12630394Y-13540977D01*
X12641720Y-13524026D01*
X12649523Y-13505190D01*
X12653500Y-13485194D01*
X12653500Y-13464806D01*
X12649523Y-13444810D01*
X12641720Y-13425974D01*
X12630394Y-13409023D01*
X12615977Y-13394606D01*
X12599026Y-13383279D01*
X12580190Y-13375477D01*
X12560194Y-13371500D01*
X12539806Y-13371500D01*
X12519810Y-13375477D01*
X12500974Y-13383279D01*
X12484023Y-13394606D01*
X12475000Y-13403629D01*
X12465977Y-13394606D01*
X12449026Y-13383279D01*
X12430190Y-13375477D01*
X12410194Y-13371500D01*
X12389806Y-13371500D01*
X12369810Y-13375477D01*
X12350974Y-13383279D01*
X12334023Y-13394606D01*
X12319606Y-13409023D01*
X12308279Y-13425974D01*
X12300477Y-13444810D01*
X12296500Y-13464806D01*
X12195539Y-13464806D01*
X12199523Y-13455190D01*
X12203500Y-13435194D01*
X12203500Y-13414806D01*
X12199523Y-13394810D01*
X12191720Y-13375974D01*
X12180394Y-13359023D01*
X12165977Y-13344606D01*
X12149026Y-13333279D01*
X12130190Y-13325477D01*
X12110194Y-13321500D01*
X12089806Y-13321500D01*
X12069810Y-13325477D01*
X12050974Y-13333279D01*
X12034023Y-13344606D01*
X12019606Y-13359023D01*
X12008279Y-13375974D01*
X12000477Y-13394810D01*
X11996500Y-13414806D01*
X11767851Y-13414806D01*
X11774340Y-13399138D01*
X11778318Y-13379143D01*
X11778318Y-13358755D01*
X11774340Y-13338759D01*
X11766538Y-13319923D01*
X11755212Y-13302971D01*
X11740795Y-13288555D01*
X11723843Y-13277228D01*
X11705008Y-13269426D01*
X11685012Y-13265449D01*
X11664624Y-13265449D01*
X11644628Y-13269426D01*
X11625792Y-13277228D01*
X11608840Y-13288555D01*
X11594424Y-13302971D01*
X11583097Y-13319923D01*
X11575295Y-13338759D01*
X11571318Y-13358755D01*
X10066000Y-13358755D01*
X10066000Y-13112306D01*
X10344000Y-13112306D01*
X10344000Y-13132694D01*
X10347977Y-13152690D01*
X10355780Y-13171526D01*
X10367106Y-13188477D01*
X10381523Y-13202894D01*
X10398474Y-13214220D01*
X10417310Y-13222023D01*
X10437306Y-13226000D01*
X10457694Y-13226000D01*
X10477690Y-13222023D01*
X10496526Y-13214220D01*
X10513477Y-13202894D01*
X10527894Y-13188477D01*
X10539221Y-13171526D01*
X10547023Y-13152690D01*
X10551000Y-13132694D01*
X10551000Y-13112306D01*
X10547023Y-13092310D01*
X10539221Y-13073474D01*
X10533429Y-13064806D01*
X11346500Y-13064806D01*
X11346500Y-13085194D01*
X11350477Y-13105190D01*
X11358279Y-13124026D01*
X11369606Y-13140977D01*
X11384023Y-13155394D01*
X11400974Y-13166720D01*
X11419810Y-13174523D01*
X11439806Y-13178500D01*
X11460194Y-13178500D01*
X11480190Y-13174523D01*
X11499026Y-13166720D01*
X11515977Y-13155394D01*
X11530394Y-13140977D01*
X11541720Y-13124026D01*
X11549523Y-13105190D01*
X11553500Y-13085194D01*
X11553500Y-13064806D01*
X11549523Y-13044810D01*
X11541720Y-13025974D01*
X11540940Y-13024806D01*
X11891500Y-13024806D01*
X11891500Y-13045194D01*
X11895477Y-13065190D01*
X11903279Y-13084026D01*
X11914606Y-13100977D01*
X11929023Y-13115394D01*
X11945974Y-13126720D01*
X11964810Y-13134523D01*
X11984806Y-13138500D01*
X12005194Y-13138500D01*
X12025190Y-13134523D01*
X12044026Y-13126720D01*
X12060977Y-13115394D01*
X12075394Y-13100977D01*
X12077205Y-13098266D01*
X12092310Y-13104523D01*
X12112306Y-13108500D01*
X12132694Y-13108500D01*
X12152690Y-13104523D01*
X12171526Y-13096720D01*
X12188477Y-13085394D01*
X12202894Y-13070977D01*
X12214220Y-13054026D01*
X12222023Y-13035190D01*
X12226000Y-13015194D01*
X12226000Y-12994806D01*
X12222023Y-12974810D01*
X12214220Y-12955974D01*
X12202894Y-12939023D01*
X12188477Y-12924606D01*
X12171526Y-12913279D01*
X12152690Y-12905477D01*
X12132694Y-12901500D01*
X12112306Y-12901500D01*
X12092310Y-12905477D01*
X12073474Y-12913279D01*
X12056523Y-12924606D01*
X12042106Y-12939023D01*
X12040295Y-12941734D01*
X12025190Y-12935477D01*
X12005194Y-12931500D01*
X11984806Y-12931500D01*
X11964810Y-12935477D01*
X11945974Y-12943279D01*
X11929023Y-12954606D01*
X11914606Y-12969023D01*
X11903279Y-12985974D01*
X11895477Y-13004810D01*
X11891500Y-13024806D01*
X11540940Y-13024806D01*
X11530394Y-13009023D01*
X11515977Y-12994606D01*
X11499026Y-12983279D01*
X11480190Y-12975477D01*
X11460194Y-12971500D01*
X11439806Y-12971500D01*
X11419810Y-12975477D01*
X11400974Y-12983279D01*
X11384023Y-12994606D01*
X11369606Y-13009023D01*
X11358279Y-13025974D01*
X11350477Y-13044810D01*
X11346500Y-13064806D01*
X10533429Y-13064806D01*
X10527894Y-13056523D01*
X10513477Y-13042106D01*
X10496526Y-13030779D01*
X10477690Y-13022977D01*
X10457694Y-13019000D01*
X10437306Y-13019000D01*
X10417310Y-13022977D01*
X10398474Y-13030779D01*
X10381523Y-13042106D01*
X10367106Y-13056523D01*
X10355780Y-13073474D01*
X10347977Y-13092310D01*
X10344000Y-13112306D01*
X10066000Y-13112306D01*
X10066000Y-12886851D01*
X10512500Y-12886851D01*
X10512500Y-12913149D01*
X10517630Y-12938940D01*
X10527694Y-12963236D01*
X10542304Y-12985101D01*
X10560899Y-13003696D01*
X10582764Y-13018306D01*
X10607060Y-13028370D01*
X10632851Y-13033500D01*
X10659149Y-13033500D01*
X10684941Y-13028370D01*
X10709236Y-13018306D01*
X10731101Y-13003696D01*
X10742671Y-12992127D01*
X10825834Y-12992127D01*
X10831780Y-13015504D01*
X10855624Y-13026593D01*
X10881174Y-13032818D01*
X10907447Y-13033939D01*
X10933434Y-13029912D01*
X10958137Y-13020893D01*
X10968220Y-13015504D01*
X10974166Y-12992127D01*
X10900000Y-12917960D01*
X10825834Y-12992127D01*
X10742671Y-12992127D01*
X10749696Y-12985101D01*
X10764306Y-12963236D01*
X10773162Y-12941856D01*
X10779107Y-12958137D01*
X10784496Y-12968220D01*
X10807873Y-12974166D01*
X10882040Y-12900000D01*
X10917961Y-12900000D01*
X10992127Y-12974166D01*
X11015504Y-12968220D01*
X11026593Y-12944376D01*
X11032818Y-12918826D01*
X11033939Y-12892553D01*
X11029913Y-12866566D01*
X11026646Y-12857618D01*
X11470165Y-12857618D01*
X11470165Y-12875051D01*
X11473566Y-12892149D01*
X11480237Y-12908255D01*
X11489923Y-12922750D01*
X11502250Y-12935077D01*
X11516745Y-12944762D01*
X11532851Y-12951434D01*
X11549949Y-12954835D01*
X11567382Y-12954835D01*
X11584480Y-12951434D01*
X11600586Y-12944762D01*
X11615081Y-12935077D01*
X11627408Y-12922750D01*
X11637093Y-12908255D01*
X11643764Y-12892149D01*
X11647165Y-12875051D01*
X11647165Y-12857618D01*
X11643764Y-12840520D01*
X11641397Y-12834806D01*
X12229000Y-12834806D01*
X12229000Y-12855194D01*
X12232977Y-12875190D01*
X12240779Y-12894026D01*
X12252106Y-12910977D01*
X12266523Y-12925394D01*
X12283474Y-12936720D01*
X12302310Y-12944523D01*
X12322306Y-12948500D01*
X12342694Y-12948500D01*
X12362690Y-12944523D01*
X12381526Y-12936720D01*
X12398477Y-12925394D01*
X12412894Y-12910977D01*
X12424220Y-12894026D01*
X12432023Y-12875190D01*
X12436000Y-12855194D01*
X12436000Y-12834806D01*
X12432023Y-12814810D01*
X12432021Y-12814806D01*
X12491500Y-12814806D01*
X12491500Y-12835194D01*
X12495477Y-12855190D01*
X12503279Y-12874026D01*
X12514606Y-12890977D01*
X12529023Y-12905394D01*
X12543399Y-12915000D01*
X12529023Y-12924606D01*
X12514606Y-12939023D01*
X12503279Y-12955974D01*
X12495477Y-12974810D01*
X12491500Y-12994806D01*
X12491500Y-13015194D01*
X12495477Y-13035190D01*
X12503279Y-13054026D01*
X12514606Y-13070977D01*
X12529023Y-13085394D01*
X12545974Y-13096720D01*
X12564810Y-13104523D01*
X12584806Y-13108500D01*
X12605194Y-13108500D01*
X12625190Y-13104523D01*
X12644026Y-13096720D01*
X12660977Y-13085394D01*
X12675394Y-13070977D01*
X12686720Y-13054026D01*
X12694523Y-13035190D01*
X12698500Y-13015194D01*
X12698500Y-12994806D01*
X12694523Y-12974810D01*
X12686720Y-12955974D01*
X12675394Y-12939023D01*
X12660977Y-12924606D01*
X12646600Y-12915000D01*
X12660977Y-12905394D01*
X12675394Y-12890977D01*
X12686720Y-12874026D01*
X12694523Y-12855190D01*
X12698500Y-12835194D01*
X12698500Y-12814806D01*
X12694523Y-12794810D01*
X12686720Y-12775974D01*
X12675394Y-12759023D01*
X12673952Y-12757581D01*
X12677803Y-12755008D01*
X12692219Y-12740592D01*
X12703546Y-12723640D01*
X12711348Y-12704804D01*
X12715325Y-12684808D01*
X12715325Y-12664421D01*
X12711348Y-12644425D01*
X12703546Y-12625589D01*
X12692219Y-12608637D01*
X12677803Y-12594221D01*
X12660851Y-12582894D01*
X12642015Y-12575092D01*
X12622019Y-12571114D01*
X12601631Y-12571114D01*
X12581636Y-12575092D01*
X12562800Y-12582894D01*
X12545848Y-12594221D01*
X12531432Y-12608637D01*
X12520105Y-12625589D01*
X12512303Y-12644425D01*
X12508325Y-12664421D01*
X12508325Y-12684808D01*
X12512303Y-12704804D01*
X12520105Y-12723640D01*
X12531432Y-12740592D01*
X12532873Y-12742033D01*
X12529023Y-12744606D01*
X12514606Y-12759023D01*
X12503279Y-12775974D01*
X12495477Y-12794810D01*
X12491500Y-12814806D01*
X12432021Y-12814806D01*
X12424220Y-12795974D01*
X12412894Y-12779023D01*
X12398477Y-12764606D01*
X12381526Y-12753279D01*
X12362690Y-12745477D01*
X12342694Y-12741500D01*
X12322306Y-12741500D01*
X12302310Y-12745477D01*
X12283474Y-12753279D01*
X12266523Y-12764606D01*
X12252106Y-12779023D01*
X12240779Y-12795974D01*
X12232977Y-12814810D01*
X12229000Y-12834806D01*
X11641397Y-12834806D01*
X11637093Y-12824414D01*
X11627408Y-12809919D01*
X11615081Y-12797592D01*
X11600586Y-12787907D01*
X11584480Y-12781236D01*
X11567382Y-12777835D01*
X11549949Y-12777835D01*
X11532851Y-12781236D01*
X11516745Y-12787907D01*
X11502250Y-12797592D01*
X11489923Y-12809919D01*
X11480237Y-12824414D01*
X11473566Y-12840520D01*
X11470165Y-12857618D01*
X11026646Y-12857618D01*
X11020894Y-12841863D01*
X11015504Y-12831780D01*
X10992127Y-12825834D01*
X10917961Y-12900000D01*
X10882040Y-12900000D01*
X10807873Y-12825834D01*
X10784496Y-12831780D01*
X10773407Y-12855624D01*
X10772929Y-12857583D01*
X10764306Y-12836764D01*
X10749696Y-12814899D01*
X10742671Y-12807873D01*
X10825834Y-12807873D01*
X10900000Y-12882039D01*
X10974166Y-12807873D01*
X10968220Y-12784496D01*
X10944376Y-12773407D01*
X10918826Y-12767182D01*
X10892553Y-12766061D01*
X10866566Y-12770087D01*
X10841863Y-12779106D01*
X10831780Y-12784496D01*
X10825834Y-12807873D01*
X10742671Y-12807873D01*
X10731101Y-12796304D01*
X10709236Y-12781694D01*
X10684941Y-12771630D01*
X10659149Y-12766500D01*
X10632851Y-12766500D01*
X10607060Y-12771630D01*
X10582764Y-12781694D01*
X10560899Y-12796304D01*
X10542304Y-12814899D01*
X10527694Y-12836764D01*
X10517630Y-12861059D01*
X10512500Y-12886851D01*
X10066000Y-12886851D01*
X10066000Y-12353500D01*
X10085194Y-12353500D01*
X10105190Y-12349523D01*
X10124026Y-12341720D01*
X10140977Y-12330394D01*
X10155394Y-12315977D01*
X10166721Y-12299026D01*
X10174523Y-12280190D01*
X10178500Y-12260194D01*
X10178500Y-12239806D01*
X10177799Y-12236283D01*
X10241500Y-12236283D01*
X10241500Y-12253716D01*
X10244901Y-12270814D01*
X10251572Y-12286920D01*
X10261258Y-12301415D01*
X10273585Y-12313742D01*
X10288080Y-12323428D01*
X10304186Y-12330099D01*
X10321284Y-12333500D01*
X10338717Y-12333500D01*
X10355815Y-12330099D01*
X10371921Y-12323428D01*
X10386416Y-12313742D01*
X10398742Y-12301415D01*
X10398831Y-12301283D01*
X10536500Y-12301283D01*
X10536500Y-12318716D01*
X10539901Y-12335814D01*
X10546572Y-12351920D01*
X10556258Y-12366415D01*
X10568585Y-12378742D01*
X10583080Y-12388428D01*
X10599186Y-12395099D01*
X10616284Y-12398500D01*
X10633717Y-12398500D01*
X10650815Y-12395099D01*
X10666921Y-12388428D01*
X10681416Y-12378742D01*
X10693742Y-12366415D01*
X10699714Y-12357478D01*
X10961611Y-12357478D01*
X10961611Y-12374911D01*
X10965012Y-12392009D01*
X10971683Y-12408115D01*
X10981369Y-12422610D01*
X10993696Y-12434937D01*
X11008191Y-12444622D01*
X11024297Y-12451293D01*
X11041395Y-12454694D01*
X11058828Y-12454694D01*
X11075926Y-12451293D01*
X11092032Y-12444622D01*
X11106527Y-12434937D01*
X11112089Y-12429374D01*
X11358766Y-12429374D01*
X11358766Y-12446807D01*
X11362167Y-12463905D01*
X11368838Y-12480011D01*
X11378523Y-12494506D01*
X11390850Y-12506833D01*
X11405345Y-12516518D01*
X11421451Y-12523190D01*
X11438549Y-12526591D01*
X11455982Y-12526591D01*
X11473080Y-12523190D01*
X11489186Y-12516518D01*
X11503681Y-12506833D01*
X11516008Y-12494506D01*
X11525694Y-12480011D01*
X11532365Y-12463905D01*
X11535766Y-12446807D01*
X11535766Y-12429374D01*
X11532365Y-12412276D01*
X11525694Y-12396170D01*
X11516008Y-12381675D01*
X11503681Y-12369348D01*
X11489186Y-12359663D01*
X11483497Y-12357306D01*
X11921500Y-12357306D01*
X11921500Y-12377694D01*
X11925477Y-12397690D01*
X11933279Y-12416526D01*
X11944606Y-12433477D01*
X11959023Y-12447894D01*
X11975974Y-12459220D01*
X11994810Y-12467023D01*
X12014806Y-12471000D01*
X12035194Y-12471000D01*
X12046500Y-12468751D01*
X12046500Y-12485194D01*
X12050477Y-12505190D01*
X12058279Y-12524026D01*
X12064621Y-12533516D01*
X12063956Y-12534181D01*
X12052629Y-12551133D01*
X12044827Y-12569969D01*
X12040850Y-12589965D01*
X12040850Y-12610352D01*
X12044827Y-12630348D01*
X12052629Y-12649184D01*
X12056575Y-12655089D01*
X12050477Y-12669810D01*
X12046500Y-12689806D01*
X12046500Y-12710194D01*
X12050477Y-12730190D01*
X12058279Y-12749026D01*
X12069606Y-12765977D01*
X12084023Y-12780394D01*
X12100974Y-12791720D01*
X12119810Y-12799523D01*
X12139806Y-12803500D01*
X12160194Y-12803500D01*
X12180190Y-12799523D01*
X12199026Y-12791720D01*
X12215977Y-12780394D01*
X12230394Y-12765977D01*
X12241720Y-12749026D01*
X12249523Y-12730190D01*
X12253500Y-12710194D01*
X12253500Y-12689806D01*
X12249523Y-12669810D01*
X12241720Y-12650974D01*
X12237775Y-12645069D01*
X12243872Y-12630348D01*
X12247850Y-12610352D01*
X12247850Y-12589965D01*
X12243872Y-12569969D01*
X12236070Y-12551133D01*
X12229729Y-12541642D01*
X12230394Y-12540977D01*
X12241720Y-12524026D01*
X12249523Y-12505190D01*
X12253500Y-12485194D01*
X12253500Y-12477306D01*
X12284000Y-12477306D01*
X12284000Y-12497694D01*
X12287977Y-12517690D01*
X12295779Y-12536526D01*
X12307106Y-12553477D01*
X12321523Y-12567894D01*
X12338474Y-12579220D01*
X12357310Y-12587023D01*
X12377306Y-12591000D01*
X12397694Y-12591000D01*
X12417690Y-12587023D01*
X12436526Y-12579220D01*
X12453477Y-12567894D01*
X12467894Y-12553477D01*
X12479220Y-12536526D01*
X12487023Y-12517690D01*
X12491000Y-12497694D01*
X12491000Y-12477306D01*
X12487023Y-12457310D01*
X12479220Y-12438474D01*
X12467894Y-12421523D01*
X12453477Y-12407106D01*
X12436526Y-12395779D01*
X12417690Y-12387977D01*
X12397694Y-12384000D01*
X12377306Y-12384000D01*
X12357310Y-12387977D01*
X12338474Y-12395779D01*
X12321523Y-12407106D01*
X12307106Y-12421523D01*
X12295779Y-12438474D01*
X12287977Y-12457310D01*
X12284000Y-12477306D01*
X12253500Y-12477306D01*
X12253500Y-12464806D01*
X12249523Y-12444810D01*
X12241720Y-12425974D01*
X12230394Y-12409023D01*
X12215977Y-12394606D01*
X12199026Y-12383279D01*
X12180190Y-12375477D01*
X12160194Y-12371500D01*
X12139806Y-12371500D01*
X12128500Y-12373749D01*
X12128500Y-12357306D01*
X12124523Y-12337310D01*
X12116720Y-12318474D01*
X12105394Y-12301523D01*
X12090977Y-12287106D01*
X12074026Y-12275779D01*
X12055190Y-12267977D01*
X12035194Y-12264000D01*
X12014806Y-12264000D01*
X11994810Y-12267977D01*
X11975974Y-12275779D01*
X11959023Y-12287106D01*
X11944606Y-12301523D01*
X11933279Y-12318474D01*
X11925477Y-12337310D01*
X11921500Y-12357306D01*
X11483497Y-12357306D01*
X11473080Y-12352992D01*
X11455982Y-12349591D01*
X11438549Y-12349591D01*
X11421451Y-12352992D01*
X11405345Y-12359663D01*
X11390850Y-12369348D01*
X11378523Y-12381675D01*
X11368838Y-12396170D01*
X11362167Y-12412276D01*
X11358766Y-12429374D01*
X11112089Y-12429374D01*
X11118853Y-12422610D01*
X11128539Y-12408115D01*
X11135210Y-12392009D01*
X11138611Y-12374911D01*
X11138611Y-12357478D01*
X11135210Y-12340380D01*
X11128539Y-12324274D01*
X11118853Y-12309779D01*
X11106527Y-12297452D01*
X11092032Y-12287767D01*
X11075926Y-12281095D01*
X11058828Y-12277694D01*
X11041395Y-12277694D01*
X11024297Y-12281095D01*
X11008191Y-12287767D01*
X10993696Y-12297452D01*
X10981369Y-12309779D01*
X10971683Y-12324274D01*
X10965012Y-12340380D01*
X10961611Y-12357478D01*
X10699714Y-12357478D01*
X10703428Y-12351920D01*
X10710099Y-12335814D01*
X10713500Y-12318716D01*
X10713500Y-12301283D01*
X10710099Y-12284185D01*
X10703428Y-12268079D01*
X10693742Y-12253584D01*
X10681416Y-12241258D01*
X10666921Y-12231572D01*
X10650815Y-12224901D01*
X10633717Y-12221500D01*
X10616284Y-12221500D01*
X10599186Y-12224901D01*
X10583080Y-12231572D01*
X10568585Y-12241258D01*
X10556258Y-12253584D01*
X10546572Y-12268079D01*
X10539901Y-12284185D01*
X10536500Y-12301283D01*
X10398831Y-12301283D01*
X10408428Y-12286920D01*
X10415099Y-12270814D01*
X10418500Y-12253716D01*
X10418500Y-12236283D01*
X10415099Y-12219185D01*
X10409313Y-12205217D01*
X10410319Y-12203712D01*
X10416503Y-12188783D01*
X10719000Y-12188783D01*
X10719000Y-12206216D01*
X10722401Y-12223314D01*
X10729072Y-12239420D01*
X10738758Y-12253915D01*
X10751085Y-12266242D01*
X10765580Y-12275928D01*
X10781686Y-12282599D01*
X10798784Y-12286000D01*
X10816217Y-12286000D01*
X10833315Y-12282599D01*
X10849421Y-12275928D01*
X10863916Y-12266242D01*
X10876242Y-12253915D01*
X10885928Y-12239420D01*
X10892599Y-12223314D01*
X10896000Y-12206216D01*
X10896000Y-12188783D01*
X10892599Y-12171685D01*
X10885928Y-12155579D01*
X10884753Y-12153821D01*
X11189000Y-12153821D01*
X11189000Y-12176179D01*
X11193362Y-12198107D01*
X11201918Y-12218762D01*
X11214339Y-12237352D01*
X11230148Y-12253161D01*
X11248738Y-12265582D01*
X11269393Y-12274138D01*
X11291321Y-12278500D01*
X11313679Y-12278500D01*
X11335607Y-12274138D01*
X11356262Y-12265582D01*
X11374852Y-12253161D01*
X11390661Y-12237352D01*
X11403082Y-12218762D01*
X11411638Y-12198107D01*
X11416000Y-12176179D01*
X11416000Y-12153821D01*
X11411638Y-12131893D01*
X11403082Y-12111238D01*
X11390661Y-12092648D01*
X11374852Y-12076839D01*
X11356262Y-12064418D01*
X11335607Y-12055862D01*
X11313679Y-12051500D01*
X11291321Y-12051500D01*
X11269393Y-12055862D01*
X11248738Y-12064418D01*
X11230148Y-12076839D01*
X11214339Y-12092648D01*
X11201918Y-12111238D01*
X11193362Y-12131893D01*
X11189000Y-12153821D01*
X10884753Y-12153821D01*
X10876242Y-12141084D01*
X10863916Y-12128758D01*
X10849421Y-12119072D01*
X10833315Y-12112401D01*
X10816217Y-12109000D01*
X10798784Y-12109000D01*
X10781686Y-12112401D01*
X10765580Y-12119072D01*
X10751085Y-12128758D01*
X10738758Y-12141084D01*
X10729072Y-12155579D01*
X10722401Y-12171685D01*
X10719000Y-12188783D01*
X10416503Y-12188783D01*
X10416990Y-12187606D01*
X10420391Y-12170508D01*
X10420391Y-12153075D01*
X10416990Y-12135977D01*
X10410319Y-12119871D01*
X10400634Y-12105376D01*
X10388307Y-12093049D01*
X10373812Y-12083363D01*
X10357706Y-12076692D01*
X10340608Y-12073291D01*
X10323175Y-12073291D01*
X10306077Y-12076692D01*
X10289971Y-12083363D01*
X10275476Y-12093049D01*
X10263149Y-12105376D01*
X10253464Y-12119871D01*
X10246792Y-12135977D01*
X10243391Y-12153075D01*
X10243391Y-12170508D01*
X10246792Y-12187606D01*
X10252578Y-12201574D01*
X10251572Y-12203079D01*
X10244901Y-12219185D01*
X10241500Y-12236283D01*
X10177799Y-12236283D01*
X10174523Y-12219810D01*
X10166721Y-12200974D01*
X10155394Y-12184023D01*
X10140977Y-12169606D01*
X10124026Y-12158279D01*
X10105190Y-12150477D01*
X10097756Y-12148999D01*
X10107690Y-12147023D01*
X10126526Y-12139220D01*
X10143477Y-12127894D01*
X10157894Y-12113477D01*
X10169221Y-12096526D01*
X10177023Y-12077690D01*
X10181000Y-12057694D01*
X10181000Y-12037306D01*
X10177023Y-12017310D01*
X10169221Y-11998474D01*
X10157894Y-11981523D01*
X10143477Y-11967106D01*
X10126526Y-11955779D01*
X10107690Y-11947977D01*
X10087694Y-11944000D01*
X10067306Y-11944000D01*
X10066000Y-11944260D01*
X10066000Y-11892306D01*
X10231500Y-11892306D01*
X10231500Y-11912694D01*
X10235477Y-11932690D01*
X10243279Y-11951526D01*
X10254606Y-11968477D01*
X10269022Y-11982894D01*
X10285974Y-11994220D01*
X10304810Y-12002023D01*
X10324806Y-12006000D01*
X10345194Y-12006000D01*
X10365190Y-12002023D01*
X10384025Y-11994220D01*
X10400977Y-11982894D01*
X10415394Y-11968477D01*
X10426720Y-11951526D01*
X10434522Y-11932690D01*
X10438500Y-11912694D01*
X10438500Y-11897573D01*
X10683913Y-11897573D01*
X10683913Y-11915006D01*
X10687314Y-11932104D01*
X10693985Y-11948210D01*
X10703671Y-11962705D01*
X10715998Y-11975032D01*
X10730493Y-11984717D01*
X10746599Y-11991388D01*
X10763697Y-11994789D01*
X10781130Y-11994789D01*
X10798228Y-11991388D01*
X10814334Y-11984717D01*
X10828829Y-11975032D01*
X10841155Y-11962705D01*
X10850841Y-11948210D01*
X10857512Y-11932104D01*
X10860913Y-11915006D01*
X10860913Y-11897573D01*
X10860500Y-11895498D01*
X11101859Y-11895498D01*
X11101859Y-11916871D01*
X11106028Y-11937833D01*
X11114207Y-11957579D01*
X11126081Y-11975349D01*
X11141194Y-11990462D01*
X11158965Y-12002336D01*
X11178710Y-12010515D01*
X11199672Y-12014685D01*
X11221045Y-12014685D01*
X11242007Y-12010515D01*
X11261753Y-12002336D01*
X11279523Y-11990462D01*
X11294636Y-11975349D01*
X11306510Y-11957579D01*
X11314689Y-11937833D01*
X11318859Y-11916871D01*
X11318859Y-11895498D01*
X11314689Y-11874536D01*
X11306510Y-11854791D01*
X11294636Y-11837020D01*
X11279523Y-11821907D01*
X11261753Y-11810033D01*
X11242007Y-11801854D01*
X11221045Y-11797685D01*
X11199672Y-11797685D01*
X11178710Y-11801854D01*
X11158965Y-11810033D01*
X11141194Y-11821907D01*
X11126081Y-11837020D01*
X11114207Y-11854791D01*
X11106028Y-11874536D01*
X11101859Y-11895498D01*
X10860500Y-11895498D01*
X10857512Y-11880475D01*
X10850841Y-11864369D01*
X10841155Y-11849874D01*
X10828829Y-11837547D01*
X10814334Y-11827862D01*
X10798228Y-11821190D01*
X10781130Y-11817789D01*
X10763697Y-11817789D01*
X10746599Y-11821190D01*
X10730493Y-11827862D01*
X10715998Y-11837547D01*
X10703671Y-11849874D01*
X10693985Y-11864369D01*
X10687314Y-11880475D01*
X10683913Y-11897573D01*
X10438500Y-11897573D01*
X10438500Y-11892306D01*
X10434522Y-11872310D01*
X10426720Y-11853474D01*
X10415394Y-11836523D01*
X10400977Y-11822106D01*
X10384025Y-11810779D01*
X10365190Y-11802977D01*
X10345194Y-11799000D01*
X10324806Y-11799000D01*
X10304810Y-11802977D01*
X10285974Y-11810779D01*
X10269022Y-11822106D01*
X10254606Y-11836523D01*
X10243279Y-11853474D01*
X10235477Y-11872310D01*
X10231500Y-11892306D01*
X10066000Y-11892306D01*
X10066000Y-11509647D01*
X12408314Y-11509647D01*
X12434130Y-11549907D01*
X12486071Y-11577465D01*
X12542391Y-11594360D01*
X12600925Y-11599943D01*
X12659423Y-11593999D01*
X12715638Y-11576757D01*
X12765870Y-11549907D01*
X12791686Y-11509647D01*
X12600000Y-11317960D01*
X12408314Y-11509647D01*
X10066000Y-11509647D01*
X10066000Y-11300925D01*
X12300057Y-11300925D01*
X12306001Y-11359423D01*
X12323243Y-11415638D01*
X12350093Y-11465870D01*
X12390353Y-11491686D01*
X12582039Y-11300000D01*
X12617960Y-11300000D01*
X12809647Y-11491686D01*
X12849907Y-11465870D01*
X12877465Y-11413928D01*
X12894360Y-11357609D01*
X12899943Y-11299075D01*
X12893999Y-11240577D01*
X12876757Y-11184362D01*
X12849907Y-11134130D01*
X12809647Y-11108314D01*
X12617960Y-11300000D01*
X12582039Y-11300000D01*
X12390353Y-11108314D01*
X12350093Y-11134130D01*
X12322535Y-11186071D01*
X12305640Y-11242391D01*
X12300057Y-11300925D01*
X10066000Y-11300925D01*
X10066000Y-11090353D01*
X12408314Y-11090353D01*
X12600000Y-11282039D01*
X12791686Y-11090353D01*
X12765870Y-11050093D01*
X12713928Y-11022535D01*
X12657609Y-11005640D01*
X12599075Y-11000057D01*
X12540577Y-11006001D01*
X12484362Y-11023243D01*
X12434130Y-11050093D01*
X12408314Y-11090353D01*
X10066000Y-11090353D01*
X10066000Y-10542306D01*
X12021500Y-10542306D01*
X12021500Y-10562694D01*
X12025477Y-10582690D01*
X12033279Y-10601526D01*
X12044606Y-10618477D01*
X12059023Y-10632894D01*
X12075974Y-10644221D01*
X12094810Y-10652023D01*
X12114806Y-10656000D01*
X12135194Y-10656000D01*
X12155190Y-10652023D01*
X12174026Y-10644221D01*
X12190977Y-10632894D01*
X12205394Y-10618477D01*
X12216720Y-10601526D01*
X12224523Y-10582690D01*
X12228500Y-10562694D01*
X12228500Y-10542306D01*
X12224523Y-10522310D01*
X12216720Y-10503474D01*
X12205394Y-10486523D01*
X12190977Y-10472106D01*
X12174026Y-10460780D01*
X12155190Y-10452977D01*
X12135194Y-10449000D01*
X12114806Y-10449000D01*
X12094810Y-10452977D01*
X12075974Y-10460780D01*
X12059023Y-10472106D01*
X12044606Y-10486523D01*
X12033279Y-10503474D01*
X12025477Y-10522310D01*
X12021500Y-10542306D01*
X10066000Y-10542306D01*
X10066000Y-10289806D01*
X10596500Y-10289806D01*
X10596500Y-10310194D01*
X10600477Y-10330190D01*
X10608280Y-10349026D01*
X10619606Y-10365977D01*
X10634023Y-10380394D01*
X10650974Y-10391721D01*
X10669810Y-10399523D01*
X10689806Y-10403500D01*
X10710194Y-10403500D01*
X10730190Y-10399523D01*
X10749026Y-10391721D01*
X10765977Y-10380394D01*
X10780394Y-10365977D01*
X10791721Y-10349026D01*
X10799523Y-10330190D01*
X10803500Y-10310194D01*
X10803500Y-10293806D01*
X10842500Y-10293806D01*
X10842500Y-10314194D01*
X10846477Y-10334190D01*
X10854280Y-10353026D01*
X10865606Y-10369977D01*
X10880023Y-10384394D01*
X10896974Y-10395721D01*
X10915810Y-10403523D01*
X10935806Y-10407500D01*
X10956194Y-10407500D01*
X10976190Y-10403523D01*
X10995026Y-10395721D01*
X11011977Y-10384394D01*
X11026394Y-10369977D01*
X11037721Y-10353026D01*
X11037792Y-10352853D01*
X12250939Y-10352853D01*
X12255140Y-10381802D01*
X12264908Y-10409375D01*
X12272253Y-10423116D01*
X12297160Y-10430879D01*
X12382039Y-10346000D01*
X12417960Y-10346000D01*
X12502840Y-10430879D01*
X12527000Y-10423349D01*
X12551160Y-10430879D01*
X12636039Y-10346000D01*
X12671960Y-10346000D01*
X12756840Y-10430879D01*
X12781000Y-10423349D01*
X12805160Y-10430879D01*
X12890039Y-10346000D01*
X12925960Y-10346000D01*
X13010840Y-10430879D01*
X13035000Y-10423349D01*
X13059160Y-10430879D01*
X13144039Y-10346000D01*
X13179960Y-10346000D01*
X13264840Y-10430879D01*
X13289747Y-10423116D01*
X13302337Y-10396712D01*
X13309534Y-10368359D01*
X13311061Y-10339147D01*
X13306860Y-10310198D01*
X13297092Y-10282625D01*
X13289747Y-10268884D01*
X13264840Y-10261121D01*
X13179960Y-10346000D01*
X13144039Y-10346000D01*
X13059160Y-10261121D01*
X13035000Y-10268651D01*
X13010840Y-10261121D01*
X12925960Y-10346000D01*
X12890039Y-10346000D01*
X12805160Y-10261121D01*
X12781000Y-10268651D01*
X12756840Y-10261121D01*
X12671960Y-10346000D01*
X12636039Y-10346000D01*
X12551160Y-10261121D01*
X12527000Y-10268651D01*
X12502840Y-10261121D01*
X12417960Y-10346000D01*
X12382039Y-10346000D01*
X12297160Y-10261121D01*
X12272253Y-10268884D01*
X12259663Y-10295288D01*
X12252466Y-10323641D01*
X12250939Y-10352853D01*
X11037792Y-10352853D01*
X11045523Y-10334190D01*
X11049500Y-10314194D01*
X11049500Y-10293806D01*
X11045523Y-10273810D01*
X11037721Y-10254974D01*
X11029827Y-10243160D01*
X12315121Y-10243160D01*
X12400000Y-10328040D01*
X12484879Y-10243160D01*
X12569121Y-10243160D01*
X12654000Y-10328040D01*
X12738879Y-10243160D01*
X12823121Y-10243160D01*
X12908000Y-10328040D01*
X12992879Y-10243160D01*
X13077121Y-10243160D01*
X13162000Y-10328040D01*
X13246879Y-10243160D01*
X13239116Y-10218253D01*
X13212712Y-10205663D01*
X13184359Y-10198466D01*
X13155147Y-10196939D01*
X13126198Y-10201140D01*
X13098625Y-10210908D01*
X13084884Y-10218253D01*
X13077121Y-10243160D01*
X12992879Y-10243160D01*
X12985116Y-10218253D01*
X12958712Y-10205663D01*
X12930359Y-10198466D01*
X12901147Y-10196939D01*
X12872198Y-10201140D01*
X12844625Y-10210908D01*
X12830884Y-10218253D01*
X12823121Y-10243160D01*
X12738879Y-10243160D01*
X12731116Y-10218253D01*
X12704712Y-10205663D01*
X12676359Y-10198466D01*
X12647147Y-10196939D01*
X12618198Y-10201140D01*
X12590625Y-10210908D01*
X12576884Y-10218253D01*
X12569121Y-10243160D01*
X12484879Y-10243160D01*
X12477116Y-10218253D01*
X12450712Y-10205663D01*
X12422359Y-10198466D01*
X12393147Y-10196939D01*
X12364198Y-10201140D01*
X12336625Y-10210908D01*
X12322884Y-10218253D01*
X12315121Y-10243160D01*
X11029827Y-10243160D01*
X11026394Y-10238023D01*
X11011977Y-10223606D01*
X10995026Y-10212280D01*
X10976190Y-10204477D01*
X10956194Y-10200500D01*
X10935806Y-10200500D01*
X10915810Y-10204477D01*
X10896974Y-10212280D01*
X10880023Y-10223606D01*
X10865606Y-10238023D01*
X10854280Y-10254974D01*
X10846477Y-10273810D01*
X10842500Y-10293806D01*
X10803500Y-10293806D01*
X10803500Y-10289806D01*
X10799523Y-10269810D01*
X10791721Y-10250974D01*
X10780394Y-10234023D01*
X10765977Y-10219606D01*
X10749026Y-10208280D01*
X10730190Y-10200477D01*
X10710194Y-10196500D01*
X10689806Y-10196500D01*
X10669810Y-10200477D01*
X10650974Y-10208280D01*
X10634023Y-10219606D01*
X10619606Y-10234023D01*
X10608280Y-10250974D01*
X10600477Y-10269810D01*
X10596500Y-10289806D01*
X10066000Y-10289806D01*
X10066000Y-10066000D01*
X13334000Y-10066000D01*
X13334000Y-10446500D01*
%TA.AperFunction,Conductor*%
D18*
G36*
X13334000Y-10446500D02*
G01*
X13327305Y-10446500D01*
X13307309Y-10450477D01*
X13288473Y-10458280D01*
X13271522Y-10469606D01*
X13257105Y-10484023D01*
X13256676Y-10484665D01*
X13256663Y-10484653D01*
X13239327Y-10473069D01*
X13246879Y-10448840D01*
X13162000Y-10363961D01*
X13077121Y-10448840D01*
X13084673Y-10473069D01*
X13067337Y-10484653D01*
X13046652Y-10505337D01*
X13035000Y-10522776D01*
X13023347Y-10505337D01*
X13002663Y-10484653D01*
X12985327Y-10473069D01*
X12992879Y-10448840D01*
X12908000Y-10363961D01*
X12823121Y-10448840D01*
X12830673Y-10473069D01*
X12813337Y-10484653D01*
X12792652Y-10505337D01*
X12781000Y-10522776D01*
X12769347Y-10505337D01*
X12748663Y-10484653D01*
X12731327Y-10473069D01*
X12738879Y-10448840D01*
X12654000Y-10363961D01*
X12569121Y-10448840D01*
X12576673Y-10473069D01*
X12559337Y-10484653D01*
X12540628Y-10503361D01*
X12533840Y-10490661D01*
X12522796Y-10477204D01*
X12509339Y-10466160D01*
X12493985Y-10457953D01*
X12483071Y-10454642D01*
X12484879Y-10448840D01*
X12400000Y-10363961D01*
X12315121Y-10448840D01*
X12316929Y-10454642D01*
X12306015Y-10457953D01*
X12290661Y-10466160D01*
X12277204Y-10477204D01*
X12266159Y-10490661D01*
X12257953Y-10506015D01*
X12252899Y-10522675D01*
X12251193Y-10540000D01*
X12251193Y-10660000D01*
X12252899Y-10677325D01*
X12257953Y-10693985D01*
X12266159Y-10709339D01*
X12277204Y-10722796D01*
X12290661Y-10733841D01*
X12306015Y-10742047D01*
X12322675Y-10747101D01*
X12340000Y-10748807D01*
X12460000Y-10748807D01*
X12477325Y-10747101D01*
X12493985Y-10742047D01*
X12509339Y-10733841D01*
X12522796Y-10722796D01*
X12533840Y-10709339D01*
X12540628Y-10696639D01*
X12559337Y-10715348D01*
X12583659Y-10731599D01*
X12610684Y-10742793D01*
X12639374Y-10748500D01*
X12668626Y-10748500D01*
X12697316Y-10742793D01*
X12724341Y-10731599D01*
X12748663Y-10715348D01*
X12769347Y-10694663D01*
X12781000Y-10677224D01*
X12792652Y-10694663D01*
X12813337Y-10715348D01*
X12837659Y-10731599D01*
X12864684Y-10742793D01*
X12893374Y-10748500D01*
X12922626Y-10748500D01*
X12951316Y-10742793D01*
X12978341Y-10731599D01*
X13002663Y-10715348D01*
X13023347Y-10694663D01*
X13035000Y-10677224D01*
X13046652Y-10694663D01*
X13067337Y-10715348D01*
X13091659Y-10731599D01*
X13118684Y-10742793D01*
X13147374Y-10748500D01*
X13176626Y-10748500D01*
X13205316Y-10742793D01*
X13232341Y-10731599D01*
X13256663Y-10715348D01*
X13277347Y-10694663D01*
X13293599Y-10670341D01*
X13302967Y-10647724D01*
X13307309Y-10649523D01*
X13327305Y-10653500D01*
X13334000Y-10653500D01*
X13334000Y-14434000D01*
X10066000Y-14434000D01*
X10066000Y-14309647D01*
X10208314Y-14309647D01*
X10234130Y-14349907D01*
X10286072Y-14377465D01*
X10342391Y-14394360D01*
X10400925Y-14399943D01*
X10459423Y-14393999D01*
X10515638Y-14376757D01*
X10565870Y-14349907D01*
X10591686Y-14309647D01*
X10400000Y-14117960D01*
X10208314Y-14309647D01*
X10066000Y-14309647D01*
X10066000Y-14100925D01*
X10100057Y-14100925D01*
X10106001Y-14159423D01*
X10123243Y-14215638D01*
X10150093Y-14265870D01*
X10190353Y-14291686D01*
X10382040Y-14100000D01*
X10417961Y-14100000D01*
X10609647Y-14291686D01*
X10646888Y-14267806D01*
X11174500Y-14267806D01*
X11174500Y-14288194D01*
X11178477Y-14308190D01*
X11186279Y-14327026D01*
X11197606Y-14343977D01*
X11212023Y-14358394D01*
X11228974Y-14369720D01*
X11247810Y-14377523D01*
X11267806Y-14381500D01*
X11288194Y-14381500D01*
X11308190Y-14377523D01*
X11327026Y-14369720D01*
X11343977Y-14358394D01*
X11358394Y-14343977D01*
X11369720Y-14327026D01*
X11377523Y-14308190D01*
X11381500Y-14288194D01*
X11381500Y-14267806D01*
X11377523Y-14247810D01*
X11369720Y-14228974D01*
X11358394Y-14212023D01*
X11343977Y-14197606D01*
X11327026Y-14186279D01*
X11308190Y-14178477D01*
X11288194Y-14174500D01*
X11267806Y-14174500D01*
X11247810Y-14178477D01*
X11228974Y-14186279D01*
X11212023Y-14197606D01*
X11197606Y-14212023D01*
X11186279Y-14228974D01*
X11178477Y-14247810D01*
X11174500Y-14267806D01*
X10646888Y-14267806D01*
X10649907Y-14265870D01*
X10677465Y-14213928D01*
X10694360Y-14157609D01*
X10699943Y-14099075D01*
X10699001Y-14089806D01*
X11521500Y-14089806D01*
X11521500Y-14110194D01*
X11525477Y-14130190D01*
X11533279Y-14149026D01*
X11544606Y-14165977D01*
X11559023Y-14180394D01*
X11575974Y-14191720D01*
X11594810Y-14199523D01*
X11614806Y-14203500D01*
X11635194Y-14203500D01*
X11655190Y-14199523D01*
X11674026Y-14191720D01*
X11690977Y-14180394D01*
X11696500Y-14174871D01*
X11696500Y-14185194D01*
X11700477Y-14205190D01*
X11708279Y-14224026D01*
X11719606Y-14240977D01*
X11734023Y-14255394D01*
X11750974Y-14266720D01*
X11769810Y-14274523D01*
X11789806Y-14278500D01*
X11810194Y-14278500D01*
X11830190Y-14274523D01*
X11849026Y-14266720D01*
X11865977Y-14255394D01*
X11880394Y-14240977D01*
X11891720Y-14224026D01*
X11895539Y-14214806D01*
X12446500Y-14214806D01*
X12446500Y-14235194D01*
X12450477Y-14255190D01*
X12458279Y-14274026D01*
X12469606Y-14290977D01*
X12484023Y-14305394D01*
X12500974Y-14316720D01*
X12519810Y-14324523D01*
X12539806Y-14328500D01*
X12560194Y-14328500D01*
X12580190Y-14324523D01*
X12599026Y-14316720D01*
X12609612Y-14309647D01*
X12808314Y-14309647D01*
X12834130Y-14349907D01*
X12886071Y-14377465D01*
X12942391Y-14394360D01*
X13000925Y-14399943D01*
X13059423Y-14393999D01*
X13115638Y-14376757D01*
X13165870Y-14349907D01*
X13191686Y-14309647D01*
X13000000Y-14117960D01*
X12808314Y-14309647D01*
X12609612Y-14309647D01*
X12615977Y-14305394D01*
X12630394Y-14290977D01*
X12641720Y-14274026D01*
X12649523Y-14255190D01*
X12650356Y-14251000D01*
X12670194Y-14251000D01*
X12690190Y-14247023D01*
X12709026Y-14239220D01*
X12725977Y-14227894D01*
X12728464Y-14225407D01*
X12750093Y-14265870D01*
X12790353Y-14291686D01*
X12982039Y-14100000D01*
X13017960Y-14100000D01*
X13209647Y-14291686D01*
X13249907Y-14265870D01*
X13277465Y-14213928D01*
X13294360Y-14157609D01*
X13299943Y-14099075D01*
X13293999Y-14040577D01*
X13276757Y-13984362D01*
X13249907Y-13934130D01*
X13209647Y-13908314D01*
X13017960Y-14100000D01*
X12982039Y-14100000D01*
X12790353Y-13908314D01*
X12750093Y-13934130D01*
X12722535Y-13986071D01*
X12705640Y-14042391D01*
X12704540Y-14053922D01*
X12690190Y-14047977D01*
X12670194Y-14044000D01*
X12649806Y-14044000D01*
X12629810Y-14047977D01*
X12610974Y-14055779D01*
X12594023Y-14067106D01*
X12579606Y-14081523D01*
X12568279Y-14098474D01*
X12560477Y-14117310D01*
X12559644Y-14121500D01*
X12539806Y-14121500D01*
X12519810Y-14125477D01*
X12500974Y-14133279D01*
X12484023Y-14144606D01*
X12469606Y-14159023D01*
X12458279Y-14175974D01*
X12450477Y-14194810D01*
X12446500Y-14214806D01*
X11895539Y-14214806D01*
X11899523Y-14205190D01*
X11903500Y-14185194D01*
X11903500Y-14164806D01*
X11899523Y-14144810D01*
X11891720Y-14125974D01*
X11880394Y-14109023D01*
X11865977Y-14094606D01*
X11849026Y-14083279D01*
X11830190Y-14075477D01*
X11810194Y-14071500D01*
X11789806Y-14071500D01*
X11769810Y-14075477D01*
X11750974Y-14083279D01*
X11734023Y-14094606D01*
X11728500Y-14100129D01*
X11728500Y-14089806D01*
X11724523Y-14069810D01*
X11716720Y-14050974D01*
X11705394Y-14034023D01*
X11690977Y-14019606D01*
X11674026Y-14008279D01*
X11655190Y-14000477D01*
X11635194Y-13996500D01*
X11614806Y-13996500D01*
X11594810Y-14000477D01*
X11575974Y-14008279D01*
X11559023Y-14019606D01*
X11544606Y-14034023D01*
X11533279Y-14050974D01*
X11525477Y-14069810D01*
X11521500Y-14089806D01*
X10699001Y-14089806D01*
X10693999Y-14040577D01*
X10676757Y-13984362D01*
X10666304Y-13964806D01*
X12146500Y-13964806D01*
X12146500Y-13985194D01*
X12150477Y-14005190D01*
X12158279Y-14024026D01*
X12169606Y-14040977D01*
X12184023Y-14055394D01*
X12200974Y-14066720D01*
X12219810Y-14074523D01*
X12239806Y-14078500D01*
X12260194Y-14078500D01*
X12280190Y-14074523D01*
X12299026Y-14066720D01*
X12315977Y-14055394D01*
X12330394Y-14040977D01*
X12341720Y-14024026D01*
X12349523Y-14005190D01*
X12353500Y-13985194D01*
X12353500Y-13964806D01*
X12353096Y-13962777D01*
X12354157Y-13962338D01*
X12371109Y-13951011D01*
X12385525Y-13936595D01*
X12396852Y-13919643D01*
X12404654Y-13900807D01*
X12406734Y-13890353D01*
X12808314Y-13890353D01*
X13000000Y-14082039D01*
X13191686Y-13890353D01*
X13165870Y-13850093D01*
X13113928Y-13822535D01*
X13057609Y-13805640D01*
X12999075Y-13800057D01*
X12940577Y-13806001D01*
X12884362Y-13823243D01*
X12834130Y-13850093D01*
X12808314Y-13890353D01*
X12406734Y-13890353D01*
X12408632Y-13880811D01*
X12408632Y-13860424D01*
X12404654Y-13840428D01*
X12396852Y-13821592D01*
X12385525Y-13804640D01*
X12371109Y-13790224D01*
X12354157Y-13778897D01*
X12335322Y-13771095D01*
X12315326Y-13767117D01*
X12294938Y-13767117D01*
X12274942Y-13771095D01*
X12256106Y-13778897D01*
X12239154Y-13790224D01*
X12224738Y-13804640D01*
X12213411Y-13821592D01*
X12205609Y-13840428D01*
X12201632Y-13860424D01*
X12201632Y-13880811D01*
X12202035Y-13882840D01*
X12200974Y-13883279D01*
X12184023Y-13894606D01*
X12169606Y-13909023D01*
X12158279Y-13925974D01*
X12150477Y-13944810D01*
X12146500Y-13964806D01*
X10666304Y-13964806D01*
X10649907Y-13934130D01*
X10609647Y-13908314D01*
X10417961Y-14100000D01*
X10382040Y-14100000D01*
X10190353Y-13908314D01*
X10150093Y-13934130D01*
X10122535Y-13986071D01*
X10105640Y-14042391D01*
X10100057Y-14100925D01*
X10066000Y-14100925D01*
X10066000Y-13890353D01*
X10208314Y-13890353D01*
X10400000Y-14082039D01*
X10591686Y-13890353D01*
X10565870Y-13850093D01*
X10513929Y-13822535D01*
X10457609Y-13805640D01*
X10399075Y-13800057D01*
X10340577Y-13806001D01*
X10284362Y-13823243D01*
X10234130Y-13850093D01*
X10208314Y-13890353D01*
X10066000Y-13890353D01*
X10066000Y-13714806D01*
X11696500Y-13714806D01*
X11696500Y-13735194D01*
X11700477Y-13755190D01*
X11708279Y-13774026D01*
X11719606Y-13790977D01*
X11734023Y-13805394D01*
X11750974Y-13816720D01*
X11769810Y-13824523D01*
X11789806Y-13828500D01*
X11810194Y-13828500D01*
X11830190Y-13824523D01*
X11849026Y-13816720D01*
X11865977Y-13805394D01*
X11880394Y-13790977D01*
X11891720Y-13774026D01*
X11899523Y-13755190D01*
X11903500Y-13735194D01*
X11903500Y-13714806D01*
X11899523Y-13694810D01*
X11891720Y-13675974D01*
X11880394Y-13659023D01*
X11865977Y-13644606D01*
X11849026Y-13633279D01*
X11830190Y-13625477D01*
X11810194Y-13621500D01*
X11789806Y-13621500D01*
X11769810Y-13625477D01*
X11750974Y-13633279D01*
X11734023Y-13644606D01*
X11719606Y-13659023D01*
X11708279Y-13675974D01*
X11700477Y-13694810D01*
X11696500Y-13714806D01*
X10066000Y-13714806D01*
X10066000Y-13358755D01*
X11571318Y-13358755D01*
X11571318Y-13379143D01*
X11575295Y-13399138D01*
X11583097Y-13417974D01*
X11594424Y-13434926D01*
X11608840Y-13449342D01*
X11625792Y-13460669D01*
X11644628Y-13468471D01*
X11664624Y-13472449D01*
X11685012Y-13472449D01*
X11705008Y-13468471D01*
X11723843Y-13460669D01*
X11740795Y-13449342D01*
X11755212Y-13434926D01*
X11766538Y-13417974D01*
X11767851Y-13414806D01*
X11996500Y-13414806D01*
X11996500Y-13435194D01*
X12000477Y-13455190D01*
X12008279Y-13474026D01*
X12019606Y-13490977D01*
X12034023Y-13505394D01*
X12050974Y-13516720D01*
X12069810Y-13524523D01*
X12089806Y-13528500D01*
X12110194Y-13528500D01*
X12130190Y-13524523D01*
X12149026Y-13516720D01*
X12165977Y-13505394D01*
X12180394Y-13490977D01*
X12191720Y-13474026D01*
X12195539Y-13464806D01*
X12296500Y-13464806D01*
X12296500Y-13485194D01*
X12300477Y-13505190D01*
X12308279Y-13524026D01*
X12319606Y-13540977D01*
X12334023Y-13555394D01*
X12350974Y-13566720D01*
X12369810Y-13574523D01*
X12389806Y-13578500D01*
X12410194Y-13578500D01*
X12430190Y-13574523D01*
X12449026Y-13566720D01*
X12465977Y-13555394D01*
X12475000Y-13546371D01*
X12484023Y-13555394D01*
X12500974Y-13566720D01*
X12519810Y-13574523D01*
X12539806Y-13578500D01*
X12560194Y-13578500D01*
X12580190Y-13574523D01*
X12599026Y-13566720D01*
X12615977Y-13555394D01*
X12630394Y-13540977D01*
X12641720Y-13524026D01*
X12649523Y-13505190D01*
X12653500Y-13485194D01*
X12653500Y-13464806D01*
X12649523Y-13444810D01*
X12641720Y-13425974D01*
X12630394Y-13409023D01*
X12615977Y-13394606D01*
X12599026Y-13383279D01*
X12580190Y-13375477D01*
X12560194Y-13371500D01*
X12539806Y-13371500D01*
X12519810Y-13375477D01*
X12500974Y-13383279D01*
X12484023Y-13394606D01*
X12475000Y-13403629D01*
X12465977Y-13394606D01*
X12449026Y-13383279D01*
X12430190Y-13375477D01*
X12410194Y-13371500D01*
X12389806Y-13371500D01*
X12369810Y-13375477D01*
X12350974Y-13383279D01*
X12334023Y-13394606D01*
X12319606Y-13409023D01*
X12308279Y-13425974D01*
X12300477Y-13444810D01*
X12296500Y-13464806D01*
X12195539Y-13464806D01*
X12199523Y-13455190D01*
X12203500Y-13435194D01*
X12203500Y-13414806D01*
X12199523Y-13394810D01*
X12191720Y-13375974D01*
X12180394Y-13359023D01*
X12165977Y-13344606D01*
X12149026Y-13333279D01*
X12130190Y-13325477D01*
X12110194Y-13321500D01*
X12089806Y-13321500D01*
X12069810Y-13325477D01*
X12050974Y-13333279D01*
X12034023Y-13344606D01*
X12019606Y-13359023D01*
X12008279Y-13375974D01*
X12000477Y-13394810D01*
X11996500Y-13414806D01*
X11767851Y-13414806D01*
X11774340Y-13399138D01*
X11778318Y-13379143D01*
X11778318Y-13358755D01*
X11774340Y-13338759D01*
X11766538Y-13319923D01*
X11755212Y-13302971D01*
X11740795Y-13288555D01*
X11723843Y-13277228D01*
X11705008Y-13269426D01*
X11685012Y-13265449D01*
X11664624Y-13265449D01*
X11644628Y-13269426D01*
X11625792Y-13277228D01*
X11608840Y-13288555D01*
X11594424Y-13302971D01*
X11583097Y-13319923D01*
X11575295Y-13338759D01*
X11571318Y-13358755D01*
X10066000Y-13358755D01*
X10066000Y-13112306D01*
X10344000Y-13112306D01*
X10344000Y-13132694D01*
X10347977Y-13152690D01*
X10355780Y-13171526D01*
X10367106Y-13188477D01*
X10381523Y-13202894D01*
X10398474Y-13214220D01*
X10417310Y-13222023D01*
X10437306Y-13226000D01*
X10457694Y-13226000D01*
X10477690Y-13222023D01*
X10496526Y-13214220D01*
X10513477Y-13202894D01*
X10527894Y-13188477D01*
X10539221Y-13171526D01*
X10547023Y-13152690D01*
X10551000Y-13132694D01*
X10551000Y-13112306D01*
X10547023Y-13092310D01*
X10539221Y-13073474D01*
X10533429Y-13064806D01*
X11346500Y-13064806D01*
X11346500Y-13085194D01*
X11350477Y-13105190D01*
X11358279Y-13124026D01*
X11369606Y-13140977D01*
X11384023Y-13155394D01*
X11400974Y-13166720D01*
X11419810Y-13174523D01*
X11439806Y-13178500D01*
X11460194Y-13178500D01*
X11480190Y-13174523D01*
X11499026Y-13166720D01*
X11515977Y-13155394D01*
X11530394Y-13140977D01*
X11541720Y-13124026D01*
X11549523Y-13105190D01*
X11553500Y-13085194D01*
X11553500Y-13064806D01*
X11549523Y-13044810D01*
X11541720Y-13025974D01*
X11540940Y-13024806D01*
X11891500Y-13024806D01*
X11891500Y-13045194D01*
X11895477Y-13065190D01*
X11903279Y-13084026D01*
X11914606Y-13100977D01*
X11929023Y-13115394D01*
X11945974Y-13126720D01*
X11964810Y-13134523D01*
X11984806Y-13138500D01*
X12005194Y-13138500D01*
X12025190Y-13134523D01*
X12044026Y-13126720D01*
X12060977Y-13115394D01*
X12075394Y-13100977D01*
X12077205Y-13098266D01*
X12092310Y-13104523D01*
X12112306Y-13108500D01*
X12132694Y-13108500D01*
X12152690Y-13104523D01*
X12171526Y-13096720D01*
X12188477Y-13085394D01*
X12202894Y-13070977D01*
X12214220Y-13054026D01*
X12222023Y-13035190D01*
X12226000Y-13015194D01*
X12226000Y-12994806D01*
X12222023Y-12974810D01*
X12214220Y-12955974D01*
X12202894Y-12939023D01*
X12188477Y-12924606D01*
X12171526Y-12913279D01*
X12152690Y-12905477D01*
X12132694Y-12901500D01*
X12112306Y-12901500D01*
X12092310Y-12905477D01*
X12073474Y-12913279D01*
X12056523Y-12924606D01*
X12042106Y-12939023D01*
X12040295Y-12941734D01*
X12025190Y-12935477D01*
X12005194Y-12931500D01*
X11984806Y-12931500D01*
X11964810Y-12935477D01*
X11945974Y-12943279D01*
X11929023Y-12954606D01*
X11914606Y-12969023D01*
X11903279Y-12985974D01*
X11895477Y-13004810D01*
X11891500Y-13024806D01*
X11540940Y-13024806D01*
X11530394Y-13009023D01*
X11515977Y-12994606D01*
X11499026Y-12983279D01*
X11480190Y-12975477D01*
X11460194Y-12971500D01*
X11439806Y-12971500D01*
X11419810Y-12975477D01*
X11400974Y-12983279D01*
X11384023Y-12994606D01*
X11369606Y-13009023D01*
X11358279Y-13025974D01*
X11350477Y-13044810D01*
X11346500Y-13064806D01*
X10533429Y-13064806D01*
X10527894Y-13056523D01*
X10513477Y-13042106D01*
X10496526Y-13030779D01*
X10477690Y-13022977D01*
X10457694Y-13019000D01*
X10437306Y-13019000D01*
X10417310Y-13022977D01*
X10398474Y-13030779D01*
X10381523Y-13042106D01*
X10367106Y-13056523D01*
X10355780Y-13073474D01*
X10347977Y-13092310D01*
X10344000Y-13112306D01*
X10066000Y-13112306D01*
X10066000Y-12886851D01*
X10512500Y-12886851D01*
X10512500Y-12913149D01*
X10517630Y-12938940D01*
X10527694Y-12963236D01*
X10542304Y-12985101D01*
X10560899Y-13003696D01*
X10582764Y-13018306D01*
X10607060Y-13028370D01*
X10632851Y-13033500D01*
X10659149Y-13033500D01*
X10684941Y-13028370D01*
X10709236Y-13018306D01*
X10731101Y-13003696D01*
X10742671Y-12992127D01*
X10825834Y-12992127D01*
X10831780Y-13015504D01*
X10855624Y-13026593D01*
X10881174Y-13032818D01*
X10907447Y-13033939D01*
X10933434Y-13029912D01*
X10958137Y-13020893D01*
X10968220Y-13015504D01*
X10974166Y-12992127D01*
X10900000Y-12917960D01*
X10825834Y-12992127D01*
X10742671Y-12992127D01*
X10749696Y-12985101D01*
X10764306Y-12963236D01*
X10773162Y-12941856D01*
X10779107Y-12958137D01*
X10784496Y-12968220D01*
X10807873Y-12974166D01*
X10882040Y-12900000D01*
X10917961Y-12900000D01*
X10992127Y-12974166D01*
X11015504Y-12968220D01*
X11026593Y-12944376D01*
X11032818Y-12918826D01*
X11033939Y-12892553D01*
X11029913Y-12866566D01*
X11026646Y-12857618D01*
X11470165Y-12857618D01*
X11470165Y-12875051D01*
X11473566Y-12892149D01*
X11480237Y-12908255D01*
X11489923Y-12922750D01*
X11502250Y-12935077D01*
X11516745Y-12944762D01*
X11532851Y-12951434D01*
X11549949Y-12954835D01*
X11567382Y-12954835D01*
X11584480Y-12951434D01*
X11600586Y-12944762D01*
X11615081Y-12935077D01*
X11627408Y-12922750D01*
X11637093Y-12908255D01*
X11643764Y-12892149D01*
X11647165Y-12875051D01*
X11647165Y-12857618D01*
X11643764Y-12840520D01*
X11641397Y-12834806D01*
X12229000Y-12834806D01*
X12229000Y-12855194D01*
X12232977Y-12875190D01*
X12240779Y-12894026D01*
X12252106Y-12910977D01*
X12266523Y-12925394D01*
X12283474Y-12936720D01*
X12302310Y-12944523D01*
X12322306Y-12948500D01*
X12342694Y-12948500D01*
X12362690Y-12944523D01*
X12381526Y-12936720D01*
X12398477Y-12925394D01*
X12412894Y-12910977D01*
X12424220Y-12894026D01*
X12432023Y-12875190D01*
X12436000Y-12855194D01*
X12436000Y-12834806D01*
X12432023Y-12814810D01*
X12432021Y-12814806D01*
X12491500Y-12814806D01*
X12491500Y-12835194D01*
X12495477Y-12855190D01*
X12503279Y-12874026D01*
X12514606Y-12890977D01*
X12529023Y-12905394D01*
X12543399Y-12915000D01*
X12529023Y-12924606D01*
X12514606Y-12939023D01*
X12503279Y-12955974D01*
X12495477Y-12974810D01*
X12491500Y-12994806D01*
X12491500Y-13015194D01*
X12495477Y-13035190D01*
X12503279Y-13054026D01*
X12514606Y-13070977D01*
X12529023Y-13085394D01*
X12545974Y-13096720D01*
X12564810Y-13104523D01*
X12584806Y-13108500D01*
X12605194Y-13108500D01*
X12625190Y-13104523D01*
X12644026Y-13096720D01*
X12660977Y-13085394D01*
X12675394Y-13070977D01*
X12686720Y-13054026D01*
X12694523Y-13035190D01*
X12698500Y-13015194D01*
X12698500Y-12994806D01*
X12694523Y-12974810D01*
X12686720Y-12955974D01*
X12675394Y-12939023D01*
X12660977Y-12924606D01*
X12646600Y-12915000D01*
X12660977Y-12905394D01*
X12675394Y-12890977D01*
X12686720Y-12874026D01*
X12694523Y-12855190D01*
X12698500Y-12835194D01*
X12698500Y-12814806D01*
X12694523Y-12794810D01*
X12686720Y-12775974D01*
X12675394Y-12759023D01*
X12673952Y-12757581D01*
X12677803Y-12755008D01*
X12692219Y-12740592D01*
X12703546Y-12723640D01*
X12711348Y-12704804D01*
X12715325Y-12684808D01*
X12715325Y-12664421D01*
X12711348Y-12644425D01*
X12703546Y-12625589D01*
X12692219Y-12608637D01*
X12677803Y-12594221D01*
X12660851Y-12582894D01*
X12642015Y-12575092D01*
X12622019Y-12571114D01*
X12601631Y-12571114D01*
X12581636Y-12575092D01*
X12562800Y-12582894D01*
X12545848Y-12594221D01*
X12531432Y-12608637D01*
X12520105Y-12625589D01*
X12512303Y-12644425D01*
X12508325Y-12664421D01*
X12508325Y-12684808D01*
X12512303Y-12704804D01*
X12520105Y-12723640D01*
X12531432Y-12740592D01*
X12532873Y-12742033D01*
X12529023Y-12744606D01*
X12514606Y-12759023D01*
X12503279Y-12775974D01*
X12495477Y-12794810D01*
X12491500Y-12814806D01*
X12432021Y-12814806D01*
X12424220Y-12795974D01*
X12412894Y-12779023D01*
X12398477Y-12764606D01*
X12381526Y-12753279D01*
X12362690Y-12745477D01*
X12342694Y-12741500D01*
X12322306Y-12741500D01*
X12302310Y-12745477D01*
X12283474Y-12753279D01*
X12266523Y-12764606D01*
X12252106Y-12779023D01*
X12240779Y-12795974D01*
X12232977Y-12814810D01*
X12229000Y-12834806D01*
X11641397Y-12834806D01*
X11637093Y-12824414D01*
X11627408Y-12809919D01*
X11615081Y-12797592D01*
X11600586Y-12787907D01*
X11584480Y-12781236D01*
X11567382Y-12777835D01*
X11549949Y-12777835D01*
X11532851Y-12781236D01*
X11516745Y-12787907D01*
X11502250Y-12797592D01*
X11489923Y-12809919D01*
X11480237Y-12824414D01*
X11473566Y-12840520D01*
X11470165Y-12857618D01*
X11026646Y-12857618D01*
X11020894Y-12841863D01*
X11015504Y-12831780D01*
X10992127Y-12825834D01*
X10917961Y-12900000D01*
X10882040Y-12900000D01*
X10807873Y-12825834D01*
X10784496Y-12831780D01*
X10773407Y-12855624D01*
X10772929Y-12857583D01*
X10764306Y-12836764D01*
X10749696Y-12814899D01*
X10742671Y-12807873D01*
X10825834Y-12807873D01*
X10900000Y-12882039D01*
X10974166Y-12807873D01*
X10968220Y-12784496D01*
X10944376Y-12773407D01*
X10918826Y-12767182D01*
X10892553Y-12766061D01*
X10866566Y-12770087D01*
X10841863Y-12779106D01*
X10831780Y-12784496D01*
X10825834Y-12807873D01*
X10742671Y-12807873D01*
X10731101Y-12796304D01*
X10709236Y-12781694D01*
X10684941Y-12771630D01*
X10659149Y-12766500D01*
X10632851Y-12766500D01*
X10607060Y-12771630D01*
X10582764Y-12781694D01*
X10560899Y-12796304D01*
X10542304Y-12814899D01*
X10527694Y-12836764D01*
X10517630Y-12861059D01*
X10512500Y-12886851D01*
X10066000Y-12886851D01*
X10066000Y-12353500D01*
X10085194Y-12353500D01*
X10105190Y-12349523D01*
X10124026Y-12341720D01*
X10140977Y-12330394D01*
X10155394Y-12315977D01*
X10166721Y-12299026D01*
X10174523Y-12280190D01*
X10178500Y-12260194D01*
X10178500Y-12239806D01*
X10177799Y-12236283D01*
X10241500Y-12236283D01*
X10241500Y-12253716D01*
X10244901Y-12270814D01*
X10251572Y-12286920D01*
X10261258Y-12301415D01*
X10273585Y-12313742D01*
X10288080Y-12323428D01*
X10304186Y-12330099D01*
X10321284Y-12333500D01*
X10338717Y-12333500D01*
X10355815Y-12330099D01*
X10371921Y-12323428D01*
X10386416Y-12313742D01*
X10398742Y-12301415D01*
X10398831Y-12301283D01*
X10536500Y-12301283D01*
X10536500Y-12318716D01*
X10539901Y-12335814D01*
X10546572Y-12351920D01*
X10556258Y-12366415D01*
X10568585Y-12378742D01*
X10583080Y-12388428D01*
X10599186Y-12395099D01*
X10616284Y-12398500D01*
X10633717Y-12398500D01*
X10650815Y-12395099D01*
X10666921Y-12388428D01*
X10681416Y-12378742D01*
X10693742Y-12366415D01*
X10699714Y-12357478D01*
X10961611Y-12357478D01*
X10961611Y-12374911D01*
X10965012Y-12392009D01*
X10971683Y-12408115D01*
X10981369Y-12422610D01*
X10993696Y-12434937D01*
X11008191Y-12444622D01*
X11024297Y-12451293D01*
X11041395Y-12454694D01*
X11058828Y-12454694D01*
X11075926Y-12451293D01*
X11092032Y-12444622D01*
X11106527Y-12434937D01*
X11112089Y-12429374D01*
X11358766Y-12429374D01*
X11358766Y-12446807D01*
X11362167Y-12463905D01*
X11368838Y-12480011D01*
X11378523Y-12494506D01*
X11390850Y-12506833D01*
X11405345Y-12516518D01*
X11421451Y-12523190D01*
X11438549Y-12526591D01*
X11455982Y-12526591D01*
X11473080Y-12523190D01*
X11489186Y-12516518D01*
X11503681Y-12506833D01*
X11516008Y-12494506D01*
X11525694Y-12480011D01*
X11532365Y-12463905D01*
X11535766Y-12446807D01*
X11535766Y-12429374D01*
X11532365Y-12412276D01*
X11525694Y-12396170D01*
X11516008Y-12381675D01*
X11503681Y-12369348D01*
X11489186Y-12359663D01*
X11483497Y-12357306D01*
X11921500Y-12357306D01*
X11921500Y-12377694D01*
X11925477Y-12397690D01*
X11933279Y-12416526D01*
X11944606Y-12433477D01*
X11959023Y-12447894D01*
X11975974Y-12459220D01*
X11994810Y-12467023D01*
X12014806Y-12471000D01*
X12035194Y-12471000D01*
X12046500Y-12468751D01*
X12046500Y-12485194D01*
X12050477Y-12505190D01*
X12058279Y-12524026D01*
X12064621Y-12533516D01*
X12063956Y-12534181D01*
X12052629Y-12551133D01*
X12044827Y-12569969D01*
X12040850Y-12589965D01*
X12040850Y-12610352D01*
X12044827Y-12630348D01*
X12052629Y-12649184D01*
X12056575Y-12655089D01*
X12050477Y-12669810D01*
X12046500Y-12689806D01*
X12046500Y-12710194D01*
X12050477Y-12730190D01*
X12058279Y-12749026D01*
X12069606Y-12765977D01*
X12084023Y-12780394D01*
X12100974Y-12791720D01*
X12119810Y-12799523D01*
X12139806Y-12803500D01*
X12160194Y-12803500D01*
X12180190Y-12799523D01*
X12199026Y-12791720D01*
X12215977Y-12780394D01*
X12230394Y-12765977D01*
X12241720Y-12749026D01*
X12249523Y-12730190D01*
X12253500Y-12710194D01*
X12253500Y-12689806D01*
X12249523Y-12669810D01*
X12241720Y-12650974D01*
X12237775Y-12645069D01*
X12243872Y-12630348D01*
X12247850Y-12610352D01*
X12247850Y-12589965D01*
X12243872Y-12569969D01*
X12236070Y-12551133D01*
X12229729Y-12541642D01*
X12230394Y-12540977D01*
X12241720Y-12524026D01*
X12249523Y-12505190D01*
X12253500Y-12485194D01*
X12253500Y-12477306D01*
X12284000Y-12477306D01*
X12284000Y-12497694D01*
X12287977Y-12517690D01*
X12295779Y-12536526D01*
X12307106Y-12553477D01*
X12321523Y-12567894D01*
X12338474Y-12579220D01*
X12357310Y-12587023D01*
X12377306Y-12591000D01*
X12397694Y-12591000D01*
X12417690Y-12587023D01*
X12436526Y-12579220D01*
X12453477Y-12567894D01*
X12467894Y-12553477D01*
X12479220Y-12536526D01*
X12487023Y-12517690D01*
X12491000Y-12497694D01*
X12491000Y-12477306D01*
X12487023Y-12457310D01*
X12479220Y-12438474D01*
X12467894Y-12421523D01*
X12453477Y-12407106D01*
X12436526Y-12395779D01*
X12417690Y-12387977D01*
X12397694Y-12384000D01*
X12377306Y-12384000D01*
X12357310Y-12387977D01*
X12338474Y-12395779D01*
X12321523Y-12407106D01*
X12307106Y-12421523D01*
X12295779Y-12438474D01*
X12287977Y-12457310D01*
X12284000Y-12477306D01*
X12253500Y-12477306D01*
X12253500Y-12464806D01*
X12249523Y-12444810D01*
X12241720Y-12425974D01*
X12230394Y-12409023D01*
X12215977Y-12394606D01*
X12199026Y-12383279D01*
X12180190Y-12375477D01*
X12160194Y-12371500D01*
X12139806Y-12371500D01*
X12128500Y-12373749D01*
X12128500Y-12357306D01*
X12124523Y-12337310D01*
X12116720Y-12318474D01*
X12105394Y-12301523D01*
X12090977Y-12287106D01*
X12074026Y-12275779D01*
X12055190Y-12267977D01*
X12035194Y-12264000D01*
X12014806Y-12264000D01*
X11994810Y-12267977D01*
X11975974Y-12275779D01*
X11959023Y-12287106D01*
X11944606Y-12301523D01*
X11933279Y-12318474D01*
X11925477Y-12337310D01*
X11921500Y-12357306D01*
X11483497Y-12357306D01*
X11473080Y-12352992D01*
X11455982Y-12349591D01*
X11438549Y-12349591D01*
X11421451Y-12352992D01*
X11405345Y-12359663D01*
X11390850Y-12369348D01*
X11378523Y-12381675D01*
X11368838Y-12396170D01*
X11362167Y-12412276D01*
X11358766Y-12429374D01*
X11112089Y-12429374D01*
X11118853Y-12422610D01*
X11128539Y-12408115D01*
X11135210Y-12392009D01*
X11138611Y-12374911D01*
X11138611Y-12357478D01*
X11135210Y-12340380D01*
X11128539Y-12324274D01*
X11118853Y-12309779D01*
X11106527Y-12297452D01*
X11092032Y-12287767D01*
X11075926Y-12281095D01*
X11058828Y-12277694D01*
X11041395Y-12277694D01*
X11024297Y-12281095D01*
X11008191Y-12287767D01*
X10993696Y-12297452D01*
X10981369Y-12309779D01*
X10971683Y-12324274D01*
X10965012Y-12340380D01*
X10961611Y-12357478D01*
X10699714Y-12357478D01*
X10703428Y-12351920D01*
X10710099Y-12335814D01*
X10713500Y-12318716D01*
X10713500Y-12301283D01*
X10710099Y-12284185D01*
X10703428Y-12268079D01*
X10693742Y-12253584D01*
X10681416Y-12241258D01*
X10666921Y-12231572D01*
X10650815Y-12224901D01*
X10633717Y-12221500D01*
X10616284Y-12221500D01*
X10599186Y-12224901D01*
X10583080Y-12231572D01*
X10568585Y-12241258D01*
X10556258Y-12253584D01*
X10546572Y-12268079D01*
X10539901Y-12284185D01*
X10536500Y-12301283D01*
X10398831Y-12301283D01*
X10408428Y-12286920D01*
X10415099Y-12270814D01*
X10418500Y-12253716D01*
X10418500Y-12236283D01*
X10415099Y-12219185D01*
X10409313Y-12205217D01*
X10410319Y-12203712D01*
X10416503Y-12188783D01*
X10719000Y-12188783D01*
X10719000Y-12206216D01*
X10722401Y-12223314D01*
X10729072Y-12239420D01*
X10738758Y-12253915D01*
X10751085Y-12266242D01*
X10765580Y-12275928D01*
X10781686Y-12282599D01*
X10798784Y-12286000D01*
X10816217Y-12286000D01*
X10833315Y-12282599D01*
X10849421Y-12275928D01*
X10863916Y-12266242D01*
X10876242Y-12253915D01*
X10885928Y-12239420D01*
X10892599Y-12223314D01*
X10896000Y-12206216D01*
X10896000Y-12188783D01*
X10892599Y-12171685D01*
X10885928Y-12155579D01*
X10884753Y-12153821D01*
X11189000Y-12153821D01*
X11189000Y-12176179D01*
X11193362Y-12198107D01*
X11201918Y-12218762D01*
X11214339Y-12237352D01*
X11230148Y-12253161D01*
X11248738Y-12265582D01*
X11269393Y-12274138D01*
X11291321Y-12278500D01*
X11313679Y-12278500D01*
X11335607Y-12274138D01*
X11356262Y-12265582D01*
X11374852Y-12253161D01*
X11390661Y-12237352D01*
X11403082Y-12218762D01*
X11411638Y-12198107D01*
X11416000Y-12176179D01*
X11416000Y-12153821D01*
X11411638Y-12131893D01*
X11403082Y-12111238D01*
X11390661Y-12092648D01*
X11374852Y-12076839D01*
X11356262Y-12064418D01*
X11335607Y-12055862D01*
X11313679Y-12051500D01*
X11291321Y-12051500D01*
X11269393Y-12055862D01*
X11248738Y-12064418D01*
X11230148Y-12076839D01*
X11214339Y-12092648D01*
X11201918Y-12111238D01*
X11193362Y-12131893D01*
X11189000Y-12153821D01*
X10884753Y-12153821D01*
X10876242Y-12141084D01*
X10863916Y-12128758D01*
X10849421Y-12119072D01*
X10833315Y-12112401D01*
X10816217Y-12109000D01*
X10798784Y-12109000D01*
X10781686Y-12112401D01*
X10765580Y-12119072D01*
X10751085Y-12128758D01*
X10738758Y-12141084D01*
X10729072Y-12155579D01*
X10722401Y-12171685D01*
X10719000Y-12188783D01*
X10416503Y-12188783D01*
X10416990Y-12187606D01*
X10420391Y-12170508D01*
X10420391Y-12153075D01*
X10416990Y-12135977D01*
X10410319Y-12119871D01*
X10400634Y-12105376D01*
X10388307Y-12093049D01*
X10373812Y-12083363D01*
X10357706Y-12076692D01*
X10340608Y-12073291D01*
X10323175Y-12073291D01*
X10306077Y-12076692D01*
X10289971Y-12083363D01*
X10275476Y-12093049D01*
X10263149Y-12105376D01*
X10253464Y-12119871D01*
X10246792Y-12135977D01*
X10243391Y-12153075D01*
X10243391Y-12170508D01*
X10246792Y-12187606D01*
X10252578Y-12201574D01*
X10251572Y-12203079D01*
X10244901Y-12219185D01*
X10241500Y-12236283D01*
X10177799Y-12236283D01*
X10174523Y-12219810D01*
X10166721Y-12200974D01*
X10155394Y-12184023D01*
X10140977Y-12169606D01*
X10124026Y-12158279D01*
X10105190Y-12150477D01*
X10097756Y-12148999D01*
X10107690Y-12147023D01*
X10126526Y-12139220D01*
X10143477Y-12127894D01*
X10157894Y-12113477D01*
X10169221Y-12096526D01*
X10177023Y-12077690D01*
X10181000Y-12057694D01*
X10181000Y-12037306D01*
X10177023Y-12017310D01*
X10169221Y-11998474D01*
X10157894Y-11981523D01*
X10143477Y-11967106D01*
X10126526Y-11955779D01*
X10107690Y-11947977D01*
X10087694Y-11944000D01*
X10067306Y-11944000D01*
X10066000Y-11944260D01*
X10066000Y-11892306D01*
X10231500Y-11892306D01*
X10231500Y-11912694D01*
X10235477Y-11932690D01*
X10243279Y-11951526D01*
X10254606Y-11968477D01*
X10269022Y-11982894D01*
X10285974Y-11994220D01*
X10304810Y-12002023D01*
X10324806Y-12006000D01*
X10345194Y-12006000D01*
X10365190Y-12002023D01*
X10384025Y-11994220D01*
X10400977Y-11982894D01*
X10415394Y-11968477D01*
X10426720Y-11951526D01*
X10434522Y-11932690D01*
X10438500Y-11912694D01*
X10438500Y-11897573D01*
X10683913Y-11897573D01*
X10683913Y-11915006D01*
X10687314Y-11932104D01*
X10693985Y-11948210D01*
X10703671Y-11962705D01*
X10715998Y-11975032D01*
X10730493Y-11984717D01*
X10746599Y-11991388D01*
X10763697Y-11994789D01*
X10781130Y-11994789D01*
X10798228Y-11991388D01*
X10814334Y-11984717D01*
X10828829Y-11975032D01*
X10841155Y-11962705D01*
X10850841Y-11948210D01*
X10857512Y-11932104D01*
X10860913Y-11915006D01*
X10860913Y-11897573D01*
X10860500Y-11895498D01*
X11101859Y-11895498D01*
X11101859Y-11916871D01*
X11106028Y-11937833D01*
X11114207Y-11957579D01*
X11126081Y-11975349D01*
X11141194Y-11990462D01*
X11158965Y-12002336D01*
X11178710Y-12010515D01*
X11199672Y-12014685D01*
X11221045Y-12014685D01*
X11242007Y-12010515D01*
X11261753Y-12002336D01*
X11279523Y-11990462D01*
X11294636Y-11975349D01*
X11306510Y-11957579D01*
X11314689Y-11937833D01*
X11318859Y-11916871D01*
X11318859Y-11895498D01*
X11314689Y-11874536D01*
X11306510Y-11854791D01*
X11294636Y-11837020D01*
X11279523Y-11821907D01*
X11261753Y-11810033D01*
X11242007Y-11801854D01*
X11221045Y-11797685D01*
X11199672Y-11797685D01*
X11178710Y-11801854D01*
X11158965Y-11810033D01*
X11141194Y-11821907D01*
X11126081Y-11837020D01*
X11114207Y-11854791D01*
X11106028Y-11874536D01*
X11101859Y-11895498D01*
X10860500Y-11895498D01*
X10857512Y-11880475D01*
X10850841Y-11864369D01*
X10841155Y-11849874D01*
X10828829Y-11837547D01*
X10814334Y-11827862D01*
X10798228Y-11821190D01*
X10781130Y-11817789D01*
X10763697Y-11817789D01*
X10746599Y-11821190D01*
X10730493Y-11827862D01*
X10715998Y-11837547D01*
X10703671Y-11849874D01*
X10693985Y-11864369D01*
X10687314Y-11880475D01*
X10683913Y-11897573D01*
X10438500Y-11897573D01*
X10438500Y-11892306D01*
X10434522Y-11872310D01*
X10426720Y-11853474D01*
X10415394Y-11836523D01*
X10400977Y-11822106D01*
X10384025Y-11810779D01*
X10365190Y-11802977D01*
X10345194Y-11799000D01*
X10324806Y-11799000D01*
X10304810Y-11802977D01*
X10285974Y-11810779D01*
X10269022Y-11822106D01*
X10254606Y-11836523D01*
X10243279Y-11853474D01*
X10235477Y-11872310D01*
X10231500Y-11892306D01*
X10066000Y-11892306D01*
X10066000Y-11509647D01*
X12408314Y-11509647D01*
X12434130Y-11549907D01*
X12486071Y-11577465D01*
X12542391Y-11594360D01*
X12600925Y-11599943D01*
X12659423Y-11593999D01*
X12715638Y-11576757D01*
X12765870Y-11549907D01*
X12791686Y-11509647D01*
X12600000Y-11317960D01*
X12408314Y-11509647D01*
X10066000Y-11509647D01*
X10066000Y-11300925D01*
X12300057Y-11300925D01*
X12306001Y-11359423D01*
X12323243Y-11415638D01*
X12350093Y-11465870D01*
X12390353Y-11491686D01*
X12582039Y-11300000D01*
X12617960Y-11300000D01*
X12809647Y-11491686D01*
X12849907Y-11465870D01*
X12877465Y-11413928D01*
X12894360Y-11357609D01*
X12899943Y-11299075D01*
X12893999Y-11240577D01*
X12876757Y-11184362D01*
X12849907Y-11134130D01*
X12809647Y-11108314D01*
X12617960Y-11300000D01*
X12582039Y-11300000D01*
X12390353Y-11108314D01*
X12350093Y-11134130D01*
X12322535Y-11186071D01*
X12305640Y-11242391D01*
X12300057Y-11300925D01*
X10066000Y-11300925D01*
X10066000Y-11090353D01*
X12408314Y-11090353D01*
X12600000Y-11282039D01*
X12791686Y-11090353D01*
X12765870Y-11050093D01*
X12713928Y-11022535D01*
X12657609Y-11005640D01*
X12599075Y-11000057D01*
X12540577Y-11006001D01*
X12484362Y-11023243D01*
X12434130Y-11050093D01*
X12408314Y-11090353D01*
X10066000Y-11090353D01*
X10066000Y-10542306D01*
X12021500Y-10542306D01*
X12021500Y-10562694D01*
X12025477Y-10582690D01*
X12033279Y-10601526D01*
X12044606Y-10618477D01*
X12059023Y-10632894D01*
X12075974Y-10644221D01*
X12094810Y-10652023D01*
X12114806Y-10656000D01*
X12135194Y-10656000D01*
X12155190Y-10652023D01*
X12174026Y-10644221D01*
X12190977Y-10632894D01*
X12205394Y-10618477D01*
X12216720Y-10601526D01*
X12224523Y-10582690D01*
X12228500Y-10562694D01*
X12228500Y-10542306D01*
X12224523Y-10522310D01*
X12216720Y-10503474D01*
X12205394Y-10486523D01*
X12190977Y-10472106D01*
X12174026Y-10460780D01*
X12155190Y-10452977D01*
X12135194Y-10449000D01*
X12114806Y-10449000D01*
X12094810Y-10452977D01*
X12075974Y-10460780D01*
X12059023Y-10472106D01*
X12044606Y-10486523D01*
X12033279Y-10503474D01*
X12025477Y-10522310D01*
X12021500Y-10542306D01*
X10066000Y-10542306D01*
X10066000Y-10289806D01*
X10596500Y-10289806D01*
X10596500Y-10310194D01*
X10600477Y-10330190D01*
X10608280Y-10349026D01*
X10619606Y-10365977D01*
X10634023Y-10380394D01*
X10650974Y-10391721D01*
X10669810Y-10399523D01*
X10689806Y-10403500D01*
X10710194Y-10403500D01*
X10730190Y-10399523D01*
X10749026Y-10391721D01*
X10765977Y-10380394D01*
X10780394Y-10365977D01*
X10791721Y-10349026D01*
X10799523Y-10330190D01*
X10803500Y-10310194D01*
X10803500Y-10293806D01*
X10842500Y-10293806D01*
X10842500Y-10314194D01*
X10846477Y-10334190D01*
X10854280Y-10353026D01*
X10865606Y-10369977D01*
X10880023Y-10384394D01*
X10896974Y-10395721D01*
X10915810Y-10403523D01*
X10935806Y-10407500D01*
X10956194Y-10407500D01*
X10976190Y-10403523D01*
X10995026Y-10395721D01*
X11011977Y-10384394D01*
X11026394Y-10369977D01*
X11037721Y-10353026D01*
X11037792Y-10352853D01*
X12250939Y-10352853D01*
X12255140Y-10381802D01*
X12264908Y-10409375D01*
X12272253Y-10423116D01*
X12297160Y-10430879D01*
X12382039Y-10346000D01*
X12417960Y-10346000D01*
X12502840Y-10430879D01*
X12527000Y-10423349D01*
X12551160Y-10430879D01*
X12636039Y-10346000D01*
X12671960Y-10346000D01*
X12756840Y-10430879D01*
X12781000Y-10423349D01*
X12805160Y-10430879D01*
X12890039Y-10346000D01*
X12925960Y-10346000D01*
X13010840Y-10430879D01*
X13035000Y-10423349D01*
X13059160Y-10430879D01*
X13144039Y-10346000D01*
X13179960Y-10346000D01*
X13264840Y-10430879D01*
X13289747Y-10423116D01*
X13302337Y-10396712D01*
X13309534Y-10368359D01*
X13311061Y-10339147D01*
X13306860Y-10310198D01*
X13297092Y-10282625D01*
X13289747Y-10268884D01*
X13264840Y-10261121D01*
X13179960Y-10346000D01*
X13144039Y-10346000D01*
X13059160Y-10261121D01*
X13035000Y-10268651D01*
X13010840Y-10261121D01*
X12925960Y-10346000D01*
X12890039Y-10346000D01*
X12805160Y-10261121D01*
X12781000Y-10268651D01*
X12756840Y-10261121D01*
X12671960Y-10346000D01*
X12636039Y-10346000D01*
X12551160Y-10261121D01*
X12527000Y-10268651D01*
X12502840Y-10261121D01*
X12417960Y-10346000D01*
X12382039Y-10346000D01*
X12297160Y-10261121D01*
X12272253Y-10268884D01*
X12259663Y-10295288D01*
X12252466Y-10323641D01*
X12250939Y-10352853D01*
X11037792Y-10352853D01*
X11045523Y-10334190D01*
X11049500Y-10314194D01*
X11049500Y-10293806D01*
X11045523Y-10273810D01*
X11037721Y-10254974D01*
X11029827Y-10243160D01*
X12315121Y-10243160D01*
X12400000Y-10328040D01*
X12484879Y-10243160D01*
X12569121Y-10243160D01*
X12654000Y-10328040D01*
X12738879Y-10243160D01*
X12823121Y-10243160D01*
X12908000Y-10328040D01*
X12992879Y-10243160D01*
X13077121Y-10243160D01*
X13162000Y-10328040D01*
X13246879Y-10243160D01*
X13239116Y-10218253D01*
X13212712Y-10205663D01*
X13184359Y-10198466D01*
X13155147Y-10196939D01*
X13126198Y-10201140D01*
X13098625Y-10210908D01*
X13084884Y-10218253D01*
X13077121Y-10243160D01*
X12992879Y-10243160D01*
X12985116Y-10218253D01*
X12958712Y-10205663D01*
X12930359Y-10198466D01*
X12901147Y-10196939D01*
X12872198Y-10201140D01*
X12844625Y-10210908D01*
X12830884Y-10218253D01*
X12823121Y-10243160D01*
X12738879Y-10243160D01*
X12731116Y-10218253D01*
X12704712Y-10205663D01*
X12676359Y-10198466D01*
X12647147Y-10196939D01*
X12618198Y-10201140D01*
X12590625Y-10210908D01*
X12576884Y-10218253D01*
X12569121Y-10243160D01*
X12484879Y-10243160D01*
X12477116Y-10218253D01*
X12450712Y-10205663D01*
X12422359Y-10198466D01*
X12393147Y-10196939D01*
X12364198Y-10201140D01*
X12336625Y-10210908D01*
X12322884Y-10218253D01*
X12315121Y-10243160D01*
X11029827Y-10243160D01*
X11026394Y-10238023D01*
X11011977Y-10223606D01*
X10995026Y-10212280D01*
X10976190Y-10204477D01*
X10956194Y-10200500D01*
X10935806Y-10200500D01*
X10915810Y-10204477D01*
X10896974Y-10212280D01*
X10880023Y-10223606D01*
X10865606Y-10238023D01*
X10854280Y-10254974D01*
X10846477Y-10273810D01*
X10842500Y-10293806D01*
X10803500Y-10293806D01*
X10803500Y-10289806D01*
X10799523Y-10269810D01*
X10791721Y-10250974D01*
X10780394Y-10234023D01*
X10765977Y-10219606D01*
X10749026Y-10208280D01*
X10730190Y-10200477D01*
X10710194Y-10196500D01*
X10689806Y-10196500D01*
X10669810Y-10200477D01*
X10650974Y-10208280D01*
X10634023Y-10219606D01*
X10619606Y-10234023D01*
X10608280Y-10250974D01*
X10600477Y-10269810D01*
X10596500Y-10289806D01*
X10066000Y-10289806D01*
X10066000Y-10066000D01*
X13334000Y-10066000D01*
X13334000Y-10446500D01*
G37*
%TD.AperFunction*%
%TD*%
M02*
