M48
; DRILL file {KiCad 5.1.12-1.fc35} date Fri 07 Jan 2022 18:51:06 GMT
; FORMAT={-:-/ absolute / metric / decimal}
; #@! TF.CreationDate,2022-01-07T18:51:06+00:00
; #@! TF.GenerationSoftware,Kicad,Pcbnew,5.1.12-1.fc35
; #@! TF.FileFunction,Plated,1,4,PTH
FMAT,2
METRIC
T1C0.250
T2C0.400
T3C0.500
T4C0.800
T5C1.000
T6C2.700
%
G90
G05
T1
X103.3Y-122.45
X103.319Y-121.618
X104.05Y-119.75
X105.4Y-118.025
X106.1Y-120.95
X106.125Y-120.2
X106.25Y-123.1
X106.5Y-120.575
X106.875Y-120.2
X106.875Y-120.95
X107.724Y-119.063
X108.075Y-121.975
X108.275Y-124.325
X110.501Y-123.662
X114.473Y-124.381
X115.587Y-128.663
X117.15Y-125.0
X117.15Y-127.0
X117.175Y-126.025
X117.325Y-128.125
X117.375Y-125.525
X117.375Y-127.45
X117.4Y-126.525
X117.65Y-125.0
X117.675Y-127.0
X117.7Y-126.025
X117.9Y-125.525
X117.9Y-127.45
X117.925Y-126.525
X118.175Y-125.0
X118.175Y-127.0
X118.2Y-126.025
X118.4Y-125.525
X118.4Y-127.45
X118.425Y-126.525
X118.525Y-128.075
T2
X100.75Y-122.5
X100.775Y-120.475
X101.75Y-125.0
X102.5Y-129.5
X103.35Y-119.025
X104.475Y-131.225
X105.023Y-122.1
X107.0Y-103.0
X107.0Y-113.0
X107.275Y-123.075
X109.294Y-123.844
X109.46Y-103.04
X109.5Y-113.0
X110.145Y-121.645
X112.0Y-113.0
X112.78Y-142.78
X113.325Y-118.425
X114.5Y-130.75
X116.0Y-136.45
X116.25Y-141.0
X116.748Y-133.689
X117.666Y-129.575
X118.0Y-137.25
X118.0Y-141.75
X119.025Y-123.15
X119.95Y-130.35
X121.0Y-134.25
X121.0Y-138.75
X121.225Y-130.05
X121.25Y-105.525
X121.443Y-126.002
X121.5Y-124.75
X121.5Y-127.0
X122.5Y-139.75
X123.051Y-138.706
X123.325Y-128.45
X123.5Y-132.75
X123.75Y-122.75
X123.875Y-124.875
X124.0Y-134.75
X124.25Y-130.525
X125.5Y-134.75
X125.5Y-142.25
X125.95Y-122.85
X125.95Y-124.85
X125.95Y-128.25
X125.95Y-130.05
X126.118Y-126.746
X126.6Y-141.475
X126.75Y-116.25
X126.75Y-124.05
X129.25Y-116.25
X130.3Y-126.4
X130.7Y-129.5
X130.85Y-132.3
X130.953Y-124.375
X131.25Y-116.25
X131.95Y-124.05
X131.95Y-125.05
X133.375Y-105.5
T3
X102.0Y-138.0
X110.375Y-117.425
X112.104Y-119.062
X113.025Y-121.65
T4
X106.46Y-129.0
X109.0Y-129.0
T5
X124.0Y-103.46
X124.0Y-106.0
X126.54Y-103.46
X126.54Y-106.0
X129.08Y-103.46
X129.08Y-106.0
X131.62Y-103.46
X131.62Y-106.0
T6
X104.0Y-141.0
X126.0Y-113.0
X130.0Y-141.0
T0
M30
