%TF.GenerationSoftware,KiCad,Pcbnew,6.0.4-1.fc35*%
%TF.CreationDate,2022-04-05T09:58:44+01:00*%
%TF.ProjectId,cryosub_power_converter_top_v03,6372796f-7375-4625-9f70-6f7765725f63,rev?*%
%TF.SameCoordinates,Original*%
%TF.FileFunction,Copper,L1,Top*%
%TF.FilePolarity,Positive*%
%FSLAX45Y45*%
G04 Gerber Fmt 4.5, Leading zero omitted, Abs format (unit mm)*
G04 Created by KiCad (PCBNEW 6.0.4-1.fc35) date 2022-04-05 09:58:44*
%MOMM*%
%LPD*%
G01*
G04 APERTURE LIST*
G04 Aperture macros list*
%AMRoundRect*
0 Rectangle with rounded corners*
0 $1 Rounding radius*
0 $2 $3 $4 $5 $6 $7 $8 $9 X,Y pos of 4 corners*
0 Add a 4 corners polygon primitive as box body*
4,1,4,$2,$3,$4,$5,$6,$7,$8,$9,$2,$3,0*
0 Add four circle primitives for the rounded corners*
1,1,$1+$1,$2,$3*
1,1,$1+$1,$4,$5*
1,1,$1+$1,$6,$7*
1,1,$1+$1,$8,$9*
0 Add four rect primitives between the rounded corners*
20,1,$1+$1,$2,$3,$4,$5,0*
20,1,$1+$1,$4,$5,$6,$7,0*
20,1,$1+$1,$6,$7,$8,$9,0*
20,1,$1+$1,$8,$9,$2,$3,0*%
%AMFreePoly0*
4,1,21,1.372500,0.787500,0.862500,0.787500,0.862500,0.532500,1.372500,0.532500,1.372500,0.127500,0.862500,0.127500,0.862500,-0.127500,1.372500,-0.127500,1.372500,-0.532500,0.862500,-0.532500,0.862500,-0.787500,1.372500,-0.787500,1.372500,-1.195000,0.612500,-1.195000,0.612500,-1.117500,-0.862500,-1.117500,-0.862500,1.117500,0.612500,1.117500,0.612500,1.195000,1.372500,1.195000,
1.372500,0.787500,1.372500,0.787500,$1*%
G04 Aperture macros list end*
%TA.AperFunction,SMDPad,CuDef*%
%ADD10RoundRect,0.237500X0.250000X0.237500X-0.250000X0.237500X-0.250000X-0.237500X0.250000X-0.237500X0*%
%TD*%
%TA.AperFunction,SMDPad,CuDef*%
%ADD11RoundRect,0.237500X-0.250000X-0.237500X0.250000X-0.237500X0.250000X0.237500X-0.250000X0.237500X0*%
%TD*%
%TA.AperFunction,SMDPad,CuDef*%
%ADD12RoundRect,0.075000X0.075000X-0.650000X0.075000X0.650000X-0.075000X0.650000X-0.075000X-0.650000X0*%
%TD*%
%TA.AperFunction,SMDPad,CuDef*%
%ADD13R,1.880000X1.680000*%
%TD*%
%TA.AperFunction,SMDPad,CuDef*%
%ADD14R,0.900000X0.800000*%
%TD*%
%TA.AperFunction,SMDPad,CuDef*%
%ADD15RoundRect,0.225000X-0.250000X0.225000X-0.250000X-0.225000X0.250000X-0.225000X0.250000X0.225000X0*%
%TD*%
%TA.AperFunction,SMDPad,CuDef*%
%ADD16RoundRect,0.225000X0.250000X-0.225000X0.250000X0.225000X-0.250000X0.225000X-0.250000X-0.225000X0*%
%TD*%
%TA.AperFunction,SMDPad,CuDef*%
%ADD17RoundRect,0.250000X0.475000X-0.337500X0.475000X0.337500X-0.475000X0.337500X-0.475000X-0.337500X0*%
%TD*%
%TA.AperFunction,SMDPad,CuDef*%
%ADD18RoundRect,0.237500X0.237500X-0.250000X0.237500X0.250000X-0.237500X0.250000X-0.237500X-0.250000X0*%
%TD*%
%TA.AperFunction,SMDPad,CuDef*%
%ADD19RoundRect,0.250000X-0.337500X-0.475000X0.337500X-0.475000X0.337500X0.475000X-0.337500X0.475000X0*%
%TD*%
%TA.AperFunction,SMDPad,CuDef*%
%ADD20R,0.807999X0.254800*%
%TD*%
%TA.AperFunction,SMDPad,CuDef*%
%ADD21R,0.254800X0.807999*%
%TD*%
%TA.AperFunction,SMDPad,CuDef*%
%ADD22R,1.244600X1.244600*%
%TD*%
%TA.AperFunction,SMDPad,CuDef*%
%ADD23RoundRect,0.225000X0.225000X0.250000X-0.225000X0.250000X-0.225000X-0.250000X0.225000X-0.250000X0*%
%TD*%
%TA.AperFunction,SMDPad,CuDef*%
%ADD24RoundRect,0.225000X-0.225000X-0.250000X0.225000X-0.250000X0.225000X0.250000X-0.225000X0.250000X0*%
%TD*%
%TA.AperFunction,SMDPad,CuDef*%
%ADD25R,3.200001X1.000001*%
%TD*%
%TA.AperFunction,SMDPad,CuDef*%
%ADD26RoundRect,0.200000X-0.275000X0.200000X-0.275000X-0.200000X0.275000X-0.200000X0.275000X0.200000X0*%
%TD*%
%TA.AperFunction,SMDPad,CuDef*%
%ADD27RoundRect,0.200000X0.200000X0.275000X-0.200000X0.275000X-0.200000X-0.275000X0.200000X-0.275000X0*%
%TD*%
%TA.AperFunction,SMDPad,CuDef*%
%ADD28R,1.327899X0.279400*%
%TD*%
%TA.AperFunction,SMDPad,CuDef*%
%ADD29R,1.752600X2.946400*%
%TD*%
%TA.AperFunction,ComponentPad*%
%ADD30C,1.000000*%
%TD*%
%TA.AperFunction,SMDPad,CuDef*%
%ADD31R,1.000001X3.200001*%
%TD*%
%TA.AperFunction,SMDPad,CuDef*%
%ADD32RoundRect,0.218750X-0.256250X0.218750X-0.256250X-0.218750X0.256250X-0.218750X0.256250X0.218750X0*%
%TD*%
%TA.AperFunction,SMDPad,CuDef*%
%ADD33RoundRect,0.200000X-0.200000X-0.275000X0.200000X-0.275000X0.200000X0.275000X-0.200000X0.275000X0*%
%TD*%
%TA.AperFunction,ComponentPad*%
%ADD34C,1.400000*%
%TD*%
%TA.AperFunction,ComponentPad*%
%ADD35C,4.700000*%
%TD*%
%TA.AperFunction,SMDPad,CuDef*%
%ADD36RoundRect,0.218750X0.218750X0.256250X-0.218750X0.256250X-0.218750X-0.256250X0.218750X-0.256250X0*%
%TD*%
%TA.AperFunction,ComponentPad*%
%ADD37RoundRect,0.250000X0.600000X-0.600000X0.600000X0.600000X-0.600000X0.600000X-0.600000X-0.600000X0*%
%TD*%
%TA.AperFunction,ComponentPad*%
%ADD38C,1.700000*%
%TD*%
%TA.AperFunction,SMDPad,CuDef*%
%ADD39R,0.900000X1.200000*%
%TD*%
%TA.AperFunction,SMDPad,CuDef*%
%ADD40R,0.405000X0.990000*%
%TD*%
%TA.AperFunction,SMDPad,CuDef*%
%ADD41FreePoly0,90.000000*%
%TD*%
%TA.AperFunction,SMDPad,CuDef*%
%ADD42R,1.200000X0.900000*%
%TD*%
%TA.AperFunction,ViaPad*%
%ADD43C,0.500000*%
%TD*%
%TA.AperFunction,ViaPad*%
%ADD44C,0.800000*%
%TD*%
%TA.AperFunction,ViaPad*%
%ADD45C,0.900000*%
%TD*%
%TA.AperFunction,Conductor*%
%ADD46C,0.500000*%
%TD*%
%TA.AperFunction,Conductor*%
%ADD47C,0.250000*%
%TD*%
%TA.AperFunction,Conductor*%
%ADD48C,0.150000*%
%TD*%
G04 APERTURE END LIST*
D10*
%TO.P,R8,1*%
%TO.N,VDC*%
X12550000Y-14075000D03*
%TO.P,R8,2*%
%TO.N,/On When Warm/vd2*%
X12367500Y-14075000D03*
%TD*%
D11*
%TO.P,R3,1*%
%TO.N,/On When Warm/vg1*%
X12058750Y-13330000D03*
%TO.P,R3,2*%
%TO.N,GND*%
X12241250Y-13330000D03*
%TD*%
D10*
%TO.P,R4,1*%
%TO.N,VDC*%
X12550000Y-13625000D03*
%TO.P,R4,2*%
%TO.N,/On When Warm/VD1*%
X12367500Y-13625000D03*
%TD*%
D12*
%TO.P,U1,1,IN*%
%TO.N,VDC*%
X12775000Y-12640000D03*
%TO.P,U1,2,IN*%
X12825000Y-12640000D03*
%TO.P,U1,3,EN/UV*%
X12875000Y-12640000D03*
%TO.P,U1,4,PG*%
%TO.N,unconnected-(U1-Pad4)*%
X12925000Y-12640000D03*
%TO.P,U1,5,ILIM*%
%TO.N,GND*%
X12975000Y-12640000D03*
%TO.P,U1,6,PGFB*%
%TO.N,VDC*%
X12975000Y-12210000D03*
%TO.P,U1,7,SET*%
%TO.N,Net-(C1-Pad1)*%
X12925000Y-12210000D03*
%TO.P,U1,8,GND*%
%TO.N,GND*%
X12875000Y-12210000D03*
%TO.P,U1,9,OUTS*%
%TO.N,/p5v_out*%
X12825000Y-12210000D03*
%TO.P,U1,10,OUT*%
X12775000Y-12210000D03*
D13*
%TO.P,U1,11,GND*%
%TO.N,GND*%
X12875000Y-12425000D03*
%TD*%
D14*
%TO.P,Q1,1,G*%
%TO.N,/On When Warm/vg1*%
X11900000Y-13525000D03*
%TO.P,Q1,2,S*%
%TO.N,/On When Warm/vs*%
X11900000Y-13715000D03*
%TO.P,Q1,3,D*%
%TO.N,/On When Warm/VD1*%
X12100000Y-13620000D03*
%TD*%
D15*
%TO.P,C6,1*%
%TO.N,/vload*%
X10200000Y-13468750D03*
%TO.P,C6,2*%
%TO.N,GND*%
X10200000Y-13623750D03*
%TD*%
D11*
%TO.P,R2,1*%
%TO.N,VDC*%
X11717500Y-13360000D03*
%TO.P,R2,2*%
%TO.N,/On When Warm/vg1*%
X11900000Y-13360000D03*
%TD*%
D16*
%TO.P,C1,1*%
%TO.N,Net-(C1-Pad1)*%
X13100000Y-11913750D03*
%TO.P,C1,2*%
%TO.N,GND*%
X13100000Y-11758750D03*
%TD*%
D17*
%TO.P,C3,1*%
%TO.N,/p5v_out*%
X12700000Y-11925000D03*
%TO.P,C3,2*%
%TO.N,GND*%
X12700000Y-11717500D03*
%TD*%
D18*
%TO.P,R1,1*%
%TO.N,Net-(C1-Pad1)*%
X12925000Y-11925000D03*
%TO.P,R1,2*%
%TO.N,GND*%
X12925000Y-11742500D03*
%TD*%
D19*
%TO.P,C2,1*%
%TO.N,VDC*%
X12775000Y-12950000D03*
%TO.P,C2,2*%
%TO.N,GND*%
X12982500Y-12950000D03*
%TD*%
D15*
%TO.P,C5,1*%
%TO.N,/vload*%
X11267500Y-13555000D03*
%TO.P,C5,2*%
%TO.N,Net-(C5-Pad2)*%
X11267500Y-13710000D03*
%TD*%
D14*
%TO.P,Q2,1,G*%
%TO.N,/thermistor*%
X11900000Y-13985000D03*
%TO.P,Q2,2,S*%
%TO.N,/On When Warm/vs*%
X11900000Y-14175000D03*
%TO.P,Q2,3,D*%
%TO.N,/On When Warm/vd2*%
X12100000Y-14080000D03*
%TD*%
D11*
%TO.P,R10,1*%
%TO.N,Net-(C5-Pad2)*%
X11475000Y-14325000D03*
%TO.P,R10,2*%
%TO.N,/On When Warm/VD1*%
X11657500Y-14325000D03*
%TD*%
D20*
%TO.P,U3,1,PGND*%
%TO.N,GND*%
X10505460Y-11982500D03*
%TO.P,U3,2,IN*%
%TO.N,Net-(C14-Pad1)*%
X10505460Y-12032500D03*
%TO.P,U3,3,\u002ASHDN*%
%TO.N,+5V*%
X10505460Y-12082500D03*
%TO.P,U3,4,SGND*%
%TO.N,GND*%
X10505460Y-12132500D03*
D21*
%TO.P,U3,5,FB*%
%TO.N,Net-(R16-Pad2)*%
X10575000Y-12202040D03*
%TO.P,U3,6,CNTRL*%
%TO.N,Net-(C14-Pad1)*%
X10625000Y-12202040D03*
%TO.P,U3,7,\u002AILIM*%
%TO.N,/sipm_dcdc/ilim\u002A*%
X10675000Y-12202040D03*
%TO.P,U3,8,SGND*%
%TO.N,GND*%
X10725000Y-12202040D03*
D20*
%TO.P,U3,9,RLIM*%
%TO.N,Net-(R14-Pad1)*%
X10794540Y-12132500D03*
%TO.P,U3,10,MOUT*%
%TO.N,/sipm_dcdc/imon*%
X10794540Y-12082500D03*
%TO.P,U3,11,CLAMP*%
%TO.N,unconnected-(U3-Pad11)*%
X10794540Y-12032500D03*
%TO.P,U3,12,APD*%
%TO.N,Net-(L5-Pad2)*%
X10794540Y-11982500D03*
D21*
%TO.P,U3,13,BIAS*%
%TO.N,Net-(C18-Pad1)*%
X10725000Y-11912960D03*
%TO.P,U3,14,LX*%
%TO.N,Net-(D3-Pad2)*%
X10675000Y-11912960D03*
%TO.P,U3,15,LX*%
X10625000Y-11912960D03*
%TO.P,U3,16,PGND*%
%TO.N,GND*%
X10575000Y-11912960D03*
D22*
%TO.P,U3,17,EPAD*%
X10650000Y-12057500D03*
%TD*%
D23*
%TO.P,C9,1*%
%TO.N,/dc_dc/vcc*%
X12067500Y-12940000D03*
%TO.P,C9,2*%
%TO.N,GND*%
X11912500Y-12940000D03*
%TD*%
D15*
%TO.P,C13,1*%
%TO.N,+5V*%
X10175000Y-12250000D03*
%TO.P,C13,2*%
%TO.N,GND*%
X10175000Y-12405000D03*
%TD*%
D23*
%TO.P,C15,1*%
%TO.N,Net-(C15-Pad1)*%
X11087500Y-11870000D03*
%TO.P,C15,2*%
%TO.N,GND*%
X10932500Y-11870000D03*
%TD*%
D24*
%TO.P,C10,1*%
%TO.N,Net-(C10-Pad1)*%
X11190000Y-13010000D03*
%TO.P,C10,2*%
%TO.N,Net-(C10-Pad2)*%
X11345000Y-13010000D03*
%TD*%
%TO.P,C11,1*%
%TO.N,Net-(C11-Pad1)*%
X11230000Y-12350000D03*
%TO.P,C11,2*%
%TO.N,Net-(C11-Pad2)*%
X11385000Y-12350000D03*
%TD*%
D25*
%TO.P,L2,1,1*%
%TO.N,Net-(C10-Pad1)*%
X11252500Y-12817500D03*
%TO.P,L2,2,2*%
%TO.N,Net-(C11-Pad1)*%
X11252500Y-12597500D03*
%TD*%
D26*
%TO.P,R15,1*%
%TO.N,/sipm_dcdc/imon*%
X10950000Y-12075000D03*
%TO.P,R15,2*%
%TO.N,GND*%
X10950000Y-12240000D03*
%TD*%
D27*
%TO.P,R17,1*%
%TO.N,Net-(R16-Pad2)*%
X10975000Y-12470000D03*
%TO.P,R17,2*%
%TO.N,GND*%
X10810000Y-12470000D03*
%TD*%
D28*
%TO.P,U2,1,VCC*%
%TO.N,/dc_dc/vcc*%
X12001335Y-12795133D03*
%TO.P,U2,2,RUN*%
%TO.N,Net-(C7-Pad1)*%
X12001335Y-12745095D03*
%TO.P,U2,3,MPPC*%
%TO.N,Net-(R11-Pad2)*%
X12001335Y-12695057D03*
%TO.P,U2,4,GND*%
%TO.N,GND*%
X12001335Y-12645019D03*
%TO.P,U2,5,VS3*%
X12001335Y-12594981D03*
%TO.P,U2,6,VS2*%
%TO.N,/dc_dc/vcc*%
X12001335Y-12544943D03*
%TO.P,U2,7,VS1*%
X12001335Y-12494905D03*
%TO.P,U2,8,PWM*%
X12001335Y-12444867D03*
%TO.P,U2,9,PGOOD*%
%TO.N,/dc_dc/pgood*%
X11558665Y-12444867D03*
%TO.P,U2,10,VOUT*%
%TO.N,+5V*%
X11558665Y-12494905D03*
%TO.P,U2,11,BST2*%
%TO.N,Net-(C11-Pad2)*%
X11558665Y-12544943D03*
%TO.P,U2,12,SW2*%
%TO.N,Net-(C11-Pad1)*%
X11558665Y-12594981D03*
%TO.P,U2,13,PGND*%
%TO.N,GND*%
X11558665Y-12645019D03*
%TO.P,U2,14,SW1*%
%TO.N,Net-(C10-Pad1)*%
X11558665Y-12695057D03*
%TO.P,U2,15,BST1*%
%TO.N,Net-(C10-Pad2)*%
X11558665Y-12745095D03*
%TO.P,U2,16,VIN*%
%TO.N,Net-(C7-Pad1)*%
X11558665Y-12795133D03*
D29*
%TO.P,U2,EPAD,PGND*%
%TO.N,GND*%
X11780000Y-12620000D03*
%TD*%
D19*
%TO.P,C12,1*%
%TO.N,+5V*%
X11572500Y-12285000D03*
%TO.P,C12,2*%
%TO.N,GND*%
X11780000Y-12285000D03*
%TD*%
D30*
%TO.P,TP1,1,1*%
%TO.N,/sipm_dcdc/imon*%
X11302500Y-12165000D03*
%TD*%
D31*
%TO.P,L4,1,1*%
%TO.N,Net-(D3-Pad2)*%
X10650000Y-11660000D03*
%TO.P,L4,2,2*%
%TO.N,Net-(C14-Pad1)*%
X10430000Y-11660000D03*
%TD*%
D15*
%TO.P,C17,1*%
%TO.N,/sipm_bias*%
X11445000Y-11742500D03*
%TO.P,C17,2*%
%TO.N,GND*%
X11445000Y-11897500D03*
%TD*%
D32*
%TO.P,L5,1,1*%
%TO.N,/sipm_bias*%
X11592500Y-11743750D03*
%TO.P,L5,2,2*%
%TO.N,Net-(L5-Pad2)*%
X11592500Y-11901250D03*
%TD*%
D15*
%TO.P,C16,1*%
%TO.N,Net-(C16-Pad1)*%
X10250000Y-12695000D03*
%TO.P,C16,2*%
%TO.N,GND*%
X10250000Y-12850000D03*
%TD*%
D33*
%TO.P,R18,1*%
%TO.N,Net-(C16-Pad1)*%
X10400000Y-12500000D03*
%TO.P,R18,2*%
%TO.N,Net-(R16-Pad2)*%
X10565000Y-12500000D03*
%TD*%
D27*
%TO.P,R19,1*%
%TO.N,/vcont*%
X10565000Y-12700000D03*
%TO.P,R19,2*%
%TO.N,Net-(C16-Pad1)*%
X10400000Y-12700000D03*
%TD*%
D34*
%TO.P,TP2,1,1*%
%TO.N,/vcont*%
X10646000Y-12900000D03*
%TO.P,TP2,2,2*%
%TO.N,GND*%
X10900000Y-12900000D03*
%TD*%
D35*
%TO.P,H1,1,1*%
%TO.N,GND*%
X10400000Y-14100000D03*
%TD*%
%TO.P,H2,1,1*%
%TO.N,GND*%
X12600000Y-11300000D03*
%TD*%
%TO.P,H3,1,1*%
%TO.N,GND*%
X13000000Y-14100000D03*
%TD*%
D36*
%TO.P,L3,1,1*%
%TO.N,Net-(C14-Pad1)*%
X10335000Y-12047500D03*
%TO.P,L3,2,2*%
%TO.N,+5V*%
X10177500Y-12047500D03*
%TD*%
D37*
%TO.P,J1,1,Pin_1*%
%TO.N,/vcont*%
X12077500Y-10580000D03*
D38*
%TO.P,J1,2,Pin_2*%
%TO.N,GND*%
X12077500Y-10326000D03*
%TO.P,J1,3,Pin_3*%
%TO.N,/sipm_bias*%
X12331500Y-10580000D03*
%TO.P,J1,4,Pin_4*%
%TO.N,GND*%
X12331500Y-10326000D03*
%TO.P,J1,5,Pin_5*%
%TO.N,/p5v_out*%
X12585500Y-10580000D03*
%TO.P,J1,6,Pin_6*%
%TO.N,GND*%
X12585500Y-10326000D03*
%TO.P,J1,7,Pin_7*%
%TO.N,VDC*%
X12839500Y-10580000D03*
%TO.P,J1,8,Pin_8*%
%TO.N,GND*%
X12839500Y-10326000D03*
%TD*%
D32*
%TO.P,L1,1,1*%
%TO.N,Net-(C7-Pad1)*%
X10440000Y-13241250D03*
%TO.P,L1,2,2*%
%TO.N,/vload*%
X10440000Y-13398750D03*
%TD*%
D39*
%TO.P,D3,1,K*%
%TO.N,Net-(C15-Pad1)*%
X11190000Y-11670000D03*
%TO.P,D3,2,A*%
%TO.N,Net-(D3-Pad2)*%
X10860000Y-11670000D03*
%TD*%
D23*
%TO.P,C7,1*%
%TO.N,Net-(C7-Pad1)*%
X11760000Y-13200000D03*
%TO.P,C7,2*%
%TO.N,GND*%
X11605000Y-13200000D03*
%TD*%
D19*
%TO.P,C4,1*%
%TO.N,VDC*%
X12872500Y-13580000D03*
%TO.P,C4,2*%
%TO.N,GND*%
X13080000Y-13580000D03*
%TD*%
D40*
%TO.P,Q3,1,S*%
%TO.N,VDC*%
X10853500Y-13751000D03*
%TO.P,Q3,2,S*%
X10919500Y-13751000D03*
%TO.P,Q3,3,S*%
X10985500Y-13751000D03*
%TO.P,Q3,4,G*%
%TO.N,Net-(C5-Pad2)*%
X11051500Y-13751000D03*
D41*
%TO.P,Q3,5,D*%
%TO.N,/vload*%
X10952500Y-13551750D03*
%TD*%
D42*
%TO.P,D1,1,K*%
%TO.N,VDC*%
X11550000Y-14015000D03*
%TO.P,D1,2,A*%
%TO.N,GND*%
X11550000Y-13685000D03*
%TD*%
D43*
%TO.N,GND*%
X10650000Y-12057500D03*
X11817500Y-12500000D03*
X11790000Y-12745000D03*
X11737500Y-12745000D03*
X11840000Y-12745000D03*
X11820000Y-12602500D03*
X11715000Y-12700000D03*
X11852500Y-12807500D03*
D44*
X13070000Y-12950000D03*
D43*
X10610000Y-12095000D03*
D44*
X10250000Y-12950000D03*
D43*
X10540000Y-11802500D03*
D44*
X12675000Y-11625000D03*
D43*
X10612500Y-12020000D03*
X11770000Y-12602500D03*
X10687500Y-12020000D03*
D44*
X11550000Y-13580000D03*
X11520000Y-13240000D03*
X10502260Y-12210000D03*
D43*
X10687500Y-12095000D03*
X11840000Y-12552500D03*
X11717500Y-12602500D03*
D44*
X13195000Y-12505000D03*
X13220000Y-13580000D03*
X12350000Y-13330000D03*
D43*
X11790000Y-12552500D03*
X11740000Y-12652500D03*
X11737500Y-12552500D03*
D44*
X10727500Y-12307500D03*
D43*
X11765000Y-12500000D03*
D44*
X13195000Y-12405000D03*
X10950000Y-12340000D03*
X13030000Y-12640000D03*
X12595000Y-12285000D03*
X11800000Y-12940000D03*
X12135019Y-12594981D03*
D43*
X11732500Y-12812500D03*
X11842500Y-12652500D03*
X11767500Y-12700000D03*
D44*
X10946000Y-10304000D03*
X12425000Y-13052500D03*
D43*
X11792500Y-12652500D03*
D44*
X11200000Y-10310000D03*
X13125000Y-11625000D03*
D43*
X11715000Y-12500000D03*
D44*
X10175000Y-12500000D03*
X12675000Y-12405000D03*
X11890000Y-12290000D03*
D43*
X11817500Y-12700000D03*
D44*
X12595000Y-12485000D03*
D45*
X10200000Y-13800000D03*
D44*
X13095259Y-12437500D03*
D45*
X11037500Y-11742500D03*
D44*
X12100000Y-13875000D03*
X10720000Y-12437550D03*
X10700000Y-10300000D03*
X11332500Y-11842500D03*
X12925000Y-11625000D03*
D43*
X10405000Y-11975000D03*
D44*
%TO.N,Net-(C7-Pad1)*%
X11450000Y-13075000D03*
X12332500Y-12845000D03*
D43*
X11558665Y-12866335D03*
D44*
X10447500Y-13122500D03*
%TO.N,/On When Warm/VD1*%
X12400000Y-13475000D03*
%TO.N,/On When Warm/vs*%
X11800000Y-13725000D03*
X11800000Y-14175000D03*
%TO.N,/On When Warm/vg1*%
X12100000Y-13480000D03*
%TO.N,/thermistor*%
X12250000Y-13975000D03*
%TO.N,/On When Warm/vd2*%
X12305132Y-13870617D03*
%TO.N,VDC*%
X10852500Y-13905000D03*
X12595000Y-13005000D03*
X12550000Y-13475000D03*
X12550000Y-14225000D03*
X11550000Y-14130000D03*
X12730000Y-13580000D03*
X12611825Y-12674614D03*
X12660000Y-14147500D03*
X12595000Y-12825000D03*
X10985500Y-13904500D03*
X11630000Y-13360000D03*
D43*
%TO.N,Net-(C18-Pad1)*%
X10772413Y-11906289D03*
%TO.N,Net-(C14-Pad1)*%
X10625000Y-12310000D03*
D44*
X10335000Y-11902500D03*
D43*
X10331891Y-12161791D03*
D45*
%TO.N,Net-(C15-Pad1)*%
X11210359Y-11906185D03*
D44*
%TO.N,Net-(R11-Pad2)*%
X12150000Y-12700000D03*
%TO.N,/dc_dc/pgood*%
X11660000Y-12420000D03*
D43*
%TO.N,Net-(R14-Pad1)*%
X10807500Y-12197500D03*
%TO.N,Net-(R16-Pad2)*%
X11070000Y-12440000D03*
D44*
%TO.N,+5V*%
X12140000Y-13040000D03*
X10700000Y-11300000D03*
X10077500Y-12047500D03*
X10950000Y-11300000D03*
X10075000Y-12250000D03*
D43*
X10330000Y-12245000D03*
X11447266Y-12438091D03*
D44*
%TO.N,/dc_dc/vcc*%
X11995000Y-13035000D03*
X12025000Y-12367500D03*
%TD*%
D46*
%TO.N,/vload*%
X10200000Y-13442500D02*
X10432500Y-13442500D01*
X10432500Y-13442500D02*
X10450000Y-13425000D01*
X11267500Y-13452500D02*
X11240000Y-13425000D01*
X10440000Y-13398750D02*
X10440000Y-13415000D01*
X11240000Y-13425000D02*
X10450000Y-13425000D01*
X10440000Y-13415000D02*
X10450000Y-13425000D01*
X11267500Y-13555000D02*
X11267500Y-13452500D01*
D47*
%TO.N,Net-(C1-Pad1)*%
X12925000Y-12210000D02*
X12925000Y-11925000D01*
X12925000Y-11925000D02*
X13097500Y-11925000D01*
X13097500Y-11925000D02*
X13100000Y-11922500D01*
D46*
%TO.N,GND*%
X10250000Y-12850000D02*
X10250000Y-12950000D01*
D47*
X12001335Y-12594981D02*
X12135019Y-12594981D01*
X10932500Y-11847500D02*
X11037500Y-11742500D01*
X12241250Y-13330000D02*
X12350000Y-13330000D01*
D46*
X10752450Y-12470000D02*
X10720000Y-12437550D01*
D47*
X10540000Y-11877960D02*
X10540000Y-11802500D01*
D46*
X11445000Y-11897500D02*
X11387500Y-11897500D01*
X11550000Y-13685000D02*
X11550000Y-13580000D01*
D47*
X12975000Y-12605000D02*
X12972501Y-12602501D01*
X12925000Y-11742500D02*
X12925000Y-11625000D01*
X10725000Y-12202040D02*
X10725000Y-12267440D01*
X10725000Y-12267440D02*
X10725000Y-12305000D01*
X11732500Y-12812500D02*
X11732500Y-12750000D01*
X11882000Y-12905000D02*
X11882000Y-12837000D01*
D46*
X11912500Y-12940000D02*
X11800000Y-12940000D01*
D47*
X12972501Y-12602501D02*
X12972501Y-12522501D01*
X12001335Y-12645019D02*
X12001335Y-12594981D01*
D46*
X10950000Y-12240000D02*
X10950000Y-12340000D01*
D47*
X11875000Y-12830000D02*
X11852500Y-12807500D01*
X13072501Y-12522501D02*
X12975000Y-12425000D01*
X11558665Y-12645019D02*
X11754981Y-12645019D01*
X12700000Y-11650000D02*
X12675000Y-11625000D01*
X10502260Y-12192740D02*
X10502260Y-12210000D01*
X12001335Y-12645019D02*
X11805019Y-12645019D01*
X10932500Y-11870000D02*
X10932500Y-11847500D01*
X11852500Y-12807500D02*
X11852500Y-12692500D01*
D46*
X11565000Y-13240000D02*
X11605000Y-13200000D01*
D47*
X12835000Y-12425000D02*
X12875000Y-12425000D01*
X13092500Y-11742500D02*
X13100000Y-11750000D01*
X10652500Y-12057500D02*
X10685000Y-12025000D01*
X12972501Y-12522501D02*
X12915000Y-12465000D01*
X12875000Y-12425000D02*
X12915000Y-12465000D01*
D46*
X10200000Y-13650000D02*
X10200000Y-13800000D01*
D47*
X13100000Y-11650000D02*
X13125000Y-11625000D01*
X13100000Y-11750000D02*
X13100000Y-11650000D01*
X12975000Y-12640000D02*
X13030000Y-12640000D01*
X12972501Y-12522501D02*
X13072501Y-12522501D01*
X10505460Y-12132500D02*
X10505460Y-12189540D01*
X10505460Y-12189540D02*
X10502260Y-12192740D01*
D46*
X11785000Y-12290000D02*
X11780000Y-12285000D01*
X11520000Y-13240000D02*
X11565000Y-13240000D01*
D47*
X12975000Y-12640000D02*
X12975000Y-12605000D01*
X10725000Y-12305000D02*
X10727500Y-12307500D01*
X10575000Y-11912960D02*
X10540000Y-11877960D01*
X11788750Y-12476250D02*
X11788750Y-12293750D01*
D46*
X11890000Y-12290000D02*
X11785000Y-12290000D01*
D47*
X11788750Y-12293750D02*
X11780000Y-12285000D01*
X11765000Y-12500000D02*
X11788750Y-12476250D01*
X10425000Y-11982500D02*
X10422500Y-11985000D01*
X12875000Y-12210000D02*
X12875000Y-12425000D01*
X12925000Y-11742500D02*
X13092500Y-11742500D01*
D46*
X10810000Y-12470000D02*
X10752450Y-12470000D01*
D47*
X10650000Y-12057500D02*
X10652500Y-12057500D01*
D46*
X13080000Y-13580000D02*
X13220000Y-13580000D01*
D47*
X12700000Y-11717500D02*
X12700000Y-11650000D01*
X10685000Y-12025000D02*
X10617501Y-12025000D01*
D46*
X11387500Y-11897500D02*
X11332500Y-11842500D01*
D47*
X11882000Y-12837000D02*
X11852500Y-12807500D01*
X12982500Y-12950000D02*
X13070000Y-12950000D01*
D46*
X10175000Y-12405000D02*
X10175000Y-12500000D01*
D47*
X10505460Y-11982500D02*
X10425000Y-11982500D01*
D46*
%TO.N,Net-(C5-Pad2)*%
X11267500Y-13710000D02*
X11180000Y-13710000D01*
D47*
X11139000Y-13751000D02*
X11177500Y-13712500D01*
D46*
X11180000Y-13710000D02*
X11177500Y-13712500D01*
X11267500Y-14117500D02*
X11475000Y-14325000D01*
X11267500Y-13710000D02*
X11267500Y-14117500D01*
D47*
X11051500Y-13751000D02*
X11139000Y-13751000D01*
%TO.N,Net-(C7-Pad1)*%
X11760000Y-13150000D02*
X11760000Y-13200000D01*
X12001335Y-12745095D02*
X12090162Y-12745095D01*
X11450000Y-13075000D02*
X11685000Y-13075000D01*
D46*
X10440000Y-13241250D02*
X10440000Y-13130000D01*
D47*
X11685000Y-13075000D02*
X11760000Y-13150000D01*
D46*
X10440000Y-13130000D02*
X10447500Y-13122500D01*
D47*
X11558665Y-12795133D02*
X11558665Y-12866335D01*
X12090162Y-12745095D02*
X12125000Y-12779933D01*
D46*
%TO.N,Net-(C10-Pad1)*%
X11190000Y-12880000D02*
X11252500Y-12817500D01*
D47*
X11331224Y-12817500D02*
X11252500Y-12817500D01*
X11453667Y-12695057D02*
X11331224Y-12817500D01*
X11558665Y-12695057D02*
X11453667Y-12695057D01*
D46*
X11190000Y-13010000D02*
X11190000Y-12880000D01*
D47*
%TO.N,Net-(C10-Pad2)*%
X11400000Y-12955000D02*
X11345000Y-13010000D01*
X11457500Y-12754865D02*
X11457500Y-12912500D01*
X11558665Y-12745095D02*
X11467270Y-12745095D01*
X11457500Y-12912500D02*
X11415000Y-12955000D01*
X11415000Y-12955000D02*
X11400000Y-12955000D01*
X11467270Y-12745095D02*
X11457500Y-12754865D01*
%TO.N,/On When Warm/VD1*%
X11837300Y-13875000D02*
X11700000Y-14012300D01*
X12105000Y-13625000D02*
X12100000Y-13620000D01*
X12367500Y-13625000D02*
X12105000Y-13625000D01*
X12100000Y-13685000D02*
X11910000Y-13875000D01*
X12400000Y-13475000D02*
X12400000Y-13592500D01*
X11700000Y-14012300D02*
X11700000Y-14282500D01*
X11910000Y-13875000D02*
X11837300Y-13875000D01*
X12100000Y-13620000D02*
X12100000Y-13685000D01*
X12400000Y-13592500D02*
X12367500Y-13625000D01*
X11700000Y-14282500D02*
X11657500Y-14325000D01*
%TO.N,/On When Warm/vs*%
X11800000Y-13725000D02*
X11890000Y-13725000D01*
X11890000Y-13725000D02*
X11900000Y-13715000D01*
X11800000Y-14175000D02*
X11900000Y-14175000D01*
%TO.N,/On When Warm/vg1*%
X11900000Y-13330000D02*
X12058750Y-13330000D01*
X11900000Y-13525000D02*
X11900000Y-13330000D01*
X12058750Y-13330000D02*
X12058750Y-13438750D01*
X12058750Y-13438750D02*
X12100000Y-13480000D01*
%TO.N,/thermistor*%
X12065151Y-13802549D02*
X12130010Y-13802549D01*
X12250000Y-13922539D02*
X12250000Y-13975000D01*
X12130010Y-13802549D02*
X12250000Y-13922539D01*
X11900000Y-13967700D02*
X12065151Y-13802549D01*
X11900000Y-13985000D02*
X11900000Y-13967700D01*
%TO.N,/On When Warm/vd2*%
X12367500Y-14075000D02*
X12367500Y-13942500D01*
X12367500Y-13942500D02*
X12305132Y-13880132D01*
X12105000Y-14075000D02*
X12100000Y-14080000D01*
X12367500Y-14075000D02*
X12105000Y-14075000D01*
X12305132Y-13880132D02*
X12305132Y-13870617D01*
%TO.N,Net-(C11-Pad2)*%
X11387500Y-12442500D02*
X11385000Y-12440000D01*
X11387500Y-12479741D02*
X11419669Y-12511910D01*
X11419669Y-12511910D02*
X11424410Y-12511910D01*
X11424410Y-12511910D02*
X11457443Y-12544943D01*
X11387500Y-12479741D02*
X11387500Y-12442500D01*
X11385000Y-12440000D02*
X11385000Y-12350000D01*
X11457443Y-12544943D02*
X11558665Y-12544943D01*
D46*
%TO.N,VDC*%
X12787500Y-12962500D02*
X12775000Y-12950000D01*
X10853500Y-13904000D02*
X10852500Y-13905000D01*
X11550000Y-14015000D02*
X11550000Y-14130000D01*
D47*
X12875000Y-12785000D02*
X13195000Y-12785000D01*
X13070000Y-12305000D02*
X13295000Y-12305000D01*
D46*
X10853500Y-13751000D02*
X10919500Y-13751000D01*
D47*
X13315000Y-12665000D02*
X13195000Y-12785000D01*
X12550000Y-13625000D02*
X12550000Y-13475000D01*
X12775000Y-12640000D02*
X12775000Y-12805000D01*
X12550000Y-14075000D02*
X12550000Y-14225000D01*
X12825000Y-12640000D02*
X12825000Y-12775000D01*
X12875000Y-12640000D02*
X12875000Y-12785000D01*
D46*
X10985500Y-13751000D02*
X10985500Y-13904500D01*
D47*
X13295000Y-12305000D02*
X13315000Y-12325000D01*
D46*
X10853500Y-13751000D02*
X10853500Y-13904000D01*
X11630000Y-13360000D02*
X11717500Y-13360000D01*
D47*
X12975000Y-12210000D02*
X13070000Y-12305000D01*
X13315000Y-12325000D02*
X13315000Y-12665000D01*
D46*
X12872500Y-13580000D02*
X12730000Y-13580000D01*
X10985500Y-13751000D02*
X10919500Y-13751000D01*
%TO.N,Net-(C16-Pad1)*%
X10250000Y-12695000D02*
X10395000Y-12695000D01*
X10400000Y-12700000D02*
X10400000Y-12500000D01*
X10395000Y-12695000D02*
X10400000Y-12700000D01*
%TO.N,/p5v_out*%
X12172500Y-11642500D02*
X12172500Y-11100000D01*
D47*
X12825000Y-12210000D02*
X12760000Y-12210000D01*
D46*
X12585500Y-10687000D02*
X12585500Y-10580000D01*
X12172500Y-11100000D02*
X12585500Y-10687000D01*
X12455000Y-11925000D02*
X12172500Y-11642500D01*
X12700000Y-11925000D02*
X12455000Y-11925000D01*
D47*
%TO.N,Net-(C18-Pad1)*%
X10765742Y-11912960D02*
X10772413Y-11906289D01*
X10725000Y-11912960D02*
X10765742Y-11912960D01*
%TO.N,Net-(C11-Pad1)*%
X11558665Y-12594981D02*
X11255019Y-12594981D01*
X11255019Y-12594981D02*
X11252500Y-12597500D01*
X11252500Y-12597500D02*
X11252500Y-12372500D01*
X11252500Y-12372500D02*
X11230000Y-12350000D01*
D46*
%TO.N,Net-(C14-Pad1)*%
X10430000Y-11660000D02*
X10430000Y-11807500D01*
X10335000Y-11985000D02*
X10335000Y-11985000D01*
X10335000Y-11985000D02*
X10335000Y-11902500D01*
X10335000Y-12047500D02*
X10335000Y-11985000D01*
D48*
X10505460Y-12032500D02*
X10350000Y-12032500D01*
D46*
X10430000Y-11807500D02*
X10335000Y-11902500D01*
D48*
X10350000Y-12032500D02*
X10335000Y-12047500D01*
D47*
X10335000Y-12047500D02*
X10335000Y-12158683D01*
X10625000Y-12202040D02*
X10625000Y-12310000D01*
X10335000Y-12158683D02*
X10331891Y-12161791D01*
%TO.N,Net-(C15-Pad1)*%
X11190000Y-11660000D02*
X11190000Y-11770000D01*
X11190000Y-11770000D02*
X11190000Y-11670000D01*
X11190000Y-11770000D02*
X11190000Y-11867500D01*
X11190000Y-11867500D02*
X11210359Y-11887859D01*
X11210359Y-11887859D02*
X11210359Y-11906185D01*
X11090000Y-11867500D02*
X11087500Y-11870000D01*
X11190000Y-11867500D02*
X11090000Y-11867500D01*
%TO.N,Net-(D3-Pad2)*%
X10675000Y-11685000D02*
X10650000Y-11660000D01*
X10625000Y-11685000D02*
X10650000Y-11660000D01*
X10675000Y-11912960D02*
X10675000Y-11685000D01*
D46*
X10660000Y-11670000D02*
X10650000Y-11660000D01*
D47*
X10625000Y-11912960D02*
X10625000Y-11685000D01*
X10675000Y-11912960D02*
X10625000Y-11912960D01*
D46*
X10860000Y-11670000D02*
X10660000Y-11670000D01*
%TO.N,/sipm_bias*%
X11455000Y-11742500D02*
X11591250Y-11742500D01*
X12331500Y-10723500D02*
X12331500Y-10580000D01*
X11592500Y-11743750D02*
X11446250Y-11743750D01*
X11591250Y-11742500D02*
X11592500Y-11743750D01*
X11897500Y-11157500D02*
X12331500Y-10723500D01*
X11742250Y-11743750D02*
X11897500Y-11588500D01*
X11446250Y-11743750D02*
X11445000Y-11742500D01*
X11897500Y-11588500D02*
X11897500Y-11157500D01*
X11592500Y-11743750D02*
X11742250Y-11743750D01*
D47*
%TO.N,Net-(R11-Pad2)*%
X12001335Y-12695057D02*
X12145057Y-12695057D01*
X12145057Y-12695057D02*
X12150000Y-12700000D01*
%TO.N,/sipm_dcdc/imon*%
X10942500Y-12082500D02*
X10950000Y-12075000D01*
X11032300Y-12075000D02*
X11122300Y-12165000D01*
X10794540Y-12082500D02*
X10942500Y-12082500D01*
X10950000Y-12075000D02*
X11032300Y-12075000D01*
X11122300Y-12165000D02*
X11302500Y-12165000D01*
%TO.N,/dc_dc/pgood*%
X11635133Y-12444867D02*
X11660000Y-12420000D01*
X11558665Y-12444867D02*
X11635133Y-12444867D01*
%TO.N,Net-(R14-Pad1)*%
X10794540Y-12184540D02*
X10807500Y-12197500D01*
X10794540Y-12132500D02*
X10794540Y-12184540D01*
%TO.N,Net-(R16-Pad2)*%
X10575000Y-12202040D02*
X10575000Y-12274900D01*
X11040000Y-12470000D02*
X10975000Y-12470000D01*
X11070000Y-12440000D02*
X11040000Y-12470000D01*
X10565000Y-12500000D02*
X10655000Y-12590000D01*
X10575000Y-12274900D02*
X10567500Y-12282400D01*
X10975000Y-12555000D02*
X10975000Y-12470000D01*
X10567500Y-12282400D02*
X10567500Y-12502500D01*
X10655000Y-12590000D02*
X10940000Y-12590000D01*
X10940000Y-12590000D02*
X10975000Y-12555000D01*
D46*
%TO.N,+5V*%
X10175000Y-12250000D02*
X10075000Y-12250000D01*
X10177500Y-12047500D02*
X10177500Y-12247500D01*
D47*
X10505460Y-12082500D02*
X10440060Y-12082500D01*
X11558665Y-12494905D02*
X11475868Y-12494905D01*
X11447266Y-12466302D02*
X11447266Y-12438091D01*
X11572500Y-12292167D02*
X11572500Y-12285000D01*
X11581250Y-12315000D02*
X11551321Y-12315000D01*
X10425000Y-12150000D02*
X10330000Y-12245000D01*
X11447266Y-12417401D02*
X11572500Y-12292167D01*
X10425000Y-12097560D02*
X10425000Y-12150000D01*
X11447266Y-12419055D02*
X11447266Y-12438091D01*
X11447266Y-12438091D02*
X11447266Y-12417401D01*
X11551321Y-12315000D02*
X11447266Y-12419055D01*
X10440060Y-12082500D02*
X10425000Y-12097560D01*
D46*
X10177500Y-12047500D02*
X10077500Y-12047500D01*
X10177500Y-12247500D02*
X10175000Y-12250000D01*
D47*
X11475868Y-12494905D02*
X11447266Y-12466302D01*
%TO.N,Net-(L5-Pad2)*%
X11182500Y-11982500D02*
X11225000Y-12025000D01*
X11225000Y-12025000D02*
X11468750Y-12025000D01*
X10794540Y-11982500D02*
X11182500Y-11982500D01*
X11468750Y-12025000D02*
X11592500Y-11901250D01*
D46*
%TO.N,/vcont*%
X10565000Y-12819000D02*
X10646000Y-12900000D01*
X10565000Y-12700000D02*
X10565000Y-12819000D01*
D47*
%TO.N,/dc_dc/vcc*%
X12001335Y-12494905D02*
X12001335Y-12544943D01*
X12067500Y-12940000D02*
X12067500Y-12962500D01*
X12001335Y-12873835D02*
X12067500Y-12940000D01*
X12001335Y-12795133D02*
X12001335Y-12873835D01*
X12067500Y-12962500D02*
X11995000Y-13035000D01*
X12001335Y-12444867D02*
X12001335Y-12396165D01*
X12001335Y-12444867D02*
X12001335Y-12494905D01*
X12001335Y-12396165D02*
X12025000Y-12372500D01*
X12025000Y-12372500D02*
X12025000Y-12367500D01*
%TD*%
%TA.AperFunction,Conductor*%
%TO.N,Net-(C7-Pad1)*%
G36*
X12478213Y-12152000D02*
G01*
X12482863Y-12157366D01*
X12483873Y-12164393D01*
X12483714Y-12165500D01*
X12483650Y-12165945D01*
X12483650Y-12501050D01*
X12483686Y-12501385D01*
X12483686Y-12501385D01*
X12484756Y-12511342D01*
X12484823Y-12511965D01*
X12485962Y-12517199D01*
X12489429Y-12527616D01*
X12489855Y-12528279D01*
X12489855Y-12528279D01*
X12492380Y-12532207D01*
X12494380Y-12539019D01*
X12493241Y-12544253D01*
X12487730Y-12556321D01*
X12485730Y-12563133D01*
X12485666Y-12563578D01*
X12485666Y-12563579D01*
X12483714Y-12577155D01*
X12483650Y-12577600D01*
X12483650Y-12989525D01*
X12481650Y-12996337D01*
X12476284Y-13000987D01*
X12469257Y-13001997D01*
X12463730Y-12999427D01*
X12463589Y-12999631D01*
X12462965Y-12999197D01*
X12462398Y-12998692D01*
X12461564Y-12998250D01*
X12453131Y-12993785D01*
X12448483Y-12991324D01*
X12447518Y-12991082D01*
X12433950Y-12987674D01*
X12433950Y-12987674D01*
X12433213Y-12987489D01*
X12432453Y-12987485D01*
X12432453Y-12987485D01*
X12425732Y-12987450D01*
X12417468Y-12987406D01*
X12416730Y-12987584D01*
X12416730Y-12987584D01*
X12402897Y-12990905D01*
X12402896Y-12990905D01*
X12402159Y-12991082D01*
X12401000Y-12991680D01*
X12390128Y-12997292D01*
X12388168Y-12998303D01*
X12387596Y-12998802D01*
X12387595Y-12998802D01*
X12376876Y-13008154D01*
X12376876Y-13008154D01*
X12376303Y-13008653D01*
X12367250Y-13021535D01*
X12361531Y-13036204D01*
X12361432Y-13036957D01*
X12359618Y-13050736D01*
X12359476Y-13051814D01*
X12361203Y-13067463D01*
X12366614Y-13082249D01*
X12367038Y-13082880D01*
X12367038Y-13082880D01*
X12370413Y-13087902D01*
X12375396Y-13095317D01*
X12380244Y-13099729D01*
X12383498Y-13102689D01*
X12387041Y-13105913D01*
X12390770Y-13107938D01*
X12400210Y-13113064D01*
X12400210Y-13113064D01*
X12400878Y-13113426D01*
X12401612Y-13113619D01*
X12415372Y-13117229D01*
X12415372Y-13117229D01*
X12416107Y-13117421D01*
X12424438Y-13117552D01*
X12431090Y-13117657D01*
X12431090Y-13117657D01*
X12431849Y-13117669D01*
X12447197Y-13114154D01*
X12461262Y-13107079D01*
X12462867Y-13105709D01*
X12469346Y-13102806D01*
X12476366Y-13103866D01*
X12481698Y-13108554D01*
X12483650Y-13115290D01*
X12483650Y-13179900D01*
X12481650Y-13186712D01*
X12476284Y-13191361D01*
X12471050Y-13192500D01*
X11868400Y-13192500D01*
X11861588Y-13190500D01*
X11856939Y-13185134D01*
X11855800Y-13179900D01*
X11855800Y-13170456D01*
X11855766Y-13169805D01*
X11854811Y-13160594D01*
X11854521Y-13159254D01*
X11849562Y-13144389D01*
X11848944Y-13143071D01*
X11840721Y-13129783D01*
X11839818Y-13128643D01*
X11828757Y-13117601D01*
X11827616Y-13116700D01*
X11814312Y-13108500D01*
X11812994Y-13107885D01*
X11798119Y-13102951D01*
X11796781Y-13102664D01*
X11787690Y-13101733D01*
X11787187Y-13101707D01*
X11785688Y-13102147D01*
X11785567Y-13102286D01*
X11785400Y-13103055D01*
X11785400Y-13192500D01*
X11734600Y-13192500D01*
X11734600Y-13103511D01*
X11734152Y-13101988D01*
X11734013Y-13101867D01*
X11733245Y-13101700D01*
X11732956Y-13101700D01*
X11732305Y-13101734D01*
X11723094Y-13102689D01*
X11721754Y-13102979D01*
X11706889Y-13107938D01*
X11705571Y-13108555D01*
X11692283Y-13116779D01*
X11691143Y-13117682D01*
X11680101Y-13128743D01*
X11679200Y-13129884D01*
X11676138Y-13134852D01*
X11670861Y-13139601D01*
X11663853Y-13140744D01*
X11657855Y-13138323D01*
X11653224Y-13134852D01*
X11650569Y-13132863D01*
X11637816Y-13128082D01*
X11637030Y-13127996D01*
X11637030Y-13127996D01*
X11632341Y-13127487D01*
X11632341Y-13127487D01*
X11632001Y-13127450D01*
X11605004Y-13127450D01*
X11577999Y-13127450D01*
X11572184Y-13128082D01*
X11559430Y-13132863D01*
X11548531Y-13141031D01*
X11540363Y-13151930D01*
X11535582Y-13164684D01*
X11535511Y-13165331D01*
X11532020Y-13171442D01*
X11525725Y-13174724D01*
X11523218Y-13174963D01*
X11512468Y-13174906D01*
X11511730Y-13175084D01*
X11511730Y-13175084D01*
X11497897Y-13178405D01*
X11497896Y-13178405D01*
X11497159Y-13178582D01*
X11483168Y-13185803D01*
X11479051Y-13189395D01*
X11472602Y-13192366D01*
X11470768Y-13192500D01*
X11420010Y-13192500D01*
X11413198Y-13190500D01*
X11408548Y-13185134D01*
X11407410Y-13179991D01*
X11407409Y-13179900D01*
X11407126Y-13140493D01*
X11406593Y-13066420D01*
X11408544Y-13059594D01*
X11409095Y-13058794D01*
X11409098Y-13058788D01*
X11409637Y-13058069D01*
X11414418Y-13045316D01*
X11414714Y-13042599D01*
X11415013Y-13039841D01*
X11415013Y-13039841D01*
X11415050Y-13039501D01*
X11415050Y-13003911D01*
X11417050Y-12997099D01*
X11422416Y-12992450D01*
X11424134Y-12991811D01*
X11424587Y-12991680D01*
X11425621Y-12991558D01*
X11426438Y-12991165D01*
X11427331Y-12991017D01*
X11428247Y-12990522D01*
X11428248Y-12990522D01*
X11431793Y-12988609D01*
X11432322Y-12988340D01*
X11436175Y-12986490D01*
X11436175Y-12986490D01*
X11436890Y-12986146D01*
X11437313Y-12985791D01*
X11437506Y-12985597D01*
X11437694Y-12985425D01*
X11437707Y-12985418D01*
X11437717Y-12985429D01*
X11437765Y-12985387D01*
X11438333Y-12985081D01*
X11441953Y-12981165D01*
X11442296Y-12980808D01*
X11480269Y-12942834D01*
X11482091Y-12941363D01*
X11482246Y-12941222D01*
X11483121Y-12940657D01*
X11483766Y-12939839D01*
X11483766Y-12939839D01*
X11485173Y-12938054D01*
X11485562Y-12937616D01*
X11485554Y-12937610D01*
X11485890Y-12937214D01*
X11486258Y-12936846D01*
X11486559Y-12936424D01*
X11486560Y-12936423D01*
X11487368Y-12935293D01*
X11487724Y-12934818D01*
X11490215Y-12931658D01*
X11490860Y-12930840D01*
X11491160Y-12929985D01*
X11491687Y-12929248D01*
X11493140Y-12924392D01*
X11493323Y-12923827D01*
X11494739Y-12919794D01*
X11494739Y-12919793D01*
X11495002Y-12919045D01*
X11495050Y-12918494D01*
X11495050Y-12918224D01*
X11495061Y-12917967D01*
X11495066Y-12917951D01*
X11495080Y-12917951D01*
X11495084Y-12917889D01*
X11495269Y-12917271D01*
X11495060Y-12911942D01*
X11495050Y-12911447D01*
X11495050Y-12872503D01*
X11497050Y-12865691D01*
X11502416Y-12861042D01*
X11507650Y-12859903D01*
X11542884Y-12859903D01*
X11544408Y-12859455D01*
X11544528Y-12859316D01*
X11544695Y-12858548D01*
X11544695Y-12796715D01*
X11546695Y-12789903D01*
X11552061Y-12785254D01*
X11557295Y-12784115D01*
X11560035Y-12784115D01*
X11566847Y-12786115D01*
X11571497Y-12791481D01*
X11572635Y-12796715D01*
X11572635Y-12858091D01*
X11573083Y-12859615D01*
X11573222Y-12859736D01*
X11573990Y-12859903D01*
X11629527Y-12859903D01*
X11630209Y-12859866D01*
X11635295Y-12859313D01*
X11636820Y-12858951D01*
X11648865Y-12854435D01*
X11650425Y-12853582D01*
X11660632Y-12845931D01*
X11661889Y-12844675D01*
X11667912Y-12836638D01*
X11673598Y-12832386D01*
X11680680Y-12831884D01*
X11686909Y-12835290D01*
X11688580Y-12837734D01*
X11688736Y-12837637D01*
X11689210Y-12838398D01*
X11689572Y-12839220D01*
X11690150Y-12839908D01*
X11690150Y-12839908D01*
X11690879Y-12840775D01*
X11698797Y-12850195D01*
X11703220Y-12853139D01*
X11709643Y-12857415D01*
X11710731Y-12858139D01*
X11724416Y-12862414D01*
X11725313Y-12862431D01*
X11725313Y-12862431D01*
X11731846Y-12862550D01*
X11738750Y-12862677D01*
X11739653Y-12862431D01*
X11751716Y-12859142D01*
X11751716Y-12859142D01*
X11752582Y-12858906D01*
X11764799Y-12851404D01*
X11774420Y-12840775D01*
X11780671Y-12827873D01*
X11780902Y-12826497D01*
X11784005Y-12820111D01*
X11790068Y-12816417D01*
X11797165Y-12816586D01*
X11803045Y-12820566D01*
X11804861Y-12823513D01*
X11808544Y-12831884D01*
X11809572Y-12834220D01*
X11810150Y-12834908D01*
X11810150Y-12834908D01*
X11815707Y-12841519D01*
X11818797Y-12845195D01*
X11830731Y-12853139D01*
X11835608Y-12854662D01*
X11841513Y-12858603D01*
X11844351Y-12865111D01*
X11844450Y-12866689D01*
X11844450Y-12868997D01*
X11842450Y-12875809D01*
X11837084Y-12880459D01*
X11830057Y-12881469D01*
X11825954Y-12880133D01*
X11824154Y-12879180D01*
X11823483Y-12878824D01*
X11821553Y-12878340D01*
X11808950Y-12875174D01*
X11808950Y-12875174D01*
X11808213Y-12874989D01*
X11807453Y-12874985D01*
X11807453Y-12874985D01*
X11800732Y-12874950D01*
X11792468Y-12874906D01*
X11791730Y-12875084D01*
X11791730Y-12875084D01*
X11777897Y-12878405D01*
X11777896Y-12878405D01*
X11777159Y-12878582D01*
X11763168Y-12885803D01*
X11762596Y-12886302D01*
X11762595Y-12886302D01*
X11751876Y-12895654D01*
X11751876Y-12895654D01*
X11751303Y-12896153D01*
X11750867Y-12896775D01*
X11742807Y-12908243D01*
X11742250Y-12909035D01*
X11736531Y-12923704D01*
X11736432Y-12924457D01*
X11734642Y-12938054D01*
X11734476Y-12939314D01*
X11736203Y-12954963D01*
X11741614Y-12969749D01*
X11742038Y-12970380D01*
X11742038Y-12970380D01*
X11744931Y-12974684D01*
X11750396Y-12982817D01*
X11753282Y-12985444D01*
X11758345Y-12990050D01*
X11762041Y-12993413D01*
X11762708Y-12993776D01*
X11775210Y-13000564D01*
X11775210Y-13000564D01*
X11775878Y-13000926D01*
X11776612Y-13001119D01*
X11790372Y-13004729D01*
X11790372Y-13004729D01*
X11791107Y-13004921D01*
X11799438Y-13005052D01*
X11806090Y-13005157D01*
X11806090Y-13005157D01*
X11806849Y-13005169D01*
X11822197Y-13001654D01*
X11830870Y-12997292D01*
X11835584Y-12994921D01*
X11835584Y-12994921D01*
X11836262Y-12994579D01*
X11836840Y-12994086D01*
X11837293Y-12993785D01*
X11844074Y-12991681D01*
X11850915Y-12993577D01*
X11854348Y-12996723D01*
X11855271Y-12997955D01*
X11856031Y-12998969D01*
X11866930Y-13007137D01*
X11879684Y-13011918D01*
X11880470Y-13012004D01*
X11880470Y-13012004D01*
X11885159Y-13012513D01*
X11885159Y-13012513D01*
X11885498Y-13012550D01*
X11886514Y-13012550D01*
X11917974Y-13012550D01*
X11924785Y-13014550D01*
X11929435Y-13019916D01*
X11930466Y-13026794D01*
X11929476Y-13034314D01*
X11931203Y-13049963D01*
X11936614Y-13064749D01*
X11937038Y-13065380D01*
X11937038Y-13065380D01*
X11938438Y-13067463D01*
X11945396Y-13077817D01*
X11957041Y-13088413D01*
X11957708Y-13088776D01*
X11970210Y-13095564D01*
X11970210Y-13095564D01*
X11970878Y-13095926D01*
X11971612Y-13096119D01*
X11985372Y-13099729D01*
X11985372Y-13099729D01*
X11986107Y-13099921D01*
X11994438Y-13100052D01*
X12001090Y-13100157D01*
X12001090Y-13100157D01*
X12001849Y-13100169D01*
X12017197Y-13096654D01*
X12031262Y-13089579D01*
X12036803Y-13084847D01*
X12042657Y-13079847D01*
X12042658Y-13079847D01*
X12043235Y-13079354D01*
X12052422Y-13066568D01*
X12054851Y-13060526D01*
X12059248Y-13054952D01*
X12065960Y-13052639D01*
X12072857Y-13054323D01*
X12077749Y-13059468D01*
X12078374Y-13060896D01*
X12081614Y-13069749D01*
X12082038Y-13070380D01*
X12082038Y-13070380D01*
X12086071Y-13076381D01*
X12090396Y-13082817D01*
X12102041Y-13093413D01*
X12104817Y-13094921D01*
X12115210Y-13100564D01*
X12115210Y-13100564D01*
X12115878Y-13100926D01*
X12116612Y-13101119D01*
X12130372Y-13104729D01*
X12130372Y-13104729D01*
X12131107Y-13104921D01*
X12139438Y-13105052D01*
X12146090Y-13105157D01*
X12146090Y-13105157D01*
X12146849Y-13105169D01*
X12162197Y-13101654D01*
X12176262Y-13094579D01*
X12178887Y-13092338D01*
X12187657Y-13084847D01*
X12187658Y-13084847D01*
X12188235Y-13084354D01*
X12197422Y-13071568D01*
X12203295Y-13056960D01*
X12205064Y-13044530D01*
X12205455Y-13041781D01*
X12205455Y-13041780D01*
X12205513Y-13041372D01*
X12205528Y-13040000D01*
X12203636Y-13024369D01*
X12199926Y-13014550D01*
X12198339Y-13010351D01*
X12198339Y-13010351D01*
X12198071Y-13009641D01*
X12189153Y-12996666D01*
X12182980Y-12991165D01*
X12177965Y-12986697D01*
X12177964Y-12986697D01*
X12177398Y-12986192D01*
X12176483Y-12985707D01*
X12171024Y-12982817D01*
X12163483Y-12978824D01*
X12148213Y-12974989D01*
X12148217Y-12974972D01*
X12142063Y-12972288D01*
X12138123Y-12966382D01*
X12137550Y-12962625D01*
X12137550Y-12910840D01*
X12137550Y-12910499D01*
X12136918Y-12904684D01*
X12132137Y-12891930D01*
X12123969Y-12881031D01*
X12113069Y-12872863D01*
X12100316Y-12868082D01*
X12099530Y-12867996D01*
X12099530Y-12867996D01*
X12094841Y-12867487D01*
X12094841Y-12867487D01*
X12094501Y-12867450D01*
X12091646Y-12867450D01*
X12053273Y-12867450D01*
X12046461Y-12865450D01*
X12044363Y-12863760D01*
X12042575Y-12861972D01*
X12039173Y-12855740D01*
X12038885Y-12853062D01*
X12038885Y-12846753D01*
X12040885Y-12839941D01*
X12046251Y-12835292D01*
X12051485Y-12834153D01*
X12070197Y-12834153D01*
X12077504Y-12832700D01*
X12085790Y-12827163D01*
X12090197Y-12820566D01*
X12090637Y-12819909D01*
X12090637Y-12819909D01*
X12091326Y-12818877D01*
X12092780Y-12811570D01*
X12092780Y-12810082D01*
X12094780Y-12803270D01*
X12097823Y-12800000D01*
X12103302Y-12795893D01*
X12104558Y-12794637D01*
X12112208Y-12784430D01*
X12113062Y-12782870D01*
X12117707Y-12770481D01*
X12121971Y-12764805D01*
X12128627Y-12762335D01*
X12132702Y-12762717D01*
X12140372Y-12764729D01*
X12140372Y-12764729D01*
X12141107Y-12764921D01*
X12149438Y-12765052D01*
X12156090Y-12765157D01*
X12156090Y-12765157D01*
X12156849Y-12765169D01*
X12172197Y-12761654D01*
X12186262Y-12754579D01*
X12192280Y-12749440D01*
X12197657Y-12744847D01*
X12197658Y-12744847D01*
X12198235Y-12744354D01*
X12207422Y-12731568D01*
X12213295Y-12716960D01*
X12215513Y-12701372D01*
X12215528Y-12700000D01*
X12213636Y-12684369D01*
X12210842Y-12676974D01*
X12208339Y-12670351D01*
X12208339Y-12670351D01*
X12208071Y-12669641D01*
X12199153Y-12656666D01*
X12190338Y-12648812D01*
X12186582Y-12642787D01*
X12186680Y-12635688D01*
X12188488Y-12632051D01*
X12191998Y-12627166D01*
X12191998Y-12627166D01*
X12192441Y-12626549D01*
X12198314Y-12611941D01*
X12200532Y-12596353D01*
X12200547Y-12594981D01*
X12198655Y-12579350D01*
X12196501Y-12573650D01*
X12193358Y-12565332D01*
X12193358Y-12565332D01*
X12193090Y-12564622D01*
X12184172Y-12551647D01*
X12174497Y-12543026D01*
X12172984Y-12541678D01*
X12172983Y-12541678D01*
X12172417Y-12541173D01*
X12158502Y-12533805D01*
X12156831Y-12533386D01*
X12143969Y-12530155D01*
X12143969Y-12530155D01*
X12143232Y-12529970D01*
X12142472Y-12529966D01*
X12142472Y-12529966D01*
X12135751Y-12529931D01*
X12127487Y-12529887D01*
X12126749Y-12530065D01*
X12126749Y-12530065D01*
X12112916Y-12533386D01*
X12112915Y-12533386D01*
X12112178Y-12533563D01*
X12111503Y-12533911D01*
X12111503Y-12533911D01*
X12110370Y-12534496D01*
X12103399Y-12535843D01*
X12096807Y-12533208D01*
X12092686Y-12527426D01*
X12092233Y-12525757D01*
X12091562Y-12522382D01*
X12091562Y-12517466D01*
X12092659Y-12511949D01*
X12092659Y-12511949D01*
X12092780Y-12511342D01*
X12092780Y-12478468D01*
X12092236Y-12475732D01*
X12091562Y-12472344D01*
X12091562Y-12467428D01*
X12092659Y-12461911D01*
X12092659Y-12461911D01*
X12092780Y-12461304D01*
X12092780Y-12428430D01*
X12091326Y-12421123D01*
X12090576Y-12420000D01*
X12086479Y-12413868D01*
X12085790Y-12412837D01*
X12085094Y-12412372D01*
X12081825Y-12406386D01*
X12082447Y-12399008D01*
X12083267Y-12396968D01*
X12087933Y-12385360D01*
X12088011Y-12385165D01*
X12088012Y-12385165D01*
X12088295Y-12384460D01*
X12089378Y-12376853D01*
X12090455Y-12369281D01*
X12090455Y-12369280D01*
X12090513Y-12368872D01*
X12090528Y-12367500D01*
X12088636Y-12351869D01*
X12087329Y-12348409D01*
X12083339Y-12337851D01*
X12083339Y-12337851D01*
X12083071Y-12337141D01*
X12074153Y-12324166D01*
X12066378Y-12317238D01*
X12062965Y-12314197D01*
X12062964Y-12314197D01*
X12062398Y-12313692D01*
X12060779Y-12312835D01*
X12050184Y-12307225D01*
X12048483Y-12306324D01*
X12046812Y-12305905D01*
X12033950Y-12302674D01*
X12033950Y-12302674D01*
X12033213Y-12302489D01*
X12032453Y-12302485D01*
X12032453Y-12302485D01*
X12025732Y-12302450D01*
X12017468Y-12302406D01*
X12016730Y-12302584D01*
X12016730Y-12302584D01*
X12002897Y-12305905D01*
X12002896Y-12305905D01*
X12002159Y-12306082D01*
X11988168Y-12313303D01*
X11987596Y-12313802D01*
X11987595Y-12313802D01*
X11976876Y-12323154D01*
X11976876Y-12323154D01*
X11976303Y-12323653D01*
X11971468Y-12330533D01*
X11969486Y-12333353D01*
X11967567Y-12334882D01*
X11967513Y-12335919D01*
X11967243Y-12336532D01*
X11967250Y-12336535D01*
X11961531Y-12351204D01*
X11961043Y-12354906D01*
X11960547Y-12358681D01*
X11959476Y-12366814D01*
X11961203Y-12382463D01*
X11961464Y-12383176D01*
X11961464Y-12383176D01*
X11962875Y-12387030D01*
X11963369Y-12391401D01*
X11963566Y-12391394D01*
X11963619Y-12392752D01*
X11963513Y-12393173D01*
X11963476Y-12393467D01*
X11963440Y-12393463D01*
X11961888Y-12399637D01*
X11956709Y-12404494D01*
X11951029Y-12405847D01*
X11932472Y-12405847D01*
X11925166Y-12407300D01*
X11916880Y-12412837D01*
X11916191Y-12413868D01*
X11912094Y-12420000D01*
X11911343Y-12421123D01*
X11909890Y-12428430D01*
X11909890Y-12449301D01*
X11907890Y-12456113D01*
X11902524Y-12460762D01*
X11895497Y-12461773D01*
X11889039Y-12458823D01*
X11886813Y-12456301D01*
X11886380Y-12455652D01*
X11886379Y-12455651D01*
X11885690Y-12454620D01*
X11877404Y-12449083D01*
X11870097Y-12447630D01*
X11838900Y-12447630D01*
X11832088Y-12445630D01*
X11827439Y-12440264D01*
X11826300Y-12435030D01*
X11826300Y-12389984D01*
X11828300Y-12383171D01*
X11833666Y-12378522D01*
X11834477Y-12378185D01*
X11837192Y-12377168D01*
X11837192Y-12377168D01*
X11838032Y-12376853D01*
X11838750Y-12376315D01*
X11838751Y-12376314D01*
X11848786Y-12368793D01*
X11849505Y-12368255D01*
X11857965Y-12356965D01*
X11863651Y-12352714D01*
X11871245Y-12352334D01*
X11880372Y-12354729D01*
X11880372Y-12354729D01*
X11881107Y-12354921D01*
X11889438Y-12355052D01*
X11896090Y-12355157D01*
X11896090Y-12355157D01*
X11896849Y-12355169D01*
X11912197Y-12351654D01*
X11926262Y-12344579D01*
X11931517Y-12340091D01*
X11937657Y-12334847D01*
X11937658Y-12334847D01*
X11938235Y-12334354D01*
X11938678Y-12333737D01*
X11945391Y-12324395D01*
X11947388Y-12322839D01*
X11947487Y-12321409D01*
X11953011Y-12307665D01*
X11953012Y-12307665D01*
X11953295Y-12306960D01*
X11954937Y-12295420D01*
X11955455Y-12291781D01*
X11955455Y-12291780D01*
X11955513Y-12291372D01*
X11955520Y-12290725D01*
X11955523Y-12290413D01*
X11955523Y-12290413D01*
X11955528Y-12290000D01*
X11953636Y-12274369D01*
X11953229Y-12273291D01*
X11948339Y-12260351D01*
X11948339Y-12260351D01*
X11948071Y-12259641D01*
X11939153Y-12246666D01*
X11930529Y-12238982D01*
X11927965Y-12236697D01*
X11927964Y-12236697D01*
X11927398Y-12236192D01*
X11913483Y-12228824D01*
X11905057Y-12226708D01*
X11898950Y-12225174D01*
X11898950Y-12225174D01*
X11898213Y-12224989D01*
X11897453Y-12224985D01*
X11897453Y-12224985D01*
X11890732Y-12224950D01*
X11882468Y-12224906D01*
X11881730Y-12225084D01*
X11881730Y-12225084D01*
X11874964Y-12226708D01*
X11867874Y-12226353D01*
X11862100Y-12222221D01*
X11860225Y-12218879D01*
X11858418Y-12214058D01*
X11858418Y-12214058D01*
X11858103Y-12213218D01*
X11857565Y-12212500D01*
X11857564Y-12212499D01*
X11850043Y-12202463D01*
X11849505Y-12201745D01*
X11848786Y-12201207D01*
X11838751Y-12193686D01*
X11838750Y-12193685D01*
X11838032Y-12193147D01*
X11829094Y-12189797D01*
X11825347Y-12188392D01*
X11825347Y-12188392D01*
X11824608Y-12188115D01*
X11823823Y-12188030D01*
X11823823Y-12188030D01*
X11818827Y-12187487D01*
X11818827Y-12187487D01*
X11818488Y-12187450D01*
X11780006Y-12187450D01*
X11741512Y-12187450D01*
X11741173Y-12187487D01*
X11741172Y-12187487D01*
X11736178Y-12188029D01*
X11736177Y-12188030D01*
X11735392Y-12188115D01*
X11721968Y-12193147D01*
X11721250Y-12193685D01*
X11721249Y-12193686D01*
X11711213Y-12201207D01*
X11710495Y-12201745D01*
X11709957Y-12202463D01*
X11702436Y-12212499D01*
X11702435Y-12212500D01*
X11701897Y-12213218D01*
X11696865Y-12226642D01*
X11696200Y-12232762D01*
X11696200Y-12337238D01*
X11696237Y-12337577D01*
X11696237Y-12337578D01*
X11696510Y-12340091D01*
X11696865Y-12343358D01*
X11696918Y-12343500D01*
X11696563Y-12350307D01*
X11692419Y-12356072D01*
X11685816Y-12358681D01*
X11681605Y-12358353D01*
X11668950Y-12355174D01*
X11668949Y-12355174D01*
X11668213Y-12354989D01*
X11667453Y-12354985D01*
X11666834Y-12354907D01*
X11660326Y-12352068D01*
X11656386Y-12346162D01*
X11655886Y-12341045D01*
X11656263Y-12337578D01*
X11656263Y-12337577D01*
X11656300Y-12337238D01*
X11656300Y-12232762D01*
X11656262Y-12232412D01*
X11655720Y-12227428D01*
X11655720Y-12227427D01*
X11655635Y-12226642D01*
X11650603Y-12213218D01*
X11650065Y-12212500D01*
X11650064Y-12212499D01*
X11642543Y-12202463D01*
X11642005Y-12201745D01*
X11641286Y-12201207D01*
X11631251Y-12193686D01*
X11631250Y-12193685D01*
X11630532Y-12193147D01*
X11621594Y-12189797D01*
X11617847Y-12188392D01*
X11617847Y-12188392D01*
X11617108Y-12188115D01*
X11616323Y-12188030D01*
X11616323Y-12188030D01*
X11611327Y-12187487D01*
X11611327Y-12187487D01*
X11610988Y-12187450D01*
X11572506Y-12187450D01*
X11534012Y-12187450D01*
X11533673Y-12187487D01*
X11533672Y-12187487D01*
X11528678Y-12188029D01*
X11528677Y-12188030D01*
X11527892Y-12188115D01*
X11514468Y-12193147D01*
X11513750Y-12193685D01*
X11513749Y-12193686D01*
X11503713Y-12201207D01*
X11502995Y-12201745D01*
X11502457Y-12202463D01*
X11494936Y-12212499D01*
X11494935Y-12212500D01*
X11494397Y-12213218D01*
X11489365Y-12226642D01*
X11488700Y-12232762D01*
X11488700Y-12277457D01*
X11488700Y-12317644D01*
X11486700Y-12324456D01*
X11485010Y-12326554D01*
X11476559Y-12335004D01*
X11470328Y-12338407D01*
X11463247Y-12337900D01*
X11457563Y-12333645D01*
X11455082Y-12326993D01*
X11455050Y-12326094D01*
X11455050Y-12320499D01*
X11454418Y-12314684D01*
X11449637Y-12301930D01*
X11441469Y-12291031D01*
X11430569Y-12282863D01*
X11417816Y-12278082D01*
X11412066Y-12277457D01*
X11405510Y-12274733D01*
X11401468Y-12268897D01*
X11400827Y-12265021D01*
X11400091Y-12162691D01*
X11402042Y-12155864D01*
X11407374Y-12151177D01*
X11412691Y-12150000D01*
X12471401Y-12150000D01*
X12478213Y-12152000D01*
G37*
%TD.AperFunction*%
%TD*%
%TA.AperFunction,Conductor*%
%TO.N,VDC*%
G36*
X12553766Y-12566089D02*
G01*
X12566168Y-12571611D01*
X12566168Y-12571611D01*
X12566771Y-12571879D01*
X12570934Y-12572764D01*
X12584806Y-12575713D01*
X12584806Y-12575713D01*
X12585451Y-12575850D01*
X12604549Y-12575850D01*
X12605194Y-12575713D01*
X12605194Y-12575713D01*
X12619066Y-12572764D01*
X12623229Y-12571879D01*
X12623832Y-12571611D01*
X12623832Y-12571611D01*
X12636234Y-12566089D01*
X12641358Y-12565000D01*
X12696600Y-12565000D01*
X12703412Y-12567000D01*
X12708061Y-12572366D01*
X12709200Y-12577600D01*
X12709200Y-12623188D01*
X12709647Y-12624712D01*
X12709786Y-12624833D01*
X12710555Y-12625000D01*
X12846550Y-12625000D01*
X12853362Y-12627000D01*
X12858011Y-12632366D01*
X12859150Y-12637600D01*
X12859150Y-12642400D01*
X12857150Y-12649212D01*
X12851784Y-12653861D01*
X12846550Y-12655000D01*
X12841811Y-12655000D01*
X12840288Y-12655447D01*
X12840167Y-12655586D01*
X12840000Y-12656355D01*
X12840000Y-12761004D01*
X12840404Y-12762381D01*
X12841758Y-12762584D01*
X12847719Y-12761799D01*
X12847739Y-12761951D01*
X12852261Y-12761951D01*
X12852281Y-12761799D01*
X12858204Y-12762579D01*
X12859622Y-12762358D01*
X12860000Y-12761042D01*
X12860000Y-12759978D01*
X12862000Y-12753165D01*
X12867366Y-12748516D01*
X12874393Y-12747506D01*
X12880270Y-12749981D01*
X12885391Y-12753910D01*
X12889577Y-12759644D01*
X12889810Y-12760357D01*
X12890447Y-12762528D01*
X12890651Y-12762705D01*
X12894490Y-12768677D01*
X12895000Y-12772227D01*
X12895000Y-12843766D01*
X12893000Y-12850578D01*
X12891317Y-12852667D01*
X12888819Y-12855170D01*
X12888540Y-12855623D01*
X12882815Y-12859682D01*
X12875722Y-12860005D01*
X12869581Y-12856443D01*
X12868844Y-12855593D01*
X12868040Y-12854579D01*
X12856567Y-12843126D01*
X12855426Y-12842225D01*
X12841626Y-12833718D01*
X12840308Y-12833104D01*
X12824879Y-12827986D01*
X12823541Y-12827699D01*
X12814106Y-12826733D01*
X12813464Y-12826700D01*
X12802211Y-12826700D01*
X12800688Y-12827147D01*
X12800567Y-12827286D01*
X12800400Y-12828055D01*
X12800400Y-13071488D01*
X12800847Y-13073012D01*
X12800986Y-13073133D01*
X12801755Y-13073300D01*
X12813459Y-13073300D01*
X12814111Y-13073266D01*
X12823671Y-13072274D01*
X12825010Y-13071985D01*
X12840428Y-13066841D01*
X12841746Y-13066224D01*
X12855531Y-13057694D01*
X12856671Y-13056790D01*
X12868124Y-13045317D01*
X12868829Y-13044424D01*
X12874621Y-13040318D01*
X12881713Y-13039995D01*
X12887855Y-13043557D01*
X12888535Y-13044341D01*
X12888902Y-13044935D01*
X12889420Y-13045452D01*
X12889421Y-13045453D01*
X12891302Y-13047330D01*
X12894710Y-13053558D01*
X12895000Y-13056247D01*
X12895000Y-13267400D01*
X12893000Y-13274212D01*
X12887634Y-13278861D01*
X12882400Y-13280000D01*
X12547600Y-13280000D01*
X12540788Y-13278000D01*
X12536139Y-13272634D01*
X12535000Y-13267400D01*
X12535000Y-13002209D01*
X12665450Y-13002209D01*
X12665484Y-13002861D01*
X12666476Y-13012421D01*
X12666765Y-13013760D01*
X12671909Y-13029178D01*
X12672526Y-13030496D01*
X12681056Y-13044281D01*
X12681960Y-13045421D01*
X12693433Y-13056874D01*
X12694574Y-13057775D01*
X12708374Y-13066282D01*
X12709692Y-13066896D01*
X12725121Y-13072014D01*
X12726459Y-13072300D01*
X12735894Y-13073267D01*
X12736535Y-13073300D01*
X12747788Y-13073300D01*
X12749312Y-13072852D01*
X12749433Y-13072713D01*
X12749600Y-13071945D01*
X12749600Y-12977211D01*
X12749152Y-12975688D01*
X12749013Y-12975567D01*
X12748245Y-12975400D01*
X12667262Y-12975400D01*
X12665738Y-12975847D01*
X12665617Y-12975986D01*
X12665450Y-12976755D01*
X12665450Y-13002209D01*
X12535000Y-13002209D01*
X12535000Y-12922788D01*
X12665450Y-12922788D01*
X12665897Y-12924312D01*
X12666036Y-12924433D01*
X12666805Y-12924600D01*
X12747788Y-12924600D01*
X12749312Y-12924152D01*
X12749433Y-12924013D01*
X12749600Y-12923245D01*
X12749600Y-12828512D01*
X12749152Y-12826988D01*
X12749013Y-12826867D01*
X12748245Y-12826700D01*
X12736540Y-12826700D01*
X12735889Y-12826734D01*
X12726329Y-12827726D01*
X12724990Y-12828015D01*
X12709572Y-12833159D01*
X12708254Y-12833776D01*
X12694469Y-12842306D01*
X12693329Y-12843210D01*
X12681876Y-12854683D01*
X12680975Y-12855824D01*
X12672468Y-12869624D01*
X12671854Y-12870942D01*
X12666736Y-12886371D01*
X12666449Y-12887709D01*
X12665483Y-12897144D01*
X12665450Y-12897785D01*
X12665450Y-12922788D01*
X12535000Y-12922788D01*
X12535000Y-12708409D01*
X12709200Y-12708409D01*
X12709254Y-12709230D01*
X12710593Y-12719400D01*
X12711017Y-12720982D01*
X12716259Y-12733639D01*
X12717078Y-12735057D01*
X12725417Y-12745925D01*
X12726575Y-12747083D01*
X12737443Y-12755422D01*
X12738861Y-12756241D01*
X12751517Y-12761483D01*
X12753099Y-12761907D01*
X12758204Y-12762579D01*
X12759622Y-12762358D01*
X12760000Y-12761042D01*
X12760000Y-12761004D01*
X12790000Y-12761004D01*
X12790404Y-12762381D01*
X12791758Y-12762584D01*
X12797719Y-12761799D01*
X12797739Y-12761951D01*
X12802261Y-12761951D01*
X12802281Y-12761799D01*
X12808204Y-12762579D01*
X12809622Y-12762358D01*
X12810000Y-12761042D01*
X12810000Y-12656811D01*
X12809552Y-12655288D01*
X12809413Y-12655167D01*
X12808645Y-12655000D01*
X12791811Y-12655000D01*
X12790288Y-12655447D01*
X12790167Y-12655586D01*
X12790000Y-12656355D01*
X12790000Y-12761004D01*
X12760000Y-12761004D01*
X12760000Y-12656811D01*
X12759552Y-12655288D01*
X12759413Y-12655167D01*
X12758645Y-12655000D01*
X12711011Y-12655000D01*
X12709488Y-12655447D01*
X12709367Y-12655586D01*
X12709200Y-12656355D01*
X12709200Y-12708409D01*
X12535000Y-12708409D01*
X12535000Y-12577600D01*
X12537000Y-12570788D01*
X12542366Y-12566139D01*
X12547600Y-12565000D01*
X12548641Y-12565000D01*
X12553766Y-12566089D01*
G37*
%TD.AperFunction*%
%TD*%
%TA.AperFunction,Conductor*%
%TO.N,GND*%
G36*
X12555851Y-12156423D02*
G01*
X12556616Y-12157143D01*
X12726616Y-12331290D01*
X12729943Y-12337562D01*
X12730200Y-12340091D01*
X12730200Y-12397788D01*
X12730647Y-12399312D01*
X12730786Y-12399433D01*
X12731555Y-12399600D01*
X12847788Y-12399600D01*
X12849312Y-12399152D01*
X12849433Y-12399013D01*
X12849600Y-12398245D01*
X12849600Y-12345000D01*
X12900400Y-12345000D01*
X12900400Y-12397788D01*
X12900847Y-12399312D01*
X12900986Y-12399433D01*
X12901755Y-12399600D01*
X13017988Y-12399600D01*
X13019512Y-12399152D01*
X13019633Y-12399013D01*
X13019800Y-12398245D01*
X13019800Y-12371471D01*
X13021800Y-12364659D01*
X13027166Y-12360009D01*
X13034193Y-12358999D01*
X13037421Y-12360134D01*
X13037496Y-12359961D01*
X13041554Y-12361717D01*
X13042619Y-12362239D01*
X13046494Y-12364369D01*
X13047261Y-12364567D01*
X13047262Y-12364567D01*
X13048456Y-12364873D01*
X13050327Y-12365514D01*
X13052185Y-12366318D01*
X13052968Y-12366442D01*
X13052969Y-12366442D01*
X13056552Y-12367010D01*
X13057714Y-12367250D01*
X13061229Y-12368153D01*
X13061997Y-12368350D01*
X13064022Y-12368350D01*
X13065993Y-12368505D01*
X13067994Y-12368822D01*
X13068783Y-12368747D01*
X13072396Y-12368406D01*
X13073582Y-12368350D01*
X13239050Y-12368350D01*
X13245862Y-12370350D01*
X13250511Y-12375716D01*
X13251650Y-12380950D01*
X13251650Y-12532400D01*
X13249650Y-12539212D01*
X13244284Y-12543861D01*
X13239050Y-12545000D01*
X13039179Y-12545000D01*
X13032367Y-12543000D01*
X13029183Y-12540070D01*
X13024582Y-12534074D01*
X13022841Y-12532333D01*
X13022973Y-12532201D01*
X13019399Y-12527308D01*
X13018998Y-12520129D01*
X13019210Y-12519235D01*
X13019763Y-12514149D01*
X13019800Y-12513467D01*
X13019800Y-12452211D01*
X13019352Y-12450688D01*
X13019213Y-12450567D01*
X13018445Y-12450400D01*
X12732012Y-12450400D01*
X12730488Y-12450847D01*
X12730367Y-12450986D01*
X12730200Y-12451755D01*
X12730200Y-12504516D01*
X12728200Y-12511328D01*
X12722834Y-12515978D01*
X12715807Y-12516988D01*
X12714050Y-12516606D01*
X12711499Y-12515857D01*
X12711499Y-12515857D01*
X12711067Y-12515730D01*
X12710622Y-12515666D01*
X12710621Y-12515666D01*
X12697045Y-12513714D01*
X12697044Y-12513714D01*
X12696600Y-12513650D01*
X12641358Y-12513650D01*
X12630682Y-12514772D01*
X12625557Y-12515861D01*
X12615348Y-12519179D01*
X12615046Y-12519313D01*
X12608483Y-12522235D01*
X12605979Y-12523049D01*
X12600447Y-12524225D01*
X12597828Y-12524500D01*
X12592173Y-12524500D01*
X12589553Y-12524225D01*
X12584022Y-12523049D01*
X12581517Y-12522235D01*
X12574953Y-12519313D01*
X12574652Y-12519179D01*
X12571492Y-12518152D01*
X12564756Y-12515963D01*
X12564756Y-12515963D01*
X12564442Y-12515861D01*
X12559318Y-12514772D01*
X12548641Y-12513650D01*
X12547600Y-12513650D01*
X12540788Y-12511650D01*
X12536139Y-12506284D01*
X12535000Y-12501050D01*
X12535000Y-12165945D01*
X12537000Y-12159133D01*
X12542366Y-12154484D01*
X12549393Y-12153473D01*
X12555851Y-12156423D01*
G37*
%TD.AperFunction*%
%TD*%
%TA.AperFunction,Conductor*%
%TO.N,/p5v_out*%
G36*
X12577931Y-11614500D02*
G01*
X12582580Y-11619866D01*
X12583665Y-11624854D01*
X12583650Y-11625000D01*
X12585435Y-11641990D01*
X12585525Y-11642847D01*
X12584248Y-11649831D01*
X12583720Y-11650776D01*
X12583288Y-11651476D01*
X12583058Y-11652171D01*
X12583058Y-11652171D01*
X12578289Y-11666550D01*
X12577720Y-11668264D01*
X12576650Y-11678710D01*
X12576650Y-11756290D01*
X12577747Y-11766867D01*
X12583345Y-11783645D01*
X12592652Y-11798685D01*
X12605170Y-11811180D01*
X12605623Y-11811460D01*
X12609682Y-11817185D01*
X12610005Y-11824278D01*
X12606443Y-11830419D01*
X12605593Y-11831156D01*
X12604579Y-11831960D01*
X12593126Y-11843433D01*
X12592225Y-11844574D01*
X12583718Y-11858374D01*
X12583104Y-11859692D01*
X12577986Y-11875121D01*
X12577699Y-11876459D01*
X12576733Y-11885894D01*
X12576700Y-11886535D01*
X12576700Y-11897788D01*
X12577147Y-11899312D01*
X12577286Y-11899433D01*
X12578055Y-11899600D01*
X12712800Y-11899600D01*
X12719612Y-11901600D01*
X12724261Y-11906966D01*
X12725400Y-11912200D01*
X12725400Y-12032738D01*
X12725847Y-12034262D01*
X12725986Y-12034383D01*
X12726755Y-12034550D01*
X12752209Y-12034550D01*
X12752861Y-12034516D01*
X12762421Y-12033524D01*
X12763760Y-12033235D01*
X12779178Y-12028091D01*
X12780496Y-12027474D01*
X12794281Y-12018944D01*
X12795421Y-12018040D01*
X12806874Y-12006567D01*
X12807775Y-12005426D01*
X12816282Y-11991625D01*
X12816305Y-11991575D01*
X12816330Y-11991547D01*
X12816666Y-11991002D01*
X12816759Y-11991060D01*
X12820997Y-11986247D01*
X12827825Y-11984301D01*
X12834621Y-11986356D01*
X12838439Y-11990271D01*
X12842388Y-11996653D01*
X12842907Y-11997170D01*
X12854182Y-12008426D01*
X12854182Y-12008426D01*
X12854700Y-12008943D01*
X12855323Y-12009327D01*
X12855323Y-12009327D01*
X12855661Y-12009536D01*
X12855844Y-12009739D01*
X12855897Y-12009781D01*
X12855890Y-12009790D01*
X12860411Y-12014813D01*
X12861650Y-12020262D01*
X12861650Y-12044900D01*
X12859650Y-12051712D01*
X12854284Y-12056361D01*
X12849050Y-12057500D01*
X12835000Y-12057500D01*
X12835000Y-12094344D01*
X12832443Y-12098324D01*
X12831864Y-12098796D01*
X12830270Y-12100019D01*
X12823648Y-12102579D01*
X12816693Y-12101152D01*
X12811614Y-12096192D01*
X12810000Y-12090022D01*
X12810000Y-12088996D01*
X12809596Y-12087619D01*
X12808242Y-12087416D01*
X12802281Y-12088201D01*
X12802261Y-12088049D01*
X12797739Y-12088049D01*
X12797719Y-12088201D01*
X12791796Y-12087421D01*
X12790378Y-12087642D01*
X12790000Y-12088958D01*
X12790000Y-12193188D01*
X12790447Y-12194712D01*
X12790586Y-12194833D01*
X12791355Y-12195000D01*
X12796550Y-12195000D01*
X12803362Y-12197000D01*
X12808011Y-12202366D01*
X12809150Y-12207600D01*
X12809150Y-12212400D01*
X12807150Y-12219212D01*
X12801784Y-12223861D01*
X12796550Y-12225000D01*
X12711011Y-12225000D01*
X12706288Y-12226387D01*
X12705698Y-12226766D01*
X12698598Y-12226766D01*
X12693132Y-12223478D01*
X12663563Y-12193188D01*
X12709200Y-12193188D01*
X12709647Y-12194712D01*
X12709786Y-12194833D01*
X12710555Y-12195000D01*
X12758188Y-12195000D01*
X12759712Y-12194552D01*
X12759833Y-12194413D01*
X12760000Y-12193645D01*
X12760000Y-12088996D01*
X12759596Y-12087619D01*
X12758242Y-12087416D01*
X12753099Y-12088093D01*
X12751517Y-12088517D01*
X12738861Y-12093759D01*
X12737443Y-12094578D01*
X12726575Y-12102917D01*
X12725417Y-12104075D01*
X12717078Y-12114943D01*
X12716259Y-12116361D01*
X12711017Y-12129017D01*
X12710593Y-12130599D01*
X12709254Y-12140770D01*
X12709200Y-12141591D01*
X12709200Y-12193188D01*
X12663563Y-12193188D01*
X12593361Y-12121274D01*
X12591830Y-12119770D01*
X12591065Y-12119049D01*
X12589479Y-12117615D01*
X12577183Y-12109713D01*
X12570725Y-12106764D01*
X12556701Y-12102646D01*
X12549955Y-12102646D01*
X12543143Y-12100646D01*
X12540752Y-12098652D01*
X12540445Y-12098324D01*
X12538397Y-12096133D01*
X12535205Y-12089791D01*
X12535000Y-12087527D01*
X12535000Y-11963459D01*
X12576700Y-11963459D01*
X12576734Y-11964111D01*
X12577726Y-11973671D01*
X12578015Y-11975010D01*
X12583159Y-11990428D01*
X12583776Y-11991746D01*
X12592306Y-12005531D01*
X12593210Y-12006671D01*
X12604683Y-12018124D01*
X12605824Y-12019025D01*
X12619624Y-12027532D01*
X12620942Y-12028146D01*
X12636371Y-12033264D01*
X12637709Y-12033550D01*
X12647144Y-12034517D01*
X12647785Y-12034550D01*
X12672788Y-12034550D01*
X12674312Y-12034102D01*
X12674433Y-12033963D01*
X12674600Y-12033195D01*
X12674600Y-11952211D01*
X12674152Y-11950688D01*
X12674013Y-11950567D01*
X12673245Y-11950400D01*
X12578512Y-11950400D01*
X12576988Y-11950847D01*
X12576867Y-11950986D01*
X12576700Y-11951755D01*
X12576700Y-11963459D01*
X12535000Y-11963459D01*
X12535000Y-11625100D01*
X12537000Y-11618288D01*
X12542366Y-11613639D01*
X12547600Y-11612500D01*
X12571119Y-11612500D01*
X12577931Y-11614500D01*
G37*
%TD.AperFunction*%
%TD*%
%TA.AperFunction,Conductor*%
%TO.N,/vload*%
G36*
X10822624Y-13051449D02*
G01*
X10832003Y-13056383D01*
X10845371Y-13061052D01*
X10849285Y-13062419D01*
X10855864Y-13064716D01*
X10856324Y-13064803D01*
X10880237Y-13069343D01*
X10880237Y-13069343D01*
X10880696Y-13069431D01*
X10892708Y-13069903D01*
X10905485Y-13070405D01*
X10905485Y-13070405D01*
X10905951Y-13070423D01*
X10913766Y-13069567D01*
X10930611Y-13067722D01*
X10930611Y-13067722D01*
X10931076Y-13067671D01*
X10931528Y-13067552D01*
X10955066Y-13061355D01*
X10955066Y-13061355D01*
X10955518Y-13061236D01*
X10970302Y-13054885D01*
X10978312Y-13051443D01*
X10978313Y-13051443D01*
X10978368Y-13051419D01*
X10978368Y-13051419D01*
X10978741Y-13051259D01*
X10978767Y-13051321D01*
X10984168Y-13050000D01*
X11035044Y-13050000D01*
X11041856Y-13052000D01*
X11046506Y-13057366D01*
X11047248Y-13059466D01*
X11048596Y-13064716D01*
X11051512Y-13076073D01*
X11051746Y-13076584D01*
X11051746Y-13076584D01*
X11060385Y-13095454D01*
X11060386Y-13095454D01*
X11060619Y-13095964D01*
X11073104Y-13113927D01*
X11088573Y-13129396D01*
X11106536Y-13141881D01*
X11107046Y-13142114D01*
X11107046Y-13142115D01*
X11125916Y-13150754D01*
X11125916Y-13150754D01*
X11126427Y-13150988D01*
X11147615Y-13156428D01*
X11153896Y-13156939D01*
X11161155Y-13157529D01*
X11161156Y-13157529D01*
X11161410Y-13157550D01*
X11189989Y-13157550D01*
X11218590Y-13157550D01*
X11232385Y-13156428D01*
X11232904Y-13156295D01*
X11232905Y-13156294D01*
X11253029Y-13151127D01*
X11253573Y-13150988D01*
X11254084Y-13150754D01*
X11254084Y-13150754D01*
X11262255Y-13147013D01*
X11269281Y-13145996D01*
X11272745Y-13147013D01*
X11280916Y-13150754D01*
X11280916Y-13150754D01*
X11281427Y-13150988D01*
X11281971Y-13151127D01*
X11290533Y-13153326D01*
X11296634Y-13156957D01*
X11299803Y-13163311D01*
X11300000Y-13165530D01*
X11300000Y-13448215D01*
X11298000Y-13455027D01*
X11294755Y-13457839D01*
X11293067Y-13459786D01*
X11292900Y-13460555D01*
X11292900Y-13552350D01*
X11290900Y-13559162D01*
X11285534Y-13563811D01*
X11280300Y-13564950D01*
X11237268Y-13564950D01*
X11236410Y-13564950D01*
X11222615Y-13566072D01*
X11222096Y-13566205D01*
X11222095Y-13566205D01*
X11203013Y-13571105D01*
X11201427Y-13571512D01*
X11200916Y-13571746D01*
X11200916Y-13571746D01*
X11184512Y-13579256D01*
X11179267Y-13580400D01*
X11171012Y-13580400D01*
X11169488Y-13580847D01*
X11168656Y-13581808D01*
X11162683Y-13585646D01*
X11161946Y-13585838D01*
X11161229Y-13586003D01*
X11159536Y-13586271D01*
X11157766Y-13586429D01*
X11157225Y-13586577D01*
X11157224Y-13586577D01*
X11149782Y-13588613D01*
X11149271Y-13588742D01*
X11141748Y-13590464D01*
X11141748Y-13590464D01*
X11141201Y-13590590D01*
X11140685Y-13590810D01*
X11140685Y-13590810D01*
X11139567Y-13591287D01*
X11137949Y-13591850D01*
X11136776Y-13592171D01*
X11136776Y-13592171D01*
X11136235Y-13592319D01*
X11132958Y-13593882D01*
X11128763Y-13595883D01*
X11128283Y-13596100D01*
X11120669Y-13599348D01*
X11119183Y-13600324D01*
X11117691Y-13601164D01*
X11116087Y-13601929D01*
X11115631Y-13602257D01*
X11115631Y-13602257D01*
X11112887Y-13604229D01*
X11106188Y-13606580D01*
X11102061Y-13606108D01*
X11095506Y-13604229D01*
X11089559Y-13602523D01*
X11086396Y-13602241D01*
X11077811Y-13601475D01*
X11077810Y-13601475D01*
X11077532Y-13601450D01*
X11025468Y-13601450D01*
X11025190Y-13601475D01*
X11025189Y-13601475D01*
X11019620Y-13601972D01*
X11017380Y-13601972D01*
X11011811Y-13601475D01*
X11011810Y-13601475D01*
X11011532Y-13601450D01*
X10959468Y-13601450D01*
X10959190Y-13601475D01*
X10959189Y-13601475D01*
X10953620Y-13601972D01*
X10951380Y-13601972D01*
X10945811Y-13601475D01*
X10945810Y-13601475D01*
X10945532Y-13601450D01*
X10893468Y-13601450D01*
X10893190Y-13601475D01*
X10893189Y-13601475D01*
X10887620Y-13601972D01*
X10885380Y-13601972D01*
X10879811Y-13601475D01*
X10879810Y-13601475D01*
X10879532Y-13601450D01*
X10827468Y-13601450D01*
X10827190Y-13601475D01*
X10827189Y-13601475D01*
X10818605Y-13602241D01*
X10815441Y-13602523D01*
X10795903Y-13608126D01*
X10777890Y-13617543D01*
X10762139Y-13630389D01*
X10749293Y-13646140D01*
X10739876Y-13664153D01*
X10734273Y-13683691D01*
X10733200Y-13695718D01*
X10733200Y-13713919D01*
X10732938Y-13716474D01*
X10731479Y-13723522D01*
X10731393Y-13723906D01*
X10729292Y-13732658D01*
X10729259Y-13733219D01*
X10729231Y-13733708D01*
X10728990Y-13735539D01*
X10728777Y-13736569D01*
X10728450Y-13742235D01*
X10728450Y-13746891D01*
X10728429Y-13747616D01*
X10728154Y-13752385D01*
X10728007Y-13754944D01*
X10728074Y-13755501D01*
X10728359Y-13757853D01*
X10728450Y-13759367D01*
X10728450Y-13836811D01*
X10727279Y-13842116D01*
X10720614Y-13856475D01*
X10714459Y-13878667D01*
X10714404Y-13879181D01*
X10712486Y-13897131D01*
X10712012Y-13901566D01*
X10712042Y-13902082D01*
X10712042Y-13902082D01*
X10713324Y-13924328D01*
X10711720Y-13931244D01*
X10706631Y-13936194D01*
X10699673Y-13937608D01*
X10693056Y-13935035D01*
X10689610Y-13930949D01*
X10687616Y-13927183D01*
X10686937Y-13926180D01*
X10667460Y-13897413D01*
X10667459Y-13897412D01*
X10667269Y-13897131D01*
X10667050Y-13896872D01*
X10667049Y-13896872D01*
X10644016Y-13869712D01*
X10643796Y-13869453D01*
X10617472Y-13844472D01*
X10588603Y-13822480D01*
X10588311Y-13822304D01*
X10588311Y-13822304D01*
X10557820Y-13803910D01*
X10557819Y-13803910D01*
X10557528Y-13803734D01*
X10557219Y-13803590D01*
X10557218Y-13803590D01*
X10532295Y-13792021D01*
X10526958Y-13787339D01*
X10525000Y-13780593D01*
X10525000Y-13527813D01*
X11169207Y-13527813D01*
X11169648Y-13529312D01*
X11169787Y-13529433D01*
X11170555Y-13529600D01*
X11240288Y-13529600D01*
X11241812Y-13529152D01*
X11241933Y-13529013D01*
X11242100Y-13528245D01*
X11242100Y-13461011D01*
X11241652Y-13459488D01*
X11241513Y-13459367D01*
X11240745Y-13459200D01*
X11237956Y-13459200D01*
X11237305Y-13459234D01*
X11228094Y-13460189D01*
X11226754Y-13460479D01*
X11211889Y-13465438D01*
X11210571Y-13466055D01*
X11197283Y-13474279D01*
X11196143Y-13475182D01*
X11185101Y-13486243D01*
X11184200Y-13487384D01*
X11176000Y-13500688D01*
X11175385Y-13502006D01*
X11170451Y-13516881D01*
X11170164Y-13518219D01*
X11169233Y-13527310D01*
X11169207Y-13527813D01*
X10525000Y-13527813D01*
X10525000Y-13466377D01*
X10526874Y-13459765D01*
X10531555Y-13452171D01*
X10532170Y-13450853D01*
X10537058Y-13436116D01*
X10537345Y-13434779D01*
X10538261Y-13425830D01*
X10537853Y-13424438D01*
X10537714Y-13424317D01*
X10536945Y-13424150D01*
X10525000Y-13424150D01*
X10525000Y-13373350D01*
X10536489Y-13373350D01*
X10538012Y-13372902D01*
X10538133Y-13372763D01*
X10538284Y-13372068D01*
X10538266Y-13371722D01*
X10538009Y-13369242D01*
X10539296Y-13362260D01*
X10543350Y-13357595D01*
X10543689Y-13357360D01*
X10543689Y-13357360D01*
X10544150Y-13357040D01*
X10559540Y-13341650D01*
X10571961Y-13323778D01*
X10581021Y-13303989D01*
X10586434Y-13282908D01*
X10587550Y-13269184D01*
X10587550Y-13213316D01*
X10586434Y-13199592D01*
X10581021Y-13178511D01*
X10580787Y-13178001D01*
X10580787Y-13178000D01*
X10580508Y-13177390D01*
X10579491Y-13170363D01*
X10579909Y-13168482D01*
X10580806Y-13165530D01*
X10584856Y-13152197D01*
X10586257Y-13141561D01*
X10587819Y-13129697D01*
X10587819Y-13129696D01*
X10587862Y-13129365D01*
X10588030Y-13122500D01*
X10586143Y-13099548D01*
X10580736Y-13078021D01*
X10581016Y-13070927D01*
X10585088Y-13065111D01*
X10591657Y-13062419D01*
X10597110Y-13063056D01*
X10601864Y-13064716D01*
X10602324Y-13064803D01*
X10626237Y-13069343D01*
X10626237Y-13069343D01*
X10626696Y-13069431D01*
X10638708Y-13069903D01*
X10651485Y-13070405D01*
X10651485Y-13070405D01*
X10651951Y-13070423D01*
X10659766Y-13069567D01*
X10676611Y-13067722D01*
X10676611Y-13067722D01*
X10677076Y-13067671D01*
X10677528Y-13067552D01*
X10701066Y-13061355D01*
X10701066Y-13061355D01*
X10701518Y-13061236D01*
X10716302Y-13054885D01*
X10724312Y-13051443D01*
X10724313Y-13051443D01*
X10724368Y-13051419D01*
X10724368Y-13051419D01*
X10724741Y-13051259D01*
X10724767Y-13051321D01*
X10730168Y-13050000D01*
X10816758Y-13050000D01*
X10822624Y-13051449D01*
G37*
%TD.AperFunction*%
%TD*%
M02*
