%TF.GenerationSoftware,KiCad,Pcbnew,6.0.4-1.fc35*%
%TF.CreationDate,2022-04-05T13:43:00+01:00*%
%TF.ProjectId,cryosub_power_converter_top_v03,6372796f-7375-4625-9f70-6f7765725f63,rev?*%
%TF.SameCoordinates,Original*%
%TF.FileFunction,Copper,L4,Bot*%
%TF.FilePolarity,Positive*%
%FSLAX45Y45*%
G04 Gerber Fmt 4.5, Leading zero omitted, Abs format (unit mm)*
G04 Created by KiCad (PCBNEW 6.0.4-1.fc35) date 2022-04-05 13:43:00*
%MOMM*%
%LPD*%
G01*
G04 APERTURE LIST*
G04 Aperture macros list*
%AMRoundRect*
0 Rectangle with rounded corners*
0 $1 Rounding radius*
0 $2 $3 $4 $5 $6 $7 $8 $9 X,Y pos of 4 corners*
0 Add a 4 corners polygon primitive as box body*
4,1,4,$2,$3,$4,$5,$6,$7,$8,$9,$2,$3,0*
0 Add four circle primitives for the rounded corners*
1,1,$1+$1,$2,$3*
1,1,$1+$1,$4,$5*
1,1,$1+$1,$6,$7*
1,1,$1+$1,$8,$9*
0 Add four rect primitives between the rounded corners*
20,1,$1+$1,$2,$3,$4,$5,0*
20,1,$1+$1,$4,$5,$6,$7,0*
20,1,$1+$1,$6,$7,$8,$9,0*
20,1,$1+$1,$8,$9,$2,$3,0*%
G04 Aperture macros list end*
%ADD10C,0.300000*%
%TA.AperFunction,NonConductor*%
%ADD11C,0.300000*%
%TD*%
%TA.AperFunction,ComponentPad*%
%ADD12C,1.000000*%
%TD*%
%TA.AperFunction,ComponentPad*%
%ADD13C,1.400000*%
%TD*%
%TA.AperFunction,ComponentPad*%
%ADD14C,4.700000*%
%TD*%
%TA.AperFunction,ComponentPad*%
%ADD15RoundRect,0.250000X0.600000X-0.600000X0.600000X0.600000X-0.600000X0.600000X-0.600000X-0.600000X0*%
%TD*%
%TA.AperFunction,ComponentPad*%
%ADD16C,1.700000*%
%TD*%
%TA.AperFunction,SMDPad,CuDef*%
%ADD17RoundRect,0.237500X-0.237500X0.250000X-0.237500X-0.250000X0.237500X-0.250000X0.237500X0.250000X0*%
%TD*%
%TA.AperFunction,SMDPad,CuDef*%
%ADD18RoundRect,0.237500X0.237500X-0.250000X0.237500X0.250000X-0.237500X0.250000X-0.237500X-0.250000X0*%
%TD*%
%TA.AperFunction,SMDPad,CuDef*%
%ADD19RoundRect,0.237500X-0.250000X-0.237500X0.250000X-0.237500X0.250000X0.237500X-0.250000X0.237500X0*%
%TD*%
%TA.AperFunction,SMDPad,CuDef*%
%ADD20R,1.000000X3.000000*%
%TD*%
%TA.AperFunction,SMDPad,CuDef*%
%ADD21RoundRect,0.250000X-0.337500X-0.475000X0.337500X-0.475000X0.337500X0.475000X-0.337500X0.475000X0*%
%TD*%
%TA.AperFunction,SMDPad,CuDef*%
%ADD22RoundRect,0.225000X-0.225000X-0.250000X0.225000X-0.250000X0.225000X0.250000X-0.225000X0.250000X0*%
%TD*%
%TA.AperFunction,SMDPad,CuDef*%
%ADD23RoundRect,0.200000X-0.275000X0.200000X-0.275000X-0.200000X0.275000X-0.200000X0.275000X0.200000X0*%
%TD*%
%TA.AperFunction,SMDPad,CuDef*%
%ADD24RoundRect,0.200000X-0.200000X-0.275000X0.200000X-0.275000X0.200000X0.275000X-0.200000X0.275000X0*%
%TD*%
%TA.AperFunction,SMDPad,CuDef*%
%ADD25RoundRect,0.237500X0.250000X0.237500X-0.250000X0.237500X-0.250000X-0.237500X0.250000X-0.237500X0*%
%TD*%
%TA.AperFunction,SMDPad,CuDef*%
%ADD26RoundRect,0.200000X0.200000X0.275000X-0.200000X0.275000X-0.200000X-0.275000X0.200000X-0.275000X0*%
%TD*%
%TA.AperFunction,SMDPad,CuDef*%
%ADD27R,0.900000X1.200000*%
%TD*%
%TA.AperFunction,ViaPad*%
%ADD28C,0.500000*%
%TD*%
%TA.AperFunction,ViaPad*%
%ADD29C,0.800000*%
%TD*%
%TA.AperFunction,ViaPad*%
%ADD30C,0.900000*%
%TD*%
%TA.AperFunction,Conductor*%
%ADD31C,0.250000*%
%TD*%
%TA.AperFunction,Conductor*%
%ADD32C,0.500000*%
%TD*%
G04 APERTURE END LIST*
D10*
D11*
X10587357Y-10142857D02*
X10587357Y-10242857D01*
X10551643Y-10085714D02*
X10515929Y-10192857D01*
X10608786Y-10192857D01*
D12*
%TO.P,TP1,1,1*%
%TO.N,/sipm_dcdc/imon*%
X11302500Y-12165000D03*
%TD*%
D13*
%TO.P,TP2,1,1*%
%TO.N,/vcont*%
X10646000Y-12900000D03*
%TO.P,TP2,2,2*%
%TO.N,GND*%
X10900000Y-12900000D03*
%TD*%
D14*
%TO.P,H1,1,1*%
%TO.N,GND*%
X10400000Y-14100000D03*
%TD*%
%TO.P,H2,1,1*%
%TO.N,GND*%
X12600000Y-11300000D03*
%TD*%
%TO.P,H3,1,1*%
%TO.N,GND*%
X13000000Y-14100000D03*
%TD*%
D15*
%TO.P,J1,1,Pin_1*%
%TO.N,/vcont*%
X12077500Y-10580000D03*
D16*
%TO.P,J1,2,Pin_2*%
%TO.N,GND*%
X12077500Y-10326000D03*
%TO.P,J1,3,Pin_3*%
%TO.N,/sipm_bias*%
X12331500Y-10580000D03*
%TO.P,J1,4,Pin_4*%
%TO.N,GND*%
X12331500Y-10326000D03*
%TO.P,J1,5,Pin_5*%
%TO.N,/p5v_out*%
X12585500Y-10580000D03*
%TO.P,J1,6,Pin_6*%
%TO.N,GND*%
X12585500Y-10326000D03*
%TO.P,J1,7,Pin_7*%
%TO.N,VDC*%
X12839500Y-10580000D03*
%TO.P,J1,8,Pin_8*%
%TO.N,GND*%
X12839500Y-10326000D03*
%TD*%
D17*
%TO.P,R7,1*%
%TO.N,/On When Warm/vg1*%
X12250000Y-13525000D03*
%TO.P,R7,2*%
%TO.N,/On When Warm/vd2*%
X12250000Y-13707500D03*
%TD*%
D18*
%TO.P,R9,1*%
%TO.N,VDC*%
X12625000Y-14025000D03*
%TO.P,R9,2*%
%TO.N,/thermistor*%
X12625000Y-13842500D03*
%TD*%
D17*
%TO.P,R5,1*%
%TO.N,/On When Warm/VD1*%
X12450000Y-13742500D03*
%TO.P,R5,2*%
%TO.N,/thermistor*%
X12450000Y-13925000D03*
%TD*%
D19*
%TO.P,R6,1*%
%TO.N,/On When Warm/vs*%
X11800000Y-13875000D03*
%TO.P,R6,2*%
%TO.N,GND*%
X11982500Y-13875000D03*
%TD*%
D20*
%TO.P,J2,1,Pin_1*%
%TO.N,+5V*%
X10692000Y-11052000D03*
%TO.P,J2,2,Pin_2*%
%TO.N,GND*%
X10692000Y-10548000D03*
%TO.P,J2,3,Pin_3*%
%TO.N,+5V*%
X10946000Y-11052000D03*
%TO.P,J2,4,Pin_4*%
%TO.N,GND*%
X10946000Y-10548000D03*
%TO.P,J2,5,Pin_5*%
%TO.N,unconnected-(J2-Pad5)*%
X11200000Y-11052000D03*
%TO.P,J2,6,Pin_6*%
%TO.N,GND*%
X11200000Y-10548000D03*
%TO.P,J2,7,Pin_7*%
%TO.N,unconnected-(J2-Pad7)*%
X11454000Y-11052000D03*
%TO.P,J2,8,Pin_8*%
%TO.N,unconnected-(J2-Pad8)*%
X11454000Y-10548000D03*
%TO.P,J2,9,Pin_9*%
%TO.N,/thermistor*%
X11708000Y-11052000D03*
%TO.P,J2,10,Pin_10*%
%TO.N,unconnected-(J2-Pad10)*%
X11708000Y-10548000D03*
%TD*%
D21*
%TO.P,C8,1*%
%TO.N,Net-(C7-Pad1)*%
X11451250Y-12937500D03*
%TO.P,C8,2*%
%TO.N,GND*%
X11658750Y-12937500D03*
%TD*%
D22*
%TO.P,C14,1*%
%TO.N,Net-(C14-Pad1)*%
X10440000Y-11882500D03*
%TO.P,C14,2*%
%TO.N,GND*%
X10595000Y-11882500D03*
%TD*%
D23*
%TO.P,R14,1*%
%TO.N,Net-(R14-Pad1)*%
X10827500Y-12244000D03*
%TO.P,R14,2*%
%TO.N,GND*%
X10827500Y-12409000D03*
%TD*%
%TO.P,R16,1*%
%TO.N,Net-(C15-Pad1)*%
X11137500Y-12152500D03*
%TO.P,R16,2*%
%TO.N,Net-(R16-Pad2)*%
X11137500Y-12317500D03*
%TD*%
D24*
%TO.P,R20,1*%
%TO.N,Net-(C18-Pad1)*%
X10935000Y-12002500D03*
%TO.P,R20,2*%
%TO.N,Net-(C15-Pad1)*%
X11100000Y-12002500D03*
%TD*%
D25*
%TO.P,R11,1*%
%TO.N,Net-(C7-Pad1)*%
X12431250Y-12735000D03*
%TO.P,R11,2*%
%TO.N,Net-(R11-Pad2)*%
X12248750Y-12735000D03*
%TD*%
D19*
%TO.P,R12,1*%
%TO.N,Net-(R11-Pad2)*%
X12241250Y-12945000D03*
%TO.P,R12,2*%
%TO.N,GND*%
X12423750Y-12945000D03*
%TD*%
D22*
%TO.P,C18,1*%
%TO.N,Net-(C18-Pad1)*%
X10882500Y-11850000D03*
%TO.P,C18,2*%
%TO.N,GND*%
X11037500Y-11850000D03*
%TD*%
D26*
%TO.P,R13,1*%
%TO.N,/dc_dc/vcc*%
X11922500Y-12400000D03*
%TO.P,R13,2*%
%TO.N,/dc_dc/pgood*%
X11757500Y-12400000D03*
%TD*%
D27*
%TO.P,D2,1,K*%
%TO.N,/dc_dc/vcc*%
X11895000Y-13140000D03*
%TO.P,D2,2,A*%
%TO.N,+5V*%
X12225000Y-13140000D03*
%TD*%
D28*
%TO.N,GND*%
X10650000Y-12057500D03*
X11817500Y-12500000D03*
X11790000Y-12745000D03*
X11737500Y-12745000D03*
X11840000Y-12745000D03*
X11820000Y-12602500D03*
X11715000Y-12700000D03*
X11852500Y-12807500D03*
D29*
X13070000Y-12950000D03*
D28*
X10610000Y-12095000D03*
D29*
X10250000Y-12950000D03*
D28*
X10540000Y-11802500D03*
D29*
X12675000Y-11625000D03*
D28*
X10612500Y-12020000D03*
X11770000Y-12602500D03*
X10687500Y-12020000D03*
D29*
X11550000Y-13580000D03*
X11520000Y-13240000D03*
X10502260Y-12210000D03*
D28*
X10687500Y-12095000D03*
X11840000Y-12552500D03*
X11717500Y-12602500D03*
D29*
X13195000Y-12505000D03*
X13220000Y-13580000D03*
X12350000Y-13330000D03*
D28*
X11790000Y-12552500D03*
X11740000Y-12652500D03*
X11737500Y-12552500D03*
D29*
X10727500Y-12307500D03*
D28*
X11765000Y-12500000D03*
D29*
X13195000Y-12405000D03*
X10950000Y-12340000D03*
X13030000Y-12640000D03*
X12595000Y-12285000D03*
X11800000Y-12940000D03*
X12135019Y-12594981D03*
D28*
X11732500Y-12812500D03*
X11842500Y-12652500D03*
X11767500Y-12700000D03*
D29*
X10946000Y-10304000D03*
X12425000Y-13052500D03*
D28*
X11792500Y-12652500D03*
D29*
X11200000Y-10310000D03*
X13125000Y-11625000D03*
D28*
X11715000Y-12500000D03*
D29*
X10175000Y-12500000D03*
X12675000Y-12405000D03*
X11890000Y-12290000D03*
D28*
X11817500Y-12700000D03*
D29*
X12595000Y-12485000D03*
D30*
X10200000Y-13800000D03*
D29*
X13095259Y-12437500D03*
D30*
X11037500Y-11742500D03*
D29*
X12100000Y-13875000D03*
X10720000Y-12437550D03*
X10700000Y-10300000D03*
X11332500Y-11842500D03*
X12925000Y-11625000D03*
D28*
X10405000Y-11975000D03*
D29*
%TO.N,Net-(C7-Pad1)*%
X11450000Y-13075000D03*
X12332500Y-12845000D03*
D28*
X11558665Y-12866335D03*
D29*
X10447500Y-13122500D03*
%TO.N,/On When Warm/VD1*%
X12400000Y-13475000D03*
%TO.N,/On When Warm/vs*%
X11800000Y-13725000D03*
X11800000Y-14175000D03*
%TO.N,/On When Warm/vg1*%
X12100000Y-13480000D03*
%TO.N,/thermistor*%
X12250000Y-13975000D03*
%TO.N,/On When Warm/vd2*%
X12305132Y-13870617D03*
%TO.N,VDC*%
X10852500Y-13905000D03*
X12595000Y-13005000D03*
X12550000Y-13475000D03*
X12550000Y-14225000D03*
X11550000Y-14130000D03*
X12730000Y-13580000D03*
X12611825Y-12674614D03*
X12660000Y-14147500D03*
X12595000Y-12825000D03*
X10985500Y-13904500D03*
X11630000Y-13360000D03*
D28*
%TO.N,Net-(C18-Pad1)*%
X10772413Y-11906289D03*
%TO.N,Net-(C14-Pad1)*%
X10625000Y-12310000D03*
D29*
X10335000Y-11902500D03*
D28*
X10331891Y-12161791D03*
D30*
%TO.N,Net-(C15-Pad1)*%
X11210359Y-11906185D03*
D29*
%TO.N,Net-(R11-Pad2)*%
X12150000Y-12700000D03*
%TO.N,/dc_dc/pgood*%
X11660000Y-12420000D03*
D28*
%TO.N,Net-(R14-Pad1)*%
X10807500Y-12197500D03*
%TO.N,Net-(R16-Pad2)*%
X11070000Y-12440000D03*
D29*
%TO.N,+5V*%
X12140000Y-13040000D03*
X10700000Y-11300000D03*
X10077500Y-12047500D03*
X10950000Y-11300000D03*
X10075000Y-12250000D03*
D28*
X10330000Y-12245000D03*
X11447266Y-12438091D03*
D29*
%TO.N,/dc_dc/vcc*%
X11995000Y-13035000D03*
X12025000Y-12367500D03*
%TD*%
D31*
%TO.N,GND*%
X11982500Y-13875000D02*
X12100000Y-13875000D01*
X10827500Y-12377500D02*
X10827500Y-12432500D01*
X11661250Y-12940000D02*
X11658750Y-12937500D01*
D32*
X10827500Y-12409000D02*
X10761000Y-12409000D01*
D31*
X10692000Y-10547500D02*
X10946000Y-10547500D01*
X11800000Y-12940000D02*
X11661250Y-12940000D01*
X11200000Y-10548000D02*
X11200000Y-10310000D01*
D32*
X12425000Y-13025000D02*
X12425000Y-13052500D01*
D31*
X10946000Y-10547500D02*
X10946000Y-10304000D01*
X10692000Y-10547500D02*
X10692000Y-10308000D01*
X10595000Y-11882500D02*
X10595000Y-11857500D01*
X10595000Y-11857500D02*
X10540000Y-11802500D01*
X11037500Y-11850000D02*
X11037500Y-11742500D01*
X10797500Y-12377500D02*
X10727500Y-12307500D01*
D32*
X12425000Y-12925000D02*
X12425000Y-13025000D01*
X10732450Y-12437550D02*
X10720000Y-12437550D01*
X10761000Y-12409000D02*
X10732450Y-12437550D01*
D31*
X10827500Y-12377500D02*
X10797500Y-12377500D01*
X10692000Y-10308000D02*
X10700000Y-10300000D01*
%TO.N,Net-(C7-Pad1)*%
X10447500Y-13122500D02*
X11402500Y-13122500D01*
X11490000Y-12935000D02*
X11558665Y-12866335D01*
X12431250Y-12735000D02*
X12431250Y-12746250D01*
X12431250Y-12746250D02*
X12332500Y-12845000D01*
X11438750Y-12935000D02*
X11490000Y-12935000D01*
D32*
X11450000Y-12950000D02*
X11450000Y-13075000D01*
D31*
X11402500Y-13122500D02*
X11450000Y-13075000D01*
%TO.N,/On When Warm/VD1*%
X12450000Y-13742500D02*
X12450000Y-13525000D01*
X12450000Y-13525000D02*
X12400000Y-13475000D01*
%TO.N,/On When Warm/vs*%
X11800000Y-13875000D02*
X11800000Y-14175000D01*
X11800000Y-13875000D02*
X11800000Y-13725000D01*
%TO.N,/On When Warm/vg1*%
X12145000Y-13525000D02*
X12100000Y-13480000D01*
X12250000Y-13525000D02*
X12145000Y-13525000D01*
%TO.N,/thermistor*%
X12627500Y-13847500D02*
X12612500Y-13862500D01*
X13320000Y-10160000D02*
X13320000Y-13630000D01*
X12687500Y-13780000D02*
X12625000Y-13842500D01*
X11708000Y-11052000D02*
X11788000Y-11052000D01*
X13170000Y-13780000D02*
X12687500Y-13780000D01*
X12400000Y-13975000D02*
X12450000Y-13925000D01*
X13270000Y-10110000D02*
X13320000Y-10160000D01*
X11890000Y-10272500D02*
X12052500Y-10110000D01*
X12052500Y-10110000D02*
X13270000Y-10110000D01*
X12250000Y-13975000D02*
X12400000Y-13975000D01*
X12550000Y-13925000D02*
X12450000Y-13925000D01*
X12612500Y-13862500D02*
X12550000Y-13925000D01*
X11788000Y-11052000D02*
X11890000Y-10950000D01*
X13320000Y-13630000D02*
X13170000Y-13780000D01*
X11890000Y-10950000D02*
X11890000Y-10272500D01*
%TO.N,/On When Warm/vd2*%
X12305132Y-13870617D02*
X12305132Y-13762632D01*
X12305132Y-13762632D02*
X12250000Y-13707500D01*
%TO.N,VDC*%
X12625000Y-14025000D02*
X12625000Y-14112500D01*
X12625000Y-14112500D02*
X12660000Y-14147500D01*
%TO.N,Net-(C18-Pad1)*%
X10935000Y-12002500D02*
X10935000Y-11902500D01*
X10935000Y-11902500D02*
X10882500Y-11850000D01*
X10836211Y-11896289D02*
X10782413Y-11896289D01*
X10782413Y-11896289D02*
X10772413Y-11906289D01*
X10836211Y-11896289D02*
X10882500Y-11850000D01*
D32*
%TO.N,Net-(C14-Pad1)*%
X10337500Y-11900000D02*
X10335000Y-11902500D01*
D31*
X10625000Y-12310000D02*
X10480100Y-12310000D01*
D32*
X10425000Y-11900000D02*
X10337500Y-11900000D01*
D31*
X10480100Y-12310000D02*
X10331891Y-12161791D01*
%TO.N,Net-(C15-Pad1)*%
X11100000Y-12002500D02*
X11196315Y-11906185D01*
X11137500Y-12040000D02*
X11100000Y-12002500D01*
X11137500Y-12152500D02*
X11137500Y-12040000D01*
X11196315Y-11906185D02*
X11210359Y-11906185D01*
%TO.N,Net-(R11-Pad2)*%
X12242500Y-12725000D02*
X12242500Y-12925000D01*
X12150000Y-12700000D02*
X12213750Y-12700000D01*
X12213750Y-12700000D02*
X12248750Y-12735000D01*
%TO.N,/dc_dc/pgood*%
X11737500Y-12420000D02*
X11757500Y-12400000D01*
X11660000Y-12420000D02*
X11737500Y-12420000D01*
%TO.N,Net-(R14-Pad1)*%
X10827500Y-12217500D02*
X10807500Y-12197500D01*
X10827500Y-12258000D02*
X10827500Y-12217500D01*
%TO.N,Net-(R16-Pad2)*%
X11137500Y-12372500D02*
X11070000Y-12440000D01*
X11137500Y-12317500D02*
X11137500Y-12372500D01*
%TO.N,+5V*%
X10692000Y-11292000D02*
X10700000Y-11300000D01*
X12140000Y-13040000D02*
X12225000Y-13125000D01*
X10692000Y-11052500D02*
X10692000Y-11292000D01*
X12225000Y-13125000D02*
X12225000Y-13140000D01*
X10946000Y-11052500D02*
X10946000Y-11296000D01*
X10692000Y-11052500D02*
X10946000Y-11052500D01*
X10946000Y-11296000D02*
X10950000Y-11300000D01*
%TO.N,/vcont*%
X12182500Y-10685000D02*
X12077500Y-10580000D01*
X10197500Y-11750000D02*
X10350000Y-11597500D01*
X10350000Y-11597500D02*
X11715000Y-11597500D01*
X12182500Y-11130000D02*
X12182500Y-10685000D01*
X10646000Y-12900000D02*
X10542500Y-12900000D01*
X10365000Y-12722500D02*
X10365000Y-12445000D01*
X10365000Y-12445000D02*
X10197500Y-12277500D01*
X10197500Y-12277500D02*
X10197500Y-11750000D01*
X11715000Y-11597500D02*
X12182500Y-11130000D01*
X10542500Y-12900000D02*
X10365000Y-12722500D01*
D32*
%TO.N,/dc_dc/vcc*%
X11922500Y-12400000D02*
X11992500Y-12400000D01*
D31*
X11995000Y-13040000D02*
X11895000Y-13140000D01*
X11995000Y-13035000D02*
X11995000Y-13040000D01*
X12000000Y-12392500D02*
X12000000Y-13030000D01*
X12025000Y-12367500D02*
X12000000Y-12392500D01*
D32*
X11992500Y-12400000D02*
X12025000Y-12367500D01*
D31*
X12000000Y-13030000D02*
X11995000Y-13035000D01*
%TD*%
M02*
