%TF.GenerationSoftware,KiCad,Pcbnew,5.1.12-1.fc35*%
%TF.CreationDate,2022-01-06T17:40:23+00:00*%
%TF.ProjectId,cryosub_power_converter_top_v03,6372796f-7375-4625-9f70-6f7765725f63,rev?*%
%TF.SameCoordinates,Original*%
%TF.FileFunction,Legend,Top*%
%TF.FilePolarity,Positive*%
%FSLAX45Y45*%
G04 Gerber Fmt 4.5, Leading zero omitted, Abs format (unit mm)*
G04 Created by KiCad (PCBNEW 5.1.12-1.fc35) date 2022-01-06 17:40:23*
%MOMM*%
%LPD*%
G01*
G04 APERTURE LIST*
%ADD10C,0.300000*%
%ADD11C,0.120000*%
%ADD12C,0.100000*%
%ADD13C,0.150000*%
%ADD14R,1.244600X1.244600*%
%ADD15R,0.254800X0.807999*%
%ADD16R,0.807999X0.254800*%
%ADD17R,1.752600X2.946400*%
%ADD18R,1.327899X0.279400*%
%ADD19R,3.200001X1.000001*%
%ADD20R,1.000001X3.200001*%
%ADD21C,4.700000*%
%ADD22C,1.400000*%
%ADD23R,1.300000X1.700000*%
%ADD24C,1.000000*%
%ADD25O,1.740000X2.190000*%
%ADD26O,2.190000X1.740000*%
%ADD27R,0.900000X0.800000*%
%ADD28R,1.200000X2.200000*%
%ADD29R,5.800000X6.400000*%
%ADD30R,1.880000X1.680000*%
G04 APERTURE END LIST*
D10*
X10275000Y-12760000D02*
X10190000Y-12675000D01*
D11*
%TO.C,C9*%
X11964058Y-12983500D02*
X11935942Y-12983500D01*
X11964058Y-12881500D02*
X11935942Y-12881500D01*
%TO.C,U2*%
X10482360Y-12225140D02*
X10528986Y-12225140D01*
X10817640Y-12225140D02*
X10817640Y-12178514D01*
X10817640Y-11889860D02*
X10771014Y-11889860D01*
X10482360Y-11889860D02*
X10482360Y-11936486D01*
X10482360Y-12178514D02*
X10482360Y-12225140D01*
X10771014Y-12225140D02*
X10817640Y-12225140D01*
X10817640Y-11936486D02*
X10817640Y-11889860D01*
X10528986Y-11889860D02*
X10482360Y-11889860D01*
D12*
G36*
X10885740Y-12063450D02*
G01*
X10885740Y-12101550D01*
X10860340Y-12101550D01*
X10860340Y-12063450D01*
X10885740Y-12063450D01*
G37*
X10885740Y-12063450D02*
X10885740Y-12101550D01*
X10860340Y-12101550D01*
X10860340Y-12063450D01*
X10885740Y-12063450D01*
D11*
%TO.C,U3*%
X11921887Y-12400290D02*
X11638113Y-12400290D01*
X11638113Y-12839710D02*
X11921887Y-12839710D01*
D12*
G36*
X11441470Y-12513955D02*
G01*
X11441470Y-12475855D01*
X11466870Y-12475855D01*
X11466870Y-12513955D01*
X11441470Y-12513955D01*
G37*
X11441470Y-12513955D02*
X11441470Y-12475855D01*
X11466870Y-12475855D01*
X11466870Y-12513955D01*
X11441470Y-12513955D01*
D13*
%TO.C,TP2*%
X10593000Y-12810000D02*
X10953000Y-12810000D01*
X10953000Y-12810000D02*
X11003000Y-12860000D01*
X11003000Y-12860000D02*
X11003000Y-12940000D01*
X11003000Y-12940000D02*
X10953000Y-12990000D01*
X10953000Y-12990000D02*
X10593000Y-12990000D01*
X10593000Y-12990000D02*
X10543000Y-12940000D01*
X10543000Y-12940000D02*
X10543000Y-12860000D01*
X10543000Y-12860000D02*
X10593000Y-12810000D01*
D11*
%TO.C,R21*%
X10506226Y-12752250D02*
X10458774Y-12752250D01*
X10506226Y-12647750D02*
X10458774Y-12647750D01*
%TO.C,R20*%
X10458774Y-12447750D02*
X10506226Y-12447750D01*
X10458774Y-12552250D02*
X10506226Y-12552250D01*
%TO.C,C19*%
X10301000Y-12758442D02*
X10301000Y-12786558D01*
X10199000Y-12758442D02*
X10199000Y-12786558D01*
%TO.C,L5*%
X11541500Y-11806222D02*
X11541500Y-11838778D01*
X11643500Y-11806222D02*
X11643500Y-11838778D01*
%TO.C,C18*%
X11394000Y-11805942D02*
X11394000Y-11834058D01*
X11496000Y-11805942D02*
X11496000Y-11834058D01*
%TO.C,C17*%
X11674216Y-12941000D02*
X11695784Y-12941000D01*
X11674216Y-12869000D02*
X11695784Y-12869000D01*
%TO.C,D3*%
X10862500Y-11775000D02*
X11292500Y-11775000D01*
X11292500Y-11775000D02*
X11292500Y-11575000D01*
X11292500Y-11575000D02*
X10862500Y-11575000D01*
%TO.C,TP1*%
X11372500Y-12165000D02*
G75*
G03*
X11372500Y-12165000I-70000J0D01*
G01*
%TO.C,C8*%
X11650125Y-12211500D02*
X11702375Y-12211500D01*
X11650125Y-12358500D02*
X11702375Y-12358500D01*
%TO.C,C16*%
X12260784Y-12511000D02*
X12239216Y-12511000D01*
X12260784Y-12439000D02*
X12239216Y-12439000D01*
%TO.C,R16*%
X10934364Y-12330500D02*
X10903636Y-12330500D01*
X10934364Y-12254500D02*
X10903636Y-12254500D01*
%TO.C,R14*%
X10965500Y-12098136D02*
X10965500Y-12128864D01*
X10889500Y-12098136D02*
X10889500Y-12128864D01*
%TO.C,L4*%
X10272528Y-12098500D02*
X10239972Y-12098500D01*
X10272528Y-11996500D02*
X10239972Y-11996500D01*
%TO.C,J4*%
X11715500Y-11329500D02*
X11715500Y-11931500D01*
X11715500Y-11931500D02*
X12245500Y-11931500D01*
X12245500Y-11931500D02*
X12245500Y-11329500D01*
X12245500Y-11329500D02*
X11715500Y-11329500D01*
X11686500Y-11432500D02*
X11686500Y-11832500D01*
X11853500Y-11931500D02*
X11853500Y-11831500D01*
X11853500Y-11831500D02*
X12107500Y-11831500D01*
X12107500Y-11831500D02*
X12107500Y-11931500D01*
X11853500Y-11831500D02*
X11878500Y-11778500D01*
X11878500Y-11778500D02*
X12082500Y-11778500D01*
X12082500Y-11778500D02*
X12107500Y-11831500D01*
X11878500Y-11931500D02*
X11878500Y-11831500D01*
X12082500Y-11931500D02*
X12082500Y-11831500D01*
X11773500Y-11329500D02*
X11773500Y-11389500D01*
X11773500Y-11389500D02*
X11933500Y-11389500D01*
X11933500Y-11389500D02*
X11933500Y-11329500D01*
X12027500Y-11329500D02*
X12027500Y-11389500D01*
X12027500Y-11389500D02*
X12187500Y-11389500D01*
X12187500Y-11389500D02*
X12187500Y-11329500D01*
%TO.C,C15*%
X11293442Y-12299000D02*
X11321558Y-12299000D01*
X11293442Y-12401000D02*
X11321558Y-12401000D01*
%TO.C,C14*%
X11253442Y-12959000D02*
X11281558Y-12959000D01*
X11253442Y-13061000D02*
X11281558Y-13061000D01*
%TO.C,C12*%
X11024058Y-11921000D02*
X10995942Y-11921000D01*
X11024058Y-11819000D02*
X10995942Y-11819000D01*
%TO.C,C10*%
X10226000Y-12313442D02*
X10226000Y-12341558D01*
X10124000Y-12313442D02*
X10124000Y-12341558D01*
%TO.C,J1*%
X12737000Y-13189500D02*
X12737000Y-13791500D01*
X12737000Y-13791500D02*
X13267000Y-13791500D01*
X13267000Y-13791500D02*
X13267000Y-13189500D01*
X13267000Y-13189500D02*
X12737000Y-13189500D01*
X12708000Y-13292500D02*
X12708000Y-13692500D01*
X12875000Y-13791500D02*
X12875000Y-13691500D01*
X12875000Y-13691500D02*
X13129000Y-13691500D01*
X13129000Y-13691500D02*
X13129000Y-13791500D01*
X12875000Y-13691500D02*
X12900000Y-13638500D01*
X12900000Y-13638500D02*
X13104000Y-13638500D01*
X13104000Y-13638500D02*
X13129000Y-13691500D01*
X12900000Y-13791500D02*
X12900000Y-13691500D01*
X13104000Y-13791500D02*
X13104000Y-13691500D01*
X12795000Y-13189500D02*
X12795000Y-13249500D01*
X12795000Y-13249500D02*
X12955000Y-13249500D01*
X12955000Y-13249500D02*
X12955000Y-13189500D01*
X13049000Y-13189500D02*
X13049000Y-13249500D01*
X13049000Y-13249500D02*
X13209000Y-13249500D01*
X13209000Y-13249500D02*
X13209000Y-13189500D01*
%TO.C,L1*%
X10501000Y-13320373D02*
X10501000Y-13354627D01*
X10399000Y-13320373D02*
X10399000Y-13354627D01*
%TO.C,C6*%
X12852625Y-12876500D02*
X12904875Y-12876500D01*
X12852625Y-13023500D02*
X12904875Y-13023500D01*
%TO.C,R10*%
X12872750Y-11859222D02*
X12872750Y-11808278D01*
X12977250Y-11859222D02*
X12977250Y-11808278D01*
%TO.C,C5*%
X12626500Y-11847375D02*
X12626500Y-11795125D01*
X12773500Y-11847375D02*
X12773500Y-11795125D01*
%TO.C,C4*%
X13049000Y-11850877D02*
X13049000Y-11821623D01*
X13151000Y-11850877D02*
X13151000Y-11821623D01*
%TO.C,J3*%
X12297000Y-10738000D02*
X12899000Y-10738000D01*
X12899000Y-10738000D02*
X12899000Y-10208000D01*
X12899000Y-10208000D02*
X12297000Y-10208000D01*
X12297000Y-10208000D02*
X12297000Y-10738000D01*
X12400000Y-10767000D02*
X12800000Y-10767000D01*
X12899000Y-10600000D02*
X12799000Y-10600000D01*
X12799000Y-10600000D02*
X12799000Y-10346000D01*
X12799000Y-10346000D02*
X12899000Y-10346000D01*
X12799000Y-10600000D02*
X12746000Y-10575000D01*
X12746000Y-10575000D02*
X12746000Y-10371000D01*
X12746000Y-10371000D02*
X12799000Y-10346000D01*
X12899000Y-10575000D02*
X12799000Y-10575000D01*
X12899000Y-10371000D02*
X12799000Y-10371000D01*
X12297000Y-10680000D02*
X12357000Y-10680000D01*
X12357000Y-10680000D02*
X12357000Y-10520000D01*
X12357000Y-10520000D02*
X12297000Y-10520000D01*
X12297000Y-10426000D02*
X12357000Y-10426000D01*
X12357000Y-10426000D02*
X12357000Y-10266000D01*
X12357000Y-10266000D02*
X12297000Y-10266000D01*
%TO.C,C1*%
X11441500Y-13909875D02*
X11441500Y-13857625D01*
X11588500Y-13909875D02*
X11588500Y-13857625D01*
%TO.C,C2*%
X10950877Y-14274000D02*
X10921623Y-14274000D01*
X10950877Y-14376000D02*
X10921623Y-14376000D01*
%TO.C,C3*%
X10126500Y-13520125D02*
X10126500Y-13572375D01*
X10273500Y-13520125D02*
X10273500Y-13572375D01*
%TO.C,Q1*%
X12076000Y-13778000D02*
X12076000Y-13685000D01*
X12076000Y-13462000D02*
X12076000Y-13555000D01*
X12076000Y-13462000D02*
X11860000Y-13462000D01*
X12076000Y-13778000D02*
X11930000Y-13778000D01*
%TO.C,Q2*%
X12076000Y-14238000D02*
X11930000Y-14238000D01*
X12076000Y-13922000D02*
X11860000Y-13922000D01*
X12076000Y-13922000D02*
X12076000Y-14015000D01*
X12076000Y-14238000D02*
X12076000Y-14145000D01*
%TO.C,Q3*%
X11368000Y-13897000D02*
X11368000Y-14007000D01*
X11395000Y-13897000D02*
X11368000Y-13897000D01*
X11395000Y-13747000D02*
X11395000Y-13897000D01*
X10732000Y-13897000D02*
X10732000Y-14180000D01*
X10705000Y-13897000D02*
X10732000Y-13897000D01*
X10705000Y-13747000D02*
X10705000Y-13897000D01*
%TO.C,R1*%
X11783278Y-13327250D02*
X11834222Y-13327250D01*
X11783278Y-13222750D02*
X11834222Y-13222750D01*
%TO.C,R2*%
X12124528Y-13222750D02*
X12175472Y-13222750D01*
X12124528Y-13327250D02*
X12175472Y-13327250D01*
%TO.C,R3*%
X12484222Y-13572750D02*
X12433278Y-13572750D01*
X12484222Y-13677250D02*
X12433278Y-13677250D01*
%TO.C,R7*%
X12484222Y-14022750D02*
X12433278Y-14022750D01*
X12484222Y-14127250D02*
X12433278Y-14127250D01*
%TO.C,R9*%
X11540778Y-14377250D02*
X11591722Y-14377250D01*
X11540778Y-14272750D02*
X11591722Y-14272750D01*
%TO.C,U1*%
X12714000Y-12425000D02*
X12714000Y-12712500D01*
X12714000Y-12425000D02*
X12714000Y-12275000D01*
X13036000Y-12425000D02*
X13036000Y-12575000D01*
X13036000Y-12425000D02*
X13036000Y-12275000D01*
%TO.C,C9*%
D13*
X12153333Y-12980714D02*
X12148571Y-12985476D01*
X12134286Y-12990238D01*
X12124762Y-12990238D01*
X12110476Y-12985476D01*
X12100952Y-12975952D01*
X12096190Y-12966428D01*
X12091428Y-12947381D01*
X12091428Y-12933095D01*
X12096190Y-12914048D01*
X12100952Y-12904524D01*
X12110476Y-12895000D01*
X12124762Y-12890238D01*
X12134286Y-12890238D01*
X12148571Y-12895000D01*
X12153333Y-12899762D01*
X12200952Y-12990238D02*
X12220000Y-12990238D01*
X12229524Y-12985476D01*
X12234286Y-12980714D01*
X12243809Y-12966428D01*
X12248571Y-12947381D01*
X12248571Y-12909286D01*
X12243809Y-12899762D01*
X12239048Y-12895000D01*
X12229524Y-12890238D01*
X12210476Y-12890238D01*
X12200952Y-12895000D01*
X12196190Y-12899762D01*
X12191428Y-12909286D01*
X12191428Y-12933095D01*
X12196190Y-12942619D01*
X12200952Y-12947381D01*
X12210476Y-12952143D01*
X12229524Y-12952143D01*
X12239048Y-12947381D01*
X12243809Y-12942619D01*
X12248571Y-12933095D01*
%TO.C,U2*%
X10428810Y-12285238D02*
X10428810Y-12366190D01*
X10433571Y-12375714D01*
X10438333Y-12380476D01*
X10447857Y-12385238D01*
X10466905Y-12385238D01*
X10476429Y-12380476D01*
X10481190Y-12375714D01*
X10485952Y-12366190D01*
X10485952Y-12285238D01*
X10528810Y-12294762D02*
X10533571Y-12290000D01*
X10543095Y-12285238D01*
X10566905Y-12285238D01*
X10576429Y-12290000D01*
X10581190Y-12294762D01*
X10585952Y-12304286D01*
X10585952Y-12313809D01*
X10581190Y-12328095D01*
X10524048Y-12385238D01*
X10585952Y-12385238D01*
X10401560Y-11902738D02*
X10401560Y-11926548D01*
X10377751Y-11917024D02*
X10401560Y-11926548D01*
X10425370Y-11917024D01*
X10387274Y-11945595D02*
X10401560Y-11926548D01*
X10415846Y-11945595D01*
X10401560Y-11902738D02*
X10401560Y-11926548D01*
X10377751Y-11917024D02*
X10401560Y-11926548D01*
X10425370Y-11917024D01*
X10387274Y-11945595D02*
X10401560Y-11926548D01*
X10415846Y-11945595D01*
%TO.C,U3*%
X11703809Y-12565238D02*
X11703809Y-12646190D01*
X11708571Y-12655714D01*
X11713333Y-12660476D01*
X11722857Y-12665238D01*
X11741905Y-12665238D01*
X11751428Y-12660476D01*
X11756190Y-12655714D01*
X11760952Y-12646190D01*
X11760952Y-12565238D01*
X11799048Y-12565238D02*
X11860952Y-12565238D01*
X11827619Y-12603333D01*
X11841905Y-12603333D01*
X11851428Y-12608095D01*
X11856190Y-12612857D01*
X11860952Y-12622381D01*
X11860952Y-12646190D01*
X11856190Y-12655714D01*
X11851428Y-12660476D01*
X11841905Y-12665238D01*
X11813333Y-12665238D01*
X11803809Y-12660476D01*
X11799048Y-12655714D01*
X12026735Y-12882611D02*
X12026735Y-12906421D01*
X12002925Y-12896897D02*
X12026735Y-12906421D01*
X12050544Y-12896897D01*
X12012449Y-12925468D02*
X12026735Y-12906421D01*
X12041021Y-12925468D01*
X12026735Y-12882611D02*
X12026735Y-12906421D01*
X12002925Y-12896897D02*
X12026735Y-12906421D01*
X12050544Y-12896897D01*
X12012449Y-12925468D02*
X12026735Y-12906421D01*
X12041021Y-12925468D01*
%TO.C,L2*%
X11065238Y-12626321D02*
X11065238Y-12673940D01*
X10965238Y-12673940D01*
X10974762Y-12597750D02*
X10970000Y-12592988D01*
X10965238Y-12583464D01*
X10965238Y-12559655D01*
X10970000Y-12550131D01*
X10974762Y-12545369D01*
X10984286Y-12540607D01*
X10993810Y-12540607D01*
X11008095Y-12545369D01*
X11065238Y-12602512D01*
X11065238Y-12540607D01*
%TO.C,L3*%
X10182988Y-11595238D02*
X10135369Y-11595238D01*
X10135369Y-11495238D01*
X10206798Y-11495238D02*
X10268702Y-11495238D01*
X10235369Y-11533333D01*
X10249655Y-11533333D01*
X10259179Y-11538095D01*
X10263940Y-11542857D01*
X10268702Y-11552381D01*
X10268702Y-11576190D01*
X10263940Y-11585714D01*
X10259179Y-11590476D01*
X10249655Y-11595238D01*
X10221083Y-11595238D01*
X10211560Y-11590476D01*
X10206798Y-11585714D01*
%TO.C,H3*%
X13186309Y-14412738D02*
X13186309Y-14312738D01*
X13186309Y-14360357D02*
X13243452Y-14360357D01*
X13243452Y-14412738D02*
X13243452Y-14312738D01*
X13281548Y-14312738D02*
X13343452Y-14312738D01*
X13310119Y-14350833D01*
X13324405Y-14350833D01*
X13333928Y-14355595D01*
X13338690Y-14360357D01*
X13343452Y-14369881D01*
X13343452Y-14393690D01*
X13338690Y-14403214D01*
X13333928Y-14407976D01*
X13324405Y-14412738D01*
X13295833Y-14412738D01*
X13286309Y-14407976D01*
X13281548Y-14403214D01*
%TO.C,H2*%
X12523809Y-11010238D02*
X12523809Y-10910238D01*
X12523809Y-10957857D02*
X12580952Y-10957857D01*
X12580952Y-11010238D02*
X12580952Y-10910238D01*
X12623809Y-10919762D02*
X12628571Y-10915000D01*
X12638095Y-10910238D01*
X12661905Y-10910238D01*
X12671428Y-10915000D01*
X12676190Y-10919762D01*
X12680952Y-10929286D01*
X12680952Y-10938810D01*
X12676190Y-10953095D01*
X12619048Y-11010238D01*
X12680952Y-11010238D01*
%TO.C,H1*%
X10071310Y-14432738D02*
X10071310Y-14332738D01*
X10071310Y-14380357D02*
X10128452Y-14380357D01*
X10128452Y-14432738D02*
X10128452Y-14332738D01*
X10228452Y-14432738D02*
X10171310Y-14432738D01*
X10199881Y-14432738D02*
X10199881Y-14332738D01*
X10190357Y-14347024D01*
X10180833Y-14356548D01*
X10171310Y-14361309D01*
%TO.C,TP2*%
X10649810Y-12645238D02*
X10706952Y-12645238D01*
X10678381Y-12745238D02*
X10678381Y-12645238D01*
X10740286Y-12745238D02*
X10740286Y-12645238D01*
X10778381Y-12645238D01*
X10787905Y-12650000D01*
X10792667Y-12654762D01*
X10797429Y-12664286D01*
X10797429Y-12678571D01*
X10792667Y-12688095D01*
X10787905Y-12692857D01*
X10778381Y-12697619D01*
X10740286Y-12697619D01*
X10835524Y-12654762D02*
X10840286Y-12650000D01*
X10849810Y-12645238D01*
X10873619Y-12645238D01*
X10883143Y-12650000D01*
X10887905Y-12654762D01*
X10892667Y-12664286D01*
X10892667Y-12673809D01*
X10887905Y-12688095D01*
X10830762Y-12745238D01*
X10892667Y-12745238D01*
%TO.C,R21*%
X10467738Y-12979286D02*
X10420119Y-13012619D01*
X10467738Y-13036428D02*
X10367738Y-13036428D01*
X10367738Y-12998333D01*
X10372500Y-12988809D01*
X10377262Y-12984048D01*
X10386786Y-12979286D01*
X10401071Y-12979286D01*
X10410595Y-12984048D01*
X10415357Y-12988809D01*
X10420119Y-12998333D01*
X10420119Y-13036428D01*
X10377262Y-12941190D02*
X10372500Y-12936428D01*
X10367738Y-12926905D01*
X10367738Y-12903095D01*
X10372500Y-12893571D01*
X10377262Y-12888809D01*
X10386786Y-12884048D01*
X10396310Y-12884048D01*
X10410595Y-12888809D01*
X10467738Y-12945952D01*
X10467738Y-12884048D01*
X10467738Y-12788809D02*
X10467738Y-12845952D01*
X10467738Y-12817381D02*
X10367738Y-12817381D01*
X10382024Y-12826905D01*
X10391548Y-12836428D01*
X10396310Y-12845952D01*
%TO.C,R20*%
X10708214Y-12595238D02*
X10674881Y-12547619D01*
X10651071Y-12595238D02*
X10651071Y-12495238D01*
X10689167Y-12495238D01*
X10698690Y-12500000D01*
X10703452Y-12504762D01*
X10708214Y-12514286D01*
X10708214Y-12528571D01*
X10703452Y-12538095D01*
X10698690Y-12542857D01*
X10689167Y-12547619D01*
X10651071Y-12547619D01*
X10746310Y-12504762D02*
X10751071Y-12500000D01*
X10760595Y-12495238D01*
X10784405Y-12495238D01*
X10793929Y-12500000D01*
X10798690Y-12504762D01*
X10803452Y-12514286D01*
X10803452Y-12523809D01*
X10798690Y-12538095D01*
X10741548Y-12595238D01*
X10803452Y-12595238D01*
X10865357Y-12495238D02*
X10874881Y-12495238D01*
X10884405Y-12500000D01*
X10889167Y-12504762D01*
X10893929Y-12514286D01*
X10898690Y-12533333D01*
X10898690Y-12557143D01*
X10893929Y-12576190D01*
X10889167Y-12585714D01*
X10884405Y-12590476D01*
X10874881Y-12595238D01*
X10865357Y-12595238D01*
X10855833Y-12590476D01*
X10851071Y-12585714D01*
X10846310Y-12576190D01*
X10841548Y-12557143D01*
X10841548Y-12533333D01*
X10846310Y-12514286D01*
X10851071Y-12504762D01*
X10855833Y-12500000D01*
X10865357Y-12495238D01*
%TO.C,C19*%
X10140714Y-12846786D02*
X10145476Y-12851548D01*
X10150238Y-12865833D01*
X10150238Y-12875357D01*
X10145476Y-12889643D01*
X10135952Y-12899167D01*
X10126429Y-12903928D01*
X10107381Y-12908690D01*
X10093095Y-12908690D01*
X10074048Y-12903928D01*
X10064524Y-12899167D01*
X10055000Y-12889643D01*
X10050238Y-12875357D01*
X10050238Y-12865833D01*
X10055000Y-12851548D01*
X10059762Y-12846786D01*
X10150238Y-12751548D02*
X10150238Y-12808690D01*
X10150238Y-12780119D02*
X10050238Y-12780119D01*
X10064524Y-12789643D01*
X10074048Y-12799167D01*
X10078810Y-12808690D01*
X10150238Y-12703928D02*
X10150238Y-12684881D01*
X10145476Y-12675357D01*
X10140714Y-12670595D01*
X10126429Y-12661071D01*
X10107381Y-12656309D01*
X10069286Y-12656309D01*
X10059762Y-12661071D01*
X10055000Y-12665833D01*
X10050238Y-12675357D01*
X10050238Y-12694405D01*
X10055000Y-12703928D01*
X10059762Y-12708690D01*
X10069286Y-12713452D01*
X10093095Y-12713452D01*
X10102619Y-12708690D01*
X10107381Y-12703928D01*
X10112143Y-12694405D01*
X10112143Y-12675357D01*
X10107381Y-12665833D01*
X10102619Y-12661071D01*
X10093095Y-12656309D01*
%TO.C,L5*%
X11632738Y-11601667D02*
X11632738Y-11649286D01*
X11532738Y-11649286D01*
X11532738Y-11520714D02*
X11532738Y-11568333D01*
X11580357Y-11573095D01*
X11575595Y-11568333D01*
X11570833Y-11558809D01*
X11570833Y-11535000D01*
X11575595Y-11525476D01*
X11580357Y-11520714D01*
X11589881Y-11515952D01*
X11613690Y-11515952D01*
X11623214Y-11520714D01*
X11627976Y-11525476D01*
X11632738Y-11535000D01*
X11632738Y-11558809D01*
X11627976Y-11568333D01*
X11623214Y-11573095D01*
%TO.C,C18*%
X11470714Y-11586786D02*
X11475476Y-11591548D01*
X11480238Y-11605833D01*
X11480238Y-11615357D01*
X11475476Y-11629643D01*
X11465952Y-11639167D01*
X11456428Y-11643928D01*
X11437381Y-11648690D01*
X11423095Y-11648690D01*
X11404048Y-11643928D01*
X11394524Y-11639167D01*
X11385000Y-11629643D01*
X11380238Y-11615357D01*
X11380238Y-11605833D01*
X11385000Y-11591548D01*
X11389762Y-11586786D01*
X11480238Y-11491548D02*
X11480238Y-11548690D01*
X11480238Y-11520119D02*
X11380238Y-11520119D01*
X11394524Y-11529643D01*
X11404048Y-11539167D01*
X11408809Y-11548690D01*
X11423095Y-11434405D02*
X11418333Y-11443928D01*
X11413571Y-11448690D01*
X11404048Y-11453452D01*
X11399286Y-11453452D01*
X11389762Y-11448690D01*
X11385000Y-11443928D01*
X11380238Y-11434405D01*
X11380238Y-11415357D01*
X11385000Y-11405833D01*
X11389762Y-11401071D01*
X11399286Y-11396309D01*
X11404048Y-11396309D01*
X11413571Y-11401071D01*
X11418333Y-11405833D01*
X11423095Y-11415357D01*
X11423095Y-11434405D01*
X11427857Y-11443928D01*
X11432619Y-11448690D01*
X11442143Y-11453452D01*
X11461190Y-11453452D01*
X11470714Y-11448690D01*
X11475476Y-11443928D01*
X11480238Y-11434405D01*
X11480238Y-11415357D01*
X11475476Y-11405833D01*
X11470714Y-11401071D01*
X11461190Y-11396309D01*
X11442143Y-11396309D01*
X11432619Y-11401071D01*
X11427857Y-11405833D01*
X11423095Y-11415357D01*
%TO.C,C17*%
X11568214Y-13044286D02*
X11572976Y-13049048D01*
X11577738Y-13063333D01*
X11577738Y-13072857D01*
X11572976Y-13087143D01*
X11563452Y-13096667D01*
X11553928Y-13101428D01*
X11534881Y-13106190D01*
X11520595Y-13106190D01*
X11501548Y-13101428D01*
X11492024Y-13096667D01*
X11482500Y-13087143D01*
X11477738Y-13072857D01*
X11477738Y-13063333D01*
X11482500Y-13049048D01*
X11487262Y-13044286D01*
X11577738Y-12949048D02*
X11577738Y-13006190D01*
X11577738Y-12977619D02*
X11477738Y-12977619D01*
X11492024Y-12987143D01*
X11501548Y-12996667D01*
X11506309Y-13006190D01*
X11477738Y-12915714D02*
X11477738Y-12849048D01*
X11577738Y-12891905D01*
%TO.C,D3*%
X10966190Y-11552738D02*
X10966190Y-11452738D01*
X10990000Y-11452738D01*
X11004286Y-11457500D01*
X11013810Y-11467024D01*
X11018571Y-11476548D01*
X11023333Y-11495595D01*
X11023333Y-11509881D01*
X11018571Y-11528928D01*
X11013810Y-11538452D01*
X11004286Y-11547976D01*
X10990000Y-11552738D01*
X10966190Y-11552738D01*
X11056667Y-11452738D02*
X11118571Y-11452738D01*
X11085238Y-11490833D01*
X11099524Y-11490833D01*
X11109048Y-11495595D01*
X11113810Y-11500357D01*
X11118571Y-11509881D01*
X11118571Y-11533690D01*
X11113810Y-11543214D01*
X11109048Y-11547976D01*
X11099524Y-11552738D01*
X11070952Y-11552738D01*
X11061429Y-11547976D01*
X11056667Y-11543214D01*
%TO.C,TP1*%
X11386309Y-12047738D02*
X11443452Y-12047738D01*
X11414881Y-12147738D02*
X11414881Y-12047738D01*
X11476786Y-12147738D02*
X11476786Y-12047738D01*
X11514881Y-12047738D01*
X11524405Y-12052500D01*
X11529167Y-12057262D01*
X11533928Y-12066786D01*
X11533928Y-12081071D01*
X11529167Y-12090595D01*
X11524405Y-12095357D01*
X11514881Y-12100119D01*
X11476786Y-12100119D01*
X11629167Y-12147738D02*
X11572024Y-12147738D01*
X11600595Y-12147738D02*
X11600595Y-12047738D01*
X11591071Y-12062024D01*
X11581548Y-12071548D01*
X11572024Y-12076309D01*
%TO.C,C8*%
X11820833Y-12152714D02*
X11816071Y-12157476D01*
X11801786Y-12162238D01*
X11792262Y-12162238D01*
X11777976Y-12157476D01*
X11768452Y-12147952D01*
X11763690Y-12138428D01*
X11758928Y-12119381D01*
X11758928Y-12105095D01*
X11763690Y-12086048D01*
X11768452Y-12076524D01*
X11777976Y-12067000D01*
X11792262Y-12062238D01*
X11801786Y-12062238D01*
X11816071Y-12067000D01*
X11820833Y-12071762D01*
X11877976Y-12105095D02*
X11868452Y-12100333D01*
X11863690Y-12095571D01*
X11858928Y-12086048D01*
X11858928Y-12081286D01*
X11863690Y-12071762D01*
X11868452Y-12067000D01*
X11877976Y-12062238D01*
X11897024Y-12062238D01*
X11906548Y-12067000D01*
X11911309Y-12071762D01*
X11916071Y-12081286D01*
X11916071Y-12086048D01*
X11911309Y-12095571D01*
X11906548Y-12100333D01*
X11897024Y-12105095D01*
X11877976Y-12105095D01*
X11868452Y-12109857D01*
X11863690Y-12114619D01*
X11858928Y-12124143D01*
X11858928Y-12143190D01*
X11863690Y-12152714D01*
X11868452Y-12157476D01*
X11877976Y-12162238D01*
X11897024Y-12162238D01*
X11906548Y-12157476D01*
X11911309Y-12152714D01*
X11916071Y-12143190D01*
X11916071Y-12124143D01*
X11911309Y-12114619D01*
X11906548Y-12109857D01*
X11897024Y-12105095D01*
%TO.C,C16*%
X12185714Y-12626714D02*
X12180952Y-12631476D01*
X12166667Y-12636238D01*
X12157143Y-12636238D01*
X12142857Y-12631476D01*
X12133333Y-12621952D01*
X12128571Y-12612428D01*
X12123809Y-12593381D01*
X12123809Y-12579095D01*
X12128571Y-12560048D01*
X12133333Y-12550524D01*
X12142857Y-12541000D01*
X12157143Y-12536238D01*
X12166667Y-12536238D01*
X12180952Y-12541000D01*
X12185714Y-12545762D01*
X12280952Y-12636238D02*
X12223809Y-12636238D01*
X12252381Y-12636238D02*
X12252381Y-12536238D01*
X12242857Y-12550524D01*
X12233333Y-12560048D01*
X12223809Y-12564809D01*
X12366667Y-12536238D02*
X12347619Y-12536238D01*
X12338095Y-12541000D01*
X12333333Y-12545762D01*
X12323809Y-12560048D01*
X12319048Y-12579095D01*
X12319048Y-12617190D01*
X12323809Y-12626714D01*
X12328571Y-12631476D01*
X12338095Y-12636238D01*
X12357143Y-12636238D01*
X12366667Y-12631476D01*
X12371428Y-12626714D01*
X12376190Y-12617190D01*
X12376190Y-12593381D01*
X12371428Y-12583857D01*
X12366667Y-12579095D01*
X12357143Y-12574333D01*
X12338095Y-12574333D01*
X12328571Y-12579095D01*
X12323809Y-12583857D01*
X12319048Y-12593381D01*
%TO.C,R16*%
X10768214Y-12457738D02*
X10734881Y-12410119D01*
X10711071Y-12457738D02*
X10711071Y-12357738D01*
X10749167Y-12357738D01*
X10758690Y-12362500D01*
X10763452Y-12367262D01*
X10768214Y-12376786D01*
X10768214Y-12391071D01*
X10763452Y-12400595D01*
X10758690Y-12405357D01*
X10749167Y-12410119D01*
X10711071Y-12410119D01*
X10863452Y-12457738D02*
X10806310Y-12457738D01*
X10834881Y-12457738D02*
X10834881Y-12357738D01*
X10825357Y-12372024D01*
X10815833Y-12381548D01*
X10806310Y-12386309D01*
X10949167Y-12357738D02*
X10930119Y-12357738D01*
X10920595Y-12362500D01*
X10915833Y-12367262D01*
X10906310Y-12381548D01*
X10901548Y-12400595D01*
X10901548Y-12438690D01*
X10906310Y-12448214D01*
X10911071Y-12452976D01*
X10920595Y-12457738D01*
X10939643Y-12457738D01*
X10949167Y-12452976D01*
X10953929Y-12448214D01*
X10958690Y-12438690D01*
X10958690Y-12414881D01*
X10953929Y-12405357D01*
X10949167Y-12400595D01*
X10939643Y-12395833D01*
X10920595Y-12395833D01*
X10911071Y-12400595D01*
X10906310Y-12405357D01*
X10901548Y-12414881D01*
%TO.C,R14*%
X11095238Y-12174286D02*
X11047619Y-12207619D01*
X11095238Y-12231428D02*
X10995238Y-12231428D01*
X10995238Y-12193333D01*
X11000000Y-12183809D01*
X11004762Y-12179048D01*
X11014286Y-12174286D01*
X11028571Y-12174286D01*
X11038095Y-12179048D01*
X11042857Y-12183809D01*
X11047619Y-12193333D01*
X11047619Y-12231428D01*
X11095238Y-12079048D02*
X11095238Y-12136190D01*
X11095238Y-12107619D02*
X10995238Y-12107619D01*
X11009524Y-12117143D01*
X11019048Y-12126667D01*
X11023810Y-12136190D01*
X11028571Y-11993333D02*
X11095238Y-11993333D01*
X10990476Y-12017143D02*
X11061905Y-12040952D01*
X11061905Y-11979048D01*
%TO.C,L4*%
X10170833Y-11955238D02*
X10123214Y-11955238D01*
X10123214Y-11855238D01*
X10247024Y-11888571D02*
X10247024Y-11955238D01*
X10223214Y-11850476D02*
X10199405Y-11921905D01*
X10261310Y-11921905D01*
%TO.C,J4*%
X11947167Y-11165738D02*
X11947167Y-11237167D01*
X11942405Y-11251452D01*
X11932881Y-11260976D01*
X11918595Y-11265738D01*
X11909071Y-11265738D01*
X12037643Y-11199071D02*
X12037643Y-11265738D01*
X12013833Y-11160976D02*
X11990024Y-11232405D01*
X12051928Y-11232405D01*
%TO.C,C15*%
X11143214Y-12406786D02*
X11147976Y-12411548D01*
X11152738Y-12425833D01*
X11152738Y-12435357D01*
X11147976Y-12449643D01*
X11138452Y-12459167D01*
X11128929Y-12463928D01*
X11109881Y-12468690D01*
X11095595Y-12468690D01*
X11076548Y-12463928D01*
X11067024Y-12459167D01*
X11057500Y-12449643D01*
X11052738Y-12435357D01*
X11052738Y-12425833D01*
X11057500Y-12411548D01*
X11062262Y-12406786D01*
X11152738Y-12311548D02*
X11152738Y-12368690D01*
X11152738Y-12340119D02*
X11052738Y-12340119D01*
X11067024Y-12349643D01*
X11076548Y-12359167D01*
X11081310Y-12368690D01*
X11052738Y-12221071D02*
X11052738Y-12268690D01*
X11100357Y-12273452D01*
X11095595Y-12268690D01*
X11090833Y-12259167D01*
X11090833Y-12235357D01*
X11095595Y-12225833D01*
X11100357Y-12221071D01*
X11109881Y-12216309D01*
X11133690Y-12216309D01*
X11143214Y-12221071D01*
X11147976Y-12225833D01*
X11152738Y-12235357D01*
X11152738Y-12259167D01*
X11147976Y-12268690D01*
X11143214Y-12273452D01*
%TO.C,C14*%
X10923214Y-13075714D02*
X10918452Y-13080476D01*
X10904167Y-13085238D01*
X10894643Y-13085238D01*
X10880357Y-13080476D01*
X10870833Y-13070952D01*
X10866071Y-13061428D01*
X10861310Y-13042381D01*
X10861310Y-13028095D01*
X10866071Y-13009048D01*
X10870833Y-12999524D01*
X10880357Y-12990000D01*
X10894643Y-12985238D01*
X10904167Y-12985238D01*
X10918452Y-12990000D01*
X10923214Y-12994762D01*
X11018452Y-13085238D02*
X10961310Y-13085238D01*
X10989881Y-13085238D02*
X10989881Y-12985238D01*
X10980357Y-12999524D01*
X10970833Y-13009048D01*
X10961310Y-13013809D01*
X11104167Y-13018571D02*
X11104167Y-13085238D01*
X11080357Y-12980476D02*
X11056548Y-13051905D01*
X11118452Y-13051905D01*
%TO.C,C12*%
X11155714Y-12040714D02*
X11150952Y-12045476D01*
X11136667Y-12050238D01*
X11127143Y-12050238D01*
X11112857Y-12045476D01*
X11103333Y-12035952D01*
X11098571Y-12026428D01*
X11093810Y-12007381D01*
X11093810Y-11993095D01*
X11098571Y-11974048D01*
X11103333Y-11964524D01*
X11112857Y-11955000D01*
X11127143Y-11950238D01*
X11136667Y-11950238D01*
X11150952Y-11955000D01*
X11155714Y-11959762D01*
X11250952Y-12050238D02*
X11193809Y-12050238D01*
X11222381Y-12050238D02*
X11222381Y-11950238D01*
X11212857Y-11964524D01*
X11203333Y-11974048D01*
X11193809Y-11978809D01*
X11289048Y-11959762D02*
X11293809Y-11955000D01*
X11303333Y-11950238D01*
X11327143Y-11950238D01*
X11336667Y-11955000D01*
X11341428Y-11959762D01*
X11346190Y-11969286D01*
X11346190Y-11978809D01*
X11341428Y-11993095D01*
X11284286Y-12050238D01*
X11346190Y-12050238D01*
%TO.C,C10*%
X10350714Y-12374286D02*
X10355476Y-12379048D01*
X10360238Y-12393333D01*
X10360238Y-12402857D01*
X10355476Y-12417143D01*
X10345952Y-12426667D01*
X10336429Y-12431428D01*
X10317381Y-12436190D01*
X10303095Y-12436190D01*
X10284048Y-12431428D01*
X10274524Y-12426667D01*
X10265000Y-12417143D01*
X10260238Y-12402857D01*
X10260238Y-12393333D01*
X10265000Y-12379048D01*
X10269762Y-12374286D01*
X10360238Y-12279048D02*
X10360238Y-12336190D01*
X10360238Y-12307619D02*
X10260238Y-12307619D01*
X10274524Y-12317143D01*
X10284048Y-12326667D01*
X10288810Y-12336190D01*
X10260238Y-12217143D02*
X10260238Y-12207619D01*
X10265000Y-12198095D01*
X10269762Y-12193333D01*
X10279286Y-12188571D01*
X10298333Y-12183809D01*
X10322143Y-12183809D01*
X10341190Y-12188571D01*
X10350714Y-12193333D01*
X10355476Y-12198095D01*
X10360238Y-12207619D01*
X10360238Y-12217143D01*
X10355476Y-12226667D01*
X10350714Y-12231428D01*
X10341190Y-12236190D01*
X10322143Y-12240952D01*
X10298333Y-12240952D01*
X10279286Y-12236190D01*
X10269762Y-12231428D01*
X10265000Y-12226667D01*
X10260238Y-12217143D01*
%TO.C,J1*%
X13206667Y-13025738D02*
X13206667Y-13097167D01*
X13201905Y-13111452D01*
X13192381Y-13120976D01*
X13178095Y-13125738D01*
X13168571Y-13125738D01*
X13306667Y-13125738D02*
X13249524Y-13125738D01*
X13278095Y-13125738D02*
X13278095Y-13025738D01*
X13268571Y-13040024D01*
X13259048Y-13049548D01*
X13249524Y-13054309D01*
%TO.C,L1*%
X10638238Y-13354167D02*
X10638238Y-13401786D01*
X10538238Y-13401786D01*
X10638238Y-13268452D02*
X10638238Y-13325595D01*
X10638238Y-13297024D02*
X10538238Y-13297024D01*
X10552524Y-13306548D01*
X10562048Y-13316071D01*
X10566810Y-13325595D01*
%TO.C,C6*%
X12588333Y-12990714D02*
X12583571Y-12995476D01*
X12569286Y-13000238D01*
X12559762Y-13000238D01*
X12545476Y-12995476D01*
X12535952Y-12985952D01*
X12531190Y-12976428D01*
X12526428Y-12957381D01*
X12526428Y-12943095D01*
X12531190Y-12924048D01*
X12535952Y-12914524D01*
X12545476Y-12905000D01*
X12559762Y-12900238D01*
X12569286Y-12900238D01*
X12583571Y-12905000D01*
X12588333Y-12909762D01*
X12674048Y-12900238D02*
X12655000Y-12900238D01*
X12645476Y-12905000D01*
X12640714Y-12909762D01*
X12631190Y-12924048D01*
X12626428Y-12943095D01*
X12626428Y-12981190D01*
X12631190Y-12990714D01*
X12635952Y-12995476D01*
X12645476Y-13000238D01*
X12664524Y-13000238D01*
X12674048Y-12995476D01*
X12678809Y-12990714D01*
X12683571Y-12981190D01*
X12683571Y-12957381D01*
X12678809Y-12947857D01*
X12674048Y-12943095D01*
X12664524Y-12938333D01*
X12645476Y-12938333D01*
X12635952Y-12943095D01*
X12631190Y-12947857D01*
X12626428Y-12957381D01*
%TO.C,R10*%
X12980238Y-11569286D02*
X12932619Y-11602619D01*
X12980238Y-11626428D02*
X12880238Y-11626428D01*
X12880238Y-11588333D01*
X12885000Y-11578809D01*
X12889762Y-11574048D01*
X12899286Y-11569286D01*
X12913571Y-11569286D01*
X12923095Y-11574048D01*
X12927857Y-11578809D01*
X12932619Y-11588333D01*
X12932619Y-11626428D01*
X12980238Y-11474048D02*
X12980238Y-11531190D01*
X12980238Y-11502619D02*
X12880238Y-11502619D01*
X12894524Y-11512143D01*
X12904048Y-11521667D01*
X12908809Y-11531190D01*
X12880238Y-11412143D02*
X12880238Y-11402619D01*
X12885000Y-11393095D01*
X12889762Y-11388333D01*
X12899286Y-11383571D01*
X12918333Y-11378809D01*
X12942143Y-11378809D01*
X12961190Y-11383571D01*
X12970714Y-11388333D01*
X12975476Y-11393095D01*
X12980238Y-11402619D01*
X12980238Y-11412143D01*
X12975476Y-11421667D01*
X12970714Y-11426428D01*
X12961190Y-11431190D01*
X12942143Y-11435952D01*
X12918333Y-11435952D01*
X12899286Y-11431190D01*
X12889762Y-11426428D01*
X12885000Y-11421667D01*
X12880238Y-11412143D01*
%TO.C,C5*%
X12567714Y-11837917D02*
X12572476Y-11842678D01*
X12577238Y-11856964D01*
X12577238Y-11866488D01*
X12572476Y-11880774D01*
X12562952Y-11890298D01*
X12553428Y-11895059D01*
X12534381Y-11899821D01*
X12520095Y-11899821D01*
X12501048Y-11895059D01*
X12491524Y-11890298D01*
X12482000Y-11880774D01*
X12477238Y-11866488D01*
X12477238Y-11856964D01*
X12482000Y-11842678D01*
X12486762Y-11837917D01*
X12477238Y-11747440D02*
X12477238Y-11795059D01*
X12524857Y-11799821D01*
X12520095Y-11795059D01*
X12515333Y-11785536D01*
X12515333Y-11761726D01*
X12520095Y-11752202D01*
X12524857Y-11747440D01*
X12534381Y-11742678D01*
X12558190Y-11742678D01*
X12567714Y-11747440D01*
X12572476Y-11752202D01*
X12577238Y-11761726D01*
X12577238Y-11785536D01*
X12572476Y-11795059D01*
X12567714Y-11799821D01*
%TO.C,C4*%
X13150714Y-11561667D02*
X13155476Y-11566428D01*
X13160238Y-11580714D01*
X13160238Y-11590238D01*
X13155476Y-11604524D01*
X13145952Y-11614048D01*
X13136428Y-11618809D01*
X13117381Y-11623571D01*
X13103095Y-11623571D01*
X13084048Y-11618809D01*
X13074524Y-11614048D01*
X13065000Y-11604524D01*
X13060238Y-11590238D01*
X13060238Y-11580714D01*
X13065000Y-11566428D01*
X13069762Y-11561667D01*
X13093571Y-11475952D02*
X13160238Y-11475952D01*
X13055476Y-11499762D02*
X13126905Y-11523571D01*
X13126905Y-11461667D01*
%TO.C,J3*%
X12133238Y-10506333D02*
X12204667Y-10506333D01*
X12218952Y-10511095D01*
X12228476Y-10520619D01*
X12233238Y-10534905D01*
X12233238Y-10544429D01*
X12133238Y-10468238D02*
X12133238Y-10406333D01*
X12171333Y-10439667D01*
X12171333Y-10425381D01*
X12176095Y-10415857D01*
X12180857Y-10411095D01*
X12190381Y-10406333D01*
X12214190Y-10406333D01*
X12223714Y-10411095D01*
X12228476Y-10415857D01*
X12233238Y-10425381D01*
X12233238Y-10453952D01*
X12228476Y-10463476D01*
X12223714Y-10468238D01*
%TO.C,C1*%
X11555714Y-13621667D02*
X11560476Y-13626428D01*
X11565238Y-13640714D01*
X11565238Y-13650238D01*
X11560476Y-13664524D01*
X11550952Y-13674048D01*
X11541428Y-13678809D01*
X11522381Y-13683571D01*
X11508095Y-13683571D01*
X11489048Y-13678809D01*
X11479524Y-13674048D01*
X11470000Y-13664524D01*
X11465238Y-13650238D01*
X11465238Y-13640714D01*
X11470000Y-13626428D01*
X11474762Y-13621667D01*
X11565238Y-13526428D02*
X11565238Y-13583571D01*
X11565238Y-13555000D02*
X11465238Y-13555000D01*
X11479524Y-13564524D01*
X11489048Y-13574048D01*
X11493809Y-13583571D01*
%TO.C,C2*%
X11193333Y-14390714D02*
X11188571Y-14395476D01*
X11174286Y-14400238D01*
X11164762Y-14400238D01*
X11150476Y-14395476D01*
X11140952Y-14385952D01*
X11136190Y-14376428D01*
X11131429Y-14357381D01*
X11131429Y-14343095D01*
X11136190Y-14324048D01*
X11140952Y-14314524D01*
X11150476Y-14305000D01*
X11164762Y-14300238D01*
X11174286Y-14300238D01*
X11188571Y-14305000D01*
X11193333Y-14309762D01*
X11231428Y-14309762D02*
X11236190Y-14305000D01*
X11245714Y-14300238D01*
X11269524Y-14300238D01*
X11279048Y-14305000D01*
X11283809Y-14309762D01*
X11288571Y-14319286D01*
X11288571Y-14328809D01*
X11283809Y-14343095D01*
X11226667Y-14400238D01*
X11288571Y-14400238D01*
%TO.C,C3*%
X10403714Y-13562917D02*
X10408476Y-13567678D01*
X10413238Y-13581964D01*
X10413238Y-13591488D01*
X10408476Y-13605774D01*
X10398952Y-13615298D01*
X10389429Y-13620059D01*
X10370381Y-13624821D01*
X10356095Y-13624821D01*
X10337048Y-13620059D01*
X10327524Y-13615298D01*
X10318000Y-13605774D01*
X10313238Y-13591488D01*
X10313238Y-13581964D01*
X10318000Y-13567678D01*
X10322762Y-13562917D01*
X10313238Y-13529583D02*
X10313238Y-13467678D01*
X10351333Y-13501012D01*
X10351333Y-13486726D01*
X10356095Y-13477202D01*
X10360857Y-13472440D01*
X10370381Y-13467678D01*
X10394190Y-13467678D01*
X10403714Y-13472440D01*
X10408476Y-13477202D01*
X10413238Y-13486726D01*
X10413238Y-13515298D01*
X10408476Y-13524821D01*
X10403714Y-13529583D01*
%TO.C,Q1*%
X11784762Y-13584524D02*
X11780000Y-13594048D01*
X11770476Y-13603571D01*
X11756190Y-13617857D01*
X11751428Y-13627381D01*
X11751428Y-13636905D01*
X11775238Y-13632143D02*
X11770476Y-13641667D01*
X11760952Y-13651190D01*
X11741905Y-13655952D01*
X11708571Y-13655952D01*
X11689524Y-13651190D01*
X11680000Y-13641667D01*
X11675238Y-13632143D01*
X11675238Y-13613095D01*
X11680000Y-13603571D01*
X11689524Y-13594048D01*
X11708571Y-13589286D01*
X11741905Y-13589286D01*
X11760952Y-13594048D01*
X11770476Y-13603571D01*
X11775238Y-13613095D01*
X11775238Y-13632143D01*
X11775238Y-13494048D02*
X11775238Y-13551190D01*
X11775238Y-13522619D02*
X11675238Y-13522619D01*
X11689524Y-13532143D01*
X11699048Y-13541667D01*
X11703809Y-13551190D01*
%TO.C,Q2*%
X11804762Y-14084524D02*
X11800000Y-14094048D01*
X11790476Y-14103571D01*
X11776190Y-14117857D01*
X11771428Y-14127381D01*
X11771428Y-14136905D01*
X11795238Y-14132143D02*
X11790476Y-14141667D01*
X11780952Y-14151190D01*
X11761905Y-14155952D01*
X11728571Y-14155952D01*
X11709524Y-14151190D01*
X11700000Y-14141667D01*
X11695238Y-14132143D01*
X11695238Y-14113095D01*
X11700000Y-14103571D01*
X11709524Y-14094048D01*
X11728571Y-14089286D01*
X11761905Y-14089286D01*
X11780952Y-14094048D01*
X11790476Y-14103571D01*
X11795238Y-14113095D01*
X11795238Y-14132143D01*
X11704762Y-14051190D02*
X11700000Y-14046428D01*
X11695238Y-14036905D01*
X11695238Y-14013095D01*
X11700000Y-14003571D01*
X11704762Y-13998809D01*
X11714286Y-13994048D01*
X11723809Y-13994048D01*
X11738095Y-13998809D01*
X11795238Y-14055952D01*
X11795238Y-13994048D01*
%TO.C,Q3*%
X11524762Y-13397024D02*
X11520000Y-13406548D01*
X11510476Y-13416071D01*
X11496190Y-13430357D01*
X11491428Y-13439881D01*
X11491428Y-13449405D01*
X11515238Y-13444643D02*
X11510476Y-13454167D01*
X11500952Y-13463690D01*
X11481905Y-13468452D01*
X11448571Y-13468452D01*
X11429524Y-13463690D01*
X11420000Y-13454167D01*
X11415238Y-13444643D01*
X11415238Y-13425595D01*
X11420000Y-13416071D01*
X11429524Y-13406548D01*
X11448571Y-13401786D01*
X11481905Y-13401786D01*
X11500952Y-13406548D01*
X11510476Y-13416071D01*
X11515238Y-13425595D01*
X11515238Y-13444643D01*
X11415238Y-13368452D02*
X11415238Y-13306548D01*
X11453333Y-13339881D01*
X11453333Y-13325595D01*
X11458095Y-13316071D01*
X11462857Y-13311309D01*
X11472381Y-13306548D01*
X11496190Y-13306548D01*
X11505714Y-13311309D01*
X11510476Y-13316071D01*
X11515238Y-13325595D01*
X11515238Y-13354167D01*
X11510476Y-13363690D01*
X11505714Y-13368452D01*
%TO.C,R1*%
X11675833Y-13470238D02*
X11642500Y-13422619D01*
X11618690Y-13470238D02*
X11618690Y-13370238D01*
X11656786Y-13370238D01*
X11666309Y-13375000D01*
X11671071Y-13379762D01*
X11675833Y-13389286D01*
X11675833Y-13403571D01*
X11671071Y-13413095D01*
X11666309Y-13417857D01*
X11656786Y-13422619D01*
X11618690Y-13422619D01*
X11771071Y-13470238D02*
X11713928Y-13470238D01*
X11742500Y-13470238D02*
X11742500Y-13370238D01*
X11732976Y-13384524D01*
X11723452Y-13394048D01*
X11713928Y-13398809D01*
%TO.C,R2*%
X12390833Y-13220238D02*
X12357500Y-13172619D01*
X12333690Y-13220238D02*
X12333690Y-13120238D01*
X12371786Y-13120238D01*
X12381309Y-13125000D01*
X12386071Y-13129762D01*
X12390833Y-13139286D01*
X12390833Y-13153571D01*
X12386071Y-13163095D01*
X12381309Y-13167857D01*
X12371786Y-13172619D01*
X12333690Y-13172619D01*
X12428928Y-13129762D02*
X12433690Y-13125000D01*
X12443214Y-13120238D01*
X12467024Y-13120238D01*
X12476548Y-13125000D01*
X12481309Y-13129762D01*
X12486071Y-13139286D01*
X12486071Y-13148809D01*
X12481309Y-13163095D01*
X12424167Y-13220238D01*
X12486071Y-13220238D01*
%TO.C,R3*%
X12442083Y-13813238D02*
X12408750Y-13765619D01*
X12384940Y-13813238D02*
X12384940Y-13713238D01*
X12423036Y-13713238D01*
X12432559Y-13718000D01*
X12437321Y-13722762D01*
X12442083Y-13732286D01*
X12442083Y-13746571D01*
X12437321Y-13756095D01*
X12432559Y-13760857D01*
X12423036Y-13765619D01*
X12384940Y-13765619D01*
X12475417Y-13713238D02*
X12537321Y-13713238D01*
X12503988Y-13751333D01*
X12518274Y-13751333D01*
X12527798Y-13756095D01*
X12532559Y-13760857D01*
X12537321Y-13770381D01*
X12537321Y-13794190D01*
X12532559Y-13803714D01*
X12527798Y-13808476D01*
X12518274Y-13813238D01*
X12489702Y-13813238D01*
X12480178Y-13808476D01*
X12475417Y-13803714D01*
%TO.C,R7*%
X12442083Y-14263238D02*
X12408750Y-14215619D01*
X12384940Y-14263238D02*
X12384940Y-14163238D01*
X12423036Y-14163238D01*
X12432559Y-14168000D01*
X12437321Y-14172762D01*
X12442083Y-14182286D01*
X12442083Y-14196571D01*
X12437321Y-14206095D01*
X12432559Y-14210857D01*
X12423036Y-14215619D01*
X12384940Y-14215619D01*
X12475417Y-14163238D02*
X12542083Y-14163238D01*
X12499226Y-14263238D01*
%TO.C,R9*%
X11803333Y-14380238D02*
X11770000Y-14332619D01*
X11746190Y-14380238D02*
X11746190Y-14280238D01*
X11784286Y-14280238D01*
X11793809Y-14285000D01*
X11798571Y-14289762D01*
X11803333Y-14299286D01*
X11803333Y-14313571D01*
X11798571Y-14323095D01*
X11793809Y-14327857D01*
X11784286Y-14332619D01*
X11746190Y-14332619D01*
X11850952Y-14380238D02*
X11870000Y-14380238D01*
X11879524Y-14375476D01*
X11884286Y-14370714D01*
X11893809Y-14356428D01*
X11898571Y-14337381D01*
X11898571Y-14299286D01*
X11893809Y-14289762D01*
X11889048Y-14285000D01*
X11879524Y-14280238D01*
X11860476Y-14280238D01*
X11850952Y-14285000D01*
X11846190Y-14289762D01*
X11841428Y-14299286D01*
X11841428Y-14323095D01*
X11846190Y-14332619D01*
X11850952Y-14337381D01*
X11860476Y-14342143D01*
X11879524Y-14342143D01*
X11889048Y-14337381D01*
X11893809Y-14332619D01*
X11898571Y-14323095D01*
%TO.C,U1*%
X12575238Y-12501190D02*
X12656190Y-12501190D01*
X12665714Y-12496428D01*
X12670476Y-12491667D01*
X12675238Y-12482143D01*
X12675238Y-12463095D01*
X12670476Y-12453571D01*
X12665714Y-12448809D01*
X12656190Y-12444048D01*
X12575238Y-12444048D01*
X12675238Y-12344048D02*
X12675238Y-12401190D01*
X12675238Y-12372619D02*
X12575238Y-12372619D01*
X12589524Y-12382143D01*
X12599048Y-12391667D01*
X12603809Y-12401190D01*
%TD*%
%LPC*%
%TO.C,C9*%
G36*
G01*
X11917500Y-12907500D02*
X11917500Y-12957500D01*
G75*
G02*
X11895000Y-12980000I-22500J0D01*
G01*
X11850000Y-12980000D01*
G75*
G02*
X11827500Y-12957500I0J22500D01*
G01*
X11827500Y-12907500D01*
G75*
G02*
X11850000Y-12885000I22500J0D01*
G01*
X11895000Y-12885000D01*
G75*
G02*
X11917500Y-12907500I0J-22500D01*
G01*
G37*
G36*
G01*
X12072500Y-12907500D02*
X12072500Y-12957500D01*
G75*
G02*
X12050000Y-12980000I-22500J0D01*
G01*
X12005000Y-12980000D01*
G75*
G02*
X11982500Y-12957500I0J22500D01*
G01*
X11982500Y-12907500D01*
G75*
G02*
X12005000Y-12885000I22500J0D01*
G01*
X12050000Y-12885000D01*
G75*
G02*
X12072500Y-12907500I0J-22500D01*
G01*
G37*
%TD*%
D14*
%TO.C,U2*%
X10650000Y-12057500D03*
D15*
X10575000Y-11912960D03*
X10625000Y-11912960D03*
X10675000Y-11912960D03*
X10725000Y-11912960D03*
D16*
X10794540Y-11982500D03*
X10794540Y-12032500D03*
X10794540Y-12082500D03*
X10794540Y-12132500D03*
D15*
X10725000Y-12202040D03*
X10675000Y-12202040D03*
X10625000Y-12202040D03*
X10575000Y-12202040D03*
D16*
X10505460Y-12132500D03*
X10505460Y-12082500D03*
X10505460Y-12032500D03*
X10505460Y-11982500D03*
%TD*%
D17*
%TO.C,U3*%
X11780000Y-12620000D03*
D18*
X11558665Y-12795133D03*
X11558665Y-12745095D03*
X11558665Y-12695057D03*
X11558665Y-12645019D03*
X11558665Y-12594981D03*
X11558665Y-12544943D03*
X11558665Y-12494905D03*
X11558665Y-12444867D03*
X12001335Y-12444867D03*
X12001335Y-12494905D03*
X12001335Y-12544943D03*
X12001335Y-12594981D03*
X12001335Y-12645019D03*
X12001335Y-12695057D03*
X12001335Y-12745095D03*
X12001335Y-12795133D03*
%TD*%
D19*
%TO.C,L2*%
X11252500Y-12597500D03*
X11252500Y-12817500D03*
%TD*%
D20*
%TO.C,L3*%
X10430000Y-11660000D03*
X10650000Y-11660000D03*
%TD*%
D21*
%TO.C,H3*%
X13000000Y-14100000D03*
%TD*%
%TO.C,H2*%
X12600000Y-11300000D03*
%TD*%
%TO.C,H1*%
X10400000Y-14100000D03*
%TD*%
D22*
%TO.C,TP2*%
X10900000Y-12900000D03*
X10646000Y-12900000D03*
%TD*%
%TO.C,R21*%
G36*
G01*
X10440000Y-12672500D02*
X10440000Y-12727500D01*
G75*
G02*
X10420000Y-12747500I-20000J0D01*
G01*
X10380000Y-12747500D01*
G75*
G02*
X10360000Y-12727500I0J20000D01*
G01*
X10360000Y-12672500D01*
G75*
G02*
X10380000Y-12652500I20000J0D01*
G01*
X10420000Y-12652500D01*
G75*
G02*
X10440000Y-12672500I0J-20000D01*
G01*
G37*
G36*
G01*
X10605000Y-12672500D02*
X10605000Y-12727500D01*
G75*
G02*
X10585000Y-12747500I-20000J0D01*
G01*
X10545000Y-12747500D01*
G75*
G02*
X10525000Y-12727500I0J20000D01*
G01*
X10525000Y-12672500D01*
G75*
G02*
X10545000Y-12652500I20000J0D01*
G01*
X10585000Y-12652500D01*
G75*
G02*
X10605000Y-12672500I0J-20000D01*
G01*
G37*
%TD*%
%TO.C,R20*%
G36*
G01*
X10525000Y-12527500D02*
X10525000Y-12472500D01*
G75*
G02*
X10545000Y-12452500I20000J0D01*
G01*
X10585000Y-12452500D01*
G75*
G02*
X10605000Y-12472500I0J-20000D01*
G01*
X10605000Y-12527500D01*
G75*
G02*
X10585000Y-12547500I-20000J0D01*
G01*
X10545000Y-12547500D01*
G75*
G02*
X10525000Y-12527500I0J20000D01*
G01*
G37*
G36*
G01*
X10360000Y-12527500D02*
X10360000Y-12472500D01*
G75*
G02*
X10380000Y-12452500I20000J0D01*
G01*
X10420000Y-12452500D01*
G75*
G02*
X10440000Y-12472500I0J-20000D01*
G01*
X10440000Y-12527500D01*
G75*
G02*
X10420000Y-12547500I-20000J0D01*
G01*
X10380000Y-12547500D01*
G75*
G02*
X10360000Y-12527500I0J20000D01*
G01*
G37*
%TD*%
%TO.C,C19*%
G36*
G01*
X10225000Y-12805000D02*
X10275000Y-12805000D01*
G75*
G02*
X10297500Y-12827500I0J-22500D01*
G01*
X10297500Y-12872500D01*
G75*
G02*
X10275000Y-12895000I-22500J0D01*
G01*
X10225000Y-12895000D01*
G75*
G02*
X10202500Y-12872500I0J22500D01*
G01*
X10202500Y-12827500D01*
G75*
G02*
X10225000Y-12805000I22500J0D01*
G01*
G37*
G36*
G01*
X10225000Y-12650000D02*
X10275000Y-12650000D01*
G75*
G02*
X10297500Y-12672500I0J-22500D01*
G01*
X10297500Y-12717500D01*
G75*
G02*
X10275000Y-12740000I-22500J0D01*
G01*
X10225000Y-12740000D01*
G75*
G02*
X10202500Y-12717500I0J22500D01*
G01*
X10202500Y-12672500D01*
G75*
G02*
X10225000Y-12650000I22500J0D01*
G01*
G37*
%TD*%
%TO.C,L5*%
G36*
G01*
X11566875Y-11857500D02*
X11618125Y-11857500D01*
G75*
G02*
X11640000Y-11879375I0J-21875D01*
G01*
X11640000Y-11923125D01*
G75*
G02*
X11618125Y-11945000I-21875J0D01*
G01*
X11566875Y-11945000D01*
G75*
G02*
X11545000Y-11923125I0J21875D01*
G01*
X11545000Y-11879375D01*
G75*
G02*
X11566875Y-11857500I21875J0D01*
G01*
G37*
G36*
G01*
X11566875Y-11700000D02*
X11618125Y-11700000D01*
G75*
G02*
X11640000Y-11721875I0J-21875D01*
G01*
X11640000Y-11765625D01*
G75*
G02*
X11618125Y-11787500I-21875J0D01*
G01*
X11566875Y-11787500D01*
G75*
G02*
X11545000Y-11765625I0J21875D01*
G01*
X11545000Y-11721875D01*
G75*
G02*
X11566875Y-11700000I21875J0D01*
G01*
G37*
%TD*%
%TO.C,C18*%
G36*
G01*
X11420000Y-11852500D02*
X11470000Y-11852500D01*
G75*
G02*
X11492500Y-11875000I0J-22500D01*
G01*
X11492500Y-11920000D01*
G75*
G02*
X11470000Y-11942500I-22500J0D01*
G01*
X11420000Y-11942500D01*
G75*
G02*
X11397500Y-11920000I0J22500D01*
G01*
X11397500Y-11875000D01*
G75*
G02*
X11420000Y-11852500I22500J0D01*
G01*
G37*
G36*
G01*
X11420000Y-11697500D02*
X11470000Y-11697500D01*
G75*
G02*
X11492500Y-11720000I0J-22500D01*
G01*
X11492500Y-11765000D01*
G75*
G02*
X11470000Y-11787500I-22500J0D01*
G01*
X11420000Y-11787500D01*
G75*
G02*
X11397500Y-11765000I0J22500D01*
G01*
X11397500Y-11720000D01*
G75*
G02*
X11420000Y-11697500I22500J0D01*
G01*
G37*
%TD*%
%TO.C,C17*%
G36*
G01*
X11705000Y-12922000D02*
X11705000Y-12888000D01*
G75*
G02*
X11719000Y-12874000I14000J0D01*
G01*
X11747000Y-12874000D01*
G75*
G02*
X11761000Y-12888000I0J-14000D01*
G01*
X11761000Y-12922000D01*
G75*
G02*
X11747000Y-12936000I-14000J0D01*
G01*
X11719000Y-12936000D01*
G75*
G02*
X11705000Y-12922000I0J14000D01*
G01*
G37*
G36*
G01*
X11609000Y-12922000D02*
X11609000Y-12888000D01*
G75*
G02*
X11623000Y-12874000I14000J0D01*
G01*
X11651000Y-12874000D01*
G75*
G02*
X11665000Y-12888000I0J-14000D01*
G01*
X11665000Y-12922000D01*
G75*
G02*
X11651000Y-12936000I-14000J0D01*
G01*
X11623000Y-12936000D01*
G75*
G02*
X11609000Y-12922000I0J14000D01*
G01*
G37*
%TD*%
D23*
%TO.C,D3*%
X10862500Y-11675000D03*
X11212500Y-11675000D03*
%TD*%
D24*
%TO.C,TP1*%
X11302500Y-12165000D03*
%TD*%
%TO.C,C8*%
G36*
G01*
X11721250Y-12332500D02*
X11721250Y-12237500D01*
G75*
G02*
X11746250Y-12212500I25000J0D01*
G01*
X11813750Y-12212500D01*
G75*
G02*
X11838750Y-12237500I0J-25000D01*
G01*
X11838750Y-12332500D01*
G75*
G02*
X11813750Y-12357500I-25000J0D01*
G01*
X11746250Y-12357500D01*
G75*
G02*
X11721250Y-12332500I0J25000D01*
G01*
G37*
G36*
G01*
X11513750Y-12332500D02*
X11513750Y-12237500D01*
G75*
G02*
X11538750Y-12212500I25000J0D01*
G01*
X11606250Y-12212500D01*
G75*
G02*
X11631250Y-12237500I0J-25000D01*
G01*
X11631250Y-12332500D01*
G75*
G02*
X11606250Y-12357500I-25000J0D01*
G01*
X11538750Y-12357500D01*
G75*
G02*
X11513750Y-12332500I0J25000D01*
G01*
G37*
%TD*%
%TO.C,C16*%
G36*
G01*
X12230000Y-12458000D02*
X12230000Y-12492000D01*
G75*
G02*
X12216000Y-12506000I-14000J0D01*
G01*
X12188000Y-12506000D01*
G75*
G02*
X12174000Y-12492000I0J14000D01*
G01*
X12174000Y-12458000D01*
G75*
G02*
X12188000Y-12444000I14000J0D01*
G01*
X12216000Y-12444000D01*
G75*
G02*
X12230000Y-12458000I0J-14000D01*
G01*
G37*
G36*
G01*
X12326000Y-12458000D02*
X12326000Y-12492000D01*
G75*
G02*
X12312000Y-12506000I-14000J0D01*
G01*
X12284000Y-12506000D01*
G75*
G02*
X12270000Y-12492000I0J14000D01*
G01*
X12270000Y-12458000D01*
G75*
G02*
X12284000Y-12444000I14000J0D01*
G01*
X12312000Y-12444000D01*
G75*
G02*
X12326000Y-12458000I0J-14000D01*
G01*
G37*
%TD*%
%TO.C,R16*%
G36*
G01*
X10895000Y-12274000D02*
X10895000Y-12311000D01*
G75*
G02*
X10881500Y-12324500I-13500J0D01*
G01*
X10854500Y-12324500D01*
G75*
G02*
X10841000Y-12311000I0J13500D01*
G01*
X10841000Y-12274000D01*
G75*
G02*
X10854500Y-12260500I13500J0D01*
G01*
X10881500Y-12260500D01*
G75*
G02*
X10895000Y-12274000I0J-13500D01*
G01*
G37*
G36*
G01*
X10997000Y-12274000D02*
X10997000Y-12311000D01*
G75*
G02*
X10983500Y-12324500I-13500J0D01*
G01*
X10956500Y-12324500D01*
G75*
G02*
X10943000Y-12311000I0J13500D01*
G01*
X10943000Y-12274000D01*
G75*
G02*
X10956500Y-12260500I13500J0D01*
G01*
X10983500Y-12260500D01*
G75*
G02*
X10997000Y-12274000I0J-13500D01*
G01*
G37*
%TD*%
%TO.C,R14*%
G36*
G01*
X10909000Y-12137500D02*
X10946000Y-12137500D01*
G75*
G02*
X10959500Y-12151000I0J-13500D01*
G01*
X10959500Y-12178000D01*
G75*
G02*
X10946000Y-12191500I-13500J0D01*
G01*
X10909000Y-12191500D01*
G75*
G02*
X10895500Y-12178000I0J13500D01*
G01*
X10895500Y-12151000D01*
G75*
G02*
X10909000Y-12137500I13500J0D01*
G01*
G37*
G36*
G01*
X10909000Y-12035500D02*
X10946000Y-12035500D01*
G75*
G02*
X10959500Y-12049000I0J-13500D01*
G01*
X10959500Y-12076000D01*
G75*
G02*
X10946000Y-12089500I-13500J0D01*
G01*
X10909000Y-12089500D01*
G75*
G02*
X10895500Y-12076000I0J13500D01*
G01*
X10895500Y-12049000D01*
G75*
G02*
X10909000Y-12035500I13500J0D01*
G01*
G37*
%TD*%
%TO.C,L4*%
G36*
G01*
X10221250Y-12021875D02*
X10221250Y-12073125D01*
G75*
G02*
X10199375Y-12095000I-21875J0D01*
G01*
X10155625Y-12095000D01*
G75*
G02*
X10133750Y-12073125I0J21875D01*
G01*
X10133750Y-12021875D01*
G75*
G02*
X10155625Y-12000000I21875J0D01*
G01*
X10199375Y-12000000D01*
G75*
G02*
X10221250Y-12021875I0J-21875D01*
G01*
G37*
G36*
G01*
X10378750Y-12021875D02*
X10378750Y-12073125D01*
G75*
G02*
X10356875Y-12095000I-21875J0D01*
G01*
X10313125Y-12095000D01*
G75*
G02*
X10291250Y-12073125I0J21875D01*
G01*
X10291250Y-12021875D01*
G75*
G02*
X10313125Y-12000000I21875J0D01*
G01*
X10356875Y-12000000D01*
G75*
G02*
X10378750Y-12021875I0J-21875D01*
G01*
G37*
%TD*%
D25*
%TO.C,J4*%
X12107500Y-11632500D03*
G36*
G01*
X11766500Y-11717000D02*
X11766500Y-11548000D01*
G75*
G02*
X11791500Y-11523000I25000J0D01*
G01*
X11915500Y-11523000D01*
G75*
G02*
X11940500Y-11548000I0J-25000D01*
G01*
X11940500Y-11717000D01*
G75*
G02*
X11915500Y-11742000I-25000J0D01*
G01*
X11791500Y-11742000D01*
G75*
G02*
X11766500Y-11717000I0J25000D01*
G01*
G37*
%TD*%
%TO.C,C15*%
G36*
G01*
X11340000Y-12375000D02*
X11340000Y-12325000D01*
G75*
G02*
X11362500Y-12302500I22500J0D01*
G01*
X11407500Y-12302500D01*
G75*
G02*
X11430000Y-12325000I0J-22500D01*
G01*
X11430000Y-12375000D01*
G75*
G02*
X11407500Y-12397500I-22500J0D01*
G01*
X11362500Y-12397500D01*
G75*
G02*
X11340000Y-12375000I0J22500D01*
G01*
G37*
G36*
G01*
X11185000Y-12375000D02*
X11185000Y-12325000D01*
G75*
G02*
X11207500Y-12302500I22500J0D01*
G01*
X11252500Y-12302500D01*
G75*
G02*
X11275000Y-12325000I0J-22500D01*
G01*
X11275000Y-12375000D01*
G75*
G02*
X11252500Y-12397500I-22500J0D01*
G01*
X11207500Y-12397500D01*
G75*
G02*
X11185000Y-12375000I0J22500D01*
G01*
G37*
%TD*%
%TO.C,C14*%
G36*
G01*
X11300000Y-13035000D02*
X11300000Y-12985000D01*
G75*
G02*
X11322500Y-12962500I22500J0D01*
G01*
X11367500Y-12962500D01*
G75*
G02*
X11390000Y-12985000I0J-22500D01*
G01*
X11390000Y-13035000D01*
G75*
G02*
X11367500Y-13057500I-22500J0D01*
G01*
X11322500Y-13057500D01*
G75*
G02*
X11300000Y-13035000I0J22500D01*
G01*
G37*
G36*
G01*
X11145000Y-13035000D02*
X11145000Y-12985000D01*
G75*
G02*
X11167500Y-12962500I22500J0D01*
G01*
X11212500Y-12962500D01*
G75*
G02*
X11235000Y-12985000I0J-22500D01*
G01*
X11235000Y-13035000D01*
G75*
G02*
X11212500Y-13057500I-22500J0D01*
G01*
X11167500Y-13057500D01*
G75*
G02*
X11145000Y-13035000I0J22500D01*
G01*
G37*
%TD*%
%TO.C,C12*%
G36*
G01*
X10977500Y-11845000D02*
X10977500Y-11895000D01*
G75*
G02*
X10955000Y-11917500I-22500J0D01*
G01*
X10910000Y-11917500D01*
G75*
G02*
X10887500Y-11895000I0J22500D01*
G01*
X10887500Y-11845000D01*
G75*
G02*
X10910000Y-11822500I22500J0D01*
G01*
X10955000Y-11822500D01*
G75*
G02*
X10977500Y-11845000I0J-22500D01*
G01*
G37*
G36*
G01*
X11132500Y-11845000D02*
X11132500Y-11895000D01*
G75*
G02*
X11110000Y-11917500I-22500J0D01*
G01*
X11065000Y-11917500D01*
G75*
G02*
X11042500Y-11895000I0J22500D01*
G01*
X11042500Y-11845000D01*
G75*
G02*
X11065000Y-11822500I22500J0D01*
G01*
X11110000Y-11822500D01*
G75*
G02*
X11132500Y-11845000I0J-22500D01*
G01*
G37*
%TD*%
%TO.C,C10*%
G36*
G01*
X10150000Y-12360000D02*
X10200000Y-12360000D01*
G75*
G02*
X10222500Y-12382500I0J-22500D01*
G01*
X10222500Y-12427500D01*
G75*
G02*
X10200000Y-12450000I-22500J0D01*
G01*
X10150000Y-12450000D01*
G75*
G02*
X10127500Y-12427500I0J22500D01*
G01*
X10127500Y-12382500D01*
G75*
G02*
X10150000Y-12360000I22500J0D01*
G01*
G37*
G36*
G01*
X10150000Y-12205000D02*
X10200000Y-12205000D01*
G75*
G02*
X10222500Y-12227500I0J-22500D01*
G01*
X10222500Y-12272500D01*
G75*
G02*
X10200000Y-12295000I-22500J0D01*
G01*
X10150000Y-12295000D01*
G75*
G02*
X10127500Y-12272500I0J22500D01*
G01*
X10127500Y-12227500D01*
G75*
G02*
X10150000Y-12205000I22500J0D01*
G01*
G37*
%TD*%
%TO.C,J1*%
X13129000Y-13492500D03*
G36*
G01*
X12788000Y-13577000D02*
X12788000Y-13408000D01*
G75*
G02*
X12813000Y-13383000I25000J0D01*
G01*
X12937000Y-13383000D01*
G75*
G02*
X12962000Y-13408000I0J-25000D01*
G01*
X12962000Y-13577000D01*
G75*
G02*
X12937000Y-13602000I-25000J0D01*
G01*
X12813000Y-13602000D01*
G75*
G02*
X12788000Y-13577000I0J25000D01*
G01*
G37*
%TD*%
%TO.C,L1*%
G36*
G01*
X10426250Y-13372500D02*
X10473750Y-13372500D01*
G75*
G02*
X10497500Y-13396250I0J-23750D01*
G01*
X10497500Y-13453750D01*
G75*
G02*
X10473750Y-13477500I-23750J0D01*
G01*
X10426250Y-13477500D01*
G75*
G02*
X10402500Y-13453750I0J23750D01*
G01*
X10402500Y-13396250D01*
G75*
G02*
X10426250Y-13372500I23750J0D01*
G01*
G37*
G36*
G01*
X10426250Y-13197500D02*
X10473750Y-13197500D01*
G75*
G02*
X10497500Y-13221250I0J-23750D01*
G01*
X10497500Y-13278750D01*
G75*
G02*
X10473750Y-13302500I-23750J0D01*
G01*
X10426250Y-13302500D01*
G75*
G02*
X10402500Y-13278750I0J23750D01*
G01*
X10402500Y-13221250D01*
G75*
G02*
X10426250Y-13197500I23750J0D01*
G01*
G37*
%TD*%
%TO.C,C6*%
G36*
G01*
X12923750Y-12997500D02*
X12923750Y-12902500D01*
G75*
G02*
X12948750Y-12877500I25000J0D01*
G01*
X13016250Y-12877500D01*
G75*
G02*
X13041250Y-12902500I0J-25000D01*
G01*
X13041250Y-12997500D01*
G75*
G02*
X13016250Y-13022500I-25000J0D01*
G01*
X12948750Y-13022500D01*
G75*
G02*
X12923750Y-12997500I0J25000D01*
G01*
G37*
G36*
G01*
X12716250Y-12997500D02*
X12716250Y-12902500D01*
G75*
G02*
X12741250Y-12877500I25000J0D01*
G01*
X12808750Y-12877500D01*
G75*
G02*
X12833750Y-12902500I0J-25000D01*
G01*
X12833750Y-12997500D01*
G75*
G02*
X12808750Y-13022500I-25000J0D01*
G01*
X12741250Y-13022500D01*
G75*
G02*
X12716250Y-12997500I0J25000D01*
G01*
G37*
%TD*%
%TO.C,R10*%
G36*
G01*
X12948750Y-11791250D02*
X12901250Y-11791250D01*
G75*
G02*
X12877500Y-11767500I0J23750D01*
G01*
X12877500Y-11717500D01*
G75*
G02*
X12901250Y-11693750I23750J0D01*
G01*
X12948750Y-11693750D01*
G75*
G02*
X12972500Y-11717500I0J-23750D01*
G01*
X12972500Y-11767500D01*
G75*
G02*
X12948750Y-11791250I-23750J0D01*
G01*
G37*
G36*
G01*
X12948750Y-11973750D02*
X12901250Y-11973750D01*
G75*
G02*
X12877500Y-11950000I0J23750D01*
G01*
X12877500Y-11900000D01*
G75*
G02*
X12901250Y-11876250I23750J0D01*
G01*
X12948750Y-11876250D01*
G75*
G02*
X12972500Y-11900000I0J-23750D01*
G01*
X12972500Y-11950000D01*
G75*
G02*
X12948750Y-11973750I-23750J0D01*
G01*
G37*
%TD*%
%TO.C,C5*%
G36*
G01*
X12747500Y-11776250D02*
X12652500Y-11776250D01*
G75*
G02*
X12627500Y-11751250I0J25000D01*
G01*
X12627500Y-11683750D01*
G75*
G02*
X12652500Y-11658750I25000J0D01*
G01*
X12747500Y-11658750D01*
G75*
G02*
X12772500Y-11683750I0J-25000D01*
G01*
X12772500Y-11751250D01*
G75*
G02*
X12747500Y-11776250I-25000J0D01*
G01*
G37*
G36*
G01*
X12747500Y-11983750D02*
X12652500Y-11983750D01*
G75*
G02*
X12627500Y-11958750I0J25000D01*
G01*
X12627500Y-11891250D01*
G75*
G02*
X12652500Y-11866250I25000J0D01*
G01*
X12747500Y-11866250D01*
G75*
G02*
X12772500Y-11891250I0J-25000D01*
G01*
X12772500Y-11958750D01*
G75*
G02*
X12747500Y-11983750I-25000J0D01*
G01*
G37*
%TD*%
%TO.C,C4*%
G36*
G01*
X13123750Y-11803750D02*
X13076250Y-11803750D01*
G75*
G02*
X13052500Y-11780000I0J23750D01*
G01*
X13052500Y-11720000D01*
G75*
G02*
X13076250Y-11696250I23750J0D01*
G01*
X13123750Y-11696250D01*
G75*
G02*
X13147500Y-11720000I0J-23750D01*
G01*
X13147500Y-11780000D01*
G75*
G02*
X13123750Y-11803750I-23750J0D01*
G01*
G37*
G36*
G01*
X13123750Y-11976250D02*
X13076250Y-11976250D01*
G75*
G02*
X13052500Y-11952500I0J23750D01*
G01*
X13052500Y-11892500D01*
G75*
G02*
X13076250Y-11868750I23750J0D01*
G01*
X13123750Y-11868750D01*
G75*
G02*
X13147500Y-11892500I0J-23750D01*
G01*
X13147500Y-11952500D01*
G75*
G02*
X13123750Y-11976250I-23750J0D01*
G01*
G37*
%TD*%
D26*
%TO.C,J3*%
X12600000Y-10346000D03*
G36*
G01*
X12684500Y-10687000D02*
X12515500Y-10687000D01*
G75*
G02*
X12490500Y-10662000I0J25000D01*
G01*
X12490500Y-10538000D01*
G75*
G02*
X12515500Y-10513000I25000J0D01*
G01*
X12684500Y-10513000D01*
G75*
G02*
X12709500Y-10538000I0J-25000D01*
G01*
X12709500Y-10662000D01*
G75*
G02*
X12684500Y-10687000I-25000J0D01*
G01*
G37*
%TD*%
%TO.C,C1*%
G36*
G01*
X11562500Y-13838750D02*
X11467500Y-13838750D01*
G75*
G02*
X11442500Y-13813750I0J25000D01*
G01*
X11442500Y-13746250D01*
G75*
G02*
X11467500Y-13721250I25000J0D01*
G01*
X11562500Y-13721250D01*
G75*
G02*
X11587500Y-13746250I0J-25000D01*
G01*
X11587500Y-13813750D01*
G75*
G02*
X11562500Y-13838750I-25000J0D01*
G01*
G37*
G36*
G01*
X11562500Y-14046250D02*
X11467500Y-14046250D01*
G75*
G02*
X11442500Y-14021250I0J25000D01*
G01*
X11442500Y-13953750D01*
G75*
G02*
X11467500Y-13928750I25000J0D01*
G01*
X11562500Y-13928750D01*
G75*
G02*
X11587500Y-13953750I0J-25000D01*
G01*
X11587500Y-14021250D01*
G75*
G02*
X11562500Y-14046250I-25000J0D01*
G01*
G37*
%TD*%
%TO.C,C2*%
G36*
G01*
X11076250Y-14301250D02*
X11076250Y-14348750D01*
G75*
G02*
X11052500Y-14372500I-23750J0D01*
G01*
X10992500Y-14372500D01*
G75*
G02*
X10968750Y-14348750I0J23750D01*
G01*
X10968750Y-14301250D01*
G75*
G02*
X10992500Y-14277500I23750J0D01*
G01*
X11052500Y-14277500D01*
G75*
G02*
X11076250Y-14301250I0J-23750D01*
G01*
G37*
G36*
G01*
X10903750Y-14301250D02*
X10903750Y-14348750D01*
G75*
G02*
X10880000Y-14372500I-23750J0D01*
G01*
X10820000Y-14372500D01*
G75*
G02*
X10796250Y-14348750I0J23750D01*
G01*
X10796250Y-14301250D01*
G75*
G02*
X10820000Y-14277500I23750J0D01*
G01*
X10880000Y-14277500D01*
G75*
G02*
X10903750Y-14301250I0J-23750D01*
G01*
G37*
%TD*%
%TO.C,C3*%
G36*
G01*
X10152500Y-13383750D02*
X10247500Y-13383750D01*
G75*
G02*
X10272500Y-13408750I0J-25000D01*
G01*
X10272500Y-13476250D01*
G75*
G02*
X10247500Y-13501250I-25000J0D01*
G01*
X10152500Y-13501250D01*
G75*
G02*
X10127500Y-13476250I0J25000D01*
G01*
X10127500Y-13408750D01*
G75*
G02*
X10152500Y-13383750I25000J0D01*
G01*
G37*
G36*
G01*
X10152500Y-13591250D02*
X10247500Y-13591250D01*
G75*
G02*
X10272500Y-13616250I0J-25000D01*
G01*
X10272500Y-13683750D01*
G75*
G02*
X10247500Y-13708750I-25000J0D01*
G01*
X10152500Y-13708750D01*
G75*
G02*
X10127500Y-13683750I0J25000D01*
G01*
X10127500Y-13616250D01*
G75*
G02*
X10152500Y-13591250I25000J0D01*
G01*
G37*
%TD*%
D27*
%TO.C,Q1*%
X12100000Y-13620000D03*
X11900000Y-13715000D03*
X11900000Y-13525000D03*
%TD*%
%TO.C,Q2*%
X11900000Y-13985000D03*
X11900000Y-14175000D03*
X12100000Y-14080000D03*
%TD*%
D28*
%TO.C,Q3*%
X10822000Y-14070000D03*
X11050000Y-14070000D03*
X11278000Y-14070000D03*
D29*
X11050000Y-13440000D03*
%TD*%
%TO.C,R1*%
G36*
G01*
X11668750Y-13298750D02*
X11668750Y-13251250D01*
G75*
G02*
X11692500Y-13227500I23750J0D01*
G01*
X11742500Y-13227500D01*
G75*
G02*
X11766250Y-13251250I0J-23750D01*
G01*
X11766250Y-13298750D01*
G75*
G02*
X11742500Y-13322500I-23750J0D01*
G01*
X11692500Y-13322500D01*
G75*
G02*
X11668750Y-13298750I0J23750D01*
G01*
G37*
G36*
G01*
X11851250Y-13298750D02*
X11851250Y-13251250D01*
G75*
G02*
X11875000Y-13227500I23750J0D01*
G01*
X11925000Y-13227500D01*
G75*
G02*
X11948750Y-13251250I0J-23750D01*
G01*
X11948750Y-13298750D01*
G75*
G02*
X11925000Y-13322500I-23750J0D01*
G01*
X11875000Y-13322500D01*
G75*
G02*
X11851250Y-13298750I0J23750D01*
G01*
G37*
%TD*%
%TO.C,R2*%
G36*
G01*
X12192500Y-13298750D02*
X12192500Y-13251250D01*
G75*
G02*
X12216250Y-13227500I23750J0D01*
G01*
X12266250Y-13227500D01*
G75*
G02*
X12290000Y-13251250I0J-23750D01*
G01*
X12290000Y-13298750D01*
G75*
G02*
X12266250Y-13322500I-23750J0D01*
G01*
X12216250Y-13322500D01*
G75*
G02*
X12192500Y-13298750I0J23750D01*
G01*
G37*
G36*
G01*
X12010000Y-13298750D02*
X12010000Y-13251250D01*
G75*
G02*
X12033750Y-13227500I23750J0D01*
G01*
X12083750Y-13227500D01*
G75*
G02*
X12107500Y-13251250I0J-23750D01*
G01*
X12107500Y-13298750D01*
G75*
G02*
X12083750Y-13322500I-23750J0D01*
G01*
X12033750Y-13322500D01*
G75*
G02*
X12010000Y-13298750I0J23750D01*
G01*
G37*
%TD*%
%TO.C,R3*%
G36*
G01*
X12598750Y-13601250D02*
X12598750Y-13648750D01*
G75*
G02*
X12575000Y-13672500I-23750J0D01*
G01*
X12525000Y-13672500D01*
G75*
G02*
X12501250Y-13648750I0J23750D01*
G01*
X12501250Y-13601250D01*
G75*
G02*
X12525000Y-13577500I23750J0D01*
G01*
X12575000Y-13577500D01*
G75*
G02*
X12598750Y-13601250I0J-23750D01*
G01*
G37*
G36*
G01*
X12416250Y-13601250D02*
X12416250Y-13648750D01*
G75*
G02*
X12392500Y-13672500I-23750J0D01*
G01*
X12342500Y-13672500D01*
G75*
G02*
X12318750Y-13648750I0J23750D01*
G01*
X12318750Y-13601250D01*
G75*
G02*
X12342500Y-13577500I23750J0D01*
G01*
X12392500Y-13577500D01*
G75*
G02*
X12416250Y-13601250I0J-23750D01*
G01*
G37*
%TD*%
%TO.C,R7*%
G36*
G01*
X12598750Y-14051250D02*
X12598750Y-14098750D01*
G75*
G02*
X12575000Y-14122500I-23750J0D01*
G01*
X12525000Y-14122500D01*
G75*
G02*
X12501250Y-14098750I0J23750D01*
G01*
X12501250Y-14051250D01*
G75*
G02*
X12525000Y-14027500I23750J0D01*
G01*
X12575000Y-14027500D01*
G75*
G02*
X12598750Y-14051250I0J-23750D01*
G01*
G37*
G36*
G01*
X12416250Y-14051250D02*
X12416250Y-14098750D01*
G75*
G02*
X12392500Y-14122500I-23750J0D01*
G01*
X12342500Y-14122500D01*
G75*
G02*
X12318750Y-14098750I0J23750D01*
G01*
X12318750Y-14051250D01*
G75*
G02*
X12342500Y-14027500I23750J0D01*
G01*
X12392500Y-14027500D01*
G75*
G02*
X12416250Y-14051250I0J-23750D01*
G01*
G37*
%TD*%
%TO.C,R9*%
G36*
G01*
X11426250Y-14348750D02*
X11426250Y-14301250D01*
G75*
G02*
X11450000Y-14277500I23750J0D01*
G01*
X11500000Y-14277500D01*
G75*
G02*
X11523750Y-14301250I0J-23750D01*
G01*
X11523750Y-14348750D01*
G75*
G02*
X11500000Y-14372500I-23750J0D01*
G01*
X11450000Y-14372500D01*
G75*
G02*
X11426250Y-14348750I0J23750D01*
G01*
G37*
G36*
G01*
X11608750Y-14348750D02*
X11608750Y-14301250D01*
G75*
G02*
X11632500Y-14277500I23750J0D01*
G01*
X11682500Y-14277500D01*
G75*
G02*
X11706250Y-14301250I0J-23750D01*
G01*
X11706250Y-14348750D01*
G75*
G02*
X11682500Y-14372500I-23750J0D01*
G01*
X11632500Y-14372500D01*
G75*
G02*
X11608750Y-14348750I0J23750D01*
G01*
G37*
%TD*%
%TO.C,U1*%
G36*
G01*
X12782500Y-12712500D02*
X12767500Y-12712500D01*
G75*
G02*
X12760000Y-12705000I0J7500D01*
G01*
X12760000Y-12575000D01*
G75*
G02*
X12767500Y-12567500I7500J0D01*
G01*
X12782500Y-12567500D01*
G75*
G02*
X12790000Y-12575000I0J-7500D01*
G01*
X12790000Y-12705000D01*
G75*
G02*
X12782500Y-12712500I-7500J0D01*
G01*
G37*
G36*
G01*
X12832500Y-12712500D02*
X12817500Y-12712500D01*
G75*
G02*
X12810000Y-12705000I0J7500D01*
G01*
X12810000Y-12575000D01*
G75*
G02*
X12817500Y-12567500I7500J0D01*
G01*
X12832500Y-12567500D01*
G75*
G02*
X12840000Y-12575000I0J-7500D01*
G01*
X12840000Y-12705000D01*
G75*
G02*
X12832500Y-12712500I-7500J0D01*
G01*
G37*
G36*
G01*
X12882500Y-12712500D02*
X12867500Y-12712500D01*
G75*
G02*
X12860000Y-12705000I0J7500D01*
G01*
X12860000Y-12575000D01*
G75*
G02*
X12867500Y-12567500I7500J0D01*
G01*
X12882500Y-12567500D01*
G75*
G02*
X12890000Y-12575000I0J-7500D01*
G01*
X12890000Y-12705000D01*
G75*
G02*
X12882500Y-12712500I-7500J0D01*
G01*
G37*
G36*
G01*
X12932500Y-12712500D02*
X12917500Y-12712500D01*
G75*
G02*
X12910000Y-12705000I0J7500D01*
G01*
X12910000Y-12575000D01*
G75*
G02*
X12917500Y-12567500I7500J0D01*
G01*
X12932500Y-12567500D01*
G75*
G02*
X12940000Y-12575000I0J-7500D01*
G01*
X12940000Y-12705000D01*
G75*
G02*
X12932500Y-12712500I-7500J0D01*
G01*
G37*
G36*
G01*
X12982500Y-12712500D02*
X12967500Y-12712500D01*
G75*
G02*
X12960000Y-12705000I0J7500D01*
G01*
X12960000Y-12575000D01*
G75*
G02*
X12967500Y-12567500I7500J0D01*
G01*
X12982500Y-12567500D01*
G75*
G02*
X12990000Y-12575000I0J-7500D01*
G01*
X12990000Y-12705000D01*
G75*
G02*
X12982500Y-12712500I-7500J0D01*
G01*
G37*
G36*
G01*
X12982500Y-12282500D02*
X12967500Y-12282500D01*
G75*
G02*
X12960000Y-12275000I0J7500D01*
G01*
X12960000Y-12145000D01*
G75*
G02*
X12967500Y-12137500I7500J0D01*
G01*
X12982500Y-12137500D01*
G75*
G02*
X12990000Y-12145000I0J-7500D01*
G01*
X12990000Y-12275000D01*
G75*
G02*
X12982500Y-12282500I-7500J0D01*
G01*
G37*
G36*
G01*
X12932500Y-12282500D02*
X12917500Y-12282500D01*
G75*
G02*
X12910000Y-12275000I0J7500D01*
G01*
X12910000Y-12145000D01*
G75*
G02*
X12917500Y-12137500I7500J0D01*
G01*
X12932500Y-12137500D01*
G75*
G02*
X12940000Y-12145000I0J-7500D01*
G01*
X12940000Y-12275000D01*
G75*
G02*
X12932500Y-12282500I-7500J0D01*
G01*
G37*
G36*
G01*
X12882500Y-12282500D02*
X12867500Y-12282500D01*
G75*
G02*
X12860000Y-12275000I0J7500D01*
G01*
X12860000Y-12145000D01*
G75*
G02*
X12867500Y-12137500I7500J0D01*
G01*
X12882500Y-12137500D01*
G75*
G02*
X12890000Y-12145000I0J-7500D01*
G01*
X12890000Y-12275000D01*
G75*
G02*
X12882500Y-12282500I-7500J0D01*
G01*
G37*
G36*
G01*
X12832500Y-12282500D02*
X12817500Y-12282500D01*
G75*
G02*
X12810000Y-12275000I0J7500D01*
G01*
X12810000Y-12145000D01*
G75*
G02*
X12817500Y-12137500I7500J0D01*
G01*
X12832500Y-12137500D01*
G75*
G02*
X12840000Y-12145000I0J-7500D01*
G01*
X12840000Y-12275000D01*
G75*
G02*
X12832500Y-12282500I-7500J0D01*
G01*
G37*
G36*
G01*
X12782500Y-12282500D02*
X12767500Y-12282500D01*
G75*
G02*
X12760000Y-12275000I0J7500D01*
G01*
X12760000Y-12145000D01*
G75*
G02*
X12767500Y-12137500I7500J0D01*
G01*
X12782500Y-12137500D01*
G75*
G02*
X12790000Y-12145000I0J-7500D01*
G01*
X12790000Y-12275000D01*
G75*
G02*
X12782500Y-12282500I-7500J0D01*
G01*
G37*
D30*
X12875000Y-12425000D03*
%TD*%
M02*
