%TF.GenerationSoftware,KiCad,Pcbnew,(6.0.4-0)*%
%TF.CreationDate,2022-03-31T17:06:01+02:00*%
%TF.ProjectId,cryosub_power_converter_top_v03,6372796f-7375-4625-9f70-6f7765725f63,rev?*%
%TF.SameCoordinates,Original*%
%TF.FileFunction,Paste,Top*%
%TF.FilePolarity,Positive*%
%FSLAX45Y45*%
G04 Gerber Fmt 4.5, Leading zero omitted, Abs format (unit mm)*
G04 Created by KiCad (PCBNEW (6.0.4-0)) date 2022-03-31 17:06:01*
%MOMM*%
%LPD*%
G01*
G04 APERTURE LIST*
G04 Aperture macros list*
%AMRoundRect*
0 Rectangle with rounded corners*
0 $1 Rounding radius*
0 $2 $3 $4 $5 $6 $7 $8 $9 X,Y pos of 4 corners*
0 Add a 4 corners polygon primitive as box body*
4,1,4,$2,$3,$4,$5,$6,$7,$8,$9,$2,$3,0*
0 Add four circle primitives for the rounded corners*
1,1,$1+$1,$2,$3*
1,1,$1+$1,$4,$5*
1,1,$1+$1,$6,$7*
1,1,$1+$1,$8,$9*
0 Add four rect primitives between the rounded corners*
20,1,$1+$1,$2,$3,$4,$5,0*
20,1,$1+$1,$4,$5,$6,$7,0*
20,1,$1+$1,$6,$7,$8,$9,0*
20,1,$1+$1,$8,$9,$2,$3,0*%
G04 Aperture macros list end*
%ADD10C,0.100000*%
%ADD11RoundRect,0.237500X0.250000X0.237500X-0.250000X0.237500X-0.250000X-0.237500X0.250000X-0.237500X0*%
%ADD12RoundRect,0.237500X-0.250000X-0.237500X0.250000X-0.237500X0.250000X0.237500X-0.250000X0.237500X0*%
%ADD13R,2.750000X3.050000*%
%ADD14R,1.200000X2.200000*%
%ADD15RoundRect,0.170000X0.210000X-0.170000X0.210000X0.170000X-0.210000X0.170000X-0.210000X-0.170000X0*%
%ADD16RoundRect,0.075000X0.075000X-0.650000X0.075000X0.650000X-0.075000X0.650000X-0.075000X-0.650000X0*%
%ADD17R,0.900000X0.800000*%
%ADD18RoundRect,0.225000X-0.250000X0.225000X-0.250000X-0.225000X0.250000X-0.225000X0.250000X0.225000X0*%
%ADD19RoundRect,0.225000X0.250000X-0.225000X0.250000X0.225000X-0.250000X0.225000X-0.250000X-0.225000X0*%
%ADD20RoundRect,0.250000X0.475000X-0.337500X0.475000X0.337500X-0.475000X0.337500X-0.475000X-0.337500X0*%
%ADD21RoundRect,0.237500X0.237500X-0.250000X0.237500X0.250000X-0.237500X0.250000X-0.237500X-0.250000X0*%
%ADD22RoundRect,0.250000X-0.337500X-0.475000X0.337500X-0.475000X0.337500X0.475000X-0.337500X0.475000X0*%
%ADD23RoundRect,0.225000X0.225000X0.250000X-0.225000X0.250000X-0.225000X-0.250000X0.225000X-0.250000X0*%
%ADD24R,0.807999X0.254800*%
%ADD25R,0.254800X0.807999*%
%ADD26R,1.244600X1.244600*%
%ADD27RoundRect,0.225000X-0.225000X-0.250000X0.225000X-0.250000X0.225000X0.250000X-0.225000X0.250000X0*%
%ADD28R,3.200001X1.000001*%
%ADD29RoundRect,0.200000X-0.275000X0.200000X-0.275000X-0.200000X0.275000X-0.200000X0.275000X0.200000X0*%
%ADD30RoundRect,0.200000X0.200000X0.275000X-0.200000X0.275000X-0.200000X-0.275000X0.200000X-0.275000X0*%
%ADD31R,1.327899X0.279400*%
%ADD32R,1.000001X3.200001*%
%ADD33RoundRect,0.218750X-0.256250X0.218750X-0.256250X-0.218750X0.256250X-0.218750X0.256250X0.218750X0*%
%ADD34RoundRect,0.200000X-0.200000X-0.275000X0.200000X-0.275000X0.200000X0.275000X-0.200000X0.275000X0*%
%ADD35RoundRect,0.218750X0.218750X0.256250X-0.218750X0.256250X-0.218750X-0.256250X0.218750X-0.256250X0*%
%ADD36R,0.900000X1.200000*%
%ADD37R,1.200000X0.900000*%
G04 APERTURE END LIST*
%TO.C,U2*%
G36*
X11857630Y-12757320D02*
G01*
X11702370Y-12757320D01*
X11702370Y-12630000D01*
X11857630Y-12630000D01*
X11857630Y-12757320D01*
G37*
D10*
X11857630Y-12757320D02*
X11702370Y-12757320D01*
X11702370Y-12630000D01*
X11857630Y-12630000D01*
X11857630Y-12757320D01*
G36*
X11857630Y-12610000D02*
G01*
X11702370Y-12610000D01*
X11702370Y-12482680D01*
X11857630Y-12482680D01*
X11857630Y-12610000D01*
G37*
X11857630Y-12610000D02*
X11702370Y-12610000D01*
X11702370Y-12482680D01*
X11857630Y-12482680D01*
X11857630Y-12610000D01*
%TD*%
D11*
%TO.C,R8*%
X12550000Y-14075000D03*
X12367500Y-14075000D03*
%TD*%
D12*
%TO.C,R3*%
X12058750Y-13330000D03*
X12241250Y-13330000D03*
%TD*%
D11*
%TO.C,R4*%
X12550000Y-13625000D03*
X12367500Y-13625000D03*
%TD*%
D13*
%TO.C,Q3*%
X11202500Y-13607500D03*
X11202500Y-13272500D03*
X10897500Y-13607500D03*
X10897500Y-13272500D03*
D14*
X10822000Y-14070000D03*
X11050000Y-14070000D03*
X11278000Y-14070000D03*
%TD*%
D15*
%TO.C,U1*%
X12828000Y-12467000D03*
X12922000Y-12383000D03*
X12922000Y-12467000D03*
X12828000Y-12383000D03*
D16*
X12775000Y-12640000D03*
X12825000Y-12640000D03*
X12875000Y-12640000D03*
X12925000Y-12640000D03*
X12975000Y-12640000D03*
X12975000Y-12210000D03*
X12925000Y-12210000D03*
X12875000Y-12210000D03*
X12825000Y-12210000D03*
X12775000Y-12210000D03*
%TD*%
D17*
%TO.C,Q1*%
X11900000Y-13525000D03*
X11900000Y-13715000D03*
X12100000Y-13620000D03*
%TD*%
D18*
%TO.C,C6*%
X10200000Y-13468750D03*
X10200000Y-13623750D03*
%TD*%
D12*
%TO.C,R2*%
X11717500Y-13360000D03*
X11900000Y-13360000D03*
%TD*%
D19*
%TO.C,C1*%
X13100000Y-11913750D03*
X13100000Y-11758750D03*
%TD*%
D20*
%TO.C,C3*%
X12700000Y-11925000D03*
X12700000Y-11717500D03*
%TD*%
D21*
%TO.C,R1*%
X12925000Y-11925000D03*
X12925000Y-11742500D03*
%TD*%
D22*
%TO.C,C2*%
X12775000Y-12950000D03*
X12982500Y-12950000D03*
%TD*%
D23*
%TO.C,C5*%
X11013750Y-14325000D03*
X10858750Y-14325000D03*
%TD*%
D17*
%TO.C,Q2*%
X11900000Y-13985000D03*
X11900000Y-14175000D03*
X12100000Y-14080000D03*
%TD*%
D12*
%TO.C,R10*%
X11475000Y-14325000D03*
X11657500Y-14325000D03*
%TD*%
D24*
%TO.C,U3*%
X10505460Y-11982500D03*
X10505460Y-12032500D03*
X10505460Y-12082500D03*
X10505460Y-12132500D03*
D25*
X10575000Y-12202040D03*
X10625000Y-12202040D03*
X10675000Y-12202040D03*
X10725000Y-12202040D03*
D24*
X10794540Y-12132500D03*
X10794540Y-12082500D03*
X10794540Y-12032500D03*
X10794540Y-11982500D03*
D25*
X10725000Y-11912960D03*
X10675000Y-11912960D03*
X10625000Y-11912960D03*
X10575000Y-11912960D03*
D26*
X10650000Y-12057500D03*
%TD*%
D23*
%TO.C,C9*%
X12067500Y-12940000D03*
X11912500Y-12940000D03*
%TD*%
D18*
%TO.C,C13*%
X10175000Y-12250000D03*
X10175000Y-12405000D03*
%TD*%
D23*
%TO.C,C15*%
X11087500Y-11870000D03*
X10932500Y-11870000D03*
%TD*%
D27*
%TO.C,C10*%
X11190000Y-13010000D03*
X11345000Y-13010000D03*
%TD*%
%TO.C,C11*%
X11230000Y-12350000D03*
X11385000Y-12350000D03*
%TD*%
D28*
%TO.C,L2*%
X11252500Y-12817500D03*
X11252500Y-12597500D03*
%TD*%
D29*
%TO.C,R15*%
X10950000Y-12075000D03*
X10950000Y-12240000D03*
%TD*%
D30*
%TO.C,R17*%
X10975000Y-12470000D03*
X10810000Y-12470000D03*
%TD*%
D31*
%TO.C,U2*%
X12001335Y-12795133D03*
X12001335Y-12745095D03*
X12001335Y-12695057D03*
X12001335Y-12645019D03*
X12001335Y-12594981D03*
X12001335Y-12544943D03*
X12001335Y-12494905D03*
X12001335Y-12444867D03*
X11558665Y-12444867D03*
X11558665Y-12494905D03*
X11558665Y-12544943D03*
X11558665Y-12594981D03*
X11558665Y-12645019D03*
X11558665Y-12695057D03*
X11558665Y-12745095D03*
X11558665Y-12795133D03*
%TD*%
D22*
%TO.C,C12*%
X11572500Y-12285000D03*
X11780000Y-12285000D03*
%TD*%
D32*
%TO.C,L4*%
X10650000Y-11660000D03*
X10430000Y-11660000D03*
%TD*%
D18*
%TO.C,C17*%
X11445000Y-11742500D03*
X11445000Y-11897500D03*
%TD*%
D33*
%TO.C,L5*%
X11592500Y-11743750D03*
X11592500Y-11901250D03*
%TD*%
D18*
%TO.C,C16*%
X10250000Y-12695000D03*
X10250000Y-12850000D03*
%TD*%
D34*
%TO.C,R18*%
X10400000Y-12500000D03*
X10565000Y-12500000D03*
%TD*%
D30*
%TO.C,R19*%
X10565000Y-12700000D03*
X10400000Y-12700000D03*
%TD*%
D35*
%TO.C,L3*%
X10335000Y-12047500D03*
X10177500Y-12047500D03*
%TD*%
D33*
%TO.C,L1*%
X10440000Y-13241250D03*
X10440000Y-13398750D03*
%TD*%
D36*
%TO.C,D3*%
X11190000Y-11670000D03*
X10860000Y-11670000D03*
%TD*%
D23*
%TO.C,C7*%
X11760000Y-13200000D03*
X11605000Y-13200000D03*
%TD*%
D22*
%TO.C,C4*%
X12872500Y-13580000D03*
X13080000Y-13580000D03*
%TD*%
D37*
%TO.C,D1*%
X11550000Y-14015000D03*
X11550000Y-13685000D03*
%TD*%
M02*
