%TF.GenerationSoftware,KiCad,Pcbnew,5.1.9-1.fc33*%
%TF.CreationDate,2021-04-16T18:18:08+01:00*%
%TF.ProjectId,cryosub_top_v01,6372796f-7375-4625-9f74-6f705f763031,rev?*%
%TF.SameCoordinates,Original*%
%TF.FileFunction,Other,Fab,Bot*%
%FSLAX46Y46*%
G04 Gerber Fmt 4.6, Leading zero omitted, Abs format (unit mm)*
G04 Created by KiCad (PCBNEW 5.1.9-1.fc33) date 2021-04-16 18:18:08*
%MOMM*%
%LPD*%
G01*
G04 APERTURE LIST*
%ADD10C,0.100000*%
%ADD11C,0.150000*%
%ADD12C,0.060000*%
G04 APERTURE END LIST*
D10*
%TO.C,R15*%
X112862500Y-103962500D02*
X114462500Y-103962500D01*
X112862500Y-103137500D02*
X112862500Y-103962500D01*
X114462500Y-103137500D02*
X112862500Y-103137500D01*
X114462500Y-103962500D02*
X114462500Y-103137500D01*
%TO.C,R13*%
X112812500Y-105712500D02*
X114412500Y-105712500D01*
X112812500Y-104887500D02*
X112812500Y-105712500D01*
X114412500Y-104887500D02*
X112812500Y-104887500D01*
X114412500Y-105712500D02*
X114412500Y-104887500D01*
%TO.C,R6*%
X144500000Y-101062500D02*
X146100000Y-101062500D01*
X144500000Y-100237500D02*
X144500000Y-101062500D01*
X146100000Y-100237500D02*
X144500000Y-100237500D01*
X146100000Y-101062500D02*
X146100000Y-100237500D01*
%TO.C,R4*%
X144500000Y-103062500D02*
X146100000Y-103062500D01*
X144500000Y-102237500D02*
X144500000Y-103062500D01*
X146100000Y-102237500D02*
X144500000Y-102237500D01*
X146100000Y-103062500D02*
X146100000Y-102237500D01*
%TD*%
%TO.C,R15*%
D11*
X114829166Y-104527619D02*
X114781547Y-104480000D01*
X114686309Y-104432380D01*
X114448214Y-104432380D01*
X114352976Y-104480000D01*
X114305357Y-104527619D01*
X114257738Y-104622857D01*
X114257738Y-104718095D01*
X114305357Y-104860952D01*
X114876785Y-105432380D01*
X114257738Y-105432380D01*
X113638690Y-104432380D02*
X113543452Y-104432380D01*
X113448214Y-104480000D01*
X113400595Y-104527619D01*
X113352976Y-104622857D01*
X113305357Y-104813333D01*
X113305357Y-105051428D01*
X113352976Y-105241904D01*
X113400595Y-105337142D01*
X113448214Y-105384761D01*
X113543452Y-105432380D01*
X113638690Y-105432380D01*
X113733928Y-105384761D01*
X113781547Y-105337142D01*
X113829166Y-105241904D01*
X113876785Y-105051428D01*
X113876785Y-104813333D01*
X113829166Y-104622857D01*
X113781547Y-104527619D01*
X113733928Y-104480000D01*
X113638690Y-104432380D01*
X112876785Y-105432380D02*
X112876785Y-104432380D01*
X112781547Y-105051428D02*
X112495833Y-105432380D01*
X112495833Y-104765714D02*
X112876785Y-105146666D01*
D12*
X113919642Y-103730952D02*
X114052976Y-103540476D01*
X114148214Y-103730952D02*
X114148214Y-103330952D01*
X113995833Y-103330952D01*
X113957738Y-103350000D01*
X113938690Y-103369047D01*
X113919642Y-103407142D01*
X113919642Y-103464285D01*
X113938690Y-103502380D01*
X113957738Y-103521428D01*
X113995833Y-103540476D01*
X114148214Y-103540476D01*
X113538690Y-103730952D02*
X113767261Y-103730952D01*
X113652976Y-103730952D02*
X113652976Y-103330952D01*
X113691071Y-103388095D01*
X113729166Y-103426190D01*
X113767261Y-103445238D01*
X113176785Y-103330952D02*
X113367261Y-103330952D01*
X113386309Y-103521428D01*
X113367261Y-103502380D01*
X113329166Y-103483333D01*
X113233928Y-103483333D01*
X113195833Y-103502380D01*
X113176785Y-103521428D01*
X113157738Y-103559523D01*
X113157738Y-103654761D01*
X113176785Y-103692857D01*
X113195833Y-103711904D01*
X113233928Y-103730952D01*
X113329166Y-103730952D01*
X113367261Y-103711904D01*
X113386309Y-103692857D01*
%TO.C,R13*%
D11*
X114779166Y-106277619D02*
X114731547Y-106230000D01*
X114636309Y-106182380D01*
X114398214Y-106182380D01*
X114302976Y-106230000D01*
X114255357Y-106277619D01*
X114207738Y-106372857D01*
X114207738Y-106468095D01*
X114255357Y-106610952D01*
X114826785Y-107182380D01*
X114207738Y-107182380D01*
X113588690Y-106182380D02*
X113493452Y-106182380D01*
X113398214Y-106230000D01*
X113350595Y-106277619D01*
X113302976Y-106372857D01*
X113255357Y-106563333D01*
X113255357Y-106801428D01*
X113302976Y-106991904D01*
X113350595Y-107087142D01*
X113398214Y-107134761D01*
X113493452Y-107182380D01*
X113588690Y-107182380D01*
X113683928Y-107134761D01*
X113731547Y-107087142D01*
X113779166Y-106991904D01*
X113826785Y-106801428D01*
X113826785Y-106563333D01*
X113779166Y-106372857D01*
X113731547Y-106277619D01*
X113683928Y-106230000D01*
X113588690Y-106182380D01*
X112826785Y-107182380D02*
X112826785Y-106182380D01*
X112731547Y-106801428D02*
X112445833Y-107182380D01*
X112445833Y-106515714D02*
X112826785Y-106896666D01*
D12*
X113869642Y-105480952D02*
X114002976Y-105290476D01*
X114098214Y-105480952D02*
X114098214Y-105080952D01*
X113945833Y-105080952D01*
X113907738Y-105100000D01*
X113888690Y-105119047D01*
X113869642Y-105157142D01*
X113869642Y-105214285D01*
X113888690Y-105252380D01*
X113907738Y-105271428D01*
X113945833Y-105290476D01*
X114098214Y-105290476D01*
X113488690Y-105480952D02*
X113717261Y-105480952D01*
X113602976Y-105480952D02*
X113602976Y-105080952D01*
X113641071Y-105138095D01*
X113679166Y-105176190D01*
X113717261Y-105195238D01*
X113355357Y-105080952D02*
X113107738Y-105080952D01*
X113241071Y-105233333D01*
X113183928Y-105233333D01*
X113145833Y-105252380D01*
X113126785Y-105271428D01*
X113107738Y-105309523D01*
X113107738Y-105404761D01*
X113126785Y-105442857D01*
X113145833Y-105461904D01*
X113183928Y-105480952D01*
X113298214Y-105480952D01*
X113336309Y-105461904D01*
X113355357Y-105442857D01*
%TO.C,R6*%
D11*
X145895238Y-102532380D02*
X146466666Y-102532380D01*
X146180952Y-102532380D02*
X146180952Y-101532380D01*
X146276190Y-101675238D01*
X146371428Y-101770476D01*
X146466666Y-101818095D01*
X145276190Y-101532380D02*
X145180952Y-101532380D01*
X145085714Y-101580000D01*
X145038095Y-101627619D01*
X144990476Y-101722857D01*
X144942857Y-101913333D01*
X144942857Y-102151428D01*
X144990476Y-102341904D01*
X145038095Y-102437142D01*
X145085714Y-102484761D01*
X145180952Y-102532380D01*
X145276190Y-102532380D01*
X145371428Y-102484761D01*
X145419047Y-102437142D01*
X145466666Y-102341904D01*
X145514285Y-102151428D01*
X145514285Y-101913333D01*
X145466666Y-101722857D01*
X145419047Y-101627619D01*
X145371428Y-101580000D01*
X145276190Y-101532380D01*
X144514285Y-102532380D02*
X144514285Y-101532380D01*
X144419047Y-102151428D02*
X144133333Y-102532380D01*
X144133333Y-101865714D02*
X144514285Y-102246666D01*
D12*
X145366666Y-100830952D02*
X145500000Y-100640476D01*
X145595238Y-100830952D02*
X145595238Y-100430952D01*
X145442857Y-100430952D01*
X145404761Y-100450000D01*
X145385714Y-100469047D01*
X145366666Y-100507142D01*
X145366666Y-100564285D01*
X145385714Y-100602380D01*
X145404761Y-100621428D01*
X145442857Y-100640476D01*
X145595238Y-100640476D01*
X145023809Y-100430952D02*
X145100000Y-100430952D01*
X145138095Y-100450000D01*
X145157142Y-100469047D01*
X145195238Y-100526190D01*
X145214285Y-100602380D01*
X145214285Y-100754761D01*
X145195238Y-100792857D01*
X145176190Y-100811904D01*
X145138095Y-100830952D01*
X145061904Y-100830952D01*
X145023809Y-100811904D01*
X145004761Y-100792857D01*
X144985714Y-100754761D01*
X144985714Y-100659523D01*
X145004761Y-100621428D01*
X145023809Y-100602380D01*
X145061904Y-100583333D01*
X145138095Y-100583333D01*
X145176190Y-100602380D01*
X145195238Y-100621428D01*
X145214285Y-100659523D01*
%TO.C,R4*%
D11*
X145895238Y-104532380D02*
X146466666Y-104532380D01*
X146180952Y-104532380D02*
X146180952Y-103532380D01*
X146276190Y-103675238D01*
X146371428Y-103770476D01*
X146466666Y-103818095D01*
X145276190Y-103532380D02*
X145180952Y-103532380D01*
X145085714Y-103580000D01*
X145038095Y-103627619D01*
X144990476Y-103722857D01*
X144942857Y-103913333D01*
X144942857Y-104151428D01*
X144990476Y-104341904D01*
X145038095Y-104437142D01*
X145085714Y-104484761D01*
X145180952Y-104532380D01*
X145276190Y-104532380D01*
X145371428Y-104484761D01*
X145419047Y-104437142D01*
X145466666Y-104341904D01*
X145514285Y-104151428D01*
X145514285Y-103913333D01*
X145466666Y-103722857D01*
X145419047Y-103627619D01*
X145371428Y-103580000D01*
X145276190Y-103532380D01*
X144514285Y-104532380D02*
X144514285Y-103532380D01*
X144419047Y-104151428D02*
X144133333Y-104532380D01*
X144133333Y-103865714D02*
X144514285Y-104246666D01*
D12*
X145366666Y-102830952D02*
X145500000Y-102640476D01*
X145595238Y-102830952D02*
X145595238Y-102430952D01*
X145442857Y-102430952D01*
X145404761Y-102450000D01*
X145385714Y-102469047D01*
X145366666Y-102507142D01*
X145366666Y-102564285D01*
X145385714Y-102602380D01*
X145404761Y-102621428D01*
X145442857Y-102640476D01*
X145595238Y-102640476D01*
X145023809Y-102564285D02*
X145023809Y-102830952D01*
X145119047Y-102411904D02*
X145214285Y-102697619D01*
X144966666Y-102697619D01*
%TD*%
M02*
