%TF.GenerationSoftware,KiCad,Pcbnew,5.1.9-1.fc33*%
%TF.CreationDate,2021-04-16T18:18:08+01:00*%
%TF.ProjectId,cryosub_top_v01,6372796f-7375-4625-9f74-6f705f763031,rev?*%
%TF.SameCoordinates,Original*%
%TF.FileFunction,Other,Fab,Top*%
%FSLAX46Y46*%
G04 Gerber Fmt 4.6, Leading zero omitted, Abs format (unit mm)*
G04 Created by KiCad (PCBNEW 5.1.9-1.fc33) date 2021-04-16 18:18:08*
%MOMM*%
%LPD*%
G01*
G04 APERTURE LIST*
%ADD10C,0.100000*%
%ADD11C,0.150000*%
%ADD12C,0.060000*%
%ADD13C,0.080000*%
%ADD14C,0.075000*%
G04 APERTURE END LIST*
D10*
%TO.C,TH1*%
X225500000Y-106350000D02*
G75*
G03*
X225500000Y-106350000I-800000J0D01*
G01*
X224700000Y-106350000D02*
X226600000Y-106350000D01*
%TO.C,R22*%
X158162500Y-103312500D02*
X156562500Y-103312500D01*
X158162500Y-102487500D02*
X158162500Y-103312500D01*
X156562500Y-102487500D02*
X158162500Y-102487500D01*
X156562500Y-103312500D02*
X156562500Y-102487500D01*
%TO.C,C6*%
X158157500Y-104900000D02*
X156557500Y-104900000D01*
X158157500Y-104100000D02*
X158157500Y-104900000D01*
X156557500Y-104100000D02*
X158157500Y-104100000D01*
X156557500Y-104900000D02*
X156557500Y-104100000D01*
%TO.C,C5*%
X120600000Y-92700000D02*
X120600000Y-91100000D01*
X121400000Y-92700000D02*
X120600000Y-92700000D01*
X121400000Y-91100000D02*
X121400000Y-92700000D01*
X120600000Y-91100000D02*
X121400000Y-91100000D01*
%TO.C,C3*%
X150900000Y-94357500D02*
X150900000Y-92757500D01*
X151700000Y-94357500D02*
X150900000Y-94357500D01*
X151700000Y-92757500D02*
X151700000Y-94357500D01*
X150900000Y-92757500D02*
X151700000Y-92757500D01*
%TO.C,C7*%
X121737500Y-88675000D02*
X119737500Y-88675000D01*
X121737500Y-87425000D02*
X121737500Y-88675000D01*
X119737500Y-87425000D02*
X121737500Y-87425000D01*
X119737500Y-88675000D02*
X119737500Y-87425000D01*
%TO.C,J1*%
X239800000Y-91850000D02*
X238810000Y-92600000D01*
X238810000Y-91100000D02*
X239800000Y-91850000D01*
X238810000Y-107425000D02*
X238810000Y-88275000D01*
X247720000Y-107425000D02*
X238810000Y-107425000D01*
X248720000Y-106425000D02*
X247720000Y-107425000D01*
X248720000Y-89275000D02*
X248720000Y-106425000D01*
X247720000Y-88275000D02*
X248720000Y-89275000D01*
X238810000Y-88275000D02*
X247720000Y-88275000D01*
%TO.C,R23*%
X156387500Y-92737500D02*
X157987500Y-92737500D01*
X156387500Y-93562500D02*
X156387500Y-92737500D01*
X157987500Y-93562500D02*
X156387500Y-93562500D01*
X157987500Y-92737500D02*
X157987500Y-93562500D01*
%TO.C,U1*%
X219670000Y-90805000D02*
X220670000Y-91805000D01*
X159710000Y-90805000D02*
X219670000Y-90805000D01*
X159710000Y-105535000D02*
X159710000Y-90805000D01*
X220670000Y-105535000D02*
X159710000Y-105535000D01*
X220670000Y-91805000D02*
X220670000Y-105535000D01*
%TO.C,TH3*%
X107175000Y-107700000D02*
X107175000Y-105700000D01*
X108425000Y-107700000D02*
X107175000Y-107700000D01*
X108425000Y-105700000D02*
X108425000Y-107700000D01*
X107175000Y-105700000D02*
X108425000Y-105700000D01*
%TO.C,TH2*%
X139675000Y-105650000D02*
X139675000Y-103650000D01*
X140925000Y-105650000D02*
X139675000Y-105650000D01*
X140925000Y-103650000D02*
X140925000Y-105650000D01*
X139675000Y-103650000D02*
X140925000Y-103650000D01*
%TO.C,R21*%
X126485000Y-88100000D02*
X126485000Y-92800000D01*
X127485000Y-88100000D02*
X126485000Y-88100000D01*
X127485000Y-92800000D02*
X127485000Y-88100000D01*
X131565000Y-88100000D02*
X131565000Y-92800000D01*
X132565000Y-88100000D02*
X131565000Y-88100000D01*
X132565000Y-92800000D02*
X132565000Y-88100000D01*
X134525000Y-93800000D02*
X134525000Y-102050000D01*
X133525000Y-92800000D02*
X134525000Y-93800000D01*
X124525000Y-92800000D02*
X133525000Y-92800000D01*
X124525000Y-102050000D02*
X124525000Y-92800000D01*
X134525000Y-102050000D02*
X124525000Y-102050000D01*
X124525000Y-103050000D02*
X124525000Y-102050000D01*
X134525000Y-103050000D02*
X124525000Y-103050000D01*
X134525000Y-102050000D02*
X134525000Y-103050000D01*
%TO.C,R20*%
X120137500Y-95662500D02*
X118537500Y-95662500D01*
X120137500Y-94837500D02*
X120137500Y-95662500D01*
X118537500Y-94837500D02*
X120137500Y-94837500D01*
X118537500Y-95662500D02*
X118537500Y-94837500D01*
%TO.C,R19*%
X108000000Y-95987500D02*
X109600000Y-95987500D01*
X108000000Y-96812500D02*
X108000000Y-95987500D01*
X109600000Y-96812500D02*
X108000000Y-96812500D01*
X109600000Y-95987500D02*
X109600000Y-96812500D01*
%TO.C,R18*%
X105037500Y-96737500D02*
X105037500Y-95137500D01*
X105862500Y-96737500D02*
X105037500Y-96737500D01*
X105862500Y-95137500D02*
X105862500Y-96737500D01*
X105037500Y-95137500D02*
X105862500Y-95137500D01*
%TO.C,R17*%
X107387500Y-103187500D02*
X107387500Y-101587500D01*
X108212500Y-103187500D02*
X107387500Y-103187500D01*
X108212500Y-101587500D02*
X108212500Y-103187500D01*
X107387500Y-101587500D02*
X108212500Y-101587500D01*
%TO.C,R16*%
X112187500Y-100512500D02*
X112187500Y-98912500D01*
X113012500Y-100512500D02*
X112187500Y-100512500D01*
X113012500Y-98912500D02*
X113012500Y-100512500D01*
X112187500Y-98912500D02*
X113012500Y-98912500D01*
%TO.C,R14*%
X114162500Y-108562500D02*
X112562500Y-108562500D01*
X114162500Y-107737500D02*
X114162500Y-108562500D01*
X112562500Y-107737500D02*
X114162500Y-107737500D01*
X112562500Y-108562500D02*
X112562500Y-107737500D01*
%TO.C,R12*%
X119087500Y-104087500D02*
X119087500Y-102487500D01*
X119912500Y-104087500D02*
X119087500Y-104087500D01*
X119912500Y-102487500D02*
X119912500Y-104087500D01*
X119087500Y-102487500D02*
X119912500Y-102487500D01*
%TO.C,R11*%
X115812500Y-98887500D02*
X115812500Y-100487500D01*
X114987500Y-98887500D02*
X115812500Y-98887500D01*
X114987500Y-100487500D02*
X114987500Y-98887500D01*
X115812500Y-100487500D02*
X114987500Y-100487500D01*
%TO.C,R10*%
X117287500Y-100387500D02*
X117287500Y-98787500D01*
X118112500Y-100387500D02*
X117287500Y-100387500D01*
X118112500Y-98787500D02*
X118112500Y-100387500D01*
X117287500Y-98787500D02*
X118112500Y-98787500D01*
%TO.C,R9*%
X149187500Y-97812500D02*
X147587500Y-97812500D01*
X149187500Y-96987500D02*
X149187500Y-97812500D01*
X147587500Y-96987500D02*
X149187500Y-96987500D01*
X147587500Y-97812500D02*
X147587500Y-96987500D01*
%TO.C,R8*%
X140137500Y-101362500D02*
X140137500Y-99762500D01*
X140962500Y-101362500D02*
X140137500Y-101362500D01*
X140962500Y-99762500D02*
X140962500Y-101362500D01*
X140137500Y-99762500D02*
X140962500Y-99762500D01*
%TO.C,R7*%
X144137500Y-99037500D02*
X144137500Y-97437500D01*
X144962500Y-99037500D02*
X144137500Y-99037500D01*
X144962500Y-97437500D02*
X144962500Y-99037500D01*
X144137500Y-97437500D02*
X144962500Y-97437500D01*
%TO.C,R5*%
X145262500Y-105812500D02*
X143662500Y-105812500D01*
X145262500Y-104987500D02*
X145262500Y-105812500D01*
X143662500Y-104987500D02*
X145262500Y-104987500D01*
X143662500Y-105812500D02*
X143662500Y-104987500D01*
%TO.C,R3*%
X151137500Y-99287500D02*
X151137500Y-97687500D01*
X151962500Y-99287500D02*
X151137500Y-99287500D01*
X151962500Y-97687500D02*
X151962500Y-99287500D01*
X151137500Y-97687500D02*
X151962500Y-97687500D01*
%TO.C,R2*%
X146887500Y-105287500D02*
X146887500Y-103687500D01*
X147712500Y-105287500D02*
X146887500Y-105287500D01*
X147712500Y-103687500D02*
X147712500Y-105287500D01*
X146887500Y-103687500D02*
X147712500Y-103687500D01*
%TO.C,R1*%
X147137500Y-101037500D02*
X147137500Y-99437500D01*
X147962500Y-101037500D02*
X147137500Y-101037500D01*
X147962500Y-99437500D02*
X147962500Y-101037500D01*
X147137500Y-99437500D02*
X147962500Y-99437500D01*
%TO.C,Q6*%
X117245000Y-87870000D02*
X114545000Y-87870000D01*
X117245000Y-88620000D02*
X117245000Y-87870000D01*
X114545000Y-88620000D02*
X117245000Y-88620000D01*
X117245000Y-90150000D02*
X114545000Y-90150000D01*
X117245000Y-90900000D02*
X117245000Y-90150000D01*
X114545000Y-90900000D02*
X117245000Y-90900000D01*
X117245000Y-92430000D02*
X114545000Y-92430000D01*
X117245000Y-93180000D02*
X117245000Y-92430000D01*
X114140000Y-93180000D02*
X117245000Y-93180000D01*
X113545000Y-93775000D02*
X108325000Y-93775000D01*
X114545000Y-92775000D02*
X113545000Y-93775000D01*
X114545000Y-87275000D02*
X114545000Y-92775000D01*
X108325000Y-87275000D02*
X114545000Y-87275000D01*
X108325000Y-93775000D02*
X108325000Y-87275000D01*
X107325000Y-87825000D02*
X108325000Y-87825000D01*
X107325000Y-93225000D02*
X107325000Y-87825000D01*
X108325000Y-93225000D02*
X107325000Y-93225000D01*
%TO.C,Q5*%
X111000000Y-105870000D02*
X112400000Y-105870000D01*
X112400000Y-102830000D02*
X112400000Y-105870000D01*
X111000000Y-103400000D02*
X111550000Y-102830000D01*
X111550000Y-102830000D02*
X112400000Y-102830000D01*
X111000000Y-103400000D02*
X111000000Y-105850000D01*
%TO.C,Q4*%
X115250000Y-105720000D02*
X116650000Y-105720000D01*
X116650000Y-102680000D02*
X116650000Y-105720000D01*
X115250000Y-103250000D02*
X115800000Y-102680000D01*
X115800000Y-102680000D02*
X116650000Y-102680000D01*
X115250000Y-103250000D02*
X115250000Y-105700000D01*
%TO.C,Q3*%
X149295000Y-89720000D02*
X146595000Y-89720000D01*
X149295000Y-90470000D02*
X149295000Y-89720000D01*
X146595000Y-90470000D02*
X149295000Y-90470000D01*
X149295000Y-92000000D02*
X146595000Y-92000000D01*
X149295000Y-92750000D02*
X149295000Y-92000000D01*
X146595000Y-92750000D02*
X149295000Y-92750000D01*
X149295000Y-94280000D02*
X146595000Y-94280000D01*
X149295000Y-95030000D02*
X149295000Y-94280000D01*
X146190000Y-95030000D02*
X149295000Y-95030000D01*
X145595000Y-95625000D02*
X140375000Y-95625000D01*
X146595000Y-94625000D02*
X145595000Y-95625000D01*
X146595000Y-89125000D02*
X146595000Y-94625000D01*
X140375000Y-89125000D02*
X146595000Y-89125000D01*
X140375000Y-95625000D02*
X140375000Y-89125000D01*
X139375000Y-89675000D02*
X140375000Y-89675000D01*
X139375000Y-95075000D02*
X139375000Y-89675000D01*
X140375000Y-95075000D02*
X139375000Y-95075000D01*
%TO.C,Q2*%
X142600000Y-103970000D02*
X144000000Y-103970000D01*
X144000000Y-100930000D02*
X144000000Y-103970000D01*
X142600000Y-101500000D02*
X143150000Y-100930000D01*
X143150000Y-100930000D02*
X144000000Y-100930000D01*
X142600000Y-101500000D02*
X142600000Y-103950000D01*
%TO.C,Q1*%
X149600000Y-103720000D02*
X151000000Y-103720000D01*
X151000000Y-100680000D02*
X151000000Y-103720000D01*
X149600000Y-101250000D02*
X150150000Y-100680000D01*
X150150000Y-100680000D02*
X151000000Y-100680000D01*
X149600000Y-101250000D02*
X149600000Y-103700000D01*
%TO.C,J2*%
X230230000Y-90195000D02*
X230865000Y-89560000D01*
X230230000Y-99720000D02*
X230230000Y-90195000D01*
X232770000Y-99720000D02*
X230230000Y-99720000D01*
X232770000Y-89560000D02*
X232770000Y-99720000D01*
X230865000Y-89560000D02*
X232770000Y-89560000D01*
%TO.C,D2*%
X108150000Y-98100000D02*
X109950000Y-98100000D01*
X109950000Y-98100000D02*
X109950000Y-99500000D01*
X109950000Y-99500000D02*
X108150000Y-99500000D01*
X108150000Y-99500000D02*
X108150000Y-98100000D01*
X108750000Y-98450000D02*
X108750000Y-99150000D01*
X108750000Y-98800000D02*
X108550000Y-98800000D01*
X108750000Y-98800000D02*
X109250000Y-98450000D01*
X109250000Y-98450000D02*
X109250000Y-99150000D01*
X109250000Y-99150000D02*
X108750000Y-98800000D01*
X109250000Y-98800000D02*
X109500000Y-98800000D01*
%TO.C,D1*%
X127900000Y-106900000D02*
X129700000Y-106900000D01*
X129700000Y-106900000D02*
X129700000Y-108300000D01*
X129700000Y-108300000D02*
X127900000Y-108300000D01*
X127900000Y-108300000D02*
X127900000Y-106900000D01*
X128500000Y-107250000D02*
X128500000Y-107950000D01*
X128500000Y-107600000D02*
X128300000Y-107600000D01*
X128500000Y-107600000D02*
X129000000Y-107250000D01*
X129000000Y-107250000D02*
X129000000Y-107950000D01*
X129000000Y-107950000D02*
X128500000Y-107600000D01*
X129000000Y-107600000D02*
X129250000Y-107600000D01*
%TO.C,C4*%
X152425000Y-95187500D02*
X152425000Y-93187500D01*
X153675000Y-95187500D02*
X152425000Y-95187500D01*
X153675000Y-93187500D02*
X153675000Y-95187500D01*
X152425000Y-93187500D02*
X153675000Y-93187500D01*
%TO.C,C2*%
X153837500Y-90775000D02*
X151837500Y-90775000D01*
X153837500Y-89525000D02*
X153837500Y-90775000D01*
X151837500Y-89525000D02*
X153837500Y-89525000D01*
X151837500Y-90775000D02*
X151837500Y-89525000D01*
%TO.C,C1*%
X158725000Y-88512500D02*
X158725000Y-90512500D01*
X157475000Y-88512500D02*
X158725000Y-88512500D01*
X157475000Y-90512500D02*
X157475000Y-88512500D01*
X158725000Y-90512500D02*
X157475000Y-90512500D01*
%TD*%
%TO.C,TH1*%
D11*
X223578571Y-108722380D02*
X223578571Y-107722380D01*
X223959523Y-107722380D01*
X224054761Y-107770000D01*
X224102380Y-107817619D01*
X224150000Y-107912857D01*
X224150000Y-108055714D01*
X224102380Y-108150952D01*
X224054761Y-108198571D01*
X223959523Y-108246190D01*
X223578571Y-108246190D01*
X224435714Y-107722380D02*
X225007142Y-107722380D01*
X224721428Y-108722380D02*
X224721428Y-107722380D01*
X225864285Y-108722380D02*
X225292857Y-108722380D01*
X225578571Y-108722380D02*
X225578571Y-107722380D01*
X225483333Y-107865238D01*
X225388095Y-107960476D01*
X225292857Y-108008095D01*
X226483333Y-107722380D02*
X226578571Y-107722380D01*
X226673809Y-107770000D01*
X226721428Y-107817619D01*
X226769047Y-107912857D01*
X226816666Y-108103333D01*
X226816666Y-108341428D01*
X226769047Y-108531904D01*
X226721428Y-108627142D01*
X226673809Y-108674761D01*
X226578571Y-108722380D01*
X226483333Y-108722380D01*
X226388095Y-108674761D01*
X226340476Y-108627142D01*
X226292857Y-108531904D01*
X226245238Y-108341428D01*
X226245238Y-108103333D01*
X226292857Y-107912857D01*
X226340476Y-107817619D01*
X226388095Y-107770000D01*
X226483333Y-107722380D01*
X227435714Y-107722380D02*
X227530952Y-107722380D01*
X227626190Y-107770000D01*
X227673809Y-107817619D01*
X227721428Y-107912857D01*
X227769047Y-108103333D01*
X227769047Y-108341428D01*
X227721428Y-108531904D01*
X227673809Y-108627142D01*
X227626190Y-108674761D01*
X227530952Y-108722380D01*
X227435714Y-108722380D01*
X227340476Y-108674761D01*
X227292857Y-108627142D01*
X227245238Y-108531904D01*
X227197619Y-108341428D01*
X227197619Y-108103333D01*
X227245238Y-107912857D01*
X227292857Y-107817619D01*
X227340476Y-107770000D01*
X227435714Y-107722380D01*
X224364285Y-103882380D02*
X224935714Y-103882380D01*
X224650000Y-104882380D02*
X224650000Y-103882380D01*
X225269047Y-104882380D02*
X225269047Y-103882380D01*
X225269047Y-104358571D02*
X225840476Y-104358571D01*
X225840476Y-104882380D02*
X225840476Y-103882380D01*
X226840476Y-104882380D02*
X226269047Y-104882380D01*
X226554761Y-104882380D02*
X226554761Y-103882380D01*
X226459523Y-104025238D01*
X226364285Y-104120476D01*
X226269047Y-104168095D01*
%TO.C,R22*%
X157243452Y-104782380D02*
X156672023Y-104782380D01*
X156957738Y-104782380D02*
X156957738Y-103782380D01*
X156862500Y-103925238D01*
X156767261Y-104020476D01*
X156672023Y-104068095D01*
X157672023Y-104782380D02*
X157672023Y-103782380D01*
X157767261Y-104401428D02*
X158052976Y-104782380D01*
X158052976Y-104115714D02*
X157672023Y-104496666D01*
D12*
X157105357Y-103080952D02*
X156972023Y-102890476D01*
X156876785Y-103080952D02*
X156876785Y-102680952D01*
X157029166Y-102680952D01*
X157067261Y-102700000D01*
X157086309Y-102719047D01*
X157105357Y-102757142D01*
X157105357Y-102814285D01*
X157086309Y-102852380D01*
X157067261Y-102871428D01*
X157029166Y-102890476D01*
X156876785Y-102890476D01*
X157257738Y-102719047D02*
X157276785Y-102700000D01*
X157314880Y-102680952D01*
X157410119Y-102680952D01*
X157448214Y-102700000D01*
X157467261Y-102719047D01*
X157486309Y-102757142D01*
X157486309Y-102795238D01*
X157467261Y-102852380D01*
X157238690Y-103080952D01*
X157486309Y-103080952D01*
X157638690Y-102719047D02*
X157657738Y-102700000D01*
X157695833Y-102680952D01*
X157791071Y-102680952D01*
X157829166Y-102700000D01*
X157848214Y-102719047D01*
X157867261Y-102757142D01*
X157867261Y-102795238D01*
X157848214Y-102852380D01*
X157619642Y-103080952D01*
X157867261Y-103080952D01*
%TO.C,C6*%
D11*
X156238452Y-106382380D02*
X155667023Y-106382380D01*
X155952738Y-106382380D02*
X155952738Y-105382380D01*
X155857500Y-105525238D01*
X155762261Y-105620476D01*
X155667023Y-105668095D01*
X156857500Y-105382380D02*
X156952738Y-105382380D01*
X157047976Y-105430000D01*
X157095595Y-105477619D01*
X157143214Y-105572857D01*
X157190833Y-105763333D01*
X157190833Y-106001428D01*
X157143214Y-106191904D01*
X157095595Y-106287142D01*
X157047976Y-106334761D01*
X156952738Y-106382380D01*
X156857500Y-106382380D01*
X156762261Y-106334761D01*
X156714642Y-106287142D01*
X156667023Y-106191904D01*
X156619404Y-106001428D01*
X156619404Y-105763333D01*
X156667023Y-105572857D01*
X156714642Y-105477619D01*
X156762261Y-105430000D01*
X156857500Y-105382380D01*
X157809880Y-105382380D02*
X157905119Y-105382380D01*
X158000357Y-105430000D01*
X158047976Y-105477619D01*
X158095595Y-105572857D01*
X158143214Y-105763333D01*
X158143214Y-106001428D01*
X158095595Y-106191904D01*
X158047976Y-106287142D01*
X158000357Y-106334761D01*
X157905119Y-106382380D01*
X157809880Y-106382380D01*
X157714642Y-106334761D01*
X157667023Y-106287142D01*
X157619404Y-106191904D01*
X157571785Y-106001428D01*
X157571785Y-105763333D01*
X157619404Y-105572857D01*
X157667023Y-105477619D01*
X157714642Y-105430000D01*
X157809880Y-105382380D01*
X158571785Y-105715714D02*
X158571785Y-106382380D01*
X158571785Y-105810952D02*
X158619404Y-105763333D01*
X158714642Y-105715714D01*
X158857500Y-105715714D01*
X158952738Y-105763333D01*
X159000357Y-105858571D01*
X159000357Y-106382380D01*
D12*
X157290833Y-104642857D02*
X157271785Y-104661904D01*
X157214642Y-104680952D01*
X157176547Y-104680952D01*
X157119404Y-104661904D01*
X157081309Y-104623809D01*
X157062261Y-104585714D01*
X157043214Y-104509523D01*
X157043214Y-104452380D01*
X157062261Y-104376190D01*
X157081309Y-104338095D01*
X157119404Y-104300000D01*
X157176547Y-104280952D01*
X157214642Y-104280952D01*
X157271785Y-104300000D01*
X157290833Y-104319047D01*
X157633690Y-104280952D02*
X157557500Y-104280952D01*
X157519404Y-104300000D01*
X157500357Y-104319047D01*
X157462261Y-104376190D01*
X157443214Y-104452380D01*
X157443214Y-104604761D01*
X157462261Y-104642857D01*
X157481309Y-104661904D01*
X157519404Y-104680952D01*
X157595595Y-104680952D01*
X157633690Y-104661904D01*
X157652738Y-104642857D01*
X157671785Y-104604761D01*
X157671785Y-104509523D01*
X157652738Y-104471428D01*
X157633690Y-104452380D01*
X157595595Y-104433333D01*
X157519404Y-104433333D01*
X157481309Y-104452380D01*
X157462261Y-104471428D01*
X157443214Y-104509523D01*
%TO.C,C5*%
D11*
X119022380Y-93590476D02*
X119022380Y-92971428D01*
X119403333Y-93304761D01*
X119403333Y-93161904D01*
X119450952Y-93066666D01*
X119498571Y-93019047D01*
X119593809Y-92971428D01*
X119831904Y-92971428D01*
X119927142Y-93019047D01*
X119974761Y-93066666D01*
X120022380Y-93161904D01*
X120022380Y-93447619D01*
X119974761Y-93542857D01*
X119927142Y-93590476D01*
X119022380Y-92352380D02*
X119022380Y-92257142D01*
X119070000Y-92161904D01*
X119117619Y-92114285D01*
X119212857Y-92066666D01*
X119403333Y-92019047D01*
X119641428Y-92019047D01*
X119831904Y-92066666D01*
X119927142Y-92114285D01*
X119974761Y-92161904D01*
X120022380Y-92257142D01*
X120022380Y-92352380D01*
X119974761Y-92447619D01*
X119927142Y-92495238D01*
X119831904Y-92542857D01*
X119641428Y-92590476D01*
X119403333Y-92590476D01*
X119212857Y-92542857D01*
X119117619Y-92495238D01*
X119070000Y-92447619D01*
X119022380Y-92352380D01*
X119355714Y-91590476D02*
X120022380Y-91590476D01*
X119450952Y-91590476D02*
X119403333Y-91542857D01*
X119355714Y-91447619D01*
X119355714Y-91304761D01*
X119403333Y-91209523D01*
X119498571Y-91161904D01*
X120022380Y-91161904D01*
X119498571Y-90352380D02*
X119498571Y-90685714D01*
X120022380Y-90685714D02*
X119022380Y-90685714D01*
X119022380Y-90209523D01*
D12*
X121142857Y-91966666D02*
X121161904Y-91985714D01*
X121180952Y-92042857D01*
X121180952Y-92080952D01*
X121161904Y-92138095D01*
X121123809Y-92176190D01*
X121085714Y-92195238D01*
X121009523Y-92214285D01*
X120952380Y-92214285D01*
X120876190Y-92195238D01*
X120838095Y-92176190D01*
X120800000Y-92138095D01*
X120780952Y-92080952D01*
X120780952Y-92042857D01*
X120800000Y-91985714D01*
X120819047Y-91966666D01*
X120780952Y-91604761D02*
X120780952Y-91795238D01*
X120971428Y-91814285D01*
X120952380Y-91795238D01*
X120933333Y-91757142D01*
X120933333Y-91661904D01*
X120952380Y-91623809D01*
X120971428Y-91604761D01*
X121009523Y-91585714D01*
X121104761Y-91585714D01*
X121142857Y-91604761D01*
X121161904Y-91623809D01*
X121180952Y-91661904D01*
X121180952Y-91757142D01*
X121161904Y-91795238D01*
X121142857Y-91814285D01*
%TO.C,C3*%
D11*
X149322380Y-95247976D02*
X149322380Y-94628928D01*
X149703333Y-94962261D01*
X149703333Y-94819404D01*
X149750952Y-94724166D01*
X149798571Y-94676547D01*
X149893809Y-94628928D01*
X150131904Y-94628928D01*
X150227142Y-94676547D01*
X150274761Y-94724166D01*
X150322380Y-94819404D01*
X150322380Y-95105119D01*
X150274761Y-95200357D01*
X150227142Y-95247976D01*
X149322380Y-94009880D02*
X149322380Y-93914642D01*
X149370000Y-93819404D01*
X149417619Y-93771785D01*
X149512857Y-93724166D01*
X149703333Y-93676547D01*
X149941428Y-93676547D01*
X150131904Y-93724166D01*
X150227142Y-93771785D01*
X150274761Y-93819404D01*
X150322380Y-93914642D01*
X150322380Y-94009880D01*
X150274761Y-94105119D01*
X150227142Y-94152738D01*
X150131904Y-94200357D01*
X149941428Y-94247976D01*
X149703333Y-94247976D01*
X149512857Y-94200357D01*
X149417619Y-94152738D01*
X149370000Y-94105119D01*
X149322380Y-94009880D01*
X149655714Y-93247976D02*
X150322380Y-93247976D01*
X149750952Y-93247976D02*
X149703333Y-93200357D01*
X149655714Y-93105119D01*
X149655714Y-92962261D01*
X149703333Y-92867023D01*
X149798571Y-92819404D01*
X150322380Y-92819404D01*
X149798571Y-92009880D02*
X149798571Y-92343214D01*
X150322380Y-92343214D02*
X149322380Y-92343214D01*
X149322380Y-91867023D01*
D12*
X151442857Y-93624166D02*
X151461904Y-93643214D01*
X151480952Y-93700357D01*
X151480952Y-93738452D01*
X151461904Y-93795595D01*
X151423809Y-93833690D01*
X151385714Y-93852738D01*
X151309523Y-93871785D01*
X151252380Y-93871785D01*
X151176190Y-93852738D01*
X151138095Y-93833690D01*
X151100000Y-93795595D01*
X151080952Y-93738452D01*
X151080952Y-93700357D01*
X151100000Y-93643214D01*
X151119047Y-93624166D01*
X151080952Y-93490833D02*
X151080952Y-93243214D01*
X151233333Y-93376547D01*
X151233333Y-93319404D01*
X151252380Y-93281309D01*
X151271428Y-93262261D01*
X151309523Y-93243214D01*
X151404761Y-93243214D01*
X151442857Y-93262261D01*
X151461904Y-93281309D01*
X151480952Y-93319404D01*
X151480952Y-93433690D01*
X151461904Y-93471785D01*
X151442857Y-93490833D01*
%TO.C,C7*%
D11*
X120142261Y-90182380D02*
X119570833Y-90182380D01*
X119856547Y-90182380D02*
X119856547Y-89182380D01*
X119761309Y-89325238D01*
X119666071Y-89420476D01*
X119570833Y-89468095D01*
X120999404Y-89515714D02*
X120999404Y-90182380D01*
X120570833Y-89515714D02*
X120570833Y-90039523D01*
X120618452Y-90134761D01*
X120713690Y-90182380D01*
X120856547Y-90182380D01*
X120951785Y-90134761D01*
X120999404Y-90087142D01*
X121808928Y-89658571D02*
X121475595Y-89658571D01*
X121475595Y-90182380D02*
X121475595Y-89182380D01*
X121951785Y-89182380D01*
D13*
X120654166Y-88228571D02*
X120630357Y-88252380D01*
X120558928Y-88276190D01*
X120511309Y-88276190D01*
X120439880Y-88252380D01*
X120392261Y-88204761D01*
X120368452Y-88157142D01*
X120344642Y-88061904D01*
X120344642Y-87990476D01*
X120368452Y-87895238D01*
X120392261Y-87847619D01*
X120439880Y-87800000D01*
X120511309Y-87776190D01*
X120558928Y-87776190D01*
X120630357Y-87800000D01*
X120654166Y-87823809D01*
X120820833Y-87776190D02*
X121154166Y-87776190D01*
X120939880Y-88276190D01*
%TO.C,J1*%
D11*
X234457142Y-106278571D02*
X234504761Y-106326190D01*
X234552380Y-106469047D01*
X234552380Y-106564285D01*
X234504761Y-106707142D01*
X234409523Y-106802380D01*
X234314285Y-106850000D01*
X234123809Y-106897619D01*
X233980952Y-106897619D01*
X233790476Y-106850000D01*
X233695238Y-106802380D01*
X233600000Y-106707142D01*
X233552380Y-106564285D01*
X233552380Y-106469047D01*
X233600000Y-106326190D01*
X233647619Y-106278571D01*
X234552380Y-105707142D02*
X234504761Y-105802380D01*
X234457142Y-105850000D01*
X234361904Y-105897619D01*
X234076190Y-105897619D01*
X233980952Y-105850000D01*
X233933333Y-105802380D01*
X233885714Y-105707142D01*
X233885714Y-105564285D01*
X233933333Y-105469047D01*
X233980952Y-105421428D01*
X234076190Y-105373809D01*
X234361904Y-105373809D01*
X234457142Y-105421428D01*
X234504761Y-105469047D01*
X234552380Y-105564285D01*
X234552380Y-105707142D01*
X233885714Y-104945238D02*
X234552380Y-104945238D01*
X233980952Y-104945238D02*
X233933333Y-104897619D01*
X233885714Y-104802380D01*
X233885714Y-104659523D01*
X233933333Y-104564285D01*
X234028571Y-104516666D01*
X234552380Y-104516666D01*
X233885714Y-104040476D02*
X234552380Y-104040476D01*
X233980952Y-104040476D02*
X233933333Y-103992857D01*
X233885714Y-103897619D01*
X233885714Y-103754761D01*
X233933333Y-103659523D01*
X234028571Y-103611904D01*
X234552380Y-103611904D01*
X234647619Y-103373809D02*
X234647619Y-102611904D01*
X233552380Y-102183333D02*
X233552380Y-102088095D01*
X233600000Y-101992857D01*
X233647619Y-101945238D01*
X233742857Y-101897619D01*
X233933333Y-101850000D01*
X234171428Y-101850000D01*
X234361904Y-101897619D01*
X234457142Y-101945238D01*
X234504761Y-101992857D01*
X234552380Y-102088095D01*
X234552380Y-102183333D01*
X234504761Y-102278571D01*
X234457142Y-102326190D01*
X234361904Y-102373809D01*
X234171428Y-102421428D01*
X233933333Y-102421428D01*
X233742857Y-102373809D01*
X233647619Y-102326190D01*
X233600000Y-102278571D01*
X233552380Y-102183333D01*
X233647619Y-101469047D02*
X233600000Y-101421428D01*
X233552380Y-101326190D01*
X233552380Y-101088095D01*
X233600000Y-100992857D01*
X233647619Y-100945238D01*
X233742857Y-100897619D01*
X233838095Y-100897619D01*
X233980952Y-100945238D01*
X234552380Y-101516666D01*
X234552380Y-100897619D01*
X234552380Y-100564285D02*
X233885714Y-100040476D01*
X233885714Y-100564285D02*
X234552380Y-100040476D01*
X233552380Y-99469047D02*
X233552380Y-99373809D01*
X233600000Y-99278571D01*
X233647619Y-99230952D01*
X233742857Y-99183333D01*
X233933333Y-99135714D01*
X234171428Y-99135714D01*
X234361904Y-99183333D01*
X234457142Y-99230952D01*
X234504761Y-99278571D01*
X234552380Y-99373809D01*
X234552380Y-99469047D01*
X234504761Y-99564285D01*
X234457142Y-99611904D01*
X234361904Y-99659523D01*
X234171428Y-99707142D01*
X233933333Y-99707142D01*
X233742857Y-99659523D01*
X233647619Y-99611904D01*
X233600000Y-99564285D01*
X233552380Y-99469047D01*
X233552380Y-98230952D02*
X233552380Y-98707142D01*
X234028571Y-98754761D01*
X233980952Y-98707142D01*
X233933333Y-98611904D01*
X233933333Y-98373809D01*
X233980952Y-98278571D01*
X234028571Y-98230952D01*
X234123809Y-98183333D01*
X234361904Y-98183333D01*
X234457142Y-98230952D01*
X234504761Y-98278571D01*
X234552380Y-98373809D01*
X234552380Y-98611904D01*
X234504761Y-98707142D01*
X234457142Y-98754761D01*
X234647619Y-97992857D02*
X234647619Y-97230952D01*
X233552380Y-97135714D02*
X233552380Y-96564285D01*
X234552380Y-96850000D02*
X233552380Y-96850000D01*
X234552380Y-96088095D02*
X234504761Y-96183333D01*
X234457142Y-96230952D01*
X234361904Y-96278571D01*
X234076190Y-96278571D01*
X233980952Y-96230952D01*
X233933333Y-96183333D01*
X233885714Y-96088095D01*
X233885714Y-95945238D01*
X233933333Y-95850000D01*
X233980952Y-95802380D01*
X234076190Y-95754761D01*
X234361904Y-95754761D01*
X234457142Y-95802380D01*
X234504761Y-95850000D01*
X234552380Y-95945238D01*
X234552380Y-96088095D01*
X233885714Y-95326190D02*
X234885714Y-95326190D01*
X233933333Y-95326190D02*
X233885714Y-95230952D01*
X233885714Y-95040476D01*
X233933333Y-94945238D01*
X233980952Y-94897619D01*
X234076190Y-94850000D01*
X234361904Y-94850000D01*
X234457142Y-94897619D01*
X234504761Y-94945238D01*
X234552380Y-95040476D01*
X234552380Y-95230952D01*
X234504761Y-95326190D01*
X234647619Y-94659523D02*
X234647619Y-93897619D01*
X234028571Y-93326190D02*
X234076190Y-93183333D01*
X234123809Y-93135714D01*
X234219047Y-93088095D01*
X234361904Y-93088095D01*
X234457142Y-93135714D01*
X234504761Y-93183333D01*
X234552380Y-93278571D01*
X234552380Y-93659523D01*
X233552380Y-93659523D01*
X233552380Y-93326190D01*
X233600000Y-93230952D01*
X233647619Y-93183333D01*
X233742857Y-93135714D01*
X233838095Y-93135714D01*
X233933333Y-93183333D01*
X233980952Y-93230952D01*
X234028571Y-93326190D01*
X234028571Y-93659523D01*
X234552380Y-92516666D02*
X234504761Y-92611904D01*
X234457142Y-92659523D01*
X234361904Y-92707142D01*
X234076190Y-92707142D01*
X233980952Y-92659523D01*
X233933333Y-92611904D01*
X233885714Y-92516666D01*
X233885714Y-92373809D01*
X233933333Y-92278571D01*
X233980952Y-92230952D01*
X234076190Y-92183333D01*
X234361904Y-92183333D01*
X234457142Y-92230952D01*
X234504761Y-92278571D01*
X234552380Y-92373809D01*
X234552380Y-92516666D01*
X233885714Y-91897619D02*
X233885714Y-91516666D01*
X233552380Y-91754761D02*
X234409523Y-91754761D01*
X234504761Y-91707142D01*
X234552380Y-91611904D01*
X234552380Y-91516666D01*
X233885714Y-91326190D02*
X233885714Y-90945238D01*
X233552380Y-91183333D02*
X234409523Y-91183333D01*
X234504761Y-91135714D01*
X234552380Y-91040476D01*
X234552380Y-90945238D01*
X234552380Y-90469047D02*
X234504761Y-90564285D01*
X234457142Y-90611904D01*
X234361904Y-90659523D01*
X234076190Y-90659523D01*
X233980952Y-90611904D01*
X233933333Y-90564285D01*
X233885714Y-90469047D01*
X233885714Y-90326190D01*
X233933333Y-90230952D01*
X233980952Y-90183333D01*
X234076190Y-90135714D01*
X234361904Y-90135714D01*
X234457142Y-90183333D01*
X234504761Y-90230952D01*
X234552380Y-90326190D01*
X234552380Y-90469047D01*
X234552380Y-89707142D02*
X233885714Y-89707142D01*
X233980952Y-89707142D02*
X233933333Y-89659523D01*
X233885714Y-89564285D01*
X233885714Y-89421428D01*
X233933333Y-89326190D01*
X234028571Y-89278571D01*
X234552380Y-89278571D01*
X234028571Y-89278571D02*
X233933333Y-89230952D01*
X233885714Y-89135714D01*
X233885714Y-88992857D01*
X233933333Y-88897619D01*
X234028571Y-88850000D01*
X234552380Y-88850000D01*
X247472380Y-98183333D02*
X248186666Y-98183333D01*
X248329523Y-98230952D01*
X248424761Y-98326190D01*
X248472380Y-98469047D01*
X248472380Y-98564285D01*
X248472380Y-97183333D02*
X248472380Y-97754761D01*
X248472380Y-97469047D02*
X247472380Y-97469047D01*
X247615238Y-97564285D01*
X247710476Y-97659523D01*
X247758095Y-97754761D01*
%TO.C,R23*%
X157139880Y-91172380D02*
X157235119Y-91172380D01*
X157330357Y-91220000D01*
X157377976Y-91267619D01*
X157425595Y-91362857D01*
X157473214Y-91553333D01*
X157473214Y-91791428D01*
X157425595Y-91981904D01*
X157377976Y-92077142D01*
X157330357Y-92124761D01*
X157235119Y-92172380D01*
X157139880Y-92172380D01*
X157044642Y-92124761D01*
X156997023Y-92077142D01*
X156949404Y-91981904D01*
X156901785Y-91791428D01*
X156901785Y-91553333D01*
X156949404Y-91362857D01*
X156997023Y-91267619D01*
X157044642Y-91220000D01*
X157139880Y-91172380D01*
D12*
X156930357Y-93330952D02*
X156797023Y-93140476D01*
X156701785Y-93330952D02*
X156701785Y-92930952D01*
X156854166Y-92930952D01*
X156892261Y-92950000D01*
X156911309Y-92969047D01*
X156930357Y-93007142D01*
X156930357Y-93064285D01*
X156911309Y-93102380D01*
X156892261Y-93121428D01*
X156854166Y-93140476D01*
X156701785Y-93140476D01*
X157082738Y-92969047D02*
X157101785Y-92950000D01*
X157139880Y-92930952D01*
X157235119Y-92930952D01*
X157273214Y-92950000D01*
X157292261Y-92969047D01*
X157311309Y-93007142D01*
X157311309Y-93045238D01*
X157292261Y-93102380D01*
X157063690Y-93330952D01*
X157311309Y-93330952D01*
X157444642Y-92930952D02*
X157692261Y-92930952D01*
X157558928Y-93083333D01*
X157616071Y-93083333D01*
X157654166Y-93102380D01*
X157673214Y-93121428D01*
X157692261Y-93159523D01*
X157692261Y-93254761D01*
X157673214Y-93292857D01*
X157654166Y-93311904D01*
X157616071Y-93330952D01*
X157501785Y-93330952D01*
X157463690Y-93311904D01*
X157444642Y-93292857D01*
%TO.C,U1*%
D11*
X159007142Y-100979523D02*
X159054761Y-101027142D01*
X159102380Y-101170000D01*
X159102380Y-101265238D01*
X159054761Y-101408095D01*
X158959523Y-101503333D01*
X158864285Y-101550952D01*
X158673809Y-101598571D01*
X158530952Y-101598571D01*
X158340476Y-101550952D01*
X158245238Y-101503333D01*
X158150000Y-101408095D01*
X158102380Y-101265238D01*
X158102380Y-101170000D01*
X158150000Y-101027142D01*
X158197619Y-100979523D01*
X159102380Y-100550952D02*
X158102380Y-100550952D01*
X158816666Y-100217619D01*
X158102380Y-99884285D01*
X159102380Y-99884285D01*
X158102380Y-99217619D02*
X158102380Y-99027142D01*
X158150000Y-98931904D01*
X158245238Y-98836666D01*
X158435714Y-98789047D01*
X158769047Y-98789047D01*
X158959523Y-98836666D01*
X159054761Y-98931904D01*
X159102380Y-99027142D01*
X159102380Y-99217619D01*
X159054761Y-99312857D01*
X158959523Y-99408095D01*
X158769047Y-99455714D01*
X158435714Y-99455714D01*
X158245238Y-99408095D01*
X158150000Y-99312857D01*
X158102380Y-99217619D01*
X159102380Y-98360476D02*
X158102380Y-98360476D01*
X158102380Y-98122380D01*
X158150000Y-97979523D01*
X158245238Y-97884285D01*
X158340476Y-97836666D01*
X158530952Y-97789047D01*
X158673809Y-97789047D01*
X158864285Y-97836666D01*
X158959523Y-97884285D01*
X159054761Y-97979523D01*
X159102380Y-98122380D01*
X159102380Y-98360476D01*
X158721428Y-97360476D02*
X158721428Y-96598571D01*
X158816666Y-96170000D02*
X158816666Y-95693809D01*
X159102380Y-96265238D02*
X158102380Y-95931904D01*
X159102380Y-95598571D01*
X158102380Y-95360476D02*
X158102380Y-94693809D01*
X159102380Y-95122380D01*
X189642380Y-98931904D02*
X190451904Y-98931904D01*
X190547142Y-98884285D01*
X190594761Y-98836666D01*
X190642380Y-98741428D01*
X190642380Y-98550952D01*
X190594761Y-98455714D01*
X190547142Y-98408095D01*
X190451904Y-98360476D01*
X189642380Y-98360476D01*
X190642380Y-97360476D02*
X190642380Y-97931904D01*
X190642380Y-97646190D02*
X189642380Y-97646190D01*
X189785238Y-97741428D01*
X189880476Y-97836666D01*
X189928095Y-97931904D01*
%TO.C,TH3*%
X106602380Y-113390476D02*
X106602380Y-113961904D01*
X106602380Y-113676190D02*
X105602380Y-113676190D01*
X105745238Y-113771428D01*
X105840476Y-113866666D01*
X105888095Y-113961904D01*
X105602380Y-112771428D02*
X105602380Y-112676190D01*
X105650000Y-112580952D01*
X105697619Y-112533333D01*
X105792857Y-112485714D01*
X105983333Y-112438095D01*
X106221428Y-112438095D01*
X106411904Y-112485714D01*
X106507142Y-112533333D01*
X106554761Y-112580952D01*
X106602380Y-112676190D01*
X106602380Y-112771428D01*
X106554761Y-112866666D01*
X106507142Y-112914285D01*
X106411904Y-112961904D01*
X106221428Y-113009523D01*
X105983333Y-113009523D01*
X105792857Y-112961904D01*
X105697619Y-112914285D01*
X105650000Y-112866666D01*
X105602380Y-112771428D01*
X106602380Y-112009523D02*
X105602380Y-112009523D01*
X106221428Y-111914285D02*
X106602380Y-111628571D01*
X105935714Y-111628571D02*
X106316666Y-112009523D01*
X105602380Y-110580952D02*
X105602380Y-110009523D01*
X106602380Y-110295238D02*
X105602380Y-110295238D01*
X106602380Y-109676190D02*
X105602380Y-109676190D01*
X106602380Y-109247619D02*
X106078571Y-109247619D01*
X105983333Y-109295238D01*
X105935714Y-109390476D01*
X105935714Y-109533333D01*
X105983333Y-109628571D01*
X106030952Y-109676190D01*
X106554761Y-108390476D02*
X106602380Y-108485714D01*
X106602380Y-108676190D01*
X106554761Y-108771428D01*
X106459523Y-108819047D01*
X106078571Y-108819047D01*
X105983333Y-108771428D01*
X105935714Y-108676190D01*
X105935714Y-108485714D01*
X105983333Y-108390476D01*
X106078571Y-108342857D01*
X106173809Y-108342857D01*
X106269047Y-108819047D01*
X106602380Y-107914285D02*
X105935714Y-107914285D01*
X106126190Y-107914285D02*
X106030952Y-107866666D01*
X105983333Y-107819047D01*
X105935714Y-107723809D01*
X105935714Y-107628571D01*
X106602380Y-107295238D02*
X105935714Y-107295238D01*
X106030952Y-107295238D02*
X105983333Y-107247619D01*
X105935714Y-107152380D01*
X105935714Y-107009523D01*
X105983333Y-106914285D01*
X106078571Y-106866666D01*
X106602380Y-106866666D01*
X106078571Y-106866666D02*
X105983333Y-106819047D01*
X105935714Y-106723809D01*
X105935714Y-106580952D01*
X105983333Y-106485714D01*
X106078571Y-106438095D01*
X106602380Y-106438095D01*
X106602380Y-105961904D02*
X105935714Y-105961904D01*
X105602380Y-105961904D02*
X105650000Y-106009523D01*
X105697619Y-105961904D01*
X105650000Y-105914285D01*
X105602380Y-105961904D01*
X105697619Y-105961904D01*
X106554761Y-105533333D02*
X106602380Y-105438095D01*
X106602380Y-105247619D01*
X106554761Y-105152380D01*
X106459523Y-105104761D01*
X106411904Y-105104761D01*
X106316666Y-105152380D01*
X106269047Y-105247619D01*
X106269047Y-105390476D01*
X106221428Y-105485714D01*
X106126190Y-105533333D01*
X106078571Y-105533333D01*
X105983333Y-105485714D01*
X105935714Y-105390476D01*
X105935714Y-105247619D01*
X105983333Y-105152380D01*
X105935714Y-104819047D02*
X105935714Y-104438095D01*
X105602380Y-104676190D02*
X106459523Y-104676190D01*
X106554761Y-104628571D01*
X106602380Y-104533333D01*
X106602380Y-104438095D01*
X106602380Y-103961904D02*
X106554761Y-104057142D01*
X106507142Y-104104761D01*
X106411904Y-104152380D01*
X106126190Y-104152380D01*
X106030952Y-104104761D01*
X105983333Y-104057142D01*
X105935714Y-103961904D01*
X105935714Y-103819047D01*
X105983333Y-103723809D01*
X106030952Y-103676190D01*
X106126190Y-103628571D01*
X106411904Y-103628571D01*
X106507142Y-103676190D01*
X106554761Y-103723809D01*
X106602380Y-103819047D01*
X106602380Y-103961904D01*
X106602380Y-103200000D02*
X105935714Y-103200000D01*
X106126190Y-103200000D02*
X106030952Y-103152380D01*
X105983333Y-103104761D01*
X105935714Y-103009523D01*
X105935714Y-102914285D01*
X106697619Y-102819047D02*
X106697619Y-102057142D01*
X106602380Y-101819047D02*
X105602380Y-101819047D01*
X106602380Y-101247619D01*
X105602380Y-101247619D01*
X105602380Y-100914285D02*
X105602380Y-100342857D01*
X106602380Y-100628571D02*
X105602380Y-100628571D01*
X106507142Y-99438095D02*
X106554761Y-99485714D01*
X106602380Y-99628571D01*
X106602380Y-99723809D01*
X106554761Y-99866666D01*
X106459523Y-99961904D01*
X106364285Y-100009523D01*
X106173809Y-100057142D01*
X106030952Y-100057142D01*
X105840476Y-100009523D01*
X105745238Y-99961904D01*
X105650000Y-99866666D01*
X105602380Y-99723809D01*
X105602380Y-99628571D01*
X105650000Y-99485714D01*
X105697619Y-99438095D01*
D13*
X107526190Y-107342857D02*
X107526190Y-107057142D01*
X108026190Y-107200000D02*
X107526190Y-107200000D01*
X108026190Y-106890476D02*
X107526190Y-106890476D01*
X107764285Y-106890476D02*
X107764285Y-106604761D01*
X108026190Y-106604761D02*
X107526190Y-106604761D01*
X107526190Y-106414285D02*
X107526190Y-106104761D01*
X107716666Y-106271428D01*
X107716666Y-106200000D01*
X107740476Y-106152380D01*
X107764285Y-106128571D01*
X107811904Y-106104761D01*
X107930952Y-106104761D01*
X107978571Y-106128571D01*
X108002380Y-106152380D01*
X108026190Y-106200000D01*
X108026190Y-106342857D01*
X108002380Y-106390476D01*
X107978571Y-106414285D01*
%TO.C,TH2*%
D11*
X139102380Y-111340476D02*
X139102380Y-111911904D01*
X139102380Y-111626190D02*
X138102380Y-111626190D01*
X138245238Y-111721428D01*
X138340476Y-111816666D01*
X138388095Y-111911904D01*
X138102380Y-110721428D02*
X138102380Y-110626190D01*
X138150000Y-110530952D01*
X138197619Y-110483333D01*
X138292857Y-110435714D01*
X138483333Y-110388095D01*
X138721428Y-110388095D01*
X138911904Y-110435714D01*
X139007142Y-110483333D01*
X139054761Y-110530952D01*
X139102380Y-110626190D01*
X139102380Y-110721428D01*
X139054761Y-110816666D01*
X139007142Y-110864285D01*
X138911904Y-110911904D01*
X138721428Y-110959523D01*
X138483333Y-110959523D01*
X138292857Y-110911904D01*
X138197619Y-110864285D01*
X138150000Y-110816666D01*
X138102380Y-110721428D01*
X139102380Y-109959523D02*
X138102380Y-109959523D01*
X138721428Y-109864285D02*
X139102380Y-109578571D01*
X138435714Y-109578571D02*
X138816666Y-109959523D01*
X138102380Y-108530952D02*
X138102380Y-107959523D01*
X139102380Y-108245238D02*
X138102380Y-108245238D01*
X139102380Y-107626190D02*
X138102380Y-107626190D01*
X139102380Y-107197619D02*
X138578571Y-107197619D01*
X138483333Y-107245238D01*
X138435714Y-107340476D01*
X138435714Y-107483333D01*
X138483333Y-107578571D01*
X138530952Y-107626190D01*
X139054761Y-106340476D02*
X139102380Y-106435714D01*
X139102380Y-106626190D01*
X139054761Y-106721428D01*
X138959523Y-106769047D01*
X138578571Y-106769047D01*
X138483333Y-106721428D01*
X138435714Y-106626190D01*
X138435714Y-106435714D01*
X138483333Y-106340476D01*
X138578571Y-106292857D01*
X138673809Y-106292857D01*
X138769047Y-106769047D01*
X139102380Y-105864285D02*
X138435714Y-105864285D01*
X138626190Y-105864285D02*
X138530952Y-105816666D01*
X138483333Y-105769047D01*
X138435714Y-105673809D01*
X138435714Y-105578571D01*
X139102380Y-105245238D02*
X138435714Y-105245238D01*
X138530952Y-105245238D02*
X138483333Y-105197619D01*
X138435714Y-105102380D01*
X138435714Y-104959523D01*
X138483333Y-104864285D01*
X138578571Y-104816666D01*
X139102380Y-104816666D01*
X138578571Y-104816666D02*
X138483333Y-104769047D01*
X138435714Y-104673809D01*
X138435714Y-104530952D01*
X138483333Y-104435714D01*
X138578571Y-104388095D01*
X139102380Y-104388095D01*
X139102380Y-103911904D02*
X138435714Y-103911904D01*
X138102380Y-103911904D02*
X138150000Y-103959523D01*
X138197619Y-103911904D01*
X138150000Y-103864285D01*
X138102380Y-103911904D01*
X138197619Y-103911904D01*
X139054761Y-103483333D02*
X139102380Y-103388095D01*
X139102380Y-103197619D01*
X139054761Y-103102380D01*
X138959523Y-103054761D01*
X138911904Y-103054761D01*
X138816666Y-103102380D01*
X138769047Y-103197619D01*
X138769047Y-103340476D01*
X138721428Y-103435714D01*
X138626190Y-103483333D01*
X138578571Y-103483333D01*
X138483333Y-103435714D01*
X138435714Y-103340476D01*
X138435714Y-103197619D01*
X138483333Y-103102380D01*
X138435714Y-102769047D02*
X138435714Y-102388095D01*
X138102380Y-102626190D02*
X138959523Y-102626190D01*
X139054761Y-102578571D01*
X139102380Y-102483333D01*
X139102380Y-102388095D01*
X139102380Y-101911904D02*
X139054761Y-102007142D01*
X139007142Y-102054761D01*
X138911904Y-102102380D01*
X138626190Y-102102380D01*
X138530952Y-102054761D01*
X138483333Y-102007142D01*
X138435714Y-101911904D01*
X138435714Y-101769047D01*
X138483333Y-101673809D01*
X138530952Y-101626190D01*
X138626190Y-101578571D01*
X138911904Y-101578571D01*
X139007142Y-101626190D01*
X139054761Y-101673809D01*
X139102380Y-101769047D01*
X139102380Y-101911904D01*
X139102380Y-101150000D02*
X138435714Y-101150000D01*
X138626190Y-101150000D02*
X138530952Y-101102380D01*
X138483333Y-101054761D01*
X138435714Y-100959523D01*
X138435714Y-100864285D01*
X139197619Y-100769047D02*
X139197619Y-100007142D01*
X139102380Y-99769047D02*
X138102380Y-99769047D01*
X139102380Y-99197619D01*
X138102380Y-99197619D01*
X138102380Y-98864285D02*
X138102380Y-98292857D01*
X139102380Y-98578571D02*
X138102380Y-98578571D01*
X139007142Y-97388095D02*
X139054761Y-97435714D01*
X139102380Y-97578571D01*
X139102380Y-97673809D01*
X139054761Y-97816666D01*
X138959523Y-97911904D01*
X138864285Y-97959523D01*
X138673809Y-98007142D01*
X138530952Y-98007142D01*
X138340476Y-97959523D01*
X138245238Y-97911904D01*
X138150000Y-97816666D01*
X138102380Y-97673809D01*
X138102380Y-97578571D01*
X138150000Y-97435714D01*
X138197619Y-97388095D01*
D13*
X140026190Y-105292857D02*
X140026190Y-105007142D01*
X140526190Y-105150000D02*
X140026190Y-105150000D01*
X140526190Y-104840476D02*
X140026190Y-104840476D01*
X140264285Y-104840476D02*
X140264285Y-104554761D01*
X140526190Y-104554761D02*
X140026190Y-104554761D01*
X140073809Y-104340476D02*
X140050000Y-104316666D01*
X140026190Y-104269047D01*
X140026190Y-104150000D01*
X140050000Y-104102380D01*
X140073809Y-104078571D01*
X140121428Y-104054761D01*
X140169047Y-104054761D01*
X140240476Y-104078571D01*
X140526190Y-104364285D01*
X140526190Y-104054761D01*
%TO.C,R21*%
D11*
X122327380Y-95311904D02*
X122327380Y-95788095D01*
X122803571Y-95835714D01*
X122755952Y-95788095D01*
X122708333Y-95692857D01*
X122708333Y-95454761D01*
X122755952Y-95359523D01*
X122803571Y-95311904D01*
X122898809Y-95264285D01*
X123136904Y-95264285D01*
X123232142Y-95311904D01*
X123279761Y-95359523D01*
X123327380Y-95454761D01*
X123327380Y-95692857D01*
X123279761Y-95788095D01*
X123232142Y-95835714D01*
X129977380Y-96192857D02*
X129501190Y-96526190D01*
X129977380Y-96764285D02*
X128977380Y-96764285D01*
X128977380Y-96383333D01*
X129025000Y-96288095D01*
X129072619Y-96240476D01*
X129167857Y-96192857D01*
X129310714Y-96192857D01*
X129405952Y-96240476D01*
X129453571Y-96288095D01*
X129501190Y-96383333D01*
X129501190Y-96764285D01*
X129072619Y-95811904D02*
X129025000Y-95764285D01*
X128977380Y-95669047D01*
X128977380Y-95430952D01*
X129025000Y-95335714D01*
X129072619Y-95288095D01*
X129167857Y-95240476D01*
X129263095Y-95240476D01*
X129405952Y-95288095D01*
X129977380Y-95859523D01*
X129977380Y-95240476D01*
X129977380Y-94288095D02*
X129977380Y-94859523D01*
X129977380Y-94573809D02*
X128977380Y-94573809D01*
X129120238Y-94669047D01*
X129215476Y-94764285D01*
X129263095Y-94859523D01*
%TO.C,R20*%
X118266071Y-97132380D02*
X117694642Y-97132380D01*
X117980357Y-97132380D02*
X117980357Y-96132380D01*
X117885119Y-96275238D01*
X117789880Y-96370476D01*
X117694642Y-96418095D01*
X118885119Y-96132380D02*
X118980357Y-96132380D01*
X119075595Y-96180000D01*
X119123214Y-96227619D01*
X119170833Y-96322857D01*
X119218452Y-96513333D01*
X119218452Y-96751428D01*
X119170833Y-96941904D01*
X119123214Y-97037142D01*
X119075595Y-97084761D01*
X118980357Y-97132380D01*
X118885119Y-97132380D01*
X118789880Y-97084761D01*
X118742261Y-97037142D01*
X118694642Y-96941904D01*
X118647023Y-96751428D01*
X118647023Y-96513333D01*
X118694642Y-96322857D01*
X118742261Y-96227619D01*
X118789880Y-96180000D01*
X118885119Y-96132380D01*
X119837500Y-96132380D02*
X119932738Y-96132380D01*
X120027976Y-96180000D01*
X120075595Y-96227619D01*
X120123214Y-96322857D01*
X120170833Y-96513333D01*
X120170833Y-96751428D01*
X120123214Y-96941904D01*
X120075595Y-97037142D01*
X120027976Y-97084761D01*
X119932738Y-97132380D01*
X119837500Y-97132380D01*
X119742261Y-97084761D01*
X119694642Y-97037142D01*
X119647023Y-96941904D01*
X119599404Y-96751428D01*
X119599404Y-96513333D01*
X119647023Y-96322857D01*
X119694642Y-96227619D01*
X119742261Y-96180000D01*
X119837500Y-96132380D01*
X120599404Y-97132380D02*
X120599404Y-96132380D01*
X120694642Y-96751428D02*
X120980357Y-97132380D01*
X120980357Y-96465714D02*
X120599404Y-96846666D01*
D12*
X119080357Y-95430952D02*
X118947023Y-95240476D01*
X118851785Y-95430952D02*
X118851785Y-95030952D01*
X119004166Y-95030952D01*
X119042261Y-95050000D01*
X119061309Y-95069047D01*
X119080357Y-95107142D01*
X119080357Y-95164285D01*
X119061309Y-95202380D01*
X119042261Y-95221428D01*
X119004166Y-95240476D01*
X118851785Y-95240476D01*
X119232738Y-95069047D02*
X119251785Y-95050000D01*
X119289880Y-95030952D01*
X119385119Y-95030952D01*
X119423214Y-95050000D01*
X119442261Y-95069047D01*
X119461309Y-95107142D01*
X119461309Y-95145238D01*
X119442261Y-95202380D01*
X119213690Y-95430952D01*
X119461309Y-95430952D01*
X119708928Y-95030952D02*
X119747023Y-95030952D01*
X119785119Y-95050000D01*
X119804166Y-95069047D01*
X119823214Y-95107142D01*
X119842261Y-95183333D01*
X119842261Y-95278571D01*
X119823214Y-95354761D01*
X119804166Y-95392857D01*
X119785119Y-95411904D01*
X119747023Y-95430952D01*
X119708928Y-95430952D01*
X119670833Y-95411904D01*
X119651785Y-95392857D01*
X119632738Y-95354761D01*
X119613690Y-95278571D01*
X119613690Y-95183333D01*
X119632738Y-95107142D01*
X119651785Y-95069047D01*
X119670833Y-95050000D01*
X119708928Y-95030952D01*
%TO.C,R19*%
D11*
X108680952Y-95422380D02*
X108109523Y-95422380D01*
X108395238Y-95422380D02*
X108395238Y-94422380D01*
X108300000Y-94565238D01*
X108204761Y-94660476D01*
X108109523Y-94708095D01*
X109109523Y-95422380D02*
X109109523Y-94422380D01*
X109204761Y-95041428D02*
X109490476Y-95422380D01*
X109490476Y-94755714D02*
X109109523Y-95136666D01*
D12*
X108542857Y-96580952D02*
X108409523Y-96390476D01*
X108314285Y-96580952D02*
X108314285Y-96180952D01*
X108466666Y-96180952D01*
X108504761Y-96200000D01*
X108523809Y-96219047D01*
X108542857Y-96257142D01*
X108542857Y-96314285D01*
X108523809Y-96352380D01*
X108504761Y-96371428D01*
X108466666Y-96390476D01*
X108314285Y-96390476D01*
X108923809Y-96580952D02*
X108695238Y-96580952D01*
X108809523Y-96580952D02*
X108809523Y-96180952D01*
X108771428Y-96238095D01*
X108733333Y-96276190D01*
X108695238Y-96295238D01*
X109114285Y-96580952D02*
X109190476Y-96580952D01*
X109228571Y-96561904D01*
X109247619Y-96542857D01*
X109285714Y-96485714D01*
X109304761Y-96409523D01*
X109304761Y-96257142D01*
X109285714Y-96219047D01*
X109266666Y-96200000D01*
X109228571Y-96180952D01*
X109152380Y-96180952D01*
X109114285Y-96200000D01*
X109095238Y-96219047D01*
X109076190Y-96257142D01*
X109076190Y-96352380D01*
X109095238Y-96390476D01*
X109114285Y-96409523D01*
X109152380Y-96428571D01*
X109228571Y-96428571D01*
X109266666Y-96409523D01*
X109285714Y-96390476D01*
X109304761Y-96352380D01*
%TO.C,R18*%
D11*
X104472380Y-96056547D02*
X104472380Y-96627976D01*
X104472380Y-96342261D02*
X103472380Y-96342261D01*
X103615238Y-96437500D01*
X103710476Y-96532738D01*
X103758095Y-96627976D01*
X104472380Y-95627976D02*
X103472380Y-95627976D01*
X104091428Y-95532738D02*
X104472380Y-95247023D01*
X103805714Y-95247023D02*
X104186666Y-95627976D01*
D12*
X105630952Y-96194642D02*
X105440476Y-96327976D01*
X105630952Y-96423214D02*
X105230952Y-96423214D01*
X105230952Y-96270833D01*
X105250000Y-96232738D01*
X105269047Y-96213690D01*
X105307142Y-96194642D01*
X105364285Y-96194642D01*
X105402380Y-96213690D01*
X105421428Y-96232738D01*
X105440476Y-96270833D01*
X105440476Y-96423214D01*
X105630952Y-95813690D02*
X105630952Y-96042261D01*
X105630952Y-95927976D02*
X105230952Y-95927976D01*
X105288095Y-95966071D01*
X105326190Y-96004166D01*
X105345238Y-96042261D01*
X105402380Y-95585119D02*
X105383333Y-95623214D01*
X105364285Y-95642261D01*
X105326190Y-95661309D01*
X105307142Y-95661309D01*
X105269047Y-95642261D01*
X105250000Y-95623214D01*
X105230952Y-95585119D01*
X105230952Y-95508928D01*
X105250000Y-95470833D01*
X105269047Y-95451785D01*
X105307142Y-95432738D01*
X105326190Y-95432738D01*
X105364285Y-95451785D01*
X105383333Y-95470833D01*
X105402380Y-95508928D01*
X105402380Y-95585119D01*
X105421428Y-95623214D01*
X105440476Y-95642261D01*
X105478571Y-95661309D01*
X105554761Y-95661309D01*
X105592857Y-95642261D01*
X105611904Y-95623214D01*
X105630952Y-95585119D01*
X105630952Y-95508928D01*
X105611904Y-95470833D01*
X105592857Y-95451785D01*
X105554761Y-95432738D01*
X105478571Y-95432738D01*
X105440476Y-95451785D01*
X105421428Y-95470833D01*
X105402380Y-95508928D01*
%TO.C,R17*%
D11*
X105822380Y-103316071D02*
X105822380Y-103506547D01*
X105870000Y-103601785D01*
X105917619Y-103649404D01*
X106060476Y-103744642D01*
X106250952Y-103792261D01*
X106631904Y-103792261D01*
X106727142Y-103744642D01*
X106774761Y-103697023D01*
X106822380Y-103601785D01*
X106822380Y-103411309D01*
X106774761Y-103316071D01*
X106727142Y-103268452D01*
X106631904Y-103220833D01*
X106393809Y-103220833D01*
X106298571Y-103268452D01*
X106250952Y-103316071D01*
X106203333Y-103411309D01*
X106203333Y-103601785D01*
X106250952Y-103697023D01*
X106298571Y-103744642D01*
X106393809Y-103792261D01*
X106727142Y-102792261D02*
X106774761Y-102744642D01*
X106822380Y-102792261D01*
X106774761Y-102839880D01*
X106727142Y-102792261D01*
X106822380Y-102792261D01*
X105822380Y-101887500D02*
X105822380Y-102077976D01*
X105870000Y-102173214D01*
X105917619Y-102220833D01*
X106060476Y-102316071D01*
X106250952Y-102363690D01*
X106631904Y-102363690D01*
X106727142Y-102316071D01*
X106774761Y-102268452D01*
X106822380Y-102173214D01*
X106822380Y-101982738D01*
X106774761Y-101887500D01*
X106727142Y-101839880D01*
X106631904Y-101792261D01*
X106393809Y-101792261D01*
X106298571Y-101839880D01*
X106250952Y-101887500D01*
X106203333Y-101982738D01*
X106203333Y-102173214D01*
X106250952Y-102268452D01*
X106298571Y-102316071D01*
X106393809Y-102363690D01*
X106822380Y-101363690D02*
X105822380Y-101363690D01*
X106441428Y-101268452D02*
X106822380Y-100982738D01*
X106155714Y-100982738D02*
X106536666Y-101363690D01*
D12*
X107980952Y-102644642D02*
X107790476Y-102777976D01*
X107980952Y-102873214D02*
X107580952Y-102873214D01*
X107580952Y-102720833D01*
X107600000Y-102682738D01*
X107619047Y-102663690D01*
X107657142Y-102644642D01*
X107714285Y-102644642D01*
X107752380Y-102663690D01*
X107771428Y-102682738D01*
X107790476Y-102720833D01*
X107790476Y-102873214D01*
X107980952Y-102263690D02*
X107980952Y-102492261D01*
X107980952Y-102377976D02*
X107580952Y-102377976D01*
X107638095Y-102416071D01*
X107676190Y-102454166D01*
X107695238Y-102492261D01*
X107580952Y-102130357D02*
X107580952Y-101863690D01*
X107980952Y-102035119D01*
%TO.C,R16*%
D11*
X110955714Y-100641071D02*
X111622380Y-100641071D01*
X110574761Y-100879166D02*
X111289047Y-101117261D01*
X111289047Y-100498214D01*
X111527142Y-100117261D02*
X111574761Y-100069642D01*
X111622380Y-100117261D01*
X111574761Y-100164880D01*
X111527142Y-100117261D01*
X111622380Y-100117261D01*
X110622380Y-99736309D02*
X110622380Y-99069642D01*
X111622380Y-99498214D01*
X111622380Y-98688690D02*
X110622380Y-98688690D01*
X111241428Y-98593452D02*
X111622380Y-98307738D01*
X110955714Y-98307738D02*
X111336666Y-98688690D01*
D12*
X112780952Y-99969642D02*
X112590476Y-100102976D01*
X112780952Y-100198214D02*
X112380952Y-100198214D01*
X112380952Y-100045833D01*
X112400000Y-100007738D01*
X112419047Y-99988690D01*
X112457142Y-99969642D01*
X112514285Y-99969642D01*
X112552380Y-99988690D01*
X112571428Y-100007738D01*
X112590476Y-100045833D01*
X112590476Y-100198214D01*
X112780952Y-99588690D02*
X112780952Y-99817261D01*
X112780952Y-99702976D02*
X112380952Y-99702976D01*
X112438095Y-99741071D01*
X112476190Y-99779166D01*
X112495238Y-99817261D01*
X112380952Y-99245833D02*
X112380952Y-99322023D01*
X112400000Y-99360119D01*
X112419047Y-99379166D01*
X112476190Y-99417261D01*
X112552380Y-99436309D01*
X112704761Y-99436309D01*
X112742857Y-99417261D01*
X112761904Y-99398214D01*
X112780952Y-99360119D01*
X112780952Y-99283928D01*
X112761904Y-99245833D01*
X112742857Y-99226785D01*
X112704761Y-99207738D01*
X112609523Y-99207738D01*
X112571428Y-99226785D01*
X112552380Y-99245833D01*
X112533333Y-99283928D01*
X112533333Y-99360119D01*
X112552380Y-99398214D01*
X112571428Y-99417261D01*
X112609523Y-99436309D01*
%TO.C,R14*%
D11*
X113148214Y-110032380D02*
X112576785Y-110032380D01*
X112862500Y-110032380D02*
X112862500Y-109032380D01*
X112767261Y-109175238D01*
X112672023Y-109270476D01*
X112576785Y-109318095D01*
X113576785Y-110032380D02*
X113576785Y-109032380D01*
X114148214Y-110032380D02*
X113719642Y-109460952D01*
X114148214Y-109032380D02*
X113576785Y-109603809D01*
D12*
X113105357Y-108330952D02*
X112972023Y-108140476D01*
X112876785Y-108330952D02*
X112876785Y-107930952D01*
X113029166Y-107930952D01*
X113067261Y-107950000D01*
X113086309Y-107969047D01*
X113105357Y-108007142D01*
X113105357Y-108064285D01*
X113086309Y-108102380D01*
X113067261Y-108121428D01*
X113029166Y-108140476D01*
X112876785Y-108140476D01*
X113486309Y-108330952D02*
X113257738Y-108330952D01*
X113372023Y-108330952D02*
X113372023Y-107930952D01*
X113333928Y-107988095D01*
X113295833Y-108026190D01*
X113257738Y-108045238D01*
X113829166Y-108064285D02*
X113829166Y-108330952D01*
X113733928Y-107911904D02*
X113638690Y-108197619D01*
X113886309Y-108197619D01*
%TO.C,R12*%
D11*
X117855714Y-104216071D02*
X118522380Y-104216071D01*
X117474761Y-104454166D02*
X118189047Y-104692261D01*
X118189047Y-104073214D01*
X118427142Y-103692261D02*
X118474761Y-103644642D01*
X118522380Y-103692261D01*
X118474761Y-103739880D01*
X118427142Y-103692261D01*
X118522380Y-103692261D01*
X117522380Y-103311309D02*
X117522380Y-102644642D01*
X118522380Y-103073214D01*
X118522380Y-102263690D02*
X117522380Y-102263690D01*
X118141428Y-102168452D02*
X118522380Y-101882738D01*
X117855714Y-101882738D02*
X118236666Y-102263690D01*
D12*
X119680952Y-103544642D02*
X119490476Y-103677976D01*
X119680952Y-103773214D02*
X119280952Y-103773214D01*
X119280952Y-103620833D01*
X119300000Y-103582738D01*
X119319047Y-103563690D01*
X119357142Y-103544642D01*
X119414285Y-103544642D01*
X119452380Y-103563690D01*
X119471428Y-103582738D01*
X119490476Y-103620833D01*
X119490476Y-103773214D01*
X119680952Y-103163690D02*
X119680952Y-103392261D01*
X119680952Y-103277976D02*
X119280952Y-103277976D01*
X119338095Y-103316071D01*
X119376190Y-103354166D01*
X119395238Y-103392261D01*
X119319047Y-103011309D02*
X119300000Y-102992261D01*
X119280952Y-102954166D01*
X119280952Y-102858928D01*
X119300000Y-102820833D01*
X119319047Y-102801785D01*
X119357142Y-102782738D01*
X119395238Y-102782738D01*
X119452380Y-102801785D01*
X119680952Y-103030357D01*
X119680952Y-102782738D01*
%TO.C,R11*%
D11*
X117282380Y-100282738D02*
X117282380Y-100854166D01*
X117282380Y-100568452D02*
X116282380Y-100568452D01*
X116425238Y-100663690D01*
X116520476Y-100758928D01*
X116568095Y-100854166D01*
X116282380Y-99663690D02*
X116282380Y-99568452D01*
X116330000Y-99473214D01*
X116377619Y-99425595D01*
X116472857Y-99377976D01*
X116663333Y-99330357D01*
X116901428Y-99330357D01*
X117091904Y-99377976D01*
X117187142Y-99425595D01*
X117234761Y-99473214D01*
X117282380Y-99568452D01*
X117282380Y-99663690D01*
X117234761Y-99758928D01*
X117187142Y-99806547D01*
X117091904Y-99854166D01*
X116901428Y-99901785D01*
X116663333Y-99901785D01*
X116472857Y-99854166D01*
X116377619Y-99806547D01*
X116330000Y-99758928D01*
X116282380Y-99663690D01*
X117282380Y-98901785D02*
X116282380Y-98901785D01*
X116901428Y-98806547D02*
X117282380Y-98520833D01*
X116615714Y-98520833D02*
X116996666Y-98901785D01*
D12*
X115580952Y-99944642D02*
X115390476Y-100077976D01*
X115580952Y-100173214D02*
X115180952Y-100173214D01*
X115180952Y-100020833D01*
X115200000Y-99982738D01*
X115219047Y-99963690D01*
X115257142Y-99944642D01*
X115314285Y-99944642D01*
X115352380Y-99963690D01*
X115371428Y-99982738D01*
X115390476Y-100020833D01*
X115390476Y-100173214D01*
X115580952Y-99563690D02*
X115580952Y-99792261D01*
X115580952Y-99677976D02*
X115180952Y-99677976D01*
X115238095Y-99716071D01*
X115276190Y-99754166D01*
X115295238Y-99792261D01*
X115580952Y-99182738D02*
X115580952Y-99411309D01*
X115580952Y-99297023D02*
X115180952Y-99297023D01*
X115238095Y-99335119D01*
X115276190Y-99373214D01*
X115295238Y-99411309D01*
%TO.C,R10*%
D11*
X115722380Y-100516071D02*
X115722380Y-100706547D01*
X115770000Y-100801785D01*
X115817619Y-100849404D01*
X115960476Y-100944642D01*
X116150952Y-100992261D01*
X116531904Y-100992261D01*
X116627142Y-100944642D01*
X116674761Y-100897023D01*
X116722380Y-100801785D01*
X116722380Y-100611309D01*
X116674761Y-100516071D01*
X116627142Y-100468452D01*
X116531904Y-100420833D01*
X116293809Y-100420833D01*
X116198571Y-100468452D01*
X116150952Y-100516071D01*
X116103333Y-100611309D01*
X116103333Y-100801785D01*
X116150952Y-100897023D01*
X116198571Y-100944642D01*
X116293809Y-100992261D01*
X116627142Y-99992261D02*
X116674761Y-99944642D01*
X116722380Y-99992261D01*
X116674761Y-100039880D01*
X116627142Y-99992261D01*
X116722380Y-99992261D01*
X115722380Y-99087500D02*
X115722380Y-99277976D01*
X115770000Y-99373214D01*
X115817619Y-99420833D01*
X115960476Y-99516071D01*
X116150952Y-99563690D01*
X116531904Y-99563690D01*
X116627142Y-99516071D01*
X116674761Y-99468452D01*
X116722380Y-99373214D01*
X116722380Y-99182738D01*
X116674761Y-99087500D01*
X116627142Y-99039880D01*
X116531904Y-98992261D01*
X116293809Y-98992261D01*
X116198571Y-99039880D01*
X116150952Y-99087500D01*
X116103333Y-99182738D01*
X116103333Y-99373214D01*
X116150952Y-99468452D01*
X116198571Y-99516071D01*
X116293809Y-99563690D01*
X116722380Y-98563690D02*
X115722380Y-98563690D01*
X116341428Y-98468452D02*
X116722380Y-98182738D01*
X116055714Y-98182738D02*
X116436666Y-98563690D01*
D12*
X117880952Y-99844642D02*
X117690476Y-99977976D01*
X117880952Y-100073214D02*
X117480952Y-100073214D01*
X117480952Y-99920833D01*
X117500000Y-99882738D01*
X117519047Y-99863690D01*
X117557142Y-99844642D01*
X117614285Y-99844642D01*
X117652380Y-99863690D01*
X117671428Y-99882738D01*
X117690476Y-99920833D01*
X117690476Y-100073214D01*
X117880952Y-99463690D02*
X117880952Y-99692261D01*
X117880952Y-99577976D02*
X117480952Y-99577976D01*
X117538095Y-99616071D01*
X117576190Y-99654166D01*
X117595238Y-99692261D01*
X117480952Y-99216071D02*
X117480952Y-99177976D01*
X117500000Y-99139880D01*
X117519047Y-99120833D01*
X117557142Y-99101785D01*
X117633333Y-99082738D01*
X117728571Y-99082738D01*
X117804761Y-99101785D01*
X117842857Y-99120833D01*
X117861904Y-99139880D01*
X117880952Y-99177976D01*
X117880952Y-99216071D01*
X117861904Y-99254166D01*
X117842857Y-99273214D01*
X117804761Y-99292261D01*
X117728571Y-99311309D01*
X117633333Y-99311309D01*
X117557142Y-99292261D01*
X117519047Y-99273214D01*
X117500000Y-99254166D01*
X117480952Y-99216071D01*
%TO.C,R9*%
D11*
X148268452Y-99282380D02*
X147697023Y-99282380D01*
X147982738Y-99282380D02*
X147982738Y-98282380D01*
X147887500Y-98425238D01*
X147792261Y-98520476D01*
X147697023Y-98568095D01*
X148697023Y-99282380D02*
X148697023Y-98282380D01*
X148792261Y-98901428D02*
X149077976Y-99282380D01*
X149077976Y-98615714D02*
X148697023Y-98996666D01*
D12*
X148320833Y-97580952D02*
X148187500Y-97390476D01*
X148092261Y-97580952D02*
X148092261Y-97180952D01*
X148244642Y-97180952D01*
X148282738Y-97200000D01*
X148301785Y-97219047D01*
X148320833Y-97257142D01*
X148320833Y-97314285D01*
X148301785Y-97352380D01*
X148282738Y-97371428D01*
X148244642Y-97390476D01*
X148092261Y-97390476D01*
X148511309Y-97580952D02*
X148587500Y-97580952D01*
X148625595Y-97561904D01*
X148644642Y-97542857D01*
X148682738Y-97485714D01*
X148701785Y-97409523D01*
X148701785Y-97257142D01*
X148682738Y-97219047D01*
X148663690Y-97200000D01*
X148625595Y-97180952D01*
X148549404Y-97180952D01*
X148511309Y-97200000D01*
X148492261Y-97219047D01*
X148473214Y-97257142D01*
X148473214Y-97352380D01*
X148492261Y-97390476D01*
X148511309Y-97409523D01*
X148549404Y-97428571D01*
X148625595Y-97428571D01*
X148663690Y-97409523D01*
X148682738Y-97390476D01*
X148701785Y-97352380D01*
%TO.C,R8*%
D11*
X138572380Y-101491071D02*
X138572380Y-101681547D01*
X138620000Y-101776785D01*
X138667619Y-101824404D01*
X138810476Y-101919642D01*
X139000952Y-101967261D01*
X139381904Y-101967261D01*
X139477142Y-101919642D01*
X139524761Y-101872023D01*
X139572380Y-101776785D01*
X139572380Y-101586309D01*
X139524761Y-101491071D01*
X139477142Y-101443452D01*
X139381904Y-101395833D01*
X139143809Y-101395833D01*
X139048571Y-101443452D01*
X139000952Y-101491071D01*
X138953333Y-101586309D01*
X138953333Y-101776785D01*
X139000952Y-101872023D01*
X139048571Y-101919642D01*
X139143809Y-101967261D01*
X139477142Y-100967261D02*
X139524761Y-100919642D01*
X139572380Y-100967261D01*
X139524761Y-101014880D01*
X139477142Y-100967261D01*
X139572380Y-100967261D01*
X138572380Y-100062500D02*
X138572380Y-100252976D01*
X138620000Y-100348214D01*
X138667619Y-100395833D01*
X138810476Y-100491071D01*
X139000952Y-100538690D01*
X139381904Y-100538690D01*
X139477142Y-100491071D01*
X139524761Y-100443452D01*
X139572380Y-100348214D01*
X139572380Y-100157738D01*
X139524761Y-100062500D01*
X139477142Y-100014880D01*
X139381904Y-99967261D01*
X139143809Y-99967261D01*
X139048571Y-100014880D01*
X139000952Y-100062500D01*
X138953333Y-100157738D01*
X138953333Y-100348214D01*
X139000952Y-100443452D01*
X139048571Y-100491071D01*
X139143809Y-100538690D01*
X139572380Y-99538690D02*
X138572380Y-99538690D01*
X139191428Y-99443452D02*
X139572380Y-99157738D01*
X138905714Y-99157738D02*
X139286666Y-99538690D01*
D12*
X140730952Y-100629166D02*
X140540476Y-100762500D01*
X140730952Y-100857738D02*
X140330952Y-100857738D01*
X140330952Y-100705357D01*
X140350000Y-100667261D01*
X140369047Y-100648214D01*
X140407142Y-100629166D01*
X140464285Y-100629166D01*
X140502380Y-100648214D01*
X140521428Y-100667261D01*
X140540476Y-100705357D01*
X140540476Y-100857738D01*
X140502380Y-100400595D02*
X140483333Y-100438690D01*
X140464285Y-100457738D01*
X140426190Y-100476785D01*
X140407142Y-100476785D01*
X140369047Y-100457738D01*
X140350000Y-100438690D01*
X140330952Y-100400595D01*
X140330952Y-100324404D01*
X140350000Y-100286309D01*
X140369047Y-100267261D01*
X140407142Y-100248214D01*
X140426190Y-100248214D01*
X140464285Y-100267261D01*
X140483333Y-100286309D01*
X140502380Y-100324404D01*
X140502380Y-100400595D01*
X140521428Y-100438690D01*
X140540476Y-100457738D01*
X140578571Y-100476785D01*
X140654761Y-100476785D01*
X140692857Y-100457738D01*
X140711904Y-100438690D01*
X140730952Y-100400595D01*
X140730952Y-100324404D01*
X140711904Y-100286309D01*
X140692857Y-100267261D01*
X140654761Y-100248214D01*
X140578571Y-100248214D01*
X140540476Y-100267261D01*
X140521428Y-100286309D01*
X140502380Y-100324404D01*
%TO.C,R7*%
D11*
X142905714Y-99166071D02*
X143572380Y-99166071D01*
X142524761Y-99404166D02*
X143239047Y-99642261D01*
X143239047Y-99023214D01*
X143477142Y-98642261D02*
X143524761Y-98594642D01*
X143572380Y-98642261D01*
X143524761Y-98689880D01*
X143477142Y-98642261D01*
X143572380Y-98642261D01*
X142572380Y-98261309D02*
X142572380Y-97594642D01*
X143572380Y-98023214D01*
X143572380Y-97213690D02*
X142572380Y-97213690D01*
X143191428Y-97118452D02*
X143572380Y-96832738D01*
X142905714Y-96832738D02*
X143286666Y-97213690D01*
D12*
X144730952Y-98304166D02*
X144540476Y-98437500D01*
X144730952Y-98532738D02*
X144330952Y-98532738D01*
X144330952Y-98380357D01*
X144350000Y-98342261D01*
X144369047Y-98323214D01*
X144407142Y-98304166D01*
X144464285Y-98304166D01*
X144502380Y-98323214D01*
X144521428Y-98342261D01*
X144540476Y-98380357D01*
X144540476Y-98532738D01*
X144330952Y-98170833D02*
X144330952Y-97904166D01*
X144730952Y-98075595D01*
%TO.C,R5*%
D11*
X144248214Y-107282380D02*
X143676785Y-107282380D01*
X143962500Y-107282380D02*
X143962500Y-106282380D01*
X143867261Y-106425238D01*
X143772023Y-106520476D01*
X143676785Y-106568095D01*
X144676785Y-107282380D02*
X144676785Y-106282380D01*
X145248214Y-107282380D02*
X144819642Y-106710952D01*
X145248214Y-106282380D02*
X144676785Y-106853809D01*
D12*
X144395833Y-105580952D02*
X144262500Y-105390476D01*
X144167261Y-105580952D02*
X144167261Y-105180952D01*
X144319642Y-105180952D01*
X144357738Y-105200000D01*
X144376785Y-105219047D01*
X144395833Y-105257142D01*
X144395833Y-105314285D01*
X144376785Y-105352380D01*
X144357738Y-105371428D01*
X144319642Y-105390476D01*
X144167261Y-105390476D01*
X144757738Y-105180952D02*
X144567261Y-105180952D01*
X144548214Y-105371428D01*
X144567261Y-105352380D01*
X144605357Y-105333333D01*
X144700595Y-105333333D01*
X144738690Y-105352380D01*
X144757738Y-105371428D01*
X144776785Y-105409523D01*
X144776785Y-105504761D01*
X144757738Y-105542857D01*
X144738690Y-105561904D01*
X144700595Y-105580952D01*
X144605357Y-105580952D01*
X144567261Y-105561904D01*
X144548214Y-105542857D01*
%TO.C,R3*%
D11*
X149905714Y-99416071D02*
X150572380Y-99416071D01*
X149524761Y-99654166D02*
X150239047Y-99892261D01*
X150239047Y-99273214D01*
X150477142Y-98892261D02*
X150524761Y-98844642D01*
X150572380Y-98892261D01*
X150524761Y-98939880D01*
X150477142Y-98892261D01*
X150572380Y-98892261D01*
X149572380Y-98511309D02*
X149572380Y-97844642D01*
X150572380Y-98273214D01*
X150572380Y-97463690D02*
X149572380Y-97463690D01*
X150191428Y-97368452D02*
X150572380Y-97082738D01*
X149905714Y-97082738D02*
X150286666Y-97463690D01*
D12*
X151730952Y-98554166D02*
X151540476Y-98687500D01*
X151730952Y-98782738D02*
X151330952Y-98782738D01*
X151330952Y-98630357D01*
X151350000Y-98592261D01*
X151369047Y-98573214D01*
X151407142Y-98554166D01*
X151464285Y-98554166D01*
X151502380Y-98573214D01*
X151521428Y-98592261D01*
X151540476Y-98630357D01*
X151540476Y-98782738D01*
X151330952Y-98420833D02*
X151330952Y-98173214D01*
X151483333Y-98306547D01*
X151483333Y-98249404D01*
X151502380Y-98211309D01*
X151521428Y-98192261D01*
X151559523Y-98173214D01*
X151654761Y-98173214D01*
X151692857Y-98192261D01*
X151711904Y-98211309D01*
X151730952Y-98249404D01*
X151730952Y-98363690D01*
X151711904Y-98401785D01*
X151692857Y-98420833D01*
%TO.C,R2*%
D11*
X146322380Y-105082738D02*
X146322380Y-105654166D01*
X146322380Y-105368452D02*
X145322380Y-105368452D01*
X145465238Y-105463690D01*
X145560476Y-105558928D01*
X145608095Y-105654166D01*
X145322380Y-104463690D02*
X145322380Y-104368452D01*
X145370000Y-104273214D01*
X145417619Y-104225595D01*
X145512857Y-104177976D01*
X145703333Y-104130357D01*
X145941428Y-104130357D01*
X146131904Y-104177976D01*
X146227142Y-104225595D01*
X146274761Y-104273214D01*
X146322380Y-104368452D01*
X146322380Y-104463690D01*
X146274761Y-104558928D01*
X146227142Y-104606547D01*
X146131904Y-104654166D01*
X145941428Y-104701785D01*
X145703333Y-104701785D01*
X145512857Y-104654166D01*
X145417619Y-104606547D01*
X145370000Y-104558928D01*
X145322380Y-104463690D01*
X146322380Y-103701785D02*
X145322380Y-103701785D01*
X145941428Y-103606547D02*
X146322380Y-103320833D01*
X145655714Y-103320833D02*
X146036666Y-103701785D01*
D12*
X147480952Y-104554166D02*
X147290476Y-104687500D01*
X147480952Y-104782738D02*
X147080952Y-104782738D01*
X147080952Y-104630357D01*
X147100000Y-104592261D01*
X147119047Y-104573214D01*
X147157142Y-104554166D01*
X147214285Y-104554166D01*
X147252380Y-104573214D01*
X147271428Y-104592261D01*
X147290476Y-104630357D01*
X147290476Y-104782738D01*
X147119047Y-104401785D02*
X147100000Y-104382738D01*
X147080952Y-104344642D01*
X147080952Y-104249404D01*
X147100000Y-104211309D01*
X147119047Y-104192261D01*
X147157142Y-104173214D01*
X147195238Y-104173214D01*
X147252380Y-104192261D01*
X147480952Y-104420833D01*
X147480952Y-104173214D01*
%TO.C,R1*%
D11*
X145572380Y-101166071D02*
X145572380Y-101356547D01*
X145620000Y-101451785D01*
X145667619Y-101499404D01*
X145810476Y-101594642D01*
X146000952Y-101642261D01*
X146381904Y-101642261D01*
X146477142Y-101594642D01*
X146524761Y-101547023D01*
X146572380Y-101451785D01*
X146572380Y-101261309D01*
X146524761Y-101166071D01*
X146477142Y-101118452D01*
X146381904Y-101070833D01*
X146143809Y-101070833D01*
X146048571Y-101118452D01*
X146000952Y-101166071D01*
X145953333Y-101261309D01*
X145953333Y-101451785D01*
X146000952Y-101547023D01*
X146048571Y-101594642D01*
X146143809Y-101642261D01*
X146477142Y-100642261D02*
X146524761Y-100594642D01*
X146572380Y-100642261D01*
X146524761Y-100689880D01*
X146477142Y-100642261D01*
X146572380Y-100642261D01*
X145572380Y-99737500D02*
X145572380Y-99927976D01*
X145620000Y-100023214D01*
X145667619Y-100070833D01*
X145810476Y-100166071D01*
X146000952Y-100213690D01*
X146381904Y-100213690D01*
X146477142Y-100166071D01*
X146524761Y-100118452D01*
X146572380Y-100023214D01*
X146572380Y-99832738D01*
X146524761Y-99737500D01*
X146477142Y-99689880D01*
X146381904Y-99642261D01*
X146143809Y-99642261D01*
X146048571Y-99689880D01*
X146000952Y-99737500D01*
X145953333Y-99832738D01*
X145953333Y-100023214D01*
X146000952Y-100118452D01*
X146048571Y-100166071D01*
X146143809Y-100213690D01*
X146572380Y-99213690D02*
X145572380Y-99213690D01*
X146191428Y-99118452D02*
X146572380Y-98832738D01*
X145905714Y-98832738D02*
X146286666Y-99213690D01*
D12*
X147730952Y-100304166D02*
X147540476Y-100437500D01*
X147730952Y-100532738D02*
X147330952Y-100532738D01*
X147330952Y-100380357D01*
X147350000Y-100342261D01*
X147369047Y-100323214D01*
X147407142Y-100304166D01*
X147464285Y-100304166D01*
X147502380Y-100323214D01*
X147521428Y-100342261D01*
X147540476Y-100380357D01*
X147540476Y-100532738D01*
X147730952Y-99923214D02*
X147730952Y-100151785D01*
X147730952Y-100037500D02*
X147330952Y-100037500D01*
X147388095Y-100075595D01*
X147426190Y-100113690D01*
X147445238Y-100151785D01*
%TO.C,Q6*%
D11*
X109489285Y-85953571D02*
X109155952Y-85953571D01*
X109155952Y-86477380D02*
X109155952Y-85477380D01*
X109632142Y-85477380D01*
X110013095Y-86477380D02*
X110013095Y-85477380D01*
X110251190Y-85477380D01*
X110394047Y-85525000D01*
X110489285Y-85620238D01*
X110536904Y-85715476D01*
X110584523Y-85905952D01*
X110584523Y-86048809D01*
X110536904Y-86239285D01*
X110489285Y-86334523D01*
X110394047Y-86429761D01*
X110251190Y-86477380D01*
X110013095Y-86477380D01*
X111013095Y-86477380D02*
X111013095Y-85477380D01*
X111251190Y-85477380D01*
X111394047Y-85525000D01*
X111489285Y-85620238D01*
X111536904Y-85715476D01*
X111584523Y-85905952D01*
X111584523Y-86048809D01*
X111536904Y-86239285D01*
X111489285Y-86334523D01*
X111394047Y-86429761D01*
X111251190Y-86477380D01*
X111013095Y-86477380D01*
X111917857Y-85477380D02*
X112536904Y-85477380D01*
X112203571Y-85858333D01*
X112346428Y-85858333D01*
X112441666Y-85905952D01*
X112489285Y-85953571D01*
X112536904Y-86048809D01*
X112536904Y-86286904D01*
X112489285Y-86382142D01*
X112441666Y-86429761D01*
X112346428Y-86477380D01*
X112060714Y-86477380D01*
X111965476Y-86429761D01*
X111917857Y-86382142D01*
X113155952Y-85477380D02*
X113251190Y-85477380D01*
X113346428Y-85525000D01*
X113394047Y-85572619D01*
X113441666Y-85667857D01*
X113489285Y-85858333D01*
X113489285Y-86096428D01*
X113441666Y-86286904D01*
X113394047Y-86382142D01*
X113346428Y-86429761D01*
X113251190Y-86477380D01*
X113155952Y-86477380D01*
X113060714Y-86429761D01*
X113013095Y-86382142D01*
X112965476Y-86286904D01*
X112917857Y-86096428D01*
X112917857Y-85858333D01*
X112965476Y-85667857D01*
X113013095Y-85572619D01*
X113060714Y-85525000D01*
X113155952Y-85477380D01*
X114346428Y-85477380D02*
X114155952Y-85477380D01*
X114060714Y-85525000D01*
X114013095Y-85572619D01*
X113917857Y-85715476D01*
X113870238Y-85905952D01*
X113870238Y-86286904D01*
X113917857Y-86382142D01*
X113965476Y-86429761D01*
X114060714Y-86477380D01*
X114251190Y-86477380D01*
X114346428Y-86429761D01*
X114394047Y-86382142D01*
X114441666Y-86286904D01*
X114441666Y-86048809D01*
X114394047Y-85953571D01*
X114346428Y-85905952D01*
X114251190Y-85858333D01*
X114060714Y-85858333D01*
X113965476Y-85905952D01*
X113917857Y-85953571D01*
X113870238Y-86048809D01*
X114870238Y-86477380D02*
X114870238Y-85477380D01*
X115251190Y-85477380D01*
X115346428Y-85525000D01*
X115394047Y-85572619D01*
X115441666Y-85667857D01*
X115441666Y-85810714D01*
X115394047Y-85905952D01*
X115346428Y-85953571D01*
X115251190Y-86001190D01*
X114870238Y-86001190D01*
X112179761Y-91072619D02*
X112084523Y-91025000D01*
X111989285Y-90929761D01*
X111846428Y-90786904D01*
X111751190Y-90739285D01*
X111655952Y-90739285D01*
X111703571Y-90977380D02*
X111608333Y-90929761D01*
X111513095Y-90834523D01*
X111465476Y-90644047D01*
X111465476Y-90310714D01*
X111513095Y-90120238D01*
X111608333Y-90025000D01*
X111703571Y-89977380D01*
X111894047Y-89977380D01*
X111989285Y-90025000D01*
X112084523Y-90120238D01*
X112132142Y-90310714D01*
X112132142Y-90644047D01*
X112084523Y-90834523D01*
X111989285Y-90929761D01*
X111894047Y-90977380D01*
X111703571Y-90977380D01*
X112989285Y-89977380D02*
X112798809Y-89977380D01*
X112703571Y-90025000D01*
X112655952Y-90072619D01*
X112560714Y-90215476D01*
X112513095Y-90405952D01*
X112513095Y-90786904D01*
X112560714Y-90882142D01*
X112608333Y-90929761D01*
X112703571Y-90977380D01*
X112894047Y-90977380D01*
X112989285Y-90929761D01*
X113036904Y-90882142D01*
X113084523Y-90786904D01*
X113084523Y-90548809D01*
X113036904Y-90453571D01*
X112989285Y-90405952D01*
X112894047Y-90358333D01*
X112703571Y-90358333D01*
X112608333Y-90405952D01*
X112560714Y-90453571D01*
X112513095Y-90548809D01*
%TO.C,Q5*%
X108914285Y-106778571D02*
X109057142Y-106826190D01*
X109104761Y-106873809D01*
X109152380Y-106969047D01*
X109152380Y-107111904D01*
X109104761Y-107207142D01*
X109057142Y-107254761D01*
X108961904Y-107302380D01*
X108580952Y-107302380D01*
X108580952Y-106302380D01*
X108914285Y-106302380D01*
X109009523Y-106350000D01*
X109057142Y-106397619D01*
X109104761Y-106492857D01*
X109104761Y-106588095D01*
X109057142Y-106683333D01*
X109009523Y-106730952D01*
X108914285Y-106778571D01*
X108580952Y-106778571D01*
X109533333Y-107254761D02*
X109676190Y-107302380D01*
X109914285Y-107302380D01*
X110009523Y-107254761D01*
X110057142Y-107207142D01*
X110104761Y-107111904D01*
X110104761Y-107016666D01*
X110057142Y-106921428D01*
X110009523Y-106873809D01*
X109914285Y-106826190D01*
X109723809Y-106778571D01*
X109628571Y-106730952D01*
X109580952Y-106683333D01*
X109533333Y-106588095D01*
X109533333Y-106492857D01*
X109580952Y-106397619D01*
X109628571Y-106350000D01*
X109723809Y-106302380D01*
X109961904Y-106302380D01*
X110104761Y-106350000D01*
X110485714Y-107254761D02*
X110628571Y-107302380D01*
X110866666Y-107302380D01*
X110961904Y-107254761D01*
X111009523Y-107207142D01*
X111057142Y-107111904D01*
X111057142Y-107016666D01*
X111009523Y-106921428D01*
X110961904Y-106873809D01*
X110866666Y-106826190D01*
X110676190Y-106778571D01*
X110580952Y-106730952D01*
X110533333Y-106683333D01*
X110485714Y-106588095D01*
X110485714Y-106492857D01*
X110533333Y-106397619D01*
X110580952Y-106350000D01*
X110676190Y-106302380D01*
X110914285Y-106302380D01*
X111057142Y-106350000D01*
X112009523Y-107302380D02*
X111438095Y-107302380D01*
X111723809Y-107302380D02*
X111723809Y-106302380D01*
X111628571Y-106445238D01*
X111533333Y-106540476D01*
X111438095Y-106588095D01*
X112390476Y-106397619D02*
X112438095Y-106350000D01*
X112533333Y-106302380D01*
X112771428Y-106302380D01*
X112866666Y-106350000D01*
X112914285Y-106397619D01*
X112961904Y-106492857D01*
X112961904Y-106588095D01*
X112914285Y-106730952D01*
X112342857Y-107302380D01*
X112961904Y-107302380D01*
X113295238Y-106302380D02*
X113961904Y-106302380D01*
X113533333Y-107302380D01*
X114295238Y-107254761D02*
X114438095Y-107302380D01*
X114676190Y-107302380D01*
X114771428Y-107254761D01*
X114819047Y-107207142D01*
X114866666Y-107111904D01*
X114866666Y-107016666D01*
X114819047Y-106921428D01*
X114771428Y-106873809D01*
X114676190Y-106826190D01*
X114485714Y-106778571D01*
X114390476Y-106730952D01*
X114342857Y-106683333D01*
X114295238Y-106588095D01*
X114295238Y-106492857D01*
X114342857Y-106397619D01*
X114390476Y-106350000D01*
X114485714Y-106302380D01*
X114723809Y-106302380D01*
X114866666Y-106350000D01*
D14*
X111973809Y-104397619D02*
X111950000Y-104445238D01*
X111902380Y-104492857D01*
X111830952Y-104564285D01*
X111807142Y-104611904D01*
X111807142Y-104659523D01*
X111926190Y-104635714D02*
X111902380Y-104683333D01*
X111854761Y-104730952D01*
X111759523Y-104754761D01*
X111592857Y-104754761D01*
X111497619Y-104730952D01*
X111450000Y-104683333D01*
X111426190Y-104635714D01*
X111426190Y-104540476D01*
X111450000Y-104492857D01*
X111497619Y-104445238D01*
X111592857Y-104421428D01*
X111759523Y-104421428D01*
X111854761Y-104445238D01*
X111902380Y-104492857D01*
X111926190Y-104540476D01*
X111926190Y-104635714D01*
X111426190Y-103969047D02*
X111426190Y-104207142D01*
X111664285Y-104230952D01*
X111640476Y-104207142D01*
X111616666Y-104159523D01*
X111616666Y-104040476D01*
X111640476Y-103992857D01*
X111664285Y-103969047D01*
X111711904Y-103945238D01*
X111830952Y-103945238D01*
X111878571Y-103969047D01*
X111902380Y-103992857D01*
X111926190Y-104040476D01*
X111926190Y-104159523D01*
X111902380Y-104207142D01*
X111878571Y-104230952D01*
%TO.C,Q4*%
D11*
X113164285Y-106628571D02*
X113307142Y-106676190D01*
X113354761Y-106723809D01*
X113402380Y-106819047D01*
X113402380Y-106961904D01*
X113354761Y-107057142D01*
X113307142Y-107104761D01*
X113211904Y-107152380D01*
X112830952Y-107152380D01*
X112830952Y-106152380D01*
X113164285Y-106152380D01*
X113259523Y-106200000D01*
X113307142Y-106247619D01*
X113354761Y-106342857D01*
X113354761Y-106438095D01*
X113307142Y-106533333D01*
X113259523Y-106580952D01*
X113164285Y-106628571D01*
X112830952Y-106628571D01*
X113783333Y-107104761D02*
X113926190Y-107152380D01*
X114164285Y-107152380D01*
X114259523Y-107104761D01*
X114307142Y-107057142D01*
X114354761Y-106961904D01*
X114354761Y-106866666D01*
X114307142Y-106771428D01*
X114259523Y-106723809D01*
X114164285Y-106676190D01*
X113973809Y-106628571D01*
X113878571Y-106580952D01*
X113830952Y-106533333D01*
X113783333Y-106438095D01*
X113783333Y-106342857D01*
X113830952Y-106247619D01*
X113878571Y-106200000D01*
X113973809Y-106152380D01*
X114211904Y-106152380D01*
X114354761Y-106200000D01*
X114735714Y-107104761D02*
X114878571Y-107152380D01*
X115116666Y-107152380D01*
X115211904Y-107104761D01*
X115259523Y-107057142D01*
X115307142Y-106961904D01*
X115307142Y-106866666D01*
X115259523Y-106771428D01*
X115211904Y-106723809D01*
X115116666Y-106676190D01*
X114926190Y-106628571D01*
X114830952Y-106580952D01*
X114783333Y-106533333D01*
X114735714Y-106438095D01*
X114735714Y-106342857D01*
X114783333Y-106247619D01*
X114830952Y-106200000D01*
X114926190Y-106152380D01*
X115164285Y-106152380D01*
X115307142Y-106200000D01*
X116259523Y-107152380D02*
X115688095Y-107152380D01*
X115973809Y-107152380D02*
X115973809Y-106152380D01*
X115878571Y-106295238D01*
X115783333Y-106390476D01*
X115688095Y-106438095D01*
X116640476Y-106247619D02*
X116688095Y-106200000D01*
X116783333Y-106152380D01*
X117021428Y-106152380D01*
X117116666Y-106200000D01*
X117164285Y-106247619D01*
X117211904Y-106342857D01*
X117211904Y-106438095D01*
X117164285Y-106580952D01*
X116592857Y-107152380D01*
X117211904Y-107152380D01*
X117545238Y-106152380D02*
X118211904Y-106152380D01*
X117783333Y-107152380D01*
X118545238Y-107104761D02*
X118688095Y-107152380D01*
X118926190Y-107152380D01*
X119021428Y-107104761D01*
X119069047Y-107057142D01*
X119116666Y-106961904D01*
X119116666Y-106866666D01*
X119069047Y-106771428D01*
X119021428Y-106723809D01*
X118926190Y-106676190D01*
X118735714Y-106628571D01*
X118640476Y-106580952D01*
X118592857Y-106533333D01*
X118545238Y-106438095D01*
X118545238Y-106342857D01*
X118592857Y-106247619D01*
X118640476Y-106200000D01*
X118735714Y-106152380D01*
X118973809Y-106152380D01*
X119116666Y-106200000D01*
D14*
X116223809Y-104247619D02*
X116200000Y-104295238D01*
X116152380Y-104342857D01*
X116080952Y-104414285D01*
X116057142Y-104461904D01*
X116057142Y-104509523D01*
X116176190Y-104485714D02*
X116152380Y-104533333D01*
X116104761Y-104580952D01*
X116009523Y-104604761D01*
X115842857Y-104604761D01*
X115747619Y-104580952D01*
X115700000Y-104533333D01*
X115676190Y-104485714D01*
X115676190Y-104390476D01*
X115700000Y-104342857D01*
X115747619Y-104295238D01*
X115842857Y-104271428D01*
X116009523Y-104271428D01*
X116104761Y-104295238D01*
X116152380Y-104342857D01*
X116176190Y-104390476D01*
X116176190Y-104485714D01*
X115842857Y-103842857D02*
X116176190Y-103842857D01*
X115652380Y-103961904D02*
X116009523Y-104080952D01*
X116009523Y-103771428D01*
%TO.C,Q3*%
D11*
X141539285Y-87803571D02*
X141205952Y-87803571D01*
X141205952Y-88327380D02*
X141205952Y-87327380D01*
X141682142Y-87327380D01*
X142063095Y-88327380D02*
X142063095Y-87327380D01*
X142301190Y-87327380D01*
X142444047Y-87375000D01*
X142539285Y-87470238D01*
X142586904Y-87565476D01*
X142634523Y-87755952D01*
X142634523Y-87898809D01*
X142586904Y-88089285D01*
X142539285Y-88184523D01*
X142444047Y-88279761D01*
X142301190Y-88327380D01*
X142063095Y-88327380D01*
X143063095Y-88327380D02*
X143063095Y-87327380D01*
X143301190Y-87327380D01*
X143444047Y-87375000D01*
X143539285Y-87470238D01*
X143586904Y-87565476D01*
X143634523Y-87755952D01*
X143634523Y-87898809D01*
X143586904Y-88089285D01*
X143539285Y-88184523D01*
X143444047Y-88279761D01*
X143301190Y-88327380D01*
X143063095Y-88327380D01*
X143967857Y-87327380D02*
X144586904Y-87327380D01*
X144253571Y-87708333D01*
X144396428Y-87708333D01*
X144491666Y-87755952D01*
X144539285Y-87803571D01*
X144586904Y-87898809D01*
X144586904Y-88136904D01*
X144539285Y-88232142D01*
X144491666Y-88279761D01*
X144396428Y-88327380D01*
X144110714Y-88327380D01*
X144015476Y-88279761D01*
X143967857Y-88232142D01*
X145205952Y-87327380D02*
X145301190Y-87327380D01*
X145396428Y-87375000D01*
X145444047Y-87422619D01*
X145491666Y-87517857D01*
X145539285Y-87708333D01*
X145539285Y-87946428D01*
X145491666Y-88136904D01*
X145444047Y-88232142D01*
X145396428Y-88279761D01*
X145301190Y-88327380D01*
X145205952Y-88327380D01*
X145110714Y-88279761D01*
X145063095Y-88232142D01*
X145015476Y-88136904D01*
X144967857Y-87946428D01*
X144967857Y-87708333D01*
X145015476Y-87517857D01*
X145063095Y-87422619D01*
X145110714Y-87375000D01*
X145205952Y-87327380D01*
X146396428Y-87327380D02*
X146205952Y-87327380D01*
X146110714Y-87375000D01*
X146063095Y-87422619D01*
X145967857Y-87565476D01*
X145920238Y-87755952D01*
X145920238Y-88136904D01*
X145967857Y-88232142D01*
X146015476Y-88279761D01*
X146110714Y-88327380D01*
X146301190Y-88327380D01*
X146396428Y-88279761D01*
X146444047Y-88232142D01*
X146491666Y-88136904D01*
X146491666Y-87898809D01*
X146444047Y-87803571D01*
X146396428Y-87755952D01*
X146301190Y-87708333D01*
X146110714Y-87708333D01*
X146015476Y-87755952D01*
X145967857Y-87803571D01*
X145920238Y-87898809D01*
X146920238Y-88327380D02*
X146920238Y-87327380D01*
X147301190Y-87327380D01*
X147396428Y-87375000D01*
X147444047Y-87422619D01*
X147491666Y-87517857D01*
X147491666Y-87660714D01*
X147444047Y-87755952D01*
X147396428Y-87803571D01*
X147301190Y-87851190D01*
X146920238Y-87851190D01*
X144229761Y-92922619D02*
X144134523Y-92875000D01*
X144039285Y-92779761D01*
X143896428Y-92636904D01*
X143801190Y-92589285D01*
X143705952Y-92589285D01*
X143753571Y-92827380D02*
X143658333Y-92779761D01*
X143563095Y-92684523D01*
X143515476Y-92494047D01*
X143515476Y-92160714D01*
X143563095Y-91970238D01*
X143658333Y-91875000D01*
X143753571Y-91827380D01*
X143944047Y-91827380D01*
X144039285Y-91875000D01*
X144134523Y-91970238D01*
X144182142Y-92160714D01*
X144182142Y-92494047D01*
X144134523Y-92684523D01*
X144039285Y-92779761D01*
X143944047Y-92827380D01*
X143753571Y-92827380D01*
X144515476Y-91827380D02*
X145134523Y-91827380D01*
X144801190Y-92208333D01*
X144944047Y-92208333D01*
X145039285Y-92255952D01*
X145086904Y-92303571D01*
X145134523Y-92398809D01*
X145134523Y-92636904D01*
X145086904Y-92732142D01*
X145039285Y-92779761D01*
X144944047Y-92827380D01*
X144658333Y-92827380D01*
X144563095Y-92779761D01*
X144515476Y-92732142D01*
%TO.C,Q2*%
X140514285Y-104878571D02*
X140657142Y-104926190D01*
X140704761Y-104973809D01*
X140752380Y-105069047D01*
X140752380Y-105211904D01*
X140704761Y-105307142D01*
X140657142Y-105354761D01*
X140561904Y-105402380D01*
X140180952Y-105402380D01*
X140180952Y-104402380D01*
X140514285Y-104402380D01*
X140609523Y-104450000D01*
X140657142Y-104497619D01*
X140704761Y-104592857D01*
X140704761Y-104688095D01*
X140657142Y-104783333D01*
X140609523Y-104830952D01*
X140514285Y-104878571D01*
X140180952Y-104878571D01*
X141133333Y-105354761D02*
X141276190Y-105402380D01*
X141514285Y-105402380D01*
X141609523Y-105354761D01*
X141657142Y-105307142D01*
X141704761Y-105211904D01*
X141704761Y-105116666D01*
X141657142Y-105021428D01*
X141609523Y-104973809D01*
X141514285Y-104926190D01*
X141323809Y-104878571D01*
X141228571Y-104830952D01*
X141180952Y-104783333D01*
X141133333Y-104688095D01*
X141133333Y-104592857D01*
X141180952Y-104497619D01*
X141228571Y-104450000D01*
X141323809Y-104402380D01*
X141561904Y-104402380D01*
X141704761Y-104450000D01*
X142085714Y-105354761D02*
X142228571Y-105402380D01*
X142466666Y-105402380D01*
X142561904Y-105354761D01*
X142609523Y-105307142D01*
X142657142Y-105211904D01*
X142657142Y-105116666D01*
X142609523Y-105021428D01*
X142561904Y-104973809D01*
X142466666Y-104926190D01*
X142276190Y-104878571D01*
X142180952Y-104830952D01*
X142133333Y-104783333D01*
X142085714Y-104688095D01*
X142085714Y-104592857D01*
X142133333Y-104497619D01*
X142180952Y-104450000D01*
X142276190Y-104402380D01*
X142514285Y-104402380D01*
X142657142Y-104450000D01*
X143609523Y-105402380D02*
X143038095Y-105402380D01*
X143323809Y-105402380D02*
X143323809Y-104402380D01*
X143228571Y-104545238D01*
X143133333Y-104640476D01*
X143038095Y-104688095D01*
X143990476Y-104497619D02*
X144038095Y-104450000D01*
X144133333Y-104402380D01*
X144371428Y-104402380D01*
X144466666Y-104450000D01*
X144514285Y-104497619D01*
X144561904Y-104592857D01*
X144561904Y-104688095D01*
X144514285Y-104830952D01*
X143942857Y-105402380D01*
X144561904Y-105402380D01*
X144895238Y-104402380D02*
X145561904Y-104402380D01*
X145133333Y-105402380D01*
X145895238Y-105354761D02*
X146038095Y-105402380D01*
X146276190Y-105402380D01*
X146371428Y-105354761D01*
X146419047Y-105307142D01*
X146466666Y-105211904D01*
X146466666Y-105116666D01*
X146419047Y-105021428D01*
X146371428Y-104973809D01*
X146276190Y-104926190D01*
X146085714Y-104878571D01*
X145990476Y-104830952D01*
X145942857Y-104783333D01*
X145895238Y-104688095D01*
X145895238Y-104592857D01*
X145942857Y-104497619D01*
X145990476Y-104450000D01*
X146085714Y-104402380D01*
X146323809Y-104402380D01*
X146466666Y-104450000D01*
D14*
X143573809Y-102497619D02*
X143550000Y-102545238D01*
X143502380Y-102592857D01*
X143430952Y-102664285D01*
X143407142Y-102711904D01*
X143407142Y-102759523D01*
X143526190Y-102735714D02*
X143502380Y-102783333D01*
X143454761Y-102830952D01*
X143359523Y-102854761D01*
X143192857Y-102854761D01*
X143097619Y-102830952D01*
X143050000Y-102783333D01*
X143026190Y-102735714D01*
X143026190Y-102640476D01*
X143050000Y-102592857D01*
X143097619Y-102545238D01*
X143192857Y-102521428D01*
X143359523Y-102521428D01*
X143454761Y-102545238D01*
X143502380Y-102592857D01*
X143526190Y-102640476D01*
X143526190Y-102735714D01*
X143073809Y-102330952D02*
X143050000Y-102307142D01*
X143026190Y-102259523D01*
X143026190Y-102140476D01*
X143050000Y-102092857D01*
X143073809Y-102069047D01*
X143121428Y-102045238D01*
X143169047Y-102045238D01*
X143240476Y-102069047D01*
X143526190Y-102354761D01*
X143526190Y-102045238D01*
%TO.C,Q1*%
D11*
X147514285Y-104628571D02*
X147657142Y-104676190D01*
X147704761Y-104723809D01*
X147752380Y-104819047D01*
X147752380Y-104961904D01*
X147704761Y-105057142D01*
X147657142Y-105104761D01*
X147561904Y-105152380D01*
X147180952Y-105152380D01*
X147180952Y-104152380D01*
X147514285Y-104152380D01*
X147609523Y-104200000D01*
X147657142Y-104247619D01*
X147704761Y-104342857D01*
X147704761Y-104438095D01*
X147657142Y-104533333D01*
X147609523Y-104580952D01*
X147514285Y-104628571D01*
X147180952Y-104628571D01*
X148133333Y-105104761D02*
X148276190Y-105152380D01*
X148514285Y-105152380D01*
X148609523Y-105104761D01*
X148657142Y-105057142D01*
X148704761Y-104961904D01*
X148704761Y-104866666D01*
X148657142Y-104771428D01*
X148609523Y-104723809D01*
X148514285Y-104676190D01*
X148323809Y-104628571D01*
X148228571Y-104580952D01*
X148180952Y-104533333D01*
X148133333Y-104438095D01*
X148133333Y-104342857D01*
X148180952Y-104247619D01*
X148228571Y-104200000D01*
X148323809Y-104152380D01*
X148561904Y-104152380D01*
X148704761Y-104200000D01*
X149085714Y-105104761D02*
X149228571Y-105152380D01*
X149466666Y-105152380D01*
X149561904Y-105104761D01*
X149609523Y-105057142D01*
X149657142Y-104961904D01*
X149657142Y-104866666D01*
X149609523Y-104771428D01*
X149561904Y-104723809D01*
X149466666Y-104676190D01*
X149276190Y-104628571D01*
X149180952Y-104580952D01*
X149133333Y-104533333D01*
X149085714Y-104438095D01*
X149085714Y-104342857D01*
X149133333Y-104247619D01*
X149180952Y-104200000D01*
X149276190Y-104152380D01*
X149514285Y-104152380D01*
X149657142Y-104200000D01*
X150609523Y-105152380D02*
X150038095Y-105152380D01*
X150323809Y-105152380D02*
X150323809Y-104152380D01*
X150228571Y-104295238D01*
X150133333Y-104390476D01*
X150038095Y-104438095D01*
X150990476Y-104247619D02*
X151038095Y-104200000D01*
X151133333Y-104152380D01*
X151371428Y-104152380D01*
X151466666Y-104200000D01*
X151514285Y-104247619D01*
X151561904Y-104342857D01*
X151561904Y-104438095D01*
X151514285Y-104580952D01*
X150942857Y-105152380D01*
X151561904Y-105152380D01*
X151895238Y-104152380D02*
X152561904Y-104152380D01*
X152133333Y-105152380D01*
X152895238Y-105104761D02*
X153038095Y-105152380D01*
X153276190Y-105152380D01*
X153371428Y-105104761D01*
X153419047Y-105057142D01*
X153466666Y-104961904D01*
X153466666Y-104866666D01*
X153419047Y-104771428D01*
X153371428Y-104723809D01*
X153276190Y-104676190D01*
X153085714Y-104628571D01*
X152990476Y-104580952D01*
X152942857Y-104533333D01*
X152895238Y-104438095D01*
X152895238Y-104342857D01*
X152942857Y-104247619D01*
X152990476Y-104200000D01*
X153085714Y-104152380D01*
X153323809Y-104152380D01*
X153466666Y-104200000D01*
D14*
X150573809Y-102247619D02*
X150550000Y-102295238D01*
X150502380Y-102342857D01*
X150430952Y-102414285D01*
X150407142Y-102461904D01*
X150407142Y-102509523D01*
X150526190Y-102485714D02*
X150502380Y-102533333D01*
X150454761Y-102580952D01*
X150359523Y-102604761D01*
X150192857Y-102604761D01*
X150097619Y-102580952D01*
X150050000Y-102533333D01*
X150026190Y-102485714D01*
X150026190Y-102390476D01*
X150050000Y-102342857D01*
X150097619Y-102295238D01*
X150192857Y-102271428D01*
X150359523Y-102271428D01*
X150454761Y-102295238D01*
X150502380Y-102342857D01*
X150526190Y-102390476D01*
X150526190Y-102485714D01*
X150526190Y-101795238D02*
X150526190Y-102080952D01*
X150526190Y-101938095D02*
X150026190Y-101938095D01*
X150097619Y-101985714D01*
X150145238Y-102033333D01*
X150169047Y-102080952D01*
%TO.C,J2*%
D11*
X225666666Y-101137142D02*
X225619047Y-101184761D01*
X225476190Y-101232380D01*
X225380952Y-101232380D01*
X225238095Y-101184761D01*
X225142857Y-101089523D01*
X225095238Y-100994285D01*
X225047619Y-100803809D01*
X225047619Y-100660952D01*
X225095238Y-100470476D01*
X225142857Y-100375238D01*
X225238095Y-100280000D01*
X225380952Y-100232380D01*
X225476190Y-100232380D01*
X225619047Y-100280000D01*
X225666666Y-100327619D01*
X226238095Y-101232380D02*
X226142857Y-101184761D01*
X226095238Y-101137142D01*
X226047619Y-101041904D01*
X226047619Y-100756190D01*
X226095238Y-100660952D01*
X226142857Y-100613333D01*
X226238095Y-100565714D01*
X226380952Y-100565714D01*
X226476190Y-100613333D01*
X226523809Y-100660952D01*
X226571428Y-100756190D01*
X226571428Y-101041904D01*
X226523809Y-101137142D01*
X226476190Y-101184761D01*
X226380952Y-101232380D01*
X226238095Y-101232380D01*
X227000000Y-100565714D02*
X227000000Y-101232380D01*
X227000000Y-100660952D02*
X227047619Y-100613333D01*
X227142857Y-100565714D01*
X227285714Y-100565714D01*
X227380952Y-100613333D01*
X227428571Y-100708571D01*
X227428571Y-101232380D01*
X227904761Y-100565714D02*
X227904761Y-101232380D01*
X227904761Y-100660952D02*
X227952380Y-100613333D01*
X228047619Y-100565714D01*
X228190476Y-100565714D01*
X228285714Y-100613333D01*
X228333333Y-100708571D01*
X228333333Y-101232380D01*
X228571428Y-101327619D02*
X229333333Y-101327619D01*
X229761904Y-100232380D02*
X229857142Y-100232380D01*
X229952380Y-100280000D01*
X230000000Y-100327619D01*
X230047619Y-100422857D01*
X230095238Y-100613333D01*
X230095238Y-100851428D01*
X230047619Y-101041904D01*
X230000000Y-101137142D01*
X229952380Y-101184761D01*
X229857142Y-101232380D01*
X229761904Y-101232380D01*
X229666666Y-101184761D01*
X229619047Y-101137142D01*
X229571428Y-101041904D01*
X229523809Y-100851428D01*
X229523809Y-100613333D01*
X229571428Y-100422857D01*
X229619047Y-100327619D01*
X229666666Y-100280000D01*
X229761904Y-100232380D01*
X231047619Y-101232380D02*
X230476190Y-101232380D01*
X230761904Y-101232380D02*
X230761904Y-100232380D01*
X230666666Y-100375238D01*
X230571428Y-100470476D01*
X230476190Y-100518095D01*
X231380952Y-101232380D02*
X231904761Y-100565714D01*
X231380952Y-100565714D02*
X231904761Y-101232380D01*
X232476190Y-100232380D02*
X232571428Y-100232380D01*
X232666666Y-100280000D01*
X232714285Y-100327619D01*
X232761904Y-100422857D01*
X232809523Y-100613333D01*
X232809523Y-100851428D01*
X232761904Y-101041904D01*
X232714285Y-101137142D01*
X232666666Y-101184761D01*
X232571428Y-101232380D01*
X232476190Y-101232380D01*
X232380952Y-101184761D01*
X232333333Y-101137142D01*
X232285714Y-101041904D01*
X232238095Y-100851428D01*
X232238095Y-100613333D01*
X232285714Y-100422857D01*
X232333333Y-100327619D01*
X232380952Y-100280000D01*
X232476190Y-100232380D01*
X233666666Y-100565714D02*
X233666666Y-101232380D01*
X233428571Y-100184761D02*
X233190476Y-100899047D01*
X233809523Y-100899047D01*
X233952380Y-101327619D02*
X234714285Y-101327619D01*
X234952380Y-101232380D02*
X234952380Y-100232380D01*
X235285714Y-100946666D01*
X235619047Y-100232380D01*
X235619047Y-101232380D01*
X236523809Y-101232380D02*
X236523809Y-100708571D01*
X236476190Y-100613333D01*
X236380952Y-100565714D01*
X236190476Y-100565714D01*
X236095238Y-100613333D01*
X236523809Y-101184761D02*
X236428571Y-101232380D01*
X236190476Y-101232380D01*
X236095238Y-101184761D01*
X236047619Y-101089523D01*
X236047619Y-100994285D01*
X236095238Y-100899047D01*
X236190476Y-100851428D01*
X236428571Y-100851428D01*
X236523809Y-100803809D01*
X237142857Y-101232380D02*
X237047619Y-101184761D01*
X237000000Y-101089523D01*
X237000000Y-100232380D01*
X237904761Y-101184761D02*
X237809523Y-101232380D01*
X237619047Y-101232380D01*
X237523809Y-101184761D01*
X237476190Y-101089523D01*
X237476190Y-100708571D01*
X237523809Y-100613333D01*
X237619047Y-100565714D01*
X237809523Y-100565714D01*
X237904761Y-100613333D01*
X237952380Y-100708571D01*
X237952380Y-100803809D01*
X237476190Y-100899047D01*
X230952380Y-94973333D02*
X231666666Y-94973333D01*
X231809523Y-95020952D01*
X231904761Y-95116190D01*
X231952380Y-95259047D01*
X231952380Y-95354285D01*
X231047619Y-94544761D02*
X231000000Y-94497142D01*
X230952380Y-94401904D01*
X230952380Y-94163809D01*
X231000000Y-94068571D01*
X231047619Y-94020952D01*
X231142857Y-93973333D01*
X231238095Y-93973333D01*
X231380952Y-94020952D01*
X231952380Y-94592380D01*
X231952380Y-93973333D01*
%TO.C,D2*%
X104792857Y-101152380D02*
X104459523Y-100676190D01*
X104221428Y-101152380D02*
X104221428Y-100152380D01*
X104602380Y-100152380D01*
X104697619Y-100200000D01*
X104745238Y-100247619D01*
X104792857Y-100342857D01*
X104792857Y-100485714D01*
X104745238Y-100580952D01*
X104697619Y-100628571D01*
X104602380Y-100676190D01*
X104221428Y-100676190D01*
X105554761Y-100628571D02*
X105697619Y-100676190D01*
X105745238Y-100723809D01*
X105792857Y-100819047D01*
X105792857Y-100961904D01*
X105745238Y-101057142D01*
X105697619Y-101104761D01*
X105602380Y-101152380D01*
X105221428Y-101152380D01*
X105221428Y-100152380D01*
X105554761Y-100152380D01*
X105650000Y-100200000D01*
X105697619Y-100247619D01*
X105745238Y-100342857D01*
X105745238Y-100438095D01*
X105697619Y-100533333D01*
X105650000Y-100580952D01*
X105554761Y-100628571D01*
X105221428Y-100628571D01*
X106126190Y-100152380D02*
X106792857Y-100152380D01*
X106364285Y-101152380D01*
X107650000Y-100152380D02*
X107173809Y-100152380D01*
X107126190Y-100628571D01*
X107173809Y-100580952D01*
X107269047Y-100533333D01*
X107507142Y-100533333D01*
X107602380Y-100580952D01*
X107650000Y-100628571D01*
X107697619Y-100723809D01*
X107697619Y-100961904D01*
X107650000Y-101057142D01*
X107602380Y-101104761D01*
X107507142Y-101152380D01*
X107269047Y-101152380D01*
X107173809Y-101104761D01*
X107126190Y-101057142D01*
X108650000Y-101152380D02*
X108078571Y-101152380D01*
X108364285Y-101152380D02*
X108364285Y-100152380D01*
X108269047Y-100295238D01*
X108173809Y-100390476D01*
X108078571Y-100438095D01*
X108935714Y-100152380D02*
X109269047Y-101152380D01*
X109602380Y-100152380D01*
X110364285Y-100485714D02*
X110364285Y-101152380D01*
X110126190Y-100104761D02*
X109888095Y-100819047D01*
X110507142Y-100819047D01*
X111078571Y-100152380D02*
X111173809Y-100152380D01*
X111269047Y-100200000D01*
X111316666Y-100247619D01*
X111364285Y-100342857D01*
X111411904Y-100533333D01*
X111411904Y-100771428D01*
X111364285Y-100961904D01*
X111316666Y-101057142D01*
X111269047Y-101104761D01*
X111173809Y-101152380D01*
X111078571Y-101152380D01*
X110983333Y-101104761D01*
X110935714Y-101057142D01*
X110888095Y-100961904D01*
X110840476Y-100771428D01*
X110840476Y-100533333D01*
X110888095Y-100342857D01*
X110935714Y-100247619D01*
X110983333Y-100200000D01*
X111078571Y-100152380D01*
X111697619Y-100152380D02*
X112269047Y-100152380D01*
X111983333Y-101152380D02*
X111983333Y-100152380D01*
X113126190Y-101152380D02*
X112554761Y-101152380D01*
X112840476Y-101152380D02*
X112840476Y-100152380D01*
X112745238Y-100295238D01*
X112650000Y-100390476D01*
X112554761Y-100438095D01*
X114078571Y-100200000D02*
X113983333Y-100152380D01*
X113840476Y-100152380D01*
X113697619Y-100200000D01*
X113602380Y-100295238D01*
X113554761Y-100390476D01*
X113507142Y-100580952D01*
X113507142Y-100723809D01*
X113554761Y-100914285D01*
X113602380Y-101009523D01*
X113697619Y-101104761D01*
X113840476Y-101152380D01*
X113935714Y-101152380D01*
X114078571Y-101104761D01*
X114126190Y-101057142D01*
X114126190Y-100723809D01*
X113935714Y-100723809D01*
X108311904Y-97402380D02*
X108311904Y-96402380D01*
X108550000Y-96402380D01*
X108692857Y-96450000D01*
X108788095Y-96545238D01*
X108835714Y-96640476D01*
X108883333Y-96830952D01*
X108883333Y-96973809D01*
X108835714Y-97164285D01*
X108788095Y-97259523D01*
X108692857Y-97354761D01*
X108550000Y-97402380D01*
X108311904Y-97402380D01*
X109264285Y-96497619D02*
X109311904Y-96450000D01*
X109407142Y-96402380D01*
X109645238Y-96402380D01*
X109740476Y-96450000D01*
X109788095Y-96497619D01*
X109835714Y-96592857D01*
X109835714Y-96688095D01*
X109788095Y-96830952D01*
X109216666Y-97402380D01*
X109835714Y-97402380D01*
%TO.C,D1*%
X124542857Y-109952380D02*
X124209523Y-109476190D01*
X123971428Y-109952380D02*
X123971428Y-108952380D01*
X124352380Y-108952380D01*
X124447619Y-109000000D01*
X124495238Y-109047619D01*
X124542857Y-109142857D01*
X124542857Y-109285714D01*
X124495238Y-109380952D01*
X124447619Y-109428571D01*
X124352380Y-109476190D01*
X123971428Y-109476190D01*
X125304761Y-109428571D02*
X125447619Y-109476190D01*
X125495238Y-109523809D01*
X125542857Y-109619047D01*
X125542857Y-109761904D01*
X125495238Y-109857142D01*
X125447619Y-109904761D01*
X125352380Y-109952380D01*
X124971428Y-109952380D01*
X124971428Y-108952380D01*
X125304761Y-108952380D01*
X125400000Y-109000000D01*
X125447619Y-109047619D01*
X125495238Y-109142857D01*
X125495238Y-109238095D01*
X125447619Y-109333333D01*
X125400000Y-109380952D01*
X125304761Y-109428571D01*
X124971428Y-109428571D01*
X125876190Y-108952380D02*
X126542857Y-108952380D01*
X126114285Y-109952380D01*
X127400000Y-108952380D02*
X126923809Y-108952380D01*
X126876190Y-109428571D01*
X126923809Y-109380952D01*
X127019047Y-109333333D01*
X127257142Y-109333333D01*
X127352380Y-109380952D01*
X127400000Y-109428571D01*
X127447619Y-109523809D01*
X127447619Y-109761904D01*
X127400000Y-109857142D01*
X127352380Y-109904761D01*
X127257142Y-109952380D01*
X127019047Y-109952380D01*
X126923809Y-109904761D01*
X126876190Y-109857142D01*
X128400000Y-109952380D02*
X127828571Y-109952380D01*
X128114285Y-109952380D02*
X128114285Y-108952380D01*
X128019047Y-109095238D01*
X127923809Y-109190476D01*
X127828571Y-109238095D01*
X128685714Y-108952380D02*
X129019047Y-109952380D01*
X129352380Y-108952380D01*
X130114285Y-109285714D02*
X130114285Y-109952380D01*
X129876190Y-108904761D02*
X129638095Y-109619047D01*
X130257142Y-109619047D01*
X130828571Y-108952380D02*
X130923809Y-108952380D01*
X131019047Y-109000000D01*
X131066666Y-109047619D01*
X131114285Y-109142857D01*
X131161904Y-109333333D01*
X131161904Y-109571428D01*
X131114285Y-109761904D01*
X131066666Y-109857142D01*
X131019047Y-109904761D01*
X130923809Y-109952380D01*
X130828571Y-109952380D01*
X130733333Y-109904761D01*
X130685714Y-109857142D01*
X130638095Y-109761904D01*
X130590476Y-109571428D01*
X130590476Y-109333333D01*
X130638095Y-109142857D01*
X130685714Y-109047619D01*
X130733333Y-109000000D01*
X130828571Y-108952380D01*
X131447619Y-108952380D02*
X132019047Y-108952380D01*
X131733333Y-109952380D02*
X131733333Y-108952380D01*
X132876190Y-109952380D02*
X132304761Y-109952380D01*
X132590476Y-109952380D02*
X132590476Y-108952380D01*
X132495238Y-109095238D01*
X132400000Y-109190476D01*
X132304761Y-109238095D01*
X133828571Y-109000000D02*
X133733333Y-108952380D01*
X133590476Y-108952380D01*
X133447619Y-109000000D01*
X133352380Y-109095238D01*
X133304761Y-109190476D01*
X133257142Y-109380952D01*
X133257142Y-109523809D01*
X133304761Y-109714285D01*
X133352380Y-109809523D01*
X133447619Y-109904761D01*
X133590476Y-109952380D01*
X133685714Y-109952380D01*
X133828571Y-109904761D01*
X133876190Y-109857142D01*
X133876190Y-109523809D01*
X133685714Y-109523809D01*
X128061904Y-106202380D02*
X128061904Y-105202380D01*
X128300000Y-105202380D01*
X128442857Y-105250000D01*
X128538095Y-105345238D01*
X128585714Y-105440476D01*
X128633333Y-105630952D01*
X128633333Y-105773809D01*
X128585714Y-105964285D01*
X128538095Y-106059523D01*
X128442857Y-106154761D01*
X128300000Y-106202380D01*
X128061904Y-106202380D01*
X129585714Y-106202380D02*
X129014285Y-106202380D01*
X129300000Y-106202380D02*
X129300000Y-105202380D01*
X129204761Y-105345238D01*
X129109523Y-105440476D01*
X129014285Y-105488095D01*
%TO.C,C4*%
X151822380Y-94782738D02*
X151822380Y-95354166D01*
X151822380Y-95068452D02*
X150822380Y-95068452D01*
X150965238Y-95163690D01*
X151060476Y-95258928D01*
X151108095Y-95354166D01*
X151155714Y-93925595D02*
X151822380Y-93925595D01*
X151155714Y-94354166D02*
X151679523Y-94354166D01*
X151774761Y-94306547D01*
X151822380Y-94211309D01*
X151822380Y-94068452D01*
X151774761Y-93973214D01*
X151727142Y-93925595D01*
X151298571Y-93116071D02*
X151298571Y-93449404D01*
X151822380Y-93449404D02*
X150822380Y-93449404D01*
X150822380Y-92973214D01*
D13*
X153228571Y-94270833D02*
X153252380Y-94294642D01*
X153276190Y-94366071D01*
X153276190Y-94413690D01*
X153252380Y-94485119D01*
X153204761Y-94532738D01*
X153157142Y-94556547D01*
X153061904Y-94580357D01*
X152990476Y-94580357D01*
X152895238Y-94556547D01*
X152847619Y-94532738D01*
X152800000Y-94485119D01*
X152776190Y-94413690D01*
X152776190Y-94366071D01*
X152800000Y-94294642D01*
X152823809Y-94270833D01*
X152942857Y-93842261D02*
X153276190Y-93842261D01*
X152752380Y-93961309D02*
X153109523Y-94080357D01*
X153109523Y-93770833D01*
%TO.C,C2*%
D11*
X152242261Y-92282380D02*
X151670833Y-92282380D01*
X151956547Y-92282380D02*
X151956547Y-91282380D01*
X151861309Y-91425238D01*
X151766071Y-91520476D01*
X151670833Y-91568095D01*
X153099404Y-91615714D02*
X153099404Y-92282380D01*
X152670833Y-91615714D02*
X152670833Y-92139523D01*
X152718452Y-92234761D01*
X152813690Y-92282380D01*
X152956547Y-92282380D01*
X153051785Y-92234761D01*
X153099404Y-92187142D01*
X153908928Y-91758571D02*
X153575595Y-91758571D01*
X153575595Y-92282380D02*
X153575595Y-91282380D01*
X154051785Y-91282380D01*
D13*
X152754166Y-90328571D02*
X152730357Y-90352380D01*
X152658928Y-90376190D01*
X152611309Y-90376190D01*
X152539880Y-90352380D01*
X152492261Y-90304761D01*
X152468452Y-90257142D01*
X152444642Y-90161904D01*
X152444642Y-90090476D01*
X152468452Y-89995238D01*
X152492261Y-89947619D01*
X152539880Y-89900000D01*
X152611309Y-89876190D01*
X152658928Y-89876190D01*
X152730357Y-89900000D01*
X152754166Y-89923809D01*
X152944642Y-89923809D02*
X152968452Y-89900000D01*
X153016071Y-89876190D01*
X153135119Y-89876190D01*
X153182738Y-89900000D01*
X153206547Y-89923809D01*
X153230357Y-89971428D01*
X153230357Y-90019047D01*
X153206547Y-90090476D01*
X152920833Y-90376190D01*
X153230357Y-90376190D01*
%TO.C,C1*%
D11*
X160232380Y-90107738D02*
X160232380Y-90679166D01*
X160232380Y-90393452D02*
X159232380Y-90393452D01*
X159375238Y-90488690D01*
X159470476Y-90583928D01*
X159518095Y-90679166D01*
X159565714Y-89250595D02*
X160232380Y-89250595D01*
X159565714Y-89679166D02*
X160089523Y-89679166D01*
X160184761Y-89631547D01*
X160232380Y-89536309D01*
X160232380Y-89393452D01*
X160184761Y-89298214D01*
X160137142Y-89250595D01*
X159708571Y-88441071D02*
X159708571Y-88774404D01*
X160232380Y-88774404D02*
X159232380Y-88774404D01*
X159232380Y-88298214D01*
D13*
X158278571Y-89595833D02*
X158302380Y-89619642D01*
X158326190Y-89691071D01*
X158326190Y-89738690D01*
X158302380Y-89810119D01*
X158254761Y-89857738D01*
X158207142Y-89881547D01*
X158111904Y-89905357D01*
X158040476Y-89905357D01*
X157945238Y-89881547D01*
X157897619Y-89857738D01*
X157850000Y-89810119D01*
X157826190Y-89738690D01*
X157826190Y-89691071D01*
X157850000Y-89619642D01*
X157873809Y-89595833D01*
X158326190Y-89119642D02*
X158326190Y-89405357D01*
X158326190Y-89262500D02*
X157826190Y-89262500D01*
X157897619Y-89310119D01*
X157945238Y-89357738D01*
X157969047Y-89405357D01*
%TD*%
M02*
