%TF.GenerationSoftware,KiCad,Pcbnew,5.1.9-1.fc33*%
%TF.CreationDate,2021-04-16T18:18:08+01:00*%
%TF.ProjectId,cryosub_top_v01,6372796f-7375-4625-9f74-6f705f763031,rev?*%
%TF.SameCoordinates,Original*%
%TF.FileFunction,Legend,Top*%
%TF.FilePolarity,Positive*%
%FSLAX46Y46*%
G04 Gerber Fmt 4.6, Leading zero omitted, Abs format (unit mm)*
G04 Created by KiCad (PCBNEW 5.1.9-1.fc33) date 2021-04-16 18:18:08*
%MOMM*%
%LPD*%
G01*
G04 APERTURE LIST*
%ADD10C,0.120000*%
%ADD11C,0.150000*%
%ADD12O,1.400000X1.400000*%
%ADD13C,1.400000*%
%ADD14C,1.500000*%
%ADD15C,3.000000*%
%ADD16O,1.900000X2.600000*%
%ADD17R,1.900000X2.600000*%
%ADD18R,10.800000X9.400000*%
%ADD19R,1.100000X4.600000*%
%ADD20R,6.400000X5.800000*%
%ADD21R,2.200000X1.200000*%
%ADD22R,0.900000X0.800000*%
%ADD23O,1.700000X1.700000*%
%ADD24R,1.700000X1.700000*%
%ADD25R,1.000000X1.000000*%
G04 APERTURE END LIST*
D10*
X151300000Y-96250000D02*
X151300000Y-95200000D01*
X153950000Y-97000000D02*
X151300000Y-96250000D01*
%TO.C,TH1*%
X225020095Y-107099359D02*
G75*
G02*
X225117133Y-105650000I-320095J749359D01*
G01*
%TO.C,R22*%
X157107776Y-103422500D02*
X157617224Y-103422500D01*
X157107776Y-102377500D02*
X157617224Y-102377500D01*
%TO.C,C6*%
X157211233Y-105010000D02*
X157503767Y-105010000D01*
X157211233Y-103990000D02*
X157503767Y-103990000D01*
%TO.C,C5*%
X120490000Y-91753733D02*
X120490000Y-92046267D01*
X121510000Y-91753733D02*
X121510000Y-92046267D01*
%TO.C,C3*%
X150790000Y-93411233D02*
X150790000Y-93703767D01*
X151810000Y-93411233D02*
X151810000Y-93703767D01*
%TO.C,C7*%
X120476248Y-88785000D02*
X120998752Y-88785000D01*
X120476248Y-87315000D02*
X120998752Y-87315000D01*
%TO.C,J1*%
X238700000Y-107535000D02*
X238700000Y-88165000D01*
X247830000Y-107535000D02*
X238700000Y-107535000D01*
X248830000Y-106535000D02*
X247830000Y-107535000D01*
X248830000Y-89165000D02*
X248830000Y-106535000D01*
X247830000Y-88165000D02*
X248830000Y-89165000D01*
X238700000Y-88165000D02*
X247830000Y-88165000D01*
%TO.C,R23*%
X157442224Y-92627500D02*
X156932776Y-92627500D01*
X157442224Y-93672500D02*
X156932776Y-93672500D01*
%TO.C,U1*%
X220730000Y-104230000D02*
X220730000Y-99170000D01*
X159650000Y-104230000D02*
X220730000Y-104230000D01*
X159650000Y-92110000D02*
X159650000Y-104230000D01*
X220730000Y-92110000D02*
X159650000Y-92110000D01*
X220730000Y-97170000D02*
X220730000Y-92110000D01*
X220730000Y-99170000D02*
G75*
G02*
X220730000Y-97170000I0J1000000D01*
G01*
%TO.C,TH3*%
X107065000Y-106472936D02*
X107065000Y-106927064D01*
X108535000Y-106472936D02*
X108535000Y-106927064D01*
%TO.C,TH2*%
X139565000Y-104422936D02*
X139565000Y-104877064D01*
X141035000Y-104422936D02*
X141035000Y-104877064D01*
%TO.C,R21*%
X126135000Y-92600000D02*
X126135000Y-91500000D01*
X124325000Y-92600000D02*
X126135000Y-92600000D01*
X124325000Y-94100000D02*
X124325000Y-92600000D01*
X132915000Y-92600000D02*
X132915000Y-87475000D01*
X134725000Y-92600000D02*
X132915000Y-92600000D01*
X134725000Y-94100000D02*
X134725000Y-92600000D01*
%TO.C,R20*%
X119082776Y-95772500D02*
X119592224Y-95772500D01*
X119082776Y-94727500D02*
X119592224Y-94727500D01*
%TO.C,R19*%
X109054724Y-95877500D02*
X108545276Y-95877500D01*
X109054724Y-96922500D02*
X108545276Y-96922500D01*
%TO.C,R18*%
X104927500Y-95682776D02*
X104927500Y-96192224D01*
X105972500Y-95682776D02*
X105972500Y-96192224D01*
%TO.C,R17*%
X107277500Y-102132776D02*
X107277500Y-102642224D01*
X108322500Y-102132776D02*
X108322500Y-102642224D01*
%TO.C,R16*%
X112077500Y-99457776D02*
X112077500Y-99967224D01*
X113122500Y-99457776D02*
X113122500Y-99967224D01*
%TO.C,R14*%
X113107776Y-108672500D02*
X113617224Y-108672500D01*
X113107776Y-107627500D02*
X113617224Y-107627500D01*
%TO.C,R12*%
X118977500Y-103032776D02*
X118977500Y-103542224D01*
X120022500Y-103032776D02*
X120022500Y-103542224D01*
%TO.C,R11*%
X115922500Y-99942224D02*
X115922500Y-99432776D01*
X114877500Y-99942224D02*
X114877500Y-99432776D01*
%TO.C,R10*%
X117177500Y-99332776D02*
X117177500Y-99842224D01*
X118222500Y-99332776D02*
X118222500Y-99842224D01*
%TO.C,R9*%
X148132776Y-97922500D02*
X148642224Y-97922500D01*
X148132776Y-96877500D02*
X148642224Y-96877500D01*
%TO.C,R8*%
X140027500Y-100307776D02*
X140027500Y-100817224D01*
X141072500Y-100307776D02*
X141072500Y-100817224D01*
%TO.C,R7*%
X144027500Y-97982776D02*
X144027500Y-98492224D01*
X145072500Y-97982776D02*
X145072500Y-98492224D01*
%TO.C,R5*%
X144207776Y-105922500D02*
X144717224Y-105922500D01*
X144207776Y-104877500D02*
X144717224Y-104877500D01*
%TO.C,R3*%
X151027500Y-98232776D02*
X151027500Y-98742224D01*
X152072500Y-98232776D02*
X152072500Y-98742224D01*
%TO.C,R2*%
X146777500Y-104232776D02*
X146777500Y-104742224D01*
X147822500Y-104232776D02*
X147822500Y-104742224D01*
%TO.C,R1*%
X147027500Y-99982776D02*
X147027500Y-100492224D01*
X148072500Y-99982776D02*
X148072500Y-100492224D01*
%TO.C,Q6*%
X114745000Y-87345000D02*
X115845000Y-87345000D01*
X114745000Y-87075000D02*
X114745000Y-87345000D01*
X113245000Y-87075000D02*
X114745000Y-87075000D01*
X114745000Y-93705000D02*
X117575000Y-93705000D01*
X114745000Y-93975000D02*
X114745000Y-93705000D01*
X113245000Y-93975000D02*
X114745000Y-93975000D01*
%TO.C,Q5*%
X112460000Y-105930000D02*
X111000000Y-105930000D01*
X112460000Y-102770000D02*
X110300000Y-102770000D01*
X112460000Y-102770000D02*
X112460000Y-103700000D01*
X112460000Y-105930000D02*
X112460000Y-105000000D01*
%TO.C,Q4*%
X116710000Y-105780000D02*
X115250000Y-105780000D01*
X116710000Y-102620000D02*
X114550000Y-102620000D01*
X116710000Y-102620000D02*
X116710000Y-103550000D01*
X116710000Y-105780000D02*
X116710000Y-104850000D01*
%TO.C,Q3*%
X146795000Y-89195000D02*
X147895000Y-89195000D01*
X146795000Y-88925000D02*
X146795000Y-89195000D01*
X145295000Y-88925000D02*
X146795000Y-88925000D01*
X146795000Y-95555000D02*
X149625000Y-95555000D01*
X146795000Y-95825000D02*
X146795000Y-95555000D01*
X145295000Y-95825000D02*
X146795000Y-95825000D01*
%TO.C,Q2*%
X144060000Y-104030000D02*
X142600000Y-104030000D01*
X144060000Y-100870000D02*
X141900000Y-100870000D01*
X144060000Y-100870000D02*
X144060000Y-101800000D01*
X144060000Y-104030000D02*
X144060000Y-103100000D01*
%TO.C,Q1*%
X151060000Y-103780000D02*
X149600000Y-103780000D01*
X151060000Y-100620000D02*
X148900000Y-100620000D01*
X151060000Y-100620000D02*
X151060000Y-101550000D01*
X151060000Y-103780000D02*
X151060000Y-102850000D01*
%TO.C,J2*%
X230170000Y-89500000D02*
X231500000Y-89500000D01*
X230170000Y-90830000D02*
X230170000Y-89500000D01*
X230170000Y-92100000D02*
X232830000Y-92100000D01*
X232830000Y-92100000D02*
X232830000Y-99780000D01*
X230170000Y-92100000D02*
X230170000Y-99780000D01*
X230170000Y-99780000D02*
X232830000Y-99780000D01*
%TO.C,D2*%
X107150000Y-97950000D02*
X110300000Y-97950000D01*
X107150000Y-99650000D02*
X110300000Y-99650000D01*
X107150000Y-97950000D02*
X107150000Y-99650000D01*
%TO.C,D1*%
X126900000Y-106750000D02*
X130050000Y-106750000D01*
X126900000Y-108450000D02*
X130050000Y-108450000D01*
X126900000Y-106750000D02*
X126900000Y-108450000D01*
%TO.C,C4*%
X152315000Y-93926248D02*
X152315000Y-94448752D01*
X153785000Y-93926248D02*
X153785000Y-94448752D01*
%TO.C,C2*%
X152576248Y-90885000D02*
X153098752Y-90885000D01*
X152576248Y-89415000D02*
X153098752Y-89415000D01*
%TO.C,C1*%
X158835000Y-89773752D02*
X158835000Y-89251248D01*
X157365000Y-89773752D02*
X157365000Y-89251248D01*
%TO.C,TH1*%
D11*
X224364285Y-103882380D02*
X224935714Y-103882380D01*
X224650000Y-104882380D02*
X224650000Y-103882380D01*
X225269047Y-104882380D02*
X225269047Y-103882380D01*
X225269047Y-104358571D02*
X225840476Y-104358571D01*
X225840476Y-104882380D02*
X225840476Y-103882380D01*
X226840476Y-104882380D02*
X226269047Y-104882380D01*
X226554761Y-104882380D02*
X226554761Y-103882380D01*
X226459523Y-104025238D01*
X226364285Y-104120476D01*
X226269047Y-104168095D01*
%TO.C,R22*%
X156719642Y-101922380D02*
X156386309Y-101446190D01*
X156148214Y-101922380D02*
X156148214Y-100922380D01*
X156529166Y-100922380D01*
X156624404Y-100970000D01*
X156672023Y-101017619D01*
X156719642Y-101112857D01*
X156719642Y-101255714D01*
X156672023Y-101350952D01*
X156624404Y-101398571D01*
X156529166Y-101446190D01*
X156148214Y-101446190D01*
X157100595Y-101017619D02*
X157148214Y-100970000D01*
X157243452Y-100922380D01*
X157481547Y-100922380D01*
X157576785Y-100970000D01*
X157624404Y-101017619D01*
X157672023Y-101112857D01*
X157672023Y-101208095D01*
X157624404Y-101350952D01*
X157052976Y-101922380D01*
X157672023Y-101922380D01*
X158052976Y-101017619D02*
X158100595Y-100970000D01*
X158195833Y-100922380D01*
X158433928Y-100922380D01*
X158529166Y-100970000D01*
X158576785Y-101017619D01*
X158624404Y-101112857D01*
X158624404Y-101208095D01*
X158576785Y-101350952D01*
X158005357Y-101922380D01*
X158624404Y-101922380D01*
%TO.C,C6*%
X157083333Y-106357142D02*
X157035714Y-106404761D01*
X156892857Y-106452380D01*
X156797619Y-106452380D01*
X156654761Y-106404761D01*
X156559523Y-106309523D01*
X156511904Y-106214285D01*
X156464285Y-106023809D01*
X156464285Y-105880952D01*
X156511904Y-105690476D01*
X156559523Y-105595238D01*
X156654761Y-105500000D01*
X156797619Y-105452380D01*
X156892857Y-105452380D01*
X157035714Y-105500000D01*
X157083333Y-105547619D01*
X157940476Y-105452380D02*
X157750000Y-105452380D01*
X157654761Y-105500000D01*
X157607142Y-105547619D01*
X157511904Y-105690476D01*
X157464285Y-105880952D01*
X157464285Y-106261904D01*
X157511904Y-106357142D01*
X157559523Y-106404761D01*
X157654761Y-106452380D01*
X157845238Y-106452380D01*
X157940476Y-106404761D01*
X157988095Y-106357142D01*
X158035714Y-106261904D01*
X158035714Y-106023809D01*
X157988095Y-105928571D01*
X157940476Y-105880952D01*
X157845238Y-105833333D01*
X157654761Y-105833333D01*
X157559523Y-105880952D01*
X157511904Y-105928571D01*
X157464285Y-106023809D01*
%TO.C,C5*%
X122787142Y-92066666D02*
X122834761Y-92114285D01*
X122882380Y-92257142D01*
X122882380Y-92352380D01*
X122834761Y-92495238D01*
X122739523Y-92590476D01*
X122644285Y-92638095D01*
X122453809Y-92685714D01*
X122310952Y-92685714D01*
X122120476Y-92638095D01*
X122025238Y-92590476D01*
X121930000Y-92495238D01*
X121882380Y-92352380D01*
X121882380Y-92257142D01*
X121930000Y-92114285D01*
X121977619Y-92066666D01*
X121882380Y-91161904D02*
X121882380Y-91638095D01*
X122358571Y-91685714D01*
X122310952Y-91638095D01*
X122263333Y-91542857D01*
X122263333Y-91304761D01*
X122310952Y-91209523D01*
X122358571Y-91161904D01*
X122453809Y-91114285D01*
X122691904Y-91114285D01*
X122787142Y-91161904D01*
X122834761Y-91209523D01*
X122882380Y-91304761D01*
X122882380Y-91542857D01*
X122834761Y-91638095D01*
X122787142Y-91685714D01*
%TO.C,C3*%
X154833333Y-97357142D02*
X154785714Y-97404761D01*
X154642857Y-97452380D01*
X154547619Y-97452380D01*
X154404761Y-97404761D01*
X154309523Y-97309523D01*
X154261904Y-97214285D01*
X154214285Y-97023809D01*
X154214285Y-96880952D01*
X154261904Y-96690476D01*
X154309523Y-96595238D01*
X154404761Y-96500000D01*
X154547619Y-96452380D01*
X154642857Y-96452380D01*
X154785714Y-96500000D01*
X154833333Y-96547619D01*
X155166666Y-96452380D02*
X155785714Y-96452380D01*
X155452380Y-96833333D01*
X155595238Y-96833333D01*
X155690476Y-96880952D01*
X155738095Y-96928571D01*
X155785714Y-97023809D01*
X155785714Y-97261904D01*
X155738095Y-97357142D01*
X155690476Y-97404761D01*
X155595238Y-97452380D01*
X155309523Y-97452380D01*
X155214285Y-97404761D01*
X155166666Y-97357142D01*
%TO.C,C7*%
X120570833Y-86727142D02*
X120523214Y-86774761D01*
X120380357Y-86822380D01*
X120285119Y-86822380D01*
X120142261Y-86774761D01*
X120047023Y-86679523D01*
X119999404Y-86584285D01*
X119951785Y-86393809D01*
X119951785Y-86250952D01*
X119999404Y-86060476D01*
X120047023Y-85965238D01*
X120142261Y-85870000D01*
X120285119Y-85822380D01*
X120380357Y-85822380D01*
X120523214Y-85870000D01*
X120570833Y-85917619D01*
X120904166Y-85822380D02*
X121570833Y-85822380D01*
X121142261Y-86822380D01*
%TO.C,J1*%
X249372380Y-98183333D02*
X250086666Y-98183333D01*
X250229523Y-98230952D01*
X250324761Y-98326190D01*
X250372380Y-98469047D01*
X250372380Y-98564285D01*
X250372380Y-97183333D02*
X250372380Y-97754761D01*
X250372380Y-97469047D02*
X249372380Y-97469047D01*
X249515238Y-97564285D01*
X249610476Y-97659523D01*
X249658095Y-97754761D01*
%TO.C,R23*%
X156544642Y-95032380D02*
X156211309Y-94556190D01*
X155973214Y-95032380D02*
X155973214Y-94032380D01*
X156354166Y-94032380D01*
X156449404Y-94080000D01*
X156497023Y-94127619D01*
X156544642Y-94222857D01*
X156544642Y-94365714D01*
X156497023Y-94460952D01*
X156449404Y-94508571D01*
X156354166Y-94556190D01*
X155973214Y-94556190D01*
X156925595Y-94127619D02*
X156973214Y-94080000D01*
X157068452Y-94032380D01*
X157306547Y-94032380D01*
X157401785Y-94080000D01*
X157449404Y-94127619D01*
X157497023Y-94222857D01*
X157497023Y-94318095D01*
X157449404Y-94460952D01*
X156877976Y-95032380D01*
X157497023Y-95032380D01*
X157830357Y-94032380D02*
X158449404Y-94032380D01*
X158116071Y-94413333D01*
X158258928Y-94413333D01*
X158354166Y-94460952D01*
X158401785Y-94508571D01*
X158449404Y-94603809D01*
X158449404Y-94841904D01*
X158401785Y-94937142D01*
X158354166Y-94984761D01*
X158258928Y-95032380D01*
X157973214Y-95032380D01*
X157877976Y-94984761D01*
X157830357Y-94937142D01*
%TO.C,U1*%
X221182380Y-98931904D02*
X221991904Y-98931904D01*
X222087142Y-98884285D01*
X222134761Y-98836666D01*
X222182380Y-98741428D01*
X222182380Y-98550952D01*
X222134761Y-98455714D01*
X222087142Y-98408095D01*
X221991904Y-98360476D01*
X221182380Y-98360476D01*
X222182380Y-97360476D02*
X222182380Y-97931904D01*
X222182380Y-97646190D02*
X221182380Y-97646190D01*
X221325238Y-97741428D01*
X221420476Y-97836666D01*
X221468095Y-97931904D01*
%TO.C,TH3*%
X105652380Y-108085714D02*
X105652380Y-107514285D01*
X106652380Y-107800000D02*
X105652380Y-107800000D01*
X106652380Y-107180952D02*
X105652380Y-107180952D01*
X106128571Y-107180952D02*
X106128571Y-106609523D01*
X106652380Y-106609523D02*
X105652380Y-106609523D01*
X105652380Y-106228571D02*
X105652380Y-105609523D01*
X106033333Y-105942857D01*
X106033333Y-105800000D01*
X106080952Y-105704761D01*
X106128571Y-105657142D01*
X106223809Y-105609523D01*
X106461904Y-105609523D01*
X106557142Y-105657142D01*
X106604761Y-105704761D01*
X106652380Y-105800000D01*
X106652380Y-106085714D01*
X106604761Y-106180952D01*
X106557142Y-106228571D01*
%TO.C,TH2*%
X137852380Y-105985714D02*
X137852380Y-105414285D01*
X138852380Y-105700000D02*
X137852380Y-105700000D01*
X138852380Y-105080952D02*
X137852380Y-105080952D01*
X138328571Y-105080952D02*
X138328571Y-104509523D01*
X138852380Y-104509523D02*
X137852380Y-104509523D01*
X137947619Y-104080952D02*
X137900000Y-104033333D01*
X137852380Y-103938095D01*
X137852380Y-103700000D01*
X137900000Y-103604761D01*
X137947619Y-103557142D01*
X138042857Y-103509523D01*
X138138095Y-103509523D01*
X138280952Y-103557142D01*
X138852380Y-104128571D01*
X138852380Y-103509523D01*
%TO.C,R21*%
X136627380Y-96192857D02*
X136151190Y-96526190D01*
X136627380Y-96764285D02*
X135627380Y-96764285D01*
X135627380Y-96383333D01*
X135675000Y-96288095D01*
X135722619Y-96240476D01*
X135817857Y-96192857D01*
X135960714Y-96192857D01*
X136055952Y-96240476D01*
X136103571Y-96288095D01*
X136151190Y-96383333D01*
X136151190Y-96764285D01*
X135722619Y-95811904D02*
X135675000Y-95764285D01*
X135627380Y-95669047D01*
X135627380Y-95430952D01*
X135675000Y-95335714D01*
X135722619Y-95288095D01*
X135817857Y-95240476D01*
X135913095Y-95240476D01*
X136055952Y-95288095D01*
X136627380Y-95859523D01*
X136627380Y-95240476D01*
X136627380Y-94288095D02*
X136627380Y-94859523D01*
X136627380Y-94573809D02*
X135627380Y-94573809D01*
X135770238Y-94669047D01*
X135865476Y-94764285D01*
X135913095Y-94859523D01*
%TO.C,R20*%
X118807142Y-97252380D02*
X118473809Y-96776190D01*
X118235714Y-97252380D02*
X118235714Y-96252380D01*
X118616666Y-96252380D01*
X118711904Y-96300000D01*
X118759523Y-96347619D01*
X118807142Y-96442857D01*
X118807142Y-96585714D01*
X118759523Y-96680952D01*
X118711904Y-96728571D01*
X118616666Y-96776190D01*
X118235714Y-96776190D01*
X119188095Y-96347619D02*
X119235714Y-96300000D01*
X119330952Y-96252380D01*
X119569047Y-96252380D01*
X119664285Y-96300000D01*
X119711904Y-96347619D01*
X119759523Y-96442857D01*
X119759523Y-96538095D01*
X119711904Y-96680952D01*
X119140476Y-97252380D01*
X119759523Y-97252380D01*
X120378571Y-96252380D02*
X120473809Y-96252380D01*
X120569047Y-96300000D01*
X120616666Y-96347619D01*
X120664285Y-96442857D01*
X120711904Y-96633333D01*
X120711904Y-96871428D01*
X120664285Y-97061904D01*
X120616666Y-97157142D01*
X120569047Y-97204761D01*
X120473809Y-97252380D01*
X120378571Y-97252380D01*
X120283333Y-97204761D01*
X120235714Y-97157142D01*
X120188095Y-97061904D01*
X120140476Y-96871428D01*
X120140476Y-96633333D01*
X120188095Y-96442857D01*
X120235714Y-96347619D01*
X120283333Y-96300000D01*
X120378571Y-96252380D01*
%TO.C,R19*%
X104807142Y-99652380D02*
X104473809Y-99176190D01*
X104235714Y-99652380D02*
X104235714Y-98652380D01*
X104616666Y-98652380D01*
X104711904Y-98700000D01*
X104759523Y-98747619D01*
X104807142Y-98842857D01*
X104807142Y-98985714D01*
X104759523Y-99080952D01*
X104711904Y-99128571D01*
X104616666Y-99176190D01*
X104235714Y-99176190D01*
X105759523Y-99652380D02*
X105188095Y-99652380D01*
X105473809Y-99652380D02*
X105473809Y-98652380D01*
X105378571Y-98795238D01*
X105283333Y-98890476D01*
X105188095Y-98938095D01*
X106235714Y-99652380D02*
X106426190Y-99652380D01*
X106521428Y-99604761D01*
X106569047Y-99557142D01*
X106664285Y-99414285D01*
X106711904Y-99223809D01*
X106711904Y-98842857D01*
X106664285Y-98747619D01*
X106616666Y-98700000D01*
X106521428Y-98652380D01*
X106330952Y-98652380D01*
X106235714Y-98700000D01*
X106188095Y-98747619D01*
X106140476Y-98842857D01*
X106140476Y-99080952D01*
X106188095Y-99176190D01*
X106235714Y-99223809D01*
X106330952Y-99271428D01*
X106521428Y-99271428D01*
X106616666Y-99223809D01*
X106664285Y-99176190D01*
X106711904Y-99080952D01*
%TO.C,R18*%
X104352380Y-96842857D02*
X103876190Y-97176190D01*
X104352380Y-97414285D02*
X103352380Y-97414285D01*
X103352380Y-97033333D01*
X103400000Y-96938095D01*
X103447619Y-96890476D01*
X103542857Y-96842857D01*
X103685714Y-96842857D01*
X103780952Y-96890476D01*
X103828571Y-96938095D01*
X103876190Y-97033333D01*
X103876190Y-97414285D01*
X104352380Y-95890476D02*
X104352380Y-96461904D01*
X104352380Y-96176190D02*
X103352380Y-96176190D01*
X103495238Y-96271428D01*
X103590476Y-96366666D01*
X103638095Y-96461904D01*
X103780952Y-95319047D02*
X103733333Y-95414285D01*
X103685714Y-95461904D01*
X103590476Y-95509523D01*
X103542857Y-95509523D01*
X103447619Y-95461904D01*
X103400000Y-95414285D01*
X103352380Y-95319047D01*
X103352380Y-95128571D01*
X103400000Y-95033333D01*
X103447619Y-94985714D01*
X103542857Y-94938095D01*
X103590476Y-94938095D01*
X103685714Y-94985714D01*
X103733333Y-95033333D01*
X103780952Y-95128571D01*
X103780952Y-95319047D01*
X103828571Y-95414285D01*
X103876190Y-95461904D01*
X103971428Y-95509523D01*
X104161904Y-95509523D01*
X104257142Y-95461904D01*
X104304761Y-95414285D01*
X104352380Y-95319047D01*
X104352380Y-95128571D01*
X104304761Y-95033333D01*
X104257142Y-94985714D01*
X104161904Y-94938095D01*
X103971428Y-94938095D01*
X103876190Y-94985714D01*
X103828571Y-95033333D01*
X103780952Y-95128571D01*
%TO.C,R17*%
X106752380Y-103030357D02*
X106276190Y-103363690D01*
X106752380Y-103601785D02*
X105752380Y-103601785D01*
X105752380Y-103220833D01*
X105800000Y-103125595D01*
X105847619Y-103077976D01*
X105942857Y-103030357D01*
X106085714Y-103030357D01*
X106180952Y-103077976D01*
X106228571Y-103125595D01*
X106276190Y-103220833D01*
X106276190Y-103601785D01*
X106752380Y-102077976D02*
X106752380Y-102649404D01*
X106752380Y-102363690D02*
X105752380Y-102363690D01*
X105895238Y-102458928D01*
X105990476Y-102554166D01*
X106038095Y-102649404D01*
X105752380Y-101744642D02*
X105752380Y-101077976D01*
X106752380Y-101506547D01*
%TO.C,R16*%
X113002380Y-97192857D02*
X112526190Y-97526190D01*
X113002380Y-97764285D02*
X112002380Y-97764285D01*
X112002380Y-97383333D01*
X112050000Y-97288095D01*
X112097619Y-97240476D01*
X112192857Y-97192857D01*
X112335714Y-97192857D01*
X112430952Y-97240476D01*
X112478571Y-97288095D01*
X112526190Y-97383333D01*
X112526190Y-97764285D01*
X113002380Y-96240476D02*
X113002380Y-96811904D01*
X113002380Y-96526190D02*
X112002380Y-96526190D01*
X112145238Y-96621428D01*
X112240476Y-96716666D01*
X112288095Y-96811904D01*
X112002380Y-95383333D02*
X112002380Y-95573809D01*
X112050000Y-95669047D01*
X112097619Y-95716666D01*
X112240476Y-95811904D01*
X112430952Y-95859523D01*
X112811904Y-95859523D01*
X112907142Y-95811904D01*
X112954761Y-95764285D01*
X113002380Y-95669047D01*
X113002380Y-95478571D01*
X112954761Y-95383333D01*
X112907142Y-95335714D01*
X112811904Y-95288095D01*
X112573809Y-95288095D01*
X112478571Y-95335714D01*
X112430952Y-95383333D01*
X112383333Y-95478571D01*
X112383333Y-95669047D01*
X112430952Y-95764285D01*
X112478571Y-95811904D01*
X112573809Y-95859523D01*
%TO.C,R14*%
X115857142Y-108902380D02*
X115523809Y-108426190D01*
X115285714Y-108902380D02*
X115285714Y-107902380D01*
X115666666Y-107902380D01*
X115761904Y-107950000D01*
X115809523Y-107997619D01*
X115857142Y-108092857D01*
X115857142Y-108235714D01*
X115809523Y-108330952D01*
X115761904Y-108378571D01*
X115666666Y-108426190D01*
X115285714Y-108426190D01*
X116809523Y-108902380D02*
X116238095Y-108902380D01*
X116523809Y-108902380D02*
X116523809Y-107902380D01*
X116428571Y-108045238D01*
X116333333Y-108140476D01*
X116238095Y-108188095D01*
X117666666Y-108235714D02*
X117666666Y-108902380D01*
X117428571Y-107854761D02*
X117190476Y-108569047D01*
X117809523Y-108569047D01*
%TO.C,R12*%
X121382380Y-103930357D02*
X120906190Y-104263690D01*
X121382380Y-104501785D02*
X120382380Y-104501785D01*
X120382380Y-104120833D01*
X120430000Y-104025595D01*
X120477619Y-103977976D01*
X120572857Y-103930357D01*
X120715714Y-103930357D01*
X120810952Y-103977976D01*
X120858571Y-104025595D01*
X120906190Y-104120833D01*
X120906190Y-104501785D01*
X121382380Y-102977976D02*
X121382380Y-103549404D01*
X121382380Y-103263690D02*
X120382380Y-103263690D01*
X120525238Y-103358928D01*
X120620476Y-103454166D01*
X120668095Y-103549404D01*
X120477619Y-102597023D02*
X120430000Y-102549404D01*
X120382380Y-102454166D01*
X120382380Y-102216071D01*
X120430000Y-102120833D01*
X120477619Y-102073214D01*
X120572857Y-102025595D01*
X120668095Y-102025595D01*
X120810952Y-102073214D01*
X121382380Y-102644642D01*
X121382380Y-102025595D01*
%TO.C,R11*%
X115852380Y-97242857D02*
X115376190Y-97576190D01*
X115852380Y-97814285D02*
X114852380Y-97814285D01*
X114852380Y-97433333D01*
X114900000Y-97338095D01*
X114947619Y-97290476D01*
X115042857Y-97242857D01*
X115185714Y-97242857D01*
X115280952Y-97290476D01*
X115328571Y-97338095D01*
X115376190Y-97433333D01*
X115376190Y-97814285D01*
X115852380Y-96290476D02*
X115852380Y-96861904D01*
X115852380Y-96576190D02*
X114852380Y-96576190D01*
X114995238Y-96671428D01*
X115090476Y-96766666D01*
X115138095Y-96861904D01*
X115852380Y-95338095D02*
X115852380Y-95909523D01*
X115852380Y-95623809D02*
X114852380Y-95623809D01*
X114995238Y-95719047D01*
X115090476Y-95814285D01*
X115138095Y-95909523D01*
%TO.C,R10*%
X119582380Y-100230357D02*
X119106190Y-100563690D01*
X119582380Y-100801785D02*
X118582380Y-100801785D01*
X118582380Y-100420833D01*
X118630000Y-100325595D01*
X118677619Y-100277976D01*
X118772857Y-100230357D01*
X118915714Y-100230357D01*
X119010952Y-100277976D01*
X119058571Y-100325595D01*
X119106190Y-100420833D01*
X119106190Y-100801785D01*
X119582380Y-99277976D02*
X119582380Y-99849404D01*
X119582380Y-99563690D02*
X118582380Y-99563690D01*
X118725238Y-99658928D01*
X118820476Y-99754166D01*
X118868095Y-99849404D01*
X118582380Y-98658928D02*
X118582380Y-98563690D01*
X118630000Y-98468452D01*
X118677619Y-98420833D01*
X118772857Y-98373214D01*
X118963333Y-98325595D01*
X119201428Y-98325595D01*
X119391904Y-98373214D01*
X119487142Y-98420833D01*
X119534761Y-98468452D01*
X119582380Y-98563690D01*
X119582380Y-98658928D01*
X119534761Y-98754166D01*
X119487142Y-98801785D01*
X119391904Y-98849404D01*
X119201428Y-98897023D01*
X118963333Y-98897023D01*
X118772857Y-98849404D01*
X118677619Y-98801785D01*
X118630000Y-98754166D01*
X118582380Y-98658928D01*
%TO.C,R9*%
X148333333Y-96602380D02*
X148000000Y-96126190D01*
X147761904Y-96602380D02*
X147761904Y-95602380D01*
X148142857Y-95602380D01*
X148238095Y-95650000D01*
X148285714Y-95697619D01*
X148333333Y-95792857D01*
X148333333Y-95935714D01*
X148285714Y-96030952D01*
X148238095Y-96078571D01*
X148142857Y-96126190D01*
X147761904Y-96126190D01*
X148809523Y-96602380D02*
X149000000Y-96602380D01*
X149095238Y-96554761D01*
X149142857Y-96507142D01*
X149238095Y-96364285D01*
X149285714Y-96173809D01*
X149285714Y-95792857D01*
X149238095Y-95697619D01*
X149190476Y-95650000D01*
X149095238Y-95602380D01*
X148904761Y-95602380D01*
X148809523Y-95650000D01*
X148761904Y-95697619D01*
X148714285Y-95792857D01*
X148714285Y-96030952D01*
X148761904Y-96126190D01*
X148809523Y-96173809D01*
X148904761Y-96221428D01*
X149095238Y-96221428D01*
X149190476Y-96173809D01*
X149238095Y-96126190D01*
X149285714Y-96030952D01*
%TO.C,R8*%
X139452380Y-100966666D02*
X138976190Y-101300000D01*
X139452380Y-101538095D02*
X138452380Y-101538095D01*
X138452380Y-101157142D01*
X138500000Y-101061904D01*
X138547619Y-101014285D01*
X138642857Y-100966666D01*
X138785714Y-100966666D01*
X138880952Y-101014285D01*
X138928571Y-101061904D01*
X138976190Y-101157142D01*
X138976190Y-101538095D01*
X138880952Y-100395238D02*
X138833333Y-100490476D01*
X138785714Y-100538095D01*
X138690476Y-100585714D01*
X138642857Y-100585714D01*
X138547619Y-100538095D01*
X138500000Y-100490476D01*
X138452380Y-100395238D01*
X138452380Y-100204761D01*
X138500000Y-100109523D01*
X138547619Y-100061904D01*
X138642857Y-100014285D01*
X138690476Y-100014285D01*
X138785714Y-100061904D01*
X138833333Y-100109523D01*
X138880952Y-100204761D01*
X138880952Y-100395238D01*
X138928571Y-100490476D01*
X138976190Y-100538095D01*
X139071428Y-100585714D01*
X139261904Y-100585714D01*
X139357142Y-100538095D01*
X139404761Y-100490476D01*
X139452380Y-100395238D01*
X139452380Y-100204761D01*
X139404761Y-100109523D01*
X139357142Y-100061904D01*
X139261904Y-100014285D01*
X139071428Y-100014285D01*
X138976190Y-100061904D01*
X138928571Y-100109523D01*
X138880952Y-100204761D01*
%TO.C,R7*%
X146432380Y-98404166D02*
X145956190Y-98737500D01*
X146432380Y-98975595D02*
X145432380Y-98975595D01*
X145432380Y-98594642D01*
X145480000Y-98499404D01*
X145527619Y-98451785D01*
X145622857Y-98404166D01*
X145765714Y-98404166D01*
X145860952Y-98451785D01*
X145908571Y-98499404D01*
X145956190Y-98594642D01*
X145956190Y-98975595D01*
X145432380Y-98070833D02*
X145432380Y-97404166D01*
X146432380Y-97832738D01*
%TO.C,R5*%
X144233333Y-107752380D02*
X143900000Y-107276190D01*
X143661904Y-107752380D02*
X143661904Y-106752380D01*
X144042857Y-106752380D01*
X144138095Y-106800000D01*
X144185714Y-106847619D01*
X144233333Y-106942857D01*
X144233333Y-107085714D01*
X144185714Y-107180952D01*
X144138095Y-107228571D01*
X144042857Y-107276190D01*
X143661904Y-107276190D01*
X145138095Y-106752380D02*
X144661904Y-106752380D01*
X144614285Y-107228571D01*
X144661904Y-107180952D01*
X144757142Y-107133333D01*
X144995238Y-107133333D01*
X145090476Y-107180952D01*
X145138095Y-107228571D01*
X145185714Y-107323809D01*
X145185714Y-107561904D01*
X145138095Y-107657142D01*
X145090476Y-107704761D01*
X144995238Y-107752380D01*
X144757142Y-107752380D01*
X144661904Y-107704761D01*
X144614285Y-107657142D01*
%TO.C,R3*%
X153432380Y-98654166D02*
X152956190Y-98987500D01*
X153432380Y-99225595D02*
X152432380Y-99225595D01*
X152432380Y-98844642D01*
X152480000Y-98749404D01*
X152527619Y-98701785D01*
X152622857Y-98654166D01*
X152765714Y-98654166D01*
X152860952Y-98701785D01*
X152908571Y-98749404D01*
X152956190Y-98844642D01*
X152956190Y-99225595D01*
X152432380Y-98320833D02*
X152432380Y-97701785D01*
X152813333Y-98035119D01*
X152813333Y-97892261D01*
X152860952Y-97797023D01*
X152908571Y-97749404D01*
X153003809Y-97701785D01*
X153241904Y-97701785D01*
X153337142Y-97749404D01*
X153384761Y-97797023D01*
X153432380Y-97892261D01*
X153432380Y-98177976D01*
X153384761Y-98273214D01*
X153337142Y-98320833D01*
%TO.C,R2*%
X149302380Y-105316666D02*
X148826190Y-105650000D01*
X149302380Y-105888095D02*
X148302380Y-105888095D01*
X148302380Y-105507142D01*
X148350000Y-105411904D01*
X148397619Y-105364285D01*
X148492857Y-105316666D01*
X148635714Y-105316666D01*
X148730952Y-105364285D01*
X148778571Y-105411904D01*
X148826190Y-105507142D01*
X148826190Y-105888095D01*
X148397619Y-104935714D02*
X148350000Y-104888095D01*
X148302380Y-104792857D01*
X148302380Y-104554761D01*
X148350000Y-104459523D01*
X148397619Y-104411904D01*
X148492857Y-104364285D01*
X148588095Y-104364285D01*
X148730952Y-104411904D01*
X149302380Y-104983333D01*
X149302380Y-104364285D01*
%TO.C,R1*%
X149602380Y-99266666D02*
X149126190Y-99600000D01*
X149602380Y-99838095D02*
X148602380Y-99838095D01*
X148602380Y-99457142D01*
X148650000Y-99361904D01*
X148697619Y-99314285D01*
X148792857Y-99266666D01*
X148935714Y-99266666D01*
X149030952Y-99314285D01*
X149078571Y-99361904D01*
X149126190Y-99457142D01*
X149126190Y-99838095D01*
X149602380Y-98314285D02*
X149602380Y-98885714D01*
X149602380Y-98600000D02*
X148602380Y-98600000D01*
X148745238Y-98695238D01*
X148840476Y-98790476D01*
X148888095Y-98885714D01*
%TO.C,Q6*%
X105354761Y-91247619D02*
X105259523Y-91200000D01*
X105164285Y-91104761D01*
X105021428Y-90961904D01*
X104926190Y-90914285D01*
X104830952Y-90914285D01*
X104878571Y-91152380D02*
X104783333Y-91104761D01*
X104688095Y-91009523D01*
X104640476Y-90819047D01*
X104640476Y-90485714D01*
X104688095Y-90295238D01*
X104783333Y-90200000D01*
X104878571Y-90152380D01*
X105069047Y-90152380D01*
X105164285Y-90200000D01*
X105259523Y-90295238D01*
X105307142Y-90485714D01*
X105307142Y-90819047D01*
X105259523Y-91009523D01*
X105164285Y-91104761D01*
X105069047Y-91152380D01*
X104878571Y-91152380D01*
X106164285Y-90152380D02*
X105973809Y-90152380D01*
X105878571Y-90200000D01*
X105830952Y-90247619D01*
X105735714Y-90390476D01*
X105688095Y-90580952D01*
X105688095Y-90961904D01*
X105735714Y-91057142D01*
X105783333Y-91104761D01*
X105878571Y-91152380D01*
X106069047Y-91152380D01*
X106164285Y-91104761D01*
X106211904Y-91057142D01*
X106259523Y-90961904D01*
X106259523Y-90723809D01*
X106211904Y-90628571D01*
X106164285Y-90580952D01*
X106069047Y-90533333D01*
X105878571Y-90533333D01*
X105783333Y-90580952D01*
X105735714Y-90628571D01*
X105688095Y-90723809D01*
%TO.C,Q5*%
X110354761Y-102447619D02*
X110259523Y-102400000D01*
X110164285Y-102304761D01*
X110021428Y-102161904D01*
X109926190Y-102114285D01*
X109830952Y-102114285D01*
X109878571Y-102352380D02*
X109783333Y-102304761D01*
X109688095Y-102209523D01*
X109640476Y-102019047D01*
X109640476Y-101685714D01*
X109688095Y-101495238D01*
X109783333Y-101400000D01*
X109878571Y-101352380D01*
X110069047Y-101352380D01*
X110164285Y-101400000D01*
X110259523Y-101495238D01*
X110307142Y-101685714D01*
X110307142Y-102019047D01*
X110259523Y-102209523D01*
X110164285Y-102304761D01*
X110069047Y-102352380D01*
X109878571Y-102352380D01*
X111211904Y-101352380D02*
X110735714Y-101352380D01*
X110688095Y-101828571D01*
X110735714Y-101780952D01*
X110830952Y-101733333D01*
X111069047Y-101733333D01*
X111164285Y-101780952D01*
X111211904Y-101828571D01*
X111259523Y-101923809D01*
X111259523Y-102161904D01*
X111211904Y-102257142D01*
X111164285Y-102304761D01*
X111069047Y-102352380D01*
X110830952Y-102352380D01*
X110735714Y-102304761D01*
X110688095Y-102257142D01*
%TO.C,Q4*%
X117304761Y-107197619D02*
X117209523Y-107150000D01*
X117114285Y-107054761D01*
X116971428Y-106911904D01*
X116876190Y-106864285D01*
X116780952Y-106864285D01*
X116828571Y-107102380D02*
X116733333Y-107054761D01*
X116638095Y-106959523D01*
X116590476Y-106769047D01*
X116590476Y-106435714D01*
X116638095Y-106245238D01*
X116733333Y-106150000D01*
X116828571Y-106102380D01*
X117019047Y-106102380D01*
X117114285Y-106150000D01*
X117209523Y-106245238D01*
X117257142Y-106435714D01*
X117257142Y-106769047D01*
X117209523Y-106959523D01*
X117114285Y-107054761D01*
X117019047Y-107102380D01*
X116828571Y-107102380D01*
X118114285Y-106435714D02*
X118114285Y-107102380D01*
X117876190Y-106054761D02*
X117638095Y-106769047D01*
X118257142Y-106769047D01*
%TO.C,Q3*%
X140554761Y-97197619D02*
X140459523Y-97150000D01*
X140364285Y-97054761D01*
X140221428Y-96911904D01*
X140126190Y-96864285D01*
X140030952Y-96864285D01*
X140078571Y-97102380D02*
X139983333Y-97054761D01*
X139888095Y-96959523D01*
X139840476Y-96769047D01*
X139840476Y-96435714D01*
X139888095Y-96245238D01*
X139983333Y-96150000D01*
X140078571Y-96102380D01*
X140269047Y-96102380D01*
X140364285Y-96150000D01*
X140459523Y-96245238D01*
X140507142Y-96435714D01*
X140507142Y-96769047D01*
X140459523Y-96959523D01*
X140364285Y-97054761D01*
X140269047Y-97102380D01*
X140078571Y-97102380D01*
X140840476Y-96102380D02*
X141459523Y-96102380D01*
X141126190Y-96483333D01*
X141269047Y-96483333D01*
X141364285Y-96530952D01*
X141411904Y-96578571D01*
X141459523Y-96673809D01*
X141459523Y-96911904D01*
X141411904Y-97007142D01*
X141364285Y-97054761D01*
X141269047Y-97102380D01*
X140983333Y-97102380D01*
X140888095Y-97054761D01*
X140840476Y-97007142D01*
%TO.C,Q2*%
X142454761Y-100497619D02*
X142359523Y-100450000D01*
X142264285Y-100354761D01*
X142121428Y-100211904D01*
X142026190Y-100164285D01*
X141930952Y-100164285D01*
X141978571Y-100402380D02*
X141883333Y-100354761D01*
X141788095Y-100259523D01*
X141740476Y-100069047D01*
X141740476Y-99735714D01*
X141788095Y-99545238D01*
X141883333Y-99450000D01*
X141978571Y-99402380D01*
X142169047Y-99402380D01*
X142264285Y-99450000D01*
X142359523Y-99545238D01*
X142407142Y-99735714D01*
X142407142Y-100069047D01*
X142359523Y-100259523D01*
X142264285Y-100354761D01*
X142169047Y-100402380D01*
X141978571Y-100402380D01*
X142788095Y-99497619D02*
X142835714Y-99450000D01*
X142930952Y-99402380D01*
X143169047Y-99402380D01*
X143264285Y-99450000D01*
X143311904Y-99497619D01*
X143359523Y-99592857D01*
X143359523Y-99688095D01*
X143311904Y-99830952D01*
X142740476Y-100402380D01*
X143359523Y-100402380D01*
%TO.C,Q1*%
X153054761Y-102447619D02*
X152959523Y-102400000D01*
X152864285Y-102304761D01*
X152721428Y-102161904D01*
X152626190Y-102114285D01*
X152530952Y-102114285D01*
X152578571Y-102352380D02*
X152483333Y-102304761D01*
X152388095Y-102209523D01*
X152340476Y-102019047D01*
X152340476Y-101685714D01*
X152388095Y-101495238D01*
X152483333Y-101400000D01*
X152578571Y-101352380D01*
X152769047Y-101352380D01*
X152864285Y-101400000D01*
X152959523Y-101495238D01*
X153007142Y-101685714D01*
X153007142Y-102019047D01*
X152959523Y-102209523D01*
X152864285Y-102304761D01*
X152769047Y-102352380D01*
X152578571Y-102352380D01*
X153959523Y-102352380D02*
X153388095Y-102352380D01*
X153673809Y-102352380D02*
X153673809Y-101352380D01*
X153578571Y-101495238D01*
X153483333Y-101590476D01*
X153388095Y-101638095D01*
%TO.C,J2*%
X231166666Y-87952380D02*
X231166666Y-88666666D01*
X231119047Y-88809523D01*
X231023809Y-88904761D01*
X230880952Y-88952380D01*
X230785714Y-88952380D01*
X231595238Y-88047619D02*
X231642857Y-88000000D01*
X231738095Y-87952380D01*
X231976190Y-87952380D01*
X232071428Y-88000000D01*
X232119047Y-88047619D01*
X232166666Y-88142857D01*
X232166666Y-88238095D01*
X232119047Y-88380952D01*
X231547619Y-88952380D01*
X232166666Y-88952380D01*
%TO.C,D2*%
X108011904Y-95402380D02*
X108011904Y-94402380D01*
X108250000Y-94402380D01*
X108392857Y-94450000D01*
X108488095Y-94545238D01*
X108535714Y-94640476D01*
X108583333Y-94830952D01*
X108583333Y-94973809D01*
X108535714Y-95164285D01*
X108488095Y-95259523D01*
X108392857Y-95354761D01*
X108250000Y-95402380D01*
X108011904Y-95402380D01*
X108964285Y-94497619D02*
X109011904Y-94450000D01*
X109107142Y-94402380D01*
X109345238Y-94402380D01*
X109440476Y-94450000D01*
X109488095Y-94497619D01*
X109535714Y-94592857D01*
X109535714Y-94688095D01*
X109488095Y-94830952D01*
X108916666Y-95402380D01*
X109535714Y-95402380D01*
%TO.C,D1*%
X128061904Y-106202380D02*
X128061904Y-105202380D01*
X128300000Y-105202380D01*
X128442857Y-105250000D01*
X128538095Y-105345238D01*
X128585714Y-105440476D01*
X128633333Y-105630952D01*
X128633333Y-105773809D01*
X128585714Y-105964285D01*
X128538095Y-106059523D01*
X128442857Y-106154761D01*
X128300000Y-106202380D01*
X128061904Y-106202380D01*
X129585714Y-106202380D02*
X129014285Y-106202380D01*
X129300000Y-106202380D02*
X129300000Y-105202380D01*
X129204761Y-105345238D01*
X129109523Y-105440476D01*
X129014285Y-105488095D01*
%TO.C,C4*%
X155087142Y-94354166D02*
X155134761Y-94401785D01*
X155182380Y-94544642D01*
X155182380Y-94639880D01*
X155134761Y-94782738D01*
X155039523Y-94877976D01*
X154944285Y-94925595D01*
X154753809Y-94973214D01*
X154610952Y-94973214D01*
X154420476Y-94925595D01*
X154325238Y-94877976D01*
X154230000Y-94782738D01*
X154182380Y-94639880D01*
X154182380Y-94544642D01*
X154230000Y-94401785D01*
X154277619Y-94354166D01*
X154515714Y-93497023D02*
X155182380Y-93497023D01*
X154134761Y-93735119D02*
X154849047Y-93973214D01*
X154849047Y-93354166D01*
%TO.C,C2*%
X152670833Y-88827142D02*
X152623214Y-88874761D01*
X152480357Y-88922380D01*
X152385119Y-88922380D01*
X152242261Y-88874761D01*
X152147023Y-88779523D01*
X152099404Y-88684285D01*
X152051785Y-88493809D01*
X152051785Y-88350952D01*
X152099404Y-88160476D01*
X152147023Y-88065238D01*
X152242261Y-87970000D01*
X152385119Y-87922380D01*
X152480357Y-87922380D01*
X152623214Y-87970000D01*
X152670833Y-88017619D01*
X153051785Y-88017619D02*
X153099404Y-87970000D01*
X153194642Y-87922380D01*
X153432738Y-87922380D01*
X153527976Y-87970000D01*
X153575595Y-88017619D01*
X153623214Y-88112857D01*
X153623214Y-88208095D01*
X153575595Y-88350952D01*
X153004166Y-88922380D01*
X153623214Y-88922380D01*
%TO.C,C1*%
X156777142Y-89679166D02*
X156824761Y-89726785D01*
X156872380Y-89869642D01*
X156872380Y-89964880D01*
X156824761Y-90107738D01*
X156729523Y-90202976D01*
X156634285Y-90250595D01*
X156443809Y-90298214D01*
X156300952Y-90298214D01*
X156110476Y-90250595D01*
X156015238Y-90202976D01*
X155920000Y-90107738D01*
X155872380Y-89964880D01*
X155872380Y-89869642D01*
X155920000Y-89726785D01*
X155967619Y-89679166D01*
X156872380Y-88726785D02*
X156872380Y-89298214D01*
X156872380Y-89012500D02*
X155872380Y-89012500D01*
X156015238Y-89107738D01*
X156110476Y-89202976D01*
X156158095Y-89298214D01*
%TD*%
%LPC*%
D12*
%TO.C,TH1*%
X226600000Y-106350000D03*
D13*
X224700000Y-106350000D03*
%TD*%
%TO.C,R22*%
G36*
G01*
X157787500Y-103137500D02*
X157787500Y-102662500D01*
G75*
G02*
X158025000Y-102425000I237500J0D01*
G01*
X158525000Y-102425000D01*
G75*
G02*
X158762500Y-102662500I0J-237500D01*
G01*
X158762500Y-103137500D01*
G75*
G02*
X158525000Y-103375000I-237500J0D01*
G01*
X158025000Y-103375000D01*
G75*
G02*
X157787500Y-103137500I0J237500D01*
G01*
G37*
G36*
G01*
X155962500Y-103137500D02*
X155962500Y-102662500D01*
G75*
G02*
X156200000Y-102425000I237500J0D01*
G01*
X156700000Y-102425000D01*
G75*
G02*
X156937500Y-102662500I0J-237500D01*
G01*
X156937500Y-103137500D01*
G75*
G02*
X156700000Y-103375000I-237500J0D01*
G01*
X156200000Y-103375000D01*
G75*
G02*
X155962500Y-103137500I0J237500D01*
G01*
G37*
%TD*%
%TO.C,C6*%
G36*
G01*
X157682500Y-104737500D02*
X157682500Y-104262500D01*
G75*
G02*
X157920000Y-104025000I237500J0D01*
G01*
X158520000Y-104025000D01*
G75*
G02*
X158757500Y-104262500I0J-237500D01*
G01*
X158757500Y-104737500D01*
G75*
G02*
X158520000Y-104975000I-237500J0D01*
G01*
X157920000Y-104975000D01*
G75*
G02*
X157682500Y-104737500I0J237500D01*
G01*
G37*
G36*
G01*
X155957500Y-104737500D02*
X155957500Y-104262500D01*
G75*
G02*
X156195000Y-104025000I237500J0D01*
G01*
X156795000Y-104025000D01*
G75*
G02*
X157032500Y-104262500I0J-237500D01*
G01*
X157032500Y-104737500D01*
G75*
G02*
X156795000Y-104975000I-237500J0D01*
G01*
X156195000Y-104975000D01*
G75*
G02*
X155957500Y-104737500I0J237500D01*
G01*
G37*
%TD*%
%TO.C,C5*%
G36*
G01*
X120762500Y-92225000D02*
X121237500Y-92225000D01*
G75*
G02*
X121475000Y-92462500I0J-237500D01*
G01*
X121475000Y-93062500D01*
G75*
G02*
X121237500Y-93300000I-237500J0D01*
G01*
X120762500Y-93300000D01*
G75*
G02*
X120525000Y-93062500I0J237500D01*
G01*
X120525000Y-92462500D01*
G75*
G02*
X120762500Y-92225000I237500J0D01*
G01*
G37*
G36*
G01*
X120762500Y-90500000D02*
X121237500Y-90500000D01*
G75*
G02*
X121475000Y-90737500I0J-237500D01*
G01*
X121475000Y-91337500D01*
G75*
G02*
X121237500Y-91575000I-237500J0D01*
G01*
X120762500Y-91575000D01*
G75*
G02*
X120525000Y-91337500I0J237500D01*
G01*
X120525000Y-90737500D01*
G75*
G02*
X120762500Y-90500000I237500J0D01*
G01*
G37*
%TD*%
%TO.C,C3*%
G36*
G01*
X151062500Y-93882500D02*
X151537500Y-93882500D01*
G75*
G02*
X151775000Y-94120000I0J-237500D01*
G01*
X151775000Y-94720000D01*
G75*
G02*
X151537500Y-94957500I-237500J0D01*
G01*
X151062500Y-94957500D01*
G75*
G02*
X150825000Y-94720000I0J237500D01*
G01*
X150825000Y-94120000D01*
G75*
G02*
X151062500Y-93882500I237500J0D01*
G01*
G37*
G36*
G01*
X151062500Y-92157500D02*
X151537500Y-92157500D01*
G75*
G02*
X151775000Y-92395000I0J-237500D01*
G01*
X151775000Y-92995000D01*
G75*
G02*
X151537500Y-93232500I-237500J0D01*
G01*
X151062500Y-93232500D01*
G75*
G02*
X150825000Y-92995000I0J237500D01*
G01*
X150825000Y-92395000D01*
G75*
G02*
X151062500Y-92157500I237500J0D01*
G01*
G37*
%TD*%
%TO.C,C7*%
G36*
G01*
X121187500Y-88525000D02*
X121187500Y-87575000D01*
G75*
G02*
X121437500Y-87325000I250000J0D01*
G01*
X122112500Y-87325000D01*
G75*
G02*
X122362500Y-87575000I0J-250000D01*
G01*
X122362500Y-88525000D01*
G75*
G02*
X122112500Y-88775000I-250000J0D01*
G01*
X121437500Y-88775000D01*
G75*
G02*
X121187500Y-88525000I0J250000D01*
G01*
G37*
G36*
G01*
X119112500Y-88525000D02*
X119112500Y-87575000D01*
G75*
G02*
X119362500Y-87325000I250000J0D01*
G01*
X120037500Y-87325000D01*
G75*
G02*
X120287500Y-87575000I0J-250000D01*
G01*
X120287500Y-88525000D01*
G75*
G02*
X120037500Y-88775000I-250000J0D01*
G01*
X119362500Y-88775000D01*
G75*
G02*
X119112500Y-88525000I0J250000D01*
G01*
G37*
%TD*%
D14*
%TO.C,J1*%
X236800000Y-103850000D03*
X236800000Y-100850000D03*
X236800000Y-97850000D03*
X236800000Y-94850000D03*
X236800000Y-91850000D03*
X239800000Y-103850000D03*
X239800000Y-100850000D03*
X239800000Y-97850000D03*
X239800000Y-94850000D03*
G36*
G01*
X239300000Y-91100000D02*
X240300000Y-91100000D01*
G75*
G02*
X240550000Y-91350000I0J-250000D01*
G01*
X240550000Y-92350000D01*
G75*
G02*
X240300000Y-92600000I-250000J0D01*
G01*
X239300000Y-92600000D01*
G75*
G02*
X239050000Y-92350000I0J250000D01*
G01*
X239050000Y-91350000D01*
G75*
G02*
X239300000Y-91100000I250000J0D01*
G01*
G37*
D15*
X244120000Y-101710000D03*
X244120000Y-94010000D03*
%TD*%
%TO.C,R23*%
G36*
G01*
X156762500Y-92912500D02*
X156762500Y-93387500D01*
G75*
G02*
X156525000Y-93625000I-237500J0D01*
G01*
X156025000Y-93625000D01*
G75*
G02*
X155787500Y-93387500I0J237500D01*
G01*
X155787500Y-92912500D01*
G75*
G02*
X156025000Y-92675000I237500J0D01*
G01*
X156525000Y-92675000D01*
G75*
G02*
X156762500Y-92912500I0J-237500D01*
G01*
G37*
G36*
G01*
X158587500Y-92912500D02*
X158587500Y-93387500D01*
G75*
G02*
X158350000Y-93625000I-237500J0D01*
G01*
X157850000Y-93625000D01*
G75*
G02*
X157612500Y-93387500I0J237500D01*
G01*
X157612500Y-92912500D01*
G75*
G02*
X157850000Y-92675000I237500J0D01*
G01*
X158350000Y-92675000D01*
G75*
G02*
X158587500Y-92912500I0J-237500D01*
G01*
G37*
%TD*%
D16*
%TO.C,U1*%
X219400000Y-105790000D03*
X160980000Y-90550000D03*
X216860000Y-105790000D03*
X163520000Y-90550000D03*
X214320000Y-105790000D03*
X166060000Y-90550000D03*
X211780000Y-105790000D03*
X168600000Y-90550000D03*
X209240000Y-105790000D03*
X171140000Y-90550000D03*
X206700000Y-105790000D03*
X173680000Y-90550000D03*
X204160000Y-105790000D03*
X176220000Y-90550000D03*
X201620000Y-105790000D03*
X178760000Y-90550000D03*
X199080000Y-105790000D03*
X181300000Y-90550000D03*
X196540000Y-105790000D03*
X183840000Y-90550000D03*
X194000000Y-105790000D03*
X186380000Y-90550000D03*
X191460000Y-105790000D03*
X188920000Y-90550000D03*
X188920000Y-105790000D03*
X191460000Y-90550000D03*
X186380000Y-105790000D03*
X194000000Y-90550000D03*
X183840000Y-105790000D03*
X196540000Y-90550000D03*
X181300000Y-105790000D03*
X199080000Y-90550000D03*
X178760000Y-105790000D03*
X201620000Y-90550000D03*
X176220000Y-105790000D03*
X204160000Y-90550000D03*
X173680000Y-105790000D03*
X206700000Y-90550000D03*
X171140000Y-105790000D03*
X209240000Y-90550000D03*
X168600000Y-105790000D03*
X211780000Y-90550000D03*
X166060000Y-105790000D03*
X214320000Y-90550000D03*
X163520000Y-105790000D03*
X216860000Y-90550000D03*
X160980000Y-105790000D03*
D17*
X219400000Y-90550000D03*
%TD*%
%TO.C,TH3*%
G36*
G01*
X107349999Y-107100000D02*
X108250001Y-107100000D01*
G75*
G02*
X108500000Y-107349999I0J-249999D01*
G01*
X108500000Y-108050001D01*
G75*
G02*
X108250001Y-108300000I-249999J0D01*
G01*
X107349999Y-108300000D01*
G75*
G02*
X107100000Y-108050001I0J249999D01*
G01*
X107100000Y-107349999D01*
G75*
G02*
X107349999Y-107100000I249999J0D01*
G01*
G37*
G36*
G01*
X107349999Y-105100000D02*
X108250001Y-105100000D01*
G75*
G02*
X108500000Y-105349999I0J-249999D01*
G01*
X108500000Y-106050001D01*
G75*
G02*
X108250001Y-106300000I-249999J0D01*
G01*
X107349999Y-106300000D01*
G75*
G02*
X107100000Y-106050001I0J249999D01*
G01*
X107100000Y-105349999D01*
G75*
G02*
X107349999Y-105100000I249999J0D01*
G01*
G37*
%TD*%
%TO.C,TH2*%
G36*
G01*
X139849999Y-105050000D02*
X140750001Y-105050000D01*
G75*
G02*
X141000000Y-105299999I0J-249999D01*
G01*
X141000000Y-106000001D01*
G75*
G02*
X140750001Y-106250000I-249999J0D01*
G01*
X139849999Y-106250000D01*
G75*
G02*
X139600000Y-106000001I0J249999D01*
G01*
X139600000Y-105299999D01*
G75*
G02*
X139849999Y-105050000I249999J0D01*
G01*
G37*
G36*
G01*
X139849999Y-103050000D02*
X140750001Y-103050000D01*
G75*
G02*
X141000000Y-103299999I0J-249999D01*
G01*
X141000000Y-104000001D01*
G75*
G02*
X140750001Y-104250000I-249999J0D01*
G01*
X139849999Y-104250000D01*
G75*
G02*
X139600000Y-104000001I0J249999D01*
G01*
X139600000Y-103299999D01*
G75*
G02*
X139849999Y-103050000I249999J0D01*
G01*
G37*
%TD*%
D18*
%TO.C,R21*%
X129525000Y-98925000D03*
D19*
X126985000Y-89775000D03*
X132065000Y-89775000D03*
%TD*%
%TO.C,R20*%
G36*
G01*
X119762500Y-95487500D02*
X119762500Y-95012500D01*
G75*
G02*
X120000000Y-94775000I237500J0D01*
G01*
X120500000Y-94775000D01*
G75*
G02*
X120737500Y-95012500I0J-237500D01*
G01*
X120737500Y-95487500D01*
G75*
G02*
X120500000Y-95725000I-237500J0D01*
G01*
X120000000Y-95725000D01*
G75*
G02*
X119762500Y-95487500I0J237500D01*
G01*
G37*
G36*
G01*
X117937500Y-95487500D02*
X117937500Y-95012500D01*
G75*
G02*
X118175000Y-94775000I237500J0D01*
G01*
X118675000Y-94775000D01*
G75*
G02*
X118912500Y-95012500I0J-237500D01*
G01*
X118912500Y-95487500D01*
G75*
G02*
X118675000Y-95725000I-237500J0D01*
G01*
X118175000Y-95725000D01*
G75*
G02*
X117937500Y-95487500I0J237500D01*
G01*
G37*
%TD*%
%TO.C,R19*%
G36*
G01*
X108375000Y-96162500D02*
X108375000Y-96637500D01*
G75*
G02*
X108137500Y-96875000I-237500J0D01*
G01*
X107637500Y-96875000D01*
G75*
G02*
X107400000Y-96637500I0J237500D01*
G01*
X107400000Y-96162500D01*
G75*
G02*
X107637500Y-95925000I237500J0D01*
G01*
X108137500Y-95925000D01*
G75*
G02*
X108375000Y-96162500I0J-237500D01*
G01*
G37*
G36*
G01*
X110200000Y-96162500D02*
X110200000Y-96637500D01*
G75*
G02*
X109962500Y-96875000I-237500J0D01*
G01*
X109462500Y-96875000D01*
G75*
G02*
X109225000Y-96637500I0J237500D01*
G01*
X109225000Y-96162500D01*
G75*
G02*
X109462500Y-95925000I237500J0D01*
G01*
X109962500Y-95925000D01*
G75*
G02*
X110200000Y-96162500I0J-237500D01*
G01*
G37*
%TD*%
%TO.C,R18*%
G36*
G01*
X105212500Y-96362500D02*
X105687500Y-96362500D01*
G75*
G02*
X105925000Y-96600000I0J-237500D01*
G01*
X105925000Y-97100000D01*
G75*
G02*
X105687500Y-97337500I-237500J0D01*
G01*
X105212500Y-97337500D01*
G75*
G02*
X104975000Y-97100000I0J237500D01*
G01*
X104975000Y-96600000D01*
G75*
G02*
X105212500Y-96362500I237500J0D01*
G01*
G37*
G36*
G01*
X105212500Y-94537500D02*
X105687500Y-94537500D01*
G75*
G02*
X105925000Y-94775000I0J-237500D01*
G01*
X105925000Y-95275000D01*
G75*
G02*
X105687500Y-95512500I-237500J0D01*
G01*
X105212500Y-95512500D01*
G75*
G02*
X104975000Y-95275000I0J237500D01*
G01*
X104975000Y-94775000D01*
G75*
G02*
X105212500Y-94537500I237500J0D01*
G01*
G37*
%TD*%
%TO.C,R17*%
G36*
G01*
X107562500Y-102812500D02*
X108037500Y-102812500D01*
G75*
G02*
X108275000Y-103050000I0J-237500D01*
G01*
X108275000Y-103550000D01*
G75*
G02*
X108037500Y-103787500I-237500J0D01*
G01*
X107562500Y-103787500D01*
G75*
G02*
X107325000Y-103550000I0J237500D01*
G01*
X107325000Y-103050000D01*
G75*
G02*
X107562500Y-102812500I237500J0D01*
G01*
G37*
G36*
G01*
X107562500Y-100987500D02*
X108037500Y-100987500D01*
G75*
G02*
X108275000Y-101225000I0J-237500D01*
G01*
X108275000Y-101725000D01*
G75*
G02*
X108037500Y-101962500I-237500J0D01*
G01*
X107562500Y-101962500D01*
G75*
G02*
X107325000Y-101725000I0J237500D01*
G01*
X107325000Y-101225000D01*
G75*
G02*
X107562500Y-100987500I237500J0D01*
G01*
G37*
%TD*%
%TO.C,R16*%
G36*
G01*
X112362500Y-100137500D02*
X112837500Y-100137500D01*
G75*
G02*
X113075000Y-100375000I0J-237500D01*
G01*
X113075000Y-100875000D01*
G75*
G02*
X112837500Y-101112500I-237500J0D01*
G01*
X112362500Y-101112500D01*
G75*
G02*
X112125000Y-100875000I0J237500D01*
G01*
X112125000Y-100375000D01*
G75*
G02*
X112362500Y-100137500I237500J0D01*
G01*
G37*
G36*
G01*
X112362500Y-98312500D02*
X112837500Y-98312500D01*
G75*
G02*
X113075000Y-98550000I0J-237500D01*
G01*
X113075000Y-99050000D01*
G75*
G02*
X112837500Y-99287500I-237500J0D01*
G01*
X112362500Y-99287500D01*
G75*
G02*
X112125000Y-99050000I0J237500D01*
G01*
X112125000Y-98550000D01*
G75*
G02*
X112362500Y-98312500I237500J0D01*
G01*
G37*
%TD*%
%TO.C,R14*%
G36*
G01*
X113787500Y-108387500D02*
X113787500Y-107912500D01*
G75*
G02*
X114025000Y-107675000I237500J0D01*
G01*
X114525000Y-107675000D01*
G75*
G02*
X114762500Y-107912500I0J-237500D01*
G01*
X114762500Y-108387500D01*
G75*
G02*
X114525000Y-108625000I-237500J0D01*
G01*
X114025000Y-108625000D01*
G75*
G02*
X113787500Y-108387500I0J237500D01*
G01*
G37*
G36*
G01*
X111962500Y-108387500D02*
X111962500Y-107912500D01*
G75*
G02*
X112200000Y-107675000I237500J0D01*
G01*
X112700000Y-107675000D01*
G75*
G02*
X112937500Y-107912500I0J-237500D01*
G01*
X112937500Y-108387500D01*
G75*
G02*
X112700000Y-108625000I-237500J0D01*
G01*
X112200000Y-108625000D01*
G75*
G02*
X111962500Y-108387500I0J237500D01*
G01*
G37*
%TD*%
%TO.C,R12*%
G36*
G01*
X119262500Y-103712500D02*
X119737500Y-103712500D01*
G75*
G02*
X119975000Y-103950000I0J-237500D01*
G01*
X119975000Y-104450000D01*
G75*
G02*
X119737500Y-104687500I-237500J0D01*
G01*
X119262500Y-104687500D01*
G75*
G02*
X119025000Y-104450000I0J237500D01*
G01*
X119025000Y-103950000D01*
G75*
G02*
X119262500Y-103712500I237500J0D01*
G01*
G37*
G36*
G01*
X119262500Y-101887500D02*
X119737500Y-101887500D01*
G75*
G02*
X119975000Y-102125000I0J-237500D01*
G01*
X119975000Y-102625000D01*
G75*
G02*
X119737500Y-102862500I-237500J0D01*
G01*
X119262500Y-102862500D01*
G75*
G02*
X119025000Y-102625000I0J237500D01*
G01*
X119025000Y-102125000D01*
G75*
G02*
X119262500Y-101887500I237500J0D01*
G01*
G37*
%TD*%
%TO.C,R11*%
G36*
G01*
X115637500Y-99262500D02*
X115162500Y-99262500D01*
G75*
G02*
X114925000Y-99025000I0J237500D01*
G01*
X114925000Y-98525000D01*
G75*
G02*
X115162500Y-98287500I237500J0D01*
G01*
X115637500Y-98287500D01*
G75*
G02*
X115875000Y-98525000I0J-237500D01*
G01*
X115875000Y-99025000D01*
G75*
G02*
X115637500Y-99262500I-237500J0D01*
G01*
G37*
G36*
G01*
X115637500Y-101087500D02*
X115162500Y-101087500D01*
G75*
G02*
X114925000Y-100850000I0J237500D01*
G01*
X114925000Y-100350000D01*
G75*
G02*
X115162500Y-100112500I237500J0D01*
G01*
X115637500Y-100112500D01*
G75*
G02*
X115875000Y-100350000I0J-237500D01*
G01*
X115875000Y-100850000D01*
G75*
G02*
X115637500Y-101087500I-237500J0D01*
G01*
G37*
%TD*%
%TO.C,R10*%
G36*
G01*
X117462500Y-100012500D02*
X117937500Y-100012500D01*
G75*
G02*
X118175000Y-100250000I0J-237500D01*
G01*
X118175000Y-100750000D01*
G75*
G02*
X117937500Y-100987500I-237500J0D01*
G01*
X117462500Y-100987500D01*
G75*
G02*
X117225000Y-100750000I0J237500D01*
G01*
X117225000Y-100250000D01*
G75*
G02*
X117462500Y-100012500I237500J0D01*
G01*
G37*
G36*
G01*
X117462500Y-98187500D02*
X117937500Y-98187500D01*
G75*
G02*
X118175000Y-98425000I0J-237500D01*
G01*
X118175000Y-98925000D01*
G75*
G02*
X117937500Y-99162500I-237500J0D01*
G01*
X117462500Y-99162500D01*
G75*
G02*
X117225000Y-98925000I0J237500D01*
G01*
X117225000Y-98425000D01*
G75*
G02*
X117462500Y-98187500I237500J0D01*
G01*
G37*
%TD*%
%TO.C,R9*%
G36*
G01*
X148812500Y-97637500D02*
X148812500Y-97162500D01*
G75*
G02*
X149050000Y-96925000I237500J0D01*
G01*
X149550000Y-96925000D01*
G75*
G02*
X149787500Y-97162500I0J-237500D01*
G01*
X149787500Y-97637500D01*
G75*
G02*
X149550000Y-97875000I-237500J0D01*
G01*
X149050000Y-97875000D01*
G75*
G02*
X148812500Y-97637500I0J237500D01*
G01*
G37*
G36*
G01*
X146987500Y-97637500D02*
X146987500Y-97162500D01*
G75*
G02*
X147225000Y-96925000I237500J0D01*
G01*
X147725000Y-96925000D01*
G75*
G02*
X147962500Y-97162500I0J-237500D01*
G01*
X147962500Y-97637500D01*
G75*
G02*
X147725000Y-97875000I-237500J0D01*
G01*
X147225000Y-97875000D01*
G75*
G02*
X146987500Y-97637500I0J237500D01*
G01*
G37*
%TD*%
%TO.C,R8*%
G36*
G01*
X140312500Y-100987500D02*
X140787500Y-100987500D01*
G75*
G02*
X141025000Y-101225000I0J-237500D01*
G01*
X141025000Y-101725000D01*
G75*
G02*
X140787500Y-101962500I-237500J0D01*
G01*
X140312500Y-101962500D01*
G75*
G02*
X140075000Y-101725000I0J237500D01*
G01*
X140075000Y-101225000D01*
G75*
G02*
X140312500Y-100987500I237500J0D01*
G01*
G37*
G36*
G01*
X140312500Y-99162500D02*
X140787500Y-99162500D01*
G75*
G02*
X141025000Y-99400000I0J-237500D01*
G01*
X141025000Y-99900000D01*
G75*
G02*
X140787500Y-100137500I-237500J0D01*
G01*
X140312500Y-100137500D01*
G75*
G02*
X140075000Y-99900000I0J237500D01*
G01*
X140075000Y-99400000D01*
G75*
G02*
X140312500Y-99162500I237500J0D01*
G01*
G37*
%TD*%
%TO.C,R7*%
G36*
G01*
X144312500Y-98662500D02*
X144787500Y-98662500D01*
G75*
G02*
X145025000Y-98900000I0J-237500D01*
G01*
X145025000Y-99400000D01*
G75*
G02*
X144787500Y-99637500I-237500J0D01*
G01*
X144312500Y-99637500D01*
G75*
G02*
X144075000Y-99400000I0J237500D01*
G01*
X144075000Y-98900000D01*
G75*
G02*
X144312500Y-98662500I237500J0D01*
G01*
G37*
G36*
G01*
X144312500Y-96837500D02*
X144787500Y-96837500D01*
G75*
G02*
X145025000Y-97075000I0J-237500D01*
G01*
X145025000Y-97575000D01*
G75*
G02*
X144787500Y-97812500I-237500J0D01*
G01*
X144312500Y-97812500D01*
G75*
G02*
X144075000Y-97575000I0J237500D01*
G01*
X144075000Y-97075000D01*
G75*
G02*
X144312500Y-96837500I237500J0D01*
G01*
G37*
%TD*%
%TO.C,R5*%
G36*
G01*
X144887500Y-105637500D02*
X144887500Y-105162500D01*
G75*
G02*
X145125000Y-104925000I237500J0D01*
G01*
X145625000Y-104925000D01*
G75*
G02*
X145862500Y-105162500I0J-237500D01*
G01*
X145862500Y-105637500D01*
G75*
G02*
X145625000Y-105875000I-237500J0D01*
G01*
X145125000Y-105875000D01*
G75*
G02*
X144887500Y-105637500I0J237500D01*
G01*
G37*
G36*
G01*
X143062500Y-105637500D02*
X143062500Y-105162500D01*
G75*
G02*
X143300000Y-104925000I237500J0D01*
G01*
X143800000Y-104925000D01*
G75*
G02*
X144037500Y-105162500I0J-237500D01*
G01*
X144037500Y-105637500D01*
G75*
G02*
X143800000Y-105875000I-237500J0D01*
G01*
X143300000Y-105875000D01*
G75*
G02*
X143062500Y-105637500I0J237500D01*
G01*
G37*
%TD*%
%TO.C,R3*%
G36*
G01*
X151312500Y-98912500D02*
X151787500Y-98912500D01*
G75*
G02*
X152025000Y-99150000I0J-237500D01*
G01*
X152025000Y-99650000D01*
G75*
G02*
X151787500Y-99887500I-237500J0D01*
G01*
X151312500Y-99887500D01*
G75*
G02*
X151075000Y-99650000I0J237500D01*
G01*
X151075000Y-99150000D01*
G75*
G02*
X151312500Y-98912500I237500J0D01*
G01*
G37*
G36*
G01*
X151312500Y-97087500D02*
X151787500Y-97087500D01*
G75*
G02*
X152025000Y-97325000I0J-237500D01*
G01*
X152025000Y-97825000D01*
G75*
G02*
X151787500Y-98062500I-237500J0D01*
G01*
X151312500Y-98062500D01*
G75*
G02*
X151075000Y-97825000I0J237500D01*
G01*
X151075000Y-97325000D01*
G75*
G02*
X151312500Y-97087500I237500J0D01*
G01*
G37*
%TD*%
%TO.C,R2*%
G36*
G01*
X147062500Y-104912500D02*
X147537500Y-104912500D01*
G75*
G02*
X147775000Y-105150000I0J-237500D01*
G01*
X147775000Y-105650000D01*
G75*
G02*
X147537500Y-105887500I-237500J0D01*
G01*
X147062500Y-105887500D01*
G75*
G02*
X146825000Y-105650000I0J237500D01*
G01*
X146825000Y-105150000D01*
G75*
G02*
X147062500Y-104912500I237500J0D01*
G01*
G37*
G36*
G01*
X147062500Y-103087500D02*
X147537500Y-103087500D01*
G75*
G02*
X147775000Y-103325000I0J-237500D01*
G01*
X147775000Y-103825000D01*
G75*
G02*
X147537500Y-104062500I-237500J0D01*
G01*
X147062500Y-104062500D01*
G75*
G02*
X146825000Y-103825000I0J237500D01*
G01*
X146825000Y-103325000D01*
G75*
G02*
X147062500Y-103087500I237500J0D01*
G01*
G37*
%TD*%
%TO.C,R1*%
G36*
G01*
X147312500Y-100662500D02*
X147787500Y-100662500D01*
G75*
G02*
X148025000Y-100900000I0J-237500D01*
G01*
X148025000Y-101400000D01*
G75*
G02*
X147787500Y-101637500I-237500J0D01*
G01*
X147312500Y-101637500D01*
G75*
G02*
X147075000Y-101400000I0J237500D01*
G01*
X147075000Y-100900000D01*
G75*
G02*
X147312500Y-100662500I237500J0D01*
G01*
G37*
G36*
G01*
X147312500Y-98837500D02*
X147787500Y-98837500D01*
G75*
G02*
X148025000Y-99075000I0J-237500D01*
G01*
X148025000Y-99575000D01*
G75*
G02*
X147787500Y-99812500I-237500J0D01*
G01*
X147312500Y-99812500D01*
G75*
G02*
X147075000Y-99575000I0J237500D01*
G01*
X147075000Y-99075000D01*
G75*
G02*
X147312500Y-98837500I237500J0D01*
G01*
G37*
%TD*%
D20*
%TO.C,Q6*%
X110175000Y-90525000D03*
D21*
X116475000Y-88245000D03*
X116475000Y-90525000D03*
X116475000Y-92805000D03*
%TD*%
D22*
%TO.C,Q5*%
X112700000Y-104350000D03*
X110700000Y-105300000D03*
X110700000Y-103400000D03*
%TD*%
%TO.C,Q4*%
X116950000Y-104200000D03*
X114950000Y-105150000D03*
X114950000Y-103250000D03*
%TD*%
D20*
%TO.C,Q3*%
X142225000Y-92375000D03*
D21*
X148525000Y-90095000D03*
X148525000Y-92375000D03*
X148525000Y-94655000D03*
%TD*%
D22*
%TO.C,Q2*%
X144300000Y-102450000D03*
X142300000Y-103400000D03*
X142300000Y-101500000D03*
%TD*%
%TO.C,Q1*%
X151300000Y-102200000D03*
X149300000Y-103150000D03*
X149300000Y-101250000D03*
%TD*%
D23*
%TO.C,J2*%
X231500000Y-98450000D03*
X231500000Y-95910000D03*
X231500000Y-93370000D03*
D24*
X231500000Y-90830000D03*
%TD*%
D25*
%TO.C,D2*%
X110300000Y-98800000D03*
X107800000Y-98800000D03*
%TD*%
%TO.C,D1*%
X130050000Y-107600000D03*
X127550000Y-107600000D03*
%TD*%
%TO.C,C4*%
G36*
G01*
X152575000Y-94637500D02*
X153525000Y-94637500D01*
G75*
G02*
X153775000Y-94887500I0J-250000D01*
G01*
X153775000Y-95562500D01*
G75*
G02*
X153525000Y-95812500I-250000J0D01*
G01*
X152575000Y-95812500D01*
G75*
G02*
X152325000Y-95562500I0J250000D01*
G01*
X152325000Y-94887500D01*
G75*
G02*
X152575000Y-94637500I250000J0D01*
G01*
G37*
G36*
G01*
X152575000Y-92562500D02*
X153525000Y-92562500D01*
G75*
G02*
X153775000Y-92812500I0J-250000D01*
G01*
X153775000Y-93487500D01*
G75*
G02*
X153525000Y-93737500I-250000J0D01*
G01*
X152575000Y-93737500D01*
G75*
G02*
X152325000Y-93487500I0J250000D01*
G01*
X152325000Y-92812500D01*
G75*
G02*
X152575000Y-92562500I250000J0D01*
G01*
G37*
%TD*%
%TO.C,C2*%
G36*
G01*
X153287500Y-90625000D02*
X153287500Y-89675000D01*
G75*
G02*
X153537500Y-89425000I250000J0D01*
G01*
X154212500Y-89425000D01*
G75*
G02*
X154462500Y-89675000I0J-250000D01*
G01*
X154462500Y-90625000D01*
G75*
G02*
X154212500Y-90875000I-250000J0D01*
G01*
X153537500Y-90875000D01*
G75*
G02*
X153287500Y-90625000I0J250000D01*
G01*
G37*
G36*
G01*
X151212500Y-90625000D02*
X151212500Y-89675000D01*
G75*
G02*
X151462500Y-89425000I250000J0D01*
G01*
X152137500Y-89425000D01*
G75*
G02*
X152387500Y-89675000I0J-250000D01*
G01*
X152387500Y-90625000D01*
G75*
G02*
X152137500Y-90875000I-250000J0D01*
G01*
X151462500Y-90875000D01*
G75*
G02*
X151212500Y-90625000I0J250000D01*
G01*
G37*
%TD*%
%TO.C,C1*%
G36*
G01*
X158575000Y-89062500D02*
X157625000Y-89062500D01*
G75*
G02*
X157375000Y-88812500I0J250000D01*
G01*
X157375000Y-88137500D01*
G75*
G02*
X157625000Y-87887500I250000J0D01*
G01*
X158575000Y-87887500D01*
G75*
G02*
X158825000Y-88137500I0J-250000D01*
G01*
X158825000Y-88812500D01*
G75*
G02*
X158575000Y-89062500I-250000J0D01*
G01*
G37*
G36*
G01*
X158575000Y-91137500D02*
X157625000Y-91137500D01*
G75*
G02*
X157375000Y-90887500I0J250000D01*
G01*
X157375000Y-90212500D01*
G75*
G02*
X157625000Y-89962500I250000J0D01*
G01*
X158575000Y-89962500D01*
G75*
G02*
X158825000Y-90212500I0J-250000D01*
G01*
X158825000Y-90887500D01*
G75*
G02*
X158575000Y-91137500I-250000J0D01*
G01*
G37*
%TD*%
M02*
