%TF.GenerationSoftware,KiCad,Pcbnew,5.1.9-1.fc33*%
%TF.CreationDate,2021-04-16T18:18:08+01:00*%
%TF.ProjectId,cryosub_top_v01,6372796f-7375-4625-9f74-6f705f763031,rev?*%
%TF.SameCoordinates,Original*%
%TF.FileFunction,Paste,Top*%
%TF.FilePolarity,Positive*%
%FSLAX46Y46*%
G04 Gerber Fmt 4.6, Leading zero omitted, Abs format (unit mm)*
G04 Created by KiCad (PCBNEW 5.1.9-1.fc33) date 2021-04-16 18:18:08*
%MOMM*%
%LPD*%
G01*
G04 APERTURE LIST*
%ADD10R,5.250000X4.550000*%
%ADD11R,1.100000X4.600000*%
%ADD12R,3.050000X2.750000*%
%ADD13R,2.200000X1.200000*%
%ADD14R,0.900000X0.800000*%
%ADD15R,1.000000X1.000000*%
G04 APERTURE END LIST*
%TO.C,R22*%
G36*
G01*
X157787500Y-103137500D02*
X157787500Y-102662500D01*
G75*
G02*
X158025000Y-102425000I237500J0D01*
G01*
X158525000Y-102425000D01*
G75*
G02*
X158762500Y-102662500I0J-237500D01*
G01*
X158762500Y-103137500D01*
G75*
G02*
X158525000Y-103375000I-237500J0D01*
G01*
X158025000Y-103375000D01*
G75*
G02*
X157787500Y-103137500I0J237500D01*
G01*
G37*
G36*
G01*
X155962500Y-103137500D02*
X155962500Y-102662500D01*
G75*
G02*
X156200000Y-102425000I237500J0D01*
G01*
X156700000Y-102425000D01*
G75*
G02*
X156937500Y-102662500I0J-237500D01*
G01*
X156937500Y-103137500D01*
G75*
G02*
X156700000Y-103375000I-237500J0D01*
G01*
X156200000Y-103375000D01*
G75*
G02*
X155962500Y-103137500I0J237500D01*
G01*
G37*
%TD*%
%TO.C,C6*%
G36*
G01*
X157682500Y-104737500D02*
X157682500Y-104262500D01*
G75*
G02*
X157920000Y-104025000I237500J0D01*
G01*
X158520000Y-104025000D01*
G75*
G02*
X158757500Y-104262500I0J-237500D01*
G01*
X158757500Y-104737500D01*
G75*
G02*
X158520000Y-104975000I-237500J0D01*
G01*
X157920000Y-104975000D01*
G75*
G02*
X157682500Y-104737500I0J237500D01*
G01*
G37*
G36*
G01*
X155957500Y-104737500D02*
X155957500Y-104262500D01*
G75*
G02*
X156195000Y-104025000I237500J0D01*
G01*
X156795000Y-104025000D01*
G75*
G02*
X157032500Y-104262500I0J-237500D01*
G01*
X157032500Y-104737500D01*
G75*
G02*
X156795000Y-104975000I-237500J0D01*
G01*
X156195000Y-104975000D01*
G75*
G02*
X155957500Y-104737500I0J237500D01*
G01*
G37*
%TD*%
%TO.C,C5*%
G36*
G01*
X120762500Y-92225000D02*
X121237500Y-92225000D01*
G75*
G02*
X121475000Y-92462500I0J-237500D01*
G01*
X121475000Y-93062500D01*
G75*
G02*
X121237500Y-93300000I-237500J0D01*
G01*
X120762500Y-93300000D01*
G75*
G02*
X120525000Y-93062500I0J237500D01*
G01*
X120525000Y-92462500D01*
G75*
G02*
X120762500Y-92225000I237500J0D01*
G01*
G37*
G36*
G01*
X120762500Y-90500000D02*
X121237500Y-90500000D01*
G75*
G02*
X121475000Y-90737500I0J-237500D01*
G01*
X121475000Y-91337500D01*
G75*
G02*
X121237500Y-91575000I-237500J0D01*
G01*
X120762500Y-91575000D01*
G75*
G02*
X120525000Y-91337500I0J237500D01*
G01*
X120525000Y-90737500D01*
G75*
G02*
X120762500Y-90500000I237500J0D01*
G01*
G37*
%TD*%
%TO.C,C3*%
G36*
G01*
X151062500Y-93882500D02*
X151537500Y-93882500D01*
G75*
G02*
X151775000Y-94120000I0J-237500D01*
G01*
X151775000Y-94720000D01*
G75*
G02*
X151537500Y-94957500I-237500J0D01*
G01*
X151062500Y-94957500D01*
G75*
G02*
X150825000Y-94720000I0J237500D01*
G01*
X150825000Y-94120000D01*
G75*
G02*
X151062500Y-93882500I237500J0D01*
G01*
G37*
G36*
G01*
X151062500Y-92157500D02*
X151537500Y-92157500D01*
G75*
G02*
X151775000Y-92395000I0J-237500D01*
G01*
X151775000Y-92995000D01*
G75*
G02*
X151537500Y-93232500I-237500J0D01*
G01*
X151062500Y-93232500D01*
G75*
G02*
X150825000Y-92995000I0J237500D01*
G01*
X150825000Y-92395000D01*
G75*
G02*
X151062500Y-92157500I237500J0D01*
G01*
G37*
%TD*%
%TO.C,C7*%
G36*
G01*
X121187500Y-88525000D02*
X121187500Y-87575000D01*
G75*
G02*
X121437500Y-87325000I250000J0D01*
G01*
X122112500Y-87325000D01*
G75*
G02*
X122362500Y-87575000I0J-250000D01*
G01*
X122362500Y-88525000D01*
G75*
G02*
X122112500Y-88775000I-250000J0D01*
G01*
X121437500Y-88775000D01*
G75*
G02*
X121187500Y-88525000I0J250000D01*
G01*
G37*
G36*
G01*
X119112500Y-88525000D02*
X119112500Y-87575000D01*
G75*
G02*
X119362500Y-87325000I250000J0D01*
G01*
X120037500Y-87325000D01*
G75*
G02*
X120287500Y-87575000I0J-250000D01*
G01*
X120287500Y-88525000D01*
G75*
G02*
X120037500Y-88775000I-250000J0D01*
G01*
X119362500Y-88775000D01*
G75*
G02*
X119112500Y-88525000I0J250000D01*
G01*
G37*
%TD*%
%TO.C,R23*%
G36*
G01*
X156762500Y-92912500D02*
X156762500Y-93387500D01*
G75*
G02*
X156525000Y-93625000I-237500J0D01*
G01*
X156025000Y-93625000D01*
G75*
G02*
X155787500Y-93387500I0J237500D01*
G01*
X155787500Y-92912500D01*
G75*
G02*
X156025000Y-92675000I237500J0D01*
G01*
X156525000Y-92675000D01*
G75*
G02*
X156762500Y-92912500I0J-237500D01*
G01*
G37*
G36*
G01*
X158587500Y-92912500D02*
X158587500Y-93387500D01*
G75*
G02*
X158350000Y-93625000I-237500J0D01*
G01*
X157850000Y-93625000D01*
G75*
G02*
X157612500Y-93387500I0J237500D01*
G01*
X157612500Y-92912500D01*
G75*
G02*
X157850000Y-92675000I237500J0D01*
G01*
X158350000Y-92675000D01*
G75*
G02*
X158587500Y-92912500I0J-237500D01*
G01*
G37*
%TD*%
%TO.C,TH3*%
G36*
G01*
X107349999Y-107100000D02*
X108250001Y-107100000D01*
G75*
G02*
X108500000Y-107349999I0J-249999D01*
G01*
X108500000Y-108050001D01*
G75*
G02*
X108250001Y-108300000I-249999J0D01*
G01*
X107349999Y-108300000D01*
G75*
G02*
X107100000Y-108050001I0J249999D01*
G01*
X107100000Y-107349999D01*
G75*
G02*
X107349999Y-107100000I249999J0D01*
G01*
G37*
G36*
G01*
X107349999Y-105100000D02*
X108250001Y-105100000D01*
G75*
G02*
X108500000Y-105349999I0J-249999D01*
G01*
X108500000Y-106050001D01*
G75*
G02*
X108250001Y-106300000I-249999J0D01*
G01*
X107349999Y-106300000D01*
G75*
G02*
X107100000Y-106050001I0J249999D01*
G01*
X107100000Y-105349999D01*
G75*
G02*
X107349999Y-105100000I249999J0D01*
G01*
G37*
%TD*%
%TO.C,TH2*%
G36*
G01*
X139849999Y-105050000D02*
X140750001Y-105050000D01*
G75*
G02*
X141000000Y-105299999I0J-249999D01*
G01*
X141000000Y-106000001D01*
G75*
G02*
X140750001Y-106250000I-249999J0D01*
G01*
X139849999Y-106250000D01*
G75*
G02*
X139600000Y-106000001I0J249999D01*
G01*
X139600000Y-105299999D01*
G75*
G02*
X139849999Y-105050000I249999J0D01*
G01*
G37*
G36*
G01*
X139849999Y-103050000D02*
X140750001Y-103050000D01*
G75*
G02*
X141000000Y-103299999I0J-249999D01*
G01*
X141000000Y-104000001D01*
G75*
G02*
X140750001Y-104250000I-249999J0D01*
G01*
X139849999Y-104250000D01*
G75*
G02*
X139600000Y-104000001I0J249999D01*
G01*
X139600000Y-103299999D01*
G75*
G02*
X139849999Y-103050000I249999J0D01*
G01*
G37*
%TD*%
D10*
%TO.C,R21*%
X126750000Y-96500000D03*
X132300000Y-101350000D03*
X132300000Y-96500000D03*
X126750000Y-101350000D03*
D11*
X126985000Y-89775000D03*
X132065000Y-89775000D03*
%TD*%
%TO.C,R20*%
G36*
G01*
X119762500Y-95487500D02*
X119762500Y-95012500D01*
G75*
G02*
X120000000Y-94775000I237500J0D01*
G01*
X120500000Y-94775000D01*
G75*
G02*
X120737500Y-95012500I0J-237500D01*
G01*
X120737500Y-95487500D01*
G75*
G02*
X120500000Y-95725000I-237500J0D01*
G01*
X120000000Y-95725000D01*
G75*
G02*
X119762500Y-95487500I0J237500D01*
G01*
G37*
G36*
G01*
X117937500Y-95487500D02*
X117937500Y-95012500D01*
G75*
G02*
X118175000Y-94775000I237500J0D01*
G01*
X118675000Y-94775000D01*
G75*
G02*
X118912500Y-95012500I0J-237500D01*
G01*
X118912500Y-95487500D01*
G75*
G02*
X118675000Y-95725000I-237500J0D01*
G01*
X118175000Y-95725000D01*
G75*
G02*
X117937500Y-95487500I0J237500D01*
G01*
G37*
%TD*%
%TO.C,R19*%
G36*
G01*
X108375000Y-96162500D02*
X108375000Y-96637500D01*
G75*
G02*
X108137500Y-96875000I-237500J0D01*
G01*
X107637500Y-96875000D01*
G75*
G02*
X107400000Y-96637500I0J237500D01*
G01*
X107400000Y-96162500D01*
G75*
G02*
X107637500Y-95925000I237500J0D01*
G01*
X108137500Y-95925000D01*
G75*
G02*
X108375000Y-96162500I0J-237500D01*
G01*
G37*
G36*
G01*
X110200000Y-96162500D02*
X110200000Y-96637500D01*
G75*
G02*
X109962500Y-96875000I-237500J0D01*
G01*
X109462500Y-96875000D01*
G75*
G02*
X109225000Y-96637500I0J237500D01*
G01*
X109225000Y-96162500D01*
G75*
G02*
X109462500Y-95925000I237500J0D01*
G01*
X109962500Y-95925000D01*
G75*
G02*
X110200000Y-96162500I0J-237500D01*
G01*
G37*
%TD*%
%TO.C,R18*%
G36*
G01*
X105212500Y-96362500D02*
X105687500Y-96362500D01*
G75*
G02*
X105925000Y-96600000I0J-237500D01*
G01*
X105925000Y-97100000D01*
G75*
G02*
X105687500Y-97337500I-237500J0D01*
G01*
X105212500Y-97337500D01*
G75*
G02*
X104975000Y-97100000I0J237500D01*
G01*
X104975000Y-96600000D01*
G75*
G02*
X105212500Y-96362500I237500J0D01*
G01*
G37*
G36*
G01*
X105212500Y-94537500D02*
X105687500Y-94537500D01*
G75*
G02*
X105925000Y-94775000I0J-237500D01*
G01*
X105925000Y-95275000D01*
G75*
G02*
X105687500Y-95512500I-237500J0D01*
G01*
X105212500Y-95512500D01*
G75*
G02*
X104975000Y-95275000I0J237500D01*
G01*
X104975000Y-94775000D01*
G75*
G02*
X105212500Y-94537500I237500J0D01*
G01*
G37*
%TD*%
%TO.C,R17*%
G36*
G01*
X107562500Y-102812500D02*
X108037500Y-102812500D01*
G75*
G02*
X108275000Y-103050000I0J-237500D01*
G01*
X108275000Y-103550000D01*
G75*
G02*
X108037500Y-103787500I-237500J0D01*
G01*
X107562500Y-103787500D01*
G75*
G02*
X107325000Y-103550000I0J237500D01*
G01*
X107325000Y-103050000D01*
G75*
G02*
X107562500Y-102812500I237500J0D01*
G01*
G37*
G36*
G01*
X107562500Y-100987500D02*
X108037500Y-100987500D01*
G75*
G02*
X108275000Y-101225000I0J-237500D01*
G01*
X108275000Y-101725000D01*
G75*
G02*
X108037500Y-101962500I-237500J0D01*
G01*
X107562500Y-101962500D01*
G75*
G02*
X107325000Y-101725000I0J237500D01*
G01*
X107325000Y-101225000D01*
G75*
G02*
X107562500Y-100987500I237500J0D01*
G01*
G37*
%TD*%
%TO.C,R16*%
G36*
G01*
X112362500Y-100137500D02*
X112837500Y-100137500D01*
G75*
G02*
X113075000Y-100375000I0J-237500D01*
G01*
X113075000Y-100875000D01*
G75*
G02*
X112837500Y-101112500I-237500J0D01*
G01*
X112362500Y-101112500D01*
G75*
G02*
X112125000Y-100875000I0J237500D01*
G01*
X112125000Y-100375000D01*
G75*
G02*
X112362500Y-100137500I237500J0D01*
G01*
G37*
G36*
G01*
X112362500Y-98312500D02*
X112837500Y-98312500D01*
G75*
G02*
X113075000Y-98550000I0J-237500D01*
G01*
X113075000Y-99050000D01*
G75*
G02*
X112837500Y-99287500I-237500J0D01*
G01*
X112362500Y-99287500D01*
G75*
G02*
X112125000Y-99050000I0J237500D01*
G01*
X112125000Y-98550000D01*
G75*
G02*
X112362500Y-98312500I237500J0D01*
G01*
G37*
%TD*%
%TO.C,R14*%
G36*
G01*
X113787500Y-108387500D02*
X113787500Y-107912500D01*
G75*
G02*
X114025000Y-107675000I237500J0D01*
G01*
X114525000Y-107675000D01*
G75*
G02*
X114762500Y-107912500I0J-237500D01*
G01*
X114762500Y-108387500D01*
G75*
G02*
X114525000Y-108625000I-237500J0D01*
G01*
X114025000Y-108625000D01*
G75*
G02*
X113787500Y-108387500I0J237500D01*
G01*
G37*
G36*
G01*
X111962500Y-108387500D02*
X111962500Y-107912500D01*
G75*
G02*
X112200000Y-107675000I237500J0D01*
G01*
X112700000Y-107675000D01*
G75*
G02*
X112937500Y-107912500I0J-237500D01*
G01*
X112937500Y-108387500D01*
G75*
G02*
X112700000Y-108625000I-237500J0D01*
G01*
X112200000Y-108625000D01*
G75*
G02*
X111962500Y-108387500I0J237500D01*
G01*
G37*
%TD*%
%TO.C,R12*%
G36*
G01*
X119262500Y-103712500D02*
X119737500Y-103712500D01*
G75*
G02*
X119975000Y-103950000I0J-237500D01*
G01*
X119975000Y-104450000D01*
G75*
G02*
X119737500Y-104687500I-237500J0D01*
G01*
X119262500Y-104687500D01*
G75*
G02*
X119025000Y-104450000I0J237500D01*
G01*
X119025000Y-103950000D01*
G75*
G02*
X119262500Y-103712500I237500J0D01*
G01*
G37*
G36*
G01*
X119262500Y-101887500D02*
X119737500Y-101887500D01*
G75*
G02*
X119975000Y-102125000I0J-237500D01*
G01*
X119975000Y-102625000D01*
G75*
G02*
X119737500Y-102862500I-237500J0D01*
G01*
X119262500Y-102862500D01*
G75*
G02*
X119025000Y-102625000I0J237500D01*
G01*
X119025000Y-102125000D01*
G75*
G02*
X119262500Y-101887500I237500J0D01*
G01*
G37*
%TD*%
%TO.C,R11*%
G36*
G01*
X115637500Y-99262500D02*
X115162500Y-99262500D01*
G75*
G02*
X114925000Y-99025000I0J237500D01*
G01*
X114925000Y-98525000D01*
G75*
G02*
X115162500Y-98287500I237500J0D01*
G01*
X115637500Y-98287500D01*
G75*
G02*
X115875000Y-98525000I0J-237500D01*
G01*
X115875000Y-99025000D01*
G75*
G02*
X115637500Y-99262500I-237500J0D01*
G01*
G37*
G36*
G01*
X115637500Y-101087500D02*
X115162500Y-101087500D01*
G75*
G02*
X114925000Y-100850000I0J237500D01*
G01*
X114925000Y-100350000D01*
G75*
G02*
X115162500Y-100112500I237500J0D01*
G01*
X115637500Y-100112500D01*
G75*
G02*
X115875000Y-100350000I0J-237500D01*
G01*
X115875000Y-100850000D01*
G75*
G02*
X115637500Y-101087500I-237500J0D01*
G01*
G37*
%TD*%
%TO.C,R10*%
G36*
G01*
X117462500Y-100012500D02*
X117937500Y-100012500D01*
G75*
G02*
X118175000Y-100250000I0J-237500D01*
G01*
X118175000Y-100750000D01*
G75*
G02*
X117937500Y-100987500I-237500J0D01*
G01*
X117462500Y-100987500D01*
G75*
G02*
X117225000Y-100750000I0J237500D01*
G01*
X117225000Y-100250000D01*
G75*
G02*
X117462500Y-100012500I237500J0D01*
G01*
G37*
G36*
G01*
X117462500Y-98187500D02*
X117937500Y-98187500D01*
G75*
G02*
X118175000Y-98425000I0J-237500D01*
G01*
X118175000Y-98925000D01*
G75*
G02*
X117937500Y-99162500I-237500J0D01*
G01*
X117462500Y-99162500D01*
G75*
G02*
X117225000Y-98925000I0J237500D01*
G01*
X117225000Y-98425000D01*
G75*
G02*
X117462500Y-98187500I237500J0D01*
G01*
G37*
%TD*%
%TO.C,R9*%
G36*
G01*
X148812500Y-97637500D02*
X148812500Y-97162500D01*
G75*
G02*
X149050000Y-96925000I237500J0D01*
G01*
X149550000Y-96925000D01*
G75*
G02*
X149787500Y-97162500I0J-237500D01*
G01*
X149787500Y-97637500D01*
G75*
G02*
X149550000Y-97875000I-237500J0D01*
G01*
X149050000Y-97875000D01*
G75*
G02*
X148812500Y-97637500I0J237500D01*
G01*
G37*
G36*
G01*
X146987500Y-97637500D02*
X146987500Y-97162500D01*
G75*
G02*
X147225000Y-96925000I237500J0D01*
G01*
X147725000Y-96925000D01*
G75*
G02*
X147962500Y-97162500I0J-237500D01*
G01*
X147962500Y-97637500D01*
G75*
G02*
X147725000Y-97875000I-237500J0D01*
G01*
X147225000Y-97875000D01*
G75*
G02*
X146987500Y-97637500I0J237500D01*
G01*
G37*
%TD*%
%TO.C,R8*%
G36*
G01*
X140312500Y-100987500D02*
X140787500Y-100987500D01*
G75*
G02*
X141025000Y-101225000I0J-237500D01*
G01*
X141025000Y-101725000D01*
G75*
G02*
X140787500Y-101962500I-237500J0D01*
G01*
X140312500Y-101962500D01*
G75*
G02*
X140075000Y-101725000I0J237500D01*
G01*
X140075000Y-101225000D01*
G75*
G02*
X140312500Y-100987500I237500J0D01*
G01*
G37*
G36*
G01*
X140312500Y-99162500D02*
X140787500Y-99162500D01*
G75*
G02*
X141025000Y-99400000I0J-237500D01*
G01*
X141025000Y-99900000D01*
G75*
G02*
X140787500Y-100137500I-237500J0D01*
G01*
X140312500Y-100137500D01*
G75*
G02*
X140075000Y-99900000I0J237500D01*
G01*
X140075000Y-99400000D01*
G75*
G02*
X140312500Y-99162500I237500J0D01*
G01*
G37*
%TD*%
%TO.C,R7*%
G36*
G01*
X144312500Y-98662500D02*
X144787500Y-98662500D01*
G75*
G02*
X145025000Y-98900000I0J-237500D01*
G01*
X145025000Y-99400000D01*
G75*
G02*
X144787500Y-99637500I-237500J0D01*
G01*
X144312500Y-99637500D01*
G75*
G02*
X144075000Y-99400000I0J237500D01*
G01*
X144075000Y-98900000D01*
G75*
G02*
X144312500Y-98662500I237500J0D01*
G01*
G37*
G36*
G01*
X144312500Y-96837500D02*
X144787500Y-96837500D01*
G75*
G02*
X145025000Y-97075000I0J-237500D01*
G01*
X145025000Y-97575000D01*
G75*
G02*
X144787500Y-97812500I-237500J0D01*
G01*
X144312500Y-97812500D01*
G75*
G02*
X144075000Y-97575000I0J237500D01*
G01*
X144075000Y-97075000D01*
G75*
G02*
X144312500Y-96837500I237500J0D01*
G01*
G37*
%TD*%
%TO.C,R5*%
G36*
G01*
X144887500Y-105637500D02*
X144887500Y-105162500D01*
G75*
G02*
X145125000Y-104925000I237500J0D01*
G01*
X145625000Y-104925000D01*
G75*
G02*
X145862500Y-105162500I0J-237500D01*
G01*
X145862500Y-105637500D01*
G75*
G02*
X145625000Y-105875000I-237500J0D01*
G01*
X145125000Y-105875000D01*
G75*
G02*
X144887500Y-105637500I0J237500D01*
G01*
G37*
G36*
G01*
X143062500Y-105637500D02*
X143062500Y-105162500D01*
G75*
G02*
X143300000Y-104925000I237500J0D01*
G01*
X143800000Y-104925000D01*
G75*
G02*
X144037500Y-105162500I0J-237500D01*
G01*
X144037500Y-105637500D01*
G75*
G02*
X143800000Y-105875000I-237500J0D01*
G01*
X143300000Y-105875000D01*
G75*
G02*
X143062500Y-105637500I0J237500D01*
G01*
G37*
%TD*%
%TO.C,R3*%
G36*
G01*
X151312500Y-98912500D02*
X151787500Y-98912500D01*
G75*
G02*
X152025000Y-99150000I0J-237500D01*
G01*
X152025000Y-99650000D01*
G75*
G02*
X151787500Y-99887500I-237500J0D01*
G01*
X151312500Y-99887500D01*
G75*
G02*
X151075000Y-99650000I0J237500D01*
G01*
X151075000Y-99150000D01*
G75*
G02*
X151312500Y-98912500I237500J0D01*
G01*
G37*
G36*
G01*
X151312500Y-97087500D02*
X151787500Y-97087500D01*
G75*
G02*
X152025000Y-97325000I0J-237500D01*
G01*
X152025000Y-97825000D01*
G75*
G02*
X151787500Y-98062500I-237500J0D01*
G01*
X151312500Y-98062500D01*
G75*
G02*
X151075000Y-97825000I0J237500D01*
G01*
X151075000Y-97325000D01*
G75*
G02*
X151312500Y-97087500I237500J0D01*
G01*
G37*
%TD*%
%TO.C,R2*%
G36*
G01*
X147062500Y-104912500D02*
X147537500Y-104912500D01*
G75*
G02*
X147775000Y-105150000I0J-237500D01*
G01*
X147775000Y-105650000D01*
G75*
G02*
X147537500Y-105887500I-237500J0D01*
G01*
X147062500Y-105887500D01*
G75*
G02*
X146825000Y-105650000I0J237500D01*
G01*
X146825000Y-105150000D01*
G75*
G02*
X147062500Y-104912500I237500J0D01*
G01*
G37*
G36*
G01*
X147062500Y-103087500D02*
X147537500Y-103087500D01*
G75*
G02*
X147775000Y-103325000I0J-237500D01*
G01*
X147775000Y-103825000D01*
G75*
G02*
X147537500Y-104062500I-237500J0D01*
G01*
X147062500Y-104062500D01*
G75*
G02*
X146825000Y-103825000I0J237500D01*
G01*
X146825000Y-103325000D01*
G75*
G02*
X147062500Y-103087500I237500J0D01*
G01*
G37*
%TD*%
%TO.C,R1*%
G36*
G01*
X147312500Y-100662500D02*
X147787500Y-100662500D01*
G75*
G02*
X148025000Y-100900000I0J-237500D01*
G01*
X148025000Y-101400000D01*
G75*
G02*
X147787500Y-101637500I-237500J0D01*
G01*
X147312500Y-101637500D01*
G75*
G02*
X147075000Y-101400000I0J237500D01*
G01*
X147075000Y-100900000D01*
G75*
G02*
X147312500Y-100662500I237500J0D01*
G01*
G37*
G36*
G01*
X147312500Y-98837500D02*
X147787500Y-98837500D01*
G75*
G02*
X148025000Y-99075000I0J-237500D01*
G01*
X148025000Y-99575000D01*
G75*
G02*
X147787500Y-99812500I-237500J0D01*
G01*
X147312500Y-99812500D01*
G75*
G02*
X147075000Y-99575000I0J237500D01*
G01*
X147075000Y-99075000D01*
G75*
G02*
X147312500Y-98837500I237500J0D01*
G01*
G37*
%TD*%
D12*
%TO.C,Q6*%
X111850000Y-89000000D03*
X108500000Y-92050000D03*
X111850000Y-92050000D03*
X108500000Y-89000000D03*
D13*
X116475000Y-88245000D03*
X116475000Y-90525000D03*
X116475000Y-92805000D03*
%TD*%
D14*
%TO.C,Q5*%
X112700000Y-104350000D03*
X110700000Y-105300000D03*
X110700000Y-103400000D03*
%TD*%
%TO.C,Q4*%
X116950000Y-104200000D03*
X114950000Y-105150000D03*
X114950000Y-103250000D03*
%TD*%
D12*
%TO.C,Q3*%
X143900000Y-90850000D03*
X140550000Y-93900000D03*
X143900000Y-93900000D03*
X140550000Y-90850000D03*
D13*
X148525000Y-90095000D03*
X148525000Y-92375000D03*
X148525000Y-94655000D03*
%TD*%
D14*
%TO.C,Q2*%
X144300000Y-102450000D03*
X142300000Y-103400000D03*
X142300000Y-101500000D03*
%TD*%
%TO.C,Q1*%
X151300000Y-102200000D03*
X149300000Y-103150000D03*
X149300000Y-101250000D03*
%TD*%
D15*
%TO.C,D2*%
X110300000Y-98800000D03*
X107800000Y-98800000D03*
%TD*%
%TO.C,D1*%
X130050000Y-107600000D03*
X127550000Y-107600000D03*
%TD*%
%TO.C,C4*%
G36*
G01*
X152575000Y-94637500D02*
X153525000Y-94637500D01*
G75*
G02*
X153775000Y-94887500I0J-250000D01*
G01*
X153775000Y-95562500D01*
G75*
G02*
X153525000Y-95812500I-250000J0D01*
G01*
X152575000Y-95812500D01*
G75*
G02*
X152325000Y-95562500I0J250000D01*
G01*
X152325000Y-94887500D01*
G75*
G02*
X152575000Y-94637500I250000J0D01*
G01*
G37*
G36*
G01*
X152575000Y-92562500D02*
X153525000Y-92562500D01*
G75*
G02*
X153775000Y-92812500I0J-250000D01*
G01*
X153775000Y-93487500D01*
G75*
G02*
X153525000Y-93737500I-250000J0D01*
G01*
X152575000Y-93737500D01*
G75*
G02*
X152325000Y-93487500I0J250000D01*
G01*
X152325000Y-92812500D01*
G75*
G02*
X152575000Y-92562500I250000J0D01*
G01*
G37*
%TD*%
%TO.C,C2*%
G36*
G01*
X153287500Y-90625000D02*
X153287500Y-89675000D01*
G75*
G02*
X153537500Y-89425000I250000J0D01*
G01*
X154212500Y-89425000D01*
G75*
G02*
X154462500Y-89675000I0J-250000D01*
G01*
X154462500Y-90625000D01*
G75*
G02*
X154212500Y-90875000I-250000J0D01*
G01*
X153537500Y-90875000D01*
G75*
G02*
X153287500Y-90625000I0J250000D01*
G01*
G37*
G36*
G01*
X151212500Y-90625000D02*
X151212500Y-89675000D01*
G75*
G02*
X151462500Y-89425000I250000J0D01*
G01*
X152137500Y-89425000D01*
G75*
G02*
X152387500Y-89675000I0J-250000D01*
G01*
X152387500Y-90625000D01*
G75*
G02*
X152137500Y-90875000I-250000J0D01*
G01*
X151462500Y-90875000D01*
G75*
G02*
X151212500Y-90625000I0J250000D01*
G01*
G37*
%TD*%
%TO.C,C1*%
G36*
G01*
X158575000Y-89062500D02*
X157625000Y-89062500D01*
G75*
G02*
X157375000Y-88812500I0J250000D01*
G01*
X157375000Y-88137500D01*
G75*
G02*
X157625000Y-87887500I250000J0D01*
G01*
X158575000Y-87887500D01*
G75*
G02*
X158825000Y-88137500I0J-250000D01*
G01*
X158825000Y-88812500D01*
G75*
G02*
X158575000Y-89062500I-250000J0D01*
G01*
G37*
G36*
G01*
X158575000Y-91137500D02*
X157625000Y-91137500D01*
G75*
G02*
X157375000Y-90887500I0J250000D01*
G01*
X157375000Y-90212500D01*
G75*
G02*
X157625000Y-89962500I250000J0D01*
G01*
X158575000Y-89962500D01*
G75*
G02*
X158825000Y-90212500I0J-250000D01*
G01*
X158825000Y-90887500D01*
G75*
G02*
X158575000Y-91137500I-250000J0D01*
G01*
G37*
%TD*%
M02*
