M48
; DRILL file {KiCad 5.1.9-1.fc33} date Fri Apr 16 18:18:05 2021
; FORMAT={-:-/ absolute / metric / decimal}
; #@! TF.CreationDate,2021-04-16T18:18:05+01:00
; #@! TF.GenerationSoftware,Kicad,Pcbnew,5.1.9-1.fc33
; #@! TF.FileFunction,Plated,1,2,PTH
FMAT,2
METRIC
T1C0.400
T2C0.700
T3C1.000
T4C1.020
T5C1.470
%
G90
G05
T1
X104.4Y-98.35
X106.0Y-107.7
X109.5Y-104.5
X113.85Y-102.15
X115.4Y-97.5
X115.65Y-108.2
X116.4Y-101.85
X117.35Y-105.95
X120.25Y-96.4
X123.05Y-88.05
X125.35Y-87.0
X126.1Y-95.6
X126.1Y-99.1
X126.1Y-102.6
X126.3Y-108.45
X129.6Y-95.6
X129.6Y-99.1
X129.6Y-102.6
X129.975Y-89.775
X133.1Y-95.6
X133.1Y-99.1
X133.1Y-102.6
X133.925Y-89.775
X141.8Y-105.65
X142.3Y-100.4
X143.05Y-99.4
X145.3Y-106.65
X146.213Y-99.562
X147.3Y-106.65
X151.3Y-103.4
X151.55Y-95.65
X155.4Y-90.15
X156.55Y-88.45
X158.25Y-106.0
T2
X224.7Y-106.35
X226.6Y-106.35
T3
X231.5Y-90.83
X231.5Y-93.37
X231.5Y-95.91
X231.5Y-98.45
T4
X236.8Y-91.85
X236.8Y-94.85
X236.8Y-97.85
X236.8Y-100.85
X236.8Y-103.85
X239.8Y-91.85
X239.8Y-94.85
X239.8Y-97.85
X239.8Y-100.85
X239.8Y-103.85
T5
X160.98Y-90.55
X160.98Y-105.79
X163.52Y-90.55
X163.52Y-105.79
X166.06Y-90.55
X166.06Y-105.79
X168.6Y-90.55
X168.6Y-105.79
X171.14Y-90.55
X171.14Y-105.79
X173.68Y-90.55
X173.68Y-105.79
X176.22Y-90.55
X176.22Y-105.79
X178.76Y-90.55
X178.76Y-105.79
X181.3Y-90.55
X181.3Y-105.79
X183.84Y-90.55
X183.84Y-105.79
X186.38Y-90.55
X186.38Y-105.79
X188.92Y-90.55
X188.92Y-105.79
X191.46Y-90.55
X191.46Y-105.79
X194.0Y-90.55
X194.0Y-105.79
X196.54Y-90.55
X196.54Y-105.79
X199.08Y-90.55
X199.08Y-105.79
X201.62Y-90.55
X201.62Y-105.79
X204.16Y-90.55
X204.16Y-105.79
X206.7Y-90.55
X206.7Y-105.79
X209.24Y-90.55
X209.24Y-105.79
X211.78Y-90.55
X211.78Y-105.79
X214.32Y-90.55
X214.32Y-105.79
X216.86Y-90.55
X216.86Y-105.79
X219.4Y-90.55
X219.4Y-105.79
T0
M30
