%TF.GenerationSoftware,KiCad,Pcbnew,5.1.10-1.fc34*%
%TF.CreationDate,2021-09-08T08:00:36+01:00*%
%TF.ProjectId,cryosub_power_converter_top_v01,6372796f-7375-4625-9f70-6f7765725f63,rev?*%
%TF.SameCoordinates,Original*%
%TF.FileFunction,Soldermask,Top*%
%TF.FilePolarity,Negative*%
%FSLAX46Y46*%
G04 Gerber Fmt 4.6, Leading zero omitted, Abs format (unit mm)*
G04 Created by KiCad (PCBNEW 5.1.10-1.fc34) date 2021-09-08 08:00:36*
%MOMM*%
%LPD*%
G01*
G04 APERTURE LIST*
%ADD10R,2.500000X1.800000*%
%ADD11O,2.190000X1.740000*%
%ADD12C,2.700000*%
%ADD13O,1.800000X3.600000*%
%ADD14R,0.900000X0.800000*%
%ADD15R,1.200000X2.200000*%
%ADD16R,5.800000X6.400000*%
%ADD17R,1.880000X1.680000*%
G04 APERTURE END LIST*
D10*
%TO.C,D3*%
X120000000Y-133600000D03*
X116000000Y-133600000D03*
%TD*%
%TO.C,C6*%
G36*
G01*
X126487500Y-132725000D02*
X126487500Y-131775000D01*
G75*
G02*
X126737500Y-131525000I250000J0D01*
G01*
X127412500Y-131525000D01*
G75*
G02*
X127662500Y-131775000I0J-250000D01*
G01*
X127662500Y-132725000D01*
G75*
G02*
X127412500Y-132975000I-250000J0D01*
G01*
X126737500Y-132975000D01*
G75*
G02*
X126487500Y-132725000I0J250000D01*
G01*
G37*
G36*
G01*
X124412500Y-132725000D02*
X124412500Y-131775000D01*
G75*
G02*
X124662500Y-131525000I250000J0D01*
G01*
X125337500Y-131525000D01*
G75*
G02*
X125587500Y-131775000I0J-250000D01*
G01*
X125587500Y-132725000D01*
G75*
G02*
X125337500Y-132975000I-250000J0D01*
G01*
X124662500Y-132975000D01*
G75*
G02*
X124412500Y-132725000I0J250000D01*
G01*
G37*
%TD*%
%TO.C,R10*%
G36*
G01*
X126737500Y-120662500D02*
X126262500Y-120662500D01*
G75*
G02*
X126025000Y-120425000I0J237500D01*
G01*
X126025000Y-119925000D01*
G75*
G02*
X126262500Y-119687500I237500J0D01*
G01*
X126737500Y-119687500D01*
G75*
G02*
X126975000Y-119925000I0J-237500D01*
G01*
X126975000Y-120425000D01*
G75*
G02*
X126737500Y-120662500I-237500J0D01*
G01*
G37*
G36*
G01*
X126737500Y-122487500D02*
X126262500Y-122487500D01*
G75*
G02*
X126025000Y-122250000I0J237500D01*
G01*
X126025000Y-121750000D01*
G75*
G02*
X126262500Y-121512500I237500J0D01*
G01*
X126737500Y-121512500D01*
G75*
G02*
X126975000Y-121750000I0J-237500D01*
G01*
X126975000Y-122250000D01*
G75*
G02*
X126737500Y-122487500I-237500J0D01*
G01*
G37*
%TD*%
%TO.C,C5*%
G36*
G01*
X124725000Y-120512500D02*
X123775000Y-120512500D01*
G75*
G02*
X123525000Y-120262500I0J250000D01*
G01*
X123525000Y-119587500D01*
G75*
G02*
X123775000Y-119337500I250000J0D01*
G01*
X124725000Y-119337500D01*
G75*
G02*
X124975000Y-119587500I0J-250000D01*
G01*
X124975000Y-120262500D01*
G75*
G02*
X124725000Y-120512500I-250000J0D01*
G01*
G37*
G36*
G01*
X124725000Y-122587500D02*
X123775000Y-122587500D01*
G75*
G02*
X123525000Y-122337500I0J250000D01*
G01*
X123525000Y-121662500D01*
G75*
G02*
X123775000Y-121412500I250000J0D01*
G01*
X124725000Y-121412500D01*
G75*
G02*
X124975000Y-121662500I0J-250000D01*
G01*
X124975000Y-122337500D01*
G75*
G02*
X124725000Y-122587500I-250000J0D01*
G01*
G37*
%TD*%
%TO.C,C4*%
G36*
G01*
X128487500Y-120787500D02*
X128012500Y-120787500D01*
G75*
G02*
X127775000Y-120550000I0J237500D01*
G01*
X127775000Y-119950000D01*
G75*
G02*
X128012500Y-119712500I237500J0D01*
G01*
X128487500Y-119712500D01*
G75*
G02*
X128725000Y-119950000I0J-237500D01*
G01*
X128725000Y-120550000D01*
G75*
G02*
X128487500Y-120787500I-237500J0D01*
G01*
G37*
G36*
G01*
X128487500Y-122512500D02*
X128012500Y-122512500D01*
G75*
G02*
X127775000Y-122275000I0J237500D01*
G01*
X127775000Y-121675000D01*
G75*
G02*
X128012500Y-121437500I237500J0D01*
G01*
X128487500Y-121437500D01*
G75*
G02*
X128725000Y-121675000I0J-237500D01*
G01*
X128725000Y-122275000D01*
G75*
G02*
X128487500Y-122512500I-237500J0D01*
G01*
G37*
%TD*%
D11*
%TO.C,J3*%
X126000000Y-103460000D03*
G36*
G01*
X126845001Y-106870000D02*
X125154999Y-106870000D01*
G75*
G02*
X124905000Y-106620001I0J249999D01*
G01*
X124905000Y-105379999D01*
G75*
G02*
X125154999Y-105130000I249999J0D01*
G01*
X126845001Y-105130000D01*
G75*
G02*
X127095000Y-105379999I0J-249999D01*
G01*
X127095000Y-106620001D01*
G75*
G02*
X126845001Y-106870000I-249999J0D01*
G01*
G37*
%TD*%
%TO.C,C1*%
G36*
G01*
X110975000Y-124087500D02*
X110025000Y-124087500D01*
G75*
G02*
X109775000Y-123837500I0J250000D01*
G01*
X109775000Y-123162500D01*
G75*
G02*
X110025000Y-122912500I250000J0D01*
G01*
X110975000Y-122912500D01*
G75*
G02*
X111225000Y-123162500I0J-250000D01*
G01*
X111225000Y-123837500D01*
G75*
G02*
X110975000Y-124087500I-250000J0D01*
G01*
G37*
G36*
G01*
X110975000Y-126162500D02*
X110025000Y-126162500D01*
G75*
G02*
X109775000Y-125912500I0J250000D01*
G01*
X109775000Y-125237500D01*
G75*
G02*
X110025000Y-124987500I250000J0D01*
G01*
X110975000Y-124987500D01*
G75*
G02*
X111225000Y-125237500I0J-250000D01*
G01*
X111225000Y-125912500D01*
G75*
G02*
X110975000Y-126162500I-250000J0D01*
G01*
G37*
%TD*%
%TO.C,C2*%
G36*
G01*
X105262500Y-128262500D02*
X105262500Y-128737500D01*
G75*
G02*
X105025000Y-128975000I-237500J0D01*
G01*
X104425000Y-128975000D01*
G75*
G02*
X104187500Y-128737500I0J237500D01*
G01*
X104187500Y-128262500D01*
G75*
G02*
X104425000Y-128025000I237500J0D01*
G01*
X105025000Y-128025000D01*
G75*
G02*
X105262500Y-128262500I0J-237500D01*
G01*
G37*
G36*
G01*
X103537500Y-128262500D02*
X103537500Y-128737500D01*
G75*
G02*
X103300000Y-128975000I-237500J0D01*
G01*
X102700000Y-128975000D01*
G75*
G02*
X102462500Y-128737500I0J237500D01*
G01*
X102462500Y-128262500D01*
G75*
G02*
X102700000Y-128025000I237500J0D01*
G01*
X103300000Y-128025000D01*
G75*
G02*
X103537500Y-128262500I0J-237500D01*
G01*
G37*
%TD*%
%TO.C,C3*%
G36*
G01*
X109025000Y-106337500D02*
X109975000Y-106337500D01*
G75*
G02*
X110225000Y-106587500I0J-250000D01*
G01*
X110225000Y-107262500D01*
G75*
G02*
X109975000Y-107512500I-250000J0D01*
G01*
X109025000Y-107512500D01*
G75*
G02*
X108775000Y-107262500I0J250000D01*
G01*
X108775000Y-106587500D01*
G75*
G02*
X109025000Y-106337500I250000J0D01*
G01*
G37*
G36*
G01*
X109025000Y-108412500D02*
X109975000Y-108412500D01*
G75*
G02*
X110225000Y-108662500I0J-250000D01*
G01*
X110225000Y-109337500D01*
G75*
G02*
X109975000Y-109587500I-250000J0D01*
G01*
X109025000Y-109587500D01*
G75*
G02*
X108775000Y-109337500I0J250000D01*
G01*
X108775000Y-108662500D01*
G75*
G02*
X109025000Y-108412500I250000J0D01*
G01*
G37*
%TD*%
D12*
%TO.C,H1*%
X104000000Y-141000000D03*
%TD*%
%TO.C,H2*%
X126000000Y-113000000D03*
%TD*%
%TO.C,H3*%
X130000000Y-141000000D03*
%TD*%
%TO.C,J1*%
G36*
G01*
X115100000Y-141550000D02*
X115100000Y-138450000D01*
G75*
G02*
X115350000Y-138200000I250000J0D01*
G01*
X116650000Y-138200000D01*
G75*
G02*
X116900000Y-138450000I0J-250000D01*
G01*
X116900000Y-141550000D01*
G75*
G02*
X116650000Y-141800000I-250000J0D01*
G01*
X115350000Y-141800000D01*
G75*
G02*
X115100000Y-141550000I0J250000D01*
G01*
G37*
D13*
X119810000Y-140000000D03*
%TD*%
D14*
%TO.C,Q1*%
X116500000Y-123450000D03*
X114500000Y-124400000D03*
X114500000Y-122500000D03*
%TD*%
%TO.C,Q2*%
X114500000Y-127100000D03*
X114500000Y-129000000D03*
X116500000Y-128050000D03*
%TD*%
D15*
%TO.C,Q3*%
X102720000Y-125200000D03*
X105000000Y-125200000D03*
X107280000Y-125200000D03*
D16*
X105000000Y-118900000D03*
%TD*%
%TO.C,R1*%
G36*
G01*
X112187500Y-120237500D02*
X112187500Y-119762500D01*
G75*
G02*
X112425000Y-119525000I237500J0D01*
G01*
X112925000Y-119525000D01*
G75*
G02*
X113162500Y-119762500I0J-237500D01*
G01*
X113162500Y-120237500D01*
G75*
G02*
X112925000Y-120475000I-237500J0D01*
G01*
X112425000Y-120475000D01*
G75*
G02*
X112187500Y-120237500I0J237500D01*
G01*
G37*
G36*
G01*
X114012500Y-120237500D02*
X114012500Y-119762500D01*
G75*
G02*
X114250000Y-119525000I237500J0D01*
G01*
X114750000Y-119525000D01*
G75*
G02*
X114987500Y-119762500I0J-237500D01*
G01*
X114987500Y-120237500D01*
G75*
G02*
X114750000Y-120475000I-237500J0D01*
G01*
X114250000Y-120475000D01*
G75*
G02*
X114012500Y-120237500I0J237500D01*
G01*
G37*
%TD*%
%TO.C,R2*%
G36*
G01*
X117425000Y-120237500D02*
X117425000Y-119762500D01*
G75*
G02*
X117662500Y-119525000I237500J0D01*
G01*
X118162500Y-119525000D01*
G75*
G02*
X118400000Y-119762500I0J-237500D01*
G01*
X118400000Y-120237500D01*
G75*
G02*
X118162500Y-120475000I-237500J0D01*
G01*
X117662500Y-120475000D01*
G75*
G02*
X117425000Y-120237500I0J237500D01*
G01*
G37*
G36*
G01*
X115600000Y-120237500D02*
X115600000Y-119762500D01*
G75*
G02*
X115837500Y-119525000I237500J0D01*
G01*
X116337500Y-119525000D01*
G75*
G02*
X116575000Y-119762500I0J-237500D01*
G01*
X116575000Y-120237500D01*
G75*
G02*
X116337500Y-120475000I-237500J0D01*
G01*
X115837500Y-120475000D01*
G75*
G02*
X115600000Y-120237500I0J237500D01*
G01*
G37*
%TD*%
%TO.C,R3*%
G36*
G01*
X121487500Y-123262500D02*
X121487500Y-123737500D01*
G75*
G02*
X121250000Y-123975000I-237500J0D01*
G01*
X120750000Y-123975000D01*
G75*
G02*
X120512500Y-123737500I0J237500D01*
G01*
X120512500Y-123262500D01*
G75*
G02*
X120750000Y-123025000I237500J0D01*
G01*
X121250000Y-123025000D01*
G75*
G02*
X121487500Y-123262500I0J-237500D01*
G01*
G37*
G36*
G01*
X119662500Y-123262500D02*
X119662500Y-123737500D01*
G75*
G02*
X119425000Y-123975000I-237500J0D01*
G01*
X118925000Y-123975000D01*
G75*
G02*
X118687500Y-123737500I0J237500D01*
G01*
X118687500Y-123262500D01*
G75*
G02*
X118925000Y-123025000I237500J0D01*
G01*
X119425000Y-123025000D01*
G75*
G02*
X119662500Y-123262500I0J-237500D01*
G01*
G37*
%TD*%
%TO.C,R7*%
G36*
G01*
X121487500Y-127762500D02*
X121487500Y-128237500D01*
G75*
G02*
X121250000Y-128475000I-237500J0D01*
G01*
X120750000Y-128475000D01*
G75*
G02*
X120512500Y-128237500I0J237500D01*
G01*
X120512500Y-127762500D01*
G75*
G02*
X120750000Y-127525000I237500J0D01*
G01*
X121250000Y-127525000D01*
G75*
G02*
X121487500Y-127762500I0J-237500D01*
G01*
G37*
G36*
G01*
X119662500Y-127762500D02*
X119662500Y-128237500D01*
G75*
G02*
X119425000Y-128475000I-237500J0D01*
G01*
X118925000Y-128475000D01*
G75*
G02*
X118687500Y-128237500I0J237500D01*
G01*
X118687500Y-127762500D01*
G75*
G02*
X118925000Y-127525000I237500J0D01*
G01*
X119425000Y-127525000D01*
G75*
G02*
X119662500Y-127762500I0J-237500D01*
G01*
G37*
%TD*%
%TO.C,R9*%
G36*
G01*
X102512500Y-130737500D02*
X102512500Y-130262500D01*
G75*
G02*
X102750000Y-130025000I237500J0D01*
G01*
X103250000Y-130025000D01*
G75*
G02*
X103487500Y-130262500I0J-237500D01*
G01*
X103487500Y-130737500D01*
G75*
G02*
X103250000Y-130975000I-237500J0D01*
G01*
X102750000Y-130975000D01*
G75*
G02*
X102512500Y-130737500I0J237500D01*
G01*
G37*
G36*
G01*
X104337500Y-130737500D02*
X104337500Y-130262500D01*
G75*
G02*
X104575000Y-130025000I237500J0D01*
G01*
X105075000Y-130025000D01*
G75*
G02*
X105312500Y-130262500I0J-237500D01*
G01*
X105312500Y-130737500D01*
G75*
G02*
X105075000Y-130975000I-237500J0D01*
G01*
X104575000Y-130975000D01*
G75*
G02*
X104337500Y-130737500I0J237500D01*
G01*
G37*
%TD*%
%TO.C,U1*%
G36*
G01*
X125075000Y-129875000D02*
X124925000Y-129875000D01*
G75*
G02*
X124850000Y-129800000I0J75000D01*
G01*
X124850000Y-128500000D01*
G75*
G02*
X124925000Y-128425000I75000J0D01*
G01*
X125075000Y-128425000D01*
G75*
G02*
X125150000Y-128500000I0J-75000D01*
G01*
X125150000Y-129800000D01*
G75*
G02*
X125075000Y-129875000I-75000J0D01*
G01*
G37*
G36*
G01*
X125575000Y-129875000D02*
X125425000Y-129875000D01*
G75*
G02*
X125350000Y-129800000I0J75000D01*
G01*
X125350000Y-128500000D01*
G75*
G02*
X125425000Y-128425000I75000J0D01*
G01*
X125575000Y-128425000D01*
G75*
G02*
X125650000Y-128500000I0J-75000D01*
G01*
X125650000Y-129800000D01*
G75*
G02*
X125575000Y-129875000I-75000J0D01*
G01*
G37*
G36*
G01*
X126075000Y-129875000D02*
X125925000Y-129875000D01*
G75*
G02*
X125850000Y-129800000I0J75000D01*
G01*
X125850000Y-128500000D01*
G75*
G02*
X125925000Y-128425000I75000J0D01*
G01*
X126075000Y-128425000D01*
G75*
G02*
X126150000Y-128500000I0J-75000D01*
G01*
X126150000Y-129800000D01*
G75*
G02*
X126075000Y-129875000I-75000J0D01*
G01*
G37*
G36*
G01*
X126575000Y-129875000D02*
X126425000Y-129875000D01*
G75*
G02*
X126350000Y-129800000I0J75000D01*
G01*
X126350000Y-128500000D01*
G75*
G02*
X126425000Y-128425000I75000J0D01*
G01*
X126575000Y-128425000D01*
G75*
G02*
X126650000Y-128500000I0J-75000D01*
G01*
X126650000Y-129800000D01*
G75*
G02*
X126575000Y-129875000I-75000J0D01*
G01*
G37*
G36*
G01*
X127075000Y-129875000D02*
X126925000Y-129875000D01*
G75*
G02*
X126850000Y-129800000I0J75000D01*
G01*
X126850000Y-128500000D01*
G75*
G02*
X126925000Y-128425000I75000J0D01*
G01*
X127075000Y-128425000D01*
G75*
G02*
X127150000Y-128500000I0J-75000D01*
G01*
X127150000Y-129800000D01*
G75*
G02*
X127075000Y-129875000I-75000J0D01*
G01*
G37*
G36*
G01*
X127075000Y-125575000D02*
X126925000Y-125575000D01*
G75*
G02*
X126850000Y-125500000I0J75000D01*
G01*
X126850000Y-124200000D01*
G75*
G02*
X126925000Y-124125000I75000J0D01*
G01*
X127075000Y-124125000D01*
G75*
G02*
X127150000Y-124200000I0J-75000D01*
G01*
X127150000Y-125500000D01*
G75*
G02*
X127075000Y-125575000I-75000J0D01*
G01*
G37*
G36*
G01*
X126575000Y-125575000D02*
X126425000Y-125575000D01*
G75*
G02*
X126350000Y-125500000I0J75000D01*
G01*
X126350000Y-124200000D01*
G75*
G02*
X126425000Y-124125000I75000J0D01*
G01*
X126575000Y-124125000D01*
G75*
G02*
X126650000Y-124200000I0J-75000D01*
G01*
X126650000Y-125500000D01*
G75*
G02*
X126575000Y-125575000I-75000J0D01*
G01*
G37*
G36*
G01*
X126075000Y-125575000D02*
X125925000Y-125575000D01*
G75*
G02*
X125850000Y-125500000I0J75000D01*
G01*
X125850000Y-124200000D01*
G75*
G02*
X125925000Y-124125000I75000J0D01*
G01*
X126075000Y-124125000D01*
G75*
G02*
X126150000Y-124200000I0J-75000D01*
G01*
X126150000Y-125500000D01*
G75*
G02*
X126075000Y-125575000I-75000J0D01*
G01*
G37*
G36*
G01*
X125575000Y-125575000D02*
X125425000Y-125575000D01*
G75*
G02*
X125350000Y-125500000I0J75000D01*
G01*
X125350000Y-124200000D01*
G75*
G02*
X125425000Y-124125000I75000J0D01*
G01*
X125575000Y-124125000D01*
G75*
G02*
X125650000Y-124200000I0J-75000D01*
G01*
X125650000Y-125500000D01*
G75*
G02*
X125575000Y-125575000I-75000J0D01*
G01*
G37*
G36*
G01*
X125075000Y-125575000D02*
X124925000Y-125575000D01*
G75*
G02*
X124850000Y-125500000I0J75000D01*
G01*
X124850000Y-124200000D01*
G75*
G02*
X124925000Y-124125000I75000J0D01*
G01*
X125075000Y-124125000D01*
G75*
G02*
X125150000Y-124200000I0J-75000D01*
G01*
X125150000Y-125500000D01*
G75*
G02*
X125075000Y-125575000I-75000J0D01*
G01*
G37*
D17*
X126000000Y-127000000D03*
%TD*%
M02*
