%TF.GenerationSoftware,KiCad,Pcbnew,5.1.10-1.fc34*%
%TF.CreationDate,2021-09-08T08:00:36+01:00*%
%TF.ProjectId,cryosub_power_converter_top_v01,6372796f-7375-4625-9f70-6f7765725f63,rev?*%
%TF.SameCoordinates,Original*%
%TF.FileFunction,Copper,L2,Inr*%
%TF.FilePolarity,Positive*%
%FSLAX46Y46*%
G04 Gerber Fmt 4.6, Leading zero omitted, Abs format (unit mm)*
G04 Created by KiCad (PCBNEW 5.1.10-1.fc34) date 2021-09-08 08:00:36*
%MOMM*%
%LPD*%
G01*
G04 APERTURE LIST*
%TA.AperFunction,ComponentPad*%
%ADD10O,2.190000X1.740000*%
%TD*%
%TA.AperFunction,ComponentPad*%
%ADD11O,1.800000X3.600000*%
%TD*%
%TA.AperFunction,ViaPad*%
%ADD12C,0.800000*%
%TD*%
%TA.AperFunction,Conductor*%
%ADD13C,0.254000*%
%TD*%
%TA.AperFunction,Conductor*%
%ADD14C,0.100000*%
%TD*%
G04 APERTURE END LIST*
D10*
%TO.N,GND*%
%TO.C,J3*%
X126000000Y-103460000D03*
%TO.N,/p5v_out*%
%TA.AperFunction,ComponentPad*%
G36*
G01*
X126845001Y-106870000D02*
X125154999Y-106870000D01*
G75*
G02*
X124905000Y-106620001I0J249999D01*
G01*
X124905000Y-105379999D01*
G75*
G02*
X125154999Y-105130000I249999J0D01*
G01*
X126845001Y-105130000D01*
G75*
G02*
X127095000Y-105379999I0J-249999D01*
G01*
X127095000Y-106620001D01*
G75*
G02*
X126845001Y-106870000I-249999J0D01*
G01*
G37*
%TD.AperFunction*%
%TD*%
%TO.N,VDC*%
%TO.C,J1*%
%TA.AperFunction,ComponentPad*%
G36*
G01*
X115100000Y-141550000D02*
X115100000Y-138450000D01*
G75*
G02*
X115350000Y-138200000I250000J0D01*
G01*
X116650000Y-138200000D01*
G75*
G02*
X116900000Y-138450000I0J-250000D01*
G01*
X116900000Y-141550000D01*
G75*
G02*
X116650000Y-141800000I-250000J0D01*
G01*
X115350000Y-141800000D01*
G75*
G02*
X115100000Y-141550000I0J250000D01*
G01*
G37*
%TD.AperFunction*%
D11*
%TO.N,GND*%
X119810000Y-140000000D03*
%TD*%
D12*
%TO.N,VDC*%
X123200000Y-129400000D03*
X123200000Y-131000000D03*
X123200000Y-132800000D03*
%TO.N,GND*%
X123200000Y-125600000D03*
X124000000Y-126800000D03*
X123200000Y-127600000D03*
X128202593Y-127124996D03*
X129200000Y-126800000D03*
X129200000Y-127800000D03*
%TO.N,/vload*%
X109460000Y-103040000D03*
X107000000Y-103000000D03*
X103000000Y-104000000D03*
%TO.N,GND*%
X107000000Y-113000000D03*
X109500000Y-113000000D03*
X112000000Y-113000000D03*
X103000000Y-112500000D03*
X110500000Y-122000000D03*
X119000000Y-120000000D03*
X116500000Y-126000000D03*
X126500000Y-119000000D03*
X128500000Y-119000000D03*
X124000000Y-119000000D03*
X127550000Y-129150000D03*
X127950000Y-132250000D03*
%TO.N,/On When Warm/VD1*%
X119500000Y-122000000D03*
%TO.N,/On When Warm/vs*%
X113500000Y-124500000D03*
X113500000Y-129000000D03*
%TO.N,/On When Warm/vg1*%
X116500000Y-121500000D03*
%TO.N,/thermistor*%
X118000000Y-127000000D03*
%TO.N,/On When Warm/vd2*%
X118551318Y-125956175D03*
%TO.N,VDC*%
X120000000Y-109000000D03*
X107280000Y-127280000D03*
X110500000Y-127500000D03*
X121000000Y-122000000D03*
X121000000Y-129500000D03*
X111500000Y-120000000D03*
%TD*%
D13*
%TO.N,GND*%
X133340001Y-144340000D02*
X100660000Y-144340000D01*
X100660000Y-140804495D01*
X102015000Y-140804495D01*
X102015000Y-141195505D01*
X102091282Y-141579003D01*
X102240915Y-141940250D01*
X102458149Y-142265364D01*
X102734636Y-142541851D01*
X103059750Y-142759085D01*
X103420997Y-142908718D01*
X103804495Y-142985000D01*
X104195505Y-142985000D01*
X104579003Y-142908718D01*
X104940250Y-142759085D01*
X105265364Y-142541851D01*
X105541851Y-142265364D01*
X105759085Y-141940250D01*
X105908718Y-141579003D01*
X105985000Y-141195505D01*
X105985000Y-140804495D01*
X105908718Y-140420997D01*
X105759085Y-140059750D01*
X105541851Y-139734636D01*
X105265364Y-139458149D01*
X104940250Y-139240915D01*
X104579003Y-139091282D01*
X104195505Y-139015000D01*
X103804495Y-139015000D01*
X103420997Y-139091282D01*
X103059750Y-139240915D01*
X102734636Y-139458149D01*
X102458149Y-139734636D01*
X102240915Y-140059750D01*
X102091282Y-140420997D01*
X102015000Y-140804495D01*
X100660000Y-140804495D01*
X100660000Y-138450000D01*
X114461928Y-138450000D01*
X114461928Y-141550000D01*
X114478992Y-141723254D01*
X114529528Y-141889850D01*
X114611595Y-142043386D01*
X114722038Y-142177962D01*
X114856614Y-142288405D01*
X115010150Y-142370472D01*
X115176746Y-142421008D01*
X115350000Y-142438072D01*
X116650000Y-142438072D01*
X116823254Y-142421008D01*
X116989850Y-142370472D01*
X117143386Y-142288405D01*
X117277962Y-142177962D01*
X117388405Y-142043386D01*
X117470472Y-141889850D01*
X117521008Y-141723254D01*
X117538072Y-141550000D01*
X117538072Y-140127000D01*
X118275000Y-140127000D01*
X118275000Y-141027000D01*
X118329271Y-141324023D01*
X118440446Y-141604751D01*
X118604252Y-141858396D01*
X118814394Y-142075210D01*
X119062796Y-142246862D01*
X119339913Y-142366755D01*
X119445260Y-142391036D01*
X119683000Y-142270378D01*
X119683000Y-140127000D01*
X119937000Y-140127000D01*
X119937000Y-142270378D01*
X120174740Y-142391036D01*
X120280087Y-142366755D01*
X120557204Y-142246862D01*
X120805606Y-142075210D01*
X121015748Y-141858396D01*
X121179554Y-141604751D01*
X121290729Y-141324023D01*
X121345000Y-141027000D01*
X121345000Y-140804495D01*
X128015000Y-140804495D01*
X128015000Y-141195505D01*
X128091282Y-141579003D01*
X128240915Y-141940250D01*
X128458149Y-142265364D01*
X128734636Y-142541851D01*
X129059750Y-142759085D01*
X129420997Y-142908718D01*
X129804495Y-142985000D01*
X130195505Y-142985000D01*
X130579003Y-142908718D01*
X130940250Y-142759085D01*
X131265364Y-142541851D01*
X131541851Y-142265364D01*
X131759085Y-141940250D01*
X131908718Y-141579003D01*
X131985000Y-141195505D01*
X131985000Y-140804495D01*
X131908718Y-140420997D01*
X131759085Y-140059750D01*
X131541851Y-139734636D01*
X131265364Y-139458149D01*
X130940250Y-139240915D01*
X130579003Y-139091282D01*
X130195505Y-139015000D01*
X129804495Y-139015000D01*
X129420997Y-139091282D01*
X129059750Y-139240915D01*
X128734636Y-139458149D01*
X128458149Y-139734636D01*
X128240915Y-140059750D01*
X128091282Y-140420997D01*
X128015000Y-140804495D01*
X121345000Y-140804495D01*
X121345000Y-140127000D01*
X119937000Y-140127000D01*
X119683000Y-140127000D01*
X118275000Y-140127000D01*
X117538072Y-140127000D01*
X117538072Y-138973000D01*
X118275000Y-138973000D01*
X118275000Y-139873000D01*
X119683000Y-139873000D01*
X119683000Y-137729622D01*
X119937000Y-137729622D01*
X119937000Y-139873000D01*
X121345000Y-139873000D01*
X121345000Y-138973000D01*
X121290729Y-138675977D01*
X121179554Y-138395249D01*
X121015748Y-138141604D01*
X120805606Y-137924790D01*
X120557204Y-137753138D01*
X120280087Y-137633245D01*
X120174740Y-137608964D01*
X119937000Y-137729622D01*
X119683000Y-137729622D01*
X119445260Y-137608964D01*
X119339913Y-137633245D01*
X119062796Y-137753138D01*
X118814394Y-137924790D01*
X118604252Y-138141604D01*
X118440446Y-138395249D01*
X118329271Y-138675977D01*
X118275000Y-138973000D01*
X117538072Y-138973000D01*
X117538072Y-138450000D01*
X117521008Y-138276746D01*
X117470472Y-138110150D01*
X117388405Y-137956614D01*
X117277962Y-137822038D01*
X117143386Y-137711595D01*
X116989850Y-137629528D01*
X116823254Y-137578992D01*
X116650000Y-137561928D01*
X115350000Y-137561928D01*
X115176746Y-137578992D01*
X115010150Y-137629528D01*
X114856614Y-137711595D01*
X114722038Y-137822038D01*
X114611595Y-137956614D01*
X114529528Y-138110150D01*
X114478992Y-138276746D01*
X114461928Y-138450000D01*
X100660000Y-138450000D01*
X100660000Y-128898061D01*
X112465000Y-128898061D01*
X112465000Y-129101939D01*
X112504774Y-129301898D01*
X112582795Y-129490256D01*
X112696063Y-129659774D01*
X112840226Y-129803937D01*
X113009744Y-129917205D01*
X113198102Y-129995226D01*
X113398061Y-130035000D01*
X113601939Y-130035000D01*
X113801898Y-129995226D01*
X113990256Y-129917205D01*
X114159774Y-129803937D01*
X114303937Y-129659774D01*
X114417205Y-129490256D01*
X114455393Y-129398061D01*
X119965000Y-129398061D01*
X119965000Y-129601939D01*
X120004774Y-129801898D01*
X120082795Y-129990256D01*
X120196063Y-130159774D01*
X120340226Y-130303937D01*
X120509744Y-130417205D01*
X120698102Y-130495226D01*
X120898061Y-130535000D01*
X121101939Y-130535000D01*
X121301898Y-130495226D01*
X121490256Y-130417205D01*
X121659774Y-130303937D01*
X121803937Y-130159774D01*
X121917205Y-129990256D01*
X121995226Y-129801898D01*
X122035000Y-129601939D01*
X122035000Y-129398061D01*
X122015109Y-129298061D01*
X122165000Y-129298061D01*
X122165000Y-129501939D01*
X122204774Y-129701898D01*
X122282795Y-129890256D01*
X122396063Y-130059774D01*
X122536289Y-130200000D01*
X122396063Y-130340226D01*
X122282795Y-130509744D01*
X122204774Y-130698102D01*
X122165000Y-130898061D01*
X122165000Y-131101939D01*
X122204774Y-131301898D01*
X122282795Y-131490256D01*
X122396063Y-131659774D01*
X122540226Y-131803937D01*
X122683995Y-131900000D01*
X122540226Y-131996063D01*
X122396063Y-132140226D01*
X122282795Y-132309744D01*
X122204774Y-132498102D01*
X122165000Y-132698061D01*
X122165000Y-132901939D01*
X122204774Y-133101898D01*
X122282795Y-133290256D01*
X122396063Y-133459774D01*
X122540226Y-133603937D01*
X122709744Y-133717205D01*
X122898102Y-133795226D01*
X123098061Y-133835000D01*
X123301939Y-133835000D01*
X123501898Y-133795226D01*
X123690256Y-133717205D01*
X123859774Y-133603937D01*
X124003937Y-133459774D01*
X124117205Y-133290256D01*
X124195226Y-133101898D01*
X124235000Y-132901939D01*
X124235000Y-132698061D01*
X124195226Y-132498102D01*
X124117205Y-132309744D01*
X124003937Y-132140226D01*
X123859774Y-131996063D01*
X123716005Y-131900000D01*
X123859774Y-131803937D01*
X124003937Y-131659774D01*
X124117205Y-131490256D01*
X124195226Y-131301898D01*
X124235000Y-131101939D01*
X124235000Y-130898061D01*
X124195226Y-130698102D01*
X124117205Y-130509744D01*
X124003937Y-130340226D01*
X123863711Y-130200000D01*
X124003937Y-130059774D01*
X124117205Y-129890256D01*
X124195226Y-129701898D01*
X124235000Y-129501939D01*
X124235000Y-129298061D01*
X124195226Y-129098102D01*
X124117205Y-128909744D01*
X124003937Y-128740226D01*
X123859774Y-128596063D01*
X123690256Y-128482795D01*
X123501898Y-128404774D01*
X123301939Y-128365000D01*
X123098061Y-128365000D01*
X122898102Y-128404774D01*
X122709744Y-128482795D01*
X122540226Y-128596063D01*
X122396063Y-128740226D01*
X122282795Y-128909744D01*
X122204774Y-129098102D01*
X122165000Y-129298061D01*
X122015109Y-129298061D01*
X121995226Y-129198102D01*
X121917205Y-129009744D01*
X121803937Y-128840226D01*
X121659774Y-128696063D01*
X121490256Y-128582795D01*
X121301898Y-128504774D01*
X121101939Y-128465000D01*
X120898061Y-128465000D01*
X120698102Y-128504774D01*
X120509744Y-128582795D01*
X120340226Y-128696063D01*
X120196063Y-128840226D01*
X120082795Y-129009744D01*
X120004774Y-129198102D01*
X119965000Y-129398061D01*
X114455393Y-129398061D01*
X114495226Y-129301898D01*
X114535000Y-129101939D01*
X114535000Y-128898061D01*
X114495226Y-128698102D01*
X114417205Y-128509744D01*
X114303937Y-128340226D01*
X114159774Y-128196063D01*
X113990256Y-128082795D01*
X113801898Y-128004774D01*
X113601939Y-127965000D01*
X113398061Y-127965000D01*
X113198102Y-128004774D01*
X113009744Y-128082795D01*
X112840226Y-128196063D01*
X112696063Y-128340226D01*
X112582795Y-128509744D01*
X112504774Y-128698102D01*
X112465000Y-128898061D01*
X100660000Y-128898061D01*
X100660000Y-127178061D01*
X106245000Y-127178061D01*
X106245000Y-127381939D01*
X106284774Y-127581898D01*
X106362795Y-127770256D01*
X106476063Y-127939774D01*
X106620226Y-128083937D01*
X106789744Y-128197205D01*
X106978102Y-128275226D01*
X107178061Y-128315000D01*
X107381939Y-128315000D01*
X107581898Y-128275226D01*
X107770256Y-128197205D01*
X107939774Y-128083937D01*
X108083937Y-127939774D01*
X108197205Y-127770256D01*
X108275226Y-127581898D01*
X108311793Y-127398061D01*
X109465000Y-127398061D01*
X109465000Y-127601939D01*
X109504774Y-127801898D01*
X109582795Y-127990256D01*
X109696063Y-128159774D01*
X109840226Y-128303937D01*
X110009744Y-128417205D01*
X110198102Y-128495226D01*
X110398061Y-128535000D01*
X110601939Y-128535000D01*
X110801898Y-128495226D01*
X110990256Y-128417205D01*
X111159774Y-128303937D01*
X111303937Y-128159774D01*
X111417205Y-127990256D01*
X111495226Y-127801898D01*
X111535000Y-127601939D01*
X111535000Y-127398061D01*
X111495226Y-127198102D01*
X111417205Y-127009744D01*
X111342582Y-126898061D01*
X116965000Y-126898061D01*
X116965000Y-127101939D01*
X117004774Y-127301898D01*
X117082795Y-127490256D01*
X117196063Y-127659774D01*
X117340226Y-127803937D01*
X117509744Y-127917205D01*
X117698102Y-127995226D01*
X117898061Y-128035000D01*
X118101939Y-128035000D01*
X118301898Y-127995226D01*
X118490256Y-127917205D01*
X118659774Y-127803937D01*
X118803937Y-127659774D01*
X118917205Y-127490256D01*
X118995226Y-127301898D01*
X119035000Y-127101939D01*
X119035000Y-126898061D01*
X119030965Y-126877775D01*
X119041574Y-126873380D01*
X119211092Y-126760112D01*
X119355255Y-126615949D01*
X119468523Y-126446431D01*
X119546544Y-126258073D01*
X119586318Y-126058114D01*
X119586318Y-125854236D01*
X119546544Y-125654277D01*
X119468523Y-125465919D01*
X119355255Y-125296401D01*
X119211092Y-125152238D01*
X119041574Y-125038970D01*
X118853216Y-124960949D01*
X118653257Y-124921175D01*
X118449379Y-124921175D01*
X118249420Y-124960949D01*
X118061062Y-125038970D01*
X117891544Y-125152238D01*
X117747381Y-125296401D01*
X117634113Y-125465919D01*
X117556092Y-125654277D01*
X117516318Y-125854236D01*
X117516318Y-126058114D01*
X117520353Y-126078400D01*
X117509744Y-126082795D01*
X117340226Y-126196063D01*
X117196063Y-126340226D01*
X117082795Y-126509744D01*
X117004774Y-126698102D01*
X116965000Y-126898061D01*
X111342582Y-126898061D01*
X111303937Y-126840226D01*
X111159774Y-126696063D01*
X110990256Y-126582795D01*
X110801898Y-126504774D01*
X110601939Y-126465000D01*
X110398061Y-126465000D01*
X110198102Y-126504774D01*
X110009744Y-126582795D01*
X109840226Y-126696063D01*
X109696063Y-126840226D01*
X109582795Y-127009744D01*
X109504774Y-127198102D01*
X109465000Y-127398061D01*
X108311793Y-127398061D01*
X108315000Y-127381939D01*
X108315000Y-127178061D01*
X108275226Y-126978102D01*
X108197205Y-126789744D01*
X108083937Y-126620226D01*
X107939774Y-126476063D01*
X107770256Y-126362795D01*
X107581898Y-126284774D01*
X107381939Y-126245000D01*
X107178061Y-126245000D01*
X106978102Y-126284774D01*
X106789744Y-126362795D01*
X106620226Y-126476063D01*
X106476063Y-126620226D01*
X106362795Y-126789744D01*
X106284774Y-126978102D01*
X106245000Y-127178061D01*
X100660000Y-127178061D01*
X100660000Y-124398061D01*
X112465000Y-124398061D01*
X112465000Y-124601939D01*
X112504774Y-124801898D01*
X112582795Y-124990256D01*
X112696063Y-125159774D01*
X112840226Y-125303937D01*
X113009744Y-125417205D01*
X113198102Y-125495226D01*
X113398061Y-125535000D01*
X113601939Y-125535000D01*
X113801898Y-125495226D01*
X113990256Y-125417205D01*
X114159774Y-125303937D01*
X114303937Y-125159774D01*
X114417205Y-124990256D01*
X114495226Y-124801898D01*
X114535000Y-124601939D01*
X114535000Y-124398061D01*
X114495226Y-124198102D01*
X114417205Y-124009744D01*
X114303937Y-123840226D01*
X114159774Y-123696063D01*
X113990256Y-123582795D01*
X113801898Y-123504774D01*
X113601939Y-123465000D01*
X113398061Y-123465000D01*
X113198102Y-123504774D01*
X113009744Y-123582795D01*
X112840226Y-123696063D01*
X112696063Y-123840226D01*
X112582795Y-124009744D01*
X112504774Y-124198102D01*
X112465000Y-124398061D01*
X100660000Y-124398061D01*
X100660000Y-121398061D01*
X115465000Y-121398061D01*
X115465000Y-121601939D01*
X115504774Y-121801898D01*
X115582795Y-121990256D01*
X115696063Y-122159774D01*
X115840226Y-122303937D01*
X116009744Y-122417205D01*
X116198102Y-122495226D01*
X116398061Y-122535000D01*
X116601939Y-122535000D01*
X116801898Y-122495226D01*
X116990256Y-122417205D01*
X117159774Y-122303937D01*
X117303937Y-122159774D01*
X117417205Y-121990256D01*
X117455393Y-121898061D01*
X118465000Y-121898061D01*
X118465000Y-122101939D01*
X118504774Y-122301898D01*
X118582795Y-122490256D01*
X118696063Y-122659774D01*
X118840226Y-122803937D01*
X119009744Y-122917205D01*
X119198102Y-122995226D01*
X119398061Y-123035000D01*
X119601939Y-123035000D01*
X119801898Y-122995226D01*
X119990256Y-122917205D01*
X120159774Y-122803937D01*
X120250000Y-122713711D01*
X120340226Y-122803937D01*
X120509744Y-122917205D01*
X120698102Y-122995226D01*
X120898061Y-123035000D01*
X121101939Y-123035000D01*
X121301898Y-122995226D01*
X121490256Y-122917205D01*
X121659774Y-122803937D01*
X121803937Y-122659774D01*
X121917205Y-122490256D01*
X121995226Y-122301898D01*
X122035000Y-122101939D01*
X122035000Y-121898061D01*
X121995226Y-121698102D01*
X121917205Y-121509744D01*
X121803937Y-121340226D01*
X121659774Y-121196063D01*
X121490256Y-121082795D01*
X121301898Y-121004774D01*
X121101939Y-120965000D01*
X120898061Y-120965000D01*
X120698102Y-121004774D01*
X120509744Y-121082795D01*
X120340226Y-121196063D01*
X120250000Y-121286289D01*
X120159774Y-121196063D01*
X119990256Y-121082795D01*
X119801898Y-121004774D01*
X119601939Y-120965000D01*
X119398061Y-120965000D01*
X119198102Y-121004774D01*
X119009744Y-121082795D01*
X118840226Y-121196063D01*
X118696063Y-121340226D01*
X118582795Y-121509744D01*
X118504774Y-121698102D01*
X118465000Y-121898061D01*
X117455393Y-121898061D01*
X117495226Y-121801898D01*
X117535000Y-121601939D01*
X117535000Y-121398061D01*
X117495226Y-121198102D01*
X117417205Y-121009744D01*
X117303937Y-120840226D01*
X117159774Y-120696063D01*
X116990256Y-120582795D01*
X116801898Y-120504774D01*
X116601939Y-120465000D01*
X116398061Y-120465000D01*
X116198102Y-120504774D01*
X116009744Y-120582795D01*
X115840226Y-120696063D01*
X115696063Y-120840226D01*
X115582795Y-121009744D01*
X115504774Y-121198102D01*
X115465000Y-121398061D01*
X100660000Y-121398061D01*
X100660000Y-119898061D01*
X110465000Y-119898061D01*
X110465000Y-120101939D01*
X110504774Y-120301898D01*
X110582795Y-120490256D01*
X110696063Y-120659774D01*
X110840226Y-120803937D01*
X111009744Y-120917205D01*
X111198102Y-120995226D01*
X111398061Y-121035000D01*
X111601939Y-121035000D01*
X111801898Y-120995226D01*
X111990256Y-120917205D01*
X112159774Y-120803937D01*
X112303937Y-120659774D01*
X112417205Y-120490256D01*
X112495226Y-120301898D01*
X112535000Y-120101939D01*
X112535000Y-119898061D01*
X112495226Y-119698102D01*
X112417205Y-119509744D01*
X112303937Y-119340226D01*
X112159774Y-119196063D01*
X111990256Y-119082795D01*
X111801898Y-119004774D01*
X111601939Y-118965000D01*
X111398061Y-118965000D01*
X111198102Y-119004774D01*
X111009744Y-119082795D01*
X110840226Y-119196063D01*
X110696063Y-119340226D01*
X110582795Y-119509744D01*
X110504774Y-119698102D01*
X110465000Y-119898061D01*
X100660000Y-119898061D01*
X100660000Y-112804495D01*
X124015000Y-112804495D01*
X124015000Y-113195505D01*
X124091282Y-113579003D01*
X124240915Y-113940250D01*
X124458149Y-114265364D01*
X124734636Y-114541851D01*
X125059750Y-114759085D01*
X125420997Y-114908718D01*
X125804495Y-114985000D01*
X126195505Y-114985000D01*
X126579003Y-114908718D01*
X126940250Y-114759085D01*
X127265364Y-114541851D01*
X127541851Y-114265364D01*
X127759085Y-113940250D01*
X127908718Y-113579003D01*
X127985000Y-113195505D01*
X127985000Y-112804495D01*
X127908718Y-112420997D01*
X127759085Y-112059750D01*
X127541851Y-111734636D01*
X127265364Y-111458149D01*
X126940250Y-111240915D01*
X126579003Y-111091282D01*
X126195505Y-111015000D01*
X125804495Y-111015000D01*
X125420997Y-111091282D01*
X125059750Y-111240915D01*
X124734636Y-111458149D01*
X124458149Y-111734636D01*
X124240915Y-112059750D01*
X124091282Y-112420997D01*
X124015000Y-112804495D01*
X100660000Y-112804495D01*
X100660000Y-108898061D01*
X118965000Y-108898061D01*
X118965000Y-109101939D01*
X119004774Y-109301898D01*
X119082795Y-109490256D01*
X119196063Y-109659774D01*
X119340226Y-109803937D01*
X119509744Y-109917205D01*
X119698102Y-109995226D01*
X119898061Y-110035000D01*
X120101939Y-110035000D01*
X120301898Y-109995226D01*
X120490256Y-109917205D01*
X120659774Y-109803937D01*
X120803937Y-109659774D01*
X120917205Y-109490256D01*
X120995226Y-109301898D01*
X121035000Y-109101939D01*
X121035000Y-108898061D01*
X120995226Y-108698102D01*
X120917205Y-108509744D01*
X120803937Y-108340226D01*
X120659774Y-108196063D01*
X120490256Y-108082795D01*
X120301898Y-108004774D01*
X120101939Y-107965000D01*
X119898061Y-107965000D01*
X119698102Y-108004774D01*
X119509744Y-108082795D01*
X119340226Y-108196063D01*
X119196063Y-108340226D01*
X119082795Y-108509744D01*
X119004774Y-108698102D01*
X118965000Y-108898061D01*
X100660000Y-108898061D01*
X100660000Y-105379999D01*
X124266928Y-105379999D01*
X124266928Y-106620001D01*
X124283992Y-106793255D01*
X124334528Y-106959851D01*
X124416595Y-107113387D01*
X124527038Y-107247962D01*
X124661613Y-107358405D01*
X124815149Y-107440472D01*
X124981745Y-107491008D01*
X125154999Y-107508072D01*
X126845001Y-107508072D01*
X127018255Y-107491008D01*
X127184851Y-107440472D01*
X127338387Y-107358405D01*
X127472962Y-107247962D01*
X127583405Y-107113387D01*
X127665472Y-106959851D01*
X127716008Y-106793255D01*
X127733072Y-106620001D01*
X127733072Y-105379999D01*
X127716008Y-105206745D01*
X127665472Y-105040149D01*
X127583405Y-104886613D01*
X127472962Y-104752038D01*
X127338387Y-104641595D01*
X127229410Y-104583345D01*
X127388306Y-104426326D01*
X127554474Y-104180809D01*
X127669551Y-103907591D01*
X127686302Y-103820031D01*
X127565246Y-103587000D01*
X126127000Y-103587000D01*
X126127000Y-103607000D01*
X125873000Y-103607000D01*
X125873000Y-103587000D01*
X124434754Y-103587000D01*
X124313698Y-103820031D01*
X124330449Y-103907591D01*
X124445526Y-104180809D01*
X124611694Y-104426326D01*
X124770590Y-104583345D01*
X124661613Y-104641595D01*
X124527038Y-104752038D01*
X124416595Y-104886613D01*
X124334528Y-105040149D01*
X124283992Y-105206745D01*
X124266928Y-105379999D01*
X100660000Y-105379999D01*
X100660000Y-103898061D01*
X101965000Y-103898061D01*
X101965000Y-104101939D01*
X102004774Y-104301898D01*
X102082795Y-104490256D01*
X102196063Y-104659774D01*
X102340226Y-104803937D01*
X102509744Y-104917205D01*
X102698102Y-104995226D01*
X102898061Y-105035000D01*
X103101939Y-105035000D01*
X103301898Y-104995226D01*
X103490256Y-104917205D01*
X103659774Y-104803937D01*
X103803937Y-104659774D01*
X103917205Y-104490256D01*
X103995226Y-104301898D01*
X104035000Y-104101939D01*
X104035000Y-103898061D01*
X103995226Y-103698102D01*
X103917205Y-103509744D01*
X103803937Y-103340226D01*
X103659774Y-103196063D01*
X103490256Y-103082795D01*
X103301898Y-103004774D01*
X103101939Y-102965000D01*
X102898061Y-102965000D01*
X102698102Y-103004774D01*
X102509744Y-103082795D01*
X102340226Y-103196063D01*
X102196063Y-103340226D01*
X102082795Y-103509744D01*
X102004774Y-103698102D01*
X101965000Y-103898061D01*
X100660000Y-103898061D01*
X100660000Y-102898061D01*
X105965000Y-102898061D01*
X105965000Y-103101939D01*
X106004774Y-103301898D01*
X106082795Y-103490256D01*
X106196063Y-103659774D01*
X106340226Y-103803937D01*
X106509744Y-103917205D01*
X106698102Y-103995226D01*
X106898061Y-104035000D01*
X107101939Y-104035000D01*
X107301898Y-103995226D01*
X107490256Y-103917205D01*
X107659774Y-103803937D01*
X107803937Y-103659774D01*
X107917205Y-103490256D01*
X107995226Y-103301898D01*
X108035000Y-103101939D01*
X108035000Y-102938061D01*
X108425000Y-102938061D01*
X108425000Y-103141939D01*
X108464774Y-103341898D01*
X108542795Y-103530256D01*
X108656063Y-103699774D01*
X108800226Y-103843937D01*
X108969744Y-103957205D01*
X109158102Y-104035226D01*
X109358061Y-104075000D01*
X109561939Y-104075000D01*
X109761898Y-104035226D01*
X109950256Y-103957205D01*
X110119774Y-103843937D01*
X110263937Y-103699774D01*
X110377205Y-103530256D01*
X110455226Y-103341898D01*
X110495000Y-103141939D01*
X110495000Y-103099969D01*
X124313698Y-103099969D01*
X124434754Y-103333000D01*
X125873000Y-103333000D01*
X125873000Y-102109624D01*
X126127000Y-102109624D01*
X126127000Y-103333000D01*
X127565246Y-103333000D01*
X127686302Y-103099969D01*
X127669551Y-103012409D01*
X127554474Y-102739191D01*
X127388306Y-102493674D01*
X127177433Y-102285292D01*
X126929958Y-102122053D01*
X126655392Y-102010231D01*
X126364286Y-101954123D01*
X126127000Y-102109624D01*
X125873000Y-102109624D01*
X125635714Y-101954123D01*
X125344608Y-102010231D01*
X125070042Y-102122053D01*
X124822567Y-102285292D01*
X124611694Y-102493674D01*
X124445526Y-102739191D01*
X124330449Y-103012409D01*
X124313698Y-103099969D01*
X110495000Y-103099969D01*
X110495000Y-102938061D01*
X110455226Y-102738102D01*
X110377205Y-102549744D01*
X110263937Y-102380226D01*
X110119774Y-102236063D01*
X109950256Y-102122795D01*
X109761898Y-102044774D01*
X109561939Y-102005000D01*
X109358061Y-102005000D01*
X109158102Y-102044774D01*
X108969744Y-102122795D01*
X108800226Y-102236063D01*
X108656063Y-102380226D01*
X108542795Y-102549744D01*
X108464774Y-102738102D01*
X108425000Y-102938061D01*
X108035000Y-102938061D01*
X108035000Y-102898061D01*
X107995226Y-102698102D01*
X107917205Y-102509744D01*
X107803937Y-102340226D01*
X107659774Y-102196063D01*
X107490256Y-102082795D01*
X107301898Y-102004774D01*
X107101939Y-101965000D01*
X106898061Y-101965000D01*
X106698102Y-102004774D01*
X106509744Y-102082795D01*
X106340226Y-102196063D01*
X106196063Y-102340226D01*
X106082795Y-102509744D01*
X106004774Y-102698102D01*
X105965000Y-102898061D01*
X100660000Y-102898061D01*
X100660000Y-100660000D01*
X133340000Y-100660000D01*
X133340001Y-144340000D01*
%TA.AperFunction,Conductor*%
D14*
G36*
X133340001Y-144340000D02*
G01*
X100660000Y-144340000D01*
X100660000Y-140804495D01*
X102015000Y-140804495D01*
X102015000Y-141195505D01*
X102091282Y-141579003D01*
X102240915Y-141940250D01*
X102458149Y-142265364D01*
X102734636Y-142541851D01*
X103059750Y-142759085D01*
X103420997Y-142908718D01*
X103804495Y-142985000D01*
X104195505Y-142985000D01*
X104579003Y-142908718D01*
X104940250Y-142759085D01*
X105265364Y-142541851D01*
X105541851Y-142265364D01*
X105759085Y-141940250D01*
X105908718Y-141579003D01*
X105985000Y-141195505D01*
X105985000Y-140804495D01*
X105908718Y-140420997D01*
X105759085Y-140059750D01*
X105541851Y-139734636D01*
X105265364Y-139458149D01*
X104940250Y-139240915D01*
X104579003Y-139091282D01*
X104195505Y-139015000D01*
X103804495Y-139015000D01*
X103420997Y-139091282D01*
X103059750Y-139240915D01*
X102734636Y-139458149D01*
X102458149Y-139734636D01*
X102240915Y-140059750D01*
X102091282Y-140420997D01*
X102015000Y-140804495D01*
X100660000Y-140804495D01*
X100660000Y-138450000D01*
X114461928Y-138450000D01*
X114461928Y-141550000D01*
X114478992Y-141723254D01*
X114529528Y-141889850D01*
X114611595Y-142043386D01*
X114722038Y-142177962D01*
X114856614Y-142288405D01*
X115010150Y-142370472D01*
X115176746Y-142421008D01*
X115350000Y-142438072D01*
X116650000Y-142438072D01*
X116823254Y-142421008D01*
X116989850Y-142370472D01*
X117143386Y-142288405D01*
X117277962Y-142177962D01*
X117388405Y-142043386D01*
X117470472Y-141889850D01*
X117521008Y-141723254D01*
X117538072Y-141550000D01*
X117538072Y-140127000D01*
X118275000Y-140127000D01*
X118275000Y-141027000D01*
X118329271Y-141324023D01*
X118440446Y-141604751D01*
X118604252Y-141858396D01*
X118814394Y-142075210D01*
X119062796Y-142246862D01*
X119339913Y-142366755D01*
X119445260Y-142391036D01*
X119683000Y-142270378D01*
X119683000Y-140127000D01*
X119937000Y-140127000D01*
X119937000Y-142270378D01*
X120174740Y-142391036D01*
X120280087Y-142366755D01*
X120557204Y-142246862D01*
X120805606Y-142075210D01*
X121015748Y-141858396D01*
X121179554Y-141604751D01*
X121290729Y-141324023D01*
X121345000Y-141027000D01*
X121345000Y-140804495D01*
X128015000Y-140804495D01*
X128015000Y-141195505D01*
X128091282Y-141579003D01*
X128240915Y-141940250D01*
X128458149Y-142265364D01*
X128734636Y-142541851D01*
X129059750Y-142759085D01*
X129420997Y-142908718D01*
X129804495Y-142985000D01*
X130195505Y-142985000D01*
X130579003Y-142908718D01*
X130940250Y-142759085D01*
X131265364Y-142541851D01*
X131541851Y-142265364D01*
X131759085Y-141940250D01*
X131908718Y-141579003D01*
X131985000Y-141195505D01*
X131985000Y-140804495D01*
X131908718Y-140420997D01*
X131759085Y-140059750D01*
X131541851Y-139734636D01*
X131265364Y-139458149D01*
X130940250Y-139240915D01*
X130579003Y-139091282D01*
X130195505Y-139015000D01*
X129804495Y-139015000D01*
X129420997Y-139091282D01*
X129059750Y-139240915D01*
X128734636Y-139458149D01*
X128458149Y-139734636D01*
X128240915Y-140059750D01*
X128091282Y-140420997D01*
X128015000Y-140804495D01*
X121345000Y-140804495D01*
X121345000Y-140127000D01*
X119937000Y-140127000D01*
X119683000Y-140127000D01*
X118275000Y-140127000D01*
X117538072Y-140127000D01*
X117538072Y-138973000D01*
X118275000Y-138973000D01*
X118275000Y-139873000D01*
X119683000Y-139873000D01*
X119683000Y-137729622D01*
X119937000Y-137729622D01*
X119937000Y-139873000D01*
X121345000Y-139873000D01*
X121345000Y-138973000D01*
X121290729Y-138675977D01*
X121179554Y-138395249D01*
X121015748Y-138141604D01*
X120805606Y-137924790D01*
X120557204Y-137753138D01*
X120280087Y-137633245D01*
X120174740Y-137608964D01*
X119937000Y-137729622D01*
X119683000Y-137729622D01*
X119445260Y-137608964D01*
X119339913Y-137633245D01*
X119062796Y-137753138D01*
X118814394Y-137924790D01*
X118604252Y-138141604D01*
X118440446Y-138395249D01*
X118329271Y-138675977D01*
X118275000Y-138973000D01*
X117538072Y-138973000D01*
X117538072Y-138450000D01*
X117521008Y-138276746D01*
X117470472Y-138110150D01*
X117388405Y-137956614D01*
X117277962Y-137822038D01*
X117143386Y-137711595D01*
X116989850Y-137629528D01*
X116823254Y-137578992D01*
X116650000Y-137561928D01*
X115350000Y-137561928D01*
X115176746Y-137578992D01*
X115010150Y-137629528D01*
X114856614Y-137711595D01*
X114722038Y-137822038D01*
X114611595Y-137956614D01*
X114529528Y-138110150D01*
X114478992Y-138276746D01*
X114461928Y-138450000D01*
X100660000Y-138450000D01*
X100660000Y-128898061D01*
X112465000Y-128898061D01*
X112465000Y-129101939D01*
X112504774Y-129301898D01*
X112582795Y-129490256D01*
X112696063Y-129659774D01*
X112840226Y-129803937D01*
X113009744Y-129917205D01*
X113198102Y-129995226D01*
X113398061Y-130035000D01*
X113601939Y-130035000D01*
X113801898Y-129995226D01*
X113990256Y-129917205D01*
X114159774Y-129803937D01*
X114303937Y-129659774D01*
X114417205Y-129490256D01*
X114455393Y-129398061D01*
X119965000Y-129398061D01*
X119965000Y-129601939D01*
X120004774Y-129801898D01*
X120082795Y-129990256D01*
X120196063Y-130159774D01*
X120340226Y-130303937D01*
X120509744Y-130417205D01*
X120698102Y-130495226D01*
X120898061Y-130535000D01*
X121101939Y-130535000D01*
X121301898Y-130495226D01*
X121490256Y-130417205D01*
X121659774Y-130303937D01*
X121803937Y-130159774D01*
X121917205Y-129990256D01*
X121995226Y-129801898D01*
X122035000Y-129601939D01*
X122035000Y-129398061D01*
X122015109Y-129298061D01*
X122165000Y-129298061D01*
X122165000Y-129501939D01*
X122204774Y-129701898D01*
X122282795Y-129890256D01*
X122396063Y-130059774D01*
X122536289Y-130200000D01*
X122396063Y-130340226D01*
X122282795Y-130509744D01*
X122204774Y-130698102D01*
X122165000Y-130898061D01*
X122165000Y-131101939D01*
X122204774Y-131301898D01*
X122282795Y-131490256D01*
X122396063Y-131659774D01*
X122540226Y-131803937D01*
X122683995Y-131900000D01*
X122540226Y-131996063D01*
X122396063Y-132140226D01*
X122282795Y-132309744D01*
X122204774Y-132498102D01*
X122165000Y-132698061D01*
X122165000Y-132901939D01*
X122204774Y-133101898D01*
X122282795Y-133290256D01*
X122396063Y-133459774D01*
X122540226Y-133603937D01*
X122709744Y-133717205D01*
X122898102Y-133795226D01*
X123098061Y-133835000D01*
X123301939Y-133835000D01*
X123501898Y-133795226D01*
X123690256Y-133717205D01*
X123859774Y-133603937D01*
X124003937Y-133459774D01*
X124117205Y-133290256D01*
X124195226Y-133101898D01*
X124235000Y-132901939D01*
X124235000Y-132698061D01*
X124195226Y-132498102D01*
X124117205Y-132309744D01*
X124003937Y-132140226D01*
X123859774Y-131996063D01*
X123716005Y-131900000D01*
X123859774Y-131803937D01*
X124003937Y-131659774D01*
X124117205Y-131490256D01*
X124195226Y-131301898D01*
X124235000Y-131101939D01*
X124235000Y-130898061D01*
X124195226Y-130698102D01*
X124117205Y-130509744D01*
X124003937Y-130340226D01*
X123863711Y-130200000D01*
X124003937Y-130059774D01*
X124117205Y-129890256D01*
X124195226Y-129701898D01*
X124235000Y-129501939D01*
X124235000Y-129298061D01*
X124195226Y-129098102D01*
X124117205Y-128909744D01*
X124003937Y-128740226D01*
X123859774Y-128596063D01*
X123690256Y-128482795D01*
X123501898Y-128404774D01*
X123301939Y-128365000D01*
X123098061Y-128365000D01*
X122898102Y-128404774D01*
X122709744Y-128482795D01*
X122540226Y-128596063D01*
X122396063Y-128740226D01*
X122282795Y-128909744D01*
X122204774Y-129098102D01*
X122165000Y-129298061D01*
X122015109Y-129298061D01*
X121995226Y-129198102D01*
X121917205Y-129009744D01*
X121803937Y-128840226D01*
X121659774Y-128696063D01*
X121490256Y-128582795D01*
X121301898Y-128504774D01*
X121101939Y-128465000D01*
X120898061Y-128465000D01*
X120698102Y-128504774D01*
X120509744Y-128582795D01*
X120340226Y-128696063D01*
X120196063Y-128840226D01*
X120082795Y-129009744D01*
X120004774Y-129198102D01*
X119965000Y-129398061D01*
X114455393Y-129398061D01*
X114495226Y-129301898D01*
X114535000Y-129101939D01*
X114535000Y-128898061D01*
X114495226Y-128698102D01*
X114417205Y-128509744D01*
X114303937Y-128340226D01*
X114159774Y-128196063D01*
X113990256Y-128082795D01*
X113801898Y-128004774D01*
X113601939Y-127965000D01*
X113398061Y-127965000D01*
X113198102Y-128004774D01*
X113009744Y-128082795D01*
X112840226Y-128196063D01*
X112696063Y-128340226D01*
X112582795Y-128509744D01*
X112504774Y-128698102D01*
X112465000Y-128898061D01*
X100660000Y-128898061D01*
X100660000Y-127178061D01*
X106245000Y-127178061D01*
X106245000Y-127381939D01*
X106284774Y-127581898D01*
X106362795Y-127770256D01*
X106476063Y-127939774D01*
X106620226Y-128083937D01*
X106789744Y-128197205D01*
X106978102Y-128275226D01*
X107178061Y-128315000D01*
X107381939Y-128315000D01*
X107581898Y-128275226D01*
X107770256Y-128197205D01*
X107939774Y-128083937D01*
X108083937Y-127939774D01*
X108197205Y-127770256D01*
X108275226Y-127581898D01*
X108311793Y-127398061D01*
X109465000Y-127398061D01*
X109465000Y-127601939D01*
X109504774Y-127801898D01*
X109582795Y-127990256D01*
X109696063Y-128159774D01*
X109840226Y-128303937D01*
X110009744Y-128417205D01*
X110198102Y-128495226D01*
X110398061Y-128535000D01*
X110601939Y-128535000D01*
X110801898Y-128495226D01*
X110990256Y-128417205D01*
X111159774Y-128303937D01*
X111303937Y-128159774D01*
X111417205Y-127990256D01*
X111495226Y-127801898D01*
X111535000Y-127601939D01*
X111535000Y-127398061D01*
X111495226Y-127198102D01*
X111417205Y-127009744D01*
X111342582Y-126898061D01*
X116965000Y-126898061D01*
X116965000Y-127101939D01*
X117004774Y-127301898D01*
X117082795Y-127490256D01*
X117196063Y-127659774D01*
X117340226Y-127803937D01*
X117509744Y-127917205D01*
X117698102Y-127995226D01*
X117898061Y-128035000D01*
X118101939Y-128035000D01*
X118301898Y-127995226D01*
X118490256Y-127917205D01*
X118659774Y-127803937D01*
X118803937Y-127659774D01*
X118917205Y-127490256D01*
X118995226Y-127301898D01*
X119035000Y-127101939D01*
X119035000Y-126898061D01*
X119030965Y-126877775D01*
X119041574Y-126873380D01*
X119211092Y-126760112D01*
X119355255Y-126615949D01*
X119468523Y-126446431D01*
X119546544Y-126258073D01*
X119586318Y-126058114D01*
X119586318Y-125854236D01*
X119546544Y-125654277D01*
X119468523Y-125465919D01*
X119355255Y-125296401D01*
X119211092Y-125152238D01*
X119041574Y-125038970D01*
X118853216Y-124960949D01*
X118653257Y-124921175D01*
X118449379Y-124921175D01*
X118249420Y-124960949D01*
X118061062Y-125038970D01*
X117891544Y-125152238D01*
X117747381Y-125296401D01*
X117634113Y-125465919D01*
X117556092Y-125654277D01*
X117516318Y-125854236D01*
X117516318Y-126058114D01*
X117520353Y-126078400D01*
X117509744Y-126082795D01*
X117340226Y-126196063D01*
X117196063Y-126340226D01*
X117082795Y-126509744D01*
X117004774Y-126698102D01*
X116965000Y-126898061D01*
X111342582Y-126898061D01*
X111303937Y-126840226D01*
X111159774Y-126696063D01*
X110990256Y-126582795D01*
X110801898Y-126504774D01*
X110601939Y-126465000D01*
X110398061Y-126465000D01*
X110198102Y-126504774D01*
X110009744Y-126582795D01*
X109840226Y-126696063D01*
X109696063Y-126840226D01*
X109582795Y-127009744D01*
X109504774Y-127198102D01*
X109465000Y-127398061D01*
X108311793Y-127398061D01*
X108315000Y-127381939D01*
X108315000Y-127178061D01*
X108275226Y-126978102D01*
X108197205Y-126789744D01*
X108083937Y-126620226D01*
X107939774Y-126476063D01*
X107770256Y-126362795D01*
X107581898Y-126284774D01*
X107381939Y-126245000D01*
X107178061Y-126245000D01*
X106978102Y-126284774D01*
X106789744Y-126362795D01*
X106620226Y-126476063D01*
X106476063Y-126620226D01*
X106362795Y-126789744D01*
X106284774Y-126978102D01*
X106245000Y-127178061D01*
X100660000Y-127178061D01*
X100660000Y-124398061D01*
X112465000Y-124398061D01*
X112465000Y-124601939D01*
X112504774Y-124801898D01*
X112582795Y-124990256D01*
X112696063Y-125159774D01*
X112840226Y-125303937D01*
X113009744Y-125417205D01*
X113198102Y-125495226D01*
X113398061Y-125535000D01*
X113601939Y-125535000D01*
X113801898Y-125495226D01*
X113990256Y-125417205D01*
X114159774Y-125303937D01*
X114303937Y-125159774D01*
X114417205Y-124990256D01*
X114495226Y-124801898D01*
X114535000Y-124601939D01*
X114535000Y-124398061D01*
X114495226Y-124198102D01*
X114417205Y-124009744D01*
X114303937Y-123840226D01*
X114159774Y-123696063D01*
X113990256Y-123582795D01*
X113801898Y-123504774D01*
X113601939Y-123465000D01*
X113398061Y-123465000D01*
X113198102Y-123504774D01*
X113009744Y-123582795D01*
X112840226Y-123696063D01*
X112696063Y-123840226D01*
X112582795Y-124009744D01*
X112504774Y-124198102D01*
X112465000Y-124398061D01*
X100660000Y-124398061D01*
X100660000Y-121398061D01*
X115465000Y-121398061D01*
X115465000Y-121601939D01*
X115504774Y-121801898D01*
X115582795Y-121990256D01*
X115696063Y-122159774D01*
X115840226Y-122303937D01*
X116009744Y-122417205D01*
X116198102Y-122495226D01*
X116398061Y-122535000D01*
X116601939Y-122535000D01*
X116801898Y-122495226D01*
X116990256Y-122417205D01*
X117159774Y-122303937D01*
X117303937Y-122159774D01*
X117417205Y-121990256D01*
X117455393Y-121898061D01*
X118465000Y-121898061D01*
X118465000Y-122101939D01*
X118504774Y-122301898D01*
X118582795Y-122490256D01*
X118696063Y-122659774D01*
X118840226Y-122803937D01*
X119009744Y-122917205D01*
X119198102Y-122995226D01*
X119398061Y-123035000D01*
X119601939Y-123035000D01*
X119801898Y-122995226D01*
X119990256Y-122917205D01*
X120159774Y-122803937D01*
X120250000Y-122713711D01*
X120340226Y-122803937D01*
X120509744Y-122917205D01*
X120698102Y-122995226D01*
X120898061Y-123035000D01*
X121101939Y-123035000D01*
X121301898Y-122995226D01*
X121490256Y-122917205D01*
X121659774Y-122803937D01*
X121803937Y-122659774D01*
X121917205Y-122490256D01*
X121995226Y-122301898D01*
X122035000Y-122101939D01*
X122035000Y-121898061D01*
X121995226Y-121698102D01*
X121917205Y-121509744D01*
X121803937Y-121340226D01*
X121659774Y-121196063D01*
X121490256Y-121082795D01*
X121301898Y-121004774D01*
X121101939Y-120965000D01*
X120898061Y-120965000D01*
X120698102Y-121004774D01*
X120509744Y-121082795D01*
X120340226Y-121196063D01*
X120250000Y-121286289D01*
X120159774Y-121196063D01*
X119990256Y-121082795D01*
X119801898Y-121004774D01*
X119601939Y-120965000D01*
X119398061Y-120965000D01*
X119198102Y-121004774D01*
X119009744Y-121082795D01*
X118840226Y-121196063D01*
X118696063Y-121340226D01*
X118582795Y-121509744D01*
X118504774Y-121698102D01*
X118465000Y-121898061D01*
X117455393Y-121898061D01*
X117495226Y-121801898D01*
X117535000Y-121601939D01*
X117535000Y-121398061D01*
X117495226Y-121198102D01*
X117417205Y-121009744D01*
X117303937Y-120840226D01*
X117159774Y-120696063D01*
X116990256Y-120582795D01*
X116801898Y-120504774D01*
X116601939Y-120465000D01*
X116398061Y-120465000D01*
X116198102Y-120504774D01*
X116009744Y-120582795D01*
X115840226Y-120696063D01*
X115696063Y-120840226D01*
X115582795Y-121009744D01*
X115504774Y-121198102D01*
X115465000Y-121398061D01*
X100660000Y-121398061D01*
X100660000Y-119898061D01*
X110465000Y-119898061D01*
X110465000Y-120101939D01*
X110504774Y-120301898D01*
X110582795Y-120490256D01*
X110696063Y-120659774D01*
X110840226Y-120803937D01*
X111009744Y-120917205D01*
X111198102Y-120995226D01*
X111398061Y-121035000D01*
X111601939Y-121035000D01*
X111801898Y-120995226D01*
X111990256Y-120917205D01*
X112159774Y-120803937D01*
X112303937Y-120659774D01*
X112417205Y-120490256D01*
X112495226Y-120301898D01*
X112535000Y-120101939D01*
X112535000Y-119898061D01*
X112495226Y-119698102D01*
X112417205Y-119509744D01*
X112303937Y-119340226D01*
X112159774Y-119196063D01*
X111990256Y-119082795D01*
X111801898Y-119004774D01*
X111601939Y-118965000D01*
X111398061Y-118965000D01*
X111198102Y-119004774D01*
X111009744Y-119082795D01*
X110840226Y-119196063D01*
X110696063Y-119340226D01*
X110582795Y-119509744D01*
X110504774Y-119698102D01*
X110465000Y-119898061D01*
X100660000Y-119898061D01*
X100660000Y-112804495D01*
X124015000Y-112804495D01*
X124015000Y-113195505D01*
X124091282Y-113579003D01*
X124240915Y-113940250D01*
X124458149Y-114265364D01*
X124734636Y-114541851D01*
X125059750Y-114759085D01*
X125420997Y-114908718D01*
X125804495Y-114985000D01*
X126195505Y-114985000D01*
X126579003Y-114908718D01*
X126940250Y-114759085D01*
X127265364Y-114541851D01*
X127541851Y-114265364D01*
X127759085Y-113940250D01*
X127908718Y-113579003D01*
X127985000Y-113195505D01*
X127985000Y-112804495D01*
X127908718Y-112420997D01*
X127759085Y-112059750D01*
X127541851Y-111734636D01*
X127265364Y-111458149D01*
X126940250Y-111240915D01*
X126579003Y-111091282D01*
X126195505Y-111015000D01*
X125804495Y-111015000D01*
X125420997Y-111091282D01*
X125059750Y-111240915D01*
X124734636Y-111458149D01*
X124458149Y-111734636D01*
X124240915Y-112059750D01*
X124091282Y-112420997D01*
X124015000Y-112804495D01*
X100660000Y-112804495D01*
X100660000Y-108898061D01*
X118965000Y-108898061D01*
X118965000Y-109101939D01*
X119004774Y-109301898D01*
X119082795Y-109490256D01*
X119196063Y-109659774D01*
X119340226Y-109803937D01*
X119509744Y-109917205D01*
X119698102Y-109995226D01*
X119898061Y-110035000D01*
X120101939Y-110035000D01*
X120301898Y-109995226D01*
X120490256Y-109917205D01*
X120659774Y-109803937D01*
X120803937Y-109659774D01*
X120917205Y-109490256D01*
X120995226Y-109301898D01*
X121035000Y-109101939D01*
X121035000Y-108898061D01*
X120995226Y-108698102D01*
X120917205Y-108509744D01*
X120803937Y-108340226D01*
X120659774Y-108196063D01*
X120490256Y-108082795D01*
X120301898Y-108004774D01*
X120101939Y-107965000D01*
X119898061Y-107965000D01*
X119698102Y-108004774D01*
X119509744Y-108082795D01*
X119340226Y-108196063D01*
X119196063Y-108340226D01*
X119082795Y-108509744D01*
X119004774Y-108698102D01*
X118965000Y-108898061D01*
X100660000Y-108898061D01*
X100660000Y-105379999D01*
X124266928Y-105379999D01*
X124266928Y-106620001D01*
X124283992Y-106793255D01*
X124334528Y-106959851D01*
X124416595Y-107113387D01*
X124527038Y-107247962D01*
X124661613Y-107358405D01*
X124815149Y-107440472D01*
X124981745Y-107491008D01*
X125154999Y-107508072D01*
X126845001Y-107508072D01*
X127018255Y-107491008D01*
X127184851Y-107440472D01*
X127338387Y-107358405D01*
X127472962Y-107247962D01*
X127583405Y-107113387D01*
X127665472Y-106959851D01*
X127716008Y-106793255D01*
X127733072Y-106620001D01*
X127733072Y-105379999D01*
X127716008Y-105206745D01*
X127665472Y-105040149D01*
X127583405Y-104886613D01*
X127472962Y-104752038D01*
X127338387Y-104641595D01*
X127229410Y-104583345D01*
X127388306Y-104426326D01*
X127554474Y-104180809D01*
X127669551Y-103907591D01*
X127686302Y-103820031D01*
X127565246Y-103587000D01*
X126127000Y-103587000D01*
X126127000Y-103607000D01*
X125873000Y-103607000D01*
X125873000Y-103587000D01*
X124434754Y-103587000D01*
X124313698Y-103820031D01*
X124330449Y-103907591D01*
X124445526Y-104180809D01*
X124611694Y-104426326D01*
X124770590Y-104583345D01*
X124661613Y-104641595D01*
X124527038Y-104752038D01*
X124416595Y-104886613D01*
X124334528Y-105040149D01*
X124283992Y-105206745D01*
X124266928Y-105379999D01*
X100660000Y-105379999D01*
X100660000Y-103898061D01*
X101965000Y-103898061D01*
X101965000Y-104101939D01*
X102004774Y-104301898D01*
X102082795Y-104490256D01*
X102196063Y-104659774D01*
X102340226Y-104803937D01*
X102509744Y-104917205D01*
X102698102Y-104995226D01*
X102898061Y-105035000D01*
X103101939Y-105035000D01*
X103301898Y-104995226D01*
X103490256Y-104917205D01*
X103659774Y-104803937D01*
X103803937Y-104659774D01*
X103917205Y-104490256D01*
X103995226Y-104301898D01*
X104035000Y-104101939D01*
X104035000Y-103898061D01*
X103995226Y-103698102D01*
X103917205Y-103509744D01*
X103803937Y-103340226D01*
X103659774Y-103196063D01*
X103490256Y-103082795D01*
X103301898Y-103004774D01*
X103101939Y-102965000D01*
X102898061Y-102965000D01*
X102698102Y-103004774D01*
X102509744Y-103082795D01*
X102340226Y-103196063D01*
X102196063Y-103340226D01*
X102082795Y-103509744D01*
X102004774Y-103698102D01*
X101965000Y-103898061D01*
X100660000Y-103898061D01*
X100660000Y-102898061D01*
X105965000Y-102898061D01*
X105965000Y-103101939D01*
X106004774Y-103301898D01*
X106082795Y-103490256D01*
X106196063Y-103659774D01*
X106340226Y-103803937D01*
X106509744Y-103917205D01*
X106698102Y-103995226D01*
X106898061Y-104035000D01*
X107101939Y-104035000D01*
X107301898Y-103995226D01*
X107490256Y-103917205D01*
X107659774Y-103803937D01*
X107803937Y-103659774D01*
X107917205Y-103490256D01*
X107995226Y-103301898D01*
X108035000Y-103101939D01*
X108035000Y-102938061D01*
X108425000Y-102938061D01*
X108425000Y-103141939D01*
X108464774Y-103341898D01*
X108542795Y-103530256D01*
X108656063Y-103699774D01*
X108800226Y-103843937D01*
X108969744Y-103957205D01*
X109158102Y-104035226D01*
X109358061Y-104075000D01*
X109561939Y-104075000D01*
X109761898Y-104035226D01*
X109950256Y-103957205D01*
X110119774Y-103843937D01*
X110263937Y-103699774D01*
X110377205Y-103530256D01*
X110455226Y-103341898D01*
X110495000Y-103141939D01*
X110495000Y-103099969D01*
X124313698Y-103099969D01*
X124434754Y-103333000D01*
X125873000Y-103333000D01*
X125873000Y-102109624D01*
X126127000Y-102109624D01*
X126127000Y-103333000D01*
X127565246Y-103333000D01*
X127686302Y-103099969D01*
X127669551Y-103012409D01*
X127554474Y-102739191D01*
X127388306Y-102493674D01*
X127177433Y-102285292D01*
X126929958Y-102122053D01*
X126655392Y-102010231D01*
X126364286Y-101954123D01*
X126127000Y-102109624D01*
X125873000Y-102109624D01*
X125635714Y-101954123D01*
X125344608Y-102010231D01*
X125070042Y-102122053D01*
X124822567Y-102285292D01*
X124611694Y-102493674D01*
X124445526Y-102739191D01*
X124330449Y-103012409D01*
X124313698Y-103099969D01*
X110495000Y-103099969D01*
X110495000Y-102938061D01*
X110455226Y-102738102D01*
X110377205Y-102549744D01*
X110263937Y-102380226D01*
X110119774Y-102236063D01*
X109950256Y-102122795D01*
X109761898Y-102044774D01*
X109561939Y-102005000D01*
X109358061Y-102005000D01*
X109158102Y-102044774D01*
X108969744Y-102122795D01*
X108800226Y-102236063D01*
X108656063Y-102380226D01*
X108542795Y-102549744D01*
X108464774Y-102738102D01*
X108425000Y-102938061D01*
X108035000Y-102938061D01*
X108035000Y-102898061D01*
X107995226Y-102698102D01*
X107917205Y-102509744D01*
X107803937Y-102340226D01*
X107659774Y-102196063D01*
X107490256Y-102082795D01*
X107301898Y-102004774D01*
X107101939Y-101965000D01*
X106898061Y-101965000D01*
X106698102Y-102004774D01*
X106509744Y-102082795D01*
X106340226Y-102196063D01*
X106196063Y-102340226D01*
X106082795Y-102509744D01*
X106004774Y-102698102D01*
X105965000Y-102898061D01*
X100660000Y-102898061D01*
X100660000Y-100660000D01*
X133340000Y-100660000D01*
X133340001Y-144340000D01*
G37*
%TD.AperFunction*%
%TD*%
M02*
